<svg width="538" height="370" viewBox="0 0 538 370" fill="none" xmlns="http://www.w3.org/2000/svg">
<g filter="url(#filter0_d_6874_65215)">
<g clip-path="url(#clip0_6874_65215)">
<path d="M0 5C0 2.23857 2.23858 0 5 0H533C535.761 0 538 2.23858 538 5V365C538 367.761 535.761 370 533 370H5C2.23857 370 0 367.761 0 365V5Z" fill="#BABADC"/>
<path d="M0 5C0 2.23858 2.23858 0 5 0H80L0 80V5Z" fill="#FF6D00"/>
<path d="M21.0177 34.308C20.1671 34.308 19.4044 34.2053 18.7297 34C18.0551 33.8093 17.4537 33.5453 16.9257 33.208C16.4124 32.856 15.9651 32.4673 15.5837 32.042L17.1017 29.996C17.6004 30.4507 18.1431 30.8467 18.7297 31.184C19.3311 31.5067 19.9984 31.668 20.7317 31.668C21.2891 31.668 21.7731 31.58 22.1837 31.404C22.6091 31.228 22.9317 30.9713 23.1517 30.634C23.3864 30.2967 23.5037 29.886 23.5037 29.402C23.5037 28.8593 23.3717 28.3973 23.1077 28.016C22.8584 27.62 22.4111 27.3193 21.7657 27.114C21.1204 26.9087 20.2111 26.806 19.0377 26.806V24.474C20.0351 24.474 20.8197 24.3713 21.3917 24.166C21.9637 23.946 22.3671 23.6527 22.6017 23.286C22.8511 22.9047 22.9757 22.472 22.9757 21.988C22.9757 21.3573 22.7851 20.866 22.4037 20.514C22.0224 20.1473 21.4871 19.964 20.7977 19.964C20.2257 19.964 19.6904 20.096 19.1917 20.36C18.7077 20.6093 18.2237 20.954 17.7397 21.394L16.0677 19.392C16.7864 18.7907 17.5417 18.314 18.3337 17.962C19.1257 17.5953 19.9984 17.412 20.9517 17.412C21.9931 17.412 22.9097 17.5807 23.7017 17.918C24.5084 18.2553 25.1317 18.7467 25.5717 19.392C26.0117 20.0373 26.2317 20.822 26.2317 21.746C26.2317 22.626 25.9971 23.3813 25.5277 24.012C25.0584 24.6427 24.3911 25.1267 23.5257 25.464V25.574C24.1271 25.7353 24.6697 25.9993 25.1537 26.366C25.6524 26.718 26.0411 27.1653 26.3197 27.708C26.6131 28.2507 26.7597 28.8813 26.7597 29.6C26.7597 30.5827 26.4957 31.426 25.9677 32.13C25.4544 32.834 24.7577 33.3767 23.8777 33.758C23.0124 34.1247 22.0591 34.308 21.0177 34.308Z" fill="white"/>
<rect width="538" height="60" transform="translate(0 310)" fill="#171717" fill-opacity="0.65"/>
<path d="M192.457 350V332.216H197.329C199.153 332.216 200.713 332.536 202.009 333.176C203.321 333.816 204.329 334.784 205.033 336.08C205.753 337.376 206.113 339.024 206.113 341.024C206.113 343.024 205.761 344.688 205.057 346.016C204.353 347.344 203.361 348.344 202.081 349.016C200.801 349.672 199.281 350 197.521 350H192.457ZM196.009 347.12H197.089C198.209 347.12 199.169 346.92 199.969 346.52C200.785 346.104 201.409 345.448 201.841 344.552C202.273 343.64 202.489 342.464 202.489 341.024C202.489 339.584 202.273 338.432 201.841 337.568C201.409 336.688 200.785 336.056 199.969 335.672C199.169 335.272 198.209 335.072 197.089 335.072H196.009V347.12ZM209.302 350V336.56H212.182L212.446 338.936H212.518C213.014 338.056 213.598 337.384 214.27 336.92C214.942 336.456 215.63 336.224 216.334 336.224C216.718 336.224 217.022 336.256 217.246 336.32C217.486 336.368 217.702 336.432 217.894 336.512L217.318 339.56C217.062 339.496 216.83 339.448 216.622 339.416C216.43 339.368 216.182 339.344 215.878 339.344C215.366 339.344 214.822 339.544 214.246 339.944C213.686 340.344 213.214 341.024 212.83 341.984V350H209.302ZM219.779 350V336.56H223.307V350H219.779ZM221.555 334.376C220.931 334.376 220.435 334.208 220.067 333.872C219.699 333.52 219.515 333.048 219.515 332.456C219.515 331.88 219.699 331.416 220.067 331.064C220.435 330.712 220.931 330.536 221.555 330.536C222.147 330.536 222.635 330.712 223.019 331.064C223.403 331.416 223.595 331.88 223.595 332.456C223.595 333.048 223.403 333.52 223.019 333.872C222.635 334.208 222.147 334.376 221.555 334.376ZM230.404 350.336C229.572 350.336 228.916 350.168 228.436 349.832C227.956 349.48 227.604 349 227.38 348.392C227.172 347.768 227.068 347.048 227.068 346.232V330.848H230.596V346.376C230.596 346.776 230.668 347.056 230.812 347.216C230.972 347.376 231.132 347.456 231.292 347.456C231.372 347.456 231.444 347.456 231.508 347.456C231.572 347.44 231.66 347.424 231.772 347.408L232.204 350.024C231.996 350.104 231.74 350.176 231.436 350.24C231.148 350.304 230.804 350.336 230.404 350.336ZM237.974 350.336C237.142 350.336 236.486 350.168 236.006 349.832C235.526 349.48 235.174 349 234.95 348.392C234.742 347.768 234.638 347.048 234.638 346.232V330.848H238.166V346.376C238.166 346.776 238.238 347.056 238.382 347.216C238.542 347.376 238.702 347.456 238.862 347.456C238.942 347.456 239.014 347.456 239.078 347.456C239.142 347.44 239.23 347.424 239.342 347.408L239.774 350.024C239.566 350.104 239.31 350.176 239.006 350.24C238.718 350.304 238.374 350.336 237.974 350.336ZM250.934 350.336C250.15 350.336 249.454 350.168 248.846 349.832C248.254 349.48 247.79 349 247.454 348.392C247.134 347.784 246.974 347.096 246.974 346.328C246.974 344.904 247.59 343.8 248.822 343.016C250.054 342.216 252.014 341.672 254.702 341.384C254.686 340.936 254.606 340.544 254.462 340.208C254.318 339.856 254.078 339.576 253.742 339.368C253.422 339.16 252.982 339.056 252.422 339.056C251.798 339.056 251.182 339.176 250.574 339.416C249.966 339.656 249.35 339.968 248.726 340.352L247.478 338C248.006 337.664 248.566 337.368 249.158 337.112C249.75 336.856 250.374 336.648 251.03 336.488C251.686 336.312 252.366 336.224 253.07 336.224C254.206 336.224 255.158 336.448 255.926 336.896C256.694 337.344 257.27 338.008 257.654 338.888C258.038 339.768 258.23 340.856 258.23 342.152V350H255.35L255.11 348.56H254.99C254.414 349.072 253.79 349.496 253.118 349.832C252.446 350.168 251.718 350.336 250.934 350.336ZM252.11 347.576C252.606 347.576 253.054 347.464 253.454 347.24C253.87 347 254.286 346.672 254.702 346.256V343.568C253.614 343.696 252.75 343.88 252.11 344.12C251.47 344.36 251.014 344.648 250.742 344.984C250.47 345.304 250.334 345.664 250.334 346.064C250.334 346.592 250.494 346.976 250.814 347.216C251.15 347.456 251.582 347.576 252.11 347.576ZM261.826 350V336.56H264.706L264.97 338.336H265.042C265.634 337.76 266.282 337.264 266.986 336.848C267.69 336.432 268.498 336.224 269.41 336.224C270.866 336.224 271.922 336.704 272.578 337.664C273.234 338.608 273.562 339.928 273.562 341.624V350H270.034V342.056C270.034 341.016 269.882 340.288 269.578 339.872C269.29 339.456 268.81 339.248 268.138 339.248C267.594 339.248 267.114 339.376 266.698 339.632C266.298 339.888 265.85 340.264 265.354 340.76V350H261.826ZM281.929 350.336C280.809 350.336 279.833 350.056 279.001 349.496C278.185 348.936 277.553 348.128 277.105 347.072C276.657 346.016 276.433 344.752 276.433 343.28C276.433 341.824 276.697 340.576 277.225 339.536C277.769 338.48 278.473 337.664 279.337 337.088C280.201 336.512 281.113 336.224 282.073 336.224C282.825 336.224 283.457 336.36 283.969 336.632C284.497 336.888 285.001 337.24 285.481 337.688L285.361 335.576V330.848H288.889V350H286.009L285.745 348.608H285.649C285.153 349.088 284.585 349.496 283.945 349.832C283.305 350.168 282.633 350.336 281.929 350.336ZM282.841 347.432C283.321 347.432 283.761 347.328 284.161 347.12C284.577 346.896 284.977 346.536 285.361 346.04V340.136C284.961 339.768 284.545 339.512 284.113 339.368C283.697 339.208 283.273 339.128 282.841 339.128C282.345 339.128 281.881 339.288 281.449 339.608C281.033 339.912 280.697 340.368 280.441 340.976C280.185 341.584 280.057 342.336 280.057 343.232C280.057 344.16 280.161 344.936 280.369 345.56C280.593 346.184 280.913 346.656 281.329 346.976C281.745 347.28 282.249 347.432 282.841 347.432ZM298.372 350V332.216H304.204C305.516 332.216 306.692 332.392 307.732 332.744C308.788 333.096 309.62 333.68 310.228 334.496C310.852 335.296 311.164 336.4 311.164 337.808C311.164 339.152 310.852 340.264 310.228 341.144C309.62 342.008 308.796 342.648 307.756 343.064C306.732 343.48 305.58 343.688 304.3 343.688H301.924V350H298.372ZM301.924 340.88H304.06C305.276 340.88 306.18 340.624 306.772 340.112C307.38 339.6 307.684 338.832 307.684 337.808C307.684 336.784 307.364 336.072 306.724 335.672C306.1 335.256 305.172 335.048 303.94 335.048H301.924V340.88ZM317.427 350.336C316.595 350.336 315.939 350.168 315.459 349.832C314.979 349.48 314.627 349 314.403 348.392C314.195 347.768 314.091 347.048 314.091 346.232V330.848H317.619V346.376C317.619 346.776 317.691 347.056 317.835 347.216C317.995 347.376 318.155 347.456 318.315 347.456C318.395 347.456 318.467 347.456 318.531 347.456C318.595 347.44 318.683 347.424 318.795 347.408L319.227 350.024C319.019 350.104 318.763 350.176 318.459 350.24C318.171 350.304 317.827 350.336 317.427 350.336ZM324.95 350.336C324.166 350.336 323.47 350.168 322.862 349.832C322.27 349.48 321.806 349 321.47 348.392C321.15 347.784 320.99 347.096 320.99 346.328C320.99 344.904 321.606 343.8 322.838 343.016C324.07 342.216 326.03 341.672 328.718 341.384C328.702 340.936 328.622 340.544 328.478 340.208C328.334 339.856 328.094 339.576 327.758 339.368C327.438 339.16 326.998 339.056 326.438 339.056C325.814 339.056 325.198 339.176 324.59 339.416C323.982 339.656 323.366 339.968 322.742 340.352L321.494 338C322.022 337.664 322.582 337.368 323.174 337.112C323.766 336.856 324.39 336.648 325.046 336.488C325.702 336.312 326.382 336.224 327.086 336.224C328.222 336.224 329.174 336.448 329.942 336.896C330.71 337.344 331.286 338.008 331.67 338.888C332.054 339.768 332.246 340.856 332.246 342.152V350H329.366L329.126 348.56H329.006C328.43 349.072 327.806 349.496 327.134 349.832C326.462 350.168 325.734 350.336 324.95 350.336ZM326.126 347.576C326.622 347.576 327.07 347.464 327.47 347.24C327.886 347 328.302 346.672 328.718 346.256V343.568C327.63 343.696 326.766 343.88 326.126 344.12C325.486 344.36 325.03 344.648 324.758 344.984C324.486 345.304 324.35 345.664 324.35 346.064C324.35 346.592 324.51 346.976 324.83 347.216C325.166 347.456 325.598 347.576 326.126 347.576ZM337.017 355.376C336.617 355.376 336.273 355.352 335.985 355.304C335.697 355.256 335.425 355.192 335.169 355.112L335.817 352.424C335.945 352.456 336.089 352.488 336.249 352.52C336.425 352.568 336.593 352.592 336.753 352.592C337.441 352.592 337.985 352.4 338.385 352.016C338.785 351.632 339.081 351.144 339.273 350.552L339.513 349.736L334.281 336.56H337.833L339.969 342.8C340.177 343.408 340.369 344.032 340.545 344.672C340.721 345.312 340.905 345.952 341.097 346.592H341.217C341.361 345.952 341.513 345.32 341.673 344.696C341.849 344.056 342.017 343.424 342.177 342.8L344.025 336.56H347.409L342.633 350.408C342.249 351.464 341.809 352.36 341.313 353.096C340.817 353.848 340.225 354.416 339.537 354.8C338.865 355.184 338.025 355.376 337.017 355.376Z" fill="white"/>
</g>
</g>
<defs>
<filter id="filter0_d_6874_65215" x="-7" y="-5" width="558" height="390" filterUnits="userSpaceOnUse" color-interpolation-filters="sRGB">
<feFlood flood-opacity="0" result="BackgroundImageFix"/>
<feColorMatrix in="SourceAlpha" type="matrix" values="0 0 0 0 0 0 0 0 0 0 0 0 0 0 0 0 0 0 127 0" result="hardAlpha"/>
<feOffset dx="3" dy="5"/>
<feGaussianBlur stdDeviation="5"/>
<feComposite in2="hardAlpha" operator="out"/>
<feColorMatrix type="matrix" values="0 0 0 0 0 0 0 0 0 0 0 0 0 0 0 0 0 0 0.05 0"/>
<feBlend mode="multiply" in2="BackgroundImageFix" result="effect1_dropShadow_6874_65215"/>
<feBlend mode="normal" in="SourceGraphic" in2="effect1_dropShadow_6874_65215" result="shape"/>
</filter>
<clipPath id="clip0_6874_65215">
<path d="M0 5C0 2.23857 2.23858 0 5 0H533C535.761 0 538 2.23858 538 5V365C538 367.761 535.761 370 533 370H5C2.23857 370 0 367.761 0 365V5Z" fill="white"/>
</clipPath>
</defs>
</svg>
