<svg width="470" height="370" viewBox="0 0 470 370" fill="none" xmlns="http://www.w3.org/2000/svg">
<g filter="url(#filter0_d_6874_64318)">
<g clip-path="url(#clip0_6874_64318)">
<path d="M0 5C0 2.23857 2.23858 0 5 0H465C467.761 0 470 2.23858 470 5V365C470 367.761 467.761 370 465 370H5C2.23858 370 0 367.761 0 365V5Z" fill="#8DBB2C"/>
<path d="M194.678 188.312H198.484V184.99C198.484 184.044 198.55 182.57 198.594 181.602H198.506C198.11 182.482 197.67 183.384 197.208 184.264L194.678 188.312ZM198.484 195V190.776H191.532V188.576L197.604 178.698H201.498V188.312H203.412V190.776H201.498V195H198.484ZM208.117 195C208.403 189.346 209.349 185.738 212.451 181.426H205.125V178.698H215.949V180.678C212.165 185.298 211.659 188.62 211.395 195H208.117ZM223.47 195.308C220.148 195.308 217.948 192.404 217.948 186.794C217.948 181.162 220.148 178.412 223.47 178.412C226.792 178.412 228.97 181.184 228.97 186.794C228.97 192.404 226.792 195.308 223.47 195.308ZM223.47 192.778C224.878 192.778 225.912 191.37 225.912 186.794C225.912 182.24 224.878 180.92 223.47 180.92C222.062 180.92 221.006 182.24 221.006 186.794C221.006 191.37 222.062 192.778 223.47 192.778ZM233.566 185.804L232.18 184.792L233.632 182.284L231.014 181.118L231.542 179.49L234.358 180.106L234.644 177.224H236.382L236.646 180.128L239.462 179.49L239.99 181.118L237.35 182.284L238.846 184.792L237.438 185.804L235.502 183.604L233.566 185.804ZM247.092 195.308C244.518 195.308 242.78 194.34 241.636 193.042L243.154 190.996C244.122 191.942 245.31 192.668 246.784 192.668C248.434 192.668 249.556 191.854 249.556 190.38C249.556 188.796 248.61 187.784 245.068 187.784V185.474C248.06 185.474 249.028 184.44 249.028 182.988C249.028 181.712 248.236 180.964 246.85 180.964C245.684 180.964 244.738 181.492 243.77 182.394L242.12 180.414C243.528 179.182 245.09 178.412 247.004 178.412C250.15 178.412 252.284 179.974 252.284 182.746C252.284 184.506 251.294 185.782 249.578 186.464V186.574C251.404 187.08 252.812 188.444 252.812 190.578C252.812 193.57 250.194 195.308 247.092 195.308ZM258.112 195C258.398 189.346 259.344 185.738 262.446 181.426H255.12V178.698H265.944V180.678C262.16 185.298 261.654 188.62 261.39 195H258.112ZM273.465 195.308C270.143 195.308 267.943 192.404 267.943 186.794C267.943 181.162 270.143 178.412 273.465 178.412C276.787 178.412 278.965 181.184 278.965 186.794C278.965 192.404 276.787 195.308 273.465 195.308ZM273.465 192.778C274.873 192.778 275.907 191.37 275.907 186.794C275.907 182.24 274.873 180.92 273.465 180.92C272.057 180.92 271.001 182.24 271.001 186.794C271.001 191.37 272.057 192.778 273.465 192.778Z" fill="black"/>
<rect width="470" height="60" transform="translate(0 310)" fill="#171717" fill-opacity="0.65"/>
<path d="M169.215 350V332.216H175.047C176.359 332.216 177.535 332.392 178.575 332.744C179.631 333.096 180.463 333.68 181.071 334.496C181.695 335.296 182.007 336.4 182.007 337.808C182.007 339.152 181.695 340.264 181.071 341.144C180.463 342.008 179.639 342.648 178.599 343.064C177.575 343.48 176.423 343.688 175.143 343.688H172.767V350H169.215ZM172.767 340.88H174.903C176.119 340.88 177.023 340.624 177.615 340.112C178.223 339.6 178.527 338.832 178.527 337.808C178.527 336.784 178.207 336.072 177.567 335.672C176.943 335.256 176.015 335.048 174.783 335.048H172.767V340.88ZM188.271 350.336C187.439 350.336 186.783 350.168 186.303 349.832C185.823 349.48 185.471 349 185.247 348.392C185.039 347.768 184.935 347.048 184.935 346.232V330.848H188.463V346.376C188.463 346.776 188.535 347.056 188.679 347.216C188.839 347.376 188.999 347.456 189.159 347.456C189.239 347.456 189.311 347.456 189.375 347.456C189.439 347.44 189.527 347.424 189.639 347.408L190.071 350.024C189.863 350.104 189.607 350.176 189.303 350.24C189.015 350.304 188.671 350.336 188.271 350.336ZM195.793 350.336C195.009 350.336 194.313 350.168 193.705 349.832C193.113 349.48 192.649 349 192.313 348.392C191.993 347.784 191.833 347.096 191.833 346.328C191.833 344.904 192.449 343.8 193.681 343.016C194.913 342.216 196.873 341.672 199.561 341.384C199.545 340.936 199.465 340.544 199.321 340.208C199.177 339.856 198.937 339.576 198.601 339.368C198.281 339.16 197.841 339.056 197.281 339.056C196.657 339.056 196.041 339.176 195.433 339.416C194.825 339.656 194.209 339.968 193.585 340.352L192.337 338C192.865 337.664 193.425 337.368 194.017 337.112C194.609 336.856 195.233 336.648 195.889 336.488C196.545 336.312 197.225 336.224 197.929 336.224C199.065 336.224 200.017 336.448 200.785 336.896C201.553 337.344 202.129 338.008 202.513 338.888C202.897 339.768 203.089 340.856 203.089 342.152V350H200.209L199.969 348.56H199.849C199.273 349.072 198.649 349.496 197.977 349.832C197.305 350.168 196.577 350.336 195.793 350.336ZM196.969 347.576C197.465 347.576 197.913 347.464 198.313 347.24C198.729 347 199.145 346.672 199.561 346.256V343.568C198.473 343.696 197.609 343.88 196.969 344.12C196.329 344.36 195.873 344.648 195.601 344.984C195.329 345.304 195.193 345.664 195.193 346.064C195.193 346.592 195.353 346.976 195.673 347.216C196.009 347.456 196.441 347.576 196.969 347.576ZM207.861 355.376C207.461 355.376 207.117 355.352 206.829 355.304C206.541 355.256 206.269 355.192 206.013 355.112L206.661 352.424C206.789 352.456 206.933 352.488 207.093 352.52C207.269 352.568 207.437 352.592 207.597 352.592C208.285 352.592 208.829 352.4 209.229 352.016C209.629 351.632 209.925 351.144 210.117 350.552L210.357 349.736L205.125 336.56H208.677L210.813 342.8C211.021 343.408 211.213 344.032 211.389 344.672C211.565 345.312 211.749 345.952 211.941 346.592H212.061C212.205 345.952 212.357 345.32 212.517 344.696C212.693 344.056 212.861 343.424 213.021 342.8L214.869 336.56H218.253L213.477 350.408C213.093 351.464 212.653 352.36 212.157 353.096C211.661 353.848 211.069 354.416 210.381 354.8C209.709 355.184 208.869 355.376 207.861 355.376ZM229.72 350V335.192H224.728V332.216H238.288V335.192H233.272V350H229.72ZM240.904 350V336.56H244.432V350H240.904ZM242.68 334.376C242.056 334.376 241.56 334.208 241.192 333.872C240.824 333.52 240.64 333.048 240.64 332.456C240.64 331.88 240.824 331.416 241.192 331.064C241.56 330.712 242.056 330.536 242.68 330.536C243.272 330.536 243.76 330.712 244.144 331.064C244.528 331.416 244.72 331.88 244.72 332.456C244.72 333.048 244.528 333.52 244.144 333.872C243.76 334.208 243.272 334.376 242.68 334.376ZM248.193 350V336.56H251.073L251.337 338.36H251.409C251.969 337.784 252.577 337.288 253.233 336.872C253.889 336.44 254.657 336.224 255.537 336.224C256.497 336.224 257.265 336.432 257.841 336.848C258.433 337.248 258.889 337.824 259.209 338.576C259.849 337.92 260.505 337.368 261.177 336.92C261.865 336.456 262.641 336.224 263.505 336.224C264.945 336.224 265.993 336.704 266.649 337.664C267.321 338.608 267.657 339.928 267.657 341.624V350H264.153V342.056C264.153 341.016 264.001 340.288 263.697 339.872C263.393 339.456 262.921 339.248 262.281 339.248C261.897 339.248 261.489 339.376 261.057 339.632C260.641 339.872 260.185 340.248 259.689 340.76V350H256.161V342.056C256.161 341.016 256.009 340.288 255.705 339.872C255.401 339.456 254.929 339.248 254.289 339.248C253.921 339.248 253.513 339.376 253.065 339.632C252.633 339.872 252.185 340.248 251.721 340.76V350H248.193ZM277.182 350.336C275.934 350.336 274.806 350.056 273.798 349.496C272.79 348.936 271.982 348.128 271.374 347.072C270.782 346.016 270.486 344.752 270.486 343.28C270.486 342.192 270.654 341.216 270.99 340.352C271.342 339.488 271.814 338.752 272.406 338.144C273.014 337.52 273.686 337.048 274.422 336.728C275.174 336.392 275.95 336.224 276.75 336.224C277.982 336.224 279.014 336.504 279.846 337.064C280.678 337.608 281.302 338.368 281.718 339.344C282.15 340.304 282.366 341.408 282.366 342.656C282.366 342.976 282.35 343.288 282.318 343.592C282.286 343.88 282.246 344.112 282.198 344.288H273.918C274.014 345.008 274.23 345.616 274.566 346.112C274.902 346.608 275.334 346.984 275.862 347.24C276.39 347.48 276.99 347.6 277.662 347.6C278.206 347.6 278.718 347.528 279.198 347.384C279.678 347.224 280.166 346.992 280.662 346.688L281.862 348.848C281.206 349.296 280.47 349.656 279.654 349.928C278.838 350.2 278.014 350.336 277.182 350.336ZM273.846 341.912H279.342C279.342 341.016 279.134 340.304 278.718 339.776C278.318 339.232 277.678 338.96 276.798 338.96C276.334 338.96 275.894 339.072 275.478 339.296C275.062 339.504 274.71 339.832 274.422 340.28C274.134 340.712 273.942 341.256 273.846 341.912ZM290.781 350V347.12H294.621V336.392H291.381V334.184C292.277 334.008 293.045 333.8 293.685 333.56C294.341 333.32 294.949 333.032 295.509 332.696H298.125V347.12H301.461V350H290.781Z" fill="white"/>
<!-- <ellipse cx="450" cy="330" rx="3" ry="3" transform="rotate(90 450 330)" fill="white"/>
<ellipse cx="450" cy="340" rx="3" ry="3" transform="rotate(90 450 340)" fill="white"/>
<ellipse cx="450" cy="350" rx="3" ry="3" transform="rotate(90 450 350)" fill="white"/> -->
<path d="M0 5C0 2.23858 2.23858 0 5 0H80L0 80V5Z" fill="#FF6D00"/>
<path d="M21.9637 34.308C21.2011 34.308 20.4604 34.1467 19.7417 33.824C19.0377 33.5013 18.4144 33.01 17.8717 32.35C17.3291 31.6753 16.8964 30.8247 16.5737 29.798C16.2657 28.7567 16.1117 27.5173 16.1117 26.08C16.1117 24.5693 16.2804 23.264 16.6177 22.164C16.9697 21.064 17.4391 20.1693 18.0257 19.48C18.6124 18.776 19.2797 18.2553 20.0277 17.918C20.7904 17.5807 21.5897 17.412 22.4257 17.412C23.4231 17.412 24.2811 17.5953 24.9997 17.962C25.7331 18.314 26.3417 18.7467 26.8257 19.26L25.1097 21.196C24.8311 20.8733 24.4644 20.5947 24.0097 20.36C23.5551 20.1253 23.0931 20.008 22.6237 20.008C21.9637 20.008 21.3624 20.1987 20.8197 20.58C20.2917 20.9613 19.8664 21.592 19.5437 22.472C19.2211 23.352 19.0597 24.5547 19.0597 26.08C19.0597 27.488 19.1844 28.6173 19.4337 29.468C19.6977 30.304 20.0424 30.9127 20.4677 31.294C20.8931 31.6753 21.3697 31.866 21.8977 31.866C22.3084 31.866 22.6751 31.756 22.9977 31.536C23.3351 31.3013 23.6064 30.964 23.8117 30.524C24.0171 30.0693 24.1197 29.512 24.1197 28.852C24.1197 28.2067 24.0171 27.6787 23.8117 27.268C23.6211 26.8573 23.3497 26.5493 22.9977 26.344C22.6604 26.1387 22.2571 26.036 21.7877 26.036C21.3477 26.036 20.8857 26.1753 20.4017 26.454C19.9177 26.718 19.4704 27.1873 19.0597 27.862L18.9057 25.684C19.1991 25.2733 19.5437 24.9213 19.9397 24.628C20.3504 24.3347 20.7684 24.1147 21.1937 23.968C21.6337 23.8213 22.0297 23.748 22.3817 23.748C23.2911 23.748 24.0977 23.9313 24.8017 24.298C25.5204 24.6647 26.0777 25.222 26.4737 25.97C26.8697 26.718 27.0677 27.6787 27.0677 28.852C27.0677 29.9667 26.8331 30.9347 26.3637 31.756C25.9091 32.5627 25.2931 33.1933 24.5157 33.648C23.7384 34.088 22.8877 34.308 21.9637 34.308Z" fill="white"/>
</g>
</g>
<defs>
<filter id="filter0_d_6874_64318" x="-7" y="-5" width="490" height="390" filterUnits="userSpaceOnUse" color-interpolation-filters="sRGB">
<feFlood flood-opacity="0" result="BackgroundImageFix"/>
<feColorMatrix in="SourceAlpha" type="matrix" values="0 0 0 0 0 0 0 0 0 0 0 0 0 0 0 0 0 0 127 0" result="hardAlpha"/>
<feOffset dx="3" dy="5"/>
<feGaussianBlur stdDeviation="5"/>
<feComposite in2="hardAlpha" operator="out"/>
<feColorMatrix type="matrix" values="0 0 0 0 0 0 0 0 0 0 0 0 0 0 0 0 0 0 0.05 0"/>
<feBlend mode="multiply" in2="BackgroundImageFix" result="effect1_dropShadow_6874_64318"/>
<feBlend mode="normal" in="SourceGraphic" in2="effect1_dropShadow_6874_64318" result="shape"/>
</filter>
<clipPath id="clip0_6874_64318">
<path d="M0 5C0 2.23857 2.23858 0 5 0H465C467.761 0 470 2.23858 470 5V365C470 367.761 467.761 370 465 370H5C2.23858 370 0 367.761 0 365V5Z" fill="white"/>
</clipPath>
</defs>
</svg>
