<svg width="538" height="760" viewBox="0 0 538 760" fill="none" xmlns="http://www.w3.org/2000/svg">
<g filter="url(#filter0_d_6874_65206)">
<g clip-path="url(#clip0_6874_65206)">
<path d="M0 4.99998C0 2.23856 2.23858 0 5 0H533C535.761 0 538 2.23858 538 5V755C538 757.761 535.761 760 533 760H5C2.23857 760 0 757.761 0 755V4.99998Z" fill="#F89F45"/>
<rect width="538" height="60" transform="translate(0 700)" fill="#171717" fill-opacity="0.65"/>
<path d="M194.715 740.336C193.531 740.336 192.371 740.112 191.235 739.664C190.099 739.216 189.099 738.576 188.235 737.744L190.275 735.296C190.899 735.888 191.611 736.368 192.411 736.736C193.227 737.088 194.019 737.264 194.787 737.264C195.715 737.264 196.419 737.08 196.899 736.712C197.379 736.344 197.619 735.848 197.619 735.224C197.619 734.776 197.499 734.424 197.259 734.168C197.035 733.896 196.723 733.656 196.323 733.448C195.923 733.24 195.459 733.032 194.931 732.824L192.579 731.792C191.987 731.552 191.411 731.232 190.851 730.832C190.307 730.416 189.851 729.896 189.483 729.272C189.131 728.648 188.955 727.904 188.955 727.04C188.955 726.064 189.219 725.192 189.747 724.424C190.275 723.656 191.003 723.048 191.931 722.6C192.859 722.136 193.915 721.904 195.099 721.904C196.155 721.904 197.171 722.104 198.147 722.504C199.123 722.904 199.971 723.472 200.691 724.208L198.891 726.416C198.331 725.952 197.747 725.592 197.139 725.336C196.531 725.08 195.851 724.952 195.099 724.952C194.331 724.952 193.715 725.12 193.251 725.456C192.803 725.776 192.579 726.232 192.579 726.824C192.579 727.24 192.707 727.584 192.963 727.856C193.219 728.128 193.555 728.368 193.971 728.576C194.387 728.768 194.843 728.968 195.339 729.176L197.667 730.112C198.387 730.4 199.011 730.76 199.539 731.192C200.083 731.624 200.499 732.144 200.787 732.752C201.091 733.36 201.243 734.096 201.243 734.96C201.243 735.92 200.979 736.808 200.451 737.624C199.939 738.44 199.195 739.096 198.219 739.592C197.259 740.088 196.091 740.336 194.715 740.336ZM204.099 740V720.848H207.627V725.672L207.459 728.192C207.987 727.68 208.595 727.224 209.283 726.824C209.971 726.424 210.771 726.224 211.683 726.224C213.139 726.224 214.195 726.704 214.851 727.664C215.507 728.608 215.835 729.928 215.835 731.624V740H212.307V732.056C212.307 731.016 212.155 730.288 211.851 729.872C211.563 729.456 211.083 729.248 210.411 729.248C209.867 729.248 209.387 729.376 208.971 729.632C208.571 729.888 208.123 730.264 207.627 730.76V740H204.099ZM225.067 740.336C223.947 740.336 222.891 740.056 221.899 739.496C220.923 738.936 220.131 738.136 219.523 737.096C218.915 736.04 218.611 734.768 218.611 733.28C218.611 731.792 218.915 730.528 219.523 729.488C220.131 728.432 220.923 727.624 221.899 727.064C222.891 726.504 223.947 726.224 225.067 726.224C225.915 726.224 226.723 726.384 227.491 726.704C228.259 727.024 228.947 727.488 229.555 728.096C230.163 728.688 230.643 729.424 230.995 730.304C231.347 731.168 231.523 732.16 231.523 733.28C231.523 734.768 231.219 736.04 230.611 737.096C230.003 738.136 229.203 738.936 228.211 739.496C227.235 740.056 226.187 740.336 225.067 740.336ZM225.067 737.456C225.675 737.456 226.187 737.288 226.603 736.952C227.035 736.6 227.355 736.112 227.563 735.488C227.787 734.864 227.899 734.128 227.899 733.28C227.899 732.432 227.787 731.696 227.563 731.072C227.355 730.448 227.035 729.968 226.603 729.632C226.187 729.28 225.675 729.104 225.067 729.104C224.459 729.104 223.939 729.28 223.507 729.632C223.091 729.968 222.771 730.448 222.547 731.072C222.339 731.696 222.235 732.432 222.235 733.28C222.235 734.128 222.339 734.864 222.547 735.488C222.771 736.112 223.091 736.6 223.507 736.952C223.939 737.288 224.459 737.456 225.067 737.456ZM236.378 740L232.922 726.56H236.426L237.914 733.184C238.026 733.856 238.13 734.512 238.226 735.152C238.322 735.792 238.426 736.448 238.538 737.12H238.658C238.802 736.448 238.938 735.792 239.066 735.152C239.194 734.496 239.338 733.84 239.498 733.184L241.13 726.56H244.25L245.93 733.184C246.09 733.856 246.234 734.512 246.362 735.152C246.49 735.792 246.634 736.448 246.794 737.12H246.89C247.018 736.448 247.13 735.792 247.226 735.152C247.338 734.512 247.458 733.856 247.586 733.184L249.002 726.56H252.29L248.978 740H244.826L243.41 734.144C243.266 733.504 243.13 732.872 243.002 732.248C242.89 731.608 242.762 730.928 242.618 730.208H242.498C242.386 730.928 242.274 731.608 242.162 732.248C242.05 732.888 241.922 733.52 241.778 734.144L240.41 740H236.378ZM263.59 740.336C262.806 740.336 262.11 740.168 261.502 739.832C260.91 739.48 260.446 739 260.11 738.392C259.79 737.784 259.63 737.096 259.63 736.328C259.63 734.904 260.246 733.8 261.478 733.016C262.71 732.216 264.67 731.672 267.358 731.384C267.342 730.936 267.262 730.544 267.118 730.208C266.974 729.856 266.734 729.576 266.398 729.368C266.078 729.16 265.638 729.056 265.078 729.056C264.454 729.056 263.838 729.176 263.23 729.416C262.622 729.656 262.006 729.968 261.382 730.352L260.134 728C260.662 727.664 261.222 727.368 261.814 727.112C262.406 726.856 263.03 726.648 263.686 726.488C264.342 726.312 265.022 726.224 265.726 726.224C266.862 726.224 267.814 726.448 268.582 726.896C269.35 727.344 269.926 728.008 270.31 728.888C270.694 729.768 270.886 730.856 270.886 732.152V740H268.006L267.766 738.56H267.646C267.07 739.072 266.446 739.496 265.774 739.832C265.102 740.168 264.374 740.336 263.59 740.336ZM264.766 737.576C265.262 737.576 265.71 737.464 266.11 737.24C266.526 737 266.942 736.672 267.358 736.256V733.568C266.27 733.696 265.406 733.88 264.766 734.12C264.126 734.36 263.67 734.648 263.398 734.984C263.126 735.304 262.99 735.664 262.99 736.064C262.99 736.592 263.15 736.976 263.47 737.216C263.806 737.456 264.238 737.576 264.766 737.576ZM274.482 740V726.56H277.362L277.626 728.336H277.698C278.29 727.76 278.938 727.264 279.642 726.848C280.346 726.432 281.154 726.224 282.066 726.224C283.522 726.224 284.578 726.704 285.234 727.664C285.89 728.608 286.218 729.928 286.218 731.624V740H282.69V732.056C282.69 731.016 282.538 730.288 282.234 729.872C281.946 729.456 281.466 729.248 280.794 729.248C280.25 729.248 279.77 729.376 279.354 729.632C278.954 729.888 278.506 730.264 278.01 730.76V740H274.482ZM294.585 740.336C293.465 740.336 292.489 740.056 291.657 739.496C290.841 738.936 290.209 738.128 289.761 737.072C289.313 736.016 289.089 734.752 289.089 733.28C289.089 731.824 289.353 730.576 289.881 729.536C290.425 728.48 291.129 727.664 291.993 727.088C292.857 726.512 293.769 726.224 294.729 726.224C295.481 726.224 296.113 726.36 296.625 726.632C297.153 726.888 297.657 727.24 298.137 727.688L298.017 725.576V720.848H301.545V740H298.665L298.401 738.608H298.305C297.809 739.088 297.241 739.496 296.601 739.832C295.961 740.168 295.289 740.336 294.585 740.336ZM295.497 737.432C295.977 737.432 296.417 737.328 296.817 737.12C297.233 736.896 297.633 736.536 298.017 736.04V730.136C297.617 729.768 297.201 729.512 296.769 729.368C296.353 729.208 295.929 729.128 295.497 729.128C295.001 729.128 294.537 729.288 294.105 729.608C293.689 729.912 293.353 730.368 293.097 730.976C292.841 731.584 292.713 732.336 292.713 733.232C292.713 734.16 292.817 734.936 293.025 735.56C293.249 736.184 293.569 736.656 293.985 736.976C294.401 737.28 294.905 737.432 295.497 737.432ZM314.556 740V725.192H309.564V722.216H323.124V725.192H318.108V740H314.556ZM329.44 740.336C328.192 740.336 327.064 740.056 326.056 739.496C325.048 738.936 324.24 738.128 323.632 737.072C323.04 736.016 322.744 734.752 322.744 733.28C322.744 732.192 322.912 731.216 323.248 730.352C323.6 729.488 324.072 728.752 324.664 728.144C325.272 727.52 325.944 727.048 326.68 726.728C327.432 726.392 328.208 726.224 329.008 726.224C330.24 726.224 331.272 726.504 332.104 727.064C332.936 727.608 333.56 728.368 333.976 729.344C334.408 730.304 334.624 731.408 334.624 732.656C334.624 732.976 334.608 733.288 334.576 733.592C334.544 733.88 334.504 734.112 334.456 734.288H326.176C326.272 735.008 326.488 735.616 326.824 736.112C327.16 736.608 327.592 736.984 328.12 737.24C328.648 737.48 329.248 737.6 329.92 737.6C330.464 737.6 330.976 737.528 331.456 737.384C331.936 737.224 332.424 736.992 332.92 736.688L334.12 738.848C333.464 739.296 332.728 739.656 331.912 739.928C331.096 740.2 330.272 740.336 329.44 740.336ZM326.104 731.912H331.6C331.6 731.016 331.392 730.304 330.976 729.776C330.576 729.232 329.936 728.96 329.056 728.96C328.592 728.96 328.152 729.072 327.736 729.296C327.32 729.504 326.968 729.832 326.68 730.28C326.392 730.712 326.2 731.256 326.104 731.912ZM340.865 740.336C340.033 740.336 339.377 740.168 338.897 739.832C338.417 739.48 338.065 739 337.841 738.392C337.633 737.768 337.529 737.048 337.529 736.232V720.848H341.057V736.376C341.057 736.776 341.129 737.056 341.273 737.216C341.433 737.376 341.593 737.456 341.753 737.456C341.833 737.456 341.905 737.456 341.969 737.456C342.033 737.44 342.121 737.424 342.233 737.408L342.665 740.024C342.457 740.104 342.201 740.176 341.897 740.24C341.609 740.304 341.265 740.336 340.865 740.336ZM348.435 740.336C347.603 740.336 346.947 740.168 346.467 739.832C345.987 739.48 345.635 739 345.411 738.392C345.203 737.768 345.099 737.048 345.099 736.232V720.848H348.627V736.376C348.627 736.776 348.699 737.056 348.843 737.216C349.003 737.376 349.163 737.456 349.323 737.456C349.403 737.456 349.475 737.456 349.539 737.456C349.603 737.44 349.691 737.424 349.803 737.408L350.235 740.024C350.027 740.104 349.771 740.176 349.467 740.24C349.179 740.304 348.835 740.336 348.435 740.336Z" fill="white"/>
<!-- <ellipse cx="518" cy="720" rx="3" ry="3" transform="rotate(90 518 720)" fill="white"/>
<ellipse cx="518" cy="730" rx="3" ry="3" transform="rotate(90 518 730)" fill="white"/>
<ellipse cx="518" cy="740" rx="3" ry="3" transform="rotate(90 518 740)" fill="white"/> -->
<path d="M0 5C0 2.23858 2.23858 0 5 0H80L0 80V5Z" fill="#FF6D00"/>
<path d="M16.8157 34V31.36H20.3357V21.086H17.3657V19.062C18.1871 18.9153 18.8911 18.7393 19.4777 18.534C20.0791 18.314 20.6364 18.0353 21.1497 17.698H23.5477V31.36H26.6057V34H16.8157Z" fill="white"/>
<path d="M231.142 390.308C228.568 390.308 226.852 389.296 225.642 388.086L227.138 386.018C228.062 386.92 229.206 387.668 230.724 387.668C232.418 387.668 233.606 386.59 233.606 384.676C233.606 382.784 232.506 381.728 230.856 381.728C229.888 381.728 229.36 381.97 228.414 382.586L226.94 381.618L227.38 373.698H236.092V376.426H230.174L229.866 379.88C230.526 379.572 231.076 379.418 231.824 379.418C234.552 379.418 236.84 381.046 236.84 384.588C236.84 388.218 234.156 390.308 231.142 390.308ZM244.053 390.308C241.479 390.308 239.741 389.34 238.597 388.042L240.115 385.996C241.083 386.942 242.271 387.668 243.745 387.668C245.395 387.668 246.517 386.854 246.517 385.38C246.517 383.796 245.571 382.784 242.029 382.784V380.474C245.021 380.474 245.989 379.44 245.989 377.988C245.989 376.712 245.197 375.964 243.811 375.964C242.645 375.964 241.699 376.492 240.731 377.394L239.081 375.414C240.489 374.182 242.051 373.412 243.965 373.412C247.111 373.412 249.245 374.974 249.245 377.746C249.245 379.506 248.255 380.782 246.539 381.464V381.574C248.365 382.08 249.773 383.444 249.773 385.578C249.773 388.57 247.155 390.308 244.053 390.308ZM257.448 390.308C254.346 390.308 252.014 388.504 252.014 385.952C252.014 383.862 253.29 382.498 254.808 381.706V381.596C253.554 380.694 252.652 379.462 252.652 377.724C252.652 375.106 254.742 373.434 257.558 373.434C260.44 373.434 262.288 375.172 262.288 377.768C262.288 379.374 261.276 380.716 260.198 381.486V381.596C261.694 382.41 262.926 383.73 262.926 385.952C262.926 388.416 260.748 390.308 257.448 390.308ZM258.482 380.694C259.274 379.858 259.648 378.934 259.648 377.966C259.648 376.646 258.856 375.7 257.492 375.7C256.392 375.7 255.512 376.426 255.512 377.724C255.512 379.264 256.766 380.012 258.482 380.694ZM257.536 388.02C258.922 388.02 259.912 387.25 259.912 385.842C259.912 384.148 258.416 383.444 256.304 382.586C255.424 383.29 254.808 384.39 254.808 385.6C254.808 387.074 256.018 388.02 257.536 388.02ZM267.566 380.804L266.18 379.792L267.632 377.284L265.014 376.118L265.542 374.49L268.358 375.106L268.644 372.224H270.382L270.646 375.128L273.462 374.49L273.99 376.118L271.35 377.284L272.846 379.792L271.438 380.804L269.502 378.604L267.566 380.804ZM279.156 390C279.442 384.346 280.388 380.738 283.49 376.426H276.164V373.698H286.988V375.678C283.204 380.298 282.698 383.62 282.434 390H279.156ZM294.796 382.036C293.916 382.036 292.882 382.52 292.134 383.752C292.442 386.722 293.542 387.866 294.906 387.866C296.116 387.866 297.128 386.854 297.128 384.852C297.128 382.938 296.204 382.036 294.796 382.036ZM294.972 390.308C291.87 390.308 289.12 387.822 289.12 382.08C289.12 376.008 292.134 373.412 295.412 373.412C297.414 373.412 298.844 374.248 299.834 375.26L298.118 377.196C297.546 376.536 296.556 376.008 295.61 376.008C293.74 376.008 292.2 377.416 292.068 381.508C292.948 380.408 294.356 379.748 295.412 379.748C298.14 379.748 300.076 381.376 300.076 384.852C300.076 388.196 297.744 390.308 294.972 390.308ZM307.465 390.308C304.143 390.308 301.943 387.404 301.943 381.794C301.943 376.162 304.143 373.412 307.465 373.412C310.787 373.412 312.965 376.184 312.965 381.794C312.965 387.404 310.787 390.308 307.465 390.308ZM307.465 387.778C308.873 387.778 309.907 386.37 309.907 381.794C309.907 377.24 308.873 375.92 307.465 375.92C306.057 375.92 305.001 377.24 305.001 381.794C305.001 386.37 306.057 387.778 307.465 387.778Z" fill="black"/>
</g>
</g>
<defs>
<filter id="filter0_d_6874_65206" x="-7" y="-5" width="558" height="780" filterUnits="userSpaceOnUse" color-interpolation-filters="sRGB">
<feFlood flood-opacity="0" result="BackgroundImageFix"/>
<feColorMatrix in="SourceAlpha" type="matrix" values="0 0 0 0 0 0 0 0 0 0 0 0 0 0 0 0 0 0 127 0" result="hardAlpha"/>
<feOffset dx="3" dy="5"/>
<feGaussianBlur stdDeviation="5"/>
<feComposite in2="hardAlpha" operator="out"/>
<feColorMatrix type="matrix" values="0 0 0 0 0 0 0 0 0 0 0 0 0 0 0 0 0 0 0.05 0"/>
<feBlend mode="multiply" in2="BackgroundImageFix" result="effect1_dropShadow_6874_65206"/>
<feBlend mode="normal" in="SourceGraphic" in2="effect1_dropShadow_6874_65206" result="shape"/>
</filter>
<clipPath id="clip0_6874_65206">
<path d="M0 4.99998C0 2.23856 2.23858 0 5 0H533C535.761 0 538 2.23858 538 5V755C538 757.761 535.761 760 533 760H5C2.23857 760 0 757.761 0 755V4.99998Z" fill="white"/>
</clipPath>
</defs>
</svg>
