<svg width="635" height="760" viewBox="0 0 635 760" fill="none" xmlns="http://www.w3.org/2000/svg">
<g filter="url(#filter0_d_6874_65142)">
<g clip-path="url(#clip0_6874_65142)">
<path d="M0 4.99998C0 2.23856 2.23858 0 5 0H630C632.761 0 635 2.23858 635 5V755C635 757.761 632.761 760 630 760H5C2.23857 760 0 757.761 0 755V4.99998Z" fill="#F89F45"/>
<rect width="635" height="60" transform="translate(0 700)" fill="#171717" fill-opacity="0.65"/>
<path d="M241.321 740V722.216H244.873V737.024H252.097V740H241.321ZM260.032 740.336C258.912 740.336 257.856 740.056 256.864 739.496C255.888 738.936 255.096 738.136 254.488 737.096C253.88 736.04 253.576 734.768 253.576 733.28C253.576 731.792 253.88 730.528 254.488 729.488C255.096 728.432 255.888 727.624 256.864 727.064C257.856 726.504 258.912 726.224 260.032 726.224C260.88 726.224 261.688 726.384 262.456 726.704C263.224 727.024 263.912 727.488 264.52 728.096C265.128 728.688 265.608 729.424 265.96 730.304C266.312 731.168 266.488 732.16 266.488 733.28C266.488 734.768 266.184 736.04 265.576 737.096C264.968 738.136 264.168 738.936 263.176 739.496C262.2 740.056 261.152 740.336 260.032 740.336ZM260.032 737.456C260.64 737.456 261.152 737.288 261.568 736.952C262 736.6 262.32 736.112 262.528 735.488C262.752 734.864 262.864 734.128 262.864 733.28C262.864 732.432 262.752 731.696 262.528 731.072C262.32 730.448 262 729.968 261.568 729.632C261.152 729.28 260.64 729.104 260.032 729.104C259.424 729.104 258.904 729.28 258.472 729.632C258.056 729.968 257.736 730.448 257.512 731.072C257.304 731.696 257.2 732.432 257.2 733.28C257.2 734.128 257.304 734.864 257.512 735.488C257.736 736.112 258.056 736.6 258.472 736.952C258.904 737.288 259.424 737.456 260.032 737.456ZM275.055 740.336C273.935 740.336 272.879 740.056 271.887 739.496C270.911 738.936 270.119 738.136 269.511 737.096C268.903 736.04 268.599 734.768 268.599 733.28C268.599 731.792 268.903 730.528 269.511 729.488C270.119 728.432 270.911 727.624 271.887 727.064C272.879 726.504 273.935 726.224 275.055 726.224C275.903 726.224 276.711 726.384 277.479 726.704C278.247 727.024 278.935 727.488 279.543 728.096C280.151 728.688 280.631 729.424 280.983 730.304C281.335 731.168 281.511 732.16 281.511 733.28C281.511 734.768 281.207 736.04 280.599 737.096C279.991 738.136 279.191 738.936 278.199 739.496C277.223 740.056 276.175 740.336 275.055 740.336ZM275.055 737.456C275.663 737.456 276.175 737.288 276.591 736.952C277.023 736.6 277.343 736.112 277.551 735.488C277.775 734.864 277.887 734.128 277.887 733.28C277.887 732.432 277.775 731.696 277.551 731.072C277.343 730.448 277.023 729.968 276.591 729.632C276.175 729.28 275.663 729.104 275.055 729.104C274.447 729.104 273.927 729.28 273.495 729.632C273.079 729.968 272.759 730.448 272.535 731.072C272.327 731.696 272.223 732.432 272.223 733.28C272.223 734.128 272.327 734.864 272.535 735.488C272.759 736.112 273.079 736.6 273.495 736.952C273.927 737.288 274.447 737.456 275.055 737.456ZM284.462 740V720.848H287.942V732.32H288.038L292.622 726.56H296.486L291.878 732.104L296.918 740H293.078L289.814 734.408L287.942 736.592V740H284.462ZM307.672 740.336C306.888 740.336 306.192 740.168 305.584 739.832C304.992 739.48 304.528 739 304.192 738.392C303.872 737.784 303.712 737.096 303.712 736.328C303.712 734.904 304.328 733.8 305.56 733.016C306.792 732.216 308.752 731.672 311.44 731.384C311.424 730.936 311.344 730.544 311.2 730.208C311.056 729.856 310.816 729.576 310.48 729.368C310.16 729.16 309.72 729.056 309.16 729.056C308.536 729.056 307.92 729.176 307.312 729.416C306.704 729.656 306.088 729.968 305.464 730.352L304.216 728C304.744 727.664 305.304 727.368 305.896 727.112C306.488 726.856 307.112 726.648 307.768 726.488C308.424 726.312 309.104 726.224 309.808 726.224C310.944 726.224 311.896 726.448 312.664 726.896C313.432 727.344 314.008 728.008 314.392 728.888C314.776 729.768 314.968 730.856 314.968 732.152V740H312.088L311.848 738.56H311.728C311.152 739.072 310.528 739.496 309.856 739.832C309.184 740.168 308.456 740.336 307.672 740.336ZM308.848 737.576C309.344 737.576 309.792 737.464 310.192 737.24C310.608 737 311.024 736.672 311.44 736.256V733.568C310.352 733.696 309.488 733.88 308.848 734.12C308.208 734.36 307.752 734.648 307.48 734.984C307.208 735.304 307.072 735.664 307.072 736.064C307.072 736.592 307.232 736.976 307.552 737.216C307.888 737.456 308.32 737.576 308.848 737.576ZM318.564 740V726.56H321.444L321.708 728.336H321.78C322.372 727.76 323.02 727.264 323.724 726.848C324.428 726.432 325.236 726.224 326.148 726.224C327.604 726.224 328.66 726.704 329.316 727.664C329.972 728.608 330.3 729.928 330.3 731.624V740H326.772V732.056C326.772 731.016 326.62 730.288 326.316 729.872C326.028 729.456 325.548 729.248 324.876 729.248C324.332 729.248 323.852 729.376 323.436 729.632C323.036 729.888 322.588 730.264 322.092 730.76V740H318.564ZM338.667 740.336C337.547 740.336 336.571 740.056 335.739 739.496C334.923 738.936 334.291 738.128 333.843 737.072C333.395 736.016 333.171 734.752 333.171 733.28C333.171 731.824 333.435 730.576 333.963 729.536C334.507 728.48 335.211 727.664 336.075 727.088C336.939 726.512 337.851 726.224 338.811 726.224C339.563 726.224 340.195 726.36 340.707 726.632C341.235 726.888 341.739 727.24 342.219 727.688L342.099 725.576V720.848H345.627V740H342.747L342.483 738.608H342.387C341.891 739.088 341.323 739.496 340.683 739.832C340.043 740.168 339.371 740.336 338.667 740.336ZM339.579 737.432C340.059 737.432 340.499 737.328 340.899 737.12C341.315 736.896 341.715 736.536 342.099 736.04V730.136C341.699 729.768 341.283 729.512 340.851 729.368C340.435 729.208 340.011 729.128 339.579 729.128C339.083 729.128 338.619 729.288 338.187 729.608C337.771 729.912 337.435 730.368 337.179 730.976C336.923 731.584 336.795 732.336 336.795 733.232C336.795 734.16 336.899 734.936 337.107 735.56C337.331 736.184 337.651 736.656 338.067 736.976C338.483 737.28 338.987 737.432 339.579 737.432ZM360.414 740.336C359.23 740.336 358.07 740.112 356.934 739.664C355.798 739.216 354.798 738.576 353.934 737.744L355.974 735.296C356.598 735.888 357.31 736.368 358.11 736.736C358.926 737.088 359.718 737.264 360.486 737.264C361.414 737.264 362.118 737.08 362.598 736.712C363.078 736.344 363.318 735.848 363.318 735.224C363.318 734.776 363.198 734.424 362.958 734.168C362.734 733.896 362.422 733.656 362.022 733.448C361.622 733.24 361.158 733.032 360.63 732.824L358.278 731.792C357.686 731.552 357.11 731.232 356.55 730.832C356.006 730.416 355.55 729.896 355.182 729.272C354.83 728.648 354.654 727.904 354.654 727.04C354.654 726.064 354.918 725.192 355.446 724.424C355.974 723.656 356.702 723.048 357.63 722.6C358.558 722.136 359.614 721.904 360.798 721.904C361.854 721.904 362.87 722.104 363.846 722.504C364.822 722.904 365.67 723.472 366.39 724.208L364.59 726.416C364.03 725.952 363.446 725.592 362.838 725.336C362.23 725.08 361.55 724.952 360.798 724.952C360.03 724.952 359.414 725.12 358.95 725.456C358.502 725.776 358.278 726.232 358.278 726.824C358.278 727.24 358.406 727.584 358.662 727.856C358.918 728.128 359.254 728.368 359.67 728.576C360.086 728.768 360.542 728.968 361.038 729.176L363.366 730.112C364.086 730.4 364.71 730.76 365.238 731.192C365.782 731.624 366.198 732.144 366.486 732.752C366.79 733.36 366.942 734.096 366.942 734.96C366.942 735.92 366.678 736.808 366.15 737.624C365.638 738.44 364.894 739.096 363.918 739.592C362.958 740.088 361.79 740.336 360.414 740.336ZM373.086 740.336C372.302 740.336 371.606 740.168 370.998 739.832C370.406 739.48 369.942 739 369.606 738.392C369.286 737.784 369.126 737.096 369.126 736.328C369.126 734.904 369.742 733.8 370.974 733.016C372.206 732.216 374.166 731.672 376.854 731.384C376.838 730.936 376.758 730.544 376.614 730.208C376.47 729.856 376.23 729.576 375.894 729.368C375.574 729.16 375.134 729.056 374.574 729.056C373.95 729.056 373.334 729.176 372.726 729.416C372.118 729.656 371.502 729.968 370.878 730.352L369.63 728C370.158 727.664 370.718 727.368 371.31 727.112C371.902 726.856 372.526 726.648 373.182 726.488C373.838 726.312 374.518 726.224 375.222 726.224C376.358 726.224 377.31 726.448 378.078 726.896C378.846 727.344 379.422 728.008 379.806 728.888C380.19 729.768 380.382 730.856 380.382 732.152V740H377.502L377.262 738.56H377.142C376.566 739.072 375.942 739.496 375.27 739.832C374.598 740.168 373.87 740.336 373.086 740.336ZM374.262 737.576C374.758 737.576 375.206 737.464 375.606 737.24C376.022 737 376.438 736.672 376.854 736.256V733.568C375.766 733.696 374.902 733.88 374.262 734.12C373.622 734.36 373.166 734.648 372.894 734.984C372.622 735.304 372.486 735.664 372.486 736.064C372.486 736.592 372.646 736.976 372.966 737.216C373.302 737.456 373.734 737.576 374.262 737.576ZM385.154 745.376C384.754 745.376 384.41 745.352 384.122 745.304C383.834 745.256 383.562 745.192 383.306 745.112L383.954 742.424C384.082 742.456 384.226 742.488 384.386 742.52C384.562 742.568 384.73 742.592 384.89 742.592C385.578 742.592 386.122 742.4 386.522 742.016C386.922 741.632 387.218 741.144 387.41 740.552L387.65 739.736L382.418 726.56H385.97L388.106 732.8C388.314 733.408 388.506 734.032 388.682 734.672C388.858 735.312 389.042 735.952 389.234 736.592H389.354C389.498 735.952 389.65 735.32 389.81 734.696C389.986 734.056 390.154 733.424 390.314 732.8L392.162 726.56H395.546L390.77 740.408C390.386 741.464 389.946 742.36 389.45 743.096C388.954 743.848 388.362 744.416 387.674 744.8C387.002 745.184 386.162 745.376 385.154 745.376Z" fill="white"/>
<!-- <ellipse cx="615" cy="720" rx="3" ry="3" transform="rotate(90 615 720)" fill="white"/>
<ellipse cx="615" cy="730" rx="3" ry="3" transform="rotate(90 615 730)" fill="white"/>
<ellipse cx="615" cy="740" rx="3" ry="3" transform="rotate(90 615 740)" fill="white"/> -->
<path d="M0 5C0 2.23858 2.23858 0 5 0H80L0 80V5Z" fill="#FF6D00"/>
<path d="M16.8157 34V31.36H20.3357V21.086H17.3657V19.062C18.1871 18.9153 18.8911 18.7393 19.4777 18.534C20.0791 18.314 20.6364 18.0353 21.1497 17.698H23.5477V31.36H26.6057V34H16.8157Z" fill="white"/>
<path d="M279.846 382.036C278.966 382.036 277.932 382.52 277.184 383.752C277.492 386.722 278.592 387.866 279.956 387.866C281.166 387.866 282.178 386.854 282.178 384.852C282.178 382.938 281.254 382.036 279.846 382.036ZM280.022 390.308C276.92 390.308 274.17 387.822 274.17 382.08C274.17 376.008 277.184 373.412 280.462 373.412C282.464 373.412 283.894 374.248 284.884 375.26L283.168 377.196C282.596 376.536 281.606 376.008 280.66 376.008C278.79 376.008 277.25 377.416 277.118 381.508C277.998 380.408 279.406 379.748 280.462 379.748C283.19 379.748 285.126 381.376 285.126 384.852C285.126 388.196 282.794 390.308 280.022 390.308ZM292.053 390.308C289.479 390.308 287.741 389.34 286.597 388.042L288.115 385.996C289.083 386.942 290.271 387.668 291.745 387.668C293.395 387.668 294.517 386.854 294.517 385.38C294.517 383.796 293.571 382.784 290.029 382.784V380.474C293.021 380.474 293.989 379.44 293.989 377.988C293.989 376.712 293.197 375.964 291.811 375.964C290.645 375.964 289.699 376.492 288.731 377.394L287.081 375.414C288.489 374.182 290.051 373.412 291.965 373.412C295.111 373.412 297.245 374.974 297.245 377.746C297.245 379.506 296.255 380.782 294.539 381.464V381.574C296.365 382.08 297.773 383.444 297.773 385.578C297.773 388.57 295.155 390.308 292.053 390.308ZM305.052 390.308C302.478 390.308 300.762 389.296 299.552 388.086L301.048 386.018C301.972 386.92 303.116 387.668 304.634 387.668C306.328 387.668 307.516 386.59 307.516 384.676C307.516 382.784 306.416 381.728 304.766 381.728C303.798 381.728 303.27 381.97 302.324 382.586L300.85 381.618L301.29 373.698H310.002V376.426H304.084L303.776 379.88C304.436 379.572 304.986 379.418 305.734 379.418C308.462 379.418 310.75 381.046 310.75 384.588C310.75 388.218 308.066 390.308 305.052 390.308ZM315.566 380.804L314.18 379.792L315.632 377.284L313.014 376.118L313.542 374.49L316.358 375.106L316.644 372.224H318.382L318.646 375.128L321.462 374.49L321.99 376.118L319.35 377.284L320.846 379.792L319.438 380.804L317.502 378.604L315.566 380.804ZM327.156 390C327.442 384.346 328.388 380.738 331.49 376.426H324.164V373.698H334.988V375.678C331.204 380.298 330.698 383.62 330.434 390H327.156ZM342.796 382.036C341.916 382.036 340.882 382.52 340.134 383.752C340.442 386.722 341.542 387.866 342.906 387.866C344.116 387.866 345.128 386.854 345.128 384.852C345.128 382.938 344.204 382.036 342.796 382.036ZM342.972 390.308C339.87 390.308 337.12 387.822 337.12 382.08C337.12 376.008 340.134 373.412 343.412 373.412C345.414 373.412 346.844 374.248 347.834 375.26L346.118 377.196C345.546 376.536 344.556 376.008 343.61 376.008C341.74 376.008 340.2 377.416 340.068 381.508C340.948 380.408 342.356 379.748 343.412 379.748C346.14 379.748 348.076 381.376 348.076 384.852C348.076 388.196 345.744 390.308 342.972 390.308ZM355.465 390.308C352.143 390.308 349.943 387.404 349.943 381.794C349.943 376.162 352.143 373.412 355.465 373.412C358.787 373.412 360.965 376.184 360.965 381.794C360.965 387.404 358.787 390.308 355.465 390.308ZM355.465 387.778C356.873 387.778 357.907 386.37 357.907 381.794C357.907 377.24 356.873 375.92 355.465 375.92C354.057 375.92 353.001 377.24 353.001 381.794C353.001 386.37 354.057 387.778 355.465 387.778Z" fill="black"/>
</g>
</g>
<defs>
<filter id="filter0_d_6874_65142" x="-7" y="-5" width="655" height="780" filterUnits="userSpaceOnUse" color-interpolation-filters="sRGB">
<feFlood flood-opacity="0" result="BackgroundImageFix"/>
<feColorMatrix in="SourceAlpha" type="matrix" values="0 0 0 0 0 0 0 0 0 0 0 0 0 0 0 0 0 0 127 0" result="hardAlpha"/>
<feOffset dx="3" dy="5"/>
<feGaussianBlur stdDeviation="5"/>
<feComposite in2="hardAlpha" operator="out"/>
<feColorMatrix type="matrix" values="0 0 0 0 0 0 0 0 0 0 0 0 0 0 0 0 0 0 0.05 0"/>
<feBlend mode="multiply" in2="BackgroundImageFix" result="effect1_dropShadow_6874_65142"/>
<feBlend mode="normal" in="SourceGraphic" in2="effect1_dropShadow_6874_65142" result="shape"/>
</filter>
<clipPath id="clip0_6874_65142">
<path d="M0 4.99998C0 2.23856 2.23858 0 5 0H630C632.761 0 635 2.23858 635 5V755C635 757.761 632.761 760 630 760H5C2.23857 760 0 757.761 0 755V4.99998Z" fill="white"/>
</clipPath>
</defs>
</svg>
