<svg width="617" height="370" viewBox="0 0 617 370" fill="none" xmlns="http://www.w3.org/2000/svg">
<g filter="url(#filter0_d_6874_64331)">
<g clip-path="url(#clip0_6874_64331)">
<path d="M0 5C0 2.23857 2.23858 0 5 0H612C614.761 0 617 2.23858 617 5V365C617 367.761 614.761 370 612 370H5C2.23858 370 0 367.761 0 365V5Z" fill="#FFBF00"/>
<rect width="617" height="60" transform="translate(0 310)" fill="#171717" fill-opacity="0.65"/>
<path d="M225.676 350V332.216H229.228V347.024H236.452V350H225.676ZM239.263 350V336.56H242.791V350H239.263ZM241.039 334.376C240.415 334.376 239.919 334.208 239.551 333.872C239.183 333.52 238.999 333.048 238.999 332.456C238.999 331.88 239.183 331.416 239.551 331.064C239.919 330.712 240.415 330.536 241.039 330.536C241.631 330.536 242.119 330.712 242.503 331.064C242.887 331.416 243.079 331.88 243.079 332.456C243.079 333.048 242.887 333.52 242.503 333.872C242.119 334.208 241.631 334.376 241.039 334.376ZM250.392 350.336C249.496 350.336 248.584 350.16 247.656 349.808C246.744 349.456 245.952 349.008 245.28 348.464L246.888 346.232C247.48 346.68 248.064 347.04 248.64 347.312C249.232 347.568 249.848 347.696 250.488 347.696C251.16 347.696 251.648 347.568 251.952 347.312C252.272 347.04 252.432 346.696 252.432 346.28C252.432 345.944 252.296 345.664 252.024 345.44C251.752 345.2 251.4 344.992 250.968 344.816C250.536 344.624 250.088 344.44 249.624 344.264C249.064 344.04 248.504 343.768 247.944 343.448C247.4 343.128 246.944 342.72 246.576 342.224C246.208 341.712 246.024 341.08 246.024 340.328C246.024 339.528 246.232 338.824 246.648 338.216C247.064 337.592 247.64 337.104 248.376 336.752C249.128 336.4 250.016 336.224 251.04 336.224C252.016 336.224 252.88 336.392 253.632 336.728C254.4 337.064 255.056 337.448 255.6 337.88L254.016 340.016C253.536 339.664 253.056 339.384 252.576 339.176C252.112 338.968 251.632 338.864 251.136 338.864C250.512 338.864 250.056 338.984 249.768 339.224C249.48 339.464 249.336 339.776 249.336 340.16C249.336 340.48 249.456 340.752 249.696 340.976C249.936 341.184 250.264 341.368 250.68 341.528C251.096 341.688 251.536 341.856 252 342.032C252.448 342.192 252.888 342.384 253.32 342.608C253.768 342.816 254.176 343.072 254.544 343.376C254.912 343.68 255.2 344.056 255.408 344.504C255.632 344.936 255.744 345.464 255.744 346.088C255.744 346.872 255.536 347.592 255.12 348.248C254.72 348.888 254.12 349.4 253.32 349.784C252.536 350.152 251.56 350.336 250.392 350.336ZM262.675 350.336C261.619 350.336 260.763 350.128 260.107 349.712C259.451 349.28 258.979 348.688 258.691 347.936C258.403 347.184 258.259 346.312 258.259 345.32V339.344H256.363V336.728L258.451 336.56L258.859 332.936H261.763V336.56H265.099V339.344H261.763V345.296C261.763 346.064 261.923 346.632 262.243 347C262.563 347.368 263.019 347.552 263.611 347.552C263.835 347.552 264.067 347.52 264.307 347.456C264.547 347.392 264.755 347.328 264.931 347.264L265.531 349.832C265.163 349.944 264.739 350.056 264.259 350.168C263.795 350.28 263.267 350.336 262.675 350.336ZM273.127 350.336C271.879 350.336 270.751 350.056 269.743 349.496C268.735 348.936 267.927 348.128 267.319 347.072C266.727 346.016 266.431 344.752 266.431 343.28C266.431 342.192 266.599 341.216 266.935 340.352C267.287 339.488 267.759 338.752 268.351 338.144C268.959 337.52 269.631 337.048 270.367 336.728C271.119 336.392 271.895 336.224 272.695 336.224C273.927 336.224 274.959 336.504 275.791 337.064C276.623 337.608 277.247 338.368 277.663 339.344C278.095 340.304 278.311 341.408 278.311 342.656C278.311 342.976 278.295 343.288 278.263 343.592C278.231 343.88 278.191 344.112 278.143 344.288H269.863C269.959 345.008 270.175 345.616 270.511 346.112C270.847 346.608 271.279 346.984 271.807 347.24C272.335 347.48 272.935 347.6 273.607 347.6C274.151 347.6 274.663 347.528 275.143 347.384C275.623 347.224 276.111 346.992 276.607 346.688L277.807 348.848C277.151 349.296 276.415 349.656 275.599 349.928C274.783 350.2 273.959 350.336 273.127 350.336ZM269.791 341.912H275.287C275.287 341.016 275.079 340.304 274.663 339.776C274.263 339.232 273.623 338.96 272.743 338.96C272.279 338.96 271.839 339.072 271.423 339.296C271.007 339.504 270.655 339.832 270.367 340.28C270.079 340.712 269.887 341.256 269.791 341.912ZM281.216 350V336.56H284.096L284.36 338.336H284.432C285.024 337.76 285.672 337.264 286.376 336.848C287.08 336.432 287.888 336.224 288.8 336.224C290.256 336.224 291.312 336.704 291.968 337.664C292.624 338.608 292.952 339.928 292.952 341.624V350H289.424V342.056C289.424 341.016 289.272 340.288 288.968 339.872C288.68 339.456 288.2 339.248 287.528 339.248C286.984 339.248 286.504 339.376 286.088 339.632C285.688 339.888 285.24 340.264 284.744 340.76V350H281.216ZM305.317 350.336C304.533 350.336 303.837 350.168 303.229 349.832C302.637 349.48 302.173 349 301.837 348.392C301.517 347.784 301.357 347.096 301.357 346.328C301.357 344.904 301.973 343.8 303.205 343.016C304.437 342.216 306.397 341.672 309.085 341.384C309.069 340.936 308.989 340.544 308.845 340.208C308.701 339.856 308.461 339.576 308.125 339.368C307.805 339.16 307.365 339.056 306.805 339.056C306.181 339.056 305.565 339.176 304.957 339.416C304.349 339.656 303.733 339.968 303.109 340.352L301.861 338C302.389 337.664 302.949 337.368 303.541 337.112C304.133 336.856 304.757 336.648 305.413 336.488C306.069 336.312 306.749 336.224 307.453 336.224C308.589 336.224 309.541 336.448 310.309 336.896C311.077 337.344 311.653 338.008 312.037 338.888C312.421 339.768 312.613 340.856 312.613 342.152V350H309.733L309.493 348.56H309.373C308.797 349.072 308.173 349.496 307.501 349.832C306.829 350.168 306.101 350.336 305.317 350.336ZM306.493 347.576C306.989 347.576 307.437 347.464 307.837 347.24C308.253 347 308.669 346.672 309.085 346.256V343.568C307.997 343.696 307.133 343.88 306.493 344.12C305.853 344.36 305.397 344.648 305.125 344.984C304.853 345.304 304.717 345.664 304.717 346.064C304.717 346.592 304.877 346.976 305.197 347.216C305.533 347.456 305.965 347.576 306.493 347.576ZM316.209 350V336.56H319.089L319.353 338.336H319.425C320.017 337.76 320.664 337.264 321.368 336.848C322.073 336.432 322.881 336.224 323.793 336.224C325.249 336.224 326.305 336.704 326.961 337.664C327.617 338.608 327.945 339.928 327.945 341.624V350H324.417V342.056C324.417 341.016 324.265 340.288 323.961 339.872C323.673 339.456 323.193 339.248 322.521 339.248C321.977 339.248 321.497 339.376 321.081 339.632C320.681 339.888 320.233 340.264 319.737 340.76V350H316.209ZM336.312 350.336C335.192 350.336 334.216 350.056 333.384 349.496C332.568 348.936 331.936 348.128 331.488 347.072C331.04 346.016 330.816 344.752 330.816 343.28C330.816 341.824 331.08 340.576 331.608 339.536C332.152 338.48 332.856 337.664 333.72 337.088C334.584 336.512 335.496 336.224 336.456 336.224C337.208 336.224 337.84 336.36 338.352 336.632C338.88 336.888 339.384 337.24 339.864 337.688L339.744 335.576V330.848H343.272V350H340.392L340.128 348.608H340.032C339.536 349.088 338.968 349.496 338.328 349.832C337.688 350.168 337.016 350.336 336.312 350.336ZM337.224 347.432C337.704 347.432 338.144 347.328 338.544 347.12C338.96 346.896 339.36 346.536 339.744 346.04V340.136C339.344 339.768 338.928 339.512 338.496 339.368C338.08 339.208 337.656 339.128 337.224 339.128C336.728 339.128 336.264 339.288 335.832 339.608C335.416 339.912 335.08 340.368 334.824 340.976C334.568 341.584 334.44 342.336 334.44 343.232C334.44 344.16 334.544 344.936 334.752 345.56C334.976 346.184 335.296 346.656 335.712 346.976C336.128 347.28 336.632 347.432 337.224 347.432ZM358.058 350.336C356.874 350.336 355.714 350.112 354.578 349.664C353.442 349.216 352.442 348.576 351.578 347.744L353.618 345.296C354.242 345.888 354.954 346.368 355.754 346.736C356.57 347.088 357.362 347.264 358.13 347.264C359.058 347.264 359.762 347.08 360.242 346.712C360.722 346.344 360.962 345.848 360.962 345.224C360.962 344.776 360.842 344.424 360.602 344.168C360.378 343.896 360.066 343.656 359.666 343.448C359.266 343.24 358.802 343.032 358.274 342.824L355.922 341.792C355.33 341.552 354.754 341.232 354.194 340.832C353.65 340.416 353.194 339.896 352.826 339.272C352.474 338.648 352.298 337.904 352.298 337.04C352.298 336.064 352.562 335.192 353.09 334.424C353.618 333.656 354.346 333.048 355.274 332.6C356.202 332.136 357.258 331.904 358.442 331.904C359.498 331.904 360.514 332.104 361.49 332.504C362.466 332.904 363.314 333.472 364.034 334.208L362.234 336.416C361.674 335.952 361.09 335.592 360.482 335.336C359.874 335.08 359.194 334.952 358.442 334.952C357.674 334.952 357.058 335.12 356.594 335.456C356.146 335.776 355.922 336.232 355.922 336.824C355.922 337.24 356.05 337.584 356.306 337.856C356.562 338.128 356.898 338.368 357.314 338.576C357.73 338.768 358.186 338.968 358.682 339.176L361.01 340.112C361.73 340.4 362.354 340.76 362.882 341.192C363.426 341.624 363.842 342.144 364.13 342.752C364.434 343.36 364.586 344.096 364.586 344.96C364.586 345.92 364.322 346.808 363.794 347.624C363.282 348.44 362.538 349.096 361.562 349.592C360.602 350.088 359.434 350.336 358.058 350.336ZM370.731 350.336C369.947 350.336 369.251 350.168 368.643 349.832C368.051 349.48 367.587 349 367.251 348.392C366.931 347.784 366.771 347.096 366.771 346.328C366.771 344.904 367.387 343.8 368.619 343.016C369.851 342.216 371.811 341.672 374.499 341.384C374.483 340.936 374.403 340.544 374.259 340.208C374.115 339.856 373.875 339.576 373.539 339.368C373.219 339.16 372.779 339.056 372.219 339.056C371.595 339.056 370.979 339.176 370.371 339.416C369.763 339.656 369.147 339.968 368.523 340.352L367.275 338C367.803 337.664 368.363 337.368 368.955 337.112C369.547 336.856 370.171 336.648 370.827 336.488C371.483 336.312 372.163 336.224 372.867 336.224C374.003 336.224 374.955 336.448 375.723 336.896C376.491 337.344 377.067 338.008 377.451 338.888C377.835 339.768 378.027 340.856 378.027 342.152V350H375.147L374.907 348.56H374.787C374.211 349.072 373.587 349.496 372.915 349.832C372.243 350.168 371.515 350.336 370.731 350.336ZM371.907 347.576C372.403 347.576 372.851 347.464 373.251 347.24C373.667 347 374.083 346.672 374.499 346.256V343.568C373.411 343.696 372.547 343.88 371.907 344.12C371.267 344.36 370.811 344.648 370.539 344.984C370.267 345.304 370.131 345.664 370.131 346.064C370.131 346.592 370.291 346.976 370.611 347.216C370.947 347.456 371.379 347.576 371.907 347.576ZM382.799 355.376C382.399 355.376 382.055 355.352 381.767 355.304C381.479 355.256 381.207 355.192 380.951 355.112L381.599 352.424C381.727 352.456 381.871 352.488 382.031 352.52C382.207 352.568 382.375 352.592 382.535 352.592C383.223 352.592 383.767 352.4 384.167 352.016C384.567 351.632 384.863 351.144 385.055 350.552L385.295 349.736L380.063 336.56H383.615L385.751 342.8C385.959 343.408 386.151 344.032 386.327 344.672C386.503 345.312 386.687 345.952 386.879 346.592H386.999C387.143 345.952 387.295 345.32 387.455 344.696C387.631 344.056 387.799 343.424 387.959 342.8L389.807 336.56H393.191L388.415 350.408C388.031 351.464 387.591 352.36 387.095 353.096C386.599 353.848 386.007 354.416 385.319 354.8C384.647 355.184 383.807 355.376 382.799 355.376Z" fill="white"/>
<!-- <ellipse cx="597" cy="330" rx="3" ry="3" transform="rotate(90 597 330)" fill="white"/>
<ellipse cx="597" cy="340" rx="3" ry="3" transform="rotate(90 597 340)" fill="white"/>
<ellipse cx="597" cy="350" rx="3" ry="3" transform="rotate(90 597 350)" fill="white"/> -->
<path d="M0 5C0 2.23858 2.23858 0 5 0H80L0 80V5Z" fill="#FF6D00"/>
<path d="M22.4257 34V23.99C22.4257 23.5207 22.4404 22.9633 22.4697 22.318C22.4991 21.658 22.5284 21.086 22.5577 20.602H22.4477C22.2571 21.042 22.0517 21.482 21.8317 21.922C21.6117 22.362 21.3844 22.8093 21.1497 23.264L18.6197 27.312H27.3757V29.776H15.4737V27.576L21.5457 17.698H25.4397V34H22.4257Z" fill="white"/>
<path d="M270.846 187.036C269.966 187.036 268.932 187.52 268.184 188.752C268.492 191.722 269.592 192.866 270.956 192.866C272.166 192.866 273.178 191.854 273.178 189.852C273.178 187.938 272.254 187.036 270.846 187.036ZM271.022 195.308C267.92 195.308 265.17 192.822 265.17 187.08C265.17 181.008 268.184 178.412 271.462 178.412C273.464 178.412 274.894 179.248 275.884 180.26L274.168 182.196C273.596 181.536 272.606 181.008 271.66 181.008C269.79 181.008 268.25 182.416 268.118 186.508C268.998 185.408 270.406 184.748 271.462 184.748C274.19 184.748 276.126 186.376 276.126 189.852C276.126 193.196 273.794 195.308 271.022 195.308ZM278.829 195V192.382H282.327V182.086H279.379V180.084C281.007 179.776 282.129 179.358 283.163 178.698H285.561V192.382H288.619V195H278.829ZM294.072 195C294.358 189.346 295.304 185.738 298.406 181.426H291.08V178.698H301.904V180.678C298.12 185.298 297.614 188.62 297.35 195H294.072ZM306.566 185.804L305.18 184.792L306.632 182.284L304.014 181.118L304.542 179.49L307.358 180.106L307.644 177.224H309.382L309.646 180.128L312.462 179.49L312.99 181.118L310.35 182.284L311.846 184.792L310.438 185.804L308.502 183.604L306.566 185.804ZM320.092 195.308C317.518 195.308 315.78 194.34 314.636 193.042L316.154 190.996C317.122 191.942 318.31 192.668 319.784 192.668C321.434 192.668 322.556 191.854 322.556 190.38C322.556 188.796 321.61 187.784 318.068 187.784V185.474C321.06 185.474 322.028 184.44 322.028 182.988C322.028 181.712 321.236 180.964 319.85 180.964C318.684 180.964 317.738 181.492 316.77 182.394L315.12 180.414C316.528 179.182 318.09 178.412 320.004 178.412C323.15 178.412 325.284 179.974 325.284 182.746C325.284 184.506 324.294 185.782 322.578 186.464V186.574C324.404 187.08 325.812 188.444 325.812 190.578C325.812 193.57 323.194 195.308 320.092 195.308ZM331.112 195C331.398 189.346 332.344 185.738 335.446 181.426H328.12V178.698H338.944V180.678C335.16 185.298 334.654 188.62 334.39 195H331.112ZM346.465 195.308C343.143 195.308 340.943 192.404 340.943 186.794C340.943 181.162 343.143 178.412 346.465 178.412C349.787 178.412 351.965 181.184 351.965 186.794C351.965 192.404 349.787 195.308 346.465 195.308ZM346.465 192.778C347.873 192.778 348.907 191.37 348.907 186.794C348.907 182.24 347.873 180.92 346.465 180.92C345.057 180.92 344.001 182.24 344.001 186.794C344.001 191.37 345.057 192.778 346.465 192.778Z" fill="black"/>
</g>
</g>
<defs>
<filter id="filter0_d_6874_64331" x="-7" y="-5" width="637" height="390" filterUnits="userSpaceOnUse" color-interpolation-filters="sRGB">
<feFlood flood-opacity="0" result="BackgroundImageFix"/>
<feColorMatrix in="SourceAlpha" type="matrix" values="0 0 0 0 0 0 0 0 0 0 0 0 0 0 0 0 0 0 127 0" result="hardAlpha"/>
<feOffset dx="3" dy="5"/>
<feGaussianBlur stdDeviation="5"/>
<feComposite in2="hardAlpha" operator="out"/>
<feColorMatrix type="matrix" values="0 0 0 0 0 0 0 0 0 0 0 0 0 0 0 0 0 0 0.05 0"/>
<feBlend mode="multiply" in2="BackgroundImageFix" result="effect1_dropShadow_6874_64331"/>
<feBlend mode="normal" in="SourceGraphic" in2="effect1_dropShadow_6874_64331" result="shape"/>
</filter>
<clipPath id="clip0_6874_64331">
<path d="M0 5C0 2.23857 2.23858 0 5 0H612C614.761 0 617 2.23858 617 5V365C617 367.761 614.761 370 612 370H5C2.23858 370 0 367.761 0 365V5Z" fill="white"/>
</clipPath>
</defs>
</svg>
