<svg width="538" height="760" viewBox="0 0 538 760" fill="none" xmlns="http://www.w3.org/2000/svg">
<g filter="url(#filter0_d_6874_65210)">
<g clip-path="url(#clip0_6874_65210)">
<path d="M0 4.99998C0 2.23856 2.23858 0 5 0H533C535.761 0 538 2.23858 538 5V755C538 757.761 535.761 760 533 760H5C2.23857 760 0 757.761 0 755V4.99998Z" fill="#F89F45"/>
<rect width="538" height="60" transform="translate(0 700)" fill="#171717" fill-opacity="0.65"/>
<path d="M228.575 740V722.216H234.743C236.007 722.216 237.143 722.384 238.151 722.72C239.159 723.04 239.959 723.6 240.551 724.4C241.143 725.184 241.439 726.256 241.439 727.616C241.439 728.928 241.143 730.008 240.551 730.856C239.959 731.688 239.159 732.304 238.151 732.704C237.143 733.088 236.007 733.28 234.743 733.28H232.127V740H228.575ZM232.127 730.472H234.431C235.583 730.472 236.455 730.232 237.047 729.752C237.655 729.272 237.959 728.56 237.959 727.616C237.959 726.656 237.655 725.992 237.047 725.624C236.455 725.24 235.583 725.048 234.431 725.048H232.127V730.472ZM238.223 740L234.095 732.368L236.591 730.16L242.207 740H238.223ZM250.104 740.336C248.856 740.336 247.728 740.056 246.72 739.496C245.712 738.936 244.904 738.128 244.296 737.072C243.704 736.016 243.408 734.752 243.408 733.28C243.408 732.192 243.576 731.216 243.912 730.352C244.264 729.488 244.736 728.752 245.328 728.144C245.936 727.52 246.608 727.048 247.344 726.728C248.096 726.392 248.872 726.224 249.672 726.224C250.904 726.224 251.936 726.504 252.768 727.064C253.6 727.608 254.224 728.368 254.64 729.344C255.072 730.304 255.288 731.408 255.288 732.656C255.288 732.976 255.272 733.288 255.24 733.592C255.208 733.88 255.168 734.112 255.12 734.288H246.84C246.936 735.008 247.152 735.616 247.488 736.112C247.824 736.608 248.256 736.984 248.784 737.24C249.312 737.48 249.912 737.6 250.584 737.6C251.128 737.6 251.64 737.528 252.12 737.384C252.6 737.224 253.088 736.992 253.584 736.688L254.784 738.848C254.128 739.296 253.392 739.656 252.576 739.928C251.76 740.2 250.936 740.336 250.104 740.336ZM246.768 731.912H252.264C252.264 731.016 252.056 730.304 251.64 729.776C251.24 729.232 250.6 728.96 249.72 728.96C249.256 728.96 248.816 729.072 248.4 729.296C247.984 729.504 247.632 729.832 247.344 730.28C247.056 730.712 246.864 731.256 246.768 731.912ZM260.983 740L256.399 726.56H259.951L261.895 733.256C262.087 733.928 262.271 734.608 262.447 735.296C262.639 735.968 262.823 736.648 262.999 737.336H263.118C263.295 736.648 263.471 735.968 263.647 735.296C263.839 734.608 264.023 733.928 264.199 733.256L266.167 726.56H269.551L265.063 740H260.983ZM271.787 740V726.56H275.315V740H271.787ZM273.563 724.376C272.939 724.376 272.443 724.208 272.075 723.872C271.707 723.52 271.523 723.048 271.523 722.456C271.523 721.88 271.707 721.416 272.075 721.064C272.443 720.712 272.939 720.536 273.563 720.536C274.155 720.536 274.643 720.712 275.027 721.064C275.411 721.416 275.603 721.88 275.603 722.456C275.603 723.048 275.411 723.52 275.027 723.872C274.643 724.208 274.155 724.376 273.563 724.376ZM284.932 740.336C283.684 740.336 282.556 740.056 281.548 739.496C280.54 738.936 279.732 738.128 279.124 737.072C278.532 736.016 278.236 734.752 278.236 733.28C278.236 732.192 278.404 731.216 278.74 730.352C279.092 729.488 279.564 728.752 280.156 728.144C280.764 727.52 281.436 727.048 282.172 726.728C282.924 726.392 283.7 726.224 284.5 726.224C285.732 726.224 286.764 726.504 287.596 727.064C288.428 727.608 289.052 728.368 289.468 729.344C289.9 730.304 290.116 731.408 290.116 732.656C290.116 732.976 290.1 733.288 290.068 733.592C290.036 733.88 289.996 734.112 289.948 734.288H281.668C281.764 735.008 281.98 735.616 282.316 736.112C282.652 736.608 283.084 736.984 283.612 737.24C284.14 737.48 284.74 737.6 285.412 737.6C285.956 737.6 286.468 737.528 286.948 737.384C287.428 737.224 287.916 736.992 288.412 736.688L289.612 738.848C288.956 739.296 288.22 739.656 287.404 739.928C286.588 740.2 285.764 740.336 284.932 740.336ZM281.596 731.912H287.092C287.092 731.016 286.884 730.304 286.468 729.776C286.068 729.232 285.428 728.96 284.548 728.96C284.084 728.96 283.644 729.072 283.228 729.296C282.812 729.504 282.46 729.832 282.172 730.28C281.884 730.712 281.692 731.256 281.596 731.912ZM295.019 740L291.563 726.56H295.067L296.555 733.184C296.667 733.856 296.771 734.512 296.867 735.152C296.963 735.792 297.067 736.448 297.179 737.12H297.299C297.443 736.448 297.579 735.792 297.707 735.152C297.835 734.496 297.979 733.84 298.139 733.184L299.771 726.56H302.891L304.571 733.184C304.731 733.856 304.875 734.512 305.003 735.152C305.131 735.792 305.275 736.448 305.435 737.12H305.531C305.659 736.448 305.771 735.792 305.867 735.152C305.979 734.512 306.099 733.856 306.227 733.184L307.643 726.56H310.931L307.619 740H303.467L302.051 734.144C301.907 733.504 301.771 732.872 301.643 732.248C301.531 731.608 301.403 730.928 301.259 730.208H301.139C301.027 730.928 300.915 731.608 300.803 732.248C300.691 732.888 300.563 733.52 300.419 734.144L299.051 740H295.019Z" fill="white"/>
<!-- <ellipse cx="518" cy="720" rx="3" ry="3" transform="rotate(90 518 720)" fill="white"/>
<ellipse cx="518" cy="730" rx="3" ry="3" transform="rotate(90 518 730)" fill="white"/>
<ellipse cx="518" cy="740" rx="3" ry="3" transform="rotate(90 518 740)" fill="white"/> -->
<path d="M0 5C0 2.23858 2.23858 0 5 0H80L0 80V5Z" fill="#FF6D00"/>
<path d="M15.9577 34V32.13C17.4391 30.81 18.7004 29.5853 19.7417 28.456C20.7977 27.3267 21.6044 26.278 22.1617 25.31C22.7191 24.3273 22.9977 23.418 22.9977 22.582C22.9977 22.054 22.9024 21.592 22.7117 21.196C22.5211 20.8 22.2424 20.4993 21.8757 20.294C21.5237 20.074 21.0837 19.964 20.5557 19.964C19.9691 19.964 19.4264 20.1327 18.9277 20.47C18.4437 20.7927 17.9964 21.1813 17.5857 21.636L15.7817 19.898C16.5444 19.0767 17.3217 18.4607 18.1137 18.05C18.9204 17.6247 19.8737 17.412 20.9737 17.412C22.0004 17.412 22.8951 17.6247 23.6577 18.05C24.4351 18.4607 25.0364 19.04 25.4617 19.788C25.8871 20.536 26.0997 21.416 26.0997 22.428C26.0997 23.4107 25.8504 24.4153 25.3517 25.442C24.8677 26.454 24.2151 27.466 23.3937 28.478C22.5724 29.49 21.6631 30.4873 20.6657 31.47C21.0911 31.4113 21.5457 31.3673 22.0297 31.338C22.5284 31.294 22.9684 31.272 23.3497 31.272H26.8697V34H15.9577Z" fill="white"/>
<path d="M231.142 390.308C228.568 390.308 226.852 389.296 225.642 388.086L227.138 386.018C228.062 386.92 229.206 387.668 230.724 387.668C232.418 387.668 233.606 386.59 233.606 384.676C233.606 382.784 232.506 381.728 230.856 381.728C229.888 381.728 229.36 381.97 228.414 382.586L226.94 381.618L227.38 373.698H236.092V376.426H230.174L229.866 379.88C230.526 379.572 231.076 379.418 231.824 379.418C234.552 379.418 236.84 381.046 236.84 384.588C236.84 388.218 234.156 390.308 231.142 390.308ZM244.053 390.308C241.479 390.308 239.741 389.34 238.597 388.042L240.115 385.996C241.083 386.942 242.271 387.668 243.745 387.668C245.395 387.668 246.517 386.854 246.517 385.38C246.517 383.796 245.571 382.784 242.029 382.784V380.474C245.021 380.474 245.989 379.44 245.989 377.988C245.989 376.712 245.197 375.964 243.811 375.964C242.645 375.964 241.699 376.492 240.731 377.394L239.081 375.414C240.489 374.182 242.051 373.412 243.965 373.412C247.111 373.412 249.245 374.974 249.245 377.746C249.245 379.506 248.255 380.782 246.539 381.464V381.574C248.365 382.08 249.773 383.444 249.773 385.578C249.773 388.57 247.155 390.308 244.053 390.308ZM257.448 390.308C254.346 390.308 252.014 388.504 252.014 385.952C252.014 383.862 253.29 382.498 254.808 381.706V381.596C253.554 380.694 252.652 379.462 252.652 377.724C252.652 375.106 254.742 373.434 257.558 373.434C260.44 373.434 262.288 375.172 262.288 377.768C262.288 379.374 261.276 380.716 260.198 381.486V381.596C261.694 382.41 262.926 383.73 262.926 385.952C262.926 388.416 260.748 390.308 257.448 390.308ZM258.482 380.694C259.274 379.858 259.648 378.934 259.648 377.966C259.648 376.646 258.856 375.7 257.492 375.7C256.392 375.7 255.512 376.426 255.512 377.724C255.512 379.264 256.766 380.012 258.482 380.694ZM257.536 388.02C258.922 388.02 259.912 387.25 259.912 385.842C259.912 384.148 258.416 383.444 256.304 382.586C255.424 383.29 254.808 384.39 254.808 385.6C254.808 387.074 256.018 388.02 257.536 388.02ZM267.566 380.804L266.18 379.792L267.632 377.284L265.014 376.118L265.542 374.49L268.358 375.106L268.644 372.224H270.382L270.646 375.128L273.462 374.49L273.99 376.118L271.35 377.284L272.846 379.792L271.438 380.804L269.502 378.604L267.566 380.804ZM279.156 390C279.442 384.346 280.388 380.738 283.49 376.426H276.164V373.698H286.988V375.678C283.204 380.298 282.698 383.62 282.434 390H279.156ZM294.796 382.036C293.916 382.036 292.882 382.52 292.134 383.752C292.442 386.722 293.542 387.866 294.906 387.866C296.116 387.866 297.128 386.854 297.128 384.852C297.128 382.938 296.204 382.036 294.796 382.036ZM294.972 390.308C291.87 390.308 289.12 387.822 289.12 382.08C289.12 376.008 292.134 373.412 295.412 373.412C297.414 373.412 298.844 374.248 299.834 375.26L298.118 377.196C297.546 376.536 296.556 376.008 295.61 376.008C293.74 376.008 292.2 377.416 292.068 381.508C292.948 380.408 294.356 379.748 295.412 379.748C298.14 379.748 300.076 381.376 300.076 384.852C300.076 388.196 297.744 390.308 294.972 390.308ZM307.465 390.308C304.143 390.308 301.943 387.404 301.943 381.794C301.943 376.162 304.143 373.412 307.465 373.412C310.787 373.412 312.965 376.184 312.965 381.794C312.965 387.404 310.787 390.308 307.465 390.308ZM307.465 387.778C308.873 387.778 309.907 386.37 309.907 381.794C309.907 377.24 308.873 375.92 307.465 375.92C306.057 375.92 305.001 377.24 305.001 381.794C305.001 386.37 306.057 387.778 307.465 387.778Z" fill="black"/>
</g>
</g>
<defs>
<filter id="filter0_d_6874_65210" x="-7" y="-5" width="558" height="780" filterUnits="userSpaceOnUse" color-interpolation-filters="sRGB">
<feFlood flood-opacity="0" result="BackgroundImageFix"/>
<feColorMatrix in="SourceAlpha" type="matrix" values="0 0 0 0 0 0 0 0 0 0 0 0 0 0 0 0 0 0 127 0" result="hardAlpha"/>
<feOffset dx="3" dy="5"/>
<feGaussianBlur stdDeviation="5"/>
<feComposite in2="hardAlpha" operator="out"/>
<feColorMatrix type="matrix" values="0 0 0 0 0 0 0 0 0 0 0 0 0 0 0 0 0 0 0.05 0"/>
<feBlend mode="multiply" in2="BackgroundImageFix" result="effect1_dropShadow_6874_65210"/>
<feBlend mode="normal" in="SourceGraphic" in2="effect1_dropShadow_6874_65210" result="shape"/>
</filter>
<clipPath id="clip0_6874_65210">
<path d="M0 4.99998C0 2.23856 2.23858 0 5 0H533C535.761 0 538 2.23858 538 5V755C538 757.761 535.761 760 533 760H5C2.23857 760 0 757.761 0 755V4.99998Z" fill="white"/>
</clipPath>
</defs>
</svg>
