<svg width="538" height="370" viewBox="0 0 538 370" fill="none" xmlns="http://www.w3.org/2000/svg">
<g filter="url(#filter0_d_6874_65219)">
<g clip-path="url(#clip0_6874_65219)">
<path d="M0 5C0 2.23857 2.23858 0 5 0H533C535.761 0 538 2.23858 538 5V365C538 367.761 535.761 370 533 370H5C2.23857 370 0 367.761 0 365V5Z" fill="#8EDFEA"/>
<path d="M0 5C0 2.23858 2.23858 0 5 0H80L0 80V5Z" fill="#FF6D00"/>
<path d="M21.0177 34.308C20.1671 34.308 19.4044 34.2053 18.7297 34C18.0551 33.8093 17.4537 33.5453 16.9257 33.208C16.4124 32.856 15.9651 32.4673 15.5837 32.042L17.1017 29.996C17.6004 30.4507 18.1431 30.8467 18.7297 31.184C19.3311 31.5067 19.9984 31.668 20.7317 31.668C21.2891 31.668 21.7731 31.58 22.1837 31.404C22.6091 31.228 22.9317 30.9713 23.1517 30.634C23.3864 30.2967 23.5037 29.886 23.5037 29.402C23.5037 28.8593 23.3717 28.3973 23.1077 28.016C22.8584 27.62 22.4111 27.3193 21.7657 27.114C21.1204 26.9087 20.2111 26.806 19.0377 26.806V24.474C20.0351 24.474 20.8197 24.3713 21.3917 24.166C21.9637 23.946 22.3671 23.6527 22.6017 23.286C22.8511 22.9047 22.9757 22.472 22.9757 21.988C22.9757 21.3573 22.7851 20.866 22.4037 20.514C22.0224 20.1473 21.4871 19.964 20.7977 19.964C20.2257 19.964 19.6904 20.096 19.1917 20.36C18.7077 20.6093 18.2237 20.954 17.7397 21.394L16.0677 19.392C16.7864 18.7907 17.5417 18.314 18.3337 17.962C19.1257 17.5953 19.9984 17.412 20.9517 17.412C21.9931 17.412 22.9097 17.5807 23.7017 17.918C24.5084 18.2553 25.1317 18.7467 25.5717 19.392C26.0117 20.0373 26.2317 20.822 26.2317 21.746C26.2317 22.626 25.9971 23.3813 25.5277 24.012C25.0584 24.6427 24.3911 25.1267 23.5257 25.464V25.574C24.1271 25.7353 24.6697 25.9993 25.1537 26.366C25.6524 26.718 26.0411 27.1653 26.3197 27.708C26.6131 28.2507 26.7597 28.8813 26.7597 29.6C26.7597 30.5827 26.4957 31.426 25.9677 32.13C25.4544 32.834 24.7577 33.3767 23.8777 33.758C23.0124 34.1247 22.0591 34.308 21.0177 34.308Z" fill="white"/>
<rect width="538" height="60" transform="translate(0 310)" fill="#171717" fill-opacity="0.65"/>
<path d="M226.379 350.336C225.195 350.336 224.035 350.112 222.899 349.664C221.763 349.216 220.763 348.576 219.899 347.744L221.939 345.296C222.563 345.888 223.275 346.368 224.075 346.736C224.891 347.088 225.683 347.264 226.451 347.264C227.379 347.264 228.083 347.08 228.563 346.712C229.043 346.344 229.283 345.848 229.283 345.224C229.283 344.776 229.163 344.424 228.923 344.168C228.699 343.896 228.387 343.656 227.987 343.448C227.587 343.24 227.123 343.032 226.595 342.824L224.243 341.792C223.651 341.552 223.075 341.232 222.515 340.832C221.971 340.416 221.515 339.896 221.147 339.272C220.795 338.648 220.619 337.904 220.619 337.04C220.619 336.064 220.883 335.192 221.411 334.424C221.939 333.656 222.667 333.048 223.595 332.6C224.523 332.136 225.579 331.904 226.763 331.904C227.819 331.904 228.835 332.104 229.811 332.504C230.787 332.904 231.635 333.472 232.355 334.208L230.555 336.416C229.995 335.952 229.411 335.592 228.803 335.336C228.195 335.08 227.515 334.952 226.763 334.952C225.995 334.952 225.379 335.12 224.915 335.456C224.467 335.776 224.243 336.232 224.243 336.824C224.243 337.24 224.371 337.584 224.627 337.856C224.883 338.128 225.219 338.368 225.635 338.576C226.051 338.768 226.507 338.968 227.003 339.176L229.331 340.112C230.051 340.4 230.675 340.76 231.203 341.192C231.747 341.624 232.163 342.144 232.451 342.752C232.755 343.36 232.907 344.096 232.907 344.96C232.907 345.92 232.643 346.808 232.115 347.624C231.603 348.44 230.859 349.096 229.883 349.592C228.923 350.088 227.755 350.336 226.379 350.336ZM241.619 350.336C240.371 350.336 239.243 350.056 238.235 349.496C237.227 348.936 236.419 348.128 235.811 347.072C235.219 346.016 234.923 344.752 234.923 343.28C234.923 342.192 235.091 341.216 235.427 340.352C235.779 339.488 236.251 338.752 236.843 338.144C237.451 337.52 238.123 337.048 238.859 336.728C239.611 336.392 240.387 336.224 241.187 336.224C242.419 336.224 243.451 336.504 244.283 337.064C245.115 337.608 245.739 338.368 246.155 339.344C246.587 340.304 246.803 341.408 246.803 342.656C246.803 342.976 246.787 343.288 246.755 343.592C246.723 343.88 246.683 344.112 246.635 344.288H238.355C238.451 345.008 238.667 345.616 239.003 346.112C239.339 346.608 239.771 346.984 240.299 347.24C240.827 347.48 241.427 347.6 242.099 347.6C242.643 347.6 243.155 347.528 243.635 347.384C244.115 347.224 244.603 346.992 245.099 346.688L246.299 348.848C245.643 349.296 244.907 349.656 244.091 349.928C243.275 350.2 242.451 350.336 241.619 350.336ZM238.283 341.912H243.779C243.779 341.016 243.571 340.304 243.155 339.776C242.755 339.232 242.115 338.96 241.235 338.96C240.771 338.96 240.331 339.072 239.915 339.296C239.499 339.504 239.147 339.832 238.859 340.28C238.571 340.712 238.379 341.256 238.283 341.912ZM253.045 350.336C252.213 350.336 251.557 350.168 251.077 349.832C250.597 349.48 250.245 349 250.021 348.392C249.813 347.768 249.709 347.048 249.709 346.232V330.848H253.237V346.376C253.237 346.776 253.309 347.056 253.453 347.216C253.613 347.376 253.773 347.456 253.933 347.456C254.013 347.456 254.085 347.456 254.148 347.456C254.213 347.44 254.301 347.424 254.413 347.408L254.845 350.024C254.637 350.104 254.381 350.176 254.077 350.24C253.789 350.304 253.445 350.336 253.045 350.336ZM257.879 350V335.48C257.879 334.552 258.031 333.712 258.335 332.96C258.655 332.208 259.151 331.616 259.823 331.184C260.511 330.736 261.415 330.512 262.535 330.512C263.079 330.512 263.567 330.56 263.999 330.656C264.431 330.752 264.799 330.856 265.103 330.968L264.455 333.608C264.007 333.4 263.527 333.296 263.015 333.296C262.503 333.296 262.103 333.464 261.815 333.8C261.527 334.136 261.383 334.672 261.383 335.408V350H257.879ZM256.055 339.344V336.728L258.071 336.56H263.951V339.344H256.055ZM264.903 344.408V341.864H271.455V344.408H264.903ZM276.728 350V335.192H271.736V332.216H285.296V335.192H280.28V350H276.728ZM291.611 350.336C290.363 350.336 289.235 350.056 288.227 349.496C287.219 348.936 286.411 348.128 285.803 347.072C285.211 346.016 284.915 344.752 284.915 343.28C284.915 342.192 285.083 341.216 285.419 340.352C285.771 339.488 286.243 338.752 286.835 338.144C287.443 337.52 288.115 337.048 288.851 336.728C289.603 336.392 290.379 336.224 291.179 336.224C292.411 336.224 293.443 336.504 294.275 337.064C295.107 337.608 295.731 338.368 296.147 339.344C296.579 340.304 296.795 341.408 296.795 342.656C296.795 342.976 296.779 343.288 296.747 343.592C296.715 343.88 296.675 344.112 296.627 344.288H288.347C288.443 345.008 288.659 345.616 288.995 346.112C289.331 346.608 289.763 346.984 290.291 347.24C290.819 347.48 291.419 347.6 292.091 347.6C292.635 347.6 293.147 347.528 293.627 347.384C294.107 347.224 294.595 346.992 295.091 346.688L296.291 348.848C295.635 349.296 294.899 349.656 294.083 349.928C293.267 350.2 292.443 350.336 291.611 350.336ZM288.275 341.912H293.771C293.771 341.016 293.563 340.304 293.147 339.776C292.747 339.232 292.107 338.96 291.227 338.96C290.763 338.96 290.323 339.072 289.907 339.296C289.491 339.504 289.139 339.832 288.851 340.28C288.563 340.712 288.371 341.256 288.275 341.912ZM303.541 350.336C302.645 350.336 301.733 350.16 300.805 349.808C299.893 349.456 299.101 349.008 298.429 348.464L300.037 346.232C300.629 346.68 301.213 347.04 301.789 347.312C302.381 347.568 302.997 347.696 303.637 347.696C304.309 347.696 304.797 347.568 305.101 347.312C305.421 347.04 305.581 346.696 305.581 346.28C305.581 345.944 305.445 345.664 305.173 345.44C304.901 345.2 304.549 344.992 304.117 344.816C303.685 344.624 303.237 344.44 302.773 344.264C302.213 344.04 301.653 343.768 301.093 343.448C300.549 343.128 300.093 342.72 299.725 342.224C299.357 341.712 299.173 341.08 299.173 340.328C299.173 339.528 299.381 338.824 299.797 338.216C300.213 337.592 300.789 337.104 301.525 336.752C302.277 336.4 303.165 336.224 304.189 336.224C305.165 336.224 306.029 336.392 306.781 336.728C307.549 337.064 308.205 337.448 308.749 337.88L307.165 340.016C306.685 339.664 306.205 339.384 305.725 339.176C305.261 338.968 304.781 338.864 304.285 338.864C303.661 338.864 303.205 338.984 302.917 339.224C302.629 339.464 302.485 339.776 302.485 340.16C302.485 340.48 302.605 340.752 302.845 340.976C303.085 341.184 303.413 341.368 303.829 341.528C304.245 341.688 304.685 341.856 305.149 342.032C305.597 342.192 306.037 342.384 306.469 342.608C306.917 342.816 307.325 343.072 307.693 343.376C308.061 343.68 308.349 344.056 308.557 344.504C308.781 344.936 308.893 345.464 308.893 346.088C308.893 346.872 308.685 347.592 308.269 348.248C307.869 348.888 307.269 349.4 306.469 349.784C305.685 350.152 304.709 350.336 303.541 350.336ZM315.824 350.336C314.768 350.336 313.912 350.128 313.256 349.712C312.6 349.28 312.128 348.688 311.84 347.936C311.552 347.184 311.408 346.312 311.408 345.32V339.344H309.512V336.728L311.6 336.56L312.008 332.936H314.912V336.56H318.248V339.344H314.912V345.296C314.912 346.064 315.072 346.632 315.392 347C315.712 347.368 316.168 347.552 316.76 347.552C316.984 347.552 317.216 347.52 317.456 347.456C317.696 347.392 317.904 347.328 318.08 347.264L318.68 349.832C318.312 349.944 317.888 350.056 317.408 350.168C316.944 350.28 316.416 350.336 315.824 350.336Z" fill="white"/>
</g>
</g>
<defs>
<filter id="filter0_d_6874_65219" x="-7" y="-5" width="558" height="390" filterUnits="userSpaceOnUse" color-interpolation-filters="sRGB">
<feFlood flood-opacity="0" result="BackgroundImageFix"/>
<feColorMatrix in="SourceAlpha" type="matrix" values="0 0 0 0 0 0 0 0 0 0 0 0 0 0 0 0 0 0 127 0" result="hardAlpha"/>
<feOffset dx="3" dy="5"/>
<feGaussianBlur stdDeviation="5"/>
<feComposite in2="hardAlpha" operator="out"/>
<feColorMatrix type="matrix" values="0 0 0 0 0 0 0 0 0 0 0 0 0 0 0 0 0 0 0.05 0"/>
<feBlend mode="multiply" in2="BackgroundImageFix" result="effect1_dropShadow_6874_65219"/>
<feBlend mode="normal" in="SourceGraphic" in2="effect1_dropShadow_6874_65219" result="shape"/>
</filter>
<clipPath id="clip0_6874_65219">
<path d="M0 5C0 2.23857 2.23858 0 5 0H533C535.761 0 538 2.23858 538 5V365C538 367.761 535.761 370 533 370H5C2.23857 370 0 367.761 0 365V5Z" fill="white"/>
</clipPath>
</defs>
</svg>
