<svg width="617" height="370" viewBox="0 0 617 370" fill="none" xmlns="http://www.w3.org/2000/svg">
<g filter="url(#filter0_d_6874_64327)">
<g clip-path="url(#clip0_6874_64327)">
<rect width="617" height="370" fill="#90AAD9"/>
<path d="M270.846 187.036C269.966 187.036 268.932 187.52 268.184 188.752C268.492 191.722 269.592 192.866 270.956 192.866C272.166 192.866 273.178 191.854 273.178 189.852C273.178 187.938 272.254 187.036 270.846 187.036ZM271.022 195.308C267.92 195.308 265.17 192.822 265.17 187.08C265.17 181.008 268.184 178.412 271.462 178.412C273.464 178.412 274.894 179.248 275.884 180.26L274.168 182.196C273.596 181.536 272.606 181.008 271.66 181.008C269.79 181.008 268.25 182.416 268.118 186.508C268.998 185.408 270.406 184.748 271.462 184.748C274.19 184.748 276.126 186.376 276.126 189.852C276.126 193.196 273.794 195.308 271.022 195.308ZM278.829 195V192.382H282.327V182.086H279.379V180.084C281.007 179.776 282.129 179.358 283.163 178.698H285.561V192.382H288.619V195H278.829ZM294.072 195C294.358 189.346 295.304 185.738 298.406 181.426H291.08V178.698H301.904V180.678C298.12 185.298 297.614 188.62 297.35 195H294.072ZM306.566 185.804L305.18 184.792L306.632 182.284L304.014 181.118L304.542 179.49L307.358 180.106L307.644 177.224H309.382L309.646 180.128L312.462 179.49L312.99 181.118L310.35 182.284L311.846 184.792L310.438 185.804L308.502 183.604L306.566 185.804ZM320.092 195.308C317.518 195.308 315.78 194.34 314.636 193.042L316.154 190.996C317.122 191.942 318.31 192.668 319.784 192.668C321.434 192.668 322.556 191.854 322.556 190.38C322.556 188.796 321.61 187.784 318.068 187.784V185.474C321.06 185.474 322.028 184.44 322.028 182.988C322.028 181.712 321.236 180.964 319.85 180.964C318.684 180.964 317.738 181.492 316.77 182.394L315.12 180.414C316.528 179.182 318.09 178.412 320.004 178.412C323.15 178.412 325.284 179.974 325.284 182.746C325.284 184.506 324.294 185.782 322.578 186.464V186.574C324.404 187.08 325.812 188.444 325.812 190.578C325.812 193.57 323.194 195.308 320.092 195.308ZM331.112 195C331.398 189.346 332.344 185.738 335.446 181.426H328.12V178.698H338.944V180.678C335.16 185.298 334.654 188.62 334.39 195H331.112ZM346.465 195.308C343.143 195.308 340.943 192.404 340.943 186.794C340.943 181.162 343.143 178.412 346.465 178.412C349.787 178.412 351.965 181.184 351.965 186.794C351.965 192.404 349.787 195.308 346.465 195.308ZM346.465 192.778C347.873 192.778 348.907 191.37 348.907 186.794C348.907 182.24 347.873 180.92 346.465 180.92C345.057 180.92 344.001 182.24 344.001 186.794C344.001 191.37 345.057 192.778 346.465 192.778Z" fill="black"/>
<rect width="617" height="60" transform="translate(0 310)" fill="#171717" fill-opacity="0.65"/>
<path d="M220.039 350V332.216H223.591V347.024H230.815V350H220.039ZM238.75 350.336C237.63 350.336 236.574 350.056 235.582 349.496C234.606 348.936 233.814 348.136 233.206 347.096C232.598 346.04 232.294 344.768 232.294 343.28C232.294 341.792 232.598 340.528 233.206 339.488C233.814 338.432 234.606 337.624 235.582 337.064C236.574 336.504 237.63 336.224 238.75 336.224C239.598 336.224 240.406 336.384 241.174 336.704C241.942 337.024 242.63 337.488 243.238 338.096C243.846 338.688 244.326 339.424 244.678 340.304C245.03 341.168 245.206 342.16 245.206 343.28C245.206 344.768 244.902 346.04 244.294 347.096C243.686 348.136 242.886 348.936 241.894 349.496C240.918 350.056 239.87 350.336 238.75 350.336ZM238.75 347.456C239.358 347.456 239.87 347.288 240.286 346.952C240.718 346.6 241.038 346.112 241.246 345.488C241.47 344.864 241.582 344.128 241.582 343.28C241.582 342.432 241.47 341.696 241.246 341.072C241.038 340.448 240.718 339.968 240.286 339.632C239.87 339.28 239.358 339.104 238.75 339.104C238.142 339.104 237.622 339.28 237.19 339.632C236.774 339.968 236.454 340.448 236.23 341.072C236.022 341.696 235.918 342.432 235.918 343.28C235.918 344.128 236.022 344.864 236.23 345.488C236.454 346.112 236.774 346.6 237.19 346.952C237.622 347.288 238.142 347.456 238.75 347.456ZM253.774 350.336C252.654 350.336 251.598 350.056 250.606 349.496C249.63 348.936 248.838 348.136 248.23 347.096C247.622 346.04 247.318 344.768 247.318 343.28C247.318 341.792 247.622 340.528 248.23 339.488C248.838 338.432 249.63 337.624 250.606 337.064C251.598 336.504 252.654 336.224 253.774 336.224C254.622 336.224 255.43 336.384 256.198 336.704C256.966 337.024 257.654 337.488 258.262 338.096C258.87 338.688 259.35 339.424 259.702 340.304C260.054 341.168 260.23 342.16 260.23 343.28C260.23 344.768 259.926 346.04 259.318 347.096C258.71 348.136 257.91 348.936 256.918 349.496C255.942 350.056 254.894 350.336 253.774 350.336ZM253.774 347.456C254.382 347.456 254.894 347.288 255.31 346.952C255.742 346.6 256.062 346.112 256.27 345.488C256.494 344.864 256.606 344.128 256.606 343.28C256.606 342.432 256.494 341.696 256.27 341.072C256.062 340.448 255.742 339.968 255.31 339.632C254.894 339.28 254.382 339.104 253.774 339.104C253.166 339.104 252.646 339.28 252.214 339.632C251.798 339.968 251.478 340.448 251.254 341.072C251.046 341.696 250.942 342.432 250.942 343.28C250.942 344.128 251.046 344.864 251.254 345.488C251.478 346.112 251.798 346.6 252.214 346.952C252.646 347.288 253.166 347.456 253.774 347.456ZM263.181 350V330.848H266.661V342.32H266.757L271.341 336.56H275.205L270.597 342.104L275.637 350H271.797L268.533 344.408L266.661 346.592V350H263.181ZM286.391 350.336C285.607 350.336 284.911 350.168 284.303 349.832C283.711 349.48 283.247 349 282.911 348.392C282.591 347.784 282.431 347.096 282.431 346.328C282.431 344.904 283.047 343.8 284.279 343.016C285.511 342.216 287.471 341.672 290.159 341.384C290.143 340.936 290.063 340.544 289.919 340.208C289.775 339.856 289.535 339.576 289.199 339.368C288.879 339.16 288.439 339.056 287.879 339.056C287.255 339.056 286.639 339.176 286.031 339.416C285.423 339.656 284.807 339.968 284.183 340.352L282.935 338C283.463 337.664 284.023 337.368 284.615 337.112C285.207 336.856 285.831 336.648 286.487 336.488C287.143 336.312 287.823 336.224 288.527 336.224C289.663 336.224 290.615 336.448 291.383 336.896C292.151 337.344 292.727 338.008 293.111 338.888C293.495 339.768 293.687 340.856 293.687 342.152V350H290.807L290.567 348.56H290.447C289.871 349.072 289.247 349.496 288.575 349.832C287.903 350.168 287.175 350.336 286.391 350.336ZM287.567 347.576C288.063 347.576 288.511 347.464 288.911 347.24C289.327 347 289.743 346.672 290.159 346.256V343.568C289.071 343.696 288.207 343.88 287.567 344.12C286.927 344.36 286.471 344.648 286.199 344.984C285.927 345.304 285.791 345.664 285.791 346.064C285.791 346.592 285.951 346.976 286.271 347.216C286.607 347.456 287.039 347.576 287.567 347.576ZM297.283 350V336.56H300.163L300.427 338.336H300.499C301.091 337.76 301.739 337.264 302.443 336.848C303.147 336.432 303.955 336.224 304.867 336.224C306.323 336.224 307.379 336.704 308.035 337.664C308.691 338.608 309.019 339.928 309.019 341.624V350H305.491V342.056C305.491 341.016 305.339 340.288 305.035 339.872C304.747 339.456 304.267 339.248 303.595 339.248C303.051 339.248 302.571 339.376 302.155 339.632C301.755 339.888 301.307 340.264 300.811 340.76V350H297.283ZM317.386 350.336C316.266 350.336 315.29 350.056 314.458 349.496C313.642 348.936 313.01 348.128 312.562 347.072C312.114 346.016 311.89 344.752 311.89 343.28C311.89 341.824 312.154 340.576 312.682 339.536C313.226 338.48 313.93 337.664 314.794 337.088C315.658 336.512 316.57 336.224 317.53 336.224C318.282 336.224 318.914 336.36 319.426 336.632C319.954 336.888 320.458 337.24 320.938 337.688L320.818 335.576V330.848H324.346V350H321.466L321.202 348.608H321.106C320.61 349.088 320.042 349.496 319.402 349.832C318.762 350.168 318.09 350.336 317.386 350.336ZM318.298 347.432C318.778 347.432 319.218 347.328 319.618 347.12C320.034 346.896 320.434 346.536 320.818 346.04V340.136C320.418 339.768 320.002 339.512 319.57 339.368C319.154 339.208 318.73 339.128 318.298 339.128C317.802 339.128 317.338 339.288 316.906 339.608C316.49 339.912 316.154 340.368 315.898 340.976C315.642 341.584 315.514 342.336 315.514 343.232C315.514 344.16 315.618 344.936 315.826 345.56C316.05 346.184 316.37 346.656 316.786 346.976C317.202 347.28 317.706 347.432 318.298 347.432ZM337.357 350V335.192H332.365V332.216H345.925V335.192H340.909V350H337.357ZM348.541 350V330.848H352.069V335.672L351.901 338.192C352.429 337.68 353.037 337.224 353.725 336.824C354.413 336.424 355.213 336.224 356.125 336.224C357.581 336.224 358.637 336.704 359.293 337.664C359.949 338.608 360.277 339.928 360.277 341.624V350H356.749V342.056C356.749 341.016 356.597 340.288 356.293 339.872C356.005 339.456 355.525 339.248 354.853 339.248C354.309 339.248 353.829 339.376 353.413 339.632C353.013 339.888 352.565 340.264 352.069 340.76V350H348.541ZM363.892 350V336.56H367.42V350H363.892ZM365.668 334.376C365.044 334.376 364.548 334.208 364.18 333.872C363.812 333.52 363.628 333.048 363.628 332.456C363.628 331.88 363.812 331.416 364.18 331.064C364.548 330.712 365.044 330.536 365.668 330.536C366.26 330.536 366.748 330.712 367.132 331.064C367.516 331.416 367.708 331.88 367.708 332.456C367.708 333.048 367.516 333.52 367.132 333.872C366.748 334.208 366.26 334.376 365.668 334.376ZM371.181 350V336.56H374.061L374.325 338.336H374.397C374.989 337.76 375.637 337.264 376.341 336.848C377.045 336.432 377.853 336.224 378.765 336.224C380.221 336.224 381.277 336.704 381.933 337.664C382.589 338.608 382.917 339.928 382.917 341.624V350H379.389V342.056C379.389 341.016 379.237 340.288 378.933 339.872C378.645 339.456 378.165 339.248 377.493 339.248C376.949 339.248 376.469 339.376 376.053 339.632C375.653 339.888 375.205 340.264 374.709 340.76V350H371.181ZM386.556 350V330.848H390.036V342.32H390.132L394.716 336.56H398.58L393.972 342.104L399.012 350H395.172L391.908 344.408L390.036 346.592V350H386.556Z" fill="white"/>
<!-- <ellipse cx="597" cy="330" rx="3" ry="3" transform="rotate(90 597 330)" fill="white"/>
<ellipse cx="597" cy="340" rx="3" ry="3" transform="rotate(90 597 340)" fill="white"/>
<ellipse cx="597" cy="350" rx="3" ry="3" transform="rotate(90 597 350)" fill="white"/> -->
<path d="M0 5C0 2.23858 2.23858 0 5 0H80L0 80V5Z" fill="#FF6D00"/>
<path d="M21.0177 34.308C20.1671 34.308 19.4044 34.2053 18.7297 34C18.0551 33.8093 17.4537 33.5453 16.9257 33.208C16.4124 32.856 15.9651 32.4673 15.5837 32.042L17.1017 29.996C17.6004 30.4507 18.1431 30.8467 18.7297 31.184C19.3311 31.5067 19.9984 31.668 20.7317 31.668C21.2891 31.668 21.7731 31.58 22.1837 31.404C22.6091 31.228 22.9317 30.9713 23.1517 30.634C23.3864 30.2967 23.5037 29.886 23.5037 29.402C23.5037 28.8593 23.3717 28.3973 23.1077 28.016C22.8584 27.62 22.4111 27.3193 21.7657 27.114C21.1204 26.9087 20.2111 26.806 19.0377 26.806V24.474C20.0351 24.474 20.8197 24.3713 21.3917 24.166C21.9637 23.946 22.3671 23.6527 22.6017 23.286C22.8511 22.9047 22.9757 22.472 22.9757 21.988C22.9757 21.3573 22.7851 20.866 22.4037 20.514C22.0224 20.1473 21.4871 19.964 20.7977 19.964C20.2257 19.964 19.6904 20.096 19.1917 20.36C18.7077 20.6093 18.2237 20.954 17.7397 21.394L16.0677 19.392C16.7864 18.7907 17.5417 18.314 18.3337 17.962C19.1257 17.5953 19.9984 17.412 20.9517 17.412C21.9931 17.412 22.9097 17.5807 23.7017 17.918C24.5084 18.2553 25.1317 18.7467 25.5717 19.392C26.0117 20.0373 26.2317 20.822 26.2317 21.746C26.2317 22.626 25.9971 23.3813 25.5277 24.012C25.0584 24.6427 24.3911 25.1267 23.5257 25.464V25.574C24.1271 25.7353 24.6697 25.9993 25.1537 26.366C25.6524 26.718 26.0411 27.1653 26.3197 27.708C26.6131 28.2507 26.7597 28.8813 26.7597 29.6C26.7597 30.5827 26.4957 31.426 25.9677 32.13C25.4544 32.834 24.7577 33.3767 23.8777 33.758C23.0124 34.1247 22.0591 34.308 21.0177 34.308Z" fill="white"/>
</g>
</g>
<defs>
<filter id="filter0_d_6874_64327" x="-7" y="-5" width="637" height="390" filterUnits="userSpaceOnUse" color-interpolation-filters="sRGB">
<feFlood flood-opacity="0" result="BackgroundImageFix"/>
<feColorMatrix in="SourceAlpha" type="matrix" values="0 0 0 0 0 0 0 0 0 0 0 0 0 0 0 0 0 0 127 0" result="hardAlpha"/>
<feOffset dx="3" dy="5"/>
<feGaussianBlur stdDeviation="5"/>
<feComposite in2="hardAlpha" operator="out"/>
<feColorMatrix type="matrix" values="0 0 0 0 0 0 0 0 0 0 0 0 0 0 0 0 0 0 0.05 0"/>
<feBlend mode="multiply" in2="BackgroundImageFix" result="effect1_dropShadow_6874_64327"/>
<feBlend mode="normal" in="SourceGraphic" in2="effect1_dropShadow_6874_64327" result="shape"/>
</filter>
<clipPath id="clip0_6874_64327">
<path d="M0 5C0 2.23857 2.23858 0 5 0H612C614.761 0 617 2.23858 617 5V365C617 367.761 614.761 370 612 370H5C2.23858 370 0 367.761 0 365V5Z" fill="white"/>
</clipPath>
</defs>
</svg>
