<svg width="635" height="439" viewBox="0 0 635 439" fill="none" xmlns="http://www.w3.org/2000/svg">
<g filter="url(#filter0_d_6874_65058)">
<g clip-path="url(#clip0_6874_65058)">
<path d="M0 4.99999C0 2.23856 2.23858 0 5 0H630C632.761 0 635 2.23858 635 5V434C635 436.761 632.761 439 630 439H5C2.23857 439 0 436.761 0 434V4.99999Z" fill="#F89F45"/>
<path d="M279.846 221.036C278.966 221.036 277.932 221.52 277.184 222.752C277.492 225.722 278.592 226.866 279.956 226.866C281.166 226.866 282.178 225.854 282.178 223.852C282.178 221.938 281.254 221.036 279.846 221.036ZM280.022 229.308C276.92 229.308 274.17 226.822 274.17 221.08C274.17 215.008 277.184 212.412 280.462 212.412C282.464 212.412 283.894 213.248 284.884 214.26L283.168 216.196C282.596 215.536 281.606 215.008 280.66 215.008C278.79 215.008 277.25 216.416 277.118 220.508C277.998 219.408 279.406 218.748 280.462 218.748C283.19 218.748 285.126 220.376 285.126 223.852C285.126 227.196 282.794 229.308 280.022 229.308ZM292.053 229.308C289.479 229.308 287.741 228.34 286.597 227.042L288.115 224.996C289.083 225.942 290.271 226.668 291.745 226.668C293.395 226.668 294.517 225.854 294.517 224.38C294.517 222.796 293.571 221.784 290.029 221.784V219.474C293.021 219.474 293.989 218.44 293.989 216.988C293.989 215.712 293.197 214.964 291.811 214.964C290.645 214.964 289.699 215.492 288.731 216.394L287.081 214.414C288.489 213.182 290.051 212.412 291.965 212.412C295.111 212.412 297.245 213.974 297.245 216.746C297.245 218.506 296.255 219.782 294.539 220.464V220.574C296.365 221.08 297.773 222.444 297.773 224.578C297.773 227.57 295.155 229.308 292.053 229.308ZM305.052 229.308C302.478 229.308 300.762 228.296 299.552 227.086L301.048 225.018C301.972 225.92 303.116 226.668 304.634 226.668C306.328 226.668 307.516 225.59 307.516 223.676C307.516 221.784 306.416 220.728 304.766 220.728C303.798 220.728 303.27 220.97 302.324 221.586L300.85 220.618L301.29 212.698H310.002V215.426H304.084L303.776 218.88C304.436 218.572 304.986 218.418 305.734 218.418C308.462 218.418 310.75 220.046 310.75 223.588C310.75 227.218 308.066 229.308 305.052 229.308ZM315.566 219.804L314.18 218.792L315.632 216.284L313.014 215.118L313.542 213.49L316.358 214.106L316.644 211.224H318.382L318.646 214.128L321.462 213.49L321.99 215.118L319.35 216.284L320.846 218.792L319.438 219.804L317.502 217.604L315.566 219.804ZM326.672 222.312H330.478V218.99C330.478 218.044 330.544 216.57 330.588 215.602H330.5C330.104 216.482 329.664 217.384 329.202 218.264L326.672 222.312ZM330.478 229V224.776H323.526V222.576L329.598 212.698H333.492V222.312H335.406V224.776H333.492V229H330.478ZM342.048 229.308C339.474 229.308 337.736 228.34 336.592 227.042L338.11 224.996C339.078 225.942 340.266 226.668 341.74 226.668C343.39 226.668 344.512 225.854 344.512 224.38C344.512 222.796 343.566 221.784 340.024 221.784V219.474C343.016 219.474 343.984 218.44 343.984 216.988C343.984 215.712 343.192 214.964 341.806 214.964C340.64 214.964 339.694 215.492 338.726 216.394L337.076 214.414C338.484 213.182 340.046 212.412 341.96 212.412C345.106 212.412 347.24 213.974 347.24 216.746C347.24 218.506 346.25 219.782 344.534 220.464V220.574C346.36 221.08 347.768 222.444 347.768 224.578C347.768 227.57 345.15 229.308 342.048 229.308ZM352.825 217.846C352.825 219.76 353.727 220.662 355.135 220.662C356.037 220.662 357.071 220.156 357.819 218.902C357.533 215.954 356.411 214.854 355.025 214.854C353.815 214.854 352.825 215.844 352.825 217.846ZM354.585 229.308C352.561 229.308 351.087 228.45 350.119 227.46L351.835 225.502C352.429 226.162 353.419 226.668 354.387 226.668C356.213 226.668 357.709 225.282 357.863 221.212C357.005 222.312 355.619 222.972 354.519 222.972C351.813 222.972 349.855 221.3 349.855 217.846C349.855 214.502 352.187 212.412 354.981 212.412C358.061 212.412 360.833 214.832 360.833 220.486C360.833 226.646 357.819 229.308 354.585 229.308Z" fill="black"/>
<rect width="635" height="60" transform="translate(0 379)" fill="#171717" fill-opacity="0.65"/>
<path d="M241.321 419V401.216H244.873V416.024H252.097V419H241.321ZM260.032 419.336C258.912 419.336 257.856 419.056 256.864 418.496C255.888 417.936 255.096 417.136 254.488 416.096C253.88 415.04 253.576 413.768 253.576 412.28C253.576 410.792 253.88 409.528 254.488 408.488C255.096 407.432 255.888 406.624 256.864 406.064C257.856 405.504 258.912 405.224 260.032 405.224C260.88 405.224 261.688 405.384 262.456 405.704C263.224 406.024 263.912 406.488 264.52 407.096C265.128 407.688 265.608 408.424 265.96 409.304C266.312 410.168 266.488 411.16 266.488 412.28C266.488 413.768 266.184 415.04 265.576 416.096C264.968 417.136 264.168 417.936 263.176 418.496C262.2 419.056 261.152 419.336 260.032 419.336ZM260.032 416.456C260.64 416.456 261.152 416.288 261.568 415.952C262 415.6 262.32 415.112 262.528 414.488C262.752 413.864 262.864 413.128 262.864 412.28C262.864 411.432 262.752 410.696 262.528 410.072C262.32 409.448 262 408.968 261.568 408.632C261.152 408.28 260.64 408.104 260.032 408.104C259.424 408.104 258.904 408.28 258.472 408.632C258.056 408.968 257.736 409.448 257.512 410.072C257.304 410.696 257.2 411.432 257.2 412.28C257.2 413.128 257.304 413.864 257.512 414.488C257.736 415.112 258.056 415.6 258.472 415.952C258.904 416.288 259.424 416.456 260.032 416.456ZM275.055 419.336C273.935 419.336 272.879 419.056 271.887 418.496C270.911 417.936 270.119 417.136 269.511 416.096C268.903 415.04 268.599 413.768 268.599 412.28C268.599 410.792 268.903 409.528 269.511 408.488C270.119 407.432 270.911 406.624 271.887 406.064C272.879 405.504 273.935 405.224 275.055 405.224C275.903 405.224 276.711 405.384 277.479 405.704C278.247 406.024 278.935 406.488 279.543 407.096C280.151 407.688 280.631 408.424 280.983 409.304C281.335 410.168 281.511 411.16 281.511 412.28C281.511 413.768 281.207 415.04 280.599 416.096C279.991 417.136 279.191 417.936 278.199 418.496C277.223 419.056 276.175 419.336 275.055 419.336ZM275.055 416.456C275.663 416.456 276.175 416.288 276.591 415.952C277.023 415.6 277.343 415.112 277.551 414.488C277.775 413.864 277.887 413.128 277.887 412.28C277.887 411.432 277.775 410.696 277.551 410.072C277.343 409.448 277.023 408.968 276.591 408.632C276.175 408.28 275.663 408.104 275.055 408.104C274.447 408.104 273.927 408.28 273.495 408.632C273.079 408.968 272.759 409.448 272.535 410.072C272.327 410.696 272.223 411.432 272.223 412.28C272.223 413.128 272.327 413.864 272.535 414.488C272.759 415.112 273.079 415.6 273.495 415.952C273.927 416.288 274.447 416.456 275.055 416.456ZM284.462 419V399.848H287.942V411.32H288.038L292.622 405.56H296.486L291.878 411.104L296.918 419H293.078L289.814 413.408L287.942 415.592V419H284.462ZM307.672 419.336C306.888 419.336 306.192 419.168 305.584 418.832C304.992 418.48 304.528 418 304.192 417.392C303.872 416.784 303.712 416.096 303.712 415.328C303.712 413.904 304.328 412.8 305.56 412.016C306.792 411.216 308.752 410.672 311.44 410.384C311.424 409.936 311.344 409.544 311.2 409.208C311.056 408.856 310.816 408.576 310.48 408.368C310.16 408.16 309.72 408.056 309.16 408.056C308.536 408.056 307.92 408.176 307.312 408.416C306.704 408.656 306.088 408.968 305.464 409.352L304.216 407C304.744 406.664 305.304 406.368 305.896 406.112C306.488 405.856 307.112 405.648 307.768 405.488C308.424 405.312 309.104 405.224 309.808 405.224C310.944 405.224 311.896 405.448 312.664 405.896C313.432 406.344 314.008 407.008 314.392 407.888C314.776 408.768 314.968 409.856 314.968 411.152V419H312.088L311.848 417.56H311.728C311.152 418.072 310.528 418.496 309.856 418.832C309.184 419.168 308.456 419.336 307.672 419.336ZM308.848 416.576C309.344 416.576 309.792 416.464 310.192 416.24C310.608 416 311.024 415.672 311.44 415.256V412.568C310.352 412.696 309.488 412.88 308.848 413.12C308.208 413.36 307.752 413.648 307.48 413.984C307.208 414.304 307.072 414.664 307.072 415.064C307.072 415.592 307.232 415.976 307.552 416.216C307.888 416.456 308.32 416.576 308.848 416.576ZM318.564 419V405.56H321.444L321.708 407.336H321.78C322.372 406.76 323.02 406.264 323.724 405.848C324.428 405.432 325.236 405.224 326.148 405.224C327.604 405.224 328.66 405.704 329.316 406.664C329.972 407.608 330.3 408.928 330.3 410.624V419H326.772V411.056C326.772 410.016 326.62 409.288 326.316 408.872C326.028 408.456 325.548 408.248 324.876 408.248C324.332 408.248 323.852 408.376 323.436 408.632C323.036 408.888 322.588 409.264 322.092 409.76V419H318.564ZM338.667 419.336C337.547 419.336 336.571 419.056 335.739 418.496C334.923 417.936 334.291 417.128 333.843 416.072C333.395 415.016 333.171 413.752 333.171 412.28C333.171 410.824 333.435 409.576 333.963 408.536C334.507 407.48 335.211 406.664 336.075 406.088C336.939 405.512 337.851 405.224 338.811 405.224C339.563 405.224 340.195 405.36 340.707 405.632C341.235 405.888 341.739 406.24 342.219 406.688L342.099 404.576V399.848H345.627V419H342.747L342.483 417.608H342.387C341.891 418.088 341.323 418.496 340.683 418.832C340.043 419.168 339.371 419.336 338.667 419.336ZM339.579 416.432C340.059 416.432 340.499 416.328 340.899 416.12C341.315 415.896 341.715 415.536 342.099 415.04V409.136C341.699 408.768 341.283 408.512 340.851 408.368C340.435 408.208 340.011 408.128 339.579 408.128C339.083 408.128 338.619 408.288 338.187 408.608C337.771 408.912 337.435 409.368 337.179 409.976C336.923 410.584 336.795 411.336 336.795 412.232C336.795 413.16 336.899 413.936 337.107 414.56C337.331 415.184 337.651 415.656 338.067 415.976C338.483 416.28 338.987 416.432 339.579 416.432ZM360.414 419.336C359.23 419.336 358.07 419.112 356.934 418.664C355.798 418.216 354.798 417.576 353.934 416.744L355.974 414.296C356.598 414.888 357.31 415.368 358.11 415.736C358.926 416.088 359.718 416.264 360.486 416.264C361.414 416.264 362.118 416.08 362.598 415.712C363.078 415.344 363.318 414.848 363.318 414.224C363.318 413.776 363.198 413.424 362.958 413.168C362.734 412.896 362.422 412.656 362.022 412.448C361.622 412.24 361.158 412.032 360.63 411.824L358.278 410.792C357.686 410.552 357.11 410.232 356.55 409.832C356.006 409.416 355.55 408.896 355.182 408.272C354.83 407.648 354.654 406.904 354.654 406.04C354.654 405.064 354.918 404.192 355.446 403.424C355.974 402.656 356.702 402.048 357.63 401.6C358.558 401.136 359.614 400.904 360.798 400.904C361.854 400.904 362.87 401.104 363.846 401.504C364.822 401.904 365.67 402.472 366.39 403.208L364.59 405.416C364.03 404.952 363.446 404.592 362.838 404.336C362.23 404.08 361.55 403.952 360.798 403.952C360.03 403.952 359.414 404.12 358.95 404.456C358.502 404.776 358.278 405.232 358.278 405.824C358.278 406.24 358.406 406.584 358.662 406.856C358.918 407.128 359.254 407.368 359.67 407.576C360.086 407.768 360.542 407.968 361.038 408.176L363.366 409.112C364.086 409.4 364.71 409.76 365.238 410.192C365.782 410.624 366.198 411.144 366.486 411.752C366.79 412.36 366.942 413.096 366.942 413.96C366.942 414.92 366.678 415.808 366.15 416.624C365.638 417.44 364.894 418.096 363.918 418.592C362.958 419.088 361.79 419.336 360.414 419.336ZM373.086 419.336C372.302 419.336 371.606 419.168 370.998 418.832C370.406 418.48 369.942 418 369.606 417.392C369.286 416.784 369.126 416.096 369.126 415.328C369.126 413.904 369.742 412.8 370.974 412.016C372.206 411.216 374.166 410.672 376.854 410.384C376.838 409.936 376.758 409.544 376.614 409.208C376.47 408.856 376.23 408.576 375.894 408.368C375.574 408.16 375.134 408.056 374.574 408.056C373.95 408.056 373.334 408.176 372.726 408.416C372.118 408.656 371.502 408.968 370.878 409.352L369.63 407C370.158 406.664 370.718 406.368 371.31 406.112C371.902 405.856 372.526 405.648 373.182 405.488C373.838 405.312 374.518 405.224 375.222 405.224C376.358 405.224 377.31 405.448 378.078 405.896C378.846 406.344 379.422 407.008 379.806 407.888C380.19 408.768 380.382 409.856 380.382 411.152V419H377.502L377.262 417.56H377.142C376.566 418.072 375.942 418.496 375.27 418.832C374.598 419.168 373.87 419.336 373.086 419.336ZM374.262 416.576C374.758 416.576 375.206 416.464 375.606 416.24C376.022 416 376.438 415.672 376.854 415.256V412.568C375.766 412.696 374.902 412.88 374.262 413.12C373.622 413.36 373.166 413.648 372.894 413.984C372.622 414.304 372.486 414.664 372.486 415.064C372.486 415.592 372.646 415.976 372.966 416.216C373.302 416.456 373.734 416.576 374.262 416.576ZM385.154 424.376C384.754 424.376 384.41 424.352 384.122 424.304C383.834 424.256 383.562 424.192 383.306 424.112L383.954 421.424C384.082 421.456 384.226 421.488 384.386 421.52C384.562 421.568 384.73 421.592 384.89 421.592C385.578 421.592 386.122 421.4 386.522 421.016C386.922 420.632 387.218 420.144 387.41 419.552L387.65 418.736L382.418 405.56H385.97L388.106 411.8C388.314 412.408 388.506 413.032 388.682 413.672C388.858 414.312 389.042 414.952 389.234 415.592H389.354C389.498 414.952 389.65 414.32 389.81 413.696C389.986 413.056 390.154 412.424 390.314 411.8L392.162 405.56H395.546L390.77 419.408C390.386 420.464 389.946 421.36 389.45 422.096C388.954 422.848 388.362 423.416 387.674 423.8C387.002 424.184 386.162 424.376 385.154 424.376Z" fill="white"/>
<!-- <ellipse cx="615" cy="399" rx="3" ry="3" transform="rotate(90 615 399)" fill="white"/>
<ellipse cx="615" cy="409" rx="3" ry="3" transform="rotate(90 615 409)" fill="white"/>
<ellipse cx="615" cy="419" rx="3" ry="3" transform="rotate(90 615 419)" fill="white"/> -->
<path d="M0 5C0 2.23858 2.23858 0 5 0H80L0 80V5Z" fill="#FF6D00"/>
<path d="M16.8157 34V31.36H20.3357V21.086H17.3657V19.062C18.1871 18.9153 18.8911 18.7393 19.4777 18.534C20.0791 18.314 20.6364 18.0353 21.1497 17.698H23.5477V31.36H26.6057V34H16.8157Z" fill="white"/>
</g>
</g>
<defs>
<filter id="filter0_d_6874_65058" x="-7" y="-5" width="655" height="459" filterUnits="userSpaceOnUse" color-interpolation-filters="sRGB">
<feFlood flood-opacity="0" result="BackgroundImageFix"/>
<feColorMatrix in="SourceAlpha" type="matrix" values="0 0 0 0 0 0 0 0 0 0 0 0 0 0 0 0 0 0 127 0" result="hardAlpha"/>
<feOffset dx="3" dy="5"/>
<feGaussianBlur stdDeviation="5"/>
<feComposite in2="hardAlpha" operator="out"/>
<feColorMatrix type="matrix" values="0 0 0 0 0 0 0 0 0 0 0 0 0 0 0 0 0 0 0.05 0"/>
<feBlend mode="multiply" in2="BackgroundImageFix" result="effect1_dropShadow_6874_65058"/>
<feBlend mode="normal" in="SourceGraphic" in2="effect1_dropShadow_6874_65058" result="shape"/>
</filter>
<clipPath id="clip0_6874_65058">
<path d="M0 4.99999C0 2.23856 2.23858 0 5 0H630C632.761 0 635 2.23858 635 5V434C635 436.761 632.761 439 630 439H5C2.23857 439 0 436.761 0 434V4.99999Z" fill="white"/>
</clipPath>
</defs>
</svg>
