<svg width="380" height="190" viewBox="0 0 380 190" fill="none" xmlns="http://www.w3.org/2000/svg">
<g filter="url(#filter0_d_7528_193597)">
<path d="M0 5C0 2.23858 2.23858 0 5 0H375C377.761 0 380 2.23858 380 5V185C380 187.761 377.761 190 375 190H5C2.23858 190 0 187.761 0 185V5Z" fill="#42C5B1" shape-rendering="crispEdges"/>
<path d="M0 5C0 2.23858 2.23858 0 5 0H80L0 80V5Z" fill="#FF6D00"/>
<path d="M15.9685 34V32.13C20.3905 28.17 23.0085 25.112 23.0085 22.604C23.0085 20.954 22.1285 19.964 20.5665 19.964C19.3785 19.964 18.4105 20.734 17.5745 21.636L15.8145 19.876C17.3105 18.27 18.7625 17.412 20.9845 17.412C24.0645 17.412 26.1105 19.392 26.1105 22.428C26.1105 25.376 23.6685 28.544 20.6985 31.448C21.5125 31.36 22.5905 31.272 23.3605 31.272H26.8805V34H15.9685Z" fill="white"/>
<!-- <ellipse cx="360" cy="150" rx="3" ry="3" transform="rotate(90 360 150)" fill="white"/>
<ellipse cx="360" cy="160" rx="3" ry="3" transform="rotate(90 360 160)" fill="white"/>
<ellipse cx="360" cy="170" rx="3" ry="3" transform="rotate(90 360 170)" fill="white"/> -->
<g clip-path="url(#clip0_7528_193597)">
<path d="M201.803 65.5566C202.51 66.2986 202.51 67.5037 201.803 68.2458L187.329 83.4434C186.622 84.1855 185.474 84.1855 184.767 83.4434L177.53 75.8446C176.823 75.1026 176.823 73.8974 177.53 73.1554C178.237 72.4133 179.385 72.4133 180.091 73.1554L186.051 79.4066L199.248 65.5566C199.954 64.8145 201.102 64.8145 201.809 65.5566H201.803Z" fill="white"/>
</g>
<path d="M122.783 131V111.734H126.631V127.776H134.457V131H122.783ZM143.465 131.364C139.383 131.364 136.211 128.53 136.211 123.72C136.211 119.014 139.539 116.076 142.997 116.076C147.001 116.076 149.081 119.014 149.081 123.018C149.081 123.746 149.003 124.448 148.899 124.786H139.929C140.241 127.178 141.801 128.426 143.959 128.426C145.155 128.426 146.195 128.062 147.235 127.412L148.535 129.752C147.105 130.74 145.259 131.364 143.465 131.364ZM139.877 122.238H145.805C145.805 120.288 144.921 119.04 143.049 119.04C141.515 119.04 140.163 120.132 139.877 122.238ZM157.254 131.364C153.796 131.364 152.47 129.154 152.47 125.904V119.456H150.416V116.622L152.678 116.44L153.12 112.514H156.292V116.44H159.88V119.456H156.292V125.904C156.292 127.568 156.968 128.348 158.268 128.348C158.736 128.348 159.308 128.192 159.698 128.036L160.322 130.818C159.542 131.078 158.528 131.364 157.254 131.364ZM163.7 119.976L162.816 118.312C164.506 117.376 165.364 116.284 165.364 114.594C165.26 114.62 165.182 114.62 165.078 114.62C163.96 114.62 162.998 113.866 162.998 112.618C162.998 111.292 163.882 110.434 165.078 110.434C166.716 110.434 167.6 111.734 167.6 113.944C167.6 116.622 166.3 118.65 163.7 119.976ZM174.289 131.364C172.339 131.364 170.207 130.506 168.751 129.31L170.493 126.918C171.793 127.932 173.041 128.504 174.393 128.504C175.849 128.504 176.499 127.88 176.499 126.97C176.499 125.878 174.991 125.384 173.457 124.786C171.611 124.084 169.557 122.966 169.557 120.522C169.557 117.922 171.663 116.076 174.991 116.076C177.097 116.076 178.735 116.96 179.931 117.87L178.215 120.184C177.175 119.43 176.161 118.936 175.095 118.936C173.769 118.936 173.145 119.508 173.145 120.34C173.145 121.406 174.497 121.796 176.031 122.368C177.955 123.096 180.087 124.058 180.087 126.762C180.087 129.31 178.085 131.364 174.289 131.364ZM189.205 131V111.734H193.053V127.776H200.879V131H189.205ZM209.887 131.364C205.805 131.364 202.633 128.53 202.633 123.72C202.633 119.014 205.961 116.076 209.419 116.076C213.423 116.076 215.503 119.014 215.503 123.018C215.503 123.746 215.425 124.448 215.321 124.786H206.351C206.663 127.178 208.223 128.426 210.381 128.426C211.577 128.426 212.617 128.062 213.657 127.412L214.957 129.752C213.527 130.74 211.681 131.364 209.887 131.364ZM206.299 122.238H212.227C212.227 120.288 211.343 119.04 209.471 119.04C207.937 119.04 206.585 120.132 206.299 122.238ZM221.883 131.364C219.283 131.364 217.567 129.518 217.567 127.048C217.567 123.928 220.089 122.29 225.965 121.666C225.887 120.236 225.263 119.144 223.469 119.144C222.117 119.144 220.817 119.742 219.465 120.522L218.087 118C219.803 116.934 221.883 116.076 224.171 116.076C227.863 116.076 229.761 118.286 229.761 122.498V131H226.641L226.381 129.44H226.277C225.003 130.532 223.547 131.364 221.883 131.364ZM223.131 128.374C224.223 128.374 225.029 127.854 225.965 126.944V124.006C222.403 124.448 221.207 125.436 221.207 126.736C221.207 127.88 222.013 128.374 223.131 128.374ZM233.657 131V116.44H236.777L237.063 119.014H237.141C238.207 117.116 239.767 116.076 241.275 116.076C242.081 116.076 242.549 116.206 242.991 116.388L242.341 119.69C241.821 119.534 241.405 119.456 240.807 119.456C239.663 119.456 238.285 120.21 237.479 122.316V131H233.657ZM244.981 131V116.44H248.101L248.387 118.364H248.465C249.739 117.116 251.221 116.076 253.197 116.076C256.343 116.076 257.695 118.26 257.695 121.926V131H253.873V122.394C253.873 120.132 253.249 119.352 251.819 119.352C250.623 119.352 249.869 119.924 248.803 120.99V131H244.981Z" fill="white"/>
</g>
<defs>
<filter id="filter0_d_7528_193597" x="-7" y="-5" width="400" height="210" filterUnits="userSpaceOnUse" color-interpolation-filters="sRGB">
<feFlood flood-opacity="0" result="BackgroundImageFix"/>
<feColorMatrix in="SourceAlpha" type="matrix" values="0 0 0 0 0 0 0 0 0 0 0 0 0 0 0 0 0 0 127 0" result="hardAlpha"/>
<feOffset dx="3" dy="5"/>
<feGaussianBlur stdDeviation="5"/>
<feComposite in2="hardAlpha" operator="out"/>
<feColorMatrix type="matrix" values="0 0 0 0 0 0 0 0 0 0 0 0 0 0 0 0 0 0 0.05 0"/>
<feBlend mode="multiply" in2="BackgroundImageFix" result="effect1_dropShadow_7528_193597"/>
<feBlend mode="normal" in="SourceGraphic" in2="effect1_dropShadow_7528_193597" result="shape"/>
</filter>
<clipPath id="clip0_7528_193597">
<rect x="170" y="54" width="40" height="40" rx="20" fill="white"/>
</clipPath>
</defs>
</svg>
