<svg width="706" height="370" viewBox="0 0 706 370" fill="none" xmlns="http://www.w3.org/2000/svg">
<g filter="url(#filter0_d_6874_65128)">
<g clip-path="url(#clip0_6874_65128)">
<path d="M0 5C0 2.23857 2.23858 0 5 0H701C703.761 0 706 2.23858 706 5V365C706 367.761 703.761 370 701 370H5.00001C2.23858 370 0 367.761 0 365V5Z" fill="#FFD44E"/>
<path d="M0 5C0 2.23858 2.23858 0 5 0H80L0 80V5Z" fill="#FF6D00"/>
<path d="M21.0177 34.308C20.1671 34.308 19.4044 34.2053 18.7297 34C18.0551 33.8093 17.4537 33.5453 16.9257 33.208C16.4124 32.856 15.9651 32.4673 15.5837 32.042L17.1017 29.996C17.6004 30.4507 18.1431 30.8467 18.7297 31.184C19.3311 31.5067 19.9984 31.668 20.7317 31.668C21.2891 31.668 21.7731 31.58 22.1837 31.404C22.6091 31.228 22.9317 30.9713 23.1517 30.634C23.3864 30.2967 23.5037 29.886 23.5037 29.402C23.5037 28.8593 23.3717 28.3973 23.1077 28.016C22.8584 27.62 22.4111 27.3193 21.7657 27.114C21.1204 26.9087 20.2111 26.806 19.0377 26.806V24.474C20.0351 24.474 20.8197 24.3713 21.3917 24.166C21.9637 23.946 22.3671 23.6527 22.6017 23.286C22.8511 22.9047 22.9757 22.472 22.9757 21.988C22.9757 21.3573 22.7851 20.866 22.4037 20.514C22.0224 20.1473 21.4871 19.964 20.7977 19.964C20.2257 19.964 19.6904 20.096 19.1917 20.36C18.7077 20.6093 18.2237 20.954 17.7397 21.394L16.0677 19.392C16.7864 18.7907 17.5417 18.314 18.3337 17.962C19.1257 17.5953 19.9984 17.412 20.9517 17.412C21.9931 17.412 22.9097 17.5807 23.7017 17.918C24.5084 18.2553 25.1317 18.7467 25.5717 19.392C26.0117 20.0373 26.2317 20.822 26.2317 21.746C26.2317 22.626 25.9971 23.3813 25.5277 24.012C25.0584 24.6427 24.3911 25.1267 23.5257 25.464V25.574C24.1271 25.7353 24.6697 25.9993 25.1537 26.366C25.6524 26.718 26.0411 27.1653 26.3197 27.708C26.6131 28.2507 26.7597 28.8813 26.7597 29.6C26.7597 30.5827 26.4957 31.426 25.9677 32.13C25.4544 32.834 24.7577 33.3767 23.8777 33.758C23.0124 34.1247 22.0591 34.308 21.0177 34.308Z" fill="white"/>
<rect width="706" height="60" transform="translate(0 310)" fill="#171717" fill-opacity="0.65"/>
<path d="M249.24 350L254.928 332.216H259.128L264.816 350H261.072L258.552 340.736C258.28 339.808 258.016 338.848 257.76 337.856C257.52 336.848 257.264 335.872 256.992 334.928H256.896C256.672 335.888 256.424 336.864 256.152 337.856C255.896 338.848 255.64 339.808 255.384 340.736L252.84 350H249.24ZM252.768 345.44V342.68H261.216V345.44H252.768ZM266.607 350V336.56H269.487L269.751 338.936H269.823C270.319 338.056 270.903 337.384 271.575 336.92C272.247 336.456 272.935 336.224 273.639 336.224C274.023 336.224 274.327 336.256 274.551 336.32C274.791 336.368 275.007 336.432 275.199 336.512L274.623 339.56C274.367 339.496 274.135 339.448 273.927 339.416C273.735 339.368 273.487 339.344 273.183 339.344C272.671 339.344 272.127 339.544 271.551 339.944C270.991 340.344 270.519 341.024 270.135 341.984V350H266.607ZM282.301 350.336C281.181 350.336 280.125 350.056 279.133 349.496C278.157 348.936 277.365 348.136 276.757 347.096C276.149 346.04 275.845 344.768 275.845 343.28C275.845 341.792 276.149 340.528 276.757 339.488C277.365 338.432 278.157 337.624 279.133 337.064C280.125 336.504 281.181 336.224 282.301 336.224C283.149 336.224 283.957 336.384 284.725 336.704C285.493 337.024 286.181 337.488 286.789 338.096C287.397 338.688 287.877 339.424 288.229 340.304C288.581 341.168 288.757 342.16 288.757 343.28C288.757 344.768 288.453 346.04 287.845 347.096C287.237 348.136 286.437 348.936 285.445 349.496C284.469 350.056 283.421 350.336 282.301 350.336ZM282.301 347.456C282.909 347.456 283.421 347.288 283.837 346.952C284.269 346.6 284.589 346.112 284.797 345.488C285.021 344.864 285.133 344.128 285.133 343.28C285.133 342.432 285.021 341.696 284.797 341.072C284.589 340.448 284.269 339.968 283.837 339.632C283.421 339.28 282.909 339.104 282.301 339.104C281.693 339.104 281.173 339.28 280.741 339.632C280.325 339.968 280.005 340.448 279.781 341.072C279.573 341.696 279.469 342.432 279.469 343.28C279.469 344.128 279.573 344.864 279.781 345.488C280.005 346.112 280.325 346.6 280.741 346.952C281.173 347.288 281.693 347.456 282.301 347.456ZM295.717 350.336C294.261 350.336 293.205 349.864 292.549 348.92C291.893 347.96 291.565 346.632 291.565 344.936V336.56H295.069V344.504C295.069 345.544 295.221 346.272 295.525 346.688C295.829 347.104 296.317 347.312 296.989 347.312C297.533 347.312 298.005 347.184 298.405 346.928C298.821 346.656 299.253 346.224 299.701 345.632V336.56H303.229V350H300.349L300.085 348.056H299.989C299.413 348.744 298.789 349.296 298.117 349.712C297.445 350.128 296.645 350.336 295.717 350.336ZM306.99 350V336.56H309.87L310.134 338.336H310.206C310.798 337.76 311.446 337.264 312.15 336.848C312.854 336.432 313.662 336.224 314.574 336.224C316.03 336.224 317.086 336.704 317.742 337.664C318.398 338.608 318.726 339.928 318.726 341.624V350H315.198V342.056C315.198 341.016 315.046 340.288 314.742 339.872C314.454 339.456 313.974 339.248 313.302 339.248C312.758 339.248 312.278 339.376 311.862 339.632C311.462 339.888 311.014 340.264 310.518 340.76V350H306.99ZM327.093 350.336C325.973 350.336 324.997 350.056 324.165 349.496C323.349 348.936 322.717 348.128 322.269 347.072C321.821 346.016 321.597 344.752 321.597 343.28C321.597 341.824 321.861 340.576 322.389 339.536C322.933 338.48 323.637 337.664 324.501 337.088C325.365 336.512 326.277 336.224 327.237 336.224C327.989 336.224 328.621 336.36 329.133 336.632C329.661 336.888 330.165 337.24 330.645 337.688L330.525 335.576V330.848H334.053V350H331.173L330.909 348.608H330.813C330.317 349.088 329.749 349.496 329.109 349.832C328.469 350.168 327.797 350.336 327.093 350.336ZM328.005 347.432C328.485 347.432 328.925 347.328 329.325 347.12C329.741 346.896 330.141 346.536 330.525 346.04V340.136C330.125 339.768 329.709 339.512 329.277 339.368C328.861 339.208 328.437 339.128 328.005 339.128C327.509 339.128 327.045 339.288 326.613 339.608C326.197 339.912 325.861 340.368 325.605 340.976C325.349 341.584 325.221 342.336 325.221 343.232C325.221 344.16 325.325 344.936 325.533 345.56C325.757 346.184 326.077 346.656 326.493 346.976C326.909 347.28 327.413 347.432 328.005 347.432ZM348.168 350.336C347.112 350.336 346.256 350.128 345.6 349.712C344.944 349.28 344.472 348.688 344.184 347.936C343.896 347.184 343.752 346.312 343.752 345.32V339.344H341.856V336.728L343.944 336.56L344.352 332.936H347.256V336.56H350.592V339.344H347.256V345.296C347.256 346.064 347.416 346.632 347.736 347C348.056 347.368 348.512 347.552 349.104 347.552C349.328 347.552 349.56 347.52 349.8 347.456C350.04 347.392 350.248 347.328 350.424 347.264L351.024 349.832C350.656 349.944 350.232 350.056 349.752 350.168C349.288 350.28 348.76 350.336 348.168 350.336ZM353.349 350V330.848H356.877V335.672L356.709 338.192C357.237 337.68 357.845 337.224 358.533 336.824C359.221 336.424 360.021 336.224 360.933 336.224C362.389 336.224 363.445 336.704 364.101 337.664C364.757 338.608 365.085 339.928 365.085 341.624V350H361.557V342.056C361.557 341.016 361.405 340.288 361.101 339.872C360.813 339.456 360.333 339.248 359.661 339.248C359.117 339.248 358.637 339.376 358.221 339.632C357.821 339.888 357.373 340.264 356.877 340.76V350H353.349ZM374.557 350.336C373.309 350.336 372.181 350.056 371.173 349.496C370.165 348.936 369.357 348.128 368.749 347.072C368.157 346.016 367.861 344.752 367.861 343.28C367.861 342.192 368.029 341.216 368.365 340.352C368.717 339.488 369.189 338.752 369.781 338.144C370.389 337.52 371.061 337.048 371.797 336.728C372.549 336.392 373.325 336.224 374.125 336.224C375.357 336.224 376.389 336.504 377.221 337.064C378.053 337.608 378.677 338.368 379.093 339.344C379.525 340.304 379.741 341.408 379.741 342.656C379.741 342.976 379.725 343.288 379.693 343.592C379.661 343.88 379.621 344.112 379.573 344.288H371.293C371.389 345.008 371.605 345.616 371.941 346.112C372.277 346.608 372.709 346.984 373.237 347.24C373.765 347.48 374.365 347.6 375.037 347.6C375.581 347.6 376.093 347.528 376.573 347.384C377.053 347.224 377.541 346.992 378.037 346.688L379.237 348.848C378.581 349.296 377.845 349.656 377.029 349.928C376.213 350.2 375.389 350.336 374.557 350.336ZM371.221 341.912H376.717C376.717 341.016 376.509 340.304 376.093 339.776C375.693 339.232 375.053 338.96 374.173 338.96C373.709 338.96 373.269 339.072 372.853 339.296C372.437 339.504 372.085 339.832 371.797 340.28C371.509 340.712 371.317 341.256 371.221 341.912ZM390.052 350L386.644 332.216H390.268L391.636 340.904C391.796 341.832 391.94 342.768 392.068 343.712C392.212 344.656 392.348 345.608 392.476 346.568H392.572C392.764 345.608 392.956 344.656 393.148 343.712C393.34 342.768 393.524 341.832 393.7 340.904L395.74 332.216H398.788L400.852 340.904C401.044 341.816 401.228 342.752 401.404 343.712C401.596 344.656 401.788 345.608 401.98 346.568H402.1C402.228 345.608 402.356 344.656 402.484 343.712C402.628 342.768 402.764 341.832 402.892 340.904L404.308 332.216H407.668L404.38 350H399.964L397.972 341.192C397.828 340.504 397.692 339.824 397.564 339.152C397.436 338.464 397.324 337.784 397.228 337.112H397.132C397.004 337.784 396.868 338.464 396.724 339.152C396.596 339.824 396.468 340.504 396.34 341.192L394.396 350H390.052ZM415.66 350.336C414.54 350.336 413.484 350.056 412.492 349.496C411.516 348.936 410.724 348.136 410.116 347.096C409.508 346.04 409.204 344.768 409.204 343.28C409.204 341.792 409.508 340.528 410.116 339.488C410.724 338.432 411.516 337.624 412.492 337.064C413.484 336.504 414.54 336.224 415.66 336.224C416.508 336.224 417.316 336.384 418.084 336.704C418.852 337.024 419.54 337.488 420.148 338.096C420.756 338.688 421.236 339.424 421.588 340.304C421.94 341.168 422.116 342.16 422.116 343.28C422.116 344.768 421.812 346.04 421.204 347.096C420.596 348.136 419.796 348.936 418.804 349.496C417.828 350.056 416.78 350.336 415.66 350.336ZM415.66 347.456C416.268 347.456 416.78 347.288 417.196 346.952C417.628 346.6 417.948 346.112 418.156 345.488C418.38 344.864 418.492 344.128 418.492 343.28C418.492 342.432 418.38 341.696 418.156 341.072C417.948 340.448 417.628 339.968 417.196 339.632C416.78 339.28 416.268 339.104 415.66 339.104C415.052 339.104 414.532 339.28 414.1 339.632C413.684 339.968 413.364 340.448 413.14 341.072C412.932 341.696 412.828 342.432 412.828 343.28C412.828 344.128 412.932 344.864 413.14 345.488C413.364 346.112 413.684 346.6 414.1 346.952C414.532 347.288 415.052 347.456 415.66 347.456ZM425.068 350V336.56H427.948L428.212 338.936H428.284C428.78 338.056 429.364 337.384 430.036 336.92C430.708 336.456 431.396 336.224 432.1 336.224C432.484 336.224 432.788 336.256 433.012 336.32C433.252 336.368 433.468 336.432 433.66 336.512L433.084 339.56C432.828 339.496 432.596 339.448 432.388 339.416C432.196 339.368 431.948 339.344 431.644 339.344C431.132 339.344 430.588 339.544 430.012 339.944C429.452 340.344 428.98 341.024 428.596 341.984V350H425.068ZM438.88 350.336C438.048 350.336 437.392 350.168 436.912 349.832C436.432 349.48 436.08 349 435.856 348.392C435.648 347.768 435.544 347.048 435.544 346.232V330.848H439.072V346.376C439.072 346.776 439.144 347.056 439.288 347.216C439.448 347.376 439.608 347.456 439.768 347.456C439.848 347.456 439.92 347.456 439.984 347.456C440.048 347.44 440.136 347.424 440.248 347.408L440.68 350.024C440.472 350.104 440.216 350.176 439.912 350.24C439.624 350.304 439.28 350.336 438.88 350.336ZM447.843 350.336C446.723 350.336 445.747 350.056 444.915 349.496C444.099 348.936 443.467 348.128 443.019 347.072C442.571 346.016 442.347 344.752 442.347 343.28C442.347 341.824 442.611 340.576 443.139 339.536C443.683 338.48 444.387 337.664 445.251 337.088C446.115 336.512 447.027 336.224 447.987 336.224C448.739 336.224 449.371 336.36 449.883 336.632C450.411 336.888 450.915 337.24 451.395 337.688L451.275 335.576V330.848H454.803V350H451.923L451.659 348.608H451.563C451.067 349.088 450.499 349.496 449.859 349.832C449.219 350.168 448.547 350.336 447.843 350.336ZM448.755 347.432C449.235 347.432 449.675 347.328 450.075 347.12C450.491 346.896 450.891 346.536 451.275 346.04V340.136C450.875 339.768 450.459 339.512 450.027 339.368C449.611 339.208 449.187 339.128 448.755 339.128C448.259 339.128 447.795 339.288 447.363 339.608C446.947 339.912 446.611 340.368 446.355 340.976C446.099 341.584 445.971 342.336 445.971 343.232C445.971 344.16 446.075 344.936 446.283 345.56C446.507 346.184 446.827 346.656 447.243 346.976C447.659 347.28 448.163 347.432 448.755 347.432Z" fill="white"/>
<!-- <ellipse cx="686" cy="330" rx="3" ry="3" transform="rotate(90 686 330)" fill="white"/>
<ellipse cx="686" cy="340" rx="3" ry="3" transform="rotate(90 686 340)" fill="white"/>
<ellipse cx="686" cy="350" rx="3" ry="3" transform="rotate(90 686 350)" fill="white"/> -->
<path d="M313.162 195C313.448 189.346 314.394 185.738 317.496 181.426H310.17V178.698H320.994V180.678C317.21 185.298 316.704 188.62 316.44 195H313.162ZM328.515 195.308C325.193 195.308 322.993 192.404 322.993 186.794C322.993 181.162 325.193 178.412 328.515 178.412C331.837 178.412 334.015 181.184 334.015 186.794C334.015 192.404 331.837 195.308 328.515 195.308ZM328.515 192.778C329.923 192.778 330.957 191.37 330.957 186.794C330.957 182.24 329.923 180.92 328.515 180.92C327.107 180.92 326.051 182.24 326.051 186.794C326.051 191.37 327.107 192.778 328.515 192.778ZM341.756 187.036C340.876 187.036 339.842 187.52 339.094 188.752C339.402 191.722 340.502 192.866 341.866 192.866C343.076 192.866 344.088 191.854 344.088 189.852C344.088 187.938 343.164 187.036 341.756 187.036ZM341.932 195.308C338.83 195.308 336.08 192.822 336.08 187.08C336.08 181.008 339.094 178.412 342.372 178.412C344.374 178.412 345.804 179.248 346.794 180.26L345.078 182.196C344.506 181.536 343.516 181.008 342.57 181.008C340.7 181.008 339.16 182.416 339.028 186.508C339.908 185.408 341.316 184.748 342.372 184.748C345.1 184.748 347.036 186.376 347.036 189.852C347.036 193.196 344.704 195.308 341.932 195.308ZM351.566 185.804L350.18 184.792L351.632 182.284L349.014 181.118L349.542 179.49L352.358 180.106L352.644 177.224H354.382L354.646 180.128L357.462 179.49L357.99 181.118L355.35 182.284L356.846 184.792L355.438 185.804L353.502 183.604L351.566 185.804ZM365.092 195.308C362.518 195.308 360.78 194.34 359.636 193.042L361.154 190.996C362.122 191.942 363.31 192.668 364.784 192.668C366.434 192.668 367.556 191.854 367.556 190.38C367.556 188.796 366.61 187.784 363.068 187.784V185.474C366.06 185.474 367.028 184.44 367.028 182.988C367.028 181.712 366.236 180.964 364.85 180.964C363.684 180.964 362.738 181.492 361.77 182.394L360.12 180.414C361.528 179.182 363.09 178.412 365.004 178.412C368.15 178.412 370.284 179.974 370.284 182.746C370.284 184.506 369.294 185.782 367.578 186.464V186.574C369.404 187.08 370.812 188.444 370.812 190.578C370.812 193.57 368.194 195.308 365.092 195.308ZM376.112 195C376.398 189.346 377.344 185.738 380.446 181.426H373.12V178.698H383.944V180.678C380.16 185.298 379.654 188.62 379.39 195H376.112ZM391.465 195.308C388.143 195.308 385.943 192.404 385.943 186.794C385.943 181.162 388.143 178.412 391.465 178.412C394.787 178.412 396.965 181.184 396.965 186.794C396.965 192.404 394.787 195.308 391.465 195.308ZM391.465 192.778C392.873 192.778 393.907 191.37 393.907 186.794C393.907 182.24 392.873 180.92 391.465 180.92C390.057 180.92 389.001 182.24 389.001 186.794C389.001 191.37 390.057 192.778 391.465 192.778Z" fill="black"/>
</g>
</g>
<defs>
<filter id="filter0_d_6874_65128" x="-7" y="-5" width="726" height="390" filterUnits="userSpaceOnUse" color-interpolation-filters="sRGB">
<feFlood flood-opacity="0" result="BackgroundImageFix"/>
<feColorMatrix in="SourceAlpha" type="matrix" values="0 0 0 0 0 0 0 0 0 0 0 0 0 0 0 0 0 0 127 0" result="hardAlpha"/>
<feOffset dx="3" dy="5"/>
<feGaussianBlur stdDeviation="5"/>
<feComposite in2="hardAlpha" operator="out"/>
<feColorMatrix type="matrix" values="0 0 0 0 0 0 0 0 0 0 0 0 0 0 0 0 0 0 0.05 0"/>
<feBlend mode="multiply" in2="BackgroundImageFix" result="effect1_dropShadow_6874_65128"/>
<feBlend mode="normal" in="SourceGraphic" in2="effect1_dropShadow_6874_65128" result="shape"/>
</filter>
<clipPath id="clip0_6874_65128">
<path d="M0 5C0 2.23857 2.23858 0 5 0H701C703.761 0 706 2.23858 706 5V365C706 367.761 703.761 370 701 370H5.00001C2.23858 370 0 367.761 0 365V5Z" fill="white"/>
</clipPath>
</defs>
</svg>
