<svg width="274" height="320" viewBox="0 0 274 320" fill="none" xmlns="http://www.w3.org/2000/svg">
<g filter="url(#filter0_d_7528_193579)">
<g clip-path="url(#clip0_7528_193579)">
<path d="M0 5C0 2.23858 2.23858 0 5 0H269C271.761 0 274 2.23858 274 5V315C274 317.761 271.761 320 269 320H5.00001C2.23858 320 0 317.761 0 315V5Z" fill="#8EDFEA"/>
<path d="M0 5C0 2.23858 2.23858 0 5 0H80L0 80V5Z" fill="#FF6D00"/>
<path d="M19.1145 34C19.4005 28.346 20.3465 24.738 23.4485 20.426H16.1225V17.698H26.9465V19.678C23.1625 24.298 22.6565 27.62 22.3925 34H19.1145Z" fill="white"/>
<rect width="274" height="60" transform="translate(0 260)" fill="#171717" fill-opacity="0.65"/>
<path d="M60.4692 300V282.216H65.3412C70.7652 282.216 74.1252 285.048 74.1252 291.048C74.1252 297.024 70.7652 300 65.5332 300H60.4692ZM64.0212 297.144H65.1252C68.4372 297.144 70.5012 295.368 70.5012 291.048C70.5012 286.704 68.4372 285.072 65.1252 285.072H64.0212V297.144ZM77.314 300V286.56H80.194L80.458 288.936H80.53C81.514 287.184 82.954 286.224 84.346 286.224C85.09 286.224 85.522 286.344 85.93 286.512L85.33 289.56C84.85 289.416 84.466 289.344 83.914 289.344C82.858 289.344 81.586 290.04 80.842 291.984V300H77.314ZM87.7671 300V286.56H91.2951V300H87.7671ZM89.5431 284.4C88.3191 284.4 87.4791 283.632 87.4791 282.456C87.4791 281.304 88.3191 280.536 89.5431 280.536C90.7431 280.536 91.5831 281.304 91.5831 282.456C91.5831 283.632 90.7431 284.4 89.5431 284.4ZM98.3682 300.336C95.9202 300.336 95.0562 298.728 95.0562 296.232V280.848H98.5842V296.376C98.5842 297.192 98.9442 297.456 99.2802 297.456C99.4242 297.456 99.5202 297.456 99.7602 297.408L100.192 300.024C99.7842 300.192 99.2082 300.336 98.3682 300.336ZM105.938 300.336C103.49 300.336 102.626 298.728 102.626 296.232V280.848H106.154V296.376C106.154 297.192 106.514 297.456 106.85 297.456C106.994 297.456 107.09 297.456 107.33 297.408L107.762 300.024C107.354 300.192 106.778 300.336 105.938 300.336ZM118.946 300.336C116.546 300.336 114.962 298.632 114.962 296.352C114.962 293.472 117.29 291.96 122.714 291.384C122.642 290.064 122.066 289.056 120.41 289.056C119.162 289.056 117.962 289.608 116.714 290.328L115.442 288C117.026 287.016 118.946 286.224 121.058 286.224C124.466 286.224 126.218 288.264 126.218 292.152V300H123.338L123.098 298.56H123.002C121.826 299.568 120.482 300.336 118.946 300.336ZM120.098 297.576C121.106 297.576 121.85 297.096 122.714 296.256V293.544C119.426 293.952 118.322 294.864 118.322 296.064C118.322 297.12 119.066 297.576 120.098 297.576ZM129.814 300V286.56H132.694L132.958 288.336H133.03C134.206 287.184 135.574 286.224 137.398 286.224C140.302 286.224 141.55 288.24 141.55 291.624V300H138.022V292.056C138.022 289.968 137.446 289.248 136.126 289.248C135.022 289.248 134.326 289.776 133.342 290.76V300H129.814ZM149.917 300.336C146.581 300.336 144.421 297.696 144.421 293.28C144.421 288.912 147.157 286.224 150.061 286.224C151.573 286.224 152.509 286.8 153.469 287.688L153.349 285.576V280.848H156.853V300H153.997L153.733 298.608H153.637C152.653 299.568 151.309 300.336 149.917 300.336ZM150.829 297.432C151.765 297.432 152.557 297.048 153.349 296.04V290.136C152.533 289.392 151.669 289.128 150.829 289.128C149.317 289.128 148.045 290.568 148.045 293.256C148.045 296.04 149.053 297.432 150.829 297.432ZM166.36 300V282.216H172.192C176.128 282.216 179.152 283.608 179.152 287.808C179.152 291.864 176.104 293.688 172.288 293.688H169.912V300H166.36ZM169.912 290.88H172.048C174.496 290.88 175.672 289.848 175.672 287.808C175.672 285.744 174.376 285.048 171.928 285.048H169.912V290.88ZM185.392 300.336C182.944 300.336 182.08 298.728 182.08 296.232V280.848H185.608V296.376C185.608 297.192 185.968 297.456 186.304 297.456C186.448 297.456 186.544 297.456 186.784 297.408L187.216 300.024C186.808 300.192 186.232 300.336 185.392 300.336ZM192.962 300.336C190.562 300.336 188.978 298.632 188.978 296.352C188.978 293.472 191.306 291.96 196.73 291.384C196.658 290.064 196.082 289.056 194.426 289.056C193.178 289.056 191.978 289.608 190.73 290.328L189.458 288C191.042 287.016 192.962 286.224 195.074 286.224C198.482 286.224 200.234 288.264 200.234 292.152V300H197.354L197.114 298.56H197.018C195.842 299.568 194.498 300.336 192.962 300.336ZM194.114 297.576C195.122 297.576 195.866 297.096 196.73 296.256V293.544C193.442 293.952 192.338 294.864 192.338 296.064C192.338 297.12 193.082 297.576 194.114 297.576ZM205.006 305.4C204.214 305.4 203.686 305.304 203.158 305.136L203.806 302.424C204.046 302.496 204.43 302.592 204.742 302.592C206.11 302.592 206.878 301.728 207.262 300.552L207.502 299.76L202.27 286.56H205.822L207.958 292.8C208.366 294 208.702 295.296 209.086 296.592H209.206C209.518 295.344 209.854 294.048 210.166 292.8L212.014 286.56H215.398L210.622 300.408C209.446 303.576 208.006 305.4 205.006 305.4Z" fill="white"/>
</g>
</g>
<defs>
<filter id="filter0_d_7528_193579" x="-7" y="-5" width="294" height="340" filterUnits="userSpaceOnUse" color-interpolation-filters="sRGB">
<feFlood flood-opacity="0" result="BackgroundImageFix"/>
<feColorMatrix in="SourceAlpha" type="matrix" values="0 0 0 0 0 0 0 0 0 0 0 0 0 0 0 0 0 0 127 0" result="hardAlpha"/>
<feOffset dx="3" dy="5"/>
<feGaussianBlur stdDeviation="5"/>
<feComposite in2="hardAlpha" operator="out"/>
<feColorMatrix type="matrix" values="0 0 0 0 0 0 0 0 0 0 0 0 0 0 0 0 0 0 0.05 0"/>
<feBlend mode="multiply" in2="BackgroundImageFix" result="effect1_dropShadow_7528_193579"/>
<feBlend mode="normal" in="SourceGraphic" in2="effect1_dropShadow_7528_193579" result="shape"/>
</filter>
<clipPath id="clip0_7528_193579">
<path d="M0 5C0 2.23858 2.23858 0 5 0H269C271.761 0 274 2.23858 274 5V315C274 317.761 271.761 320 269 320H5.00001C2.23858 320 0 317.761 0 315V5Z" fill="white"/>
</clipPath>
</defs>
</svg>
