<svg width="381" height="500" viewBox="0 0 381 500" fill="none" xmlns="http://www.w3.org/2000/svg">
<g filter="url(#filter0_d_6874_64336)">
<g clip-path="url(#clip0_6874_64336)">
<path d="M0 5C0 2.23857 2.23858 0 5 0H376C378.761 0 381 2.23858 381 5V495C381 497.761 378.761 500 376 500H4.99999C2.23857 500 0 497.761 0 495V5Z" fill="#F89F45"/>
<rect width="381" height="60" transform="translate(0 440)" fill="#171717" fill-opacity="0.65"/>
<path d="M140.75 480.336C135.926 480.336 132.23 477.12 132.23 471.192C132.23 465.336 136.022 461.928 140.75 461.928C143.294 461.928 145.07 463.032 146.222 464.184L144.35 466.464C143.462 465.624 142.454 464.976 140.87 464.976C137.894 464.976 135.854 467.28 135.854 471.072C135.854 474.96 137.63 477.264 141.11 477.264C141.974 477.264 142.838 477.024 143.342 476.616V473.112H140.174V470.208H146.51V478.2C145.31 479.4 143.198 480.336 140.75 480.336ZM155.889 480.336C152.121 480.336 149.193 477.744 149.193 473.304C149.193 468.936 152.265 466.248 155.433 466.248C159.153 466.248 161.049 468.936 161.049 472.656C161.049 473.328 160.977 473.952 160.905 474.288H152.601C152.913 476.496 154.353 477.624 156.345 477.624C157.425 477.624 158.385 477.288 159.369 476.688L160.545 478.872C159.225 479.784 157.545 480.336 155.889 480.336ZM152.553 471.936H158.049C158.049 470.112 157.233 468.96 155.505 468.96C154.089 468.96 152.841 469.968 152.553 471.936ZM168.476 480.336C165.284 480.336 164.06 478.32 164.06 475.32V469.344H162.188V466.728L164.276 466.584L164.66 462.936H167.588V466.584H170.924V469.344H167.588V475.32C167.588 476.856 168.236 477.576 169.412 477.576C169.868 477.576 170.372 477.408 170.756 477.264L171.332 479.832C170.612 480.072 169.676 480.336 168.476 480.336ZM179.407 480V462.24H185.575C189.295 462.24 192.247 463.536 192.247 467.616C192.247 471.576 189.295 473.304 185.575 473.304H182.959V480H179.407ZM182.959 470.496H185.239C187.543 470.496 188.791 469.512 188.791 467.616C188.791 465.72 187.543 465.072 185.239 465.072H182.959V470.496ZM189.055 480L184.927 472.392L187.399 470.16L193.015 480H189.055ZM200.936 480.336C197.168 480.336 194.24 477.744 194.24 473.304C194.24 468.936 197.312 466.248 200.48 466.248C204.2 466.248 206.096 468.936 206.096 472.656C206.096 473.328 206.024 473.952 205.952 474.288H197.648C197.96 476.496 199.4 477.624 201.392 477.624C202.472 477.624 203.432 477.288 204.416 476.688L205.592 478.872C204.272 479.784 202.592 480.336 200.936 480.336ZM197.6 471.936H203.096C203.096 470.112 202.28 468.96 200.552 468.96C199.136 468.96 197.888 469.968 197.6 471.936ZM211.844 480.336C209.444 480.336 207.884 478.656 207.884 476.352C207.884 473.496 210.212 471.984 215.612 471.384C215.54 470.064 214.988 469.08 213.332 469.08C212.084 469.08 210.86 469.608 209.636 470.352L208.364 468C209.948 467.04 211.844 466.248 213.98 466.248C217.388 466.248 219.14 468.264 219.14 472.176V480H216.26L215.996 478.584H215.9C214.724 479.592 213.38 480.336 211.844 480.336ZM212.996 477.576C214.004 477.576 214.748 477.12 215.612 476.28V473.568C212.324 473.976 211.244 474.864 211.244 476.088C211.244 477.12 211.964 477.576 212.996 477.576ZM227.464 480.336C224.104 480.336 221.944 477.72 221.944 473.304C221.944 468.912 224.704 466.248 227.584 466.248C229.096 466.248 230.032 466.8 231.016 467.688L230.872 465.576V460.872H234.4V480H231.52L231.256 478.608H231.184C230.2 479.592 228.856 480.336 227.464 480.336ZM228.352 477.432C229.312 477.432 230.104 477.048 230.872 476.064V470.16C230.08 469.416 229.216 469.128 228.376 469.128C226.864 469.128 225.568 470.568 225.568 473.256C225.568 476.064 226.6 477.432 228.352 477.432ZM239.333 485.4C238.565 485.4 238.013 485.304 237.509 485.136L238.157 482.424C238.397 482.496 238.757 482.616 239.093 482.616C240.437 482.616 241.205 481.752 241.613 480.552L241.829 479.76L236.597 466.584H240.173L242.285 472.8C242.693 474.024 243.029 475.32 243.437 476.616H243.557C243.845 475.344 244.181 474.072 244.493 472.8L246.365 466.584H249.749L244.973 480.432C243.797 483.576 242.357 485.4 239.333 485.4Z" fill="white"/>
<!-- <ellipse cx="361" cy="460" rx="3" ry="3" transform="rotate(90 361 460)" fill="white"/>
<ellipse cx="361" cy="470" rx="3" ry="3" transform="rotate(90 361 470)" fill="white"/>
<ellipse cx="361" cy="480" rx="3" ry="3" transform="rotate(90 361 480)" fill="white"/> -->
<path d="M0 5C0 2.23858 2.23858 0 5 0H80L0 80V5Z" fill="#FF6D00"/>
<path d="M16.8157 34V31.36H20.3357V21.086H17.3657V19.062C18.1871 18.9153 18.8911 18.7393 19.4777 18.534C20.0791 18.314 20.6364 18.0353 21.1497 17.698H23.5477V31.36H26.6057V34H16.8157Z" fill="white"/>
<path d="M153.098 260.308C150.524 260.308 148.786 259.34 147.642 258.042L149.16 255.996C150.128 256.942 151.316 257.668 152.79 257.668C154.44 257.668 155.562 256.854 155.562 255.38C155.562 253.796 154.616 252.784 151.074 252.784V250.474C154.066 250.474 155.034 249.44 155.034 247.988C155.034 246.712 154.242 245.964 152.856 245.964C151.69 245.964 150.744 246.492 149.776 247.394L148.126 245.414C149.534 244.182 151.096 243.412 153.01 243.412C156.156 243.412 158.29 244.974 158.29 247.746C158.29 249.506 157.3 250.782 155.584 251.464V251.574C157.41 252.08 158.818 253.444 158.818 255.578C158.818 258.57 156.2 260.308 153.098 260.308ZM166.493 260.308C163.391 260.308 161.059 258.504 161.059 255.952C161.059 253.862 162.335 252.498 163.853 251.706V251.596C162.599 250.694 161.697 249.462 161.697 247.724C161.697 245.106 163.787 243.434 166.603 243.434C169.485 243.434 171.333 245.172 171.333 247.768C171.333 249.374 170.321 250.716 169.243 251.486V251.596C170.739 252.41 171.971 253.73 171.971 255.952C171.971 258.416 169.793 260.308 166.493 260.308ZM167.527 250.694C168.319 249.858 168.693 248.934 168.693 247.966C168.693 246.646 167.901 245.7 166.537 245.7C165.437 245.7 164.557 246.426 164.557 247.724C164.557 249.264 165.811 250.012 167.527 250.694ZM166.581 258.02C167.967 258.02 168.957 257.25 168.957 255.842C168.957 254.148 167.461 253.444 165.349 252.586C164.469 253.29 163.853 254.39 163.853 255.6C163.853 257.074 165.063 258.02 166.581 258.02ZM174.784 260V257.382H178.282V247.086H175.334V245.084C176.962 244.776 178.084 244.358 179.118 243.698H181.516V257.382H184.574V260H174.784ZM189.566 250.804L188.18 249.792L189.632 247.284L187.014 246.118L187.542 244.49L190.358 245.106L190.644 242.224H192.382L192.646 245.128L195.462 244.49L195.99 246.118L193.35 247.284L194.846 249.792L193.438 250.804L191.502 248.604L189.566 250.804ZM203.136 260.308C200.562 260.308 198.846 259.296 197.636 258.086L199.132 256.018C200.056 256.92 201.2 257.668 202.718 257.668C204.412 257.668 205.6 256.59 205.6 254.676C205.6 252.784 204.5 251.728 202.85 251.728C201.882 251.728 201.354 251.97 200.408 252.586L198.934 251.618L199.374 243.698H208.086V246.426H202.168L201.86 249.88C202.52 249.572 203.07 249.418 203.818 249.418C206.546 249.418 208.834 251.046 208.834 254.588C208.834 258.218 206.15 260.308 203.136 260.308ZM216.51 260.308C213.188 260.308 210.988 257.404 210.988 251.794C210.988 246.162 213.188 243.412 216.51 243.412C219.832 243.412 222.01 246.184 222.01 251.794C222.01 257.404 219.832 260.308 216.51 260.308ZM216.51 257.778C217.918 257.778 218.952 256.37 218.952 251.794C218.952 247.24 217.918 245.92 216.51 245.92C215.102 245.92 214.046 247.24 214.046 251.794C214.046 256.37 215.102 257.778 216.51 257.778ZM229.465 260.308C226.143 260.308 223.943 257.404 223.943 251.794C223.943 246.162 226.143 243.412 229.465 243.412C232.787 243.412 234.965 246.184 234.965 251.794C234.965 257.404 232.787 260.308 229.465 260.308ZM229.465 257.778C230.873 257.778 231.907 256.37 231.907 251.794C231.907 247.24 230.873 245.92 229.465 245.92C228.057 245.92 227.001 247.24 227.001 251.794C227.001 256.37 228.057 257.778 229.465 257.778Z" fill="black"/>
</g>
</g>
<defs>
<filter id="filter0_d_6874_64336" x="-7" y="-5" width="401" height="520" filterUnits="userSpaceOnUse" color-interpolation-filters="sRGB">
<feFlood flood-opacity="0" result="BackgroundImageFix"/>
<feColorMatrix in="SourceAlpha" type="matrix" values="0 0 0 0 0 0 0 0 0 0 0 0 0 0 0 0 0 0 127 0" result="hardAlpha"/>
<feOffset dx="3" dy="5"/>
<feGaussianBlur stdDeviation="5"/>
<feComposite in2="hardAlpha" operator="out"/>
<feColorMatrix type="matrix" values="0 0 0 0 0 0 0 0 0 0 0 0 0 0 0 0 0 0 0.05 0"/>
<feBlend mode="multiply" in2="BackgroundImageFix" result="effect1_dropShadow_6874_64336"/>
<feBlend mode="normal" in="SourceGraphic" in2="effect1_dropShadow_6874_64336" result="shape"/>
</filter>
<clipPath id="clip0_6874_64336">
<path d="M0 5C0 2.23857 2.23858 0 5 0H376C378.761 0 381 2.23858 381 5V495C381 497.761 378.761 500 376 500H4.99999C2.23857 500 0 497.761 0 495V5Z" fill="white"/>
</clipPath>
</defs>
</svg>
