<svg width="1000" height="370" viewBox="0 0 1000 370" fill="none" xmlns="http://www.w3.org/2000/svg">
<g filter="url(#filter0_d_6874_65137)">
<g clip-path="url(#clip0_6874_65137)">
<path d="M0 5C0 2.23857 2.23858 0 5 0H995C997.761 0 1000 2.23858 1000 5V365C1000 367.761 997.761 370 995 370H5C2.23857 370 0 367.761 0 365V5Z" fill="#BABADC"/>
<rect width="1000" height="60" transform="translate(0 310)" fill="#171717" fill-opacity="0.65"/>
<path d="M436.664 350V332.216H442.496C443.808 332.216 444.984 332.392 446.024 332.744C447.08 333.096 447.912 333.68 448.52 334.496C449.144 335.296 449.456 336.4 449.456 337.808C449.456 339.152 449.144 340.264 448.52 341.144C447.912 342.008 447.088 342.648 446.048 343.064C445.024 343.48 443.872 343.688 442.592 343.688H440.216V350H436.664ZM440.216 340.88H442.352C443.568 340.88 444.472 340.624 445.064 340.112C445.672 339.6 445.976 338.832 445.976 337.808C445.976 336.784 445.656 336.072 445.016 335.672C444.392 335.256 443.464 335.048 442.232 335.048H440.216V340.88ZM455.72 350.336C454.888 350.336 454.232 350.168 453.752 349.832C453.272 349.48 452.92 349 452.696 348.392C452.488 347.768 452.384 347.048 452.384 346.232V330.848H455.912V346.376C455.912 346.776 455.984 347.056 456.128 347.216C456.288 347.376 456.448 347.456 456.608 347.456C456.688 347.456 456.76 347.456 456.824 347.456C456.888 347.44 456.976 347.424 457.088 347.408L457.52 350.024C457.312 350.104 457.056 350.176 456.752 350.24C456.464 350.304 456.12 350.336 455.72 350.336ZM463.243 350.336C462.459 350.336 461.763 350.168 461.155 349.832C460.563 349.48 460.099 349 459.763 348.392C459.443 347.784 459.283 347.096 459.283 346.328C459.283 344.904 459.899 343.8 461.131 343.016C462.363 342.216 464.323 341.672 467.011 341.384C466.995 340.936 466.915 340.544 466.771 340.208C466.627 339.856 466.387 339.576 466.051 339.368C465.731 339.16 465.291 339.056 464.731 339.056C464.107 339.056 463.491 339.176 462.883 339.416C462.275 339.656 461.659 339.968 461.035 340.352L459.787 338C460.315 337.664 460.875 337.368 461.467 337.112C462.059 336.856 462.683 336.648 463.339 336.488C463.995 336.312 464.675 336.224 465.379 336.224C466.515 336.224 467.467 336.448 468.235 336.896C469.003 337.344 469.579 338.008 469.963 338.888C470.347 339.768 470.539 340.856 470.539 342.152V350H467.659L467.419 348.56H467.299C466.723 349.072 466.099 349.496 465.427 349.832C464.755 350.168 464.027 350.336 463.243 350.336ZM464.419 347.576C464.915 347.576 465.363 347.464 465.763 347.24C466.179 347 466.595 346.672 467.011 346.256V343.568C465.923 343.696 465.059 343.88 464.419 344.12C463.779 344.36 463.323 344.648 463.051 344.984C462.779 345.304 462.643 345.664 462.643 346.064C462.643 346.592 462.803 346.976 463.123 347.216C463.459 347.456 463.891 347.576 464.419 347.576ZM475.31 355.376C474.91 355.376 474.566 355.352 474.278 355.304C473.99 355.256 473.718 355.192 473.462 355.112L474.11 352.424C474.238 352.456 474.382 352.488 474.542 352.52C474.718 352.568 474.886 352.592 475.046 352.592C475.734 352.592 476.278 352.4 476.678 352.016C477.078 351.632 477.374 351.144 477.566 350.552L477.806 349.736L472.574 336.56H476.126L478.262 342.8C478.47 343.408 478.662 344.032 478.838 344.672C479.014 345.312 479.198 345.952 479.39 346.592H479.51C479.654 345.952 479.806 345.32 479.966 344.696C480.142 344.056 480.31 343.424 480.47 342.8L482.318 336.56H485.702L480.926 350.408C480.542 351.464 480.102 352.36 479.606 353.096C479.11 353.848 478.518 354.416 477.83 354.8C477.158 355.184 476.318 355.376 475.31 355.376ZM498.273 350.336C497.217 350.336 496.361 350.128 495.705 349.712C495.049 349.28 494.577 348.688 494.289 347.936C494.001 347.184 493.857 346.312 493.857 345.32V339.344H491.961V336.728L494.049 336.56L494.457 332.936H497.361V336.56H500.697V339.344H497.361V345.296C497.361 346.064 497.521 346.632 497.841 347C498.161 347.368 498.617 347.552 499.209 347.552C499.433 347.552 499.665 347.52 499.905 347.456C500.145 347.392 500.353 347.328 500.529 347.264L501.129 349.832C500.761 349.944 500.337 350.056 499.857 350.168C499.393 350.28 498.865 350.336 498.273 350.336ZM503.455 350V336.56H506.983V350H503.455ZM505.231 334.376C504.607 334.376 504.111 334.208 503.743 333.872C503.375 333.52 503.191 333.048 503.191 332.456C503.191 331.88 503.375 331.416 503.743 331.064C504.111 330.712 504.607 330.536 505.231 330.536C505.823 330.536 506.311 330.712 506.695 331.064C507.079 331.416 507.271 331.88 507.271 332.456C507.271 333.048 507.079 333.52 506.695 333.872C506.311 334.208 505.823 334.376 505.231 334.376ZM510.744 350V336.56H513.624L513.888 338.36H513.96C514.52 337.784 515.128 337.288 515.784 336.872C516.44 336.44 517.208 336.224 518.088 336.224C519.048 336.224 519.816 336.432 520.392 336.848C520.984 337.248 521.44 337.824 521.76 338.576C522.4 337.92 523.056 337.368 523.728 336.92C524.416 336.456 525.192 336.224 526.056 336.224C527.496 336.224 528.544 336.704 529.2 337.664C529.872 338.608 530.208 339.928 530.208 341.624V350H526.704V342.056C526.704 341.016 526.552 340.288 526.248 339.872C525.944 339.456 525.472 339.248 524.832 339.248C524.448 339.248 524.04 339.376 523.608 339.632C523.192 339.872 522.736 340.248 522.24 340.76V350H518.712V342.056C518.712 341.016 518.56 340.288 518.256 339.872C517.952 339.456 517.48 339.248 516.84 339.248C516.472 339.248 516.064 339.376 515.616 339.632C515.184 339.872 514.736 340.248 514.272 340.76V350H510.744ZM539.732 350.336C538.484 350.336 537.356 350.056 536.348 349.496C535.34 348.936 534.532 348.128 533.924 347.072C533.332 346.016 533.036 344.752 533.036 343.28C533.036 342.192 533.204 341.216 533.54 340.352C533.892 339.488 534.364 338.752 534.956 338.144C535.564 337.52 536.236 337.048 536.972 336.728C537.724 336.392 538.5 336.224 539.3 336.224C540.532 336.224 541.564 336.504 542.396 337.064C543.228 337.608 543.852 338.368 544.268 339.344C544.7 340.304 544.916 341.408 544.916 342.656C544.916 342.976 544.9 343.288 544.868 343.592C544.836 343.88 544.796 344.112 544.748 344.288H536.468C536.564 345.008 536.78 345.616 537.116 346.112C537.452 346.608 537.884 346.984 538.412 347.24C538.94 347.48 539.54 347.6 540.212 347.6C540.756 347.6 541.268 347.528 541.748 347.384C542.228 347.224 542.716 346.992 543.212 346.688L544.412 348.848C543.756 349.296 543.02 349.656 542.204 349.928C541.388 350.2 540.564 350.336 539.732 350.336ZM536.396 341.912H541.892C541.892 341.016 541.684 340.304 541.268 339.776C540.868 339.232 540.228 338.96 539.348 338.96C538.884 338.96 538.444 339.072 538.028 339.296C537.612 339.504 537.26 339.832 536.972 340.28C536.684 340.712 536.492 341.256 536.396 341.912ZM552.395 350V347.96C553.931 346.488 555.275 345.16 556.427 343.976C557.579 342.776 558.475 341.688 559.115 340.712C559.755 339.72 560.075 338.8 560.075 337.952C560.075 337.36 559.971 336.856 559.763 336.44C559.555 336.024 559.251 335.704 558.851 335.48C558.467 335.256 557.987 335.144 557.411 335.144C556.771 335.144 556.179 335.328 555.635 335.696C555.107 336.064 554.619 336.488 554.171 336.968L552.203 335.048C553.035 334.168 553.883 333.504 554.747 333.056C555.627 332.592 556.667 332.36 557.867 332.36C558.987 332.36 559.963 332.584 560.795 333.032C561.643 333.48 562.299 334.112 562.763 334.928C563.227 335.728 563.459 336.672 563.459 337.76C563.459 338.752 563.179 339.768 562.619 340.808C562.075 341.848 561.347 342.904 560.435 343.976C559.539 345.032 558.555 346.12 557.483 347.24C557.931 347.176 558.427 347.128 558.971 347.096C559.515 347.048 559.995 347.024 560.411 347.024H564.299V350H552.395Z" fill="white"/>
<!-- <ellipse cx="980" cy="330" rx="3" ry="3" transform="rotate(90 980 330)" fill="white"/>
<ellipse cx="980" cy="340" rx="3" ry="3" transform="rotate(90 980 340)" fill="white"/>
<ellipse cx="980" cy="350" rx="3" ry="3" transform="rotate(90 980 350)" fill="white"/> -->
<path d="M0 5C0 2.23858 2.23858 0 5 0H80L0 80V5Z" fill="#FF6D00"/>
<path d="M15.9577 34V32.13C17.4391 30.81 18.7004 29.5853 19.7417 28.456C20.7977 27.3267 21.6044 26.278 22.1617 25.31C22.7191 24.3273 22.9977 23.418 22.9977 22.582C22.9977 22.054 22.9024 21.592 22.7117 21.196C22.5211 20.8 22.2424 20.4993 21.8757 20.294C21.5237 20.074 21.0837 19.964 20.5557 19.964C19.9691 19.964 19.4264 20.1327 18.9277 20.47C18.4437 20.7927 17.9964 21.1813 17.5857 21.636L15.7817 19.898C16.5444 19.0767 17.3217 18.4607 18.1137 18.05C18.9204 17.6247 19.8737 17.412 20.9737 17.412C22.0004 17.412 22.8951 17.6247 23.6577 18.05C24.4351 18.4607 25.0364 19.04 25.4617 19.788C25.8871 20.536 26.0997 21.416 26.0997 22.428C26.0997 23.4107 25.8504 24.4153 25.3517 25.442C24.8677 26.454 24.2151 27.466 23.3937 28.478C22.5724 29.49 21.6631 30.4873 20.6657 31.47C21.0911 31.4113 21.5457 31.3673 22.0297 31.338C22.5284 31.294 22.9684 31.272 23.3497 31.272H26.8697V34H15.9577Z" fill="white"/>
<path d="M450.897 195V192.382H454.395V182.086H451.447V180.084C453.075 179.776 454.197 179.358 455.231 178.698H457.629V192.382H460.687V195H450.897ZM468.538 195.308C465.216 195.308 463.016 192.404 463.016 186.794C463.016 181.162 465.216 178.412 468.538 178.412C471.86 178.412 474.038 181.184 474.038 186.794C474.038 192.404 471.86 195.308 468.538 195.308ZM468.538 192.778C469.946 192.778 470.98 191.37 470.98 186.794C470.98 182.24 469.946 180.92 468.538 180.92C467.13 180.92 466.074 182.24 466.074 186.794C466.074 191.37 467.13 192.778 468.538 192.778ZM481.493 195.308C478.171 195.308 475.971 192.404 475.971 186.794C475.971 181.162 478.171 178.412 481.493 178.412C484.815 178.412 486.993 181.184 486.993 186.794C486.993 192.404 484.815 195.308 481.493 195.308ZM481.493 192.778C482.901 192.778 483.935 191.37 483.935 186.794C483.935 182.24 482.901 180.92 481.493 180.92C480.085 180.92 479.029 182.24 479.029 186.794C479.029 191.37 480.085 192.778 481.493 192.778ZM494.448 195.308C491.126 195.308 488.926 192.404 488.926 186.794C488.926 181.162 491.126 178.412 494.448 178.412C497.77 178.412 499.948 181.184 499.948 186.794C499.948 192.404 497.77 195.308 494.448 195.308ZM494.448 192.778C495.856 192.778 496.89 191.37 496.89 186.794C496.89 182.24 495.856 180.92 494.448 180.92C493.04 180.92 491.984 182.24 491.984 186.794C491.984 191.37 493.04 192.778 494.448 192.778ZM504.543 185.804L503.157 184.792L504.609 182.284L501.991 181.118L502.519 179.49L505.335 180.106L505.621 177.224H507.359L507.623 180.128L510.439 179.49L510.967 181.118L508.327 182.284L509.823 184.792L508.415 185.804L506.479 183.604L504.543 185.804ZM518.07 195.308C515.496 195.308 513.758 194.34 512.614 193.042L514.132 190.996C515.1 191.942 516.288 192.668 517.762 192.668C519.412 192.668 520.534 191.854 520.534 190.38C520.534 188.796 519.588 187.784 516.046 187.784V185.474C519.038 185.474 520.006 184.44 520.006 182.988C520.006 181.712 519.214 180.964 517.828 180.964C516.662 180.964 515.716 181.492 514.748 182.394L513.098 180.414C514.506 179.182 516.068 178.412 517.982 178.412C521.128 178.412 523.262 179.974 523.262 182.746C523.262 184.506 522.272 185.782 520.556 186.464V186.574C522.382 187.08 523.79 188.444 523.79 190.578C523.79 193.57 521.172 195.308 518.07 195.308ZM529.089 195C529.375 189.346 530.321 185.738 533.423 181.426H526.097V178.698H536.921V180.678C533.137 185.298 532.631 188.62 532.367 195H529.089ZM544.442 195.308C541.12 195.308 538.92 192.404 538.92 186.794C538.92 181.162 541.12 178.412 544.442 178.412C547.764 178.412 549.942 181.184 549.942 186.794C549.942 192.404 547.764 195.308 544.442 195.308ZM544.442 192.778C545.85 192.778 546.884 191.37 546.884 186.794C546.884 182.24 545.85 180.92 544.442 180.92C543.034 180.92 541.978 182.24 541.978 186.794C541.978 191.37 543.034 192.778 544.442 192.778Z" fill="black"/>
</g>
</g>
<defs>
<filter id="filter0_d_6874_65137" x="-7" y="-5" width="1020" height="390" filterUnits="userSpaceOnUse" color-interpolation-filters="sRGB">
<feFlood flood-opacity="0" result="BackgroundImageFix"/>
<feColorMatrix in="SourceAlpha" type="matrix" values="0 0 0 0 0 0 0 0 0 0 0 0 0 0 0 0 0 0 127 0" result="hardAlpha"/>
<feOffset dx="3" dy="5"/>
<feGaussianBlur stdDeviation="5"/>
<feComposite in2="hardAlpha" operator="out"/>
<feColorMatrix type="matrix" values="0 0 0 0 0 0 0 0 0 0 0 0 0 0 0 0 0 0 0.05 0"/>
<feBlend mode="multiply" in2="BackgroundImageFix" result="effect1_dropShadow_6874_65137"/>
<feBlend mode="normal" in="SourceGraphic" in2="effect1_dropShadow_6874_65137" result="shape"/>
</filter>
<clipPath id="clip0_6874_65137">
<path d="M0 5C0 2.23857 2.23858 0 5 0H995C997.761 0 1000 2.23858 1000 5V365C1000 367.761 997.761 370 995 370H5C2.23857 370 0 367.761 0 365V5Z" fill="white"/>
</clipPath>
</defs>
</svg>
