<svg width="635" height="300" viewBox="0 0 635 300" fill="none" xmlns="http://www.w3.org/2000/svg">
<g filter="url(#filter0_d_6874_65062)">
<g clip-path="url(#clip0_6874_65062)">
<path d="M0 5C0 2.23857 2.23858 0 5 0H630C632.761 0 635 2.23858 635 5V295C635 297.761 632.761 300 630 300H5C2.23857 300 0 297.761 0 295V5Z" fill="#42C5B1"/>
<path d="M279.846 152.036C278.966 152.036 277.932 152.52 277.184 153.752C277.492 156.722 278.592 157.866 279.956 157.866C281.166 157.866 282.178 156.854 282.178 154.852C282.178 152.938 281.254 152.036 279.846 152.036ZM280.022 160.308C276.92 160.308 274.17 157.822 274.17 152.08C274.17 146.008 277.184 143.412 280.462 143.412C282.464 143.412 283.894 144.248 284.884 145.26L283.168 147.196C282.596 146.536 281.606 146.008 280.66 146.008C278.79 146.008 277.25 147.416 277.118 151.508C277.998 150.408 279.406 149.748 280.462 149.748C283.19 149.748 285.126 151.376 285.126 154.852C285.126 158.196 282.794 160.308 280.022 160.308ZM292.053 160.308C289.479 160.308 287.741 159.34 286.597 158.042L288.115 155.996C289.083 156.942 290.271 157.668 291.745 157.668C293.395 157.668 294.517 156.854 294.517 155.38C294.517 153.796 293.571 152.784 290.029 152.784V150.474C293.021 150.474 293.989 149.44 293.989 147.988C293.989 146.712 293.197 145.964 291.811 145.964C290.645 145.964 289.699 146.492 288.731 147.394L287.081 145.414C288.489 144.182 290.051 143.412 291.965 143.412C295.111 143.412 297.245 144.974 297.245 147.746C297.245 149.506 296.255 150.782 294.539 151.464V151.574C296.365 152.08 297.773 153.444 297.773 155.578C297.773 158.57 295.155 160.308 292.053 160.308ZM305.052 160.308C302.478 160.308 300.762 159.296 299.552 158.086L301.048 156.018C301.972 156.92 303.116 157.668 304.634 157.668C306.328 157.668 307.516 156.59 307.516 154.676C307.516 152.784 306.416 151.728 304.766 151.728C303.798 151.728 303.27 151.97 302.324 152.586L300.85 151.618L301.29 143.698H310.002V146.426H304.084L303.776 149.88C304.436 149.572 304.986 149.418 305.734 149.418C308.462 149.418 310.75 151.046 310.75 154.588C310.75 158.218 308.066 160.308 305.052 160.308ZM315.566 150.804L314.18 149.792L315.632 147.284L313.014 146.118L313.542 144.49L316.358 145.106L316.644 142.224H318.382L318.646 145.128L321.462 144.49L321.99 146.118L319.35 147.284L320.846 149.792L319.438 150.804L317.502 148.604L315.566 150.804ZM329.092 160.308C326.518 160.308 324.78 159.34 323.636 158.042L325.154 155.996C326.122 156.942 327.31 157.668 328.784 157.668C330.434 157.668 331.556 156.854 331.556 155.38C331.556 153.796 330.61 152.784 327.068 152.784V150.474C330.06 150.474 331.028 149.44 331.028 147.988C331.028 146.712 330.236 145.964 328.85 145.964C327.684 145.964 326.738 146.492 325.77 147.394L324.12 145.414C325.528 144.182 327.09 143.412 329.004 143.412C332.15 143.412 334.284 144.974 334.284 147.746C334.284 149.506 333.294 150.782 331.578 151.464V151.574C333.404 152.08 334.812 153.444 334.812 155.578C334.812 158.57 332.194 160.308 329.092 160.308ZM340.112 160C340.398 154.346 341.344 150.738 344.446 146.426H337.12V143.698H347.944V145.678C344.16 150.298 343.654 153.62 343.39 160H340.112ZM355.465 160.308C352.143 160.308 349.943 157.404 349.943 151.794C349.943 146.162 352.143 143.412 355.465 143.412C358.787 143.412 360.965 146.184 360.965 151.794C360.965 157.404 358.787 160.308 355.465 160.308ZM355.465 157.778C356.873 157.778 357.907 156.37 357.907 151.794C357.907 147.24 356.873 145.92 355.465 145.92C354.057 145.92 353.001 147.24 353.001 151.794C353.001 156.37 354.057 157.778 355.465 157.778Z" fill="black"/>
<path d="M0 5C0 2.23858 2.23858 0 5 0H80L0 80V5Z" fill="#FF6D00"/>
<path d="M15.9577 34V32.13C17.4391 30.81 18.7004 29.5853 19.7417 28.456C20.7977 27.3267 21.6044 26.278 22.1617 25.31C22.7191 24.3273 22.9977 23.418 22.9977 22.582C22.9977 22.054 22.9024 21.592 22.7117 21.196C22.5211 20.8 22.2424 20.4993 21.8757 20.294C21.5237 20.074 21.0837 19.964 20.5557 19.964C19.9691 19.964 19.4264 20.1327 18.9277 20.47C18.4437 20.7927 17.9964 21.1813 17.5857 21.636L15.7817 19.898C16.5444 19.0767 17.3217 18.4607 18.1137 18.05C18.9204 17.6247 19.8737 17.412 20.9737 17.412C22.0004 17.412 22.8951 17.6247 23.6577 18.05C24.4351 18.4607 25.0364 19.04 25.4617 19.788C25.8871 20.536 26.0997 21.416 26.0997 22.428C26.0997 23.4107 25.8504 24.4153 25.3517 25.442C24.8677 26.454 24.2151 27.466 23.3937 28.478C22.5724 29.49 21.6631 30.4873 20.6657 31.47C21.0911 31.4113 21.5457 31.3673 22.0297 31.338C22.5284 31.294 22.9684 31.272 23.3497 31.272H26.8697V34H15.9577Z" fill="white"/>
<rect width="635" height="60" transform="translate(0 240)" fill="#171717" fill-opacity="0.65"/>
<path d="M295.14 280.336C293.956 280.336 292.796 280.112 291.66 279.664C290.524 279.216 289.524 278.576 288.66 277.744L290.7 275.296C291.324 275.888 292.036 276.368 292.836 276.736C293.652 277.088 294.444 277.264 295.212 277.264C296.14 277.264 296.844 277.08 297.324 276.712C297.804 276.344 298.044 275.848 298.044 275.224C298.044 274.776 297.924 274.424 297.684 274.168C297.46 273.896 297.148 273.656 296.748 273.448C296.348 273.24 295.884 273.032 295.356 272.824L293.004 271.792C292.412 271.552 291.836 271.232 291.276 270.832C290.732 270.416 290.276 269.896 289.908 269.272C289.556 268.648 289.38 267.904 289.38 267.04C289.38 266.064 289.644 265.192 290.172 264.424C290.7 263.656 291.428 263.048 292.356 262.6C293.284 262.136 294.34 261.904 295.524 261.904C296.58 261.904 297.596 262.104 298.572 262.504C299.548 262.904 300.396 263.472 301.116 264.208L299.316 266.416C298.756 265.952 298.172 265.592 297.564 265.336C296.956 265.08 296.276 264.952 295.524 264.952C294.756 264.952 294.14 265.12 293.676 265.456C293.228 265.776 293.004 266.232 293.004 266.824C293.004 267.24 293.132 267.584 293.388 267.856C293.644 268.128 293.98 268.368 294.396 268.576C294.812 268.768 295.268 268.968 295.764 269.176L298.092 270.112C298.812 270.4 299.436 270.76 299.964 271.192C300.508 271.624 300.924 272.144 301.212 272.752C301.516 273.36 301.668 274.096 301.668 274.96C301.668 275.92 301.404 276.808 300.876 277.624C300.364 278.44 299.62 279.096 298.644 279.592C297.684 280.088 296.516 280.336 295.14 280.336ZM310.141 280.336C309.021 280.336 307.965 280.056 306.973 279.496C305.997 278.936 305.205 278.136 304.597 277.096C303.989 276.04 303.685 274.768 303.685 273.28C303.685 271.792 303.989 270.528 304.597 269.488C305.205 268.432 305.997 267.624 306.973 267.064C307.965 266.504 309.021 266.224 310.141 266.224C310.989 266.224 311.797 266.384 312.565 266.704C313.333 267.024 314.021 267.488 314.629 268.096C315.237 268.688 315.717 269.424 316.069 270.304C316.421 271.168 316.597 272.16 316.597 273.28C316.597 274.768 316.293 276.04 315.685 277.096C315.077 278.136 314.277 278.936 313.285 279.496C312.309 280.056 311.261 280.336 310.141 280.336ZM310.141 277.456C310.749 277.456 311.261 277.288 311.677 276.952C312.109 276.6 312.429 276.112 312.637 275.488C312.861 274.864 312.973 274.128 312.973 273.28C312.973 272.432 312.861 271.696 312.637 271.072C312.429 270.448 312.109 269.968 311.677 269.632C311.261 269.28 310.749 269.104 310.141 269.104C309.533 269.104 309.013 269.28 308.581 269.632C308.165 269.968 307.845 270.448 307.621 271.072C307.413 271.696 307.309 272.432 307.309 273.28C307.309 274.128 307.413 274.864 307.621 275.488C307.845 276.112 308.165 276.6 308.581 276.952C309.013 277.288 309.533 277.456 310.141 277.456ZM319.548 280V266.56H322.428L322.692 268.336H322.764C323.356 267.76 324.004 267.264 324.708 266.848C325.412 266.432 326.22 266.224 327.132 266.224C328.588 266.224 329.644 266.704 330.3 267.664C330.956 268.608 331.284 269.928 331.284 271.624V280H327.756V272.056C327.756 271.016 327.604 270.288 327.3 269.872C327.012 269.456 326.532 269.248 325.86 269.248C325.316 269.248 324.836 269.376 324.42 269.632C324.02 269.888 323.572 270.264 323.076 270.76V280H319.548ZM339.651 285.832C338.595 285.832 337.643 285.704 336.795 285.448C335.947 285.208 335.275 284.832 334.779 284.32C334.299 283.824 334.059 283.176 334.059 282.376C334.059 281.816 334.219 281.296 334.539 280.816C334.859 280.336 335.339 279.928 335.979 279.592V279.472C335.627 279.248 335.331 278.952 335.091 278.584C334.867 278.216 334.755 277.752 334.755 277.192C334.755 276.696 334.899 276.232 335.187 275.8C335.491 275.352 335.843 274.984 336.243 274.696V274.6C335.779 274.264 335.363 273.792 334.995 273.184C334.627 272.576 334.443 271.872 334.443 271.072C334.443 270.016 334.691 269.128 335.187 268.408C335.699 267.688 336.371 267.144 337.203 266.776C338.035 266.408 338.915 266.224 339.843 266.224C340.243 266.224 340.611 266.256 340.947 266.32C341.299 266.384 341.619 266.464 341.907 266.56H346.731V269.152H344.451C344.627 269.392 344.771 269.688 344.883 270.04C344.995 270.392 345.051 270.776 345.051 271.192C345.051 272.2 344.819 273.048 344.355 273.736C343.891 274.408 343.267 274.912 342.483 275.248C341.699 275.584 340.819 275.752 339.843 275.752C339.603 275.752 339.331 275.728 339.027 275.68C338.723 275.616 338.419 275.536 338.115 275.44C337.939 275.6 337.795 275.768 337.683 275.944C337.587 276.104 337.539 276.328 337.539 276.616C337.539 276.952 337.691 277.216 337.995 277.408C338.315 277.6 338.867 277.696 339.651 277.696H341.955C343.571 277.696 344.811 277.968 345.675 278.512C346.539 279.04 346.971 279.888 346.971 281.056C346.971 281.968 346.667 282.776 346.059 283.48C345.467 284.2 344.619 284.768 343.515 285.184C342.427 285.616 341.139 285.832 339.651 285.832ZM339.843 273.568C340.243 273.568 340.603 273.472 340.923 273.28C341.243 273.088 341.499 272.808 341.691 272.44C341.883 272.056 341.979 271.6 341.979 271.072C341.979 270.544 341.883 270.104 341.691 269.752C341.499 269.384 341.243 269.112 340.923 268.936C340.603 268.744 340.243 268.648 339.843 268.648C339.459 268.648 339.107 268.744 338.787 268.936C338.467 269.112 338.211 269.384 338.019 269.752C337.843 270.104 337.755 270.544 337.755 271.072C337.755 271.6 337.843 272.056 338.019 272.44C338.211 272.808 338.467 273.088 338.787 273.28C339.107 273.472 339.459 273.568 339.843 273.568ZM340.179 283.576C340.867 283.576 341.459 283.488 341.955 283.312C342.467 283.136 342.867 282.904 343.155 282.616C343.443 282.328 343.587 282.008 343.587 281.656C343.587 281.176 343.395 280.848 343.011 280.672C342.627 280.512 342.075 280.432 341.355 280.432H339.699C339.299 280.432 338.955 280.416 338.667 280.384C338.379 280.368 338.107 280.328 337.851 280.264C337.547 280.504 337.323 280.752 337.179 281.008C337.051 281.28 336.987 281.56 336.987 281.848C336.987 282.392 337.275 282.816 337.851 283.12C338.427 283.424 339.203 283.576 340.179 283.576Z" fill="white"/>
<!-- <ellipse cx="615" cy="260" rx="3" ry="3" transform="rotate(90 615 260)" fill="white"/>
<ellipse cx="615" cy="270" rx="3" ry="3" transform="rotate(90 615 270)" fill="white"/>
<ellipse cx="615" cy="280" rx="3" ry="3" transform="rotate(90 615 280)" fill="white"/> -->
</g>
</g>
<defs>
<filter id="filter0_d_6874_65062" x="-7" y="-5" width="655" height="320" filterUnits="userSpaceOnUse" color-interpolation-filters="sRGB">
<feFlood flood-opacity="0" result="BackgroundImageFix"/>
<feColorMatrix in="SourceAlpha" type="matrix" values="0 0 0 0 0 0 0 0 0 0 0 0 0 0 0 0 0 0 127 0" result="hardAlpha"/>
<feOffset dx="3" dy="5"/>
<feGaussianBlur stdDeviation="5"/>
<feComposite in2="hardAlpha" operator="out"/>
<feColorMatrix type="matrix" values="0 0 0 0 0 0 0 0 0 0 0 0 0 0 0 0 0 0 0.05 0"/>
<feBlend mode="multiply" in2="BackgroundImageFix" result="effect1_dropShadow_6874_65062"/>
<feBlend mode="normal" in="SourceGraphic" in2="effect1_dropShadow_6874_65062" result="shape"/>
</filter>
<clipPath id="clip0_6874_65062">
<path d="M0 5C0 2.23857 2.23858 0 5 0H630C632.761 0 635 2.23858 635 5V295C635 297.761 632.761 300 630 300H5C2.23857 300 0 297.761 0 295V5Z" fill="white"/>
</clipPath>
</defs>
</svg>
