<svg width="470" height="370" viewBox="0 0 470 370" fill="none" xmlns="http://www.w3.org/2000/svg">
<g filter="url(#filter0_d_6874_64314)">
<g clip-path="url(#clip0_6874_64314)">
<path d="M0 5C0 2.23857 2.23858 0 5 0H465C467.761 0 470 2.23858 470 5V365C470 367.761 467.761 370 465 370H5C2.23858 370 0 367.761 0 365V5Z" fill="white"/>
<rect width="470" height="370" fill="#C2E1EE"/>
<path d="M194.678 188.312H198.484V184.99C198.484 184.044 198.55 182.57 198.594 181.602H198.506C198.11 182.482 197.67 183.384 197.208 184.264L194.678 188.312ZM198.484 195V190.776H191.532V188.576L197.604 178.698H201.498V188.312H203.412V190.776H201.498V195H198.484ZM208.117 195C208.403 189.346 209.349 185.738 212.451 181.426H205.125V178.698H215.949V180.678C212.165 185.298 211.659 188.62 211.395 195H208.117ZM223.47 195.308C220.148 195.308 217.948 192.404 217.948 186.794C217.948 181.162 220.148 178.412 223.47 178.412C226.792 178.412 228.97 181.184 228.97 186.794C228.97 192.404 226.792 195.308 223.47 195.308ZM223.47 192.778C224.878 192.778 225.912 191.37 225.912 186.794C225.912 182.24 224.878 180.92 223.47 180.92C222.062 180.92 221.006 182.24 221.006 186.794C221.006 191.37 222.062 192.778 223.47 192.778ZM233.566 185.804L232.18 184.792L233.632 182.284L231.014 181.118L231.542 179.49L234.358 180.106L234.644 177.224H236.382L236.646 180.128L239.462 179.49L239.99 181.118L237.35 182.284L238.846 184.792L237.438 185.804L235.502 183.604L233.566 185.804ZM247.092 195.308C244.518 195.308 242.78 194.34 241.636 193.042L243.154 190.996C244.122 191.942 245.31 192.668 246.784 192.668C248.434 192.668 249.556 191.854 249.556 190.38C249.556 188.796 248.61 187.784 245.068 187.784V185.474C248.06 185.474 249.028 184.44 249.028 182.988C249.028 181.712 248.236 180.964 246.85 180.964C245.684 180.964 244.738 181.492 243.77 182.394L242.12 180.414C243.528 179.182 245.09 178.412 247.004 178.412C250.15 178.412 252.284 179.974 252.284 182.746C252.284 184.506 251.294 185.782 249.578 186.464V186.574C251.404 187.08 252.812 188.444 252.812 190.578C252.812 193.57 250.194 195.308 247.092 195.308ZM258.112 195C258.398 189.346 259.344 185.738 262.446 181.426H255.12V178.698H265.944V180.678C262.16 185.298 261.654 188.62 261.39 195H258.112ZM273.465 195.308C270.143 195.308 267.943 192.404 267.943 186.794C267.943 181.162 270.143 178.412 273.465 178.412C276.787 178.412 278.965 181.184 278.965 186.794C278.965 192.404 276.787 195.308 273.465 195.308ZM273.465 192.778C274.873 192.778 275.907 191.37 275.907 186.794C275.907 182.24 274.873 180.92 273.465 180.92C272.057 180.92 271.001 182.24 271.001 186.794C271.001 191.37 272.057 192.778 273.465 192.778Z" fill="black"/>
<rect width="470" height="60" transform="translate(0 310)" fill="#171717" fill-opacity="0.65"/>
<path d="M209.029 350.336C207.909 350.336 206.861 350.144 205.885 349.76C204.909 349.36 204.045 348.768 203.293 347.984C202.557 347.2 201.973 346.24 201.541 345.104C201.125 343.968 200.917 342.664 200.917 341.192C200.917 339.72 201.133 338.416 201.565 337.28C201.997 336.128 202.589 335.152 203.341 334.352C204.109 333.552 204.989 332.944 205.981 332.528C206.989 332.112 208.053 331.904 209.173 331.904C210.309 331.904 211.317 332.136 212.197 332.6C213.093 333.048 213.821 333.576 214.381 334.184L212.533 336.44C212.085 335.992 211.589 335.632 211.045 335.36C210.517 335.088 209.917 334.952 209.245 334.952C208.349 334.952 207.541 335.2 206.821 335.696C206.117 336.176 205.565 336.872 205.165 337.784C204.765 338.696 204.565 339.792 204.565 341.072C204.565 342.368 204.749 343.48 205.117 344.408C205.501 345.32 206.037 346.024 206.725 346.52C207.429 347.016 208.245 347.264 209.173 347.264C209.941 347.264 210.621 347.104 211.213 346.784C211.821 346.448 212.357 346.024 212.821 345.512L214.717 347.72C213.981 348.584 213.141 349.24 212.197 349.688C211.253 350.12 210.197 350.336 209.029 350.336ZM217.267 350V330.848H220.795V335.672L220.627 338.192C221.155 337.68 221.763 337.224 222.451 336.824C223.139 336.424 223.939 336.224 224.851 336.224C226.307 336.224 227.363 336.704 228.019 337.664C228.675 338.608 229.003 339.928 229.003 341.624V350H225.475V342.056C225.475 341.016 225.323 340.288 225.019 339.872C224.731 339.456 224.251 339.248 223.579 339.248C223.035 339.248 222.555 339.376 222.139 339.632C221.739 339.888 221.291 340.264 220.795 340.76V350H217.267ZM235.907 350.336C235.123 350.336 234.427 350.168 233.819 349.832C233.227 349.48 232.763 349 232.427 348.392C232.107 347.784 231.947 347.096 231.947 346.328C231.947 344.904 232.563 343.8 233.795 343.016C235.027 342.216 236.987 341.672 239.675 341.384C239.659 340.936 239.579 340.544 239.435 340.208C239.291 339.856 239.051 339.576 238.715 339.368C238.395 339.16 237.955 339.056 237.395 339.056C236.771 339.056 236.155 339.176 235.547 339.416C234.939 339.656 234.323 339.968 233.699 340.352L232.451 338C232.979 337.664 233.539 337.368 234.131 337.112C234.723 336.856 235.347 336.648 236.003 336.488C236.659 336.312 237.339 336.224 238.043 336.224C239.179 336.224 240.131 336.448 240.899 336.896C241.667 337.344 242.243 338.008 242.627 338.888C243.011 339.768 243.203 340.856 243.203 342.152V350H240.323L240.083 348.56H239.963C239.387 349.072 238.763 349.496 238.091 349.832C237.419 350.168 236.691 350.336 235.907 350.336ZM237.083 347.576C237.579 347.576 238.027 347.464 238.427 347.24C238.843 347 239.259 346.672 239.675 346.256V343.568C238.587 343.696 237.723 343.88 237.083 344.12C236.443 344.36 235.987 344.648 235.715 344.984C235.443 345.304 235.307 345.664 235.307 346.064C235.307 346.592 235.467 346.976 235.787 347.216C236.123 347.456 236.555 347.576 237.083 347.576ZM246.798 350V336.56H249.678L249.942 338.336H250.014C250.606 337.76 251.254 337.264 251.958 336.848C252.662 336.432 253.47 336.224 254.382 336.224C255.838 336.224 256.894 336.704 257.55 337.664C258.206 338.608 258.534 339.928 258.534 341.624V350H255.006V342.056C255.006 341.016 254.854 340.288 254.55 339.872C254.262 339.456 253.782 339.248 253.11 339.248C252.566 339.248 252.086 339.376 251.67 339.632C251.27 339.888 250.822 340.264 250.326 340.76V350H246.798ZM267.093 350.336C266.037 350.336 265.181 350.128 264.525 349.712C263.869 349.28 263.397 348.688 263.109 347.936C262.821 347.184 262.677 346.312 262.677 345.32V339.344H260.781V336.728L262.869 336.56L263.277 332.936H266.181V336.56H269.517V339.344H266.181V345.296C266.181 346.064 266.341 346.632 266.661 347C266.981 347.368 267.437 347.552 268.029 347.552C268.253 347.552 268.485 347.52 268.725 347.456C268.965 347.392 269.173 347.328 269.349 347.264L269.949 349.832C269.581 349.944 269.157 350.056 268.677 350.168C268.213 350.28 267.685 350.336 267.093 350.336Z" fill="white"/>
<!-- <ellipse cx="450" cy="330" rx="3" ry="3" transform="rotate(90 450 330)" fill="white"/>
<ellipse cx="450" cy="340" rx="3" ry="3" transform="rotate(90 450 340)" fill="white"/>
<ellipse cx="450" cy="350" rx="3" ry="3" transform="rotate(90 450 350)" fill="white"/> -->
<path d="M0 5C0 2.23858 2.23858 0 5 0H80L0 80V5Z" fill="#FF6D00"/>
<path d="M21.1057 34.308C20.2404 34.308 19.4704 34.2053 18.7957 34C18.1211 33.7947 17.5197 33.5233 16.9917 33.186C16.4637 32.8487 15.9944 32.482 15.5837 32.086L17.0797 30.018C17.3877 30.326 17.7177 30.6047 18.0697 30.854C18.4364 31.1033 18.8324 31.3013 19.2577 31.448C19.6977 31.5947 20.1671 31.668 20.6657 31.668C21.2231 31.668 21.7144 31.5507 22.1397 31.316C22.5797 31.0813 22.9244 30.744 23.1737 30.304C23.4231 29.8493 23.5477 29.3067 23.5477 28.676C23.5477 27.7373 23.2911 27.0113 22.7777 26.498C22.2791 25.9847 21.6191 25.728 20.7977 25.728C20.3284 25.728 19.9251 25.794 19.5877 25.926C19.2504 26.0433 18.8397 26.256 18.3557 26.564L16.8817 25.618L17.3217 17.698H26.0337V20.426H20.1157L19.8077 23.88C20.1304 23.7333 20.4457 23.6233 20.7537 23.55C21.0617 23.4767 21.3991 23.44 21.7657 23.44C22.6751 23.44 23.5111 23.6233 24.2737 23.99C25.0364 24.342 25.6451 24.8993 26.0997 25.662C26.5544 26.4247 26.7817 27.4 26.7817 28.588C26.7817 29.7907 26.5104 30.8247 25.9677 31.69C25.4397 32.5407 24.7431 33.1933 23.8777 33.648C23.0271 34.088 22.1031 34.308 21.1057 34.308Z" fill="white"/>
</g>
</g>
<defs>
<filter id="filter0_d_6874_64314" x="-7" y="-5" width="490" height="390" filterUnits="userSpaceOnUse" color-interpolation-filters="sRGB">
<feFlood flood-opacity="0" result="BackgroundImageFix"/>
<feColorMatrix in="SourceAlpha" type="matrix" values="0 0 0 0 0 0 0 0 0 0 0 0 0 0 0 0 0 0 127 0" result="hardAlpha"/>
<feOffset dx="3" dy="5"/>
<feGaussianBlur stdDeviation="5"/>
<feComposite in2="hardAlpha" operator="out"/>
<feColorMatrix type="matrix" values="0 0 0 0 0 0 0 0 0 0 0 0 0 0 0 0 0 0 0.05 0"/>
<feBlend mode="multiply" in2="BackgroundImageFix" result="effect1_dropShadow_6874_64314"/>
<feBlend mode="normal" in="SourceGraphic" in2="effect1_dropShadow_6874_64314" result="shape"/>
</filter>
<clipPath id="clip0_6874_64314">
<path d="M0 5C0 2.23857 2.23858 0 5 0H465C467.761 0 470 2.23858 470 5V365C470 367.761 467.761 370 465 370H5C2.23858 370 0 367.761 0 365V5Z" fill="white"/>
</clipPath>
</defs>
</svg>
