<svg width="41" height="41" viewBox="0 0 41 41" fill="none" xmlns="http://www.w3.org/2000/svg">
<path fill-rule="evenodd" clip-rule="evenodd" d="M25.4472 17.4482C28.0423 20.0433 28.0423 24.2506 25.4472 26.8457C22.8522 29.4407 18.6448 29.4407 16.0498 26.8457C13.4548 24.2506 13.4548 20.0433 16.0498 17.4482C18.6448 14.8532 22.8522 14.8532 25.4472 17.4482Z" stroke="black" stroke-width="1.5" stroke-linecap="round" stroke-linejoin="round"/>
<path fill-rule="evenodd" clip-rule="evenodd" d="M35.6489 15.5013V30.5013C35.6489 32.343 34.1573 33.8346 32.3156 33.8346H8.98226C7.14059 33.8346 5.64893 32.343 5.64893 30.5013V15.5013C5.64893 13.6596 7.14059 12.168 8.98226 12.168H12.3156L14.7523 7.99464C15.0506 7.48297 15.5989 7.16797 16.1923 7.16797H25.0323C25.6173 7.16797 26.1589 7.47464 26.4606 7.97464L28.9823 12.168H32.3156C34.1573 12.168 35.6489 13.6596 35.6489 15.5013Z" stroke="black" stroke-width="1.5" stroke-linecap="round" stroke-linejoin="round"/>
</svg>
