<svg width="165" height="110" viewBox="0 0 165 110" fill="none" xmlns="http://www.w3.org/2000/svg">
<g clip-path="url(#clip0_6796_188510)">
<rect x="0.5" width="164" height="110" rx="14" fill="#D9E8FF"/>
<path d="M154.584 43.6165L154.516 43.7895C149.143 36.14 140.24 31.919 131.147 32.3294C130.616 32.3245 130.083 32.3338 129.546 32.3448C129.855 30.3732 129.597 28.2855 128.682 26.3449C126.245 21.175 120.074 18.9624 114.898 21.4026C109.722 23.8429 107.503 30.0116 109.94 35.1815C110.135 35.5956 110.358 35.9924 110.6 36.3666C109.143 36.9391 107.656 37.5786 106.124 38.3008C105.371 38.656 104.632 39.0222 103.91 39.3887C103.78 39.0011 103.631 38.6184 103.452 38.2404C101.015 33.0704 94.8436 30.8578 89.6679 33.298C84.4921 35.7383 82.2725 41.907 84.7101 47.077C85.4603 48.6683 86.5665 49.9773 87.8836 50.9581C85.0416 53.9659 82.9496 57.0601 81.6216 60.1021C78.8777 65.8316 78.1653 72.4778 79.8954 78.857L79.86 78.8473C82.599 91.1976 87.7795 113.398 105.04 136.768L105.044 136.766C105.921 138.131 107.168 139.149 108.586 139.765C108.884 140.258 109.749 140.458 111.098 140.394C112.263 140.491 113.461 140.332 114.612 139.886C121.751 138.377 134.345 133.693 148.226 127.149C162.106 120.605 173.732 113.869 179.439 109.321C180.515 108.717 181.401 107.895 182.07 106.932C182.974 105.934 183.369 105.136 183.18 104.596C183.605 103.124 183.618 101.525 183.134 99.9927C183.172 99.9615 183.206 99.932 183.244 99.9008C176.2 71.7098 162.369 53.5877 154.584 43.6165Z" fill="#FDFDFF" stroke="#C1C1C1" stroke-width="3" stroke-miterlimit="10"/>
<path d="M154.584 43.6165L154.516 43.7895C149.143 36.14 140.24 31.919 131.147 32.3294C130.616 32.3245 130.083 32.3338 129.546 32.3448C129.855 30.3732 129.597 28.2855 128.682 26.3449C126.245 21.175 120.074 18.9624 114.898 21.4026C109.722 23.8429 107.503 30.0116 109.94 35.1815C110.135 35.5956 110.358 35.9924 110.6 36.3666C109.143 36.9391 107.656 37.5786 106.124 38.3008C105.371 38.656 104.632 39.0222 103.91 39.3887C103.78 39.0011 103.631 38.6184 103.452 38.2404C101.015 33.0704 94.8436 30.8578 89.6679 33.298C84.4921 35.7383 82.2725 41.907 84.7101 47.077C85.4603 48.6683 86.5665 49.9773 87.8836 50.9581C85.0416 53.9659 82.9496 57.0601 81.6216 60.1021C78.8777 65.8316 78.1653 72.4778 79.8954 78.857L79.86 78.8473C82.599 91.1976 87.7795 113.398 105.04 136.768L105.044 136.766C105.921 138.131 107.168 139.149 108.586 139.765C108.884 140.258 109.749 140.458 111.098 140.394C112.263 140.491 113.461 140.332 114.612 139.886C121.751 138.377 134.345 133.693 148.226 127.149C162.106 120.605 173.732 113.869 179.439 109.321C180.515 108.717 181.401 107.895 182.07 106.932C182.974 105.934 183.369 105.136 183.18 104.596C183.605 103.124 183.618 101.525 183.134 99.9927C183.172 99.9615 183.206 99.932 183.244 99.9008C176.2 71.7098 162.369 53.5877 154.584 43.6165Z" fill="#FDFDFF" stroke="#C1C1C1" stroke-width="3" stroke-miterlimit="10"/>
<path d="M98.4869 52.0193C103.662 49.5792 105.882 43.4101 103.445 38.2404C101.007 33.0707 94.8358 30.8579 89.6602 33.2981C84.4847 35.7382 82.265 41.9073 84.7024 47.077C87.1398 52.2467 93.3113 54.4595 98.4869 52.0193Z" fill="url(#paint0_linear_6796_188510)"/>
<path d="M123.713 40.1221C128.889 37.6819 131.109 31.5129 128.671 26.3432C126.234 21.1734 120.062 18.9607 114.887 21.4009C109.711 23.841 107.492 30.01 109.929 35.1798C112.366 40.3495 118.538 42.5623 123.713 40.1221Z" fill="url(#paint1_linear_6796_188510)"/>
<path d="M117.641 34.3327C115.404 29.8031 114.584 24.9796 115.65 21.2424C115.341 21.353 115.035 21.4796 114.732 21.6224C114.466 21.7481 114.206 21.8883 113.953 22.0339C112.804 25.7924 113.08 30.2652 115.054 34.4522C116.383 37.2712 118.302 39.5746 120.521 41.2437C121.163 41.1567 121.797 41.0072 122.429 40.7971C120.601 39.2081 118.965 37.0091 117.641 34.3327Z" fill="#7DB0EF"/>
<path d="M97.9929 43.5982C95.9218 38.9904 92.7226 35.2885 89.161 33.7333C89.443 33.5652 89.7354 33.4097 90.0381 33.267C90.3048 33.1412 90.5783 33.0299 90.8516 32.9274C94.4821 34.4325 97.757 37.4915 99.7311 41.6785C101.06 44.4975 101.616 47.4433 101.492 50.2169C101.017 50.6567 100.498 51.051 99.9335 51.4051C99.8711 48.9834 99.2155 46.3222 97.9929 43.5982Z" fill="#7DB0EF"/>
<path d="M113.633 59.8395C116.022 58.7133 117.047 55.866 115.922 53.48C114.797 51.094 111.948 50.0727 109.56 51.1989C107.171 52.3252 106.146 55.1724 107.271 57.5584C108.396 59.9445 111.245 60.9657 113.633 59.8395Z" fill="#FDFDFF"/>
<path d="M152.485 135.249C170.699 126.661 182.918 114.3 179.778 107.639C176.637 100.978 159.326 102.54 141.112 111.127C122.898 119.715 110.679 132.076 113.819 138.737C116.96 145.398 134.271 143.836 152.485 135.249Z" fill="#26213E"/>
<path d="M154.576 43.6134L154.507 43.7863C149.134 36.1368 140.232 31.9158 131.139 32.3262C123.599 32.2856 115.602 33.825 106.112 38.2994C93.1654 44.4034 84.9625 52.4207 81.6095 60.1007C78.8656 65.8301 78.1532 72.4764 79.8833 78.8556L79.8515 78.8442C82.5905 91.1945 87.771 113.395 105.032 136.765L105.036 136.763C107.162 140.077 111.467 141.388 115.129 139.661C116.019 139.241 116.787 138.673 117.435 138.011L117.652 138.472L178.565 109.753L178.556 109.735C178.679 109.686 178.803 109.64 178.925 109.583C182.576 107.861 184.306 103.728 183.123 99.9859C183.161 99.9547 183.196 99.9252 183.234 99.894C176.191 71.7067 162.361 53.5845 154.576 43.6134Z" fill="url(#paint2_linear_6796_188510)"/>
<path d="M148.221 127.14C168.824 117.426 184.462 107.295 183.149 104.511C181.837 101.727 164.071 107.345 143.468 117.059C122.866 126.773 107.228 136.904 108.54 139.687C109.853 142.471 127.619 136.853 148.221 127.14Z" fill="url(#paint3_linear_6796_188510)"/>
<path d="M139.571 47.6059C141.96 46.4797 142.984 43.6325 141.859 41.2464C140.734 38.8604 137.886 37.8391 135.497 38.9654C133.108 40.0916 132.084 42.9388 133.209 45.3249C134.334 47.7109 137.182 48.7322 139.571 47.6059Z" fill="#FDFDFF"/>
<path d="M121.354 98.6358L117.141 100.499L124.503 115.684L128.717 113.821L121.354 98.6358Z" stroke="#CECECE" stroke-width="10" stroke-miterlimit="10"/>
<path d="M114.491 107.755L117.016 113.016L131.377 106.564L128.852 101.302L114.491 107.755Z" stroke="#CECECE" stroke-width="10" stroke-miterlimit="10"/>
<path d="M121.018 97.911L116.805 99.774L124.167 114.96L128.381 113.097L121.018 97.911Z" fill="white" stroke="white" stroke-width="5" stroke-miterlimit="10"/>
<path d="M114.155 107.03L116.68 112.291L131.041 105.839L128.516 100.578L114.155 107.03Z" fill="white" stroke="white" stroke-width="5" stroke-miterlimit="10"/>
<path d="M158.798 98.7376L160.125 94.4552L144.44 88.2888L143.113 92.5712L158.798 98.7376Z" stroke="#CECECE" stroke-width="10" stroke-miterlimit="10"/>
<path d="M146.445 99.9574L152.086 102.143L156.781 87.0733L151.14 84.8881L146.445 99.9574Z" stroke="#CECECE" stroke-width="10" stroke-miterlimit="10"/>
<path d="M158.415 98.2902L159.742 94.0079L144.057 87.8415L142.73 92.1239L158.415 98.2902Z" fill="white" stroke="white" stroke-width="5" stroke-miterlimit="10"/>
<path d="M146.062 99.5162L151.703 101.701L156.398 86.6321L150.758 84.4468L146.062 99.5162Z" fill="white" stroke="white" stroke-width="5" stroke-miterlimit="10"/>
<path d="M118.8 99.1358L116.789 100.014L117.931 102.34L119.943 101.462L118.8 99.1358Z" fill="#5163A5"/>
<path d="M121.332 97.9442L119.32 98.8221L120.462 101.149L122.474 100.271L121.332 97.9442Z" fill="#5163A5"/>
<path d="M119.988 101.654L117.977 102.531L119.119 104.858L121.13 103.98L119.988 101.654Z" fill="#5163A5"/>
<path d="M122.496 100.464L120.484 101.342L121.627 103.668L123.638 102.791L122.496 100.464Z" fill="#5163A5"/>
<path d="M121.183 104.171L119.172 105.049L120.314 107.376L122.325 106.498L121.183 104.171Z" fill="#5163A5"/>
<path d="M123.699 102.982L121.688 103.86L122.83 106.186L124.841 105.308L123.699 102.982Z" fill="#5163A5"/>
<path d="M122.379 106.689L120.367 107.567L121.509 109.894L123.521 109.016L122.379 106.689Z" fill="#5163A5"/>
<path d="M124.902 105.502L122.891 106.38L124.033 108.706L126.044 107.828L124.902 105.502Z" fill="#5163A5"/>
<path d="M126.214 101.792L124.203 102.67L125.345 104.996L127.357 104.119L126.214 101.792Z" fill="#5163A5"/>
<path d="M128.754 100.607L126.742 101.485L127.884 103.811L129.896 102.933L128.754 100.607Z" fill="#5163A5"/>
<path d="M127.41 104.319L125.398 105.196L126.541 107.523L128.552 106.645L127.41 104.319Z" fill="#5163A5"/>
<path d="M129.925 103.125L127.914 104.003L129.056 106.329L131.068 105.451L129.925 103.125Z" fill="#5163A5"/>
<path d="M116.129 106.549L114.117 107.426L115.259 109.753L117.271 108.875L116.129 106.549Z" fill="#5163A5"/>
<path d="M118.66 105.365L116.648 106.243L117.791 108.57L119.802 107.692L118.66 105.365Z" fill="#5163A5"/>
<path d="M117.316 109.068L115.305 109.946L116.447 112.273L118.458 111.395L117.316 109.068Z" fill="#5163A5"/>
<path d="M119.839 107.883L117.828 108.761L118.97 111.087L120.982 110.209L119.839 107.883Z" fill="#5163A5"/>
<path d="M123.558 109.213L121.547 110.091L122.689 112.418L124.7 111.54L123.558 109.213Z" fill="#5163A5"/>
<path d="M126.074 108.026L124.062 108.904L125.205 111.23L127.216 110.352L126.074 108.026Z" fill="#5163A5"/>
<path d="M143.128 90.4284L142.508 92.5354L144.918 93.5145L145.538 91.4074L143.128 90.4284Z" fill="#5163A5"/>
<path d="M144.073 87.8041L143.453 89.9111L145.863 90.8902L146.483 88.7832L144.073 87.8041Z" fill="#5163A5"/>
<path d="M145.753 91.3706L145.133 93.4777L147.543 94.4568L148.163 92.3497L145.753 91.3706Z" fill="#5163A5"/>
<path d="M146.691 88.7485L146.07 90.8555L148.48 91.8346L149.101 89.7276L146.691 88.7485Z" fill="#5163A5"/>
<path d="M148.37 92.3107L147.75 94.4178L150.16 95.3969L150.78 93.2898L148.37 92.3107Z" fill="#5163A5"/>
<path d="M149.316 89.6886L148.695 91.7957L151.105 92.7747L151.726 90.6677L149.316 89.6886Z" fill="#5163A5"/>
<path d="M151.003 93.2532L150.383 95.3603L152.793 96.3394L153.413 94.2323L151.003 93.2532Z" fill="#5163A5"/>
<path d="M151.941 90.6202L151.32 92.7273L153.73 93.7064L154.351 91.5993L151.941 90.6202Z" fill="#5163A5"/>
<path d="M150.261 87.0601L149.641 89.1671L152.051 90.1462L152.671 88.0392L150.261 87.0601Z" fill="#5163A5"/>
<path d="M151.206 84.4358L150.586 86.5428L152.996 87.5219L153.616 85.4149L151.206 84.4358Z" fill="#5163A5"/>
<path d="M152.886 88.0065L152.266 90.1136L154.676 91.0927L155.296 88.9856L152.886 88.0065Z" fill="#5163A5"/>
<path d="M153.831 85.3781L153.211 87.4851L155.621 88.4642L156.241 86.3572L153.831 85.3781Z" fill="#5163A5"/>
<path d="M146.487 97.5531L145.867 99.6602L148.277 100.639L148.897 98.5322L146.487 97.5531Z" fill="#5163A5"/>
<path d="M147.441 94.9352L146.82 97.0422L149.23 98.0213L149.851 95.9143L147.441 94.9352Z" fill="#5163A5"/>
<path d="M149.112 98.4974L148.492 100.604L150.902 101.584L151.522 99.4765L149.112 98.4974Z" fill="#5163A5"/>
<path d="M150.058 95.8775L149.438 97.9845L151.847 98.9636L152.468 96.8565L150.058 95.8775Z" fill="#5163A5"/>
<path d="M153.628 94.189L153.008 96.2961L155.418 97.2752L156.038 95.1681L153.628 94.189Z" fill="#5163A5"/>
<path d="M154.566 91.5648L153.945 93.6718L156.355 94.6509L156.976 92.5439L154.566 91.5648Z" fill="#5163A5"/>
<path d="M156.253 95.1334L155.633 97.2405L158.043 98.2196L158.663 96.1125L156.253 95.1334Z" fill="#5163A5"/>
<path d="M157.183 92.5049L156.562 94.6119L158.972 95.591L159.593 93.484L157.183 92.5049Z" fill="#5163A5"/>
<path d="M115.267 38.7693L100.768 45.2293C100.695 45.2618 100.615 45.2878 100.545 45.3188C76.4731 55.7532 89.2268 81.4542 89.2268 81.4542C91.1078 85.3423 95.2369 87.3378 98.4436 85.9091C98.5651 85.855 98.6808 85.7889 98.7964 85.7228L98.808 85.7467L108.615 81.3772L139.485 67.6237L149.293 63.2541C152.503 61.8239 153.576 57.5106 151.695 53.6225C151.695 53.6225 139.345 27.4315 115.267 38.7693Z" fill="#D8D8D8"/>
<path d="M115.697 40.4178L101.818 46.6085C101.749 46.6395 101.674 46.6681 101.606 46.6935C78.5726 56.7058 90.144 80.0141 90.144 80.0141C91.8498 83.5443 95.7201 85.2935 98.7927 83.923C98.9108 83.8702 99.0197 83.8071 99.1306 83.748L99.1402 83.7679L108.525 79.5819L138.068 66.4036L147.453 62.2175C150.525 60.847 151.632 56.8776 149.926 53.3474C149.926 53.3474 138.75 29.5811 115.697 40.4178Z" fill="#7399F6"/>
<mask id="mask0_6796_188510" style="mask-type:luminance" maskUnits="userSpaceOnUse" x="88" y="37" width="64" height="48">
<path d="M116.596 40.6414L102.785 46.7561C102.716 46.7867 102.641 46.8149 102.573 46.8399C79.6503 56.7239 91.402 80.3296 91.402 80.3296C93.1352 83.9044 97.0155 85.7033 100.073 84.3496C100.191 84.2976 100.299 84.2349 100.409 84.1763L100.419 84.1965L109.757 80.0618L139.157 67.0453L148.495 62.9107C151.553 61.5569 152.625 57.5651 150.892 53.9902C150.892 53.9902 139.532 29.9264 116.596 40.6414Z" fill="white"/>
</mask>
<g mask="url(#mask0_6796_188510)">
<path d="M117.348 39.4184L103.537 45.5341C103.467 45.5647 103.393 45.5928 103.325 45.6179C80.4003 55.5036 92.1493 79.1052 92.1493 79.1052C93.882 82.6795 97.7622 84.4778 100.82 83.1238C100.938 83.0718 101.046 83.0091 101.156 82.9505L101.166 82.9707L110.505 78.8353L139.906 65.8167L149.246 61.6814C152.303 60.3274 153.377 56.3359 151.644 52.7616C151.644 52.7616 140.286 28.7018 117.348 39.4184Z" fill="#B6DCF5"/>
</g>
<mask id="mask1_6796_188510" style="mask-type:luminance" maskUnits="userSpaceOnUse" x="100" y="39" width="68" height="61">
<path d="M165.298 56.772C158.26 41.8602 138.623 35.5765 121.437 42.7369C104.251 49.8974 96.0238 67.7905 103.062 82.7022C110.099 97.614 129.737 103.898 146.923 96.7373C164.109 89.5768 172.335 71.6838 165.298 56.772Z" fill="white"/>
</mask>
<g mask="url(#mask1_6796_188510)">
<path d="M115.534 40.2465L101.732 46.3522C101.662 46.3828 101.588 46.4108 101.52 46.4359C78.6112 56.3046 90.3863 79.9459 90.3863 79.9459C92.1231 83.5261 96.0047 85.331 99.0603 83.9793C99.1778 83.9273 99.286 83.8647 99.3961 83.8062L99.406 83.8264L108.739 79.6978L138.119 66.7005L147.452 62.572C150.508 61.2203 151.576 57.2257 149.839 53.6455C149.839 53.6455 138.455 29.546 115.534 40.2465Z" fill="#6C90DE"/>
</g>
<mask id="mask2_6796_188510" style="mask-type:luminance" maskUnits="userSpaceOnUse" x="109" y="36" width="57" height="50">
<path d="M109.708 79.0669C109.708 79.0669 132.737 65.8798 143.462 41.9931C154.186 18.1064 165.686 85.1417 165.686 85.1417L109.708 79.0669Z" fill="white"/>
</mask>
<g mask="url(#mask2_6796_188510)">
<path d="M115.533 40.2458L101.731 46.3514C101.662 46.3819 101.588 46.41 101.52 46.435C78.6112 56.3036 90.3865 79.9453 90.3865 79.9453C92.1233 83.5255 96.0049 85.3305 99.0605 83.9788C99.178 83.9268 99.2862 83.8642 99.3963 83.8056L99.4062 83.8259L108.739 79.6974L138.119 66.7003L147.452 62.5718C150.508 61.2201 151.576 57.2254 149.839 53.6452C149.839 53.6452 138.454 29.5454 115.533 40.2458Z" fill="#6384F2"/>
</g>
<path d="M100.13 73.4675C102.51 72.4162 103.632 69.9075 102.636 67.8643C101.64 65.821 98.902 65.0168 96.5214 66.0681C94.1408 67.1194 93.0187 69.6281 94.0151 71.6714C95.0115 73.7147 97.7491 74.5188 100.13 73.4675Z" fill="#D8E1EF"/>
<path d="M127.297 54.069C129.151 53.259 129.803 50.8682 128.754 48.7291C127.704 46.5901 125.351 45.5127 123.497 46.3228C121.643 47.1329 120.991 49.5236 122.041 51.6627C123.09 53.8018 125.443 54.8791 127.297 54.069Z" fill="#2C3155" stroke="#DBEDFC" stroke-miterlimit="10"/>
<path d="M124.561 50.2564C125.117 50.0134 125.313 49.2962 124.998 48.6544C124.683 48.0127 123.977 47.6895 123.421 47.9325C122.865 48.1756 122.669 48.8928 122.984 49.5345C123.299 50.1762 124.005 50.4994 124.561 50.2564Z" fill="#AFB4D6"/>
<path d="M104.946 64.6085C106.799 63.7985 107.451 61.4077 106.402 59.2686C105.353 57.1296 102.999 56.0522 101.145 56.8623C99.2918 57.6723 98.6398 60.0631 99.6891 62.2022C100.739 64.3412 103.092 65.4186 104.946 64.6085Z" fill="#2C3155" stroke="#DBEDFC" stroke-miterlimit="10"/>
<path d="M103.295 60.2842C103.852 60.0412 104.047 59.324 103.732 58.6823C103.417 58.0405 102.711 57.7173 102.155 57.9604C101.599 58.2034 101.404 58.9206 101.718 59.5623C102.033 60.2041 102.739 60.5273 103.295 60.2842Z" fill="#AFB4D6"/>
<path d="M121.393 57.3933C121.087 56.7609 120.456 56.4136 119.983 56.6233C119.623 56.7825 119.464 57.2152 119.541 57.6948C119.541 57.6948 119.191 60.6877 117.487 61.4422C115.783 62.1968 113.167 60.5171 113.167 60.5171C112.837 60.1492 112.385 59.9874 112.026 60.1466C111.556 60.3547 111.42 61.0361 111.729 61.6726C111.93 62.0875 112.272 62.3765 112.613 62.4652C116.534 65.094 118.41 63.353 118.453 63.4416C118.41 63.353 121.013 63.1105 121.448 58.5533C121.603 58.2401 121.595 57.8081 121.393 57.3933Z" fill="black" stroke="#A3B5D3" stroke-miterlimit="10"/>
<path d="M137.161 56.005C139.542 54.9537 140.664 52.445 139.667 50.4017C138.671 48.3584 135.933 47.5543 133.553 48.6056C131.172 49.6569 130.05 52.1656 131.046 54.2089C132.043 56.2521 134.78 57.0563 137.161 56.005Z" fill="#B5CDF2"/>
<path d="M106.037 52.1156C106.776 51.7902 107.039 50.8376 106.624 49.9881C106.208 49.1386 105.273 48.7138 104.534 49.0393C103.794 49.3647 103.532 50.3173 103.947 51.1668C104.362 52.0163 105.298 52.4411 106.037 52.1156Z" fill="#C9E4F2"/>
<path d="M117.248 46.8337C117.987 46.5082 118.25 45.5557 117.835 44.7061C117.419 43.8566 116.484 43.4318 115.745 43.7573C115.005 44.0828 114.743 45.0353 115.158 45.8848C115.573 46.7343 116.509 47.1591 117.248 46.8337Z" fill="#C9E4F2"/>
<path d="M115.576 43.832L104.641 48.7703L106.2 52.0356L117.135 47.0974L115.576 43.832Z" fill="#C9E4F2"/>
<path d="M154.584 43.6165L154.516 43.7895C149.143 36.14 140.24 31.919 131.147 32.3294C130.616 32.3245 130.083 32.3338 129.546 32.3448C129.855 30.3732 129.597 28.2855 128.682 26.3449C126.245 21.175 120.074 18.9624 114.898 21.4026C109.722 23.8429 107.503 30.0116 109.94 35.1815C110.135 35.5956 110.358 35.9924 110.6 36.3666C109.143 36.9391 107.656 37.5786 106.124 38.3008C105.371 38.656 104.632 39.0222 103.91 39.3887C103.78 39.0011 103.631 38.6184 103.452 38.2404C101.015 33.0704 94.8436 30.8578 89.6679 33.298C84.4921 35.7383 82.2725 41.907 84.7101 47.077C85.4603 48.6683 86.5665 49.9773 87.8836 50.9581C85.0416 53.9659 82.9496 57.0601 81.6216 60.1021C78.8777 65.8316 78.1653 72.4778 79.8954 78.857L79.86 78.8473C82.599 91.1976 87.7795 113.398 105.04 136.768L105.044 136.766C105.921 138.131 107.168 139.149 108.586 139.765C108.884 140.258 109.749 140.458 111.098 140.394C112.263 140.491 113.461 140.332 114.612 139.886C121.751 138.377 134.345 133.693 148.226 127.149C162.106 120.605 173.732 113.869 179.439 109.321C180.515 108.717 181.401 107.895 182.07 106.932C182.974 105.934 183.369 105.136 183.18 104.596C183.605 103.124 183.618 101.525 183.134 99.9927C183.172 99.9615 183.206 99.932 183.244 99.9008C176.2 71.7098 162.369 53.5877 154.584 43.6165Z" fill="#FDFDFF" stroke="#C1C1C1" stroke-width="3" stroke-miterlimit="10"/>
<path d="M154.584 43.6165L154.516 43.7895C149.143 36.14 140.24 31.919 131.147 32.3294C130.616 32.3245 130.083 32.3338 129.546 32.3448C129.855 30.3732 129.597 28.2855 128.682 26.3449C126.245 21.175 120.074 18.9624 114.898 21.4026C109.722 23.8429 107.503 30.0116 109.94 35.1815C110.135 35.5956 110.358 35.9924 110.6 36.3666C109.143 36.9391 107.656 37.5786 106.124 38.3008C105.371 38.656 104.632 39.0222 103.91 39.3887C103.78 39.0011 103.631 38.6184 103.452 38.2404C101.015 33.0704 94.8436 30.8578 89.6679 33.298C84.4921 35.7383 82.2725 41.907 84.7101 47.077C85.4603 48.6683 86.5665 49.9773 87.8836 50.9581C85.0416 53.9659 82.9496 57.0601 81.6216 60.1021C78.8777 65.8316 78.1653 72.4778 79.8954 78.857L79.86 78.8473C82.599 91.1976 87.7795 113.398 105.04 136.768L105.044 136.766C105.921 138.131 107.168 139.149 108.586 139.765C108.884 140.258 109.749 140.458 111.098 140.394C112.263 140.491 113.461 140.332 114.612 139.886C121.751 138.377 134.345 133.693 148.226 127.149C162.106 120.605 173.732 113.869 179.439 109.321C180.515 108.717 181.401 107.895 182.07 106.932C182.974 105.934 183.369 105.136 183.18 104.596C183.605 103.124 183.618 101.525 183.134 99.9927C183.172 99.9615 183.206 99.932 183.244 99.9008C176.2 71.7098 162.369 53.5877 154.584 43.6165Z" fill="#FDFDFF" stroke="#C1C1C1" stroke-width="3" stroke-miterlimit="10"/>
<path d="M98.4869 52.0193C103.662 49.5792 105.882 43.4101 103.445 38.2404C101.007 33.0707 94.8358 30.8579 89.6602 33.2981C84.4847 35.7382 82.265 41.9073 84.7024 47.077C87.1398 52.2467 93.3113 54.4595 98.4869 52.0193Z" fill="url(#paint4_linear_6796_188510)"/>
<path d="M123.713 40.1221C128.889 37.6819 131.109 31.5129 128.671 26.3432C126.234 21.1734 120.062 18.9607 114.887 21.4009C109.711 23.841 107.492 30.01 109.929 35.1798C112.366 40.3495 118.538 42.5623 123.713 40.1221Z" fill="url(#paint5_linear_6796_188510)"/>
<path d="M117.641 34.3327C115.404 29.8031 114.584 24.9796 115.65 21.2424C115.341 21.353 115.035 21.4796 114.732 21.6224C114.466 21.7481 114.206 21.8883 113.953 22.0339C112.804 25.7924 113.08 30.2652 115.054 34.4522C116.383 37.2712 118.302 39.5746 120.521 41.2437C121.163 41.1567 121.797 41.0072 122.429 40.7971C120.601 39.2081 118.965 37.0091 117.641 34.3327Z" fill="#7DB0EF"/>
<path d="M97.9929 43.5982C95.9218 38.9904 92.7226 35.2885 89.161 33.7333C89.443 33.5652 89.7354 33.4097 90.0381 33.267C90.3048 33.1412 90.5783 33.0299 90.8516 32.9274C94.4821 34.4325 97.757 37.4915 99.7311 41.6785C101.06 44.4975 101.616 47.4433 101.492 50.2169C101.017 50.6567 100.498 51.051 99.9335 51.4051C99.8711 48.9834 99.2155 46.3222 97.9929 43.5982Z" fill="#7DB0EF"/>
<path d="M113.633 59.8395C116.022 58.7133 117.047 55.866 115.922 53.48C114.797 51.094 111.948 50.0727 109.56 51.1989C107.171 52.3252 106.146 55.1724 107.271 57.5584C108.396 59.9445 111.245 60.9657 113.633 59.8395Z" fill="#FDFDFF"/>
<path d="M152.485 135.249C170.699 126.661 182.918 114.3 179.778 107.639C176.637 100.978 159.326 102.54 141.112 111.127C122.898 119.715 110.679 132.076 113.819 138.737C116.96 145.398 134.271 143.836 152.485 135.249Z" fill="#26213E"/>
<path d="M154.576 43.6134L154.507 43.7863C149.134 36.1368 140.232 31.9158 131.139 32.3262C123.599 32.2856 115.602 33.825 106.112 38.2994C93.1654 44.4034 84.9625 52.4207 81.6095 60.1007C78.8656 65.8301 78.1532 72.4764 79.8833 78.8556L79.8515 78.8442C82.5905 91.1945 87.771 113.395 105.032 136.765L105.036 136.763C107.162 140.077 111.467 141.388 115.129 139.661C116.019 139.241 116.787 138.673 117.435 138.011L117.652 138.472L178.565 109.753L178.556 109.735C178.679 109.686 178.803 109.64 178.925 109.583C182.576 107.861 184.306 103.728 183.123 99.9859C183.161 99.9547 183.196 99.9252 183.234 99.894C176.191 71.7067 162.361 53.5845 154.576 43.6134Z" fill="url(#paint6_linear_6796_188510)"/>
<path d="M148.221 127.14C168.824 117.426 184.462 107.295 183.149 104.511C181.837 101.727 164.071 107.345 143.468 117.059C122.866 126.773 107.228 136.904 108.54 139.687C109.853 142.471 127.619 136.853 148.221 127.14Z" fill="url(#paint7_linear_6796_188510)"/>
<path d="M139.571 47.6059C141.96 46.4797 142.984 43.6325 141.859 41.2464C140.734 38.8604 137.886 37.8391 135.497 38.9654C133.108 40.0916 132.084 42.9388 133.209 45.3249C134.334 47.7109 137.182 48.7322 139.571 47.6059Z" fill="#FDFDFF"/>
<path d="M121.354 98.6358L117.141 100.499L124.503 115.684L128.717 113.821L121.354 98.6358Z" stroke="#CECECE" stroke-width="10" stroke-miterlimit="10"/>
<path d="M114.491 107.755L117.016 113.016L131.377 106.564L128.852 101.302L114.491 107.755Z" stroke="#CECECE" stroke-width="10" stroke-miterlimit="10"/>
<path d="M121.018 97.911L116.805 99.774L124.167 114.96L128.381 113.097L121.018 97.911Z" fill="white" stroke="white" stroke-width="5" stroke-miterlimit="10"/>
<path d="M114.155 107.03L116.68 112.291L131.041 105.839L128.516 100.578L114.155 107.03Z" fill="white" stroke="white" stroke-width="5" stroke-miterlimit="10"/>
<path d="M158.798 98.7376L160.125 94.4552L144.44 88.2888L143.113 92.5712L158.798 98.7376Z" stroke="#CECECE" stroke-width="10" stroke-miterlimit="10"/>
<path d="M146.445 99.9574L152.086 102.143L156.781 87.0733L151.14 84.8881L146.445 99.9574Z" stroke="#CECECE" stroke-width="10" stroke-miterlimit="10"/>
<path d="M158.415 98.2902L159.742 94.0079L144.057 87.8415L142.73 92.1239L158.415 98.2902Z" fill="white" stroke="white" stroke-width="5" stroke-miterlimit="10"/>
<path d="M146.062 99.5162L151.703 101.701L156.398 86.6321L150.758 84.4468L146.062 99.5162Z" fill="white" stroke="white" stroke-width="5" stroke-miterlimit="10"/>
<path d="M118.8 99.1358L116.789 100.014L117.931 102.34L119.943 101.462L118.8 99.1358Z" fill="#5163A5"/>
<path d="M121.332 97.9442L119.32 98.8221L120.462 101.149L122.474 100.271L121.332 97.9442Z" fill="#5163A5"/>
<path d="M119.988 101.654L117.977 102.531L119.119 104.858L121.13 103.98L119.988 101.654Z" fill="#5163A5"/>
<path d="M122.496 100.464L120.484 101.342L121.627 103.668L123.638 102.791L122.496 100.464Z" fill="#5163A5"/>
<path d="M121.183 104.171L119.172 105.049L120.314 107.376L122.325 106.498L121.183 104.171Z" fill="#5163A5"/>
<path d="M123.699 102.982L121.688 103.86L122.83 106.186L124.841 105.308L123.699 102.982Z" fill="#5163A5"/>
<path d="M122.379 106.689L120.367 107.567L121.509 109.894L123.521 109.016L122.379 106.689Z" fill="#5163A5"/>
<path d="M124.902 105.502L122.891 106.38L124.033 108.706L126.044 107.828L124.902 105.502Z" fill="#5163A5"/>
<path d="M126.214 101.792L124.203 102.67L125.345 104.996L127.357 104.119L126.214 101.792Z" fill="#5163A5"/>
<path d="M128.754 100.607L126.742 101.485L127.884 103.811L129.896 102.933L128.754 100.607Z" fill="#5163A5"/>
<path d="M127.41 104.319L125.398 105.196L126.541 107.523L128.552 106.645L127.41 104.319Z" fill="#5163A5"/>
<path d="M129.925 103.125L127.914 104.003L129.056 106.329L131.068 105.451L129.925 103.125Z" fill="#5163A5"/>
<path d="M116.129 106.549L114.117 107.426L115.259 109.753L117.271 108.875L116.129 106.549Z" fill="#5163A5"/>
<path d="M118.66 105.365L116.648 106.243L117.791 108.57L119.802 107.692L118.66 105.365Z" fill="#5163A5"/>
<path d="M117.316 109.068L115.305 109.946L116.447 112.273L118.458 111.395L117.316 109.068Z" fill="#5163A5"/>
<path d="M119.839 107.883L117.828 108.761L118.97 111.087L120.982 110.209L119.839 107.883Z" fill="#5163A5"/>
<path d="M123.558 109.213L121.547 110.091L122.689 112.418L124.7 111.54L123.558 109.213Z" fill="#5163A5"/>
<path d="M126.074 108.026L124.062 108.904L125.205 111.23L127.216 110.352L126.074 108.026Z" fill="#5163A5"/>
<path d="M143.128 90.4284L142.508 92.5354L144.918 93.5145L145.538 91.4074L143.128 90.4284Z" fill="#5163A5"/>
<path d="M144.073 87.8041L143.453 89.9111L145.863 90.8902L146.483 88.7832L144.073 87.8041Z" fill="#5163A5"/>
<path d="M145.753 91.3706L145.133 93.4777L147.543 94.4568L148.163 92.3497L145.753 91.3706Z" fill="#5163A5"/>
<path d="M146.691 88.7485L146.07 90.8555L148.48 91.8346L149.101 89.7276L146.691 88.7485Z" fill="#5163A5"/>
<path d="M148.37 92.3107L147.75 94.4178L150.16 95.3969L150.78 93.2898L148.37 92.3107Z" fill="#5163A5"/>
<path d="M149.316 89.6886L148.695 91.7957L151.105 92.7747L151.726 90.6677L149.316 89.6886Z" fill="#5163A5"/>
<path d="M151.003 93.2532L150.383 95.3603L152.793 96.3394L153.413 94.2323L151.003 93.2532Z" fill="#5163A5"/>
<path d="M151.941 90.6202L151.32 92.7273L153.73 93.7064L154.351 91.5993L151.941 90.6202Z" fill="#5163A5"/>
<path d="M150.261 87.0601L149.641 89.1671L152.051 90.1462L152.671 88.0392L150.261 87.0601Z" fill="#5163A5"/>
<path d="M151.206 84.4358L150.586 86.5428L152.996 87.5219L153.616 85.4149L151.206 84.4358Z" fill="#5163A5"/>
<path d="M152.886 88.0065L152.266 90.1136L154.676 91.0927L155.296 88.9856L152.886 88.0065Z" fill="#5163A5"/>
<path d="M153.831 85.3781L153.211 87.4851L155.621 88.4642L156.241 86.3572L153.831 85.3781Z" fill="#5163A5"/>
<path d="M146.487 97.5531L145.867 99.6602L148.277 100.639L148.897 98.5322L146.487 97.5531Z" fill="#5163A5"/>
<path d="M147.441 94.9352L146.82 97.0422L149.23 98.0213L149.851 95.9143L147.441 94.9352Z" fill="#5163A5"/>
<path d="M149.112 98.4974L148.492 100.604L150.902 101.584L151.522 99.4765L149.112 98.4974Z" fill="#5163A5"/>
<path d="M150.058 95.8775L149.438 97.9845L151.847 98.9636L152.468 96.8565L150.058 95.8775Z" fill="#5163A5"/>
<path d="M153.628 94.189L153.008 96.2961L155.418 97.2752L156.038 95.1681L153.628 94.189Z" fill="#5163A5"/>
<path d="M154.566 91.5648L153.945 93.6718L156.355 94.6509L156.976 92.5439L154.566 91.5648Z" fill="#5163A5"/>
<path d="M156.253 95.1334L155.633 97.2405L158.043 98.2196L158.663 96.1125L156.253 95.1334Z" fill="#5163A5"/>
<path d="M157.183 92.5049L156.562 94.6119L158.972 95.591L159.593 93.484L157.183 92.5049Z" fill="#5163A5"/>
<path d="M115.267 38.7693L100.768 45.2293C100.695 45.2618 100.615 45.2878 100.545 45.3188C76.4731 55.7532 89.2268 81.4542 89.2268 81.4542C91.1078 85.3423 95.2369 87.3378 98.4436 85.9091C98.5651 85.855 98.6808 85.7889 98.7964 85.7228L98.808 85.7467L108.615 81.3772L139.485 67.6237L149.293 63.2541C152.503 61.8239 153.576 57.5106 151.695 53.6225C151.695 53.6225 139.345 27.4315 115.267 38.7693Z" fill="#D8D8D8"/>
<path d="M115.697 40.4178L101.818 46.6085C101.749 46.6395 101.674 46.6681 101.606 46.6935C78.5726 56.7058 90.144 80.0141 90.144 80.0141C91.8498 83.5443 95.7201 85.2935 98.7927 83.923C98.9108 83.8702 99.0197 83.8071 99.1306 83.748L99.1402 83.7679L108.525 79.5819L138.068 66.4036L147.453 62.2175C150.525 60.847 151.632 56.8776 149.926 53.3474C149.926 53.3474 138.75 29.5811 115.697 40.4178Z" fill="#7399F6"/>
<mask id="mask3_6796_188510" style="mask-type:luminance" maskUnits="userSpaceOnUse" x="88" y="37" width="64" height="48">
<path d="M116.596 40.6414L102.785 46.7561C102.716 46.7867 102.641 46.8149 102.573 46.8399C79.6503 56.7239 91.402 80.3296 91.402 80.3296C93.1352 83.9044 97.0155 85.7033 100.073 84.3496C100.191 84.2976 100.299 84.2349 100.409 84.1763L100.419 84.1965L109.757 80.0618L139.157 67.0453L148.495 62.9107C151.553 61.5569 152.625 57.5651 150.892 53.9902C150.892 53.9902 139.532 29.9264 116.596 40.6414Z" fill="white"/>
</mask>
<g mask="url(#mask3_6796_188510)">
<path d="M117.348 39.4184L103.537 45.5341C103.467 45.5647 103.393 45.5928 103.325 45.6179C80.4003 55.5036 92.1493 79.1052 92.1493 79.1052C93.882 82.6795 97.7622 84.4778 100.82 83.1238C100.938 83.0718 101.046 83.0091 101.156 82.9505L101.166 82.9707L110.505 78.8353L139.906 65.8167L149.246 61.6814C152.303 60.3274 153.377 56.3359 151.644 52.7616C151.644 52.7616 140.286 28.7018 117.348 39.4184Z" fill="#B6DCF5"/>
</g>
<mask id="mask4_6796_188510" style="mask-type:luminance" maskUnits="userSpaceOnUse" x="100" y="39" width="68" height="61">
<path d="M165.298 56.772C158.26 41.8602 138.623 35.5765 121.437 42.7369C104.251 49.8974 96.0238 67.7905 103.062 82.7022C110.099 97.614 129.737 103.898 146.923 96.7373C164.109 89.5768 172.335 71.6838 165.298 56.772Z" fill="white"/>
</mask>
<g mask="url(#mask4_6796_188510)">
<path d="M115.534 40.2465L101.732 46.3522C101.662 46.3828 101.588 46.4108 101.52 46.4359C78.6112 56.3046 90.3863 79.9459 90.3863 79.9459C92.1231 83.5261 96.0047 85.331 99.0603 83.9793C99.1778 83.9273 99.286 83.8647 99.3961 83.8062L99.406 83.8264L108.739 79.6978L138.119 66.7005L147.452 62.572C150.508 61.2203 151.576 57.2257 149.839 53.6455C149.839 53.6455 138.455 29.546 115.534 40.2465Z" fill="#6C90DE"/>
</g>
<mask id="mask5_6796_188510" style="mask-type:luminance" maskUnits="userSpaceOnUse" x="109" y="36" width="57" height="50">
<path d="M109.708 79.0669C109.708 79.0669 132.737 65.8798 143.462 41.9931C154.186 18.1064 165.686 85.1417 165.686 85.1417L109.708 79.0669Z" fill="white"/>
</mask>
<g mask="url(#mask5_6796_188510)">
<path d="M115.533 40.2458L101.731 46.3514C101.662 46.3819 101.588 46.41 101.52 46.435C78.6112 56.3036 90.3865 79.9453 90.3865 79.9453C92.1233 83.5255 96.0049 85.3305 99.0605 83.9788C99.178 83.9268 99.2862 83.8642 99.3963 83.8056L99.4062 83.8259L108.739 79.6974L138.119 66.7003L147.452 62.5718C150.508 61.2201 151.576 57.2254 149.839 53.6452C149.839 53.6452 138.454 29.5454 115.533 40.2458Z" fill="#6384F2"/>
</g>
<path d="M100.13 73.4675C102.51 72.4162 103.632 69.9075 102.636 67.8643C101.64 65.821 98.902 65.0168 96.5214 66.0681C94.1408 67.1194 93.0187 69.6281 94.0151 71.6714C95.0115 73.7147 97.7491 74.5188 100.13 73.4675Z" fill="#D8E1EF"/>
<path d="M127.297 54.069C129.151 53.259 129.803 50.8682 128.754 48.7291C127.704 46.5901 125.351 45.5127 123.497 46.3228C121.643 47.1329 120.991 49.5236 122.041 51.6627C123.09 53.8018 125.443 54.8791 127.297 54.069Z" fill="#2C3155" stroke="#DBEDFC" stroke-miterlimit="10"/>
<path d="M124.561 50.2564C125.117 50.0134 125.313 49.2962 124.998 48.6544C124.683 48.0127 123.977 47.6895 123.421 47.9325C122.865 48.1756 122.669 48.8928 122.984 49.5345C123.299 50.1762 124.005 50.4994 124.561 50.2564Z" fill="#AFB4D6"/>
<path d="M104.946 64.6085C106.799 63.7985 107.451 61.4077 106.402 59.2686C105.353 57.1296 102.999 56.0522 101.145 56.8623C99.2918 57.6723 98.6398 60.0631 99.6891 62.2022C100.739 64.3412 103.092 65.4186 104.946 64.6085Z" fill="#2C3155" stroke="#DBEDFC" stroke-miterlimit="10"/>
<path d="M103.295 60.2842C103.852 60.0412 104.047 59.324 103.732 58.6823C103.417 58.0405 102.711 57.7173 102.155 57.9604C101.599 58.2034 101.404 58.9206 101.718 59.5623C102.033 60.2041 102.739 60.5273 103.295 60.2842Z" fill="#AFB4D6"/>
<path d="M121.393 57.3933C121.087 56.7609 120.456 56.4136 119.983 56.6233C119.623 56.7825 119.464 57.2152 119.541 57.6948C119.541 57.6948 119.191 60.6877 117.487 61.4422C115.783 62.1968 113.167 60.5171 113.167 60.5171C112.837 60.1492 112.385 59.9874 112.026 60.1466C111.556 60.3547 111.42 61.0361 111.729 61.6726C111.93 62.0875 112.272 62.3765 112.613 62.4652C116.534 65.094 118.41 63.353 118.453 63.4416C118.41 63.353 121.013 63.1105 121.448 58.5533C121.603 58.2401 121.595 57.8081 121.393 57.3933Z" fill="black" stroke="#A3B5D3" stroke-miterlimit="10"/>
<path d="M137.161 56.005C139.542 54.9537 140.664 52.445 139.667 50.4017C138.671 48.3584 135.933 47.5543 133.553 48.6056C131.172 49.6569 130.05 52.1656 131.046 54.2089C132.043 56.2521 134.78 57.0563 137.161 56.005Z" fill="#B5CDF2"/>
<path d="M106.037 52.1156C106.776 51.7902 107.039 50.8376 106.624 49.9881C106.208 49.1386 105.273 48.7138 104.534 49.0393C103.794 49.3647 103.532 50.3173 103.947 51.1668C104.362 52.0163 105.298 52.4411 106.037 52.1156Z" fill="#C9E4F2"/>
<path d="M117.248 46.8337C117.987 46.5082 118.25 45.5557 117.835 44.7061C117.419 43.8566 116.484 43.4318 115.745 43.7573C115.005 44.0828 114.743 45.0353 115.158 45.8848C115.573 46.7343 116.509 47.1591 117.248 46.8337Z" fill="#C9E4F2"/>
<path d="M115.576 43.832L104.641 48.7703L106.2 52.0356L117.135 47.0974L115.576 43.832Z" fill="#C9E4F2"/>
<path d="M100.13 73.4675C102.51 72.4162 103.632 69.9075 102.636 67.8643C101.64 65.821 98.902 65.0168 96.5214 66.0681C94.1408 67.1194 93.0187 69.6281 94.0151 71.6714C95.0115 73.7147 97.7491 74.5188 100.13 73.4675Z" fill="#D8E1EF"/>
<path d="M127.297 54.069C129.151 53.259 129.803 50.8682 128.754 48.7291C127.704 46.5901 125.351 45.5127 123.497 46.3228C121.643 47.1329 120.991 49.5236 122.041 51.6627C123.09 53.8018 125.443 54.8791 127.297 54.069Z" fill="#2C3155" stroke="#DBEDFC" stroke-miterlimit="10"/>
<path d="M124.561 50.2564C125.117 50.0134 125.313 49.2962 124.998 48.6544C124.683 48.0127 123.977 47.6895 123.421 47.9325C122.865 48.1756 122.669 48.8928 122.984 49.5345C123.299 50.1762 124.005 50.4994 124.561 50.2564Z" fill="#AFB4D6"/>
<path d="M104.946 64.6085C106.799 63.7985 107.451 61.4077 106.402 59.2686C105.353 57.1296 102.999 56.0522 101.145 56.8623C99.2918 57.6723 98.6398 60.0631 99.6891 62.2022C100.739 64.3412 103.092 65.4186 104.946 64.6085Z" fill="#2C3155" stroke="#DBEDFC" stroke-miterlimit="10"/>
<path d="M103.295 60.2842C103.852 60.0412 104.047 59.324 103.732 58.6823C103.417 58.0405 102.711 57.7173 102.155 57.9604C101.599 58.2034 101.404 58.9206 101.718 59.5623C102.033 60.2041 102.739 60.5273 103.295 60.2842Z" fill="#AFB4D6"/>
<path d="M121.393 57.3933C121.087 56.7609 120.456 56.4136 119.983 56.6233C119.623 56.7825 119.464 57.2152 119.541 57.6948C119.541 57.6948 119.191 60.6877 117.487 61.4422C115.783 62.1968 113.167 60.5171 113.167 60.5171C112.837 60.1492 112.385 59.9874 112.026 60.1466C111.556 60.3547 111.42 61.0361 111.729 61.6726C111.93 62.0875 112.272 62.3765 112.613 62.4652C116.534 65.094 118.41 63.353 118.453 63.4416C118.41 63.353 121.013 63.1105 121.448 58.5533C121.603 58.2401 121.595 57.8081 121.393 57.3933Z" fill="black" stroke="#A3B5D3" stroke-miterlimit="10"/>
<path d="M137.161 56.005C139.542 54.9537 140.664 52.445 139.667 50.4017C138.671 48.3584 135.933 47.5543 133.553 48.6056C131.172 49.6569 130.05 52.1656 131.046 54.2089C132.043 56.2521 134.78 57.0563 137.161 56.005Z" fill="#B5CDF2"/>
<path d="M106.037 52.1156C106.776 51.7902 107.039 50.8376 106.624 49.9881C106.208 49.1386 105.273 48.7138 104.534 49.0393C103.794 49.3647 103.532 50.3173 103.947 51.1668C104.362 52.0163 105.298 52.4411 106.037 52.1156Z" fill="#C9E4F2"/>
<path d="M117.248 46.8337C117.987 46.5082 118.25 45.5557 117.835 44.7061C117.419 43.8566 116.484 43.4318 115.745 43.7573C115.005 44.0828 114.743 45.0353 115.158 45.8848C115.573 46.7343 116.509 47.1591 117.248 46.8337Z" fill="#C9E4F2"/>
<path d="M115.576 43.832L104.641 48.7703L106.2 52.0356L117.135 47.0974L115.576 43.832Z" fill="#C9E4F2"/>
<path d="M85.5394 102.696C85.5394 102.696 83.292 101.374 83.6751 109.5C83.9036 110.783 85.7791 111.346 85.7791 111.346L88.5844 113.807C88.5844 113.807 90.3595 113.953 91.5916 112.494C92.8238 111.034 85.5394 102.696 85.5394 102.696Z" fill="white" stroke="#999999" stroke-width="3" stroke-miterlimit="10"/>
<path d="M84.0974 110.114C84.0974 110.114 83.0955 124.184 87.7224 131.247C92.3494 138.309 96.1158 133.934 96.1158 133.934C96.1158 133.934 97.5127 131.96 95.6854 128.216C93.8582 124.472 90.6517 119.514 89.5318 113.188C89.0838 110.658 84.0561 109.223 84.0974 110.114Z" fill="#4F5886" stroke="#999999" stroke-width="3" stroke-miterlimit="10"/>
<path d="M84.0935 110.118C84.0935 110.118 83.1126 124.186 87.7424 131.255C92.3723 138.324 96.127 133.955 96.127 133.955C96.127 133.955 97.519 131.983 95.6894 128.236C93.8597 124.489 90.6511 119.527 89.5241 113.2C89.0733 110.669 84.0511 109.227 84.0935 110.118Z" fill="#3C4570" stroke="#999999" stroke-width="3" stroke-miterlimit="10"/>
<path d="M85.5394 102.696C85.5394 102.696 83.292 101.374 83.6751 109.5C83.9036 110.783 85.7791 111.346 85.7791 111.346L88.5844 113.807C88.5844 113.807 90.3595 113.953 91.5916 112.494C92.8238 111.034 85.5394 102.696 85.5394 102.696Z" fill="white"/>
<path d="M84.0974 110.114C84.0974 110.114 83.0955 124.184 87.7224 131.247C92.3494 138.309 96.1158 133.934 96.1158 133.934C96.1158 133.934 97.5127 131.96 95.6854 128.216C93.8582 124.472 90.6517 119.514 89.5318 113.188C89.0838 110.658 84.0561 109.223 84.0974 110.114Z" fill="#4F5886"/>
<path d="M84.0935 110.118C84.0935 110.118 83.1126 124.186 87.7424 131.255C92.3723 138.324 96.127 133.955 96.127 133.955C96.127 133.955 97.519 131.983 95.6894 128.236C93.8597 124.489 90.6511 119.527 89.5241 113.2C89.0733 110.669 84.0511 109.227 84.0935 110.118Z" fill="#3C4570"/>
<path d="M85.5668 102.708C85.5668 102.708 83.3156 101.403 83.6481 109.52C83.8696 110.799 85.7517 111.348 85.7517 111.348L88.5565 113.786C88.5565 113.786 90.3405 113.919 91.5889 112.452C92.8373 110.985 85.5668 102.708 85.5668 102.708Z" fill="white"/>
<path d="M84.1435 110.143C84.1435 110.143 83.0452 124.225 87.6591 131.255C92.2731 138.285 96.0932 133.881 96.0932 133.881C96.0932 133.881 97.5123 131.895 95.6963 128.164C93.8803 124.432 90.6833 119.496 89.5959 113.177C89.1609 110.65 84.1076 109.252 84.1435 110.143Z" fill="#4F5886"/>
<mask id="mask6_6796_188510" style="mask-type:luminance" maskUnits="userSpaceOnUse" x="85" y="109" width="22" height="38">
<path d="M87.464 109.809C87.464 109.809 87.0827 112.282 88.477 116.749C89.8712 121.216 95.6607 129.816 93.4273 132.145C91.1957 134.479 88.5537 132.839 86.841 129.908C85.1232 126.976 86.0303 138.575 86.0303 138.575L97.3044 146.118L106.269 140.828L98.0107 118.315L87.464 109.809Z" fill="white"/>
</mask>
<g mask="url(#mask6_6796_188510)">
<path d="M84.0782 110.099C84.0782 110.099 83.1108 124.166 87.7425 131.239C92.3742 138.312 96.1214 133.947 96.1214 133.947C96.1214 133.947 97.5104 131.976 95.6791 128.227C93.8478 124.479 90.6379 119.514 89.5063 113.186C89.0537 110.655 84.035 109.208 84.0782 110.099Z" fill="#3C4570"/>
</g>
<path d="M29.4717 25.7831H31.9206V27.424H29.4717V35.5539H27.5138V19.6796H29.4717V25.7831ZM21.2921 20.8294C23.6913 20.8356 25.413 23.011 25.4254 26.442C25.413 29.8978 23.6913 32.0732 21.2921 32.067C18.8867 32.0732 17.1588 29.8978 17.1651 26.442C17.1588 23.011 18.8867 20.8356 21.2921 20.8294ZM21.2921 30.3018C22.6471 30.3018 23.5421 28.8847 23.5421 26.442C23.5421 24.018 22.6471 22.5946 21.2921 22.5946C19.962 22.5946 19.0421 24.018 19.0483 26.442C19.0421 28.8847 19.962 30.3018 21.2921 30.3018ZM43.835 19.6796H45.8053V35.5912H43.835V19.6796ZM37.2466 20.8294C39.6271 20.8356 41.3798 23.011 41.3798 26.442C41.3798 29.8978 39.6271 32.0732 37.2466 32.067C34.835 32.0732 33.0884 29.8978 33.0946 26.442C33.0884 23.011 34.835 20.8356 37.2466 20.8294ZM37.2466 22.5946C35.8916 22.5946 34.9779 24.018 34.9779 26.442C34.9779 28.8847 35.8916 30.3018 37.2466 30.3018C38.5767 30.3018 39.4903 28.8847 39.4903 26.442C39.4903 24.018 38.5767 22.5946 37.2466 22.5946ZM60.2618 23.5083V19.6796H62.0891V28.9593H60.2618V25.1181H58.8757V28.8785H57.0857V26.9206L56.1471 28.288C55.2024 27.7162 54.6243 26.8149 54.2825 25.7894C53.9593 26.8646 53.3999 27.8405 52.4365 28.4807C51.4731 27.8405 50.9075 26.846 50.5905 25.7707C50.2362 26.8025 49.6582 27.7162 48.7259 28.288L47.7687 26.8957C49.3474 25.8453 49.7576 23.8066 49.7576 22.2776V20.5746H51.4544V22.2776C51.4544 23.3653 51.6098 24.9503 52.4427 26.1747C53.2507 24.9938 53.4123 23.4648 53.4123 22.2776V20.5746H55.134V22.2776C55.1216 23.8626 55.5069 25.8515 57.0857 26.8833V19.9593H58.8757V23.5083H60.2618ZM62.0891 35.3674H50.8826V29.6181H62.0891V35.3674ZM60.1623 31.1657H52.8032V33.7887H60.1623V31.1657ZM28.7569 47.174H27.2217V51.0401H25.3695V41.9593H27.2217V45.5704H28.7569V41.692H30.6153V52.4199H28.7569V47.174ZM21.0497 47.8577C20.4965 49.2127 19.4834 50.3315 17.9979 50.9157L17.0532 49.4862C19.0732 48.6844 20.0677 46.9192 20.0801 45.1167H17.4634V43.5691H20.0801V41.8909H21.9323V43.5691H24.5117V45.1167H21.9323C21.9323 46.7887 22.9454 48.4171 24.9655 49.1568L24.0704 50.6174C22.616 50.0829 21.6153 49.0822 21.0497 47.8577ZM26.1526 51.6989V52.0035C26.1464 53.8184 28.1851 55.5401 31.3612 55.9627L30.6713 57.4793C28.1167 57.1188 26.1526 55.9814 25.1768 54.4088C24.1885 55.9814 22.2244 57.1188 19.6823 57.4793L18.9862 55.9627C22.1747 55.5401 24.1823 53.8184 24.1948 52.0035V51.6989H26.1526ZM40.7894 48.0628V49.5173H47.0608V51.0711H32.585V49.5173H38.8564V48.0628H34.4558V42.1209H36.3888V43.6312H43.2507V42.1209H45.1961V48.0628H40.7894ZM43.2507 45.1167H36.3888V46.5338H43.2507V45.1167ZM40.7956 51.9537V52.308C40.7956 54.0297 42.7348 55.6022 46.0352 55.9751L45.3391 57.4793C42.7535 57.125 40.7894 56.0932 39.8135 54.6077C38.8315 56.0932 36.8674 57.125 34.3129 57.4793L33.6043 55.9751C36.8674 55.6022 38.8129 54.0297 38.8191 52.308V51.9537H40.7956Z" fill="black"/>
</g>
<defs>
<linearGradient id="paint0_linear_6796_188510" x1="86.1246" y1="22.8578" x2="102.297" y2="63.1287" gradientUnits="userSpaceOnUse">
<stop stop-color="white"/>
<stop offset="0.405" stop-color="#F2F1F2"/>
<stop offset="0.9926" stop-color="#C8C5CE"/>
</linearGradient>
<linearGradient id="paint1_linear_6796_188510" x1="111.351" y1="10.9606" x2="127.524" y2="51.2314" gradientUnits="userSpaceOnUse">
<stop stop-color="white"/>
<stop offset="0.405" stop-color="#F2F1F2"/>
<stop offset="0.9926" stop-color="#C8C5CE"/>
</linearGradient>
<linearGradient id="paint2_linear_6796_188510" x1="116.909" y1="60.5815" x2="147.431" y2="125.317" gradientUnits="userSpaceOnUse">
<stop stop-color="white"/>
<stop offset="0.405" stop-color="#F2F1F2"/>
<stop offset="0.9926" stop-color="#C8C5CE"/>
</linearGradient>
<linearGradient id="paint3_linear_6796_188510" x1="116.853" y1="60.6082" x2="147.375" y2="125.344" gradientUnits="userSpaceOnUse">
<stop stop-color="white"/>
<stop offset="0.405" stop-color="#F2F1F2"/>
<stop offset="0.9926" stop-color="#C8C5CE"/>
</linearGradient>
<linearGradient id="paint4_linear_6796_188510" x1="86.1246" y1="22.8578" x2="102.297" y2="63.1287" gradientUnits="userSpaceOnUse">
<stop stop-color="white"/>
<stop offset="0.405" stop-color="#F2F1F2"/>
<stop offset="0.9926" stop-color="#C8C5CE"/>
</linearGradient>
<linearGradient id="paint5_linear_6796_188510" x1="111.351" y1="10.9606" x2="127.524" y2="51.2314" gradientUnits="userSpaceOnUse">
<stop stop-color="white"/>
<stop offset="0.405" stop-color="#F2F1F2"/>
<stop offset="0.9926" stop-color="#C8C5CE"/>
</linearGradient>
<linearGradient id="paint6_linear_6796_188510" x1="116.909" y1="60.5815" x2="147.431" y2="125.317" gradientUnits="userSpaceOnUse">
<stop stop-color="white"/>
<stop offset="0.405" stop-color="#F2F1F2"/>
<stop offset="0.9926" stop-color="#C8C5CE"/>
</linearGradient>
<linearGradient id="paint7_linear_6796_188510" x1="116.853" y1="60.6082" x2="147.375" y2="125.344" gradientUnits="userSpaceOnUse">
<stop stop-color="white"/>
<stop offset="0.405" stop-color="#F2F1F2"/>
<stop offset="0.9926" stop-color="#C8C5CE"/>
</linearGradient>
<clipPath id="clip0_6796_188510">
<rect x="0.5" width="164" height="110" rx="14" fill="white"/>
</clipPath>
</defs>
</svg>
