<svg width="101" height="101" viewBox="0 0 101 101" fill="none" xmlns="http://www.w3.org/2000/svg">
<path fill-rule="evenodd" clip-rule="evenodd" d="M54.6673 21.833C54.6673 14.9294 49.0709 9.33301 42.1673 9.33301H27.5815C25.9245 9.33301 24.3355 9.99121 23.1638 11.1628C21.9922 12.3345 21.334 13.9236 21.334 15.5805V69.7505C21.334 73.2023 24.1322 76.0005 27.584 76.0005H42.1682C49.0713 76.0005 54.6673 81.5966 54.6673 88.4997V21.833Z" stroke="black" stroke-width="5" stroke-linecap="round" stroke-linejoin="round"/>
<path d="M67.168 38.5039H79.668" stroke="#FF6600" stroke-width="5" stroke-linecap="round" stroke-linejoin="round"/>
<path d="M67.168 53.0874H79.668" stroke="#FF6600" stroke-width="5" stroke-linecap="round" stroke-linejoin="round"/>
<path d="M67.168 67.6709H79.668" stroke="#FF6600" stroke-width="5" stroke-linecap="round" stroke-linejoin="round"/>
<path d="M53.9451 17.6709H83.834C88.4364 17.6709 92.1673 21.4019 92.1673 26.0042V80.1709C92.1673 84.7733 88.4364 88.5042 83.834 88.5042H17.1673C12.5649 88.5042 8.83398 84.7733 8.83398 80.1709V26.0042C8.83398 21.4019 12.5649 17.6709 17.1673 17.6709H21.334" stroke="black" stroke-width="5" stroke-linecap="round" stroke-linejoin="round"/>
</svg>
