<svg width="92" height="82" viewBox="0 0 92 82" fill="none" xmlns="http://www.w3.org/2000/svg">
<path d="M10.667 2.00002V12.6329H0.000325203L10.667 2.00002Z" fill="#2C729E"/>
<g filter="url(#filter0_d_9154_435063)">
<path d="M10.667 2H69.7781C76.4055 2 81.7781 7.37258 81.7781 14V50.7596C81.7781 55.6568 78.8023 60.0626 74.2594 61.8914L51.3396 71.1182C48.5178 72.2542 45.3699 72.2761 42.5325 71.1796L18.3412 61.8305C13.7164 60.0431 10.667 55.5955 10.667 50.6373V2Z" fill="#46A7E5"/>
</g>
<path opacity="0.8" d="M13.833 4.61414H67.1108C73.4621 4.61414 78.6108 9.76286 78.6108 16.1141V48.6089C78.6108 53.302 75.759 57.5243 71.4054 59.2769L51.0978 67.4521C48.3936 68.5407 45.3768 68.5617 42.6577 67.5109L21.1875 59.2134C16.7553 57.5005 13.833 53.2382 13.833 48.4866V4.61414Z" fill="#46A7E5" stroke="white"/>
<defs>
<filter id="filter0_d_9154_435063" x="8.66699" y="0" width="83.1113" height="81.9863" filterUnits="userSpaceOnUse" color-interpolation-filters="sRGB">
<feFlood flood-opacity="0" result="BackgroundImageFix"/>
<feColorMatrix in="SourceAlpha" type="matrix" values="0 0 0 0 0 0 0 0 0 0 0 0 0 0 0 0 0 0 127 0" result="hardAlpha"/>
<feOffset dx="4" dy="4"/>
<feGaussianBlur stdDeviation="3"/>
<feComposite in2="hardAlpha" operator="out"/>
<feColorMatrix type="matrix" values="0 0 0 0 0 0 0 0 0 0 0 0 0 0 0 0 0 0 0.2 0"/>
<feBlend mode="normal" in2="BackgroundImageFix" result="effect1_dropShadow_9154_435063"/>
<feBlend mode="normal" in="SourceGraphic" in2="effect1_dropShadow_9154_435063" result="shape"/>
</filter>
</defs>
</svg>
