<svg width="30" height="30" viewBox="0 0 30 30" fill="none" xmlns="http://www.w3.org/2000/svg">
<path d="M26.6693 17.3333V6.83333C26.6693 5.54467 25.6246 4.5 24.3359 4.5H5.66927C4.38061 4.5 3.33594 5.54467 3.33594 6.83333V22C3.33594 23.2887 4.38061 24.3333 5.66927 24.3333H15.0026" stroke="black" stroke-width="1.5" stroke-linecap="round" stroke-linejoin="round"/>
<path fill-rule="evenodd" clip-rule="evenodd" d="M17.9308 14.9184L24.8792 21.8668C25.7103 22.6979 25.7103 24.0455 24.8792 24.8766C24.048 25.7077 22.7005 25.7077 21.8693 24.8766L14.9209 17.9283C14.4747 17.482 14.1852 16.9031 14.096 16.2784L13.8418 14.4993C13.8158 14.3176 13.877 14.1342 14.0068 14.0044C14.1366 13.8745 14.32 13.8134 14.5018 13.8394L16.2808 14.0935C16.9056 14.1827 17.4845 14.4722 17.9308 14.9184Z" stroke="black" stroke-width="1.5" stroke-linecap="round" stroke-linejoin="round"/>
<path d="M6.83594 17.9165V10.9165" stroke="black" stroke-width="1.5" stroke-linecap="round" stroke-linejoin="round"/>
</svg>
