<svg width="38" height="38" viewBox="0 0 38 38" fill="none" xmlns="http://www.w3.org/2000/svg">
<path d="M30.8479 4.99976H7.46325C6.65606 4.99976 6.00171 5.65411 6.00171 6.46129V7.92283C6.00171 8.73002 6.65606 9.38437 7.46325 9.38437H30.8479C31.655 9.38437 32.3094 8.73002 32.3094 7.92283V6.46129C32.3094 5.65411 31.655 4.99976 30.8479 4.99976Z" stroke="black" stroke-width="2" stroke-linecap="round" stroke-linejoin="round"/>
<path d="M30.8477 9.38428H7.46313V25.4612H30.8477V9.38428Z" stroke="black" stroke-width="2" stroke-linecap="round" stroke-linejoin="round"/>
<path d="M32.3094 25.4612H6.00171" stroke="black" stroke-width="2" stroke-linecap="round" stroke-linejoin="round"/>
<path d="M19.1555 25.4612V28.3843" stroke="black" stroke-width="2" stroke-linecap="round" stroke-linejoin="round"/>
<path d="M19.1554 32.7689C20.3662 32.7689 21.3478 31.7874 21.3478 30.5766C21.3478 29.3658 20.3662 28.3843 19.1554 28.3843C17.9447 28.3843 16.9631 29.3658 16.9631 30.5766C16.9631 31.7874 17.9447 32.7689 19.1554 32.7689Z" stroke="black" stroke-width="2" stroke-linecap="round" stroke-linejoin="round"/>
</svg>
