<svg width="31" height="30" viewBox="0 0 31 30" fill="none" xmlns="http://www.w3.org/2000/svg">
<rect x="0.5" width="30" height="30" rx="15" fill="#AAAAAA"/>
<path d="M14.3947 19.1459C17.6503 19.1459 20.2895 16.6508 20.2895 13.5729C20.2895 10.4951 17.6503 8 14.3947 8C11.1392 8 8.5 10.4951 8.5 13.5729C8.5 16.6508 11.1392 19.1459 14.3947 19.1459Z" stroke="white" stroke-width="1.5" stroke-linecap="round" stroke-linejoin="round"/>
<path d="M14.3947 19.1459C17.6503 19.1459 20.2895 16.6508 20.2895 13.5729C20.2895 10.4951 17.6503 8 14.3947 8C11.1392 8 8.5 10.4951 8.5 13.5729C8.5 16.6508 11.1392 19.1459 14.3947 19.1459Z" stroke="white" stroke-width="1.5" stroke-linecap="round" stroke-linejoin="round"/>
<path d="M22.5012 22.0004L18.1934 17.8301" stroke="white" stroke-width="1.5" stroke-linecap="round" stroke-linejoin="round"/>
</svg>
