<svg width="40" height="40" viewBox="0 0 40 40" fill="none" xmlns="http://www.w3.org/2000/svg">
<path d="M19.9993 35.0007H9.99935C8.1584 35.0007 6.66602 33.5083 6.66602 31.6673C6.66602 29.8264 8.1584 28.334 9.99935 28.334H18.3327" stroke="black" stroke-width="2" stroke-linecap="round" stroke-linejoin="round"/>
<path d="M33.3327 16.6667V8.33333C33.3327 6.49238 31.8403 5 29.9993 5H9.99935C8.1584 5 6.66602 6.49238 6.66602 8.33333V31.6667" stroke="black" stroke-width="2" stroke-linecap="round" stroke-linejoin="round"/>
<path d="M25 24.9993V29.9993C25 32.7608 27.2386 34.9993 30 34.9993C32.7614 34.9993 35 32.7608 35 29.9993V24.166C35 22.7853 33.8807 21.666 32.5 21.666C31.1193 21.666 30 22.7853 30 24.166V29.9993" stroke="black" stroke-width="2" stroke-linecap="round" stroke-linejoin="round"/>
</svg>
