<svg width="49" height="48" viewBox="0 0 49 48" fill="none" xmlns="http://www.w3.org/2000/svg">
<path d="M42 27.5V11.75C42 9.817 40.433 8.25 38.5 8.25H10.5C8.567 8.25 7 9.817 7 11.75V34.5C7 36.433 8.567 38 10.5 38H24.5" stroke="white" stroke-width="2" stroke-linecap="round" stroke-linejoin="round"/>
<path fill-rule="evenodd" clip-rule="evenodd" d="M28.8925 23.8776L39.3151 34.3002C40.5618 35.5469 40.5618 37.5682 39.3151 38.8149C38.0684 40.0616 36.0471 40.0616 34.8004 38.8149L24.3777 28.3924C23.7083 27.7231 23.2741 26.8547 23.1403 25.9176L22.759 23.249C22.7201 22.9763 22.8118 22.7013 23.0065 22.5065C23.2013 22.3118 23.4763 22.2201 23.749 22.259L26.4176 22.6403C27.3547 22.7741 28.2231 23.2083 28.8925 23.8776Z" stroke="white" stroke-width="2" stroke-linecap="round" stroke-linejoin="round"/>
<path d="M12.25 28.375V17.875" stroke="white" stroke-width="2" stroke-linecap="round" stroke-linejoin="round"/>
</svg>
