<svg width="49" height="48" viewBox="0 0 49 48" fill="none" xmlns="http://www.w3.org/2000/svg">
<g clip-path="url(#clip0_1068_3620)">
<path d="M29.0625 12.3245C27.4648 12.8758 25.888 13.588 24.25 14.5068C19.7105 11.9623 15.654 10.9508 10.2797 10.7775C9.30325 10.746 8.5 11.551 8.5 12.5275V33.2423C8.5 34.189 9.25775 34.9748 10.2045 34.9888C15.6155 35.071 19.6895 36.0685 24.25 38.7495C28.8105 36.0685 32.8845 35.071 38.2955 34.9905C39.2423 34.9765 40 34.1908 40 33.2423V12.5275C40 11.5493 39.1967 10.746 38.2202 10.7775C37.1597 10.8125 36.1605 10.8895 35.1875 10.9945" stroke="white" stroke-width="2" stroke-linecap="round" stroke-linejoin="round"/>
<path fill-rule="evenodd" clip-rule="evenodd" d="M33.1104 9.028C32.1462 9.1995 31.2117 9.41825 30.2929 9.686C29.5579 9.8995 29.0662 10.5978 29.0662 11.3625V18.7055L32.1287 16.6633L35.1912 18.7055V10.7553C35.1912 9.65975 34.1902 8.8355 33.1104 9.028Z" stroke="white" stroke-width="2" stroke-linecap="round" stroke-linejoin="round"/>
<path d="M24.25 14.5129V38.7504" stroke="white" stroke-width="2" stroke-linecap="round" stroke-linejoin="round"/>
<path d="M29.5 27.8524C31.1818 27.2942 32.9055 26.9389 34.75 26.7324" stroke="white" stroke-width="2" stroke-linecap="round" stroke-linejoin="round"/>
<path d="M13.75 26.7324C15.5945 26.9372 17.3183 27.2942 19 27.8524" stroke="white" stroke-width="2" stroke-linecap="round" stroke-linejoin="round"/>
<path d="M19 20.8532C17.3183 20.2949 15.5945 19.9379 13.75 19.7332" stroke="white" stroke-width="2" stroke-linecap="round" stroke-linejoin="round"/>
</g>
<defs>
<clipPath id="clip0_1068_3620">
<rect width="48" height="48" fill="white" transform="translate(0.5)"/>
</clipPath>
</defs>
</svg>
