<svg width="40" height="40" viewBox="0 0 40 40" fill="none" xmlns="http://www.w3.org/2000/svg">
<g clip-path="url(#clip0_1152_153246)">
<path fill-rule="evenodd" clip-rule="evenodd" d="M10.792 14.3749H6.83366C5.91366 14.3749 5.16699 15.1216 5.16699 16.0416V23.9583C5.16699 24.8783 5.91366 25.6249 6.83366 25.6249H10.792L17.4237 31.2433C18.507 32.1616 20.167 31.3916 20.167 29.9716V10.0283C20.167 8.60826 18.5053 7.83826 17.4237 8.7566L10.792 14.3749Z" stroke="black" stroke-width="1.5" stroke-linecap="round" stroke-linejoin="round"/>
<path d="M24.8945 26.6301C26.8312 25.4268 28.1662 22.9235 28.1662 20.0085C28.1662 17.0935 26.8312 14.5885 24.8945 13.3701" stroke="black" stroke-width="1.5" stroke-linecap="round" stroke-linejoin="round"/>
<path d="M29.8413 31.7749C32.8547 29.1832 34.833 24.8832 34.833 20.0049C34.833 15.1199 32.8513 10.8166 29.833 8.22656" stroke="black" stroke-width="1.5" stroke-linecap="round" stroke-linejoin="round"/>
</g>
<defs>
<clipPath id="clip0_1152_153246">
<rect width="40" height="40" fill="white"/>
</clipPath>
</defs>
</svg>
