<svg xmlns="http://www.w3.org/2000/svg" width="39" height="39" viewBox="0 0 39 39" fill="none">
    <g style="mix-blend-mode:multiply">
        <path d="M36.9995 2.00093C36.9527 2.56058 36.5018 3.08319 36.0518 3.58405C34.247 5.5949 32.4685 7.62612 30.6159 9.60364C24.5202 16.1093 18.0004 22.7698 11.7195 29.1074C9.80776 31.0363 7.85048 32.9148 5.92733 34.8321C4.6607 36.0949 3.41227 36.9133 2.16156 37.7137C1.52461 38.1215 1.18884 38.0627 1.08602 37.7322C0.838061 36.9383 1.09375 35.8607 2.27985 34.2623C2.96504 33.3388 3.72802 32.4602 4.60565 31.6339C8.17396 28.2732 11.7477 24.9209 15.3115 21.5523C17.4003 19.5781 19.484 17.5917 21.5537 15.5869C24.7803 12.4605 28.2705 9.03149 31.4903 5.89533C32.2797 5.12644 33.0914 4.38349 33.8639 3.59887C34.888 2.55872 35.7302 2.0537 36.459 2.02083C36.6315 2.01296 36.8021 2.00741 37 2L36.9995 2.00093Z" fill="#CC0000" fill-opacity="0.6"/>
        <path d="M37.4861 2.14505C37.4342 2.50144 37.2739 2.81932 37.0934 3.09117C36.8956 3.38888 36.6468 3.66996 36.4238 3.9182M37.4861 2.14505L36.4238 3.9182M37.4861 2.14505L37.8204 1.46895L36.9813 1.50035C36.9279 1.50235 36.876 1.50423 36.8251 1.50607C36.6906 1.51094 36.5635 1.51554 36.4365 1.52134L37.4861 2.14505ZM36.4238 3.9182C35.9436 4.45314 35.4644 4.99059 34.9846 5.52879C33.6661 7.00751 32.3426 8.4919 30.9808 9.94548L30.9808 9.94551C24.8803 16.4562 18.3566 23.1206 12.0747 29.4593L12.0747 29.4593C10.9895 30.5542 9.88206 31.6404 8.7775 32.7237C7.93979 33.5453 7.10375 34.3653 6.28035 35.1862C4.97265 36.4899 3.68449 37.3327 2.43107 38.1348M36.4238 3.9182L2.43107 38.1348M2.43107 38.1348C2.09094 38.3526 1.74103 38.5091 1.40923 38.4996C1.22787 38.4944 1.04547 38.4389 0.891719 38.3134C0.741753 38.191 0.655659 38.032 0.608589 37.8807L2.43107 38.1348ZM4.26285 31.2699C3.36144 32.1186 2.57911 33.0198 1.87833 33.9643L36.4362 1.52135C35.5061 1.56341 34.5471 2.19239 33.5076 3.24806C33.0283 3.73493 32.5413 4.19828 32.0474 4.66826C31.7479 4.95321 31.4459 5.24061 31.1415 5.53715C29.8898 6.75629 28.5983 8.01871 27.2976 9.29006C25.2496 11.2919 23.179 13.3158 21.2058 15.2278C19.138 17.2308 17.0558 19.2156 14.968 21.189L15.3115 21.5523L14.968 21.189C12.6325 23.3965 10.2931 25.5968 7.95329 27.7974C6.72311 28.9544 5.4928 30.1115 4.26285 31.2699Z" stroke="#CC0000" stroke-opacity="0.6"/>
    </g>
</svg>