<svg width="134" height="158" viewBox="0 0 134 158" fill="none" xmlns="http://www.w3.org/2000/svg">
<path d="M12 156H122C127.523 156 132 151.523 132 146V36.1421C132 33.49 130.946 30.9464 129.071 29.0711L104.929 4.92893C103.054 3.05357 100.51 2 97.8579 2H12C6.47715 2 2 6.47716 2 12V146C2 151.523 6.47715 156 12 156Z" fill="#D1292B" stroke="#980E19" stroke-width="4"/>
<path d="M111 31.0323H128.529C129.428 31.0323 129.87 29.9387 129.224 29.3137L102.695 3.64073C102.061 3.02666 101 3.47631 101 4.35933V21.0323C101 26.5551 105.477 31.0323 111 31.0323Z" fill="#980E19" stroke="#980E19" stroke-width="4"/>
<path d="M2 114H132V146C132 151.523 127.523 156 122 156H12C6.47715 156 2 151.523 2 146V114Z" fill="#980E19"/>
<path d="M2 114H132H2ZM134 146C134 152.627 128.627 158 122 158H12C5.37258 158 0 152.627 0 146H4C4 150.418 7.58172 154 12 154H122C126.418 154 130 150.418 130 146H134ZM12 158C5.37258 158 0 152.627 0 146V114H4V146C4 150.418 7.58172 154 12 154V158ZM134 114V146C134 152.627 128.627 158 122 158V154C126.418 154 130 150.418 130 146V114H134Z" fill="#980E19"/>
<path d="M45.5942 145V127.216H51.4262C52.7382 127.216 53.9142 127.392 54.9542 127.744C56.0102 128.096 56.8422 128.68 57.4502 129.496C58.0742 130.296 58.3862 131.4 58.3862 132.808C58.3862 134.152 58.0742 135.264 57.4502 136.144C56.8422 137.008 56.0182 137.648 54.9782 138.064C53.9542 138.48 52.8022 138.688 51.5222 138.688H49.1462V145H45.5942ZM49.1462 135.88H51.2822C52.4982 135.88 53.4022 135.624 53.9942 135.112C54.6022 134.6 54.9062 133.832 54.9062 132.808C54.9062 131.784 54.5862 131.072 53.9462 130.672C53.3222 130.256 52.3942 130.048 51.1622 130.048H49.1462V135.88ZM61.602 145V127.216H66.474C68.298 127.216 69.858 127.536 71.154 128.176C72.466 128.816 73.474 129.784 74.178 131.08C74.898 132.376 75.258 134.024 75.258 136.024C75.258 138.024 74.906 139.688 74.202 141.016C73.498 142.344 72.506 143.344 71.226 144.016C69.946 144.672 68.426 145 66.666 145H61.602ZM65.154 142.12H66.234C67.354 142.12 68.314 141.92 69.114 141.52C69.93 141.104 70.554 140.448 70.986 139.552C71.418 138.64 71.634 137.464 71.634 136.024C71.634 134.584 71.418 133.432 70.986 132.568C70.554 131.688 69.93 131.056 69.114 130.672C68.314 130.272 67.354 130.072 66.234 130.072H65.154V142.12ZM78.7348 145V127.216H89.6788V130.192H82.2868V134.824H88.5988V137.8H82.2868V145H78.7348Z" fill="white"/>
<path d="M53.5737 76.6847C53.5737 76.6847 34.4178 82.9458 40.8031 90.2074C47.1884 97.469 56.3721 80.3231 56.3721 80.3231L67.3492 52.914C67.3492 52.914 72.142 36.5109 62.5409 37.0112C52.9398 37.5115 57.7945 58.417 75.9145 69.6809C75.9145 69.6809 92.4884 83.2945 94.421 72.44C96.5855 60.2969 53.5737 76.6999 53.5737 76.6999V76.6847Z" stroke="white" stroke-width="5" stroke-miterlimit="10"/>
</svg>
