<svg width="56" height="45" viewBox="0 0 56 45" fill="none" xmlns="http://www.w3.org/2000/svg">
<path d="M14.9922 11.7266C19.9141 6.80469 28 6.80469 32.9219 11.7266C37.3164 16.1211 37.9316 23.0645 34.3281 28.1621L34.2402 28.25C33.3613 29.5684 31.6035 29.832 30.2852 28.9531C29.0547 27.9863 28.7031 26.2285 29.6699 24.998L29.7578 24.9102C31.7793 22.0098 31.4277 18.2305 28.9668 15.7695C26.2422 12.957 21.7598 12.957 18.9473 15.7695L9.10352 25.6133C6.29102 28.3379 6.29102 32.8203 9.10352 35.6328C11.5645 38.0938 15.4316 38.3574 18.2441 36.4238L18.332 36.248C19.6504 35.3691 21.4082 35.6328 22.2871 36.9512C23.166 38.1816 22.9023 39.9395 21.6719 40.9062L21.4961 40.9941C16.3984 44.5977 9.54297 43.9824 5.14844 39.5879C0.138672 34.666 0.138672 26.5801 5.14844 21.6582L14.9922 11.7266ZM40.9199 33.5234C35.998 38.5332 27.9121 38.5332 22.9902 33.5234C18.5957 29.1289 17.9805 22.2734 21.584 17.1758L21.6719 17.0879C22.5508 15.7695 24.3086 15.5059 25.627 16.3848C26.8574 17.2637 27.209 19.0215 26.2422 20.3398L26.1543 20.4277C24.1328 23.2402 24.4844 27.1074 26.9453 29.5684C29.6699 32.3809 34.1523 32.3809 36.9648 29.5684L46.8086 19.7246C49.6211 16.9121 49.6211 12.4297 46.8086 9.70508C44.3477 7.24414 40.4805 6.89258 37.668 8.91406L37.5801 9.00195C36.2617 9.96875 34.5039 9.61719 33.625 8.38672C32.7461 7.15625 33.0098 5.39844 34.2402 4.43164L34.416 4.34375C39.5137 0.740234 46.3691 1.35547 50.7637 5.75C55.7734 10.6719 55.7734 18.7578 50.7637 23.6797L40.9199 33.5234Z" fill="white"/>
</svg>
