<svg width="100" height="100" viewBox="0 0 100 100" fill="none" xmlns="http://www.w3.org/2000/svg">
<g clip-path="url(#clip0_1032_70345)">
<path d="M79.1667 45.8333V20.8333C79.1667 16.2292 75.4375 12.5 70.8333 12.5H20.8333C16.2292 12.5 12.5 16.2292 12.5 20.8333V75" stroke="black" stroke-width="3" stroke-linecap="round" stroke-linejoin="round"/>
<path d="M29.1665 12.5V66.6667" stroke="black" stroke-width="3" stroke-linecap="round" stroke-linejoin="round"/>
<path d="M45.8333 66.6665H20.8333C16.2292 66.6665 12.5 70.3957 12.5 74.9998C12.5 79.604 16.2292 83.3332 20.8333 83.3332H45.8333" stroke="black" stroke-width="3" stroke-linecap="round" stroke-linejoin="round"/>
<path fill-rule="evenodd" clip-rule="evenodd" d="M79.6708 61.996C85.0791 67.4043 84.4958 76.5252 77.9291 81.1377C73.75 84.071 67.9125 84.071 63.7333 81.1377C57.1625 76.5293 56.5833 67.4043 61.9916 61.996C66.875 57.1127 74.7916 57.1127 79.6708 61.996Z" fill="#FFD748" stroke="#FFD748" stroke-width="3" stroke-linecap="round" stroke-linejoin="round"/>
<path d="M87.4998 87.4998L79.6665 79.6665" stroke="#FFD748" stroke-width="3" stroke-linecap="round" stroke-linejoin="round"/>
</g>
<defs>
<clipPath id="clip0_1032_70345">
<rect width="100" height="100" fill="white"/>
</clipPath>
</defs>
</svg>
