<svg width="49" height="48" viewBox="0 0 49 48" fill="none" xmlns="http://www.w3.org/2000/svg">
<path d="M24.25 8C32.9685 8 40 15.0315 40 23.75C40 32.4685 32.9685 39.5 24.25 39.5" stroke="white" stroke-width="2" stroke-linecap="round" stroke-linejoin="round"/>
<path d="M24.25 39.5C15.5315 39.5 8.5 32.4685 8.5 23.75C8.5 15.0315 15.5315 8 24.25 8" stroke="white" stroke-width="2" stroke-linecap="round" stroke-linejoin="round"/>
<path fill-rule="evenodd" clip-rule="evenodd" d="M21.0441 9.85505C15.9866 18.2988 15.9866 29.2031 21.0441 37.6468C22.5246 40.1196 25.9774 40.1196 27.4579 37.6468C32.5154 29.2031 32.5154 18.2988 27.4579 9.85505C25.9756 7.3823 22.5246 7.3823 21.0441 9.85505Z" stroke="white" stroke-width="2" stroke-linecap="round" stroke-linejoin="round"/>
<path d="M10.2676 16.5015C18.8286 19.1457 29.6716 19.1457 38.2308 16.5015" stroke="white" stroke-width="2" stroke-linecap="round" stroke-linejoin="round"/>
<path d="M38.2325 30.9986C29.6715 28.3543 18.8285 28.3543 10.2693 30.9986" stroke="white" stroke-width="2" stroke-linecap="round" stroke-linejoin="round"/>
</svg>
