<svg width="30" height="30" viewBox="0 0 30 30" fill="none" xmlns="http://www.w3.org/2000/svg">
<g clip-path="url(#clip0_291_3740)">
<path fill-rule="evenodd" clip-rule="evenodd" d="M25 21.8425V25C25 25.69 24.44 26.25 23.75 26.25H7.5C6.11875 26.25 5 25.1312 5 23.75V12.5C5 11.1187 6.11875 10 7.5 10H10.3575C10.935 10 11.4937 10.2 11.94 10.565L24.5412 20.875C24.8312 21.1125 25 21.4675 25 21.8425Z" stroke="black" stroke-width="1.5" stroke-linecap="round" stroke-linejoin="round"/>
<path d="M23.75 10H18.75C18.06 10 17.5 9.44 17.5 8.75V3.75" stroke="black" stroke-width="1.5" stroke-linecap="round" stroke-linejoin="round"/>
<path d="M6.25 10V6.25C6.25 4.86875 7.36875 3.75 8.75 3.75H17.715C18.3775 3.75 19.0138 4.01375 19.4813 4.48125L23.0175 8.0175C23.4863 8.48625 23.75 9.1225 23.75 9.785V20" stroke="black" stroke-width="1.5" stroke-linecap="round" stroke-linejoin="round"/>
<path d="M10 21.25H13.75" stroke="black" stroke-width="1.5" stroke-linecap="round" stroke-linejoin="round"/>
</g>
<defs>
<clipPath id="clip0_291_3740">
<rect width="30" height="30" fill="white"/>
</clipPath>
</defs>
</svg>
