<svg width="48" height="48" viewBox="0 0 48 48" fill="none" xmlns="http://www.w3.org/2000/svg">
<path d="M37.4054 19.6081V10.9595C37.4054 9.04885 35.8566 7.5 33.9459 7.5H11.4595C9.54885 7.5 8 9.04885 8 10.9595V35.1757C8 37.0863 9.54885 38.6351 11.4595 38.6351H20.1081" stroke="black" stroke-width="2" stroke-linecap="round" stroke-linejoin="round"/>
<path d="M14.9219 16.1484H30.4894" stroke="black" stroke-width="2" stroke-linecap="round" stroke-linejoin="round"/>
<path d="M14.9219 23.0679H20.1111" stroke="black" stroke-width="2" stroke-linecap="round" stroke-linejoin="round"/>
<path d="M14.9219 29.9868H16.6516" stroke="black" stroke-width="2" stroke-linecap="round" stroke-linejoin="round"/>
<path d="M26.5938 31.6377V36.1303C26.5938 37.1131 27.149 38.0115 28.028 38.451L29.0299 38.9519C30.4908 39.6824 32.2103 39.6824 33.6711 38.9519L34.673 38.451C35.552 38.0115 36.1073 37.1131 36.1073 36.1303V31.6377" stroke="black" stroke-width="2" stroke-linecap="round" stroke-linejoin="round"/>
<path fill-rule="evenodd" clip-rule="evenodd" d="M23.6865 30.2493L29.4862 33.0226C30.6659 33.5867 32.0375 33.5867 33.2172 33.0226L39.0168 30.2493C39.6177 29.9619 40.0002 29.355 40.0002 28.6889C40.0002 28.0228 39.6177 27.4159 39.0168 27.1285L33.2172 24.3552C32.0375 23.7911 30.6659 23.7911 29.4862 24.3552L23.6865 27.1285C23.0856 27.4159 22.7031 28.0228 22.7031 28.6889C22.7031 29.355 23.0856 29.9619 23.6865 30.2493Z" stroke="black" stroke-width="2" stroke-linecap="round" stroke-linejoin="round"/>
<path d="M40 28.6782V32.5814" stroke="black" stroke-width="2" stroke-linecap="round" stroke-linejoin="round"/>
</svg>
