<svg width="30" height="30" viewBox="0 0 30 30" fill="none" xmlns="http://www.w3.org/2000/svg">
<path d="M3.75 21.25V6.25C3.75 4.86929 4.86929 3.75 6.25 3.75H23.75C25.1307 3.75 26.25 4.86929 26.25 6.25V21.25" stroke="black" stroke-width="1.5" stroke-linecap="round" stroke-linejoin="round"/>
<path fill-rule="evenodd" clip-rule="evenodd" d="M3.125 21.25H26.875C27.5654 21.25 28.125 21.8096 28.125 22.5C28.125 24.5711 26.4461 26.25 24.375 26.25H5.625C3.55393 26.25 1.875 24.5711 1.875 22.5C1.875 21.8096 2.43464 21.25 3.125 21.25Z" stroke="black" stroke-width="1.5" stroke-linecap="round" stroke-linejoin="round"/>
<path fill-rule="evenodd" clip-rule="evenodd" d="M8.09159 12.3336C7.96947 12.1257 7.96947 11.8736 8.09159 11.6657C9.56318 9.16643 12.2816 7 15 7C17.7184 7 20.4368 9.16643 21.9084 11.6664C22.0305 11.8743 22.0305 12.1264 21.9084 12.3343C20.4368 14.8336 17.7184 17 15 17C12.2816 17 9.56318 14.8336 8.09159 12.3336Z" stroke="black" stroke-width="1.5" stroke-linecap="round" stroke-linejoin="round"/>
<path fill-rule="evenodd" clip-rule="evenodd" d="M16.4142 10.5858C17.1953 11.3668 17.1953 12.6332 16.4142 13.4142C15.6332 14.1953 14.3668 14.1953 13.5858 13.4142C12.8047 12.6332 12.8047 11.3668 13.5858 10.5858C14.3668 9.80474 15.6332 9.80474 16.4142 10.5858Z" stroke="black" stroke-width="1.4286" stroke-linecap="round" stroke-linejoin="round"/>
</svg>
