<svg width="28" height="27" viewBox="0 0 28 27" fill="none" xmlns="http://www.w3.org/2000/svg">
<path d="M13.799 15.4411H14.612C15.959 15.4411 17.051 14.3491 17.051 13.002V9.75002C17.051 8.403 15.959 7.31104 14.612 7.31104H8.10797C6.76095 7.31104 5.66895 8.403 5.66895 9.75002V13.0021C5.66895 13.6489 5.92591 14.2693 6.38332 14.7267C6.84073 15.1841 7.4611 15.4411 8.10797 15.4411" stroke="black" stroke-width="2" stroke-linecap="round" stroke-linejoin="round"/>
<path d="M14.2032 11.376H13.3902C12.0432 11.376 10.9512 12.468 10.9512 13.815V17.067C10.9512 18.4141 12.0432 19.5061 13.3902 19.5061H19.8942C21.2413 19.5061 22.3333 18.4141 22.3333 17.067V13.815C22.3333 12.468 21.2413 11.376 19.8942 11.376" stroke="black" stroke-width="2" stroke-linecap="round" stroke-linejoin="round"/>
<path fill-rule="evenodd" clip-rule="evenodd" d="M8.44444 1H19.5556C23.3909 1 26.5 4.10913 26.5 7.94444V19.0556C26.5 22.8909 23.3909 26 19.5556 26H8.44444C4.60913 26 1.5 22.8909 1.5 19.0556V7.94444C1.5 4.10913 4.60913 1 8.44444 1Z" stroke="black" stroke-width="2" stroke-linecap="round" stroke-linejoin="round"/>
</svg>
