<svg width="63" height="57" viewBox="0 0 63 57" fill="none" xmlns="http://www.w3.org/2000/svg">
<mask id="mask0_1981_27127" style="mask-type:alpha" maskUnits="userSpaceOnUse" x="5" y="5" width="57" height="55">
<rect x="5" y="5" width="57" height="55" fill="#D9D9D9"/>
</mask>
<g mask="url(#mask0_1981_27127)">
<path d="M51.2228 49.4646C51.2429 49.3547 51.2607 49.2513 51.2855 49.159C53.2333 41.5854 52.8974 31.0312 52.8826 30.5866C52.8825 30.5695 52.8811 30.5527 52.8793 30.5356C52.6063 28.0426 50.754 26.2169 48.4758 26.1959C47.299 26.1848 46.239 26.6315 45.462 27.3748C45.3651 25.0539 43.4726 23.1235 41.1808 23.0387C41.1417 23.0375 41.1025 23.0363 41.0634 23.036C40.8057 23.0335 40.5514 23.054 40.3056 23.0949C39.4421 23.2413 38.6623 23.6449 38.0541 24.2259C38.0461 24.234 38.0396 24.2421 38.0315 24.2485C37.8795 22.6529 36.8818 21.2691 35.5067 20.5911C35.0979 20.3883 34.6542 20.25 34.192 20.1853C34.0524 20.1652 33.9096 20.1533 33.766 20.1479C33.7236 20.1466 33.6812 20.1454 33.6392 20.1446C32.4705 20.1336 31.4115 20.5876 30.6328 21.335L30.5683 14.4838C30.5459 12.0992 28.6237 10.089 26.2829 10.0029C26.2438 10.0017 26.2042 10.001 26.1647 10.0002C25.0189 9.9902 23.9432 10.4147 23.1275 11.2082C22.2823 12.0304 21.8238 13.1367 21.835 14.3257L21.9746 29.1593C21.9767 29.3795 21.98 29.6001 21.9849 29.8215C21.9918 30.2864 22.0031 30.7525 22.0185 31.2187C22.0791 33.0663 22.1985 34.9185 22.3744 36.7602L18.4354 32.8212C17.5579 31.9437 16.401 31.4953 15.2556 31.4841C14.1775 31.4739 13.1095 31.8512 12.2928 32.6235C10.6088 34.2153 10.5686 36.4032 12.1803 38.7783L19.3241 49.3983C19.3266 49.4024 19.3312 49.4077 19.3336 49.4118C23.2744 54.9683 24.6831 59.4789 25.2425 63.3755C25.2867 63.742 25.4261 64.0769 25.6334 64.3577C24.7577 64.8852 24.1755 65.8485 24.1855 66.949C24.2013 68.6249 25.5851 70.0087 27.261 70.0245L48.3553 70.2231C50.0312 70.2389 51.3892 68.8809 51.3734 67.205C51.3626 66.0624 50.7155 65.055 49.7731 64.5254C50.0144 64.1697 50.1348 63.7456 50.1126 63.301C50.0222 61.4018 50.0392 55.3658 51.184 49.6811C51.1972 49.6095 51.21 49.5374 51.2228 49.4646ZM49.6244 68.4749C49.2814 68.8178 48.8261 69.004 48.3425 68.9994L27.2486 68.8004C26.765 68.7959 26.3061 68.6011 25.9567 68.2517C25.6072 67.9022 25.4125 67.4433 25.4079 66.9597C25.4034 66.4761 25.5895 66.0208 25.9324 65.6779C26.2103 65.4 26.5622 65.2251 26.9429 65.1712C27.0536 65.1906 27.167 65.2023 27.2824 65.203L48.0962 65.3989C48.2324 65.4002 48.366 65.3884 48.4963 65.3635C48.9097 65.4102 49.296 65.5969 49.5997 65.9007C49.9492 66.2501 50.1439 66.709 50.1485 67.1926C50.1534 67.6767 49.9673 68.132 49.6244 68.4749ZM49.9001 49.2067C49.8901 49.2685 49.8784 49.3304 49.8668 49.3914C48.694 55.217 48.6769 61.3781 48.7704 63.3401C48.7803 63.531 48.7123 63.7118 48.5819 63.8488C48.4519 63.9846 48.2748 64.0579 48.0844 64.0566L27.2698 63.8606C26.9134 63.8572 26.6145 63.5882 26.5736 63.2347C26.5736 63.2282 26.5723 63.2229 26.5722 63.2172C25.9408 58.8147 24.1297 53.8735 20.4282 48.6548L13.2881 38.0418C12.039 36.1989 12.0172 34.748 13.2247 33.6072C13.7869 33.0755 14.5232 32.8166 15.2678 32.8236C16.0686 32.8311 16.8789 33.1462 17.4943 33.7615L22.7706 39.0378C22.9006 39.1679 23.0725 39.2372 23.2466 39.2392C23.3453 39.2402 23.4442 39.2195 23.5359 39.1755C23.7925 39.0556 23.9404 38.7858 23.9084 38.5018C23.6366 36.1886 23.4576 33.847 23.3725 31.5144C23.3564 31.0588 23.3423 30.6021 23.3327 30.1465C23.3255 29.8211 23.3213 29.4961 23.3182 29.1715L23.1782 14.3384C23.1704 13.5147 23.4886 12.7495 24.0728 12.1802C24.6376 11.631 25.3834 11.3371 26.1761 11.3446C26.2038 11.3448 26.2307 11.3451 26.2581 11.3465C27.8773 11.4058 29.2083 12.8087 29.2235 14.472L29.3809 31.1877C29.3817 31.2725 29.3988 31.3542 29.4276 31.43C29.5279 31.6821 29.7726 31.8629 30.0588 31.8656C30.4299 31.8691 30.728 31.571 30.7241 31.2004L30.7099 29.6941C30.6974 28.3672 30.6796 26.4744 30.6702 25.347C30.6634 24.7948 30.6615 24.4271 30.6612 24.3969C30.6645 24.1837 30.6911 23.9768 30.737 23.777C31.0198 22.5492 32.0585 21.6257 33.3319 21.5031C33.4362 21.4927 33.5434 21.4876 33.6514 21.489C33.6808 21.4893 33.7106 21.49 33.7399 21.4911C34.1229 21.5057 34.4907 21.5948 34.8289 21.7455C35.916 22.23 36.6934 23.3467 36.7054 24.6165L36.7945 34.0774C36.798 34.4484 37.1017 34.7522 37.4724 34.7553C37.8434 34.7588 38.1415 34.4607 38.1376 34.09L38.1376 34.0859C38.1343 33.7328 38.0771 27.5279 38.0759 27.2294C38.0918 26.8011 38.1981 26.3976 38.3778 26.0368C38.5506 25.6837 38.7931 25.3704 39.0867 25.1139C39.6169 24.6504 40.3143 24.372 41.0719 24.3791C41.0988 24.3794 41.1274 24.3796 41.1551 24.3815C42.7744 24.4408 44.1053 25.8437 44.1206 27.5069L44.2122 37.2369C44.2157 37.608 44.5194 37.9117 44.8901 37.9148C45.2612 37.9183 45.5593 37.6202 45.5554 37.2496L45.5553 37.2471C45.5538 37.0857 45.4948 30.6916 45.4939 30.4216C45.5373 28.7887 46.8501 27.5236 48.4864 27.5386C50.261 27.5554 51.3609 29.102 51.5392 30.631C51.543 30.7359 51.5535 31.1567 51.5597 31.8173C51.5882 34.8388 51.5041 42.8849 49.9815 48.8009C49.947 48.9425 49.9225 49.0764 49.9001 49.2067Z" fill="white"/>
</g>
</svg>
