<svg width="38" height="38" viewBox="0 0 38 38" fill="none" xmlns="http://www.w3.org/2000/svg">
<path d="M30 33H8C7.20435 33 6.44129 32.6839 5.87868 32.1213C5.31607 31.5587 5 30.7956 5 30L5 8C5 7.20435 5.31607 6.44129 5.87868 5.87868C6.44129 5.31607 7.20435 5 8 5L30 5C30.7956 5 31.5587 5.31607 32.1213 5.87868C32.6839 6.44129 33 7.20435 33 8V30C33 30.7956 32.6839 31.5587 32.1213 32.1213C31.5587 32.6839 30.7956 33 30 33ZM8 7C7.73478 7 7.48043 7.10536 7.29289 7.29289C7.10536 7.48043 7 7.73478 7 8L7 30C7 30.2652 7.10536 30.5196 7.29289 30.7071C7.48043 30.8946 7.73478 31 8 31H30C30.2652 31 30.5196 30.8946 30.7071 30.7071C30.8946 30.5196 31 30.2652 31 30V8C31 7.73478 30.8946 7.48043 30.7071 7.29289C30.5196 7.10536 30.2652 7 30 7L8 7Z" fill="white"/>
<path d="M25 18H13C12.2044 18 11.4413 17.6839 10.8787 17.1213C10.3161 16.5587 10 15.7956 10 15V13C10 12.2044 10.3161 11.4413 10.8787 10.8787C11.4413 10.3161 12.2044 10 13 10H25C25.7956 10 26.5587 10.3161 27.1213 10.8787C27.6839 11.4413 28 12.2044 28 13V15C28 15.7956 27.6839 16.5587 27.1213 17.1213C26.5587 17.6839 25.7956 18 25 18ZM13 12C12.7348 12 12.4804 12.1054 12.2929 12.2929C12.1054 12.4804 12 12.7348 12 13V15C12 15.2652 12.1054 15.5196 12.2929 15.7071C12.4804 15.8946 12.7348 16 13 16H25C25.2652 16 25.5196 15.8946 25.7071 15.7071C25.8946 15.5196 26 15.2652 26 15V13C26 12.7348 25.8946 12.4804 25.7071 12.2929C25.5196 12.1054 25.2652 12 25 12H13Z" fill="white"/>
<path d="M17.0002 27.9997C16.8686 28.0005 16.7381 27.9752 16.6163 27.9255C16.4944 27.8757 16.3836 27.8024 16.2902 27.7097L10.2902 21.7097C10.1019 21.5214 9.99609 21.266 9.99609 20.9997C9.99609 20.7334 10.1019 20.478 10.2902 20.2897C10.4785 20.1014 10.7339 19.9956 11.0002 19.9956C11.2665 19.9956 11.5219 20.1014 11.7102 20.2897L17.7102 26.2897C17.8039 26.3827 17.8783 26.4933 17.9291 26.6151C17.9798 26.737 18.006 26.8677 18.006 26.9997C18.006 27.1317 17.9798 27.2624 17.9291 27.3843C17.8783 27.5061 17.8039 27.6167 17.7102 27.7097C17.6167 27.8024 17.5059 27.8757 17.3841 27.9255C17.2623 27.9752 17.1318 28.0005 17.0002 27.9997Z" fill="white"/>
<path d="M11.0019 27.9997C10.8703 28.0005 10.7398 27.9752 10.618 27.9255C10.4961 27.8757 10.3853 27.8024 10.2919 27.7097C10.1982 27.6167 10.1238 27.5061 10.073 27.3843C10.0222 27.2624 9.99609 27.1317 9.99609 26.9997C9.99609 26.8677 10.0222 26.737 10.073 26.6151C10.1238 26.4933 10.1982 26.3827 10.2919 26.2897L16.2919 20.2897C16.3851 20.1965 16.4958 20.1225 16.6176 20.072C16.7395 20.0216 16.87 19.9956 17.0019 19.9956C17.1338 19.9956 17.2643 20.0216 17.3861 20.072C17.508 20.1225 17.6187 20.1965 17.7119 20.2897C17.8051 20.3829 17.8791 20.4936 17.9296 20.6154C17.98 20.7373 18.006 20.8678 18.006 20.9997C18.006 21.1316 17.98 21.2621 17.9296 21.3839C17.8791 21.5058 17.8051 21.6165 17.7119 21.7097L11.7119 27.7097C11.6185 27.8024 11.5076 27.8757 11.3858 27.9255C11.264 27.9752 11.1335 28.0005 11.0019 27.9997Z" fill="white"/>
<path d="M27 25.0005H21C20.7348 25.0005 20.4804 24.8951 20.2929 24.7076C20.1054 24.5201 20 24.2657 20 24.0005C20 23.7353 20.1054 23.4809 20.2929 23.2934C20.4804 23.1058 20.7348 23.0005 21 23.0005H27C27.2652 23.0005 27.5196 23.1058 27.7071 23.2934C27.8946 23.4809 28 23.7353 28 24.0005C28 24.2657 27.8946 24.5201 27.7071 24.7076C27.5196 24.8951 27.2652 25.0005 27 25.0005Z" fill="white"/>
<path d="M23.9994 28.0001C23.7347 27.9965 23.4811 27.8929 23.2894 27.7101L23.1694 27.5601C23.1316 27.5044 23.1013 27.4439 23.0794 27.3801C23.0436 27.3246 23.0166 27.2639 22.9994 27.2001C22.995 27.1335 22.995 27.0667 22.9994 27.0001C23.0031 26.7354 23.1067 26.4818 23.2894 26.2901C23.4301 26.1514 23.6086 26.0574 23.8026 26.02C23.9966 25.9826 24.1973 26.0036 24.3794 26.0801C24.5022 26.1277 24.6143 26.1991 24.7094 26.2901C24.8922 26.4818 24.9957 26.7354 24.9994 27.0001C25.0039 27.0667 25.0039 27.1335 24.9994 27.2001C24.9885 27.2628 24.9683 27.3235 24.9394 27.3801C24.9175 27.4439 24.8873 27.5044 24.8494 27.5601C24.8125 27.6125 24.7724 27.6626 24.7294 27.7101C24.6343 27.8012 24.5222 27.8725 24.3994 27.9201C24.2747 27.9793 24.1373 28.0067 23.9994 28.0001Z" fill="white"/>
<path d="M23.9998 22.0001C23.7346 22.0001 23.4802 21.8948 23.2927 21.7072C23.1051 21.5197 22.9998 21.2654 22.9998 21.0001C22.9949 20.9369 22.9949 20.8734 22.9998 20.8101C23.009 20.7439 23.0293 20.6797 23.0598 20.6201C23.0817 20.5564 23.1119 20.4959 23.1498 20.4401L23.2698 20.2901C23.4104 20.1514 23.589 20.0574 23.783 20.02C23.9769 19.9826 24.1777 20.0036 24.3598 20.0801C24.4825 20.1277 24.5947 20.1991 24.6898 20.2901C24.7328 20.3377 24.7728 20.3878 24.8098 20.4401C24.8476 20.4959 24.8779 20.5564 24.8998 20.6201C24.9302 20.6797 24.9505 20.7439 24.9598 20.8101C24.9781 20.8723 24.9915 20.9359 24.9998 21.0001C24.9961 21.2649 24.8925 21.5185 24.7098 21.7101C24.6147 21.8012 24.5025 21.8725 24.3798 21.9201C24.2595 21.9714 24.1304 21.9986 23.9998 22.0001Z" fill="white"/>
</svg>
