<svg width="102" height="89" viewBox="0 0 102 89" fill="none" xmlns="http://www.w3.org/2000/svg">
<g filter="url(#filter0_d_1032_70171)">
<path d="M12 2H80C86.6274 2 92 7.37258 92 14V55.559C92 60.5087 88.9609 64.9505 84.3475 66.7438L57.0767 77.344C54.3326 78.4106 51.2922 78.4313 48.5339 77.402L19.8047 66.6816C15.1116 64.9303 12 60.4481 12 55.4388V2Z" fill="#FF6600"/>
</g>
<path opacity="0.8" d="M14.5 4.5H78C84.3513 4.5 89.5 9.64873 89.5 16V54.3441C89.5 59.0904 86.5841 63.3492 82.159 65.0657L56.8475 74.8842C54.222 75.9026 51.3142 75.9223 48.6753 74.9396L21.9868 65.0011C17.4854 63.3248 14.5 59.0274 14.5 54.2241V4.5Z" fill="#FF6600" stroke="white"/>
<path d="M12 2V14H0L12 2Z" fill="#B94A00"/>
<path d="M48.8555 20.3672H51.6055V22.1074H48.8555V26.9199H46.8145V15.5762H48.8555V20.3672ZM48.8555 31.7539H38.2207V33.2148H49.5645V34.6328H36.1797V30.4434H46.8359V29.1543H36.1367V27.7363H48.8555V31.7539ZM33.5801 25.0938C35.7285 25.0938 37.4043 25.0758 38.6074 25.04V23.9551C37.4831 23.8548 36.6058 23.5863 35.9756 23.1494C35.3454 22.7126 35.0339 22.1361 35.041 21.4199C35.0339 20.9043 35.2165 20.4603 35.5889 20.0879C35.9613 19.7083 36.4912 19.4219 37.1787 19.2285C37.8734 19.028 38.6862 18.9277 39.6172 18.9277C40.541 18.9277 41.3467 19.028 42.0342 19.2285C42.7217 19.4219 43.2516 19.7083 43.624 20.0879C44.0036 20.4603 44.1934 20.9043 44.1934 21.4199C44.1934 22.1289 43.8783 22.7018 43.248 23.1387C42.625 23.5755 41.7585 23.8477 40.6484 23.9551V24.9648C42.5677 24.8717 44.2578 24.7214 45.7188 24.5137L45.8906 25.8457C44.0645 26.1465 42.1846 26.3398 40.251 26.4258C38.3245 26.5117 36.1725 26.5547 33.7949 26.5547L33.5801 25.0938ZM45.1816 18.3691H34.0742V16.9512H38.6074V15.4043H40.6484V16.9512H45.1816V18.3691ZM39.6172 20.2598C38.7865 20.2598 38.1383 20.3636 37.6729 20.5713C37.2074 20.7718 36.9746 21.0547 36.9746 21.4199C36.9746 21.8066 37.2074 22.111 37.6729 22.333C38.1455 22.555 38.7936 22.666 39.6172 22.666C40.4336 22.666 41.0745 22.555 41.54 22.333C42.0055 22.111 42.2383 21.8066 42.2383 21.4199C42.2383 21.0547 42.0055 20.7718 41.54 20.5713C41.0745 20.3636 40.4336 20.2598 39.6172 20.2598ZM70.2969 26.5762H52.7227V24.9434H60.5215V22.9023H54.9141V16.457H68.127V18.0684H56.9336V21.2695H68.2559V22.9023H62.498V24.9434H70.2969V26.5762ZM61.4883 27.8223C62.8704 27.8223 64.0557 27.9583 65.0439 28.2305C66.0394 28.5026 66.8021 28.9036 67.332 29.4336C67.862 29.9564 68.127 30.5866 68.127 31.3242C68.127 32.0618 67.862 32.6921 67.332 33.2148C66.8092 33.7376 66.0501 34.1351 65.0547 34.4072C64.0592 34.6794 62.8704 34.819 61.4883 34.8262C60.099 34.819 58.903 34.6794 57.9004 34.4072C56.9049 34.1351 56.1387 33.7376 55.6016 33.2148C55.0716 32.6921 54.8066 32.0618 54.8066 31.3242C54.8066 30.5866 55.0716 29.9564 55.6016 29.4336C56.1387 28.9036 56.9049 28.5026 57.9004 28.2305C58.903 27.9583 60.099 27.8223 61.4883 27.8223ZM61.4883 29.4121C60.013 29.4121 58.8743 29.5804 58.0723 29.917C57.2702 30.2464 56.8691 30.7155 56.8691 31.3242C56.8691 31.9401 57.2702 32.4128 58.0723 32.7422C58.8815 33.0645 60.0202 33.222 61.4883 33.2148C62.9421 33.2292 64.07 33.0716 64.8721 32.7422C65.6813 32.4056 66.0859 31.9329 66.0859 31.3242C66.0859 30.7155 65.6813 30.2464 64.8721 29.917C64.07 29.5804 62.9421 29.4121 61.4883 29.4121ZM39.5527 38.4355C40.4837 38.4355 41.3109 38.5967 42.0342 38.9189C42.7646 39.2412 43.334 39.6924 43.7422 40.2725C44.1504 40.8525 44.3581 41.5221 44.3652 42.2812C44.3581 42.9258 44.1969 43.5094 43.8818 44.0322C43.5739 44.555 43.137 44.9883 42.5713 45.332C42.0127 45.6758 41.3646 45.9049 40.627 46.0195V47.7275C42.5176 47.6201 44.1862 47.459 45.6328 47.2441L45.7832 48.748C43.9857 49.0703 42.1058 49.2852 40.1436 49.3926C38.1885 49.4928 36.1081 49.543 33.9023 49.543L33.6875 47.8887H34.6543C35.8789 47.8887 37.1895 47.8672 38.5859 47.8242V46.041C37.8197 45.9336 37.1465 45.708 36.5664 45.3643C35.9863 45.0205 35.5387 44.5837 35.2236 44.0537C34.9085 43.5238 34.7546 42.9329 34.7617 42.2812C34.7546 41.5293 34.9515 40.8633 35.3525 40.2832C35.7607 39.696 36.3301 39.2412 37.0605 38.9189C37.791 38.5967 38.6217 38.4355 39.5527 38.4355ZM39.5527 40.0039C38.987 40.0039 38.4857 40.097 38.0488 40.2832C37.612 40.4694 37.2718 40.7344 37.0283 41.0781C36.7848 41.4219 36.6667 41.8229 36.6738 42.2812C36.6667 42.7253 36.7848 43.1191 37.0283 43.4629C37.2718 43.7995 37.612 44.0645 38.0488 44.2578C38.4928 44.444 38.9941 44.5371 39.5527 44.5371C40.1185 44.5371 40.6198 44.444 41.0566 44.2578C41.4935 44.0716 41.8301 43.8066 42.0664 43.4629C42.3099 43.1191 42.4316 42.7253 42.4316 42.2812C42.4316 41.8229 42.3099 41.4219 42.0664 41.0781C41.8301 40.7344 41.4935 40.4694 41.0566 40.2832C40.627 40.097 40.1257 40.0039 39.5527 40.0039ZM48.8555 43.957H51.6055V45.6758H48.8555V52.3145H46.8145V37.5977H48.8555V43.957ZM49.543 56.418H36.416V51.0254H38.457V54.7422H49.543V56.418ZM70.3398 54.5273H52.7227V52.8086H57.5352V49.4141H54.8711V43.291H66.1719V40.6055H54.8281V38.9297H68.1914V44.9453H56.8906V47.7383H68.6426V49.4141H65.7207V52.8086H70.3398V54.5273ZM63.7227 52.8086V49.4141H59.5117V52.8086H63.7227Z" fill="white"/>
<defs>
<filter id="filter0_d_1032_70171" x="10" y="0" width="92" height="88.1592" filterUnits="userSpaceOnUse" color-interpolation-filters="sRGB">
<feFlood flood-opacity="0" result="BackgroundImageFix"/>
<feColorMatrix in="SourceAlpha" type="matrix" values="0 0 0 0 0 0 0 0 0 0 0 0 0 0 0 0 0 0 127 0" result="hardAlpha"/>
<feOffset dx="4" dy="4"/>
<feGaussianBlur stdDeviation="3"/>
<feComposite in2="hardAlpha" operator="out"/>
<feColorMatrix type="matrix" values="0 0 0 0 0 0 0 0 0 0 0 0 0 0 0 0 0 0 0.2 0"/>
<feBlend mode="normal" in2="BackgroundImageFix" result="effect1_dropShadow_1032_70171"/>
<feBlend mode="normal" in="SourceGraphic" in2="effect1_dropShadow_1032_70171" result="shape"/>
</filter>
</defs>
</svg>
