<svg width="30" height="30" viewBox="0 0 30 30" fill="none" xmlns="http://www.w3.org/2000/svg">
<path d="M14.8293 16.6305H15.5122C16.6437 16.6305 17.561 15.7132 17.561 14.5817V11.85C17.561 10.7185 16.6437 9.80127 15.5122 9.80127H10.0488C8.91729 9.80127 8 10.7185 8 11.85V14.5817C8 15.1251 8.21585 15.6462 8.60008 16.0304C8.9843 16.4147 9.50541 16.6305 10.0488 16.6305" stroke="black" stroke-width="1.5" stroke-linecap="round" stroke-linejoin="round"/>
<path d="M15.1692 13.2158H14.4863C13.3548 13.2158 12.4375 14.1331 12.4375 15.2646V17.9963C12.4375 19.1278 13.3548 20.0451 14.4863 20.0451H19.9497C21.0812 20.0451 21.9984 19.1278 21.9984 17.9963V15.2646C21.9984 14.1331 21.0812 13.2158 19.9497 13.2158" stroke="black" stroke-width="1.5" stroke-linecap="round" stroke-linejoin="round"/>
<path fill-rule="evenodd" clip-rule="evenodd" d="M10.3333 4.5H19.6667C22.8883 4.5 25.5 7.11167 25.5 10.3333V19.6667C25.5 22.8883 22.8883 25.5 19.6667 25.5H10.3333C7.11167 25.5 4.5 22.8883 4.5 19.6667V10.3333C4.5 7.11167 7.11167 4.5 10.3333 4.5Z" stroke="black" stroke-width="1.5" stroke-linecap="round" stroke-linejoin="round"/>
</svg>
