<svg width="49" height="48" viewBox="0 0 49 48" fill="none" xmlns="http://www.w3.org/2000/svg">
<path d="M8.16602 32.8887V11.5553C8.16602 9.59166 9.75789 7.99979 11.7216 7.99979H36.6105C38.5741 7.99979 40.166 9.59166 40.166 11.5553V32.8887" stroke="white" stroke-width="2" stroke-linecap="round" stroke-linejoin="round"/>
<path fill-rule="evenodd" clip-rule="evenodd" d="M7.27778 32.8887H41.0556C42.0374 32.8887 42.8333 33.6846 42.8333 34.6665C42.8333 37.612 40.4455 39.9998 37.5 39.9998H10.8333C7.88781 39.9998 5.5 37.612 5.5 34.6665C5.5 33.6846 6.29594 32.8887 7.27778 32.8887Z" stroke="white" stroke-width="2" stroke-linecap="round" stroke-linejoin="round"/>
<path fill-rule="evenodd" clip-rule="evenodd" d="M14.5166 20.0298C14.346 19.7341 14.346 19.3755 14.5166 19.0799C16.5722 15.5254 20.3693 12.4442 24.1664 12.4442C27.9636 12.4442 31.7607 15.5254 33.8163 19.0809C33.9869 19.3765 33.9869 19.7352 33.8163 20.0308C31.7607 23.5853 27.9636 26.6665 24.1664 26.6665C20.3693 26.6665 16.5722 23.5853 14.5166 20.0298Z" stroke="white" stroke-width="1.5" stroke-linecap="round" stroke-linejoin="round"/>
<path fill-rule="evenodd" clip-rule="evenodd" d="M26.0523 17.6697C27.0937 18.7111 27.0937 20.3996 26.0523 21.441C25.0109 22.4824 23.3224 22.4824 22.281 21.441C21.2397 20.3996 21.2397 18.7111 22.281 17.6697C23.3224 16.6283 25.0109 16.6283 26.0523 17.6697Z" stroke="white" stroke-width="1.4286" stroke-linecap="round" stroke-linejoin="round"/>
</svg>
