<svg width="102" height="89" viewBox="0 0 102 89" fill="none" xmlns="http://www.w3.org/2000/svg">
<g filter="url(#filter0_d_1032_70176)">
<path d="M12 2H80C86.6274 2 92 7.37258 92 14V55.559C92 60.5087 88.9609 64.9505 84.3475 66.7438L57.0767 77.344C54.3326 78.4106 51.2922 78.4313 48.5339 77.402L19.8047 66.6816C15.1116 64.9303 12 60.4481 12 55.4388V2Z" fill="#81B01B"/>
</g>
<path opacity="0.8" d="M14.5 4.5H78C84.3513 4.5 89.5 9.64873 89.5 16V54.3441C89.5 59.0904 86.5841 63.3492 82.159 65.0657L56.8475 74.8842C54.222 75.9026 51.3142 75.9223 48.6753 74.9396L21.9868 65.0011C17.4854 63.3248 14.5 59.0274 14.5 54.2241V4.5Z" fill="#81B01B" stroke="white"/>
<path d="M12 2V14H0L12 2Z" fill="#5B8306"/>
<path d="M40.8555 31.3672H43.6055V33.1074H40.8555V37.9199H38.8145V26.5762H40.8555V31.3672ZM40.8555 42.7539H30.2207V44.2148H41.5645V45.6328H28.1797V41.4434H38.8359V40.1543H28.1367V38.7363H40.8555V42.7539ZM25.5801 36.0938C27.7285 36.0938 29.4043 36.0758 30.6074 36.04V34.9551C29.4831 34.8548 28.6058 34.5863 27.9756 34.1494C27.3454 33.7126 27.0339 33.1361 27.041 32.4199C27.0339 31.9043 27.2165 31.4603 27.5889 31.0879C27.9613 30.7083 28.4912 30.4219 29.1787 30.2285C29.8734 30.028 30.6862 29.9277 31.6172 29.9277C32.541 29.9277 33.3467 30.028 34.0342 30.2285C34.7217 30.4219 35.2516 30.7083 35.624 31.0879C36.0036 31.4603 36.1934 31.9043 36.1934 32.4199C36.1934 33.1289 35.8783 33.7018 35.248 34.1387C34.625 34.5755 33.7585 34.8477 32.6484 34.9551V35.9648C34.5677 35.8717 36.2578 35.7214 37.7188 35.5137L37.8906 36.8457C36.0645 37.1465 34.1846 37.3398 32.251 37.4258C30.3245 37.5117 28.1725 37.5547 25.7949 37.5547L25.5801 36.0938ZM37.1816 29.3691H26.0742V27.9512H30.6074V26.4043H32.6484V27.9512H37.1816V29.3691ZM31.6172 31.2598C30.7865 31.2598 30.1383 31.3636 29.6729 31.5713C29.2074 31.7718 28.9746 32.0547 28.9746 32.4199C28.9746 32.8066 29.2074 33.111 29.6729 33.333C30.1455 33.555 30.7936 33.666 31.6172 33.666C32.4336 33.666 33.0745 33.555 33.54 33.333C34.0055 33.111 34.2383 32.8066 34.2383 32.4199C34.2383 32.0547 34.0055 31.7718 33.54 31.5713C33.0745 31.3636 32.4336 31.2598 31.6172 31.2598ZM62.2969 37.5762H44.7227V35.9434H52.5215V33.9023H46.9141V27.457H60.127V29.0684H48.9336V32.2695H60.2559V33.9023H54.498V35.9434H62.2969V37.5762ZM53.4883 38.8223C54.8704 38.8223 56.0557 38.9583 57.0439 39.2305C58.0394 39.5026 58.8021 39.9036 59.332 40.4336C59.862 40.9564 60.127 41.5866 60.127 42.3242C60.127 43.0618 59.862 43.6921 59.332 44.2148C58.8092 44.7376 58.0501 45.1351 57.0547 45.4072C56.0592 45.6794 54.8704 45.819 53.4883 45.8262C52.099 45.819 50.903 45.6794 49.9004 45.4072C48.9049 45.1351 48.1387 44.7376 47.6016 44.2148C47.0716 43.6921 46.8066 43.0618 46.8066 42.3242C46.8066 41.5866 47.0716 40.9564 47.6016 40.4336C48.1387 39.9036 48.9049 39.5026 49.9004 39.2305C50.903 38.9583 52.099 38.8223 53.4883 38.8223ZM53.4883 40.4121C52.013 40.4121 50.8743 40.5804 50.0723 40.917C49.2702 41.2464 48.8691 41.7155 48.8691 42.3242C48.8691 42.9401 49.2702 43.4128 50.0723 43.7422C50.8815 44.0645 52.0202 44.222 53.4883 44.2148C54.9421 44.2292 56.07 44.0716 56.8721 43.7422C57.6813 43.4056 58.0859 42.9329 58.0859 42.3242C58.0859 41.7155 57.6813 41.2464 56.8721 40.917C56.07 40.5804 54.9421 40.4121 53.4883 40.4121ZM81.2891 37.1465H73.5117V38.9941C75.2949 39.0944 76.6771 39.4382 77.6582 40.0254C78.6465 40.6055 79.1406 41.3932 79.1406 42.3887C79.1406 43.112 78.8757 43.7279 78.3457 44.2363C77.8158 44.752 77.0531 45.1387 76.0576 45.3965C75.0693 45.6615 73.8841 45.7904 72.502 45.7832C71.1055 45.7904 69.9059 45.6615 68.9033 45.3965C67.9079 45.1387 67.1452 44.752 66.6152 44.2363C66.0853 43.7279 65.8203 43.112 65.8203 42.3887C65.8203 41.3932 66.3145 40.6055 67.3027 40.0254C68.291 39.4382 69.6875 39.0944 71.4922 38.9941V37.1465H63.7363V35.4922H81.2891V37.1465ZM72.502 40.541C71.0267 40.541 69.888 40.7021 69.0859 41.0244C68.2839 41.3467 67.8828 41.8014 67.8828 42.3887C67.8828 42.9688 68.2874 43.4199 69.0967 43.7422C69.9059 44.0645 71.041 44.222 72.502 44.2148C73.4616 44.222 74.2852 44.154 74.9727 44.0107C75.6673 43.8675 76.1937 43.6598 76.5518 43.3877C76.917 43.1084 77.0996 42.7754 77.0996 42.3887C77.0996 41.8014 76.695 41.3467 75.8857 41.0244C75.0837 40.7021 73.9557 40.541 72.502 40.541ZM79.7207 29.0898H73.877C73.9701 29.6986 74.3102 30.2715 74.8975 30.8086C75.4919 31.3457 76.2653 31.7969 77.2178 32.1621C78.1774 32.5202 79.2337 32.7565 80.3867 32.8711L79.6562 34.4824C78.5462 34.3535 77.5114 34.1172 76.5518 33.7734C75.5993 33.4225 74.7721 32.9821 74.0703 32.4521C73.3757 31.9222 72.8564 31.3206 72.5127 30.6475C72.1618 31.3206 71.6354 31.9222 70.9336 32.4521C70.2389 32.9821 69.4154 33.4225 68.4629 33.7734C67.5104 34.1172 66.4792 34.3535 65.3691 34.4824L64.6602 32.8711C65.7988 32.7565 66.8408 32.5202 67.7861 32.1621C68.7386 31.7969 69.5085 31.3457 70.0957 30.8086C70.6901 30.2715 71.0339 29.6986 71.127 29.0898H65.3477V27.457H79.7207V29.0898Z" fill="white"/>
<defs>
<filter id="filter0_d_1032_70176" x="10" y="0" width="92" height="88.1592" filterUnits="userSpaceOnUse" color-interpolation-filters="sRGB">
<feFlood flood-opacity="0" result="BackgroundImageFix"/>
<feColorMatrix in="SourceAlpha" type="matrix" values="0 0 0 0 0 0 0 0 0 0 0 0 0 0 0 0 0 0 127 0" result="hardAlpha"/>
<feOffset dx="4" dy="4"/>
<feGaussianBlur stdDeviation="3"/>
<feComposite in2="hardAlpha" operator="out"/>
<feColorMatrix type="matrix" values="0 0 0 0 0 0 0 0 0 0 0 0 0 0 0 0 0 0 0.2 0"/>
<feBlend mode="normal" in2="BackgroundImageFix" result="effect1_dropShadow_1032_70176"/>
<feBlend mode="normal" in="SourceGraphic" in2="effect1_dropShadow_1032_70176" result="shape"/>
</filter>
</defs>
</svg>
