<svg width="30" height="31" viewBox="0 0 30 31" fill="none" xmlns="http://www.w3.org/2000/svg">
<path d="M15 0.5C18.9782 0.5 22.7936 2.08035 25.6066 4.8934L15 15.5V0.5Z" fill="#F9CC2E"/>
<path d="M25.6066 4.8934C28.4196 7.70645 30 11.5218 30 15.5L15 15.5L25.6066 4.8934Z" fill="#EF8524"/>
<path d="M30 15.5C30 19.4782 28.4196 23.2936 25.6066 26.1066L15 15.5H30Z" fill="#C71269"/>
<path d="M25.6066 26.1066C22.7936 28.9196 18.9782 30.5 15 30.5L15 15.5L25.6066 26.1066Z" fill="#EE4040"/>
<path d="M15 30.5C11.0218 30.5 7.20644 28.9196 4.3934 26.1066L15 15.5L15 30.5Z" fill="#474BB0"/>
<path d="M4.3934 26.1066C1.58035 23.2936 6.00699e-07 19.4782 0 15.5L15 15.5L4.3934 26.1066Z" fill="#4D79EC"/>
<path d="M0 15.5C3.47789e-07 11.5218 1.58035 7.70644 4.3934 4.8934L15 15.5L0 15.5Z" fill="#7ED1E3"/>
<path d="M4.3934 4.8934C5.78628 3.50052 7.43986 2.39563 9.25975 1.64181C11.0796 0.887986 13.0302 0.5 15 0.5V15.5L4.3934 4.8934Z" fill="#39CCB2"/>
<circle cx="14.9997" cy="15.5" r="5.35714" fill="white"/>
</svg>
