<svg xmlns="http://www.w3.org/2000/svg" width="100" height="100" viewBox="0 0 100 100" fill="none">
    <path d="M45.416 88.0559H16.604C11.2999 88.0559 7 83.756 7 78.4519V20.0259C7 14.7217 11.2999 10.4219 16.604 10.4219H69.426C74.7301 10.4219 79.03 14.7217 79.03 20.0259V44.8379" stroke="black" stroke-width="3" stroke-linecap="round" stroke-linejoin="round"/>
    <path d="M23 34H63" stroke="black" stroke-width="3" stroke-linecap="round" stroke-linejoin="round"/>
    <path d="M23 51H51" stroke="black" stroke-width="3" stroke-linecap="round" stroke-linejoin="round"/>
    <path d="M23 68H41" stroke="black" stroke-width="3" stroke-linecap="round" stroke-linejoin="round"/>
    <path d="M59.1797 5.17969V15.1797" stroke="black" stroke-width="3" stroke-linecap="round" stroke-linejoin="round"/>
    <path d="M43 5.17969V15.1797" stroke="black" stroke-width="3" stroke-linecap="round" stroke-linejoin="round"/>
    <path d="M26.8203 5.17969V15.1797" stroke="black" stroke-width="3" stroke-linecap="round" stroke-linejoin="round"/>
    <path d="M73.8125 94.0391C84.8582 94.0391 93.8125 85.0848 93.8125 74.0391C93.8125 62.9934 84.8582 54.0391 73.8125 54.0391C62.7668 54.0391 53.8125 62.9934 53.8125 74.0391C53.8125 85.0848 62.7668 94.0391 73.8125 94.0391Z" stroke="#FF6600" stroke-width="3" stroke-linecap="round" stroke-linejoin="round"/>
    <path d="M73.8125 65.6133V74.6133" stroke="#FF6600" stroke-width="3" stroke-linecap="round" stroke-linejoin="round"/>
    <circle cx="74" cy="82" r="2" fill="#FF6600"/>
</svg>