<svg width="49" height="48" viewBox="0 0 49 48" fill="none" xmlns="http://www.w3.org/2000/svg">
<path fill-rule="evenodd" clip-rule="evenodd" d="M38.5 33.3295V37.75C38.5 38.716 37.716 39.5 36.75 39.5H14C12.0662 39.5 10.5 37.9337 10.5 36V20.25C10.5 18.3162 12.0662 16.75 14 16.75H18.0005C18.809 16.75 19.5912 17.03 20.216 17.541L37.8577 31.975C38.2637 32.3075 38.5 32.8045 38.5 33.3295Z" stroke="white" stroke-width="2" stroke-linecap="round" stroke-linejoin="round"/>
<path d="M36.75 16.75H29.75C28.784 16.75 28 15.966 28 15V8" stroke="white" stroke-width="2" stroke-linecap="round" stroke-linejoin="round"/>
<path d="M12.25 16.75V11.5C12.25 9.56625 13.8163 8 15.75 8H28.301C29.2285 8 30.1193 8.36925 30.7738 9.02375L35.7245 13.9745C36.3808 14.6307 36.75 15.5215 36.75 16.449V30.75" stroke="white" stroke-width="2" stroke-linecap="round" stroke-linejoin="round"/>
<path d="M17.5 32.5H22.75" stroke="white" stroke-width="2" stroke-linecap="round" stroke-linejoin="round"/>
</svg>
