<svg width="49" height="46" viewBox="0 0 49 46" fill="none" xmlns="http://www.w3.org/2000/svg">
<g id="Vector" style="mix-blend-mode:multiply">
<path d="M32.0275 11.0579C31.8906 10.5636 31.7509 10.0339 31.5968 9.51074C31.0636 7.69465 30.6074 5.85596 30.375 3.95144C30.2229 2.70366 30.1918 1.47688 30.7957 0.366283C30.8681 0.232769 30.9827 0.12818 31.087 0.023076C31.116 -0.00655698 31.1791 0.0112376 31.3043 0C31.0179 1.64464 31.5493 3.09027 32.1741 4.47889C33.0044 6.32557 33.8328 8.18186 34.787 9.94099C38.9273 17.5729 42.4911 25.5822 46.1008 33.5612C46.8901 35.3069 47.6298 37.0846 48.4406 38.8157C49.3284 40.7108 49.0832 42.4807 48.2395 44.2529C47.881 45.0071 47.3799 45.4417 46.6561 45.4674C45.8016 45.4976 44.9449 45.4819 44.0892 45.4757C38.5195 45.4369 32.9503 45.3694 27.381 45.3627C22.7172 45.3578 18.0519 45.3713 13.3904 45.4757C10.3468 45.5446 7.30809 45.7929 4.2671 45.9563C3.88745 45.9771 3.50376 45.9452 3.12631 45.9868C2.01954 46.1089 1.34026 45.3704 0.797281 44.3711C0.591677 43.9921 0.44189 43.5711 0.269178 43.1666C-0.164236 42.1506 -0.0709536 41.2033 0.525124 40.3342C0.942322 39.7264 1.35873 39.1168 1.79878 38.5325C4.66838 34.7167 7.85736 31.2994 11.2247 28.1103C16.9939 22.6469 23.0544 17.6578 29.2551 12.9024C30.1212 12.2383 31.057 11.6977 32.0274 11.0561L32.0275 11.0579ZM5.29527 41.0513C5.69102 41.1132 5.913 41.1828 6.13233 41.1762C6.98832 41.1485 7.84351 41.0983 8.69883 41.0516C13.4541 40.793 18.2146 40.8145 22.9746 40.9227C27.3546 41.0232 31.7338 41.2061 36.1134 41.3569C39.0645 41.4587 42.0159 41.57 44.967 41.6709C45.192 41.6788 45.4508 41.7523 45.6282 41.3428C45.5553 41.1492 45.4795 40.8897 45.3671 40.6558C42.9979 35.7398 40.6388 30.8166 38.2466 25.9161C36.4752 22.2864 34.8075 18.5977 33.375 14.7655C33.2616 14.4622 33.11 14.1793 32.9995 13.9375C32.7826 13.8885 32.6375 13.8128 32.5077 13.8372C32.3282 13.8703 32.1345 13.9386 31.989 14.0607C31.4096 14.5448 30.8458 15.0553 30.2766 15.5573C25.4563 19.8071 20.6741 24.1155 16.0631 28.6801C12.6488 32.06 9.36911 35.6122 6.38096 39.5241C6.04035 39.9697 5.7257 40.4439 5.29527 41.0513Z" fill="#CC0000" fill-opacity="0.7"/>
</g>
</svg>
