<svg width="38" height="38" viewBox="0 0 38 38" fill="none" xmlns="http://www.w3.org/2000/svg">
<path d="M4.75 14.2499V9.49992C4.75 7.75034 6.16708 6.33325 7.91667 6.33325H30.0833C31.8329 6.33325 33.25 7.75034 33.25 9.49992V28.4999C33.25 30.2495 31.8329 31.6666 30.0833 31.6666H20.5833" stroke="black" stroke-width="2" stroke-linecap="round" stroke-linejoin="round"/>
<path d="M14.2501 31.6666L13.8527 30.6691C13.6516 30.164 13.3397 29.7096 12.9407 29.3407C12.2646 28.7137 11.3763 28.3669 10.4564 28.3669H6.96041C6.03891 28.3669 5.15225 28.7153 4.47616 29.3407C4.07716 29.7096 3.76525 30.164 3.56416 30.6691L3.16675 31.6666" stroke="black" stroke-width="2" stroke-linecap="round" stroke-linejoin="round"/>
<path fill-rule="evenodd" clip-rule="evenodd" d="M10.6671 19.8122C11.7485 20.8937 11.7485 22.648 10.6671 23.731C9.58565 24.8124 7.83132 24.8124 6.74832 23.731C5.6669 22.6496 5.6669 20.8952 6.74832 19.8122C7.83132 18.7293 9.58565 18.7293 10.6671 19.8122Z" stroke="black" stroke-width="2" stroke-linecap="round" stroke-linejoin="round"/>
<path d="M17.4167 23.75V14.25" stroke="black" stroke-width="2" stroke-linecap="round" stroke-linejoin="round"/>
<path d="M22.1667 23.7498V18.4932" stroke="black" stroke-width="2" stroke-linecap="round" stroke-linejoin="round"/>
<path d="M26.9167 23.75V15.1208" stroke="black" stroke-width="2" stroke-linecap="round" stroke-linejoin="round"/>
</svg>
