<svg width="40" height="40" viewBox="0 0 40 40" fill="none" xmlns="http://www.w3.org/2000/svg">
<path d="M35 21.7783V31.62C35 33.4866 33.4983 35 31.645 35H8.355C6.50167 35 5 33.4866 5 31.62V10.0466C5 8.17996 6.50167 6.66663 8.355 6.66663H20" stroke="white" stroke-width="1.5" stroke-linecap="round" stroke-linejoin="round"/>
<path fill-rule="evenodd" clip-rule="evenodd" d="M13.0469 28.62L19.2652 27.065C19.5585 26.9917 19.8252 26.84 20.0402 26.6267L34.0235 12.6434C35.3252 11.3417 35.3252 9.2317 34.0235 7.93003L33.7369 7.64336C32.4352 6.3417 30.3252 6.3417 29.0235 7.64336L15.0402 21.6267C14.8269 21.84 14.6752 22.1084 14.6019 22.4017L13.0469 28.62Z" stroke="white" stroke-width="1.5" stroke-linecap="round" stroke-linejoin="round"/>
<path d="M26.3833 10.2833L31.3833 15.2833" stroke="white" stroke-width="1.5" stroke-linecap="round" stroke-linejoin="round"/>
<path d="M19.2435 27.0701C19.2669 26.8934 19.2969 26.7184 19.2969 26.5351C19.2969 24.2334 17.4319 22.3684 15.1302 22.3684C14.9469 22.3684 14.7719 22.4001 14.5952 22.4217" stroke="white" stroke-width="1.5" stroke-linecap="round" stroke-linejoin="round"/>
</svg>
