<svg width="144" height="139" viewBox="0 0 144 139" fill="none" xmlns="http://www.w3.org/2000/svg">
<g clip-path="url(#clip0_1952_141535)">
<path opacity="0.76" d="M84.4232 42.0663C90.2392 34.2903 98.4369 28.3238 107.622 25.1857C112.191 23.6248 117.134 22.7523 121.873 23.6804C126.611 24.6086 131.135 27.5843 133.033 32.0306C135.707 38.2491 132.715 45.6002 128.125 50.5593C122.511 56.6285 114.476 60.377 106.232 60.7738C101.016 61.0296 96.2083 59.8743 91.6173 57.8539C89.7587 52.5253 86.8325 47.8664 83.1527 43.8571C83.5773 43.1937 84.0194 42.5871 84.4221 42.0547L84.4232 42.0663Z" fill="#ADDEE5"/>
<path opacity="0.76" d="M80.2047 52.9241C74.7877 46.3026 71.1314 38.2273 69.7765 29.7681C69.0152 24.9966 68.9893 19.9753 70.7106 15.4573C72.432 10.9393 76.1171 6.98479 80.8123 5.85623C87.3813 4.28134 94.1205 8.46269 98.2299 13.834C103.255 20.4012 105.58 28.9618 104.581 37.1662C103.833 43.3311 101.227 48.594 97.5933 53.4099C91.9163 52.1078 86.0352 52.0325 80.1931 52.9252L80.2047 52.9241Z" fill="#ADDEE5"/>
<path d="M122.69 36.4439C114.372 36.2158 106.257 39.6327 100.493 45.6C99.4428 46.6777 101.264 48.1455 102.29 47.0702C107.653 41.5298 115.239 38.5526 122.924 38.7625C124.413 38.7998 124.168 36.4824 122.69 36.4439Z" fill="white"/>
<path d="M82.6411 21.9246C87.2487 28.9906 90.0085 37.1093 90.7146 45.5167C90.8421 47.0145 93.1586 46.7813 93.0312 45.2834C92.2958 36.4691 89.3573 27.9702 84.527 20.5519C83.7105 19.2991 81.8246 20.6718 82.6411 21.9246Z" fill="white"/>
<path d="M122.642 92.9058L140.965 102.432C142.1 103.02 141.689 104.748 140.404 104.76L119.969 104.932L122.642 92.9058Z" fill="#200B06"/>
<path d="M43.7251 124.167L83.0306 129.905C105.676 133.211 126.908 117.372 130.206 94.6957C133.504 72.0313 117.675 50.7777 95.0184 47.473L55.7129 41.7344C28.8794 37.3865 11.8471 54.2669 8.54943 76.9429C5.25057 99.6073 21.0799 120.861 43.7367 124.166L43.7251 124.167Z" fill="#79471D"/>
<path d="M100.788 90.8293C103.311 73.4776 96.6495 56.8167 84.5083 45.8133L94.6139 47.2901C96.2288 47.5256 97.7952 47.8597 99.3338 48.2669C111.136 59.2694 117.588 75.7056 115.098 92.808C112.707 109.268 102.554 122.774 88.9059 130.156C86.8359 130.165 84.7276 130.026 82.6145 129.724L74.0288 128.468C87.9525 121.153 98.3487 107.505 100.777 90.8305L100.788 90.8293Z" fill="#FFD800"/>
<path d="M60.7567 27.1055C59.8835 25.8701 61.8482 24.5832 62.7214 25.8186C64.9885 29.045 66.1222 33.0998 66.3639 37.0103C66.6149 41.0135 65.9011 45.1958 63.4444 48.4528C63.0625 48.9597 62.2285 48.9265 61.7915 48.5373C61.2884 48.0726 61.3249 47.3897 61.7068 46.8829C63.8013 44.0956 64.2536 40.3378 64.0066 36.9549C63.7525 33.5024 62.7536 29.9726 60.7463 27.1183L60.7567 27.1055Z" fill="#FFCD00"/>
<path d="M32.9172 29.4959C36.0145 30.8586 38.9767 32.6214 41.2132 35.1951C43.4763 37.8012 44.5852 41.1442 44.6492 44.5689C44.6735 46.0889 42.3083 46.3036 42.2828 44.7721C42.2214 41.7218 41.311 38.839 39.2543 36.54C37.2625 34.3047 34.5739 32.8188 31.8809 31.6379C30.4846 31.0173 31.5209 28.8753 32.9172 29.4959Z" fill="#FFCD00"/>
<path d="M62.3722 22.2342C66.4364 23.0898 65.108 29.4185 61.0426 28.5513C56.9784 27.6958 58.3068 21.3671 62.3722 22.2342Z" fill="#FF67CA"/>
<path d="M31.7947 26.5994C35.9318 27.3656 34.7541 33.7962 30.6169 33.03C26.4798 32.2638 27.6575 25.8332 31.7947 26.5994Z" fill="#FF67CA"/>
<path d="M12.4829 78.0111C15.4749 58.4575 30.5832 35.7165 53.5059 54.9091C80.4924 45.9032 92.7009 70.4725 85.0065 95.2658C79.1402 114.16 63.0716 122.02 43.1418 118.956C23.2121 115.892 9.4909 97.5648 12.4829 78.0111Z" fill="#FFD800"/>
<path d="M50.7999 53.2504C49.5863 52.2367 48.3844 51.3389 47.2173 50.5547C48.5175 51.2669 49.8549 52.116 51.2203 53.1261C51.0732 53.1761 50.9365 53.2132 50.8011 53.262L50.7999 53.2504Z" fill="#FF9F00"/>
<path d="M40.4484 117.306C60.3782 120.37 76.4456 112.498 82.3132 93.6156C87.1812 77.9366 84.0786 62.346 74.3116 55.2842C86.1826 61.2792 90.3102 78.2188 85.0192 95.2753C79.1528 114.17 63.0843 122.03 43.1545 118.966C37.545 118.102 32.4339 116.028 28.0402 113.063C31.7833 115.145 35.9557 116.611 40.4484 117.306Z" fill="#FF9F00"/>
<path d="M60.0933 79.1369C60.4195 77.0321 59.4477 75.1337 57.9229 74.8968C56.3981 74.6599 54.8976 76.174 54.5715 78.2788C54.2453 80.3836 55.2171 82.2819 56.7419 82.5189C58.2667 82.7558 59.7672 81.2416 60.0933 79.1369Z" fill="black"/>
<path d="M39.2754 77.4256C39.6173 75.219 38.6016 73.2294 37.0069 72.9816C35.4122 72.7338 33.8423 74.3217 33.5004 76.5282C33.1585 78.7347 34.1741 80.7243 35.7688 80.9721C37.3636 81.2199 38.9335 79.6321 39.2754 77.4256Z" fill="black"/>
<path d="M66.8357 92.9365C62.983 94.5306 58.4467 94.3316 54.62 92C51.5408 90.1202 49.3816 87.1523 48.5379 83.6538C47.693 80.1437 48.252 76.5156 50.1308 73.4456C52.0085 70.364 54.9734 68.2035 58.4687 67.3597C61.9756 66.5147 65.589 67.076 68.6682 68.9559C71.7474 70.8357 73.9066 73.8036 74.7503 77.3021C75.594 80.8006 75.035 84.4287 73.1573 87.5103C71.6106 90.0433 69.3729 91.873 66.8241 92.9376L66.8357 92.9365ZM57.7941 71.2336C55.8509 72.0382 54.2245 73.4316 53.1092 75.2536C51.7129 77.5373 51.2933 80.2262 51.9289 82.8205C52.5646 85.4148 54.1556 87.6202 56.4363 89.0066C61.1369 91.8825 67.3052 90.3948 70.1766 85.6791C73.0492 80.9749 71.5617 74.8009 66.8495 71.9261C64.5676 70.5281 61.8811 70.1077 59.2891 70.7434C58.7749 70.8655 58.2653 71.0339 57.7825 71.2348L57.7941 71.2336Z" fill="#4E4776"/>
<path d="M37.1749 88.745C33.3222 90.3391 28.7859 90.1401 24.9592 87.8085C18.613 83.9272 16.5933 75.6052 20.4689 69.2425C24.3456 62.8914 32.66 60.8715 39.0178 64.7516C45.364 68.6329 47.3837 76.9549 43.5081 83.3176C41.9613 85.8506 39.7236 87.6803 37.1749 88.745ZM23.4496 71.0737C20.577 75.7779 22.0645 81.9519 26.7767 84.8267C31.4772 87.7026 37.6455 86.2149 40.517 81.4991C43.3895 76.795 41.9021 70.621 37.1899 67.7462C32.4893 64.8703 26.321 66.358 23.4496 71.0737Z" fill="#4E4776"/>
<path d="M44.199 76.7849L43.6589 80.2383L48.317 80.9688L48.857 77.5154L44.199 76.7849Z" fill="#4E4776"/>
<path d="M48.0552 95.0591C48.2847 92.0498 46.9065 89.4906 44.9769 89.3428C43.0472 89.195 41.2969 91.5147 41.0674 94.524C40.8379 97.5332 42.2161 100.092 44.1458 100.24C46.0754 100.388 47.8257 98.0683 48.0552 95.0591Z" fill="#E94245"/>
</g>
<defs>
<clipPath id="clip0_1952_141535">
<rect width="131" height="125" fill="white" transform="translate(0.9375 13.7812) rotate(-5.74989)"/>
</clipPath>
</defs>
</svg>
