<svg width="134" height="158" viewBox="0 0 134 158" fill="none" xmlns="http://www.w3.org/2000/svg">
<path d="M12 156H122C127.523 156 132 151.523 132 146V36.1421C132 33.49 130.946 30.9464 129.071 29.0711L104.929 4.92893C103.054 3.05357 100.51 2 97.8579 2H12C6.47715 2 2 6.47716 2 12V146C2 151.523 6.47715 156 12 156Z" fill="white" stroke="#F26100" stroke-width="4"/>
<path d="M111 31.0323H128.529C129.428 31.0323 129.87 29.9387 129.224 29.3137L102.695 3.64073C102.061 3.02666 101 3.47631 101 4.35933V21.0323C101 26.5551 105.477 31.0323 111 31.0323Z" fill="#F26100" stroke="#F26100" stroke-width="4"/>
<path d="M2 114H132V146C132 151.523 127.523 156 122 156H12C6.47715 156 2 151.523 2 146V114Z" fill="#F26100"/>
<path d="M2 114H132H2ZM134 146C134 152.627 128.627 158 122 158H12C5.37258 158 0 152.627 0 146H4C4 150.418 7.58172 154 12 154H122C126.418 154 130 150.418 130 146H134ZM12 158C5.37258 158 0 152.627 0 146V114H4V146C4 150.418 7.58172 154 12 154V158ZM134 114V146C134 152.627 128.627 158 122 158V154C126.418 154 130 150.418 130 146V114H134Z" fill="#F26100"/>
<path d="M51.9303 145.336C50.8263 145.336 49.8503 145.184 49.0023 144.88C48.1543 144.56 47.4263 144.064 46.8183 143.392C46.2263 142.72 45.7783 141.856 45.4743 140.8C45.1703 139.744 45.0183 138.48 45.0183 137.008V127.216H48.5463V137.32C48.5463 138.552 48.6823 139.528 48.9543 140.248C49.2263 140.968 49.6103 141.488 50.1063 141.808C50.6183 142.112 51.2263 142.264 51.9303 142.264C52.6343 142.264 53.2423 142.112 53.7543 141.808C54.2663 141.488 54.6583 140.968 54.9303 140.248C55.2183 139.528 55.3623 138.552 55.3623 137.32V127.216H58.7703V137.008C58.7703 138.48 58.6183 139.744 58.3143 140.8C58.0103 141.856 57.5623 142.72 56.9703 143.392C56.3783 144.064 55.6583 144.56 54.8103 144.88C53.9623 145.184 53.0023 145.336 51.9303 145.336ZM63.0434 145V127.216H69.2114C70.4754 127.216 71.6114 127.384 72.6194 127.72C73.6274 128.04 74.4274 128.6 75.0194 129.4C75.6114 130.184 75.9074 131.256 75.9074 132.616C75.9074 133.928 75.6114 135.008 75.0194 135.856C74.4274 136.688 73.6274 137.304 72.6194 137.704C71.6114 138.088 70.4754 138.28 69.2114 138.28H66.5954V145H63.0434ZM66.5954 135.472H68.8994C70.0514 135.472 70.9234 135.232 71.5154 134.752C72.1234 134.272 72.4274 133.56 72.4274 132.616C72.4274 131.656 72.1234 130.992 71.5154 130.624C70.9234 130.24 70.0514 130.048 68.8994 130.048H66.5954V135.472ZM72.6914 145L68.5634 137.368L71.0594 135.16L76.6754 145H72.6914ZM79.4028 145V127.216H82.9548V142.024H90.1788V145H79.4028Z" fill="white"/>
<path d="M58.9574 79.5973L57.389 81.1727C53.6355 84.9432 47.5498 84.9432 43.7963 81.1727V81.1727C40.0428 77.4023 40.0428 71.2891 43.7963 67.5187L57.389 53.8646C61.1425 50.0941 67.2282 50.0941 70.9817 53.8646V53.8646V53.8646C74.7352 57.6351 74.7352 63.7482 70.9817 67.5187L69.4133 69.0941" stroke="#F26100" stroke-width="5" stroke-linecap="round"/>
<path d="M64.5867 58.9053L63.0184 60.4808C59.2648 64.2513 59.2649 70.3644 63.0184 74.1349V74.1349C66.7719 77.9053 72.8575 77.9053 76.611 74.1349L90.2037 60.4808C93.9572 56.7103 93.9572 50.5972 90.2037 46.8267V46.8267V46.8267C86.4502 43.0563 80.3645 43.0563 76.611 46.8267L75.0426 48.4022" stroke="#F26100" stroke-width="5" stroke-linecap="round"/>
</svg>
