<svg width="134" height="158" viewBox="0 0 134 158" fill="none" xmlns="http://www.w3.org/2000/svg">
<path d="M12 156H122C127.523 156 132 151.523 132 146V36.1421C132 33.49 130.946 30.9464 129.071 29.0711L104.929 4.92893C103.054 3.05357 100.51 2 97.8579 2H12C6.47715 2 2 6.47716 2 12V146C2 151.523 6.47715 156 12 156Z" fill="#5CB9FF" stroke="#1085DE" stroke-width="4"/>
<path d="M111 31.0323H128.529C129.428 31.0323 129.87 29.9387 129.224 29.3137L102.695 3.64073C102.061 3.02666 101 3.47631 101 4.35933V21.0323C101 26.5551 105.477 31.0323 111 31.0323Z" fill="#1085DE" stroke="#1085DE" stroke-width="4"/>
<path d="M2 114H132V146C132 151.523 127.523 156 122 156H12C6.47715 156 2 151.523 2 146V114Z" fill="#1085DE"/>
<path d="M2 114H132H2ZM134 146C134 152.627 128.627 158 122 158H12C5.37258 158 0 152.627 0 146H4C4 150.418 7.58172 154 12 154H122C126.418 154 130 150.418 130 146H134ZM12 158C5.37258 158 0 152.627 0 146V114H4V146C4 150.418 7.58172 154 12 154V158ZM134 114V146C134 152.627 128.627 158 122 158V154C126.418 154 130 150.418 130 146V114H134Z" fill="#1085DE"/>
<path d="M41.1176 145V127.216H44.6696V134.248H51.3896V127.216H54.9176V145H51.3896V137.32H44.6696V145H41.1176ZM60.9617 145L57.5537 127.216H61.1777L62.5457 135.904C62.7057 136.832 62.8497 137.768 62.9777 138.712C63.1217 139.656 63.2577 140.608 63.3857 141.568H63.4817C63.6737 140.608 63.8657 139.656 64.0577 138.712C64.2497 137.768 64.4337 136.832 64.6097 135.904L66.6497 127.216H69.6977L71.7617 135.904C71.9537 136.816 72.1377 137.752 72.3137 138.712C72.5057 139.656 72.6977 140.608 72.8897 141.568H73.0097C73.1377 140.608 73.2657 139.656 73.3937 138.712C73.5377 137.768 73.6737 136.832 73.8017 135.904L75.2177 127.216H78.5777L75.2897 145H70.8737L68.8817 136.192C68.7377 135.504 68.6017 134.824 68.4737 134.152C68.3457 133.464 68.2337 132.784 68.1377 132.112H68.0417C67.9137 132.784 67.7777 133.464 67.6337 134.152C67.5057 134.824 67.3777 135.504 67.2497 136.192L65.3057 145H60.9617ZM81.2426 145V127.216H87.0746C88.3866 127.216 89.5626 127.392 90.6026 127.744C91.6586 128.096 92.4906 128.68 93.0986 129.496C93.7226 130.296 94.0346 131.4 94.0346 132.808C94.0346 134.152 93.7226 135.264 93.0986 136.144C92.4906 137.008 91.6666 137.648 90.6266 138.064C89.6026 138.48 88.4506 138.688 87.1706 138.688H84.7946V145H81.2426ZM84.7946 135.88H86.9306C88.1466 135.88 89.0506 135.624 89.6426 135.112C90.2506 134.6 90.5546 133.832 90.5546 132.808C90.5546 131.784 90.2346 131.072 89.5946 130.672C88.9706 130.256 88.0426 130.048 86.8106 130.048H84.7946V135.88Z" fill="white"/>
<path fill-rule="evenodd" clip-rule="evenodd" d="M61.1529 47.1247H42V55.8217H58.986C52.8579 58.7368 48.6336 64.8911 48.6336 72.0117C48.6336 81.9464 56.8565 90 67 90C77.1435 90 85.3664 81.9464 85.3664 72.0117C85.3664 64.8911 81.1421 58.7368 75.014 55.8217H92V47.1247H72.1477V40H61.1529V47.1247ZM57.8168 72.0117C57.8168 67.0444 61.9283 63.0176 67 63.0176C72.0717 63.0176 76.1832 67.0444 76.1832 72.0117C76.1832 76.9791 72.0717 81.0059 67 81.0059C61.9283 81.0059 57.8168 76.9791 57.8168 72.0117Z" fill="white"/>
</svg>
