<svg width="137" height="131" viewBox="0 0 137 131" fill="none" xmlns="http://www.w3.org/2000/svg">
<g clip-path="url(#clip0_1952_141556)">
<path opacity="0.76" d="M54.3103 38.8984C47.8745 31.631 39.2107 26.3795 29.8167 24.0255C25.1311 22.8548 20.1472 22.3947 15.5051 23.7231C10.8629 25.0515 6.62266 28.3926 5.09805 32.9828C2.95925 39.4019 6.5518 46.4884 11.5336 51.0442C17.6235 56.6164 25.9394 59.6824 34.1794 59.3844C39.3889 59.2007 44.0755 57.6526 48.473 55.2517C49.8838 49.7931 52.3991 44.8956 55.7271 40.5815C55.2422 39.9538 54.7548 39.3844 54.3224 38.8873L54.3103 38.8984Z" fill="#ADDEE5"/>
<path opacity="0.76" d="M59.4204 49.3774C64.2633 42.3165 67.2188 33.9605 67.8553 25.4112C68.2148 20.584 67.8254 15.5845 65.7333 11.2117C63.6406 6.85049 59.6428 3.22396 54.8684 2.49287C48.1982 1.46995 41.8378 6.21327 38.1939 11.914C33.7393 18.8749 32.1403 27.6161 33.8162 35.7051C35.0779 41.7925 38.108 46.8126 42.1262 51.3152C47.6601 49.5468 53.5149 48.9709 59.3977 49.3647L59.4204 49.3774Z" fill="#ADDEE5"/>
<path d="M15.9945 38.8091C23.4784 37.965 31.2397 40.4003 36.925 45.3716C38.0463 46.3535 39.7665 44.7824 38.6336 43.8C32.2644 38.2274 23.8713 35.6015 15.4754 36.5462C13.9902 36.7155 14.5205 38.9905 15.994 38.8207L15.9945 38.8091Z" fill="white"/>
<path d="M52.4315 17.4401C48.2433 25.241 46.0176 33.9435 46.0195 42.8005C46.0249 44.2944 48.3474 44.4062 48.3425 42.9007C48.3341 34.4636 50.3922 26.1389 54.3786 18.7026C55.0868 17.3912 53.1287 16.1165 52.4199 17.4396L52.4315 17.4401Z" fill="white"/>
<path d="M20.5308 92.8001L3.1002 103.834C2.01158 104.522 2.56744 106.203 3.85162 106.107L24.2012 104.558L20.5425 92.8006L20.5308 92.8001Z" fill="#200B06"/>
<path d="M101.674 117.34L63.0347 126.362C40.7705 131.563 18.3229 117.549 13.1419 95.2237C7.96084 72.8988 21.9419 50.3855 44.2061 45.1847L82.845 36.1628C109.195 29.5746 127.557 44.9765 132.738 67.3014C137.919 89.6262 123.938 112.14 101.674 117.34Z" fill="#79471D"/>
<path d="M42.099 88.902C38.1347 71.8224 43.3789 54.65 54.5322 42.6569L44.5989 44.9823C43.0118 45.3572 41.4793 45.8162 39.9896 46.3588C29.1635 58.3193 24.1162 75.2435 28.0209 92.0871C31.7785 108.294 43.0104 120.915 57.2067 127.128C59.2731 126.972 61.3465 126.653 63.427 126.171L71.8671 124.202C57.3875 118.081 45.9047 105.345 42.0985 88.9137L42.099 88.902Z" fill="#FFD800"/>
<path d="M76.6134 22.0071C77.3797 20.6982 75.3095 19.5937 74.5437 20.8909C72.5582 24.2943 71.7744 28.438 71.85 32.3505C71.9331 36.3566 73.0006 40.4751 75.709 43.5092C76.1308 43.9825 76.9615 43.8784 77.3639 43.4523C77.8279 42.9472 77.7292 42.2661 77.3075 41.7928C74.9875 39.1956 74.2287 35.4754 74.1885 32.0896C74.1519 28.6223 74.8546 25.0118 76.6018 22.0066L76.6134 22.0071Z" fill="#FFCD00"/>
<path d="M104.516 22.0587C101.548 23.6811 98.7506 25.6841 96.7353 28.4328C94.6947 31.227 93.8839 34.6461 94.0972 38.0627C94.1945 39.5839 96.5675 39.6046 96.4707 38.0717C96.2761 35.0294 96.9502 32.0828 98.7909 29.6067C100.582 27.2101 103.133 25.5115 105.72 24.0944C107.066 23.359 105.851 21.3112 104.505 22.0466L104.516 22.0587Z" fill="#FFCD00"/>
<path d="M74.6059 17.2908C70.6328 18.4847 72.4835 24.6792 76.4565 23.4853C80.4296 22.2914 78.5789 16.097 74.6059 17.2908Z" fill="#2A97CA"/>
<path d="M105.39 19.0598C101.339 20.1686 103.045 26.4852 107.107 25.3769C111.158 24.268 109.452 17.9515 105.39 19.0598Z" fill="#2A97CA"/>
<path d="M128.907 68.7016C124.292 49.4585 107.364 28.0505 86.1501 49.1082C58.5465 42.3979 48.4505 67.9144 58.1754 91.9989C65.5876 110.347 82.2392 116.83 101.818 112.109C121.397 107.387 133.523 87.9564 128.907 68.7016Z" fill="#FFD800"/>
<path d="M88.7093 47.2342C89.8397 46.1161 90.953 45.1256 92.0502 44.2394C90.8162 45.0613 89.5529 46.022 88.2714 47.1337C88.4214 47.1635 88.5598 47.1928 88.7093 47.2342Z" fill="#FF9F00"/>
<path d="M85.8813 84.464C90.9682 84.6834 95.2704 80.726 95.4905 75.6249C95.7106 70.5238 91.7652 66.2106 86.6783 65.9911C81.5913 65.7717 77.2891 69.729 77.069 74.8302C76.849 79.9313 80.7943 84.2445 85.8813 84.464Z" fill="white"/>
<path d="M106.757 78.8077C111.844 79.0272 116.146 75.0698 116.366 69.9687C116.587 64.8675 112.641 60.5543 107.554 60.3349C102.467 60.1154 98.1651 64.0728 97.945 69.1739C97.725 74.2751 101.67 78.5882 106.757 78.8077Z" fill="white"/>
<path d="M111.982 74.4955C113.65 74.5675 115.06 73.27 115.133 71.5975C115.205 69.925 113.911 68.5108 112.243 68.4389C110.575 68.3669 109.165 69.6644 109.093 71.3369C109.021 73.0094 110.314 74.4236 111.982 74.4955Z" fill="black"/>
<path d="M91.1302 79.5932C92.798 79.6652 94.2086 78.3677 94.2808 76.6952C94.3529 75.0227 93.0593 73.6085 91.3915 73.5365C89.7236 73.4646 88.3131 74.7621 88.2409 76.4346C88.1688 78.1071 89.4623 79.5212 91.1302 79.5932Z" fill="black"/>
<path d="M104.366 110.234C84.787 114.956 68.1353 108.473 60.7231 90.1242C54.5725 74.8991 56.3482 59.094 65.4733 51.226C54.1644 58.1946 51.477 75.4423 58.1637 91.9976C65.5759 110.346 82.2276 116.829 101.806 112.108C107.309 110.781 112.235 108.287 116.358 104.964C112.81 107.355 108.775 109.176 104.366 110.234Z" fill="#FF9F00"/>
<path d="M98.7092 93.5365C96.8624 93.4568 95.6337 93.0771 95.5993 93.0639C94.9913 92.8626 94.6588 92.2065 94.8481 91.5962C95.0489 90.9864 95.7033 90.6529 96.3119 90.8425C96.622 90.9376 103.594 93.0587 108.781 86.6545C109.186 86.1585 109.923 86.0736 110.418 86.48C110.912 86.8864 110.997 87.6252 110.591 88.1212C106.694 92.9474 101.822 93.6708 98.7092 93.5365Z" fill="#E94245"/>
<path opacity="0.2" d="M88.4971 90.7256C88.4793 92.4869 85.6153 93.8687 82.1146 93.8227C78.614 93.7767 75.7912 92.3129 75.8085 90.5633C75.8258 88.8137 78.6904 87.4203 82.191 87.4663C85.6917 87.5123 88.5144 88.976 88.4971 90.7256Z" fill="#FF5A93"/>
<path opacity="0.2" d="M114.156 82.6263C115.069 84.1243 118.234 83.8524 121.223 82.0093C124.212 80.1661 125.887 77.4728 124.974 75.9748C124.061 74.4768 120.896 74.7487 117.907 76.5918C114.919 78.4349 113.243 81.1282 114.156 82.6263Z" fill="#FF5A93"/>
</g>
<defs>
<clipPath id="clip0_1952_141556">
<rect width="131" height="125" fill="white" transform="translate(6.03027 0.316406) rotate(2.47033)"/>
</clipPath>
</defs>
</svg>
