<svg width="134" height="158" viewBox="0 0 134 158" fill="none" xmlns="http://www.w3.org/2000/svg">
<path d="M12 156H122C127.523 156 132 151.523 132 146V36.1421C132 33.49 130.946 30.9464 129.071 29.0711L104.929 4.92893C103.054 3.05357 100.51 2 97.8579 2H12C6.47715 2 2 6.47716 2 12V146C2 151.523 6.47715 156 12 156Z" fill="white" stroke="#00A674" stroke-width="4"/>
<path d="M111 31.0323H128.529C129.428 31.0323 129.87 29.9387 129.224 29.3137L102.695 3.64073C102.061 3.02666 101 3.47631 101 4.35933V21.0323C101 26.5551 105.477 31.0323 111 31.0323Z" fill="#00A674" stroke="#00A674" stroke-width="4"/>
<path d="M2 114H132V146C132 151.523 127.523 156 122 156H12C6.47715 156 2 151.523 2 146V114Z" fill="#00A674"/>
<path d="M2 114H132H2ZM134 146C134 152.627 128.627 158 122 158H12C5.37258 158 0 152.627 0 146H4C4 150.418 7.58172 154 12 154H122C126.418 154 130 150.418 130 146H134ZM12 158C5.37258 158 0 152.627 0 146V114H4V146C4 150.418 7.58172 154 12 154V158ZM134 114V146C134 152.627 128.627 158 122 158V154C126.418 154 130 150.418 130 146V114H134Z" fill="#00A674"/>
<path d="M46.391 145V127.216H49.943V145H46.391ZM54.3129 145V127.216H58.2489L61.2729 135.568C61.4649 136.096 61.6489 136.656 61.8249 137.248C62.0009 137.824 62.1769 138.392 62.3529 138.952H62.4729C62.6649 138.392 62.8489 137.824 63.0249 137.248C63.2009 136.656 63.3689 136.096 63.5289 135.568L66.5049 127.216H70.4409V145H67.2009V137.584C67.2009 137.008 67.2249 136.376 67.2729 135.688C67.3209 135 67.3769 134.312 67.4409 133.624C67.5209 132.92 67.5929 132.296 67.6569 131.752H67.5609L66.0969 135.928L63.3609 143.392H61.3209L58.5609 135.928L57.1449 131.752H57.0489C57.1129 132.296 57.1769 132.92 57.2409 133.624C57.3049 134.312 57.3609 135 57.4089 135.688C57.4729 136.376 57.5049 137.008 57.5049 137.584V145H54.3129ZM82.4058 145.336C80.8058 145.336 79.3578 144.984 78.0618 144.28C76.7818 143.576 75.7658 142.544 75.0138 141.184C74.2618 139.824 73.8858 138.16 73.8858 136.192C73.8858 134.72 74.1018 133.416 74.5338 132.28C74.9818 131.128 75.5978 130.152 76.3818 129.352C77.1658 128.552 78.0698 127.944 79.0938 127.528C80.1178 127.112 81.2218 126.904 82.4058 126.904C83.6858 126.904 84.7738 127.144 85.6698 127.624C86.5818 128.088 87.3258 128.608 87.9018 129.184L86.0058 131.44C85.5578 131.024 85.0618 130.672 84.5178 130.384C83.9898 130.096 83.3258 129.952 82.5258 129.952C81.5338 129.952 80.6618 130.2 79.9098 130.696C79.1578 131.176 78.5738 131.872 78.1578 132.784C77.7418 133.696 77.5338 134.792 77.5338 136.072C77.5338 137.368 77.7258 138.48 78.1098 139.408C78.5098 140.32 79.1018 141.024 79.8858 141.52C80.6698 142.016 81.6378 142.264 82.7898 142.264C83.2218 142.264 83.6378 142.208 84.0378 142.096C84.4378 141.968 84.7578 141.8 84.9978 141.592V138.088H81.8538V135.184H88.1898V143.2C87.5818 143.792 86.7738 144.296 85.7658 144.712C84.7578 145.128 83.6378 145.336 82.4058 145.336Z" fill="white"/>
<rect x="42" y="40" width="50.5679" height="50.5679" rx="4" fill="#A7DECD"/>
<mask id="mask0_9549_79394" style="mask-type:alpha" maskUnits="userSpaceOnUse" x="42" y="40" width="51" height="51">
<rect x="42" y="40" width="50.5679" height="50.5679" rx="4" fill="#A7DECD"/>
</mask>
<g mask="url(#mask0_9549_79394)">
<path d="M40.5122 90.5679H73.5229L40.8322 61.0606L40.5122 90.5679Z" fill="#36B890"/>
<path d="M77.7703 53.3095L57.0216 71.8825L76.9224 90.5675H93.4798V65.7315L77.7703 53.3095Z" fill="#36B890"/>
<path d="M52.8222 58.0368C54.8455 58.0368 56.4856 56.3966 56.4856 54.3734C56.4856 52.3501 54.8455 50.71 52.8222 50.71C50.799 50.71 49.1588 52.3501 49.1588 54.3734C49.1588 56.3966 50.799 58.0368 52.8222 58.0368Z" fill="#36B890"/>
</g>
</svg>
