<svg width="31" height="30" viewBox="0 0 31 30" fill="none" xmlns="http://www.w3.org/2000/svg">
<path fill-rule="evenodd" clip-rule="evenodd" d="M23.6564 5C24.4107 4.99979 25.1342 5.29935 25.6676 5.83274C26.201 6.36612 26.5005 7.08961 26.5003 7.84393C26.5002 8.20637 26.2063 8.5001 25.8439 8.5C25.4815 8.4999 25.1877 8.20601 25.1878 7.84357C25.188 7.43747 25.0267 7.04797 24.7395 6.76082C24.4524 6.47366 24.0629 6.31239 23.6568 6.3125C23.2943 6.3126 23.0004 6.01887 23.0003 5.65643C23.0002 5.29399 23.294 5.0001 23.6564 5ZM6.33274 5.83274C6.86612 5.29935 7.58961 4.99979 8.34393 5C8.70637 5.0001 9.0001 5.29399 9 5.65643C8.9999 6.01887 8.70601 6.3126 8.34357 6.3125C7.93747 6.31239 7.54797 6.47366 7.26082 6.76082C6.97366 7.04797 6.81239 7.43747 6.8125 7.84357C6.8126 8.20601 6.51887 8.4999 6.15643 8.5C5.79399 8.5001 5.5001 8.20637 5.5 7.84393C5.49979 7.08961 5.79935 6.36612 6.33274 5.83274ZM6.15643 22.5C6.51887 22.5001 6.8126 22.794 6.8125 23.1564C6.81239 23.5625 6.97366 23.952 7.26082 24.2392C7.54797 24.5263 7.93747 24.6876 8.34357 24.6875C8.70601 24.6874 8.9999 24.9811 9 25.3436C9.0001 25.706 8.70637 25.9999 8.34393 26C7.58961 26.0002 6.86612 25.7006 6.33274 25.1673C5.79935 24.6339 5.49979 23.9104 5.5 23.1561C5.5001 22.7936 5.79399 22.4999 6.15643 22.5ZM6.8125 17.3265C6.8125 16.964 6.51869 16.6702 6.15625 16.6702C5.79381 16.6702 5.5 16.964 5.5 17.3265V19.514C5.5 19.8764 5.79381 20.1702 6.15625 20.1702C6.51869 20.1702 6.8125 19.8764 6.8125 19.514V17.3265ZM6.15625 10.8298C6.51869 10.8298 6.8125 11.1236 6.8125 11.486V13.6735C6.8125 14.0359 6.51869 14.3298 6.15625 14.3298C5.79381 14.3298 5.5 14.0359 5.5 13.6735V11.486C5.5 11.1236 5.79381 10.8298 6.15625 10.8298ZM11.9856 24.6875C11.6232 24.6875 11.3293 24.9813 11.3293 25.3438C11.3293 25.7062 11.6232 26 11.9856 26H14.1731C14.5355 26 14.8293 25.7062 14.8293 25.3438C14.8293 24.9813 14.5355 24.6875 14.1731 24.6875H11.9856ZM11.3293 5.65625C11.3293 5.29381 11.6232 5 11.9856 5H14.1731C14.5355 5 14.8293 5.29381 14.8293 5.65625C14.8293 6.01869 14.5355 6.3125 14.1731 6.3125H11.9856C11.6232 6.3125 11.3293 6.01869 11.3293 5.65625ZM26.5003 23.1561C26.5002 22.7936 26.2063 22.4999 25.8439 22.5C25.4815 22.5001 25.1877 22.794 25.1878 23.1564C25.188 23.5625 25.0267 23.952 24.7395 24.2392C24.4524 24.5263 24.0629 24.6876 23.6568 24.6875C23.2943 24.6874 23.0004 24.9811 23.0003 25.3436C23.0002 25.706 23.294 25.9999 23.6564 26C24.4107 26.0002 25.1342 25.7006 25.6676 25.1673C26.201 24.6339 26.5005 23.9104 26.5003 23.1561ZM26.5 11.486C26.5 11.1236 26.2062 10.8298 25.8438 10.8298C25.4813 10.8298 25.1875 11.1236 25.1875 11.486V13.6735C25.1875 14.0359 25.4813 14.3298 25.8438 14.3298C26.2062 14.3298 26.5 14.0359 26.5 13.6735V11.486ZM25.8438 16.6702C26.2062 16.6702 26.5 16.964 26.5 17.3265V19.514C26.5 19.8764 26.2062 20.1702 25.8438 20.1702C25.4813 20.1702 25.1875 19.8764 25.1875 19.514V17.3265C25.1875 16.964 25.4813 16.6702 25.8438 16.6702ZM17.8262 5C17.4638 5 17.17 5.29381 17.17 5.65625C17.17 6.01869 17.4638 6.3125 17.8262 6.3125H20.0137C20.3762 6.3125 20.67 6.01869 20.67 5.65625C20.67 5.29381 20.3762 5 20.0137 5H17.8262ZM17.17 25.3438C17.17 24.9813 17.4638 24.6875 17.8262 24.6875H20.0137C20.3762 24.6875 20.67 24.9813 20.67 25.3438C20.67 25.7062 20.3762 26 20.0137 26H17.8262C17.4638 26 17.17 25.7062 17.17 25.3438ZM18.6519 14.5968C18.9082 14.3406 18.9082 13.925 18.6519 13.6688C18.3956 13.4125 17.9801 13.4125 17.7238 13.6688L15.4535 15.9391L14.2769 14.7625C14.0206 14.5062 13.6051 14.5062 13.3488 14.7625C13.0925 15.0188 13.0925 15.4343 13.3488 15.6906L14.9894 17.3312C15.2457 17.5875 15.6612 17.5875 15.9175 17.3312L18.6519 14.5968Z" fill="black"/>
</svg>
