<svg width="38" height="37" viewBox="0 0 38 37" fill="none" xmlns="http://www.w3.org/2000/svg">
<g clip-path="url(#clip0_2623_293511)">
<path fill-rule="evenodd" clip-rule="evenodd" d="M16.5 18.4998C16.5 17.1228 17.6225 15.9998 19 15.9998C20.3776 15.9998 21.5 17.1228 21.5 18.4998C21.5 19.8769 20.3776 20.9998 19 20.9998C17.6225 20.9998 16.5 19.8769 16.5 18.4998Z" fill="#1E3257"/>
<path d="M6.5 6.99982C1.16667 13.7064 1.16667 23.2933 6.5 29.9998" stroke="#1E3257" stroke-width="3" stroke-linecap="round" stroke-linejoin="round"/>
<path d="M12.5 24.9998C9.83333 21.2098 9.83333 15.7922 12.5 11.9998" stroke="#1E3257" stroke-width="3" stroke-linecap="round" stroke-linejoin="round"/>
<path d="M31.5 6.99982C36.8333 13.7064 36.8333 23.2933 31.5 29.9998" stroke="#1E3257" stroke-width="3" stroke-linecap="round" stroke-linejoin="round"/>
<path d="M25.5 24.9998C28.1667 21.2098 28.1667 15.7922 25.5 11.9998" stroke="#1E3257" stroke-width="3" stroke-linecap="round" stroke-linejoin="round"/>
</g>
<defs>
<clipPath id="clip0_2623_293511">
<rect width="37" height="36" fill="white" transform="translate(0.5 0.5)"/>
</clipPath>
</defs>
</svg>
