<svg width="104" height="94" viewBox="0 0 104 94" fill="none" xmlns="http://www.w3.org/2000/svg">
<g filter="url(#filter0_d_2855_599615)">
<path d="M12 2H92V59.7601C92 64.6146 89.0751 68.991 84.5896 70.8477L57.3139 82.1383C54.4296 83.3322 51.1937 83.3552 48.2927 82.2024L19.5685 70.7878C14.9993 68.9721 12 64.5528 12 59.6361V2Z" fill="#81B01B"/>
</g>
<path opacity="0.8" d="M14.5 4.5H89.5V57.7135C89.5 62.3829 86.6766 66.5888 82.3549 68.3571L57.0393 78.7152C54.3002 79.8359 51.2345 79.8575 48.48 78.7755L21.7956 68.2941C17.3944 66.5653 14.5 62.3188 14.5 57.5902V4.5Z" fill="#81B01B" stroke="white"/>
<path d="M12 2V14H0L12 2Z" fill="#5B8306"/>
<path d="M92 2V14H104L92 2Z" fill="#5B8306"/>
<path d="M49.7168 37.8262H47.7617V27.8789H45.2695V36.8379H43.4004V18.9629H45.2695V26.2031H47.7617V18.5762H49.7168V37.8262ZM41.0586 22.5508H35.8809V31.4668C37.1413 31.4525 38.2441 31.4095 39.1895 31.3379C40.1419 31.2663 41.1087 31.1374 42.0898 30.9512L42.2402 32.627C41.1589 32.849 40.0918 32.9993 39.0391 33.0781C37.9863 33.1497 36.6829 33.1927 35.1289 33.207H33.8398V20.8965H41.0586V22.5508ZM69.8262 35.5488H52.209V33.873H56.9355V29.5977H53.7559V27.9434H56.6348V21.9492H53.7129V20.2734H68.2148V21.9492H65.2715V27.9434H68.1504V29.5977H64.9922V33.873H69.8262V35.5488ZM63.2734 27.9434V21.9492H58.6543V27.9434H63.2734ZM62.9512 33.873V29.5977H58.9766V33.873H62.9512ZM49.2012 59.8262H47.1387V40.5762H49.2012V59.8262ZM43.4648 42.6387C43.4648 45.6178 42.7523 48.2676 41.3271 50.5879C39.9092 52.901 37.6211 54.8132 34.4629 56.3242L33.3887 54.6699C35.9167 53.4668 37.8324 52.0023 39.1357 50.2764C40.4463 48.5505 41.2018 46.5488 41.4023 44.2715H34.3125V42.6387H43.4648ZM68.2148 59.8262H66.1523V40.5762H68.2148V59.8262ZM62.4785 42.6387C62.4785 45.6178 61.766 48.2676 60.3408 50.5879C58.9229 52.901 56.6348 54.8132 53.4766 56.3242L52.4023 54.6699C54.9303 53.4668 56.846 52.0023 58.1494 50.2764C59.46 48.5505 60.2155 46.5488 60.416 44.2715H53.3262V42.6387H62.4785Z" fill="white"/>
<defs>
<filter id="filter0_d_2855_599615" x="10" y="0" width="92" height="93.0505" filterUnits="userSpaceOnUse" color-interpolation-filters="sRGB">
<feFlood flood-opacity="0" result="BackgroundImageFix"/>
<feColorMatrix in="SourceAlpha" type="matrix" values="0 0 0 0 0 0 0 0 0 0 0 0 0 0 0 0 0 0 127 0" result="hardAlpha"/>
<feOffset dx="4" dy="4"/>
<feGaussianBlur stdDeviation="3"/>
<feComposite in2="hardAlpha" operator="out"/>
<feColorMatrix type="matrix" values="0 0 0 0 0 0 0 0 0 0 0 0 0 0 0 0 0 0 0.2 0"/>
<feBlend mode="normal" in2="BackgroundImageFix" result="effect1_dropShadow_2855_599615"/>
<feBlend mode="normal" in="SourceGraphic" in2="effect1_dropShadow_2855_599615" result="shape"/>
</filter>
</defs>
</svg>
