<svg width="34" height="33" viewBox="0 0 34 33" fill="none" xmlns="http://www.w3.org/2000/svg">
<path d="M24.3355 14.4997C23.6022 15.233 22.6689 15.5663 21.6689 15.5663C20.6689 15.5663 19.7355 15.1663 19.0022 14.4997C18.2689 13.7663 17.9355 12.833 17.9355 11.833C17.9355 10.833 18.3355 9.89967 19.0022 9.16634C19.7355 8.433 20.6689 8.09967 21.6689 8.09967C22.6689 8.09967 23.6022 8.49967 24.3355 9.16634C25.8022 10.633 25.8022 13.033 24.3355 14.4997ZM22.8689 10.633C22.5355 10.2997 22.0689 10.0997 21.6689 10.0997C21.2022 10.0997 20.8022 10.2997 20.4689 10.633C19.8022 11.2997 19.8022 12.433 20.4689 13.0997C21.1355 13.7663 22.2689 13.7663 22.9355 13.0997C23.6022 12.3663 23.6022 11.2997 22.8689 10.633Z" fill="#1E3257"/>
<path d="M32.668 1.83301C32.668 9.43301 29.3346 15.8997 23.8013 19.8997L23.7346 25.433C23.7346 25.6997 23.6013 25.9663 23.468 26.0997L17.668 31.8997C17.468 32.0997 17.2013 32.1663 16.9346 32.1663C16.8013 32.1663 16.7346 32.1663 16.6013 32.0997C16.268 31.9663 16.0013 31.6997 15.9346 31.2997L14.868 23.7663C14.668 23.833 14.4013 23.833 14.2013 23.8997C14.1346 23.8997 14.068 23.8997 14.0013 23.8997C13.7346 23.8997 13.468 23.7663 13.268 23.633L9.8013 20.1663C9.6013 19.9663 9.46797 19.633 9.53463 19.2997C9.6013 19.0997 9.6013 18.833 9.66797 18.633L2.13464 17.5663C1.73464 17.4997 1.46797 17.233 1.33463 16.8997C1.2013 16.5663 1.33464 16.1663 1.6013 15.8997L7.4013 10.0997C7.6013 9.89967 7.8013 9.83301 8.06797 9.83301L13.6013 9.76634C17.6013 4.16634 24.068 0.833008 31.668 0.833008C32.2013 0.833008 32.668 1.29967 32.668 1.83301ZM17.668 29.033L21.7346 24.9663L21.8013 21.233C20.268 22.0997 18.6013 22.7663 16.868 23.2997L17.668 29.033ZM8.53463 11.7663L4.46797 15.833L10.2013 16.633C10.7346 14.833 11.4013 13.233 12.268 11.6997L8.53463 11.7663ZM11.668 19.0997L14.4013 21.833C21.4013 20.433 26.668 15.9663 29.1346 9.83301L23.668 4.36634C17.5346 6.83301 13.068 12.0997 11.668 19.0997ZM25.8013 3.63301L29.868 7.69967C30.268 6.16634 30.6013 4.56634 30.668 2.83301C28.9346 2.89967 27.3346 3.23301 25.8013 3.63301Z" fill="#1E3257"/>
<path d="M12.0739 24.2415L13.4883 25.6555L11.5087 27.6357L10.0943 26.2217L12.0739 24.2415Z" fill="#1E3257"/>
<path d="M9.994 22.0882L11.4082 23.5024L8.72122 26.1894L7.30702 24.7752L9.994 22.0882Z" fill="#1E3257"/>
<path d="M7.80455 19.9772L9.21875 21.3914L7.23887 23.3712L5.82467 21.957L7.80455 19.9772Z" fill="#1E3257"/>
</svg>
