<svg width="26" height="25" viewBox="0 0 26 25" fill="none" xmlns="http://www.w3.org/2000/svg">
<path d="M25 14.9002V4.1002C25 2.77471 23.9255 1.7002 22.6 1.7002H3.4C2.07452 1.7002 1 2.77471 1 4.1002V19.7002C1 21.0257 2.07452 22.1002 3.4 22.1002H13" stroke="black" stroke-width="2" stroke-linecap="round" stroke-linejoin="round"/>
<path fill-rule="evenodd" clip-rule="evenodd" d="M16.0126 12.4162L23.1595 19.5631C24.0144 20.418 24.0144 21.804 23.1595 22.6589C22.3046 23.5138 20.9186 23.5138 20.0637 22.6589L12.9168 15.5121C12.4578 15.0531 12.16 14.4576 12.0682 13.815L11.8068 11.9851C11.7801 11.7982 11.843 11.6096 11.9765 11.476C12.1101 11.3425 12.2987 11.2796 12.4856 11.3063L14.3155 11.5677C14.9581 11.6595 15.5536 11.9572 16.0126 12.4162Z" stroke="black" stroke-width="2" stroke-linecap="round" stroke-linejoin="round"/>
<path d="M4.60205 15.5003V8.30029" stroke="black" stroke-width="2" stroke-linecap="round" stroke-linejoin="round"/>
</svg>
