<svg width="137" height="136" viewBox="0 0 137 136" fill="none" xmlns="http://www.w3.org/2000/svg">
<path d="M123.327 7.90692L122.972 7.55479C121.176 9.36507 119.331 11.1078 117.478 12.858C116.367 13.9078 115.252 14.9603 114.144 16.0316C109.489 20.5318 104.683 25.1943 99.8426 29.8907C92.2173 37.2885 84.505 44.7706 77.1587 51.8357C69.4569 59.2406 61.7023 66.5775 53.9285 73.8704C45.2347 82.0266 36.5253 90.1568 27.8156 98.2872C23.2363 102.562 18.6569 106.837 14.0796 111.116C10.789 114.19 7.92955 117.459 5.36345 120.892C0.924859 126.829 -0.155304 130.987 0.843069 134.16C0.960449 134.535 1.15666 134.87 1.45903 135.115C1.76494 135.363 2.14156 135.487 2.56217 135.499C3.37311 135.522 4.38445 135.131 5.59177 134.364C10.2498 131.406 14.9365 128.358 19.6923 123.652C22.778 120.598 25.8938 117.565 29.0111 114.531C33.1112 110.54 37.2138 106.546 41.2543 102.5L40.9005 102.147L41.2543 102.5C64.6341 79.0849 88.9063 54.4742 111.6 30.4345L111.237 30.0912L111.601 30.4344C116.657 25.0774 121.567 19.612 126.471 14.1531C128.259 12.1619 130.047 10.1716 131.841 8.18773C132.677 7.26473 133.539 6.29426 134.213 5.28732C134.867 4.30889 135.37 3.25918 135.487 2.14257L135.821 1.46917L134.981 1.50034C134.779 1.50788 134.583 1.51491 134.392 1.52176C133.894 1.53968 133.43 1.55635 132.964 1.57747M123.327 7.90692L132.964 1.57746C132.964 1.57746 132.964 1.57747 132.964 1.57747M123.327 7.90692L122.972 7.55479C126.8 3.69615 130.051 1.70796 132.964 1.57747M123.327 7.90692L132.964 1.57747" fill="#CC0000" stroke="#CC0000"/>
</svg>
