<svg width="49" height="49" viewBox="0 0 49 49" fill="none" xmlns="http://www.w3.org/2000/svg">
<path d="M25.8857 19.9925C27.4278 20.6624 28.8284 21.6629 30.0732 22.9019" stroke="white" stroke-width="2" stroke-linecap="round" stroke-linejoin="round"/>
<path d="M42.5 23.9502C38.6657 17.5221 31.5829 11.9502 24.5 11.9502" stroke="white" stroke-width="2" stroke-linecap="round" stroke-linejoin="round"/>
<path d="M38.5 30.9502C39.939 29.3536 41.2177 27.613 42.2548 25.7954C42.5817 25.2211 42.5817 24.5245 42.2548 23.9502" stroke="white" stroke-width="2" stroke-linecap="round" stroke-linejoin="round"/>
<path d="M10.5 11.9502L38.5 37.9502" stroke="white" stroke-width="2" stroke-linecap="round" stroke-linejoin="round"/>
<path d="M20.2155 20.9502C17.9282 23.2375 17.9282 26.9474 20.2155 29.2347C22.5028 31.522 26.2127 31.522 28.5 29.2347" stroke="white" stroke-width="2" stroke-linecap="round" stroke-linejoin="round"/>
<path d="M34.5 34.3776C31.4156 36.5639 27.9285 37.9502 24.4434 37.9502C17.4752 37.9502 10.507 32.4105 6.73477 26.0178C6.42174 25.4863 6.42174 24.8415 6.73477 24.31C8.62087 21.1155 11.3045 18.1347 14.3869 15.9502" stroke="white" stroke-width="2" stroke-linecap="round" stroke-linejoin="round"/>
</svg>
