<svg width="179" height="115" viewBox="0 0 179 115" fill="none" xmlns="http://www.w3.org/2000/svg">
<g clip-path="url(#clip0_1825_141701)">
<path d="M76.124 92.043L76.1651 94.5875L79.7231 102.761H98.6092L102.167 94.5875C102.167 94.5875 102.245 94.5577 102.386 94.5236V92.0472C93.8089 92.1408 84.6833 92.1366 76.1286 92.043H76.124Z" fill="#AAD1E2"/>
<path d="M75.6223 102.762L72.891 95.5371L57.0879 99.7538C57.0879 99.7538 56.9143 100.652 56.7179 102.2C56.6951 102.379 56.6723 102.566 56.6494 102.762H75.6223Z" fill="#B7D8E6"/>
<path d="M121.639 99.9492C121.648 99.9918 121.652 100.039 121.661 100.09C121.652 100.034 121.643 99.9875 121.639 99.9492Z" fill="#09CB74"/>
<path d="M121.611 99.7832C121.611 99.7832 121.616 99.814 121.62 99.8359C121.62 99.814 121.616 99.7964 121.611 99.7832Z" fill="#09CB74"/>
<path d="M121.625 99.8516C121.63 99.8773 121.634 99.9074 121.643 99.946C121.639 99.9074 121.63 99.8773 121.625 99.8516Z" fill="#09CB74"/>
<path d="M122.045 102.762C122.013 102.498 121.981 102.251 121.954 102.017C121.835 101.119 121.73 100.464 121.666 100.094C121.744 100.558 121.89 101.485 122.045 102.762Z" fill="#09CB74"/>
<path d="M102.711 102.763H122.045C121.894 101.486 121.743 100.559 121.666 100.095C121.656 100.04 121.647 99.9929 121.643 99.9546C121.643 99.9546 121.643 99.9546 121.643 99.9503C121.638 99.912 121.629 99.8822 121.624 99.8567C121.624 99.8482 121.624 99.8439 121.624 99.8397C121.624 99.8184 121.62 99.8014 121.615 99.7886C121.615 99.7886 121.615 99.7844 121.615 99.7801C121.615 99.7674 121.615 99.7588 121.615 99.7588L105.483 95.457L102.72 102.767L102.711 102.763Z" fill="#B7D8E6"/>
<path d="M98.6094 102.763H102.711L105.474 95.4534V95.4364C104.072 94.3003 102.862 94.4152 102.387 94.5258C102.25 94.5598 102.167 94.5896 102.167 94.5896L98.6094 102.763Z" fill="#69AEC3"/>
<path d="M75.622 102.763H79.7235L76.1655 94.5895C76.1655 94.5895 74.672 93.9683 72.8496 95.4363L72.8861 95.5384L75.6174 102.763H75.622Z" fill="#69AEC3"/>
<path d="M45.3812 96.6772L42.9605 96.1113L35.8582 100.354L34.0312 102.762H35.7806C36.9955 101.57 40.5169 98.4261 45.3857 96.6772H45.3812Z" fill="#69AEC3"/>
<path d="M35.7764 102.762H42.5726L49.3095 96.6265L47.8753 95.9414C47.0121 96.1371 46.1808 96.3882 45.3816 96.6733C40.5173 98.4221 36.9913 101.567 35.7764 102.758V102.762Z" fill="#08AD60"/>
<path d="M143.219 102.762H144.968L143.141 100.354L136.039 96.1113L133.618 96.6772C138.482 98.4261 142.008 101.57 143.223 102.762H143.219Z" fill="#69AEC3"/>
<path d="M49.3095 96.6265L47.8753 95.9414C47.0121 96.1371 46.1808 96.3882 45.3816 96.6733C40.5173 98.4221 36.9913 101.567 35.7764 102.758H55.7678C55.9322 100.967 56.0692 99.839 56.0692 99.839L49.3095 96.6222V96.6265Z" fill="#B7D8E6"/>
<path d="M133.618 96.6772C132.819 96.3921 131.988 96.141 131.125 95.9453L122.931 99.8472C122.931 99.8472 123.068 100.97 123.232 102.766H143.224C142.009 101.575 138.487 98.4302 133.618 96.6814V96.6772Z" fill="#B7D8E6"/>
<path d="M1.05469 7.48438C1.10464 7.50991 1.15459 7.53544 1.20455 7.56948C1.15005 7.53544 1.1001 7.50991 1.05469 7.48438Z" fill="#09CB74"/>
<path d="M1.68066 7.96484C1.75374 8.03718 1.82225 8.10951 1.8999 8.19461C1.82682 8.11377 1.75374 8.03718 1.68066 7.96484Z" fill="#09CB74"/>
<path d="M1.25586 7.60352C1.31067 7.64181 1.36548 7.68011 1.42485 7.72691C1.36548 7.68011 1.31067 7.63756 1.25586 7.60352Z" fill="#09CB74"/>
<path d="M1.46191 7.76172C1.52558 7.81278 1.5847 7.87235 1.65292 7.93617C1.58925 7.87235 1.52558 7.81703 1.46191 7.76172Z" fill="#09CB74"/>
<path d="M17.0684 38.035C17.178 37.8861 17.2876 37.7329 17.4063 37.584C17.2876 37.7329 17.1734 37.8861 17.0684 38.035Z" fill="#D1BF73"/>
<path d="M16.7529 38.5127C16.8397 38.3765 16.9265 38.2361 17.027 38.0957C16.9311 38.2361 16.8397 38.3723 16.7529 38.5127Z" fill="#D1BF73"/>
<path d="M17.4287 37.5589C17.5566 37.3972 17.6936 37.2356 17.8352 37.0781C17.6936 37.2398 17.5612 37.4015 17.4287 37.5589Z" fill="#D1BF73"/>
<path d="M16.6982 38.5977C16.6616 38.653 16.6342 38.7125 16.6023 38.7679C16.5429 38.8742 16.4835 38.9806 16.4287 39.0827C16.5109 38.921 16.5977 38.7593 16.6982 38.5977Z" fill="#D1BF73"/>
<path d="M17.84 37.0697C17.84 37.0697 17.84 37.074 17.8355 37.0782C17.6939 37.2399 17.5614 37.4016 17.429 37.559C17.4244 37.5676 17.4153 37.5761 17.4107 37.5846C17.2919 37.7335 17.1778 37.8867 17.0727 38.0356C17.059 38.0569 17.0407 38.0782 17.027 38.0952C16.9311 38.2356 16.8398 38.3718 16.753 38.5122C16.7347 38.542 16.7165 38.5675 16.6982 38.5973C16.5977 38.759 16.5109 38.9206 16.4287 39.0823C16.4287 39.0823 16.2506 42.4736 16.1821 46.6903C16.1227 50.6091 16.1592 55.2428 16.5292 58.5277C16.753 60.5318 17.1047 62.0338 17.6299 62.5657C18.9727 63.9273 21.8502 65.9612 24.0288 67.4334L26.0887 45.5755L27.5731 29.7852C24.9332 31.3127 20.3932 34.1678 17.84 37.0655V37.0697Z" fill="#69AEC3"/>
<path d="M177.579 7.72656C177.634 7.67976 177.684 7.64572 177.739 7.60742C177.689 7.64146 177.634 7.67976 177.579 7.72656Z" fill="#09CB74"/>
<path d="M176.849 8.48877C176.926 8.39516 177.004 8.3058 177.077 8.2207C177.004 8.3058 176.926 8.3909 176.849 8.48877Z" fill="#09CB74"/>
<path d="M177.794 7.56913C177.844 7.53509 177.894 7.50956 177.939 7.48828C177.889 7.51381 177.844 7.53509 177.794 7.56913Z" fill="#09CB74"/>
<path d="M177.104 8.18541C177.173 8.10882 177.241 8.04074 177.305 7.97266C177.236 8.03648 177.173 8.10882 177.104 8.18541Z" fill="#09CB74"/>
<path d="M161.973 38.0996C162.069 38.2358 162.151 38.3677 162.238 38.4996C162.155 38.3677 162.069 38.2315 161.973 38.0996Z" fill="#D1BF73"/>
<path d="M161.169 37.082C161.306 37.2395 161.438 37.3969 161.562 37.5501C161.438 37.3926 161.306 37.2352 161.169 37.082Z" fill="#D1BF73"/>
<path d="M162.566 39.0866C162.516 38.9803 162.452 38.8781 162.393 38.7718C162.361 38.7164 162.333 38.6569 162.297 38.6016C162.393 38.7633 162.484 38.9249 162.566 39.0866Z" fill="#D1BF73"/>
<path d="M162.813 46.6942C162.744 42.4775 162.566 39.0862 162.566 39.0862C162.489 38.9246 162.397 38.7629 162.297 38.6012C162.279 38.5671 162.251 38.5331 162.233 38.4991C162.151 38.3672 162.064 38.231 161.968 38.0991C161.95 38.0736 161.931 38.0523 161.918 38.0268C161.813 37.8778 161.703 37.7332 161.584 37.5842C161.575 37.5715 161.566 37.563 161.557 37.5502C161.434 37.3928 161.301 37.2353 161.164 37.0821C161.164 37.0779 161.155 37.0736 161.155 37.0694C158.602 34.1717 154.062 31.3166 151.422 29.7891L152.906 45.5794L154.966 67.4373C157.149 65.9651 160.022 63.9312 161.365 62.5696C161.89 62.0377 162.242 60.5315 162.466 58.5316C162.836 55.2467 162.872 50.6173 162.808 46.6942H162.813Z" fill="#69AEC3"/>
<path d="M27.5781 29.769C27.6558 29.2754 27.7471 28.7946 27.843 28.3223C27.7425 28.7946 27.6512 29.2754 27.5781 29.769Z" fill="#09CB74"/>
<path d="M29.3135 23.5301C29.4505 23.194 29.5967 22.8663 29.7474 22.543C29.5967 22.8663 29.4505 23.1982 29.3135 23.5301Z" fill="#09CB74"/>
<path d="M31.2959 19.7098C31.5106 19.3737 31.7252 19.0418 31.9536 18.7227C31.7298 19.046 31.5106 19.3737 31.2959 19.7098Z" fill="#09CB74"/>
<path d="M28.2861 26.4913C28.414 26.0402 28.5465 25.602 28.6926 25.168C28.5465 25.5977 28.414 26.0402 28.2861 26.4913Z" fill="#09CB74"/>
<path d="M32.9258 17.4201C33.145 17.1436 33.3734 16.8712 33.6018 16.6074C33.3734 16.8755 33.145 17.1436 32.9258 17.4201Z" fill="#09CB74"/>
<path d="M29.8574 22.301C30.0493 21.901 30.2456 21.5138 30.4557 21.1309C30.2502 21.5138 30.0493 21.901 29.8574 22.301Z" fill="#09CB74"/>
<path d="M27.9336 27.9134C28.0158 27.5559 28.1026 27.1985 28.1939 26.8496C28.1026 27.1985 28.0158 27.5517 27.9336 27.9134Z" fill="#09CB74"/>
<path d="M143.379 89.002C143.114 89.0998 142.844 89.1934 142.57 89.2828C142.844 89.1934 143.114 89.0956 143.379 89.002Z" fill="#09CB74"/>
<path d="M151.674 83.5078C151.528 83.678 151.377 83.8482 151.222 84.0142C151.377 83.844 151.528 83.678 151.674 83.5078Z" fill="#09CB74"/>
<path d="M155.062 76.7441C155.026 76.9016 154.989 77.059 154.948 77.225C154.989 77.0633 155.03 76.9016 155.062 76.7441Z" fill="#09CB74"/>
<path d="M153.637 80.6152C153.55 80.7769 153.463 80.9386 153.372 81.1046C153.463 80.9429 153.555 80.7812 153.637 80.6152Z" fill="#09CB74"/>
<path d="M154.943 77.2285C154.902 77.3817 154.861 77.5391 154.815 77.6923C154.861 77.5349 154.907 77.3817 154.943 77.2285Z" fill="#09CB74"/>
<path d="M37.7536 17.7178C37.9363 17.6072 38.1235 17.505 38.3154 17.4199C40.2839 16.5647 44.3032 15.8839 50.6016 15.335C50.8346 15.2669 51.0675 15.1988 51.305 15.135C51.7754 14.9776 52.2139 14.8414 52.6158 14.7223C54.1687 14.2755 55.781 14.0457 57.4253 14.0457H68.6884L64.5412 3.4082C60.1703 3.76137 48.8614 5.22509 39.8226 11.1991C39.4115 11.9352 39.0233 12.6671 38.6808 13.3649C38.3291 14.0755 38.0048 15.5988 37.749 17.7135L37.7536 17.7178Z" fill="#B7D8E6"/>
<path d="M154.194 79.4453C154.121 79.6155 154.048 79.7857 153.966 79.9602C154.048 79.79 154.121 79.6155 154.194 79.4453Z" fill="#09CB74"/>
<path d="M154.783 77.8027C154.738 77.9517 154.693 78.1048 154.643 78.258C154.693 78.1048 154.742 77.9559 154.783 77.8027Z" fill="#09CB74"/>
<path d="M154.405 78.9141C154.35 79.0545 154.295 79.1906 154.24 79.3311C154.3 79.1906 154.354 79.0502 154.405 78.9141Z" fill="#09CB74"/>
<path d="M144.439 88.5898C144.147 88.7132 143.85 88.8324 143.539 88.9473C143.845 88.8324 144.147 88.7132 144.439 88.5898Z" fill="#09CB74"/>
<path d="M152.125 82.9512C152.016 83.0916 151.906 83.2277 151.792 83.3639C151.906 83.2277 152.02 83.0873 152.125 82.9512Z" fill="#09CB74"/>
<path d="M152.591 82.3301C152.473 82.5003 152.345 82.6705 152.217 82.8407C152.349 82.6705 152.473 82.5003 152.591 82.3301Z" fill="#09CB74"/>
<path d="M155.167 76.2578C155.139 76.3897 155.112 76.5216 155.085 76.6578C155.117 76.5216 155.144 76.3897 155.167 76.2578Z" fill="#09CB74"/>
<path d="M142.296 89.377C141.995 89.4748 141.689 89.5684 141.369 89.6578C141.684 89.5684 141.99 89.4748 142.296 89.377Z" fill="#09CB74"/>
<path d="M35.6982 14.4321C35.9723 14.1768 36.2509 13.93 36.5295 13.6875C36.2463 13.93 35.9723 14.1811 35.6982 14.4321Z" fill="#09CB74"/>
<path d="M138.743 90.291C138.36 90.3676 137.967 90.4399 137.561 90.508C137.962 90.4399 138.355 90.3676 138.743 90.291Z" fill="#09CB74"/>
<path d="M137.309 90.5469C136.976 90.6022 136.633 90.649 136.286 90.7001C136.633 90.6533 136.971 90.6022 137.309 90.5469Z" fill="#09CB74"/>
<path d="M154.628 78.3008C154.574 78.4667 154.514 78.6369 154.45 78.8029C154.514 78.6327 154.574 78.4667 154.628 78.3008Z" fill="#09CB74"/>
<path d="M149.335 85.75C149.179 85.8734 149.015 85.9968 148.851 86.1202C149.015 85.9968 149.175 85.8734 149.335 85.75Z" fill="#09CB74"/>
<path d="M150.587 84.6582C150.45 84.7901 150.303 84.9263 150.157 85.0582C150.303 84.9263 150.45 84.7944 150.587 84.6582Z" fill="#09CB74"/>
<path d="M151.207 84.0312C151.057 84.1929 150.897 84.3546 150.732 84.5163C150.897 84.3546 151.052 84.1929 151.207 84.0312Z" fill="#09CB74"/>
<path d="M146.344 87.6914C146.088 87.8276 145.823 87.9595 145.549 88.0914C145.818 87.9595 146.083 87.8276 146.344 87.6914Z" fill="#09CB74"/>
<path d="M147.107 87.2656C146.901 87.3848 146.686 87.5039 146.472 87.623C146.691 87.5082 146.901 87.389 147.107 87.2656Z" fill="#09CB74"/>
<path d="M155.423 72.2584L154.971 67.4333L152.911 45.5753L151.427 29.785V29.7637C147.978 7.62065 121.702 3.99114 114.458 3.4082L110.311 14.0457H121.574C123.214 14.0457 124.831 14.2712 126.379 14.7223C126.781 14.8414 127.224 14.9776 127.695 15.135C127.932 15.1988 128.165 15.2626 128.398 15.335C134.696 15.8839 138.716 16.5647 140.684 17.4199C147.997 20.5942 148.106 44.2052 147.965 51.4429C148.042 55.5533 148.042 64.8249 146.782 72.8201C145.772 79.2324 143.95 84.8192 140.703 86.2616C133.303 89.555 97.043 89.721 89.8448 89.721H89.146C81.9524 89.721 45.692 89.555 38.2883 86.2616C30.9988 83.0193 30.8846 58.8509 31.0308 51.4472C30.8937 44.4009 30.9942 21.8324 37.7494 17.7178C38.0006 15.603 38.3294 14.0798 38.6811 13.3692C39.0282 12.6713 39.4165 11.9437 39.8229 11.2034C39.8229 11.2034 39.8184 11.2076 39.8138 11.2119C39.4758 11.4374 39.1378 11.6714 38.8044 11.9097C38.7542 11.9437 38.7039 11.982 38.6537 12.0203C37.9686 12.5182 37.2972 13.0415 36.6486 13.5947C36.6075 13.6287 36.571 13.6628 36.5344 13.6968C36.2513 13.9393 35.9772 14.1904 35.7032 14.4414C35.6484 14.4925 35.5936 14.5435 35.5387 14.5946C34.9267 15.1733 34.3375 15.7818 33.7757 16.42C33.7209 16.4838 33.6616 16.5519 33.6068 16.6157C33.3784 16.8838 33.15 17.1519 32.9308 17.4284C32.8805 17.4923 32.8257 17.5561 32.7755 17.6242C32.5106 17.9603 32.2548 18.305 32.0036 18.6581C31.9853 18.6794 31.9716 18.7049 31.9534 18.7305C31.7296 19.0539 31.5103 19.3815 31.2957 19.7176C31.2363 19.8112 31.1769 19.9049 31.1221 19.9985C30.9348 20.3006 30.7567 20.6069 30.5831 20.9175C30.542 20.9899 30.5009 21.0622 30.4598 21.1388C30.2543 21.5218 30.0533 21.909 29.8615 22.3089C29.825 22.3898 29.7884 22.4706 29.7519 22.5472C29.6012 22.8706 29.455 23.2025 29.318 23.5344C29.2677 23.6535 29.2221 23.7727 29.1718 23.8918C29.0302 24.2492 28.8932 24.6151 28.7653 24.9853C28.7425 25.0492 28.7197 25.113 28.6968 25.1768C28.5507 25.6066 28.4182 26.0491 28.2903 26.5001C28.2584 26.6192 28.2264 26.7384 28.1944 26.8575C28.1031 27.2064 28.0163 27.5596 27.9341 27.9213C27.9021 28.0574 27.8747 28.1893 27.8427 28.3298C27.7422 28.8021 27.6509 29.2829 27.5778 29.7765V29.7977L26.0889 45.5881L24.029 67.446L23.5768 72.2712C23.5768 72.2712 21.5763 88.67 44.3812 90.9081C50.6476 91.5208 62.6781 91.9038 76.1244 92.057C84.6791 92.1506 93.8048 92.1548 102.382 92.0612C116.025 91.9165 128.275 91.5293 134.614 90.9081C135.062 90.8656 135.5 90.8145 135.93 90.7592C136.048 90.7422 136.163 90.7294 136.281 90.7124C136.628 90.6656 136.966 90.6145 137.304 90.5592C137.387 90.5464 137.473 90.5337 137.556 90.5209C137.958 90.4528 138.35 90.3805 138.739 90.3039C138.83 90.2869 138.917 90.2656 139.008 90.2486C139.314 90.1848 139.616 90.1167 139.912 90.0486C140.013 90.0273 140.109 90.0018 140.209 89.9805C140.575 89.8912 140.931 89.7975 141.278 89.6997C141.31 89.6912 141.342 89.6784 141.374 89.6699C141.689 89.5806 141.995 89.4869 142.301 89.3891C142.392 89.3593 142.484 89.3295 142.575 89.2997C142.849 89.2104 143.119 89.1125 143.384 89.0189C143.438 88.9976 143.493 88.9806 143.543 88.9593C143.849 88.8444 144.151 88.7253 144.443 88.6019C144.521 88.5721 144.594 88.5381 144.667 88.504C144.895 88.4062 145.119 88.304 145.338 88.2019C145.412 88.1679 145.485 88.1338 145.558 88.0998C145.827 87.9679 146.092 87.836 146.352 87.6998C146.394 87.6786 146.439 87.653 146.48 87.6318C146.7 87.5169 146.91 87.3977 147.115 87.2743C147.184 87.2318 147.257 87.1935 147.325 87.1509C147.54 87.0233 147.75 86.8914 147.951 86.7595C147.978 86.7425 148.006 86.7254 148.033 86.7084C148.257 86.5595 148.476 86.4106 148.686 86.2574C148.746 86.2148 148.801 86.1723 148.86 86.1297C149.024 86.0063 149.184 85.8829 149.344 85.7596C149.394 85.7213 149.445 85.683 149.49 85.6447C149.687 85.4872 149.874 85.3298 150.057 85.1681C150.093 85.1341 150.13 85.1 150.171 85.066C150.317 84.9341 150.463 84.8022 150.6 84.666C150.65 84.6192 150.696 84.5724 150.746 84.5256C150.911 84.3639 151.066 84.2022 151.221 84.0405C151.226 84.0363 151.23 84.032 151.235 84.0235C151.39 83.8533 151.541 83.6874 151.687 83.5172C151.728 83.4704 151.769 83.4236 151.806 83.3725C151.92 83.2363 152.034 83.0959 152.139 82.9598C152.167 82.9215 152.199 82.8874 152.226 82.8491C152.358 82.6789 152.482 82.5087 152.601 82.3385C152.628 82.3002 152.655 82.2577 152.683 82.2194C152.779 82.079 152.87 81.9428 152.961 81.8024C152.989 81.7556 153.021 81.7088 153.048 81.6662C153.158 81.4918 153.263 81.3216 153.363 81.1471C153.368 81.1344 153.377 81.1259 153.382 81.1131C153.473 80.9514 153.564 80.7897 153.646 80.6238C153.669 80.577 153.692 80.5302 153.72 80.4876C153.797 80.3387 153.87 80.1898 153.939 80.0408C153.953 80.0153 153.962 79.9898 153.975 79.9642C154.058 79.794 154.131 79.6196 154.204 79.4494C154.222 79.4111 154.236 79.3728 154.249 79.3345C154.309 79.1941 154.364 79.0537 154.414 78.9175C154.428 78.8792 154.441 78.8452 154.455 78.8069C154.519 78.6367 154.578 78.4707 154.633 78.3048C154.638 78.292 154.642 78.2793 154.647 78.2622C154.697 78.1091 154.747 77.9601 154.788 77.8069C154.797 77.7687 154.811 77.7346 154.82 77.6963C154.866 77.5389 154.912 77.3857 154.948 77.2325C154.948 77.2325 154.948 77.2283 154.948 77.224C154.989 77.0623 155.03 76.9006 155.062 76.7432C155.067 76.7177 155.076 76.6879 155.081 76.6624C155.113 76.5262 155.14 76.3943 155.163 76.2624C155.163 76.2411 155.172 76.2198 155.177 76.1986C155.204 76.0454 155.231 75.8965 155.254 75.7518V75.7475C155.592 73.6839 155.419 72.2627 155.419 72.2627L155.423 72.2584Z" fill="#B7D8E6"/>
<path d="M147.965 51.4422C148.106 44.2044 147.997 20.5934 140.684 17.4191C138.716 16.5639 134.697 15.8831 128.398 15.3342C128.165 15.2661 127.928 15.198 127.695 15.1342C127.224 14.9768 126.781 14.8406 126.379 14.7215C124.831 14.2747 123.214 14.0449 121.575 14.0449H110.311L109.416 16.3426H121.579C122.963 16.3426 124.333 16.5341 125.653 16.9128C126.046 17.0277 126.485 17.1638 126.95 17.3213C127.27 17.4021 127.585 17.4957 127.9 17.5936C133.637 18.0829 137.853 18.7169 139.652 19.4956C144.133 21.4401 145.777 37.9751 145.508 51.4336C145.777 65.2326 144.133 82.1846 139.652 84.1802C134.779 86.346 112.097 87.4267 89.5116 87.414C66.9214 87.4267 44.2444 86.346 39.371 84.1802C34.8904 82.1846 33.2461 65.2326 33.5156 51.4379C33.2461 37.9793 34.8858 21.4401 39.371 19.4956C41.1659 18.7169 45.3862 18.0829 51.1228 17.5936C51.4334 17.4957 51.7531 17.4021 52.0728 17.3213C52.5387 17.1638 52.9726 17.0277 53.37 16.9128C54.6899 16.5298 56.0602 16.3426 57.4441 16.3426H69.6024L68.7072 14.0449H57.4441C55.8044 14.0449 54.1875 14.2704 52.6346 14.7215C52.2327 14.8364 51.7897 14.9768 51.3238 15.1342C51.0863 15.198 50.8534 15.2619 50.6204 15.3342C44.322 15.8831 40.3027 16.5639 38.3342 17.4191C38.1423 17.5042 37.9551 17.6021 37.7724 17.717C31.0172 21.8316 30.9168 44.4001 31.0538 51.4464C30.9122 58.8501 31.0218 83.0185 38.3113 86.2609C45.7105 89.5542 81.9754 89.7202 89.1691 89.7202H89.8679C97.0661 89.7202 133.322 89.5542 140.726 86.2609C143.968 84.8184 145.791 79.2273 146.805 72.8193C148.065 64.8242 148.065 55.5525 147.988 51.4422H147.965Z" fill="#69AEC3"/>
<path d="M65.9531 2.83084C66.1906 2.76276 66.4418 2.69468 66.6976 2.63086C66.4418 2.69468 66.1952 2.76276 65.9531 2.83084Z" fill="#D1BF73"/>
<path d="M94.0829 0.268065C92.3975 0.15318 90.8401 0.0680801 89.5018 0C88.1636 0.0680801 86.6061 0.15318 84.9207 0.268065C80.6959 0.553151 75.6901 0.999926 71.4013 1.68498C71.3648 1.68924 71.3282 1.69775 71.2871 1.702C70.9537 1.75732 70.6248 1.81263 70.3051 1.86795C70.2229 1.88071 70.1407 1.89773 70.0585 1.9105C69.7479 1.96581 69.4419 2.02538 69.1405 2.08495C69.0582 2.10197 68.9715 2.11899 68.8892 2.13601C68.5878 2.19558 68.2909 2.25941 68.0032 2.32323C67.9301 2.34025 67.857 2.35302 67.7885 2.37004C67.4368 2.45088 67.0897 2.53173 66.7608 2.61683C66.738 2.62108 66.7197 2.62959 66.6969 2.63385C66.4411 2.69767 66.1945 2.76575 65.9524 2.83383C65.9433 2.83383 65.9342 2.83809 65.925 2.84234C65.6921 2.91042 65.4683 2.9785 65.2536 3.04658C65.2079 3.05935 65.1623 3.07637 65.1166 3.09339C64.9019 3.16147 64.6964 3.2338 64.5 3.30614L64.5411 3.41677L68.6883 14.0543L69.5835 16.352L69.62 16.4456C69.62 16.4456 71.1501 18.1093 74.7172 18.3476H104.273C107.84 18.1093 109.37 16.4456 109.37 16.4456L109.406 16.352L110.302 14.0543L114.449 3.41677L114.49 3.30614C109.991 1.63392 100.98 0.736116 94.0738 0.27232L94.0829 0.268065Z" fill="#DEEDF3"/>
<path d="M26.8241 96.907L23.426 110.476L22.4531 114.548L26.3354 114.999L30.2177 111.608L32.241 102.762L33.3737 97.8133C33.3737 97.8133 31.1585 95.6773 26.8195 96.907H26.8241Z" fill="#B7D8E6"/>
<path d="M21.4854 110.706L22.4582 114.553L23.4311 110.481L26.8292 96.9117C31.1682 95.6777 33.3834 97.818 33.3834 97.818L32.1684 93.9715L25.8563 93.2949L25.0616 93.7502L22.7003 95.1033L21.4854 110.706Z" fill="#69AEC3"/>
<path d="M22.7002 95.0997C22.7002 95.0997 19.3021 92.1595 13.2321 95.0997L12.5059 110.026L13.4787 115H18.5759L21.4899 110.703L22.7048 95.0997H22.7002Z" fill="#B7D8E6"/>
<path d="M10.802 111.383L13.4739 115L12.501 110.026L13.2272 95.0993C19.2973 92.1591 22.6954 95.0993 22.6954 95.0993L20.2701 92.3846L13.2455 91.9889L12.2589 91.9336L11.8205 92.3421L9.8291 94.1973L10.802 111.387V111.383Z" fill="#69AEC3"/>
<path d="M9.83364 94.1934L10.0026 97.2314L7.16172 96.5677L2.91406 97.5889L4.92371 111.686L7.52711 114.664L10.4411 113.983L10.8019 111.384L9.83364 94.1934Z" fill="#B7D8E6"/>
<path d="M1.76757 102.762L4.85512 111.608L4.92363 111.685L2.91399 97.5881L7.16164 96.5669L10.0026 97.2307L9.83356 94.1926L8.59123 93.5926L6.79625 92.7246L1.45699 94.082L0 97.6987L0.561787 99.3114L1.76757 102.762Z" fill="#69AEC3"/>
<path d="M148.773 111.61L152.66 115.001L156.542 114.55L155.569 110.478L152.171 96.9087C147.832 95.6747 145.617 97.815 145.617 97.815L146.75 102.764L148.773 111.61Z" fill="#B7D8E6"/>
<path d="M152.171 96.9078L155.569 110.477L156.542 114.549L157.51 110.702L156.295 95.0994L154.135 93.8612L153.139 93.291L146.827 93.9676L145.612 97.8141C145.612 97.8141 147.827 95.6781 152.166 96.9078H152.171Z" fill="#69AEC3"/>
<path d="M165.768 95.0997C159.698 92.1595 156.3 95.0997 156.3 95.0997L157.515 110.703L160.429 115H165.526L166.494 110.026L165.768 95.0997Z" fill="#B7D8E6"/>
<path d="M156.3 95.0993C156.3 95.0993 159.698 92.1591 165.768 95.0993L166.494 110.026L165.526 115L168.198 111.383L169.166 94.193L167.015 92.1889L166.741 91.9336L166.065 91.9719L158.73 92.3846L156.304 95.0993H156.3Z" fill="#69AEC3"/>
<path d="M176.086 97.5889L171.838 96.5677L168.993 97.2314L169.166 94.1934L168.193 111.384L168.559 113.983L171.473 114.664L174.076 111.686L176.086 97.5889Z" fill="#B7D8E6"/>
<path d="M168.993 97.2307L171.839 96.5669L176.086 97.5881L174.077 111.685L174.141 111.608L177.233 102.762L178.434 99.3114L179 97.6987L177.543 94.082L172.199 92.7246L170.601 93.499L169.167 94.1926L168.993 97.2307Z" fill="#69AEC3"/>
<path d="M57.2379 16.3477C55.854 16.3477 54.4837 16.5391 53.1638 16.9178C52.771 17.0327 52.3325 17.1689 51.8666 17.3263C51.5469 17.4072 51.2318 17.5008 50.9166 17.5986C45.18 18.088 40.9598 18.7219 39.1648 19.5006C34.6842 21.4452 33.0399 37.9844 33.3094 51.4429C33.0399 65.2376 34.6842 82.1938 39.1648 84.1852C44.0382 86.351 66.7197 87.4317 89.3054 87.419C111.896 87.4317 134.573 86.351 139.446 84.1852C143.927 82.1896 145.571 65.2376 145.301 51.4387C145.571 37.9801 143.927 21.4452 139.446 19.5006C137.651 18.7219 133.431 18.088 127.694 17.5986C127.384 17.5008 127.064 17.4072 126.744 17.3263C126.278 17.1689 125.844 17.0327 125.447 16.9178C124.127 16.5349 122.757 16.3477 121.373 16.3477H109.21L109.174 16.4413C109.174 16.4413 107.643 18.105 104.076 18.3433H74.5208C70.9537 18.105 69.4236 16.4413 69.4236 16.4413L69.3871 16.3477H57.2287H57.2379Z" fill="#0A3545"/>
<g clip-path="url(#clip1_1825_141701)">
<path d="M66.3961 58.2252C70.9759 58.2252 74.6886 52.8953 74.6886 46.3206C74.6886 39.7459 70.9759 34.416 66.3961 34.416C61.8162 34.416 58.1035 39.7459 58.1035 46.3206C58.1035 52.8953 61.8162 58.2252 66.3961 58.2252Z" fill="white"/>
<path d="M112.708 58.2252C117.287 58.2252 121 52.8953 121 46.3206C121 39.7459 117.287 34.416 112.708 34.416C108.128 34.416 104.415 39.7459 104.415 46.3206C104.415 52.8953 108.128 58.2252 112.708 58.2252Z" fill="white"/>
</g>
</g>
<defs>
<clipPath id="clip0_1825_141701">
<rect width="179" height="115" fill="white"/>
</clipPath>
<clipPath id="clip1_1825_141701">
<rect width="63.8643" height="24.3431" fill="white" transform="translate(57.5674 34.416)"/>
</clipPath>
</defs>
</svg>
