<svg width="40" height="40" viewBox="0 0 40 40" fill="none" xmlns="http://www.w3.org/2000/svg">
<path d="M31.6654 10H33.332C35.173 10 36.6654 11.4924 36.6654 13.3333V31.6667C36.6654 33.5076 35.173 35 33.332 35H6.66536C4.82442 35 3.33203 33.5076 3.33203 31.6667V13.3333C3.33203 11.4924 4.82442 10 6.66536 10H8.33203" stroke="black" stroke-width="2" stroke-linecap="round" stroke-linejoin="round"/>
<path d="M20 33.3333V9.73169" stroke="black" stroke-width="2" stroke-linecap="round" stroke-linejoin="round"/>
<path d="M20 9.73161C22.1537 7.30868 25.0893 5.71821 28.2952 5.23733L29.7528 5.01869C30.2326 4.94672 30.72 5.08741 31.0876 5.40403C31.4553 5.72066 31.6667 6.18177 31.6667 6.66696V26.898C31.6667 27.723 31.0631 28.4238 30.2472 28.5462L28.2952 28.839C25.0893 29.3199 22.1537 30.9104 20 33.3333" stroke="black" stroke-width="2" stroke-linecap="round" stroke-linejoin="round"/>
<path d="M19.9987 9.73158C17.845 7.30867 14.9094 5.71821 11.7035 5.23733L10.2459 5.01869C9.76611 4.94672 9.27875 5.08741 8.9111 5.40402C8.54346 5.72064 8.33203 6.18174 8.33203 6.66693V26.8979C8.33203 27.7229 8.9356 28.4238 9.75146 28.5462L11.7035 28.839C14.9094 29.3199 17.845 30.9103 19.9987 33.3332" stroke="black" stroke-width="2" stroke-linecap="round" stroke-linejoin="round"/>
</svg>
