<svg width="38" height="38" viewBox="0 0 38 38" fill="none" xmlns="http://www.w3.org/2000/svg">
<g clip-path="url(#clip0_2759_138020)">
<path d="M19.7607 15.1987H25.8433" stroke="black" stroke-width="1.5" stroke-linecap="round" stroke-linejoin="round"/>
<path d="M10.6367 14.7821L12.0342 16.0412L14.8474 13.5078" stroke="black" stroke-width="1.5" stroke-linecap="round" stroke-linejoin="round"/>
<path d="M16.7188 31.9256H12.1569C7.95776 31.9256 4.55371 28.5215 4.55371 24.3224V12.1574C4.55371 7.95825 7.95776 4.5542 12.1569 4.5542H24.3219C28.5211 4.5542 31.9251 7.95825 31.9251 12.1574V16.7193" stroke="black" stroke-width="1.5" stroke-linecap="round" stroke-linejoin="round"/>
<path d="M10.6367 22.3851L12.0342 23.6442L14.8474 21.1108" stroke="black" stroke-width="1.5" stroke-linecap="round" stroke-linejoin="round"/>
<path d="M22.8389 27.2417V30.7806C22.8387 31.5579 23.2779 32.2685 23.9733 32.616L24.767 33.0129C25.9225 33.5903 27.2824 33.5903 28.4378 33.0129L29.2316 32.616C29.9269 32.2685 30.3662 31.5579 30.366 30.7806V27.2417" stroke="black" stroke-width="1.5" stroke-linecap="round" stroke-linejoin="round"/>
<path fill-rule="evenodd" clip-rule="evenodd" d="M20.3916 26.0159L25.0826 28.3592C26.0423 28.8379 27.1712 28.8379 28.1309 28.3592L32.8173 26.0159C33.2025 25.8238 33.4459 25.4304 33.4459 25C33.4459 24.5696 33.2025 24.1762 32.8173 23.9842L28.1218 21.6409C27.1624 21.1607 26.0329 21.1607 25.0735 21.6409L20.3871 23.9842C20.0023 24.1771 19.7598 24.571 19.7607 25.0014C19.7617 25.4318 20.006 25.8247 20.3916 26.0159Z" stroke="black" stroke-width="1.5" stroke-linecap="round" stroke-linejoin="round"/>
<path d="M33.4463 25.002V27.7391" stroke="black" stroke-width="1.5" stroke-linecap="round" stroke-linejoin="round"/>
</g>
<defs>
<clipPath id="clip0_2759_138020">
<rect width="38" height="38" fill="white"/>
</clipPath>
</defs>
</svg>
