<?xml version="1.0" encoding="utf-8"?>
<!-- Generator: Adobe Illustrator 23.1.0, SVG Export Plug-In . SVG Version: 6.00 Build 0)  -->
<svg version="1.1" id="레이어_1" xmlns="http://www.w3.org/2000/svg" xmlns:xlink="http://www.w3.org/1999/xlink" x="0px"
	 y="0px" viewBox="0 0 94 64" style="enable-background:new 0 0 94 64;" xml:space="preserve">
<style type="text/css">
	.st0{clip-path:url(#SVGID_2_);}
	.st1{fill:#AAD1E2;}
	.st2{fill:#B7D8E6;}
	.st3{fill:#09CB74;}
	.st4{fill:#69AEC3;}
	.st5{fill:#08AD60;}
	.st6{fill:#D1BF73;}
	.st7{fill:#DEEDF3;}
	.st8{fill:#0A3545;}
	.st9{clip-path:url(#SVGID_4_);}
	.st10{fill:#FFFFFF;}
</style>
<g>
	<defs>
		<rect id="SVGID_1_" y="0" width="94" height="64"/>
	</defs>
	<clipPath id="SVGID_2_">
		<use xlink:href="#SVGID_1_"  style="overflow:visible;"/>
	</clipPath>
	<g class="st0">
		<path class="st1" d="M40,51.2l0,1.4l1.9,4.5h9.9l1.9-4.5c0,0,0,0,0.1,0v-1.4C49.3,51.3,44.5,51.3,40,51.2L40,51.2z"/>
		<path class="st2" d="M39.7,57.2l-1.4-4L30,55.5c0,0-0.1,0.5-0.2,1.4c0,0.1,0,0.2,0,0.3H39.7z"/>
		<path class="st3" d="M63.9,55.6C63.9,55.6,63.9,55.7,63.9,55.6C63.9,55.7,63.9,55.6,63.9,55.6z"/>
		<path class="st3" d="M63.9,55.5C63.9,55.5,63.9,55.5,63.9,55.5C63.9,55.5,63.9,55.5,63.9,55.5z"/>
		<path class="st3" d="M63.9,55.6C63.9,55.6,63.9,55.6,63.9,55.6C63.9,55.6,63.9,55.6,63.9,55.6z"/>
		<path class="st3" d="M64.1,57.2c0-0.1,0-0.3,0-0.4c-0.1-0.5-0.1-0.9-0.2-1.1C63.9,56,64,56.5,64.1,57.2z"/>
		<path class="st2" d="M53.9,57.2h10.2c-0.1-0.7-0.2-1.2-0.2-1.5c0,0,0-0.1,0-0.1c0,0,0,0,0,0c0,0,0,0,0-0.1c0,0,0,0,0,0
			c0,0,0,0,0,0c0,0,0,0,0,0c0,0,0,0,0,0l-8.5-2.4L53.9,57.2L53.9,57.2z"/>
		<path class="st4" d="M51.8,57.2h2.2l1.5-4.1v0c-0.7-0.6-1.4-0.6-1.6-0.5c-0.1,0-0.1,0-0.1,0L51.8,57.2z"/>
		<path class="st4" d="M39.7,57.2h2.2L40,52.6c0,0-0.8-0.3-1.7,0.5l0,0.1L39.7,57.2L39.7,57.2z"/>
		<path class="st4" d="M23.8,53.8l-1.3-0.3l-3.7,2.4l-1,1.3h0.9C19.4,56.5,21.3,54.8,23.8,53.8L23.8,53.8z"/>
		<path class="st5" d="M18.8,57.2h3.6l3.5-3.4l-0.8-0.4c-0.5,0.1-0.9,0.2-1.3,0.4C21.3,54.8,19.4,56.5,18.8,57.2L18.8,57.2z"/>
		<path class="st4" d="M75.2,57.2h0.9l-1-1.3l-3.7-2.4l-1.3,0.3C72.7,54.8,74.6,56.5,75.2,57.2L75.2,57.2z"/>
		<path class="st2" d="M25.9,53.8l-0.8-0.4c-0.5,0.1-0.9,0.2-1.3,0.4c-2.6,1-4.4,2.7-5,3.4h10.5c0.1-1,0.2-1.6,0.2-1.6L25.9,53.8
			L25.9,53.8z"/>
		<path class="st2" d="M70.2,53.8c-0.4-0.2-0.9-0.3-1.3-0.4l-4.3,2.2c0,0,0.1,0.6,0.2,1.6h10.5C74.6,56.5,72.7,54.8,70.2,53.8
			L70.2,53.8z"/>
		<path class="st3" d="M0.6,4.2C0.6,4.2,0.6,4.2,0.6,4.2C0.6,4.2,0.6,4.2,0.6,4.2z"/>
		<path class="st3" d="M0.9,4.4c0,0,0.1,0.1,0.1,0.1C1,4.5,0.9,4.5,0.9,4.4z"/>
		<path class="st3" d="M0.7,4.2C0.7,4.3,0.7,4.3,0.7,4.2C0.7,4.3,0.7,4.3,0.7,4.2z"/>
		<path class="st3" d="M0.8,4.3c0,0,0.1,0.1,0.1,0.1C0.8,4.4,0.8,4.3,0.8,4.3z"/>
		<path class="st6" d="M9,21.2C9,21.1,9.1,21,9.1,20.9C9.1,21,9,21.1,9,21.2z"/>
		<path class="st6" d="M8.8,21.4c0-0.1,0.1-0.2,0.1-0.2C8.9,21.3,8.8,21.4,8.8,21.4z"/>
		<path class="st6" d="M9.2,20.9c0.1-0.1,0.1-0.2,0.2-0.3C9.3,20.7,9.2,20.8,9.2,20.9z"/>
		<path class="st6" d="M8.8,21.5C8.7,21.5,8.7,21.5,8.8,21.5c-0.1,0.2-0.1,0.2-0.1,0.3C8.7,21.7,8.7,21.6,8.8,21.5z"/>
		<path class="st4" d="M9.4,20.6C9.4,20.6,9.4,20.6,9.4,20.6c-0.1,0.1-0.1,0.2-0.2,0.3c0,0,0,0,0,0C9.1,21,9,21.1,9,21.2
			c0,0,0,0,0,0c-0.1,0.1-0.1,0.2-0.1,0.2c0,0,0,0,0,0c-0.1,0.1-0.1,0.2-0.1,0.3c0,0-0.1,1.9-0.1,4.2c0,2.2,0,4.8,0.2,6.6
			c0.1,1.1,0.3,2,0.6,2.2c0.7,0.8,2.2,1.9,3.4,2.7l1.1-12.2l0.8-8.8C13.1,17.4,10.7,19,9.4,20.6L9.4,20.6z"/>
		<path class="st3" d="M93.3,4.3C93.3,4.3,93.3,4.3,93.3,4.3C93.3,4.3,93.3,4.3,93.3,4.3z"/>
		<path class="st3" d="M92.9,4.7c0-0.1,0.1-0.1,0.1-0.1C93,4.6,92.9,4.7,92.9,4.7z"/>
		<path class="st3" d="M93.4,4.2C93.4,4.2,93.4,4.2,93.4,4.2C93.4,4.2,93.4,4.2,93.4,4.2z"/>
		<path class="st3" d="M93,4.6c0,0,0.1-0.1,0.1-0.1C93.1,4.5,93,4.5,93,4.6z"/>
		<path class="st6" d="M85.1,21.2c0,0.1,0.1,0.1,0.1,0.2C85.2,21.4,85.1,21.3,85.1,21.2z"/>
		<path class="st6" d="M84.6,20.6c0.1,0.1,0.1,0.2,0.2,0.3C84.8,20.8,84.7,20.7,84.6,20.6z"/>
		<path class="st6" d="M85.4,21.8c0-0.1-0.1-0.1-0.1-0.2c0,0,0-0.1-0.1-0.1C85.3,21.6,85.3,21.7,85.4,21.8z"/>
		<path class="st4" d="M85.5,26c0-2.3-0.1-4.2-0.1-4.2c0-0.1-0.1-0.2-0.1-0.3c0,0,0,0,0-0.1c0-0.1-0.1-0.1-0.1-0.2c0,0,0,0,0,0
			c-0.1-0.1-0.1-0.2-0.2-0.2c0,0,0,0,0,0c-0.1-0.1-0.1-0.2-0.2-0.3c0,0,0,0,0,0c-1.3-1.6-3.7-3.2-5.1-4.1l0.8,8.8l1.1,12.2
			c1.1-0.8,2.7-2,3.4-2.7c0.3-0.3,0.5-1.1,0.6-2.2C85.5,30.7,85.5,28.2,85.5,26L85.5,26z"/>
		<path class="st3" d="M14.5,16.6c0-0.3,0.1-0.5,0.1-0.8C14.6,16,14.5,16.3,14.5,16.6z"/>
		<path class="st3" d="M15.4,13.1c0.1-0.2,0.1-0.4,0.2-0.5C15.5,12.7,15.5,12.9,15.4,13.1z"/>
		<path class="st3" d="M16.4,11c0.1-0.2,0.2-0.4,0.3-0.5C16.7,10.6,16.5,10.8,16.4,11z"/>
		<path class="st3" d="M14.9,14.7c0.1-0.3,0.1-0.5,0.2-0.7C15,14.2,14.9,14.5,14.9,14.7z"/>
		<path class="st3" d="M17.3,9.7c0.1-0.2,0.2-0.3,0.4-0.5C17.5,9.4,17.4,9.5,17.3,9.7z"/>
		<path class="st3" d="M15.7,12.4c0.1-0.2,0.2-0.4,0.3-0.7C15.9,12,15.8,12.2,15.7,12.4z"/>
		<path class="st3" d="M14.7,15.5c0-0.2,0.1-0.4,0.1-0.6C14.8,15.1,14.7,15.3,14.7,15.5z"/>
		<path class="st3" d="M75.3,49.5c-0.1,0.1-0.3,0.1-0.4,0.2C75,49.6,75.2,49.6,75.3,49.5z"/>
		<path class="st3" d="M79.6,46.5c-0.1,0.1-0.2,0.2-0.2,0.3C79.5,46.7,79.6,46.6,79.6,46.5z"/>
		<path class="st3" d="M81.4,42.7c0,0.1,0,0.2-0.1,0.3C81.4,42.9,81.4,42.8,81.4,42.7z"/>
		<path class="st3" d="M80.7,44.9c0,0.1-0.1,0.2-0.1,0.3C80.6,45,80.6,45,80.7,44.9z"/>
		<path class="st3" d="M81.4,43c0,0.1,0,0.2-0.1,0.3C81.3,43.1,81.3,43.1,81.4,43z"/>
		<path class="st2" d="M19.8,9.9c0.1-0.1,0.2-0.1,0.3-0.2c1-0.5,3.1-0.9,6.5-1.2c0.1,0,0.2-0.1,0.4-0.1c0.2-0.1,0.5-0.2,0.7-0.2
			c0.8-0.2,1.7-0.4,2.5-0.4h5.9l-2.2-5.9c-2.3,0.2-8.2,1-13,4.3c-0.2,0.4-0.4,0.8-0.6,1.2C20.1,7.8,20,8.7,19.8,9.9L19.8,9.9z"/>
		<path class="st3" d="M81,44.2c0,0.1-0.1,0.2-0.1,0.3C80.9,44.4,80.9,44.3,81,44.2z"/>
		<path class="st3" d="M81.3,43.3c0,0.1,0,0.2-0.1,0.3C81.2,43.5,81.3,43.4,81.3,43.3z"/>
		<path class="st3" d="M81.1,43.9c0,0.1-0.1,0.2-0.1,0.2C81,44.1,81.1,44,81.1,43.9z"/>
		<path class="st3" d="M75.8,49.3c-0.2,0.1-0.3,0.1-0.5,0.2C75.5,49.4,75.7,49.4,75.8,49.3z"/>
		<path class="st3" d="M79.9,46.2c-0.1,0.1-0.1,0.2-0.2,0.2C79.8,46.3,79.8,46.2,79.9,46.2z"/>
		<path class="st3" d="M80.1,45.8c-0.1,0.1-0.1,0.2-0.2,0.3C80,46,80.1,45.9,80.1,45.8z"/>
		<path class="st3" d="M81.5,42.4c0,0.1,0,0.1,0,0.2C81.5,42.6,81.5,42.5,81.5,42.4z"/>
		<path class="st3" d="M74.7,49.7c-0.2,0.1-0.3,0.1-0.5,0.2C74.4,49.8,74.6,49.8,74.7,49.7z"/>
		<path class="st3" d="M18.7,8c0.1-0.1,0.3-0.3,0.4-0.4C19,7.8,18.9,7.9,18.7,8z"/>
		<path class="st3" d="M72.9,50.2c-0.2,0-0.4,0.1-0.6,0.1C72.4,50.3,72.7,50.3,72.9,50.2z"/>
		<path class="st3" d="M72.1,50.4c-0.2,0-0.4,0.1-0.5,0.1C71.8,50.4,71.9,50.4,72.1,50.4z"/>
		<path class="st3" d="M81.2,43.6c0,0.1-0.1,0.2-0.1,0.3C81.1,43.8,81.2,43.7,81.2,43.6z"/>
		<path class="st3" d="M78.4,47.7c-0.1,0.1-0.2,0.1-0.3,0.2C78.3,47.9,78.3,47.8,78.4,47.7z"/>
		<path class="st3" d="M79.1,47.1c-0.1,0.1-0.1,0.1-0.2,0.2C78.9,47.3,79,47.2,79.1,47.1z"/>
		<path class="st3" d="M79.4,46.8c-0.1,0.1-0.2,0.2-0.2,0.3C79.2,46.9,79.3,46.9,79.4,46.8z"/>
		<path class="st3" d="M76.9,48.8c-0.1,0.1-0.3,0.1-0.4,0.2C76.6,49,76.7,48.9,76.9,48.8z"/>
		<path class="st3" d="M77.3,48.6c-0.1,0.1-0.2,0.1-0.3,0.2C77,48.7,77.1,48.6,77.3,48.6z"/>
		<path class="st2" d="M81.6,40.2l-0.2-2.7l-1.1-12.2l-0.8-8.8v0C77.7,4.2,63.9,2.2,60.1,1.9l-2.2,5.9h5.9c0.9,0,1.7,0.1,2.5,0.4
			c0.2,0.1,0.4,0.1,0.7,0.2c0.1,0,0.2,0.1,0.4,0.1c3.3,0.3,5.4,0.7,6.5,1.2c3.8,1.8,3.9,14.9,3.8,18.9c0,2.3,0,7.4-0.6,11.9
			c-0.5,3.6-1.5,6.7-3.2,7.5C70,49.8,51,49.9,47.2,49.9h-0.4C43,49.9,24,49.8,20.1,48c-3.8-1.8-3.9-15.3-3.8-19.4
			c-0.1-3.9,0-16.5,3.5-18.8c0.1-1.2,0.3-2,0.5-2.4c0.2-0.4,0.4-0.8,0.6-1.2c0,0,0,0,0,0c-0.2,0.1-0.4,0.3-0.5,0.4
			c0,0-0.1,0-0.1,0.1c-0.4,0.3-0.7,0.6-1.1,0.9c0,0,0,0-0.1,0.1C19,7.8,18.9,7.9,18.7,8c0,0-0.1,0.1-0.1,0.1c-0.3,0.3-0.6,0.7-0.9,1
			c0,0-0.1,0.1-0.1,0.1c-0.1,0.1-0.2,0.3-0.4,0.5c0,0-0.1,0.1-0.1,0.1c-0.1,0.2-0.3,0.4-0.4,0.6c0,0,0,0,0,0
			c-0.1,0.2-0.2,0.4-0.3,0.5c0,0.1-0.1,0.1-0.1,0.2c-0.1,0.2-0.2,0.3-0.3,0.5c0,0,0,0.1-0.1,0.1c-0.1,0.2-0.2,0.4-0.3,0.7
			c0,0,0,0.1-0.1,0.1c-0.1,0.2-0.2,0.4-0.2,0.5c0,0.1-0.1,0.1-0.1,0.2c-0.1,0.2-0.1,0.4-0.2,0.6c0,0,0,0.1,0,0.1
			c-0.1,0.2-0.1,0.5-0.2,0.7c0,0.1,0,0.1-0.1,0.2c0,0.2-0.1,0.4-0.1,0.6c0,0.1,0,0.1,0,0.2c-0.1,0.3-0.1,0.5-0.1,0.8v0l-0.8,8.8
			l-1.1,12.2l-0.2,2.7c0,0-1.1,9.1,10.9,10.4c3.3,0.3,9.6,0.6,16.7,0.6c4.5,0.1,9.3,0.1,13.8,0c7.2-0.1,13.6-0.3,16.9-0.6
			c0.2,0,0.5-0.1,0.7-0.1c0.1,0,0.1,0,0.2,0c0.2,0,0.4-0.1,0.5-0.1c0,0,0.1,0,0.1,0c0.2,0,0.4-0.1,0.6-0.1c0,0,0.1,0,0.1,0
			c0.2,0,0.3-0.1,0.5-0.1c0.1,0,0.1,0,0.2,0c0.2,0,0.4-0.1,0.6-0.2c0,0,0,0,0.1,0c0.2,0,0.3-0.1,0.5-0.2c0,0,0.1,0,0.1,0
			c0.1,0,0.3-0.1,0.4-0.2c0,0,0.1,0,0.1,0c0.2-0.1,0.3-0.1,0.5-0.2c0,0,0.1,0,0.1-0.1c0.1-0.1,0.2-0.1,0.4-0.2c0,0,0.1,0,0.1-0.1
			c0.1-0.1,0.3-0.1,0.4-0.2c0,0,0,0,0.1,0c0.1-0.1,0.2-0.1,0.3-0.2c0,0,0.1,0,0.1-0.1c0.1-0.1,0.2-0.1,0.3-0.2c0,0,0,0,0,0
			c0.1-0.1,0.2-0.2,0.3-0.3c0,0,0.1,0,0.1-0.1c0.1-0.1,0.2-0.1,0.3-0.2c0,0,0.1,0,0.1-0.1c0.1-0.1,0.2-0.2,0.3-0.3c0,0,0,0,0.1-0.1
			c0.1-0.1,0.2-0.1,0.2-0.2c0,0,0.1-0.1,0.1-0.1c0.1-0.1,0.2-0.2,0.2-0.3c0,0,0,0,0,0c0.1-0.1,0.2-0.2,0.2-0.3c0,0,0-0.1,0.1-0.1
			c0.1-0.1,0.1-0.2,0.2-0.2c0,0,0,0,0-0.1c0.1-0.1,0.1-0.2,0.2-0.3c0,0,0,0,0-0.1c0.1-0.1,0.1-0.2,0.1-0.2c0,0,0-0.1,0-0.1
			c0.1-0.1,0.1-0.2,0.2-0.3c0,0,0,0,0,0c0-0.1,0.1-0.2,0.1-0.3c0,0,0-0.1,0-0.1c0-0.1,0.1-0.2,0.1-0.2c0,0,0,0,0,0
			c0-0.1,0.1-0.2,0.1-0.3c0,0,0,0,0-0.1c0-0.1,0.1-0.2,0.1-0.2c0,0,0,0,0-0.1c0-0.1,0.1-0.2,0.1-0.3c0,0,0,0,0,0
			c0-0.1,0.1-0.2,0.1-0.3c0,0,0,0,0-0.1c0-0.1,0-0.2,0.1-0.3c0,0,0,0,0,0c0-0.1,0-0.2,0.1-0.3c0,0,0,0,0,0c0-0.1,0-0.1,0-0.2
			c0,0,0,0,0,0c0-0.1,0-0.2,0-0.2v0C81.7,41,81.6,40.2,81.6,40.2L81.6,40.2z"/>
		<path class="st4" d="M77.7,28.6c0.1-4,0-17.2-3.8-18.9c-1-0.5-3.1-0.9-6.5-1.2c-0.1,0-0.2-0.1-0.4-0.1c-0.2-0.1-0.5-0.2-0.7-0.2
			c-0.8-0.2-1.7-0.4-2.5-0.4h-5.9l-0.5,1.3h6.4c0.7,0,1.4,0.1,2.1,0.3c0.2,0.1,0.4,0.1,0.7,0.2c0.2,0,0.3,0.1,0.5,0.2
			c3,0.3,5.2,0.6,6.2,1.1c2.4,1.1,3.2,10.3,3.1,17.8c0.1,7.7-0.7,17.1-3.1,18.2c-2.6,1.2-14.5,1.8-26.3,1.8
			c-11.9,0-23.8-0.6-26.3-1.8c-2.4-1.1-3.2-10.5-3.1-18.2c-0.1-7.5,0.7-16.7,3.1-17.8c0.9-0.4,3.2-0.8,6.2-1.1
			c0.2-0.1,0.3-0.1,0.5-0.2c0.2-0.1,0.5-0.2,0.7-0.2c0.7-0.2,1.4-0.3,2.1-0.3h6.4l-0.5-1.3h-5.9c-0.9,0-1.7,0.1-2.5,0.4
			c-0.2,0.1-0.4,0.1-0.7,0.2c-0.1,0-0.2,0.1-0.4,0.1c-3.3,0.3-5.4,0.7-6.5,1.2c-0.1,0-0.2,0.1-0.3,0.2c-3.5,2.3-3.6,14.8-3.5,18.8
			c-0.1,4.1,0,17.6,3.8,19.4c3.9,1.8,22.9,1.9,26.7,1.9h0.4c3.8,0,22.8-0.1,26.7-1.9c1.7-0.8,2.7-3.9,3.2-7.5
			C77.8,36.1,77.8,30.9,77.7,28.6L77.7,28.6z"/>
		<path class="st6" d="M34.6,1.6c0.1,0,0.3-0.1,0.4-0.1C34.9,1.5,34.8,1.5,34.6,1.6z"/>
		<path class="st7" d="M49.4,0.1C48.5,0.1,47.7,0,47,0c-0.7,0-1.5,0.1-2.4,0.1c-2.2,0.2-4.8,0.4-7.1,0.8c0,0,0,0-0.1,0
			C37.3,1,37.1,1,36.9,1c0,0-0.1,0-0.1,0c-0.2,0-0.3,0.1-0.5,0.1c0,0-0.1,0-0.1,0c-0.2,0-0.3,0.1-0.5,0.1c0,0-0.1,0-0.1,0
			c-0.2,0-0.4,0.1-0.5,0.1c0,0,0,0,0,0c-0.1,0-0.3,0.1-0.4,0.1c0,0,0,0,0,0c-0.1,0-0.2,0.1-0.4,0.1c0,0,0,0-0.1,0
			c-0.1,0-0.2,0.1-0.3,0.1l0,0.1l2.2,5.9l0.5,1.3l0,0.1c0,0,0.8,0.9,2.7,1.1h15.5c1.9-0.1,2.7-1.1,2.7-1.1l0-0.1l0.5-1.3l2.2-5.9
			l0-0.1C57.8,0.9,53,0.4,49.4,0.1L49.4,0.1z"/>
		<path class="st2" d="M14.1,53.9l-1.8,7.6l-0.5,2.3l2,0.3l2-1.9l1.1-4.9l0.6-2.8C17.5,54.4,16.4,53.2,14.1,53.9L14.1,53.9z"/>
		<path class="st4" d="M11.3,61.6l0.5,2.1l0.5-2.3l1.8-7.6c2.3-0.7,3.4,0.5,3.4,0.5l-0.6-2.1l-3.3-0.4l-0.4,0.3l-1.2,0.8L11.3,61.6z
			"/>
		<path class="st2" d="M11.9,52.9c0,0-1.8-1.6-5,0l-0.4,8.3L7.1,64h2.7l1.5-2.4L11.9,52.9L11.9,52.9z"/>
		<path class="st4" d="M5.7,62l1.4,2l-0.5-2.8l0.4-8.3c3.2-1.6,5,0,5,0l-1.3-1.5L7,51.2l-0.5,0l-0.2,0.2l-1,1L5.7,62L5.7,62z"/>
		<path class="st2" d="M5.2,52.4l0.1,1.7l-1.5-0.4l-2.2,0.6l1.1,7.8L4,63.8l1.5-0.4L5.7,62L5.2,52.4z"/>
		<path class="st4" d="M0.9,57.2l1.6,4.9l0,0l-1.1-7.8l2.2-0.6l1.5,0.4l-0.1-1.7l-0.7-0.3l-0.9-0.5l-2.8,0.8l-0.8,2l0.3,0.9
			L0.9,57.2z"/>
		<path class="st2" d="M78.1,62.1l2,1.9l2-0.3l-0.5-2.3l-1.8-7.6c-2.3-0.7-3.4,0.5-3.4,0.5l0.6,2.8L78.1,62.1z"/>
		<path class="st4" d="M79.9,53.9l1.8,7.6l0.5,2.3l0.5-2.1l-0.6-8.7l-1.1-0.7l-0.5-0.3l-3.3,0.4l-0.6,2.1
			C76.5,54.4,77.6,53.2,79.9,53.9L79.9,53.9z"/>
		<path class="st2" d="M87.1,52.9c-3.2-1.6-5,0-5,0l0.6,8.7l1.5,2.4h2.7l0.5-2.8L87.1,52.9z"/>
		<path class="st4" d="M82.1,52.9c0,0,1.8-1.6,5,0l0.4,8.3L86.9,64l1.4-2l0.5-9.6l-1.1-1.1l-0.1-0.1l-0.4,0l-3.9,0.2L82.1,52.9
			L82.1,52.9z"/>
		<path class="st2" d="M92.5,54.3l-2.2-0.6l-1.5,0.4l0.1-1.7L88.3,62l0.2,1.4l1.5,0.4l1.4-1.7L92.5,54.3z"/>
		<path class="st4" d="M88.7,54.1l1.5-0.4l2.2,0.6l-1.1,7.8l0,0l1.6-4.9l0.6-1.9l0.3-0.9l-0.8-2l-2.8-0.8L89.6,52l-0.8,0.4
			L88.7,54.1z"/>
		<path class="st8" d="M30.2,9.1c-0.7,0-1.4,0.1-2.1,0.3c-0.2,0.1-0.4,0.1-0.7,0.2c-0.2,0-0.3,0.1-0.5,0.2c-3,0.3-5.2,0.6-6.2,1.1
			c-2.4,1.1-3.2,10.3-3.1,17.8c-0.1,7.7,0.7,17.1,3.1,18.2c2.6,1.2,14.5,1.8,26.3,1.8c11.9,0,23.8-0.6,26.3-1.8
			c2.4-1.1,3.2-10.5,3.1-18.2c0.1-7.5-0.7-16.7-3.1-17.8c-0.9-0.4-3.2-0.8-6.2-1.1c-0.2-0.1-0.3-0.1-0.5-0.2
			c-0.2-0.1-0.5-0.2-0.7-0.2c-0.7-0.2-1.4-0.3-2.1-0.3h-6.4l0,0.1c0,0-0.8,0.9-2.7,1.1H39.2c-1.9-0.1-2.7-1.1-2.7-1.1l0-0.1H30.2
			L30.2,9.1z"/>
	</g>
</g>
<g>
	<defs>
		<rect id="SVGID_3_" x="34" y="24" width="25" height="9"/>
	</defs>
	<clipPath id="SVGID_4_">
		<use xlink:href="#SVGID_3_"  style="overflow:visible;"/>
	</clipPath>
	<g class="st9">
		<path class="st10" d="M37.8,32.8c1.8,0,3.2-2,3.2-4.4S39.5,24,37.8,24s-3.2,2-3.2,4.4S36,32.8,37.8,32.8z"/>
		<path class="st10" d="M55.9,32.8c1.8,0,3.2-2,3.2-4.4S57.7,24,55.9,24s-3.2,2-3.2,4.4S54.1,32.8,55.9,32.8z"/>
	</g>
</g>
</svg>
