<svg width="104" height="94" viewBox="0 0 104 94" fill="none" xmlns="http://www.w3.org/2000/svg">
<g filter="url(#filter0_d_2855_599772)">
<path d="M12 2H92V59.7601C92 64.6146 89.0751 68.991 84.5896 70.8477L57.3139 82.1383C54.4296 83.3322 51.1937 83.3552 48.2927 82.2024L19.5685 70.7878C14.9993 68.9721 12 64.5528 12 59.6361V2Z" fill="#FF6600"/>
</g>
<path opacity="0.8" d="M14.5 4.5H89.5V57.7135C89.5 62.3829 86.6766 66.5888 82.3549 68.3571L57.0393 78.7152C54.3002 79.8359 51.2345 79.8575 48.48 78.7755L21.7956 68.2941C17.3944 66.5653 14.5 62.3188 14.5 57.5902V4.5Z" fill="#FF6600" stroke="white"/>
<path d="M12 2V14H0L12 2Z" fill="#B94A00"/>
<path d="M92 2V14H104L92 2Z" fill="#B94A00"/>
<path d="M39.2373 32.8203H37.1963V27.8145H32.9854V29.6191H24.1123V19.8652H26.1533V23.1309H30.9658V19.8652H32.9854V22.0137H37.1963V18.5977H39.2373V32.8203ZM39.667 37.418H26.6689V31.4238H28.7314V35.7637H39.667V37.418ZM30.9658 27.9648V24.6992H26.1533V27.9648H30.9658ZM37.1963 26.1602V23.6895H32.9854V26.1602H37.1963ZM58.251 29.9844H56.21V27.6426H51.3545V25.9668H56.21V23.625H51.5479C50.932 25.1576 49.9222 26.4681 48.5186 27.5566C47.1149 28.6452 45.3604 29.4902 43.2549 30.0918L42.4385 28.502C44.7087 27.8503 46.4919 26.9336 47.7881 25.752C49.0915 24.5703 49.8363 23.2025 50.0225 21.6484H43.4268V19.9727H52.2354C52.2354 20.653 52.1673 21.3333 52.0312 22.0137H56.21V18.5977H58.251V29.9844ZM51.9131 30.1992C53.2021 30.1992 54.3337 30.3496 55.3076 30.6504C56.2816 30.9512 57.0335 31.3844 57.5635 31.9502C58.1006 32.516 58.3727 33.1855 58.3799 33.959C58.3727 34.7324 58.1006 35.4056 57.5635 35.9785C57.0335 36.5443 56.2816 36.9775 55.3076 37.2783C54.3337 37.5863 53.2021 37.7402 51.9131 37.7402C50.6025 37.7402 49.4567 37.5863 48.4756 37.2783C47.5016 36.9775 46.7497 36.5443 46.2197 35.9785C45.6898 35.4056 45.4248 34.7324 45.4248 33.959C45.4248 33.1855 45.6898 32.516 46.2197 31.9502C46.7497 31.3844 47.5016 30.9512 48.4756 30.6504C49.4567 30.3496 50.6025 30.1992 51.9131 30.1992ZM51.9131 31.8105C50.9964 31.8105 50.2015 31.8965 49.5283 32.0684C48.8623 32.2331 48.3467 32.4766 47.9814 32.7988C47.6234 33.1211 47.4443 33.5078 47.4443 33.959C47.4443 34.403 47.6234 34.7861 47.9814 35.1084C48.3467 35.4307 48.8623 35.6777 49.5283 35.8496C50.2015 36.0215 50.9964 36.1074 51.9131 36.1074C52.8154 36.1074 53.596 36.0215 54.2549 35.8496C54.9209 35.6777 55.4329 35.4307 55.791 35.1084C56.1491 34.7861 56.3317 34.403 56.3389 33.959C56.3317 33.2786 55.9342 32.7523 55.1465 32.3799C54.3587 32.0003 53.2809 31.8105 51.9131 31.8105ZM76.3408 23.0234H79.1553V24.6992H76.3408V29.1035H74.2998V18.5117H76.3408V23.0234ZM76.3408 34.4746H65.9424V36.0859H77.0068V37.6328H63.9443V33.0352H74.3213V31.5312H63.9014V30.0059H76.3408V34.4746ZM72.71 21.8203H61.2373V20.209H65.9639V18.4043H68.0049V20.209H72.71V21.8203ZM66.9736 22.5508C67.9046 22.5508 68.721 22.6797 69.4229 22.9375C70.1318 23.1882 70.6761 23.5534 71.0557 24.0332C71.4424 24.5059 71.6357 25.0645 71.6357 25.709C71.6357 26.3535 71.4424 26.9121 71.0557 27.3848C70.6761 27.8574 70.1354 28.2191 69.4336 28.4697C68.7318 28.7204 67.9118 28.8457 66.9736 28.8457C66.0283 28.8457 65.2012 28.7204 64.4922 28.4697C63.7904 28.2191 63.2461 27.8574 62.8594 27.3848C62.4798 26.9121 62.29 26.3535 62.29 25.709C62.29 25.0645 62.4834 24.5059 62.8701 24.0332C63.2568 23.5534 63.8011 23.1882 64.5029 22.9375C65.2119 22.6797 66.0355 22.5508 66.9736 22.5508ZM66.9736 24.0117C66.4294 24.0117 65.9495 24.0833 65.5342 24.2266C65.126 24.3626 64.8109 24.5596 64.5889 24.8174C64.3669 25.068 64.2594 25.3652 64.2666 25.709C64.2594 26.2174 64.4993 26.6221 64.9863 26.9229C65.4805 27.2165 66.1429 27.3633 66.9736 27.3633C67.8044 27.3633 68.4668 27.2165 68.9609 26.9229C69.4622 26.6292 69.7165 26.2246 69.7236 25.709C69.7165 25.3652 69.5983 25.068 69.3691 24.8174C69.14 24.5596 68.8177 24.3626 68.4023 24.2266C67.9941 24.0833 67.5179 24.0117 66.9736 24.0117ZM48.7012 59.8262H46.6387V40.5762H48.7012V59.8262ZM42.9648 42.6387C42.9648 45.6178 42.2523 48.2676 40.8271 50.5879C39.4092 52.901 37.1211 54.8132 33.9629 56.3242L32.8887 54.6699C35.4167 53.4668 37.3324 52.0023 38.6357 50.2764C39.9463 48.5505 40.7018 46.5488 40.9023 44.2715H33.8125V42.6387H42.9648ZM67.7148 59.8262H65.6523V40.5762H67.7148V59.8262ZM61.9785 42.6387C61.9785 45.6178 61.266 48.2676 59.8408 50.5879C58.4229 52.901 56.1348 54.8132 52.9766 56.3242L51.9023 54.6699C54.4303 53.4668 56.346 52.0023 57.6494 50.2764C58.96 48.5505 59.7155 46.5488 59.916 44.2715H52.8262V42.6387H61.9785Z" fill="white"/>
<defs>
<filter id="filter0_d_2855_599772" x="10" y="0" width="92" height="93.0505" filterUnits="userSpaceOnUse" color-interpolation-filters="sRGB">
<feFlood flood-opacity="0" result="BackgroundImageFix"/>
<feColorMatrix in="SourceAlpha" type="matrix" values="0 0 0 0 0 0 0 0 0 0 0 0 0 0 0 0 0 0 127 0" result="hardAlpha"/>
<feOffset dx="4" dy="4"/>
<feGaussianBlur stdDeviation="3"/>
<feComposite in2="hardAlpha" operator="out"/>
<feColorMatrix type="matrix" values="0 0 0 0 0 0 0 0 0 0 0 0 0 0 0 0 0 0 0.2 0"/>
<feBlend mode="normal" in2="BackgroundImageFix" result="effect1_dropShadow_2855_599772"/>
<feBlend mode="normal" in="SourceGraphic" in2="effect1_dropShadow_2855_599772" result="shape"/>
</filter>
</defs>
</svg>
