<svg width="49" height="48" viewBox="0 0 49 48" fill="none" xmlns="http://www.w3.org/2000/svg">
<path fill-rule="evenodd" clip-rule="evenodd" d="M24.206 22.044C26.598 24.4359 26.598 28.3141 24.206 30.706C21.8141 33.098 17.9359 33.098 15.544 30.706C13.152 28.3141 13.152 24.4359 15.544 22.044C17.9359 19.652 21.8141 19.652 24.206 22.044Z" stroke="white" stroke-width="2" stroke-linecap="round" stroke-linejoin="round"/>
<path d="M15.5508 30.6993L19.875 26.3751V20.6106" stroke="white" stroke-width="2" stroke-linecap="round" stroke-linejoin="round"/>
<path fill-rule="evenodd" clip-rule="evenodd" d="M40 36V16.449C40 15.5215 39.6308 14.6307 38.9763 13.9762L34.0255 9.0255C33.3693 8.36925 32.4785 8 31.551 8H12C10.0662 8 8.5 9.56625 8.5 11.5V36C8.5 37.9338 10.0662 39.5 12 39.5H36.5C38.4338 39.5 40 37.9338 40 36Z" stroke="white" stroke-width="2" stroke-linecap="round" stroke-linejoin="round"/>
<path d="M40 16.75H33C32.034 16.75 31.25 15.966 31.25 15V8" stroke="white" stroke-width="2" stroke-linecap="round" stroke-linejoin="round"/>
<path d="M31.25 23.75H34.75" stroke="white" stroke-width="2" stroke-linecap="round" stroke-linejoin="round"/>
<path d="M31.25 29H34.75" stroke="white" stroke-width="2" stroke-linecap="round" stroke-linejoin="round"/>
</svg>
