<svg width="28" height="27" viewBox="0 0 28 27" fill="none" xmlns="http://www.w3.org/2000/svg">
<path d="M14 0.999512C20.9194 0.999512 26.5 6.58007 26.5 13.4995C26.5 20.419 20.9194 25.9995 14 25.9995" stroke="black" stroke-width="2" stroke-linecap="round" stroke-linejoin="round"/>
<path d="M14 25.9995C7.08056 25.9995 1.5 20.419 1.5 13.4995C1.5 6.58007 7.08056 0.999512 14 0.999512" stroke="black" stroke-width="2" stroke-linecap="round" stroke-linejoin="round"/>
<path fill-rule="evenodd" clip-rule="evenodd" d="M11.4533 2.47188C7.4394 9.17327 7.4394 17.8274 11.4533 24.5288C12.6283 26.4913 15.3686 26.4913 16.5436 24.5288C20.5575 17.8274 20.5575 9.17327 16.5436 2.47188C15.3672 0.509375 12.6283 0.509375 11.4533 2.47188Z" stroke="black" stroke-width="2" stroke-linecap="round" stroke-linejoin="round"/>
<path d="M2.8999 7.74658C9.69435 9.84519 18.2999 9.84519 25.093 7.74658" stroke="black" stroke-width="2" stroke-linecap="round" stroke-linejoin="round"/>
<path d="M25.0988 19.2522C18.3044 17.1536 9.69882 17.1536 2.90576 19.2522" stroke="black" stroke-width="2" stroke-linecap="round" stroke-linejoin="round"/>
</svg>
