<svg width="30" height="30" viewBox="0 0 30 30" fill="none" xmlns="http://www.w3.org/2000/svg">
<path d="M25.2162 12.5V6.25C25.2162 4.86929 24.1514 3.75 22.8378 3.75H7.37838C6.06484 3.75 5 4.86929 5 6.25V23.75C5 25.1307 6.06484 26.25 7.37838 26.25H13.3243" stroke="black" stroke-width="1.5" stroke-linecap="round" stroke-linejoin="round"/>
<path d="M9.75781 10H20.4605" stroke="black" stroke-width="1.5" stroke-linecap="round" stroke-linejoin="round"/>
<path d="M9.75781 15H13.3254" stroke="black" stroke-width="1.5" stroke-linecap="round" stroke-linejoin="round"/>
<path d="M9.75781 20H10.947" stroke="black" stroke-width="1.5" stroke-linecap="round" stroke-linejoin="round"/>
<path d="M17.7812 21.1934V24.44C17.7812 25.1502 18.163 25.7995 18.7673 26.1171L19.4561 26.479C20.4604 27.0069 21.6426 27.0069 22.6469 26.479L23.3357 26.1171C23.9401 25.7995 24.3218 25.1502 24.3218 24.44V21.1934" stroke="black" stroke-width="1.5" stroke-linecap="round" stroke-linejoin="round"/>
<path fill-rule="evenodd" clip-rule="evenodd" d="M15.7855 20.1902L19.7727 22.1943C20.5838 22.6019 21.5267 22.6019 22.3378 22.1943L26.3251 20.1902C26.7382 19.9825 27.0011 19.5439 27.0011 19.0625C27.0011 18.5811 26.7382 18.1425 26.3251 17.9349L22.3378 15.9307C21.5267 15.5231 20.5838 15.5231 19.7727 15.9307L15.7855 17.9349C15.3723 18.1425 15.1094 18.5811 15.1094 19.0625C15.1094 19.5439 15.3723 19.9825 15.7855 20.1902Z" stroke="black" stroke-width="1.5" stroke-linecap="round" stroke-linejoin="round"/>
<path d="M27 19.0542V21.8749" stroke="black" stroke-width="1.5" stroke-linecap="round" stroke-linejoin="round"/>
</svg>
