<svg width="30" height="30" viewBox="0 0 30 30" fill="none" xmlns="http://www.w3.org/2000/svg">
<path d="M15.9308 11.9494C16.8798 12.3616 17.7418 12.9773 18.5078 13.7397" stroke="black" stroke-width="1.5" stroke-linecap="round" stroke-linejoin="round"/>
<path d="M26.155 14.3843C23.7955 10.4286 19.4368 6.99966 15.0781 6.99966" stroke="black" stroke-width="1.5" stroke-linecap="round" stroke-linejoin="round"/>
<path d="M23.6914 19C24.7245 18.0175 25.6426 16.9463 26.3871 15.8278C26.6219 15.4744 26.6219 15.0457 26.3871 14.6923" stroke="black" stroke-width="1.5" stroke-linecap="round" stroke-linejoin="round"/>
<path d="M6.46094 7L23.6917 23" stroke="black" stroke-width="1.5" stroke-linecap="round" stroke-linejoin="round"/>
<path d="M12.4385 12.5385C11.0309 13.9461 11.0309 16.2291 12.4385 17.6367C13.8461 19.0443 16.1291 19.0443 17.5367 17.6367" stroke="black" stroke-width="1.5" stroke-linecap="round" stroke-linejoin="round"/>
<path d="M21.2308 20.8015C19.3327 22.1469 17.1868 23 15.0421 23C10.754 23 6.46583 19.5909 4.14447 15.657C3.95184 15.3299 3.95184 14.9331 4.14447 14.606C5.30515 12.6402 6.95661 10.8058 8.85345 9.46154" stroke="black" stroke-width="1.5" stroke-linecap="round" stroke-linejoin="round"/>
</svg>
