<svg width="30" height="31" viewBox="0 0 30 31" fill="none" xmlns="http://www.w3.org/2000/svg">
<path d="M27.1875 15.5C27.1875 18.7323 25.9035 21.8323 23.6179 24.1179C21.3323 26.4035 18.2323 27.6875 15 27.6875C11.7677 27.6875 8.66774 26.4035 6.38214 24.1179C4.09654 21.8323 2.8125 18.7323 2.8125 15.5C2.8125 12.2677 4.09654 9.16774 6.38214 6.88214C8.66774 4.59654 11.7677 3.3125 15 3.3125C18.2323 3.3125 21.3323 4.59654 23.6179 6.88214C25.9035 9.16774 27.1875 12.2677 27.1875 15.5ZM0 15.5C0 19.4782 1.58035 23.2936 4.3934 26.1066C7.20644 28.9196 11.0218 30.5 15 30.5C18.9782 30.5 22.7936 28.9196 25.6066 26.1066C28.4196 23.2936 30 19.4782 30 15.5C30 11.5218 28.4196 7.70644 25.6066 4.8934C22.7936 2.08035 18.9782 0.5 15 0.5C11.0218 0.5 7.20644 2.08035 4.3934 4.8934C1.58035 7.70644 0 11.5218 0 15.5ZM13.5938 7.53125V15.5C13.5938 15.9688 13.8281 16.4082 14.2207 16.6719L19.8457 20.4219C20.4902 20.8555 21.3633 20.6797 21.7969 20.0293C22.2305 19.3789 22.0547 18.5117 21.4043 18.0781L16.4062 14.75V7.53125C16.4062 6.75195 15.7793 6.125 15 6.125C14.2207 6.125 13.5938 6.75195 13.5938 7.53125Z" fill="#F04C42"/>
</svg>
