<svg width="50" height="50" viewBox="0 0 50 50" fill="none" xmlns="http://www.w3.org/2000/svg">
<path d="M23.333 25H39.9997" stroke="black" stroke-width="2" stroke-linecap="round" stroke-linejoin="round"/>
<path fill-rule="evenodd" clip-rule="evenodd" d="M15.6896 22.6442C16.9913 23.9459 16.9913 26.0559 15.6896 27.3576C14.3879 28.6592 12.2779 28.6592 10.9763 27.3576C9.67458 26.0559 9.67458 23.9459 10.9763 22.6442C12.2779 21.3426 14.3879 21.3426 15.6896 22.6442Z" stroke="black" stroke-width="2" stroke-linecap="round" stroke-linejoin="round"/>
<path d="M23.333 13.334H39.9997" stroke="black" stroke-width="2" stroke-linecap="round" stroke-linejoin="round"/>
<path d="M10.0332 12.5133L12.7882 14.9933L18.3332 10" stroke="black" stroke-width="2" stroke-linecap="round" stroke-linejoin="round"/>
<path d="M23.333 36.666H39.9997" stroke="black" stroke-width="2" stroke-linecap="round" stroke-linejoin="round"/>
<path fill-rule="evenodd" clip-rule="evenodd" d="M15.6896 34.3102C16.9913 35.6119 16.9913 37.7219 15.6896 39.0236C14.3879 40.3252 12.2779 40.3252 10.9763 39.0236C9.67458 37.7219 9.67458 35.6119 10.9763 34.3102C12.2779 33.0086 14.3879 33.0086 15.6896 34.3102Z" stroke="black" stroke-width="2" stroke-linecap="round" stroke-linejoin="round"/>
</svg>
