<svg width="100" height="95" viewBox="0 0 100 95" fill="none" xmlns="http://www.w3.org/2000/svg">
<g clip-path="url(#clip0_2855_599497)">
<path opacity="0.76" d="M58.3018 28.4631C62.3008 23.1164 67.9375 19.0139 74.2527 16.8562C77.3948 15.7829 80.7937 15.183 84.0518 15.8212C87.3099 16.4593 90.4202 18.5054 91.7256 21.5626C93.564 25.8384 91.5066 30.893 88.3504 34.3028C84.4907 38.4759 78.9659 41.0533 73.2975 41.3262C69.7111 41.5021 66.4051 40.7077 63.2484 39.3185C61.9704 35.6546 59.9584 32.4512 57.4282 29.6944C57.7202 29.2383 58.0241 28.8212 58.301 28.4551L58.3018 28.4631Z" fill="#ADDEE5"/>
<path opacity="0.76" d="M55.3995 35.9296C51.6748 31.3767 49.1608 25.8243 48.2292 20.0078C47.7058 16.7269 47.688 13.2743 48.8715 10.1678C50.0551 7.0613 52.589 4.3422 55.8173 3.56621C60.3341 2.48333 64.9679 5.35838 67.7935 9.05162C71.2489 13.5672 72.8472 19.4534 72.1603 25.0946C71.6458 29.3336 69.8542 32.9522 67.3558 36.2636C63.4523 35.3683 59.4086 35.3165 55.3916 35.9304L55.3995 35.9296Z" fill="#ADDEE5"/>
<path d="M84.6135 24.5978C78.8938 24.441 73.3139 26.7904 69.3506 30.8935C68.6288 31.6345 69.8808 32.6438 70.5867 31.9044C74.2739 28.0948 79.49 26.0477 84.774 26.1921C85.7983 26.2178 85.6298 24.6243 84.6135 24.5978Z" fill="white"/>
<path d="M57.0769 14.616C60.2451 19.4745 62.1427 25.0569 62.6282 30.8377C62.7158 31.8676 64.3087 31.7072 64.221 30.6773C63.7154 24.6167 61.6949 18.773 58.3737 13.6722C57.8123 12.8108 56.5155 13.7546 57.0769 14.616Z" fill="white"/>
<path d="M84.5816 63.4204L97.1799 69.9705C97.9607 70.375 97.6781 71.5629 96.794 71.5714L82.7434 71.6898L84.5816 63.4204Z" fill="#200B06"/>
<path d="M30.3203 84.9161L57.3464 88.862C72.917 91.135 87.516 80.244 89.7835 64.6522C92.0517 49.0684 81.1677 34.4546 65.5891 32.1824L38.563 28.2365C20.1126 25.247 8.40137 36.8537 6.13392 52.4455C3.86566 68.0293 14.7497 82.6431 30.3283 84.9153L30.3203 84.9161Z" fill="#79471D"/>
<path d="M69.5548 61.9944C71.2898 50.0636 66.7092 38.6077 58.361 31.0419L65.3095 32.0573C66.4199 32.2193 67.4969 32.449 68.5548 32.729C76.6697 40.2941 81.1061 51.5955 79.394 63.3549C77.75 74.6727 70.7689 83.9592 61.3847 89.0349C59.9614 89.0413 58.5117 88.9457 57.0588 88.7377L51.1554 87.8747C60.7292 82.8444 67.8775 73.4605 69.5468 61.9952L69.5548 61.9944Z" fill="#FFD800"/>
<path d="M42.0273 18.1764C41.4269 17.327 42.7778 16.4421 43.3782 17.2916C44.9371 19.51 45.7166 22.2981 45.8828 24.9868C46.0553 27.7394 45.5645 30.6151 43.8753 32.8546C43.6128 33.2031 43.0393 33.1804 42.7388 32.9127C42.3929 32.5932 42.418 32.1237 42.6806 31.7751C44.1207 29.8587 44.4317 27.2748 44.2619 24.9487C44.0872 22.5748 43.4004 20.1478 42.0201 18.1852L42.0273 18.1764Z" fill="#FFCD00"/>
<path d="M22.8844 19.8221C25.0141 20.7591 27.0509 21.9712 28.5886 23.7408C30.1448 25.5327 30.9072 27.8314 30.9512 30.1862C30.968 31.2313 29.3417 31.3789 29.3241 30.3259C29.2819 28.2285 28.6559 26.2463 27.2417 24.6656C25.8722 23.1286 24.0235 22.1069 22.1719 21.2949C21.2118 20.8682 21.9243 19.3954 22.8844 19.8221Z" fill="#FFCD00"/>
<path d="M43.1435 14.8276C45.938 15.4159 45.0246 19.7674 42.2293 19.1712C39.4348 18.583 40.3482 14.2314 43.1435 14.8276Z" fill="#FF67CA"/>
<path d="M22.1179 17.8304C24.9625 18.3572 24.1528 22.7788 21.3081 22.252C18.4635 21.7252 19.2733 17.3035 22.1179 17.8304Z" fill="#FF67CA"/>
<path d="M8.83448 53.1797C10.8917 39.7348 21.2801 24.0983 37.0415 37.295C55.5971 31.1026 63.9916 47.9962 58.701 65.0438C54.6673 78.0355 43.6188 83.4398 29.9153 81.3331C16.2118 79.2263 6.77723 66.6246 8.83448 53.1797Z" fill="#FFD800"/>
<path d="M35.1821 36.1537C34.3477 35.4567 33.5212 34.8394 32.7188 34.3002C33.6128 34.7899 34.5324 35.3737 35.4712 36.0683C35.37 36.1026 35.2761 36.1282 35.1829 36.1617L35.1821 36.1537Z" fill="#FF9F00"/>
<path d="M28.0632 80.1989C41.7667 82.3057 52.8145 76.8934 56.849 63.9097C60.1962 53.129 58.0629 42.409 51.3472 37.5534C59.5096 41.6756 62.3477 53.3231 58.7097 65.0509C54.676 78.0426 43.6274 83.4469 29.9239 81.3402C26.0669 80.7462 22.5525 79.3205 19.5315 77.2816C22.1052 78.7133 24.9741 79.7209 28.0632 80.1989Z" fill="#FF9F00"/>
<path d="M41.57 53.9526C41.7942 52.5054 41.1261 51.2001 40.0776 51.0372C39.0292 50.8742 37.9974 51.9154 37.7732 53.3626C37.549 54.8098 38.2171 56.1151 39.2656 56.278C40.314 56.4409 41.3458 55.3998 41.57 53.9526Z" fill="black"/>
<path d="M27.2558 52.7761C27.4909 51.2589 26.7926 49.8908 25.6961 49.7204C24.5996 49.5501 23.5201 50.6419 23.285 52.159C23.0499 53.6762 23.7483 55.0443 24.8448 55.2146C25.9413 55.385 27.0208 54.2932 27.2558 52.7761Z" fill="black"/>
<path d="M46.2105 63.4434C43.5614 64.5395 40.4423 64.4027 37.8111 62.7995C35.6938 61.5069 34.2092 59.4663 33.6291 57.0607C33.0482 54.6472 33.4326 52.1526 34.7244 50.0417C36.0155 47.9228 38.0541 46.4372 40.4574 45.8571C42.8687 45.2761 45.3532 45.662 47.4705 46.9546C49.5877 48.2471 51.0724 50.2878 51.6525 52.6934C52.2326 55.0989 51.8482 57.5935 50.5572 59.7124C49.4936 61.4541 47.955 62.7121 46.2025 63.4442L46.2105 63.4434ZM39.9935 48.5207C38.6575 49.074 37.5392 50.032 36.7723 51.2849C35.8122 52.8551 35.5237 54.7039 35.9608 56.4877C36.3978 58.2716 37.4918 59.788 39.06 60.7412C42.292 62.7187 46.5333 61.6958 48.5077 58.4533C50.4828 55.2187 49.46 50.9736 46.22 48.9969C44.651 48.0356 42.8037 47.7466 41.0215 48.1837C40.668 48.2676 40.3176 48.3834 39.9856 48.5215L39.9935 48.5207Z" fill="#4E4776"/>
<path d="M25.8174 60.561C23.1684 61.6571 20.0492 61.5203 17.418 59.9171C13.0544 57.2484 11.6657 51.5262 14.3305 47.1513C16.9961 42.7844 22.713 41.3955 27.0846 44.0634C31.4482 46.7321 32.8369 52.4543 30.1721 56.8292C29.1085 58.5709 27.5699 59.8289 25.8174 60.561ZM16.38 48.4104C14.4049 51.645 15.4277 55.8902 18.6677 57.8668C21.8998 59.8443 26.141 58.8214 28.1154 55.5788C30.0905 52.3443 29.0678 48.0991 25.8277 46.1225C22.5957 44.145 18.3544 45.1679 16.38 48.4104Z" fill="#4E4776"/>
<path d="M30.6447 52.3355L30.2734 54.71L33.4763 55.2122L33.8476 52.8377L30.6447 52.3355Z" fill="#4E4776"/>
<path d="M33.2936 64.9008C33.4514 62.8316 32.5038 61.0719 31.177 60.9703C29.8502 60.8687 28.6467 62.4637 28.4889 64.5328C28.331 66.6019 29.2787 68.3617 30.6055 68.4633C31.9323 68.5649 33.1358 66.9699 33.2936 64.9008Z" fill="#E94245"/>
</g>
<defs>
<clipPath id="clip0_2855_599497">
<rect width="90.0743" height="85.9487" fill="white" transform="translate(0.898438 9.01587) rotate(-5.74989)"/>
</clipPath>
</defs>
</svg>
