<svg width="181" height="149" viewBox="0 0 181 149" fill="none" xmlns="http://www.w3.org/2000/svg">
<mask id="path-1-outside-1_4635_436426" maskUnits="userSpaceOnUse" x="-1" y="0" width="182" height="149" fill="black">
<rect fill="white" x="-1" width="182" height="149"/>
<path d="M158.904 99.1192L161.127 96.6871C160.568 97.7782 160.055 98.798 159.51 99.7412C158.937 100.679 158.398 101.556 157.879 102.398C157.612 102.816 157.359 103.224 157.106 103.626C156.833 104.019 156.567 104.406 156.301 104.784C155.768 105.538 155.256 106.273 154.743 106.992C154.25 107.721 153.711 108.419 153.179 109.128C152.646 109.837 152.12 110.555 151.588 111.3C150.516 112.784 149.338 114.339 148.126 116.149L148.279 115.695C147.806 116.164 147.813 116.715 146.582 118.428C145.969 119.284 145.044 120.432 143.506 121.966C142.74 122.736 141.868 123.618 140.777 124.597C139.685 125.576 138.44 126.672 136.982 127.891L136.916 127.855C136.576 128.233 136.709 128.299 135.844 128.946C136.549 128.406 137.275 127.865 137.967 127.315C137.115 128.518 136.503 129.65 135.158 131.154C134.792 131.429 134.559 131.46 134.426 131.434L131.064 135.09L129.579 135.952C128.727 137.17 130.092 137.186 126.71 139.822C128.414 139.077 125.625 141.479 126.291 141.3C126.071 141.402 125.618 141.673 125.246 141.882C123.581 143.656 120.433 147.011 119.927 148C119.927 148 121.977 146.511 124.307 144.813C126.637 143.126 129.3 141.254 130.525 140.52C127.922 142.881 129.959 141.214 130.638 140.847L130.651 140.597C132.256 139.21 132.642 139.429 133.48 138.756C133.447 138.741 133.387 138.741 133.334 138.736L133.294 138.858C133.154 138.889 133.154 138.822 133.194 138.72C133.094 138.69 133.094 138.588 133.52 138.195L133.487 138.297C134.046 137.65 135.131 136.61 135.617 136.161L135.95 136.334C136.436 134.912 143.992 129.405 145.363 127.865C146.269 127.218 147.008 126.341 147.747 125.398C148.492 124.454 149.251 123.455 150.19 122.542C152.886 119.468 151.98 121.222 153.578 119.789C155.422 117.923 152.853 119.998 153.478 119.198C154.29 118.489 155.049 117.755 155.842 117.031C154.796 118.443 155.589 117.785 155.921 117.592C156.747 116.562 158.012 115.323 158.937 114.165C159.882 113.018 160.595 112.014 160.482 111.54C161.087 110.861 161.547 110.352 161.906 109.949C162.272 109.551 162.552 109.266 162.785 109.026C163.257 108.552 163.55 108.266 163.99 107.649C163.577 108.016 162.898 108.802 162.745 108.756C163.85 107.71 163.044 108.169 162.652 108.618C162.871 108.144 163.457 107.359 164.196 106.441C164.895 105.503 165.741 104.427 166.553 103.382C167.385 102.347 168.084 101.317 168.57 100.516C169.056 99.7157 169.322 99.1396 169.176 98.9764L169.322 99.0223C168.956 98.4003 167.984 98.8999 168.363 97.5131C168.616 97.2582 168.843 96.993 169.082 96.7279L169.469 95.336C170.101 94.5151 170.054 94.9944 170.128 95.0148C170.514 93.9033 171.179 92.6286 171.785 91.2724C172.111 90.5993 172.444 89.911 172.777 89.2278C172.944 88.8862 173.11 88.5446 173.27 88.2081C173.416 87.8665 173.549 87.5248 173.682 87.1934C172.797 88.0245 171.805 88.8097 170.853 89.5949C171.186 89.0646 171.585 88.4324 171.998 87.7696C172.371 87.0966 172.75 86.3929 173.083 85.7352C173.742 84.4198 174.222 83.3032 174.002 83.0227L174.994 81.7532C175.633 80.6519 175.899 79.8769 176.066 79.3313C176.219 78.7807 176.212 78.4543 176.146 78.2045C176.019 77.7099 175.726 77.557 176.092 76.6545C176.485 75.905 176.805 75.1402 177.164 74.3754C177.024 75.1555 176.911 75.9407 176.731 76.7157C177.51 74.4111 177.856 73.4831 178.509 71.617C178.502 71.617 178.502 71.5966 178.495 71.5966C178.449 71.7241 178.409 71.8057 178.369 71.821L178.396 71.4896C178.123 71.1786 177.996 69.9345 178.143 68.2672C178.236 67.0843 178.209 66.0238 178.169 64.7899C178.163 63.5561 178.176 62.1488 178.396 60.2368L177.65 59.3242C177.723 58.3707 177.71 57.4224 177.737 56.4638L178.269 56.423C178.436 57.8201 178.709 59.834 178.835 61.9551C178.868 62.4854 178.902 63.0207 178.935 63.5561C178.948 64.0914 178.955 64.6268 178.968 65.1469C179.008 66.1921 178.948 67.2016 178.922 68.1041L179.161 68.1754C179.208 67.1047 179.214 65.9575 179.148 64.9021C179.128 64.3769 179.101 63.8722 179.081 63.4082C179.048 62.9493 179.028 62.5312 179.028 62.1743C179.068 61.8276 179.214 61.2107 179.388 60.8334C179.554 60.4561 179.774 60.3235 180 60.966L179.374 59.6556C179.035 56.0712 178.675 54.2765 178.369 52.441C178.209 51.5232 178.076 50.5902 177.843 49.4277C177.637 48.2601 177.344 46.858 176.871 44.9919L176.838 45.6751C176.186 44.2526 175.52 42.8555 175.753 42.361C174.967 40.1634 173.975 37.9659 173.11 35.9367C172.178 33.9176 171.319 32.0821 170.693 30.6238L169.728 30.272C169.435 29.8387 169.289 29.2064 169.036 28.6813C168.783 28.1561 168.47 27.7278 167.931 27.6972L167.112 26.8559L166.247 26.0402C165.341 24.893 164.416 24.3984 163.537 23.0014C163.537 22.9963 163.53 22.9963 163.53 22.9963C163.477 22.9096 163.424 22.8178 163.364 22.7311C163.351 22.7413 163.344 22.7566 163.337 22.7668C162.212 21.5126 162.106 21.5839 161.966 21.6094C161.893 21.6247 161.82 21.6247 161.593 21.4412C161.374 21.2576 161.021 20.8905 160.328 20.1971C159.689 19.1366 158.697 19.6617 157.273 18.3922C156.973 17.8313 156.687 17.2501 156.341 16.7045C155.695 16.108 155.136 15.6644 154.597 15.2922C154.044 14.9353 153.498 14.6549 152.912 14.354C152.32 14.0532 151.688 13.7269 150.882 13.3445C150.07 12.9621 149.171 12.4369 147.953 11.8251C145.856 10.3975 145.004 9.41854 147.008 9.69897C144.331 9.2197 145.703 9.5817 142.554 8.51608C142.261 8.0827 142.607 8.17447 143.413 8.26625C143.107 8.0827 142.847 7.93993 142.627 7.82266C142.401 7.71559 142.208 7.64421 142.048 7.58303C141.722 7.46576 141.509 7.43007 141.316 7.40967C140.923 7.36379 140.59 7.38418 139.565 6.99158C138.68 7.21083 137.595 7.64421 136.909 7.46066C137.155 7.58303 137.382 7.73599 137.615 7.87875C136.483 7.60342 135.271 7.37398 134.086 7.02727C133.487 6.86412 132.888 6.66527 132.276 6.47662C131.656 6.30327 131.037 6.10442 130.412 5.88518L130.611 5.67613C129.666 5.48748 128.734 5.28863 127.789 5.11018L127.722 4.77367L123.655 4.08535L124.181 4.274C123.941 4.23831 123.568 4.18222 123.109 4.11084C122.649 4.05476 122.11 3.98848 121.544 3.91709C120.413 3.76923 119.188 3.57039 118.302 3.37664L118.402 3.20838C115.899 2.69852 113.536 2.47417 111.073 2.50987C109.841 2.50477 108.583 2.50987 107.258 2.58635C105.94 2.65773 104.549 2.65773 103.058 2.72401L103.837 2.34161C101.78 2.05099 103.297 2.90756 100.861 2.81069L100.714 2.3773C98.6108 3.00444 97.9451 2.3926 96.434 2.27533L97.1929 2.79539L94.4102 2.87697C91.348 2.99424 92.4198 2.35691 92.8192 2L90.8221 2.67812L90.3161 2.22434C88.9181 2.96874 88.7717 2.30082 86.2021 3.00953C85.9358 2.85148 86.5749 2.64753 85.6562 2.69852C84.2515 3.1319 82.8868 3.63667 81.5355 4.13634L84.0319 3.34605L83.9253 4.12614C82.6672 4.6513 81.7618 4.79916 80.9297 4.88584C80.0975 4.97252 79.3453 4.99801 78.4399 5.31922C78.846 5.15607 79.2521 4.97762 79.6715 4.82466C76.6425 5.67613 76.3696 5.4161 74.5589 5.65064C75.158 5.65574 76.0567 5.67103 74.8451 6.04323C73.9597 6.31346 74.2526 5.92087 73.3606 6.06873C73.3606 6.32876 72.8413 6.66527 72.0691 6.97119C71.2969 7.28221 70.2584 7.54224 69.2465 7.74618C69.2399 7.6748 69.2465 7.59832 69.3531 7.51675C68.8937 7.74109 68.7007 7.93993 67.7886 8.09289L68.035 7.42497L66.6303 8.41921C65.452 8.62315 64.0474 9.47463 64.0074 9.10243C64.1938 8.99536 64.3869 8.90358 64.5733 8.80161C63.1753 9.22989 61.8239 9.72956 60.4459 10.1884L58.3889 10.8972C57.7099 11.1419 57.0508 11.4223 56.3784 11.6823L55.999 11.3407C55.5929 12.2024 51.5055 12.9417 52.271 13.5026C50.5402 13.834 46.779 16.4496 47.0319 15.333C45.7604 15.9295 44.7353 16.5771 43.75 17.1685C42.7781 17.7803 41.8461 18.3412 40.9407 18.9785C40.0354 19.6159 39.0967 20.2685 38.005 20.9517C37.4657 21.2984 36.8733 21.6349 36.2542 22.0122C35.6484 22.3997 34.996 22.8025 34.277 23.2257C33.0122 23.6183 31.0417 24.7196 29.1511 26.1829C28.1858 26.8967 27.1806 27.6564 26.2353 28.4059C25.3299 29.1911 24.4579 29.9508 23.659 30.6086C23.2995 30.9502 22.9467 31.2816 22.6072 31.613C22.4341 31.7761 22.2677 31.9393 22.0946 32.0974C21.9415 32.2656 21.7817 32.4339 21.6286 32.597C21.0162 33.2599 20.4303 33.8972 19.8578 34.5192C19.292 35.1464 18.7195 35.7429 18.1936 36.3547C17.6943 36.9819 17.195 37.5988 16.7024 38.2208C16.2098 38.8378 15.7105 39.4598 15.2112 40.087C14.6986 40.709 14.2859 41.3922 13.7999 42.0652C12.8679 43.4266 11.8028 44.8287 10.8841 46.4807C9.97876 47.3321 9.10668 48.3621 8.40104 49.5246C7.72867 50.7075 7.12288 51.9872 6.5304 53.2772C6.21087 53.9145 6.02447 54.5977 5.77816 55.2504C5.54516 55.9081 5.30551 56.5607 5.05254 57.1929C4.92605 57.5091 4.79291 57.8201 4.66643 58.1311C4.52663 58.437 4.4068 58.7429 4.30029 59.0489C4.08061 59.6556 3.8343 60.2368 3.56136 60.7875L3.67453 62.1182C3.45484 62.4752 3.25513 62.8626 3.06873 63.2756C2.88234 63.6886 2.76251 64.1373 2.62937 64.6013C2.50288 65.0653 2.3764 65.5547 2.26989 66.0544C2.19 66.5592 2.10346 67.0741 2.01692 67.5993C1.82387 68.6496 1.76395 69.7509 1.58421 70.8471C1.47104 71.9485 1.27133 73.0549 1.05165 74.1409C1.26467 75.2167 1.32459 75.7724 1.34456 76.0172C1.37119 75.8183 1.4777 75.5175 1.81055 75.4257C1.55758 76.6647 1.97698 79.1528 1.32459 78.9999L1.1981 78.6889C0.858592 78.6073 1.01836 79.5506 1.21142 80.6875C1.41778 81.8195 1.72401 83.1349 1.54427 83.8538C1.72401 83.5785 1.93704 83.3032 2.13009 83.0329C2.18335 83.813 2.3298 84.588 2.42966 85.363L2.17669 84.7563C3.9275 89.6969 5.09248 93.2251 6.43721 96.6871C6.78337 97.5488 7.12954 98.4054 7.55559 99.262C7.76196 99.6902 7.97499 100.124 8.19467 100.557C8.44098 100.985 8.68729 101.419 8.94026 101.862C9.96545 103.626 11.3301 105.442 13.1741 107.374C11.6563 106.589 14.7785 108.827 14.1394 109.266C14.9449 111.749 17.5611 112.921 19.3785 114.308C19.4118 114.288 19.4717 114.283 19.6115 114.344C20.4836 115.277 21.4688 116.144 22.4075 117.041C21.1293 116.526 21.8217 116.893 22.5539 117.25C23.3062 117.597 24.0851 117.943 22.9134 117.49C24.7308 119.264 26.9676 121.008 29.4706 122.69C31.987 124.363 34.8362 125.908 37.8785 127.31C40.9074 128.707 44.1827 129.925 47.5046 130.894C49.1689 131.373 50.8065 131.904 52.4907 132.266C54.1616 132.668 55.8059 133.102 57.4702 133.392L56.951 133.086C58.6285 133.387 60.5125 133.729 62.3232 133.897C64.1273 134.101 65.8115 134.361 67.083 134.596C68.3545 134.856 69.7924 134.851 71.024 134.738C72.2555 134.601 73.2807 134.407 73.78 134.407C74.4856 134.341 75.178 134.336 75.7904 134.371C76.4029 134.381 76.9488 134.432 77.3681 134.494C78.2069 134.616 78.5531 134.784 77.9473 134.774C79.4585 134.708 80.9164 134.509 82.4941 134.254C84.0785 134.014 85.8026 133.867 87.873 133.836C88.2458 133.979 89.1312 133.953 90.2496 133.846C91.368 133.744 92.706 133.484 94.0041 133.265C94.6499 133.153 95.2889 133.046 95.8814 132.944C96.4739 132.831 97.0198 132.73 97.4858 132.663C98.4244 132.52 99.0635 132.495 99.1434 132.684L99.17 132.612C104.502 132.383 109.056 130.608 114.628 129.874C114.628 129.874 114.548 129.951 114.381 130.043C116.092 129.283 117.743 128.436 119.407 127.641C121.065 126.825 122.683 125.979 124.307 125.153L120.186 123.45C118.515 123.516 116.845 123.526 115.18 123.552C113.523 123.588 111.865 123.567 110.214 123.552C102.019 125.484 93.6779 126.876 85.2967 127.616C78.5664 127.769 71.9027 127.396 65.5452 126.377L62.6228 126.035L59.7536 125.546L58.3156 125.301L56.911 124.98L54.1017 124.342L51.3723 123.552L50.001 123.159L48.6829 122.706L47.3648 122.247L46.08 121.737C45.6539 121.563 45.2146 121.405 44.7952 121.222L43.5436 120.661C36.8666 117.663 30.9818 113.548 26.2153 108.735C25.3632 108.144 24.4579 107.573 23.6257 106.946C23.1198 106.12 22.5473 105.294 22.0014 104.432C21.4156 103.586 20.8697 102.698 20.2706 101.811C19.1322 100.017 17.9273 98.1606 16.9088 96.218L16.5093 95.494L16.1499 94.7598C15.9102 94.2653 15.6572 93.7809 15.4375 93.2812C15.0182 92.2819 14.5721 91.2927 14.2459 90.2832C13.527 88.2794 13.0876 86.2604 12.9145 84.3229L12.2288 84.2413C11.7562 82.0693 12.2422 82.1713 12.2688 81.6257C11.4833 76.578 11.5898 71.4131 12.6616 66.4011C13.8332 61.3789 15.7837 56.4129 18.5397 51.7782C21.2425 47.118 24.8373 42.8198 28.8449 38.9398C29.3441 38.4554 29.8434 37.9659 30.336 37.4815C30.8619 37.0176 31.4078 36.5638 31.9404 36.11C32.4796 35.6562 33.0122 35.2024 33.5447 34.7538L34.3436 34.0807L35.1957 33.4485C36.334 32.6123 37.4591 31.7812 38.5775 30.9553C39.7691 30.1905 40.9474 29.4308 42.119 28.6813C43.1043 28.1765 45.0415 27.116 46.8655 26.0351C47.7642 25.4844 48.7228 25.0102 49.5416 24.6125C50.3605 24.2199 51.0461 23.914 51.4855 23.7866C57.5301 19.8402 65.0992 16.7912 72.5418 14.7008L72.2888 14.8384C73.4205 14.4305 74.5922 14.1042 75.7571 13.7677C75.9236 13.7677 75.9702 13.8187 75.8703 13.885C76.8156 13.5128 77.934 13.1508 79.1789 12.8754C80.4237 12.595 81.7418 12.2636 83.1398 12.0698C85.9091 11.6008 88.8383 11.3152 91.3813 11.0756L91.095 11.1623C98.471 10.2802 105.807 9.9743 112.957 10.4383C120.086 10.9481 127.036 12.1718 133.454 14.298C136.616 15.4197 139.725 16.6586 142.587 18.1882C145.457 19.7076 148.133 21.4514 150.576 23.3889C155.475 27.2638 159.43 31.9342 162.292 37.0839C164.635 41.9735 166.899 47.3474 168.257 53.1446C169.622 58.9265 170.054 65.1213 168.896 71.1225C168.776 71.3927 168.636 72.0096 168.477 72.8866C168.27 73.7585 168.091 74.8955 167.771 76.1854C167.631 76.833 167.478 77.5264 167.278 78.2402C167.092 78.9591 166.906 79.7086 166.666 80.4734C166.553 80.8558 166.44 81.2433 166.326 81.6359C166.207 82.0285 166.053 82.4262 165.92 82.829C165.641 83.6346 165.361 84.4453 165.082 85.261C164.829 86.0819 164.482 86.8824 164.163 87.6778C163.843 88.4732 163.524 89.2584 163.218 90.0232C162.578 91.5477 161.866 92.9651 161.307 94.2347C161.034 94.872 160.715 95.4482 160.448 95.9835C160.175 96.5189 159.936 96.9981 159.723 97.4162C159.29 98.2575 159.004 98.8541 158.904 99.1192Z"/>
</mask>
<path d="M158.904 99.1192L161.127 96.6871C160.568 97.7782 160.055 98.798 159.51 99.7412C158.937 100.679 158.398 101.556 157.879 102.398C157.612 102.816 157.359 103.224 157.106 103.626C156.833 104.019 156.567 104.406 156.301 104.784C155.768 105.538 155.256 106.273 154.743 106.992C154.25 107.721 153.711 108.419 153.179 109.128C152.646 109.837 152.12 110.555 151.588 111.3C150.516 112.784 149.338 114.339 148.126 116.149L148.279 115.695C147.806 116.164 147.813 116.715 146.582 118.428C145.969 119.284 145.044 120.432 143.506 121.966C142.74 122.736 141.868 123.618 140.777 124.597C139.685 125.576 138.44 126.672 136.982 127.891L136.916 127.855C136.576 128.233 136.709 128.299 135.844 128.946C136.549 128.406 137.275 127.865 137.967 127.315C137.115 128.518 136.503 129.65 135.158 131.154C134.792 131.429 134.559 131.46 134.426 131.434L131.064 135.09L129.579 135.952C128.727 137.17 130.092 137.186 126.71 139.822C128.414 139.077 125.625 141.479 126.291 141.3C126.071 141.402 125.618 141.673 125.246 141.882C123.581 143.656 120.433 147.011 119.927 148C119.927 148 121.977 146.511 124.307 144.813C126.637 143.126 129.3 141.254 130.525 140.52C127.922 142.881 129.959 141.214 130.638 140.847L130.651 140.597C132.256 139.21 132.642 139.429 133.48 138.756C133.447 138.741 133.387 138.741 133.334 138.736L133.294 138.858C133.154 138.889 133.154 138.822 133.194 138.72C133.094 138.69 133.094 138.588 133.52 138.195L133.487 138.297C134.046 137.65 135.131 136.61 135.617 136.161L135.95 136.334C136.436 134.912 143.992 129.405 145.363 127.865C146.269 127.218 147.008 126.341 147.747 125.398C148.492 124.454 149.251 123.455 150.19 122.542C152.886 119.468 151.98 121.222 153.578 119.789C155.422 117.923 152.853 119.998 153.478 119.198C154.29 118.489 155.049 117.755 155.842 117.031C154.796 118.443 155.589 117.785 155.921 117.592C156.747 116.562 158.012 115.323 158.937 114.165C159.882 113.018 160.595 112.014 160.482 111.54C161.087 110.861 161.547 110.352 161.906 109.949C162.272 109.551 162.552 109.266 162.785 109.026C163.257 108.552 163.55 108.266 163.99 107.649C163.577 108.016 162.898 108.802 162.745 108.756C163.85 107.71 163.044 108.169 162.652 108.618C162.871 108.144 163.457 107.359 164.196 106.441C164.895 105.503 165.741 104.427 166.553 103.382C167.385 102.347 168.084 101.317 168.57 100.516C169.056 99.7157 169.322 99.1396 169.176 98.9764L169.322 99.0223C168.956 98.4003 167.984 98.8999 168.363 97.5131C168.616 97.2582 168.843 96.993 169.082 96.7279L169.469 95.336C170.101 94.5151 170.054 94.9944 170.128 95.0148C170.514 93.9033 171.179 92.6286 171.785 91.2724C172.111 90.5993 172.444 89.911 172.777 89.2278C172.944 88.8862 173.11 88.5446 173.27 88.2081C173.416 87.8665 173.549 87.5248 173.682 87.1934C172.797 88.0245 171.805 88.8097 170.853 89.5949C171.186 89.0646 171.585 88.4324 171.998 87.7696C172.371 87.0966 172.75 86.3929 173.083 85.7352C173.742 84.4198 174.222 83.3032 174.002 83.0227L174.994 81.7532C175.633 80.6519 175.899 79.8769 176.066 79.3313C176.219 78.7807 176.212 78.4543 176.146 78.2045C176.019 77.7099 175.726 77.557 176.092 76.6545C176.485 75.905 176.805 75.1402 177.164 74.3754C177.024 75.1555 176.911 75.9407 176.731 76.7157C177.51 74.4111 177.856 73.4831 178.509 71.617C178.502 71.617 178.502 71.5966 178.495 71.5966C178.449 71.7241 178.409 71.8057 178.369 71.821L178.396 71.4896C178.123 71.1786 177.996 69.9345 178.143 68.2672C178.236 67.0843 178.209 66.0238 178.169 64.7899C178.163 63.5561 178.176 62.1488 178.396 60.2368L177.65 59.3242C177.723 58.3707 177.71 57.4224 177.737 56.4638L178.269 56.423C178.436 57.8201 178.709 59.834 178.835 61.9551C178.868 62.4854 178.902 63.0207 178.935 63.5561C178.948 64.0914 178.955 64.6268 178.968 65.1469C179.008 66.1921 178.948 67.2016 178.922 68.1041L179.161 68.1754C179.208 67.1047 179.214 65.9575 179.148 64.9021C179.128 64.3769 179.101 63.8722 179.081 63.4082C179.048 62.9493 179.028 62.5312 179.028 62.1743C179.068 61.8276 179.214 61.2107 179.388 60.8334C179.554 60.4561 179.774 60.3235 180 60.966L179.374 59.6556C179.035 56.0712 178.675 54.2765 178.369 52.441C178.209 51.5232 178.076 50.5902 177.843 49.4277C177.637 48.2601 177.344 46.858 176.871 44.9919L176.838 45.6751C176.186 44.2526 175.52 42.8555 175.753 42.361C174.967 40.1634 173.975 37.9659 173.11 35.9367C172.178 33.9176 171.319 32.0821 170.693 30.6238L169.728 30.272C169.435 29.8387 169.289 29.2064 169.036 28.6813C168.783 28.1561 168.47 27.7278 167.931 27.6972L167.112 26.8559L166.247 26.0402C165.341 24.893 164.416 24.3984 163.537 23.0014C163.537 22.9963 163.53 22.9963 163.53 22.9963C163.477 22.9096 163.424 22.8178 163.364 22.7311C163.351 22.7413 163.344 22.7566 163.337 22.7668C162.212 21.5126 162.106 21.5839 161.966 21.6094C161.893 21.6247 161.82 21.6247 161.593 21.4412C161.374 21.2576 161.021 20.8905 160.328 20.1971C159.689 19.1366 158.697 19.6617 157.273 18.3922C156.973 17.8313 156.687 17.2501 156.341 16.7045C155.695 16.108 155.136 15.6644 154.597 15.2922C154.044 14.9353 153.498 14.6549 152.912 14.354C152.32 14.0532 151.688 13.7269 150.882 13.3445C150.07 12.9621 149.171 12.4369 147.953 11.8251C145.856 10.3975 145.004 9.41854 147.008 9.69897C144.331 9.2197 145.703 9.5817 142.554 8.51608C142.261 8.0827 142.607 8.17447 143.413 8.26625C143.107 8.0827 142.847 7.93993 142.627 7.82266C142.401 7.71559 142.208 7.64421 142.048 7.58303C141.722 7.46576 141.509 7.43007 141.316 7.40967C140.923 7.36379 140.59 7.38418 139.565 6.99158C138.68 7.21083 137.595 7.64421 136.909 7.46066C137.155 7.58303 137.382 7.73599 137.615 7.87875C136.483 7.60342 135.271 7.37398 134.086 7.02727C133.487 6.86412 132.888 6.66527 132.276 6.47662C131.656 6.30327 131.037 6.10442 130.412 5.88518L130.611 5.67613C129.666 5.48748 128.734 5.28863 127.789 5.11018L127.722 4.77367L123.655 4.08535L124.181 4.274C123.941 4.23831 123.568 4.18222 123.109 4.11084C122.649 4.05476 122.11 3.98848 121.544 3.91709C120.413 3.76923 119.188 3.57039 118.302 3.37664L118.402 3.20838C115.899 2.69852 113.536 2.47417 111.073 2.50987C109.841 2.50477 108.583 2.50987 107.258 2.58635C105.94 2.65773 104.549 2.65773 103.058 2.72401L103.837 2.34161C101.78 2.05099 103.297 2.90756 100.861 2.81069L100.714 2.3773C98.6108 3.00444 97.9451 2.3926 96.434 2.27533L97.1929 2.79539L94.4102 2.87697C91.348 2.99424 92.4198 2.35691 92.8192 2L90.8221 2.67812L90.3161 2.22434C88.9181 2.96874 88.7717 2.30082 86.2021 3.00953C85.9358 2.85148 86.5749 2.64753 85.6562 2.69852C84.2515 3.1319 82.8868 3.63667 81.5355 4.13634L84.0319 3.34605L83.9253 4.12614C82.6672 4.6513 81.7618 4.79916 80.9297 4.88584C80.0975 4.97252 79.3453 4.99801 78.4399 5.31922C78.846 5.15607 79.2521 4.97762 79.6715 4.82466C76.6425 5.67613 76.3696 5.4161 74.5589 5.65064C75.158 5.65574 76.0567 5.67103 74.8451 6.04323C73.9597 6.31346 74.2526 5.92087 73.3606 6.06873C73.3606 6.32876 72.8413 6.66527 72.0691 6.97119C71.2969 7.28221 70.2584 7.54224 69.2465 7.74618C69.2399 7.6748 69.2465 7.59832 69.3531 7.51675C68.8937 7.74109 68.7007 7.93993 67.7886 8.09289L68.035 7.42497L66.6303 8.41921C65.452 8.62315 64.0474 9.47463 64.0074 9.10243C64.1938 8.99536 64.3869 8.90358 64.5733 8.80161C63.1753 9.22989 61.8239 9.72956 60.4459 10.1884L58.3889 10.8972C57.7099 11.1419 57.0508 11.4223 56.3784 11.6823L55.999 11.3407C55.5929 12.2024 51.5055 12.9417 52.271 13.5026C50.5402 13.834 46.779 16.4496 47.0319 15.333C45.7604 15.9295 44.7353 16.5771 43.75 17.1685C42.7781 17.7803 41.8461 18.3412 40.9407 18.9785C40.0354 19.6159 39.0967 20.2685 38.005 20.9517C37.4657 21.2984 36.8733 21.6349 36.2542 22.0122C35.6484 22.3997 34.996 22.8025 34.277 23.2257C33.0122 23.6183 31.0417 24.7196 29.1511 26.1829C28.1858 26.8967 27.1806 27.6564 26.2353 28.4059C25.3299 29.1911 24.4579 29.9508 23.659 30.6086C23.2995 30.9502 22.9467 31.2816 22.6072 31.613C22.4341 31.7761 22.2677 31.9393 22.0946 32.0974C21.9415 32.2656 21.7817 32.4339 21.6286 32.597C21.0162 33.2599 20.4303 33.8972 19.8578 34.5192C19.292 35.1464 18.7195 35.7429 18.1936 36.3547C17.6943 36.9819 17.195 37.5988 16.7024 38.2208C16.2098 38.8378 15.7105 39.4598 15.2112 40.087C14.6986 40.709 14.2859 41.3922 13.7999 42.0652C12.8679 43.4266 11.8028 44.8287 10.8841 46.4807C9.97876 47.3321 9.10668 48.3621 8.40104 49.5246C7.72867 50.7075 7.12288 51.9872 6.5304 53.2772C6.21087 53.9145 6.02447 54.5977 5.77816 55.2504C5.54516 55.9081 5.30551 56.5607 5.05254 57.1929C4.92605 57.5091 4.79291 57.8201 4.66643 58.1311C4.52663 58.437 4.4068 58.7429 4.30029 59.0489C4.08061 59.6556 3.8343 60.2368 3.56136 60.7875L3.67453 62.1182C3.45484 62.4752 3.25513 62.8626 3.06873 63.2756C2.88234 63.6886 2.76251 64.1373 2.62937 64.6013C2.50288 65.0653 2.3764 65.5547 2.26989 66.0544C2.19 66.5592 2.10346 67.0741 2.01692 67.5993C1.82387 68.6496 1.76395 69.7509 1.58421 70.8471C1.47104 71.9485 1.27133 73.0549 1.05165 74.1409C1.26467 75.2167 1.32459 75.7724 1.34456 76.0172C1.37119 75.8183 1.4777 75.5175 1.81055 75.4257C1.55758 76.6647 1.97698 79.1528 1.32459 78.9999L1.1981 78.6889C0.858592 78.6073 1.01836 79.5506 1.21142 80.6875C1.41778 81.8195 1.72401 83.1349 1.54427 83.8538C1.72401 83.5785 1.93704 83.3032 2.13009 83.0329C2.18335 83.813 2.3298 84.588 2.42966 85.363L2.17669 84.7563C3.9275 89.6969 5.09248 93.2251 6.43721 96.6871C6.78337 97.5488 7.12954 98.4054 7.55559 99.262C7.76196 99.6902 7.97499 100.124 8.19467 100.557C8.44098 100.985 8.68729 101.419 8.94026 101.862C9.96545 103.626 11.3301 105.442 13.1741 107.374C11.6563 106.589 14.7785 108.827 14.1394 109.266C14.9449 111.749 17.5611 112.921 19.3785 114.308C19.4118 114.288 19.4717 114.283 19.6115 114.344C20.4836 115.277 21.4688 116.144 22.4075 117.041C21.1293 116.526 21.8217 116.893 22.5539 117.25C23.3062 117.597 24.0851 117.943 22.9134 117.49C24.7308 119.264 26.9676 121.008 29.4706 122.69C31.987 124.363 34.8362 125.908 37.8785 127.31C40.9074 128.707 44.1827 129.925 47.5046 130.894C49.1689 131.373 50.8065 131.904 52.4907 132.266C54.1616 132.668 55.8059 133.102 57.4702 133.392L56.951 133.086C58.6285 133.387 60.5125 133.729 62.3232 133.897C64.1273 134.101 65.8115 134.361 67.083 134.596C68.3545 134.856 69.7924 134.851 71.024 134.738C72.2555 134.601 73.2807 134.407 73.78 134.407C74.4856 134.341 75.178 134.336 75.7904 134.371C76.4029 134.381 76.9488 134.432 77.3681 134.494C78.2069 134.616 78.5531 134.784 77.9473 134.774C79.4585 134.708 80.9164 134.509 82.4941 134.254C84.0785 134.014 85.8026 133.867 87.873 133.836C88.2458 133.979 89.1312 133.953 90.2496 133.846C91.368 133.744 92.706 133.484 94.0041 133.265C94.6499 133.153 95.2889 133.046 95.8814 132.944C96.4739 132.831 97.0198 132.73 97.4858 132.663C98.4244 132.52 99.0635 132.495 99.1434 132.684L99.17 132.612C104.502 132.383 109.056 130.608 114.628 129.874C114.628 129.874 114.548 129.951 114.381 130.043C116.092 129.283 117.743 128.436 119.407 127.641C121.065 126.825 122.683 125.979 124.307 125.153L120.186 123.45C118.515 123.516 116.845 123.526 115.18 123.552C113.523 123.588 111.865 123.567 110.214 123.552C102.019 125.484 93.6779 126.876 85.2967 127.616C78.5664 127.769 71.9027 127.396 65.5452 126.377L62.6228 126.035L59.7536 125.546L58.3156 125.301L56.911 124.98L54.1017 124.342L51.3723 123.552L50.001 123.159L48.6829 122.706L47.3648 122.247L46.08 121.737C45.6539 121.563 45.2146 121.405 44.7952 121.222L43.5436 120.661C36.8666 117.663 30.9818 113.548 26.2153 108.735C25.3632 108.144 24.4579 107.573 23.6257 106.946C23.1198 106.12 22.5473 105.294 22.0014 104.432C21.4156 103.586 20.8697 102.698 20.2706 101.811C19.1322 100.017 17.9273 98.1606 16.9088 96.218L16.5093 95.494L16.1499 94.7598C15.9102 94.2653 15.6572 93.7809 15.4375 93.2812C15.0182 92.2819 14.5721 91.2927 14.2459 90.2832C13.527 88.2794 13.0876 86.2604 12.9145 84.3229L12.2288 84.2413C11.7562 82.0693 12.2422 82.1713 12.2688 81.6257C11.4833 76.578 11.5898 71.4131 12.6616 66.4011C13.8332 61.3789 15.7837 56.4129 18.5397 51.7782C21.2425 47.118 24.8373 42.8198 28.8449 38.9398C29.3441 38.4554 29.8434 37.9659 30.336 37.4815C30.8619 37.0176 31.4078 36.5638 31.9404 36.11C32.4796 35.6562 33.0122 35.2024 33.5447 34.7538L34.3436 34.0807L35.1957 33.4485C36.334 32.6123 37.4591 31.7812 38.5775 30.9553C39.7691 30.1905 40.9474 29.4308 42.119 28.6813C43.1043 28.1765 45.0415 27.116 46.8655 26.0351C47.7642 25.4844 48.7228 25.0102 49.5416 24.6125C50.3605 24.2199 51.0461 23.914 51.4855 23.7866C57.5301 19.8402 65.0992 16.7912 72.5418 14.7008L72.2888 14.8384C73.4205 14.4305 74.5922 14.1042 75.7571 13.7677C75.9236 13.7677 75.9702 13.8187 75.8703 13.885C76.8156 13.5128 77.934 13.1508 79.1789 12.8754C80.4237 12.595 81.7418 12.2636 83.1398 12.0698C85.9091 11.6008 88.8383 11.3152 91.3813 11.0756L91.095 11.1623C98.471 10.2802 105.807 9.9743 112.957 10.4383C120.086 10.9481 127.036 12.1718 133.454 14.298C136.616 15.4197 139.725 16.6586 142.587 18.1882C145.457 19.7076 148.133 21.4514 150.576 23.3889C155.475 27.2638 159.43 31.9342 162.292 37.0839C164.635 41.9735 166.899 47.3474 168.257 53.1446C169.622 58.9265 170.054 65.1213 168.896 71.1225C168.776 71.3927 168.636 72.0096 168.477 72.8866C168.27 73.7585 168.091 74.8955 167.771 76.1854C167.631 76.833 167.478 77.5264 167.278 78.2402C167.092 78.9591 166.906 79.7086 166.666 80.4734C166.553 80.8558 166.44 81.2433 166.326 81.6359C166.207 82.0285 166.053 82.4262 165.92 82.829C165.641 83.6346 165.361 84.4453 165.082 85.261C164.829 86.0819 164.482 86.8824 164.163 87.6778C163.843 88.4732 163.524 89.2584 163.218 90.0232C162.578 91.5477 161.866 92.9651 161.307 94.2347C161.034 94.872 160.715 95.4482 160.448 95.9835C160.175 96.5189 159.936 96.9981 159.723 97.4162C159.29 98.2575 159.004 98.8541 158.904 99.1192Z" fill="#CC0000"/>
<path d="M158.904 99.1192L161.127 96.6871C160.568 97.7782 160.055 98.798 159.51 99.7412C158.937 100.679 158.398 101.556 157.879 102.398C157.612 102.816 157.359 103.224 157.106 103.626C156.833 104.019 156.567 104.406 156.301 104.784C155.768 105.538 155.256 106.273 154.743 106.992C154.25 107.721 153.711 108.419 153.179 109.128C152.646 109.837 152.12 110.555 151.588 111.3C150.516 112.784 149.338 114.339 148.126 116.149L148.279 115.695C147.806 116.164 147.813 116.715 146.582 118.428C145.969 119.284 145.044 120.432 143.506 121.966C142.74 122.736 141.868 123.618 140.777 124.597C139.685 125.576 138.44 126.672 136.982 127.891L136.916 127.855C136.576 128.233 136.709 128.299 135.844 128.946C136.549 128.406 137.275 127.865 137.967 127.315C137.115 128.518 136.503 129.65 135.158 131.154C134.792 131.429 134.559 131.46 134.426 131.434L131.064 135.09L129.579 135.952C128.727 137.17 130.092 137.186 126.71 139.822C128.414 139.077 125.625 141.479 126.291 141.3C126.071 141.402 125.618 141.673 125.246 141.882C123.581 143.656 120.433 147.011 119.927 148C119.927 148 121.977 146.511 124.307 144.813C126.637 143.126 129.3 141.254 130.525 140.52C127.922 142.881 129.959 141.214 130.638 140.847L130.651 140.597C132.256 139.21 132.642 139.429 133.48 138.756C133.447 138.741 133.387 138.741 133.334 138.736L133.294 138.858C133.154 138.889 133.154 138.822 133.194 138.72C133.094 138.69 133.094 138.588 133.52 138.195L133.487 138.297C134.046 137.65 135.131 136.61 135.617 136.161L135.95 136.334C136.436 134.912 143.992 129.405 145.363 127.865C146.269 127.218 147.008 126.341 147.747 125.398C148.492 124.454 149.251 123.455 150.19 122.542C152.886 119.468 151.98 121.222 153.578 119.789C155.422 117.923 152.853 119.998 153.478 119.198C154.29 118.489 155.049 117.755 155.842 117.031C154.796 118.443 155.589 117.785 155.921 117.592C156.747 116.562 158.012 115.323 158.937 114.165C159.882 113.018 160.595 112.014 160.482 111.54C161.087 110.861 161.547 110.352 161.906 109.949C162.272 109.551 162.552 109.266 162.785 109.026C163.257 108.552 163.55 108.266 163.99 107.649C163.577 108.016 162.898 108.802 162.745 108.756C163.85 107.71 163.044 108.169 162.652 108.618C162.871 108.144 163.457 107.359 164.196 106.441C164.895 105.503 165.741 104.427 166.553 103.382C167.385 102.347 168.084 101.317 168.57 100.516C169.056 99.7157 169.322 99.1396 169.176 98.9764L169.322 99.0223C168.956 98.4003 167.984 98.8999 168.363 97.5131C168.616 97.2582 168.843 96.993 169.082 96.7279L169.469 95.336C170.101 94.5151 170.054 94.9944 170.128 95.0148C170.514 93.9033 171.179 92.6286 171.785 91.2724C172.111 90.5993 172.444 89.911 172.777 89.2278C172.944 88.8862 173.11 88.5446 173.27 88.2081C173.416 87.8665 173.549 87.5248 173.682 87.1934C172.797 88.0245 171.805 88.8097 170.853 89.5949C171.186 89.0646 171.585 88.4324 171.998 87.7696C172.371 87.0966 172.75 86.3929 173.083 85.7352C173.742 84.4198 174.222 83.3032 174.002 83.0227L174.994 81.7532C175.633 80.6519 175.899 79.8769 176.066 79.3313C176.219 78.7807 176.212 78.4543 176.146 78.2045C176.019 77.7099 175.726 77.557 176.092 76.6545C176.485 75.905 176.805 75.1402 177.164 74.3754C177.024 75.1555 176.911 75.9407 176.731 76.7157C177.51 74.4111 177.856 73.4831 178.509 71.617C178.502 71.617 178.502 71.5966 178.495 71.5966C178.449 71.7241 178.409 71.8057 178.369 71.821L178.396 71.4896C178.123 71.1786 177.996 69.9345 178.143 68.2672C178.236 67.0843 178.209 66.0238 178.169 64.7899C178.163 63.5561 178.176 62.1488 178.396 60.2368L177.65 59.3242C177.723 58.3707 177.71 57.4224 177.737 56.4638L178.269 56.423C178.436 57.8201 178.709 59.834 178.835 61.9551C178.868 62.4854 178.902 63.0207 178.935 63.5561C178.948 64.0914 178.955 64.6268 178.968 65.1469C179.008 66.1921 178.948 67.2016 178.922 68.1041L179.161 68.1754C179.208 67.1047 179.214 65.9575 179.148 64.9021C179.128 64.3769 179.101 63.8722 179.081 63.4082C179.048 62.9493 179.028 62.5312 179.028 62.1743C179.068 61.8276 179.214 61.2107 179.388 60.8334C179.554 60.4561 179.774 60.3235 180 60.966L179.374 59.6556C179.035 56.0712 178.675 54.2765 178.369 52.441C178.209 51.5232 178.076 50.5902 177.843 49.4277C177.637 48.2601 177.344 46.858 176.871 44.9919L176.838 45.6751C176.186 44.2526 175.52 42.8555 175.753 42.361C174.967 40.1634 173.975 37.9659 173.11 35.9367C172.178 33.9176 171.319 32.0821 170.693 30.6238L169.728 30.272C169.435 29.8387 169.289 29.2064 169.036 28.6813C168.783 28.1561 168.47 27.7278 167.931 27.6972L167.112 26.8559L166.247 26.0402C165.341 24.893 164.416 24.3984 163.537 23.0014C163.537 22.9963 163.53 22.9963 163.53 22.9963C163.477 22.9096 163.424 22.8178 163.364 22.7311C163.351 22.7413 163.344 22.7566 163.337 22.7668C162.212 21.5126 162.106 21.5839 161.966 21.6094C161.893 21.6247 161.82 21.6247 161.593 21.4412C161.374 21.2576 161.021 20.8905 160.328 20.1971C159.689 19.1366 158.697 19.6617 157.273 18.3922C156.973 17.8313 156.687 17.2501 156.341 16.7045C155.695 16.108 155.136 15.6644 154.597 15.2922C154.044 14.9353 153.498 14.6549 152.912 14.354C152.32 14.0532 151.688 13.7269 150.882 13.3445C150.07 12.9621 149.171 12.4369 147.953 11.8251C145.856 10.3975 145.004 9.41854 147.008 9.69897C144.331 9.2197 145.703 9.5817 142.554 8.51608C142.261 8.0827 142.607 8.17447 143.413 8.26625C143.107 8.0827 142.847 7.93993 142.627 7.82266C142.401 7.71559 142.208 7.64421 142.048 7.58303C141.722 7.46576 141.509 7.43007 141.316 7.40967C140.923 7.36379 140.59 7.38418 139.565 6.99158C138.68 7.21083 137.595 7.64421 136.909 7.46066C137.155 7.58303 137.382 7.73599 137.615 7.87875C136.483 7.60342 135.271 7.37398 134.086 7.02727C133.487 6.86412 132.888 6.66527 132.276 6.47662C131.656 6.30327 131.037 6.10442 130.412 5.88518L130.611 5.67613C129.666 5.48748 128.734 5.28863 127.789 5.11018L127.722 4.77367L123.655 4.08535L124.181 4.274C123.941 4.23831 123.568 4.18222 123.109 4.11084C122.649 4.05476 122.11 3.98848 121.544 3.91709C120.413 3.76923 119.188 3.57039 118.302 3.37664L118.402 3.20838C115.899 2.69852 113.536 2.47417 111.073 2.50987C109.841 2.50477 108.583 2.50987 107.258 2.58635C105.94 2.65773 104.549 2.65773 103.058 2.72401L103.837 2.34161C101.78 2.05099 103.297 2.90756 100.861 2.81069L100.714 2.3773C98.6108 3.00444 97.9451 2.3926 96.434 2.27533L97.1929 2.79539L94.4102 2.87697C91.348 2.99424 92.4198 2.35691 92.8192 2L90.8221 2.67812L90.3161 2.22434C88.9181 2.96874 88.7717 2.30082 86.2021 3.00953C85.9358 2.85148 86.5749 2.64753 85.6562 2.69852C84.2515 3.1319 82.8868 3.63667 81.5355 4.13634L84.0319 3.34605L83.9253 4.12614C82.6672 4.6513 81.7618 4.79916 80.9297 4.88584C80.0975 4.97252 79.3453 4.99801 78.4399 5.31922C78.846 5.15607 79.2521 4.97762 79.6715 4.82466C76.6425 5.67613 76.3696 5.4161 74.5589 5.65064C75.158 5.65574 76.0567 5.67103 74.8451 6.04323C73.9597 6.31346 74.2526 5.92087 73.3606 6.06873C73.3606 6.32876 72.8413 6.66527 72.0691 6.97119C71.2969 7.28221 70.2584 7.54224 69.2465 7.74618C69.2399 7.6748 69.2465 7.59832 69.3531 7.51675C68.8937 7.74109 68.7007 7.93993 67.7886 8.09289L68.035 7.42497L66.6303 8.41921C65.452 8.62315 64.0474 9.47463 64.0074 9.10243C64.1938 8.99536 64.3869 8.90358 64.5733 8.80161C63.1753 9.22989 61.8239 9.72956 60.4459 10.1884L58.3889 10.8972C57.7099 11.1419 57.0508 11.4223 56.3784 11.6823L55.999 11.3407C55.5929 12.2024 51.5055 12.9417 52.271 13.5026C50.5402 13.834 46.779 16.4496 47.0319 15.333C45.7604 15.9295 44.7353 16.5771 43.75 17.1685C42.7781 17.7803 41.8461 18.3412 40.9407 18.9785C40.0354 19.6159 39.0967 20.2685 38.005 20.9517C37.4657 21.2984 36.8733 21.6349 36.2542 22.0122C35.6484 22.3997 34.996 22.8025 34.277 23.2257C33.0122 23.6183 31.0417 24.7196 29.1511 26.1829C28.1858 26.8967 27.1806 27.6564 26.2353 28.4059C25.3299 29.1911 24.4579 29.9508 23.659 30.6086C23.2995 30.9502 22.9467 31.2816 22.6072 31.613C22.4341 31.7761 22.2677 31.9393 22.0946 32.0974C21.9415 32.2656 21.7817 32.4339 21.6286 32.597C21.0162 33.2599 20.4303 33.8972 19.8578 34.5192C19.292 35.1464 18.7195 35.7429 18.1936 36.3547C17.6943 36.9819 17.195 37.5988 16.7024 38.2208C16.2098 38.8378 15.7105 39.4598 15.2112 40.087C14.6986 40.709 14.2859 41.3922 13.7999 42.0652C12.8679 43.4266 11.8028 44.8287 10.8841 46.4807C9.97876 47.3321 9.10668 48.3621 8.40104 49.5246C7.72867 50.7075 7.12288 51.9872 6.5304 53.2772C6.21087 53.9145 6.02447 54.5977 5.77816 55.2504C5.54516 55.9081 5.30551 56.5607 5.05254 57.1929C4.92605 57.5091 4.79291 57.8201 4.66643 58.1311C4.52663 58.437 4.4068 58.7429 4.30029 59.0489C4.08061 59.6556 3.8343 60.2368 3.56136 60.7875L3.67453 62.1182C3.45484 62.4752 3.25513 62.8626 3.06873 63.2756C2.88234 63.6886 2.76251 64.1373 2.62937 64.6013C2.50288 65.0653 2.3764 65.5547 2.26989 66.0544C2.19 66.5592 2.10346 67.0741 2.01692 67.5993C1.82387 68.6496 1.76395 69.7509 1.58421 70.8471C1.47104 71.9485 1.27133 73.0549 1.05165 74.1409C1.26467 75.2167 1.32459 75.7724 1.34456 76.0172C1.37119 75.8183 1.4777 75.5175 1.81055 75.4257C1.55758 76.6647 1.97698 79.1528 1.32459 78.9999L1.1981 78.6889C0.858592 78.6073 1.01836 79.5506 1.21142 80.6875C1.41778 81.8195 1.72401 83.1349 1.54427 83.8538C1.72401 83.5785 1.93704 83.3032 2.13009 83.0329C2.18335 83.813 2.3298 84.588 2.42966 85.363L2.17669 84.7563C3.9275 89.6969 5.09248 93.2251 6.43721 96.6871C6.78337 97.5488 7.12954 98.4054 7.55559 99.262C7.76196 99.6902 7.97499 100.124 8.19467 100.557C8.44098 100.985 8.68729 101.419 8.94026 101.862C9.96545 103.626 11.3301 105.442 13.1741 107.374C11.6563 106.589 14.7785 108.827 14.1394 109.266C14.9449 111.749 17.5611 112.921 19.3785 114.308C19.4118 114.288 19.4717 114.283 19.6115 114.344C20.4836 115.277 21.4688 116.144 22.4075 117.041C21.1293 116.526 21.8217 116.893 22.5539 117.25C23.3062 117.597 24.0851 117.943 22.9134 117.49C24.7308 119.264 26.9676 121.008 29.4706 122.69C31.987 124.363 34.8362 125.908 37.8785 127.31C40.9074 128.707 44.1827 129.925 47.5046 130.894C49.1689 131.373 50.8065 131.904 52.4907 132.266C54.1616 132.668 55.8059 133.102 57.4702 133.392L56.951 133.086C58.6285 133.387 60.5125 133.729 62.3232 133.897C64.1273 134.101 65.8115 134.361 67.083 134.596C68.3545 134.856 69.7924 134.851 71.024 134.738C72.2555 134.601 73.2807 134.407 73.78 134.407C74.4856 134.341 75.178 134.336 75.7904 134.371C76.4029 134.381 76.9488 134.432 77.3681 134.494C78.2069 134.616 78.5531 134.784 77.9473 134.774C79.4585 134.708 80.9164 134.509 82.4941 134.254C84.0785 134.014 85.8026 133.867 87.873 133.836C88.2458 133.979 89.1312 133.953 90.2496 133.846C91.368 133.744 92.706 133.484 94.0041 133.265C94.6499 133.153 95.2889 133.046 95.8814 132.944C96.4739 132.831 97.0198 132.73 97.4858 132.663C98.4244 132.52 99.0635 132.495 99.1434 132.684L99.17 132.612C104.502 132.383 109.056 130.608 114.628 129.874C114.628 129.874 114.548 129.951 114.381 130.043C116.092 129.283 117.743 128.436 119.407 127.641C121.065 126.825 122.683 125.979 124.307 125.153L120.186 123.45C118.515 123.516 116.845 123.526 115.18 123.552C113.523 123.588 111.865 123.567 110.214 123.552C102.019 125.484 93.6779 126.876 85.2967 127.616C78.5664 127.769 71.9027 127.396 65.5452 126.377L62.6228 126.035L59.7536 125.546L58.3156 125.301L56.911 124.98L54.1017 124.342L51.3723 123.552L50.001 123.159L48.6829 122.706L47.3648 122.247L46.08 121.737C45.6539 121.563 45.2146 121.405 44.7952 121.222L43.5436 120.661C36.8666 117.663 30.9818 113.548 26.2153 108.735C25.3632 108.144 24.4579 107.573 23.6257 106.946C23.1198 106.12 22.5473 105.294 22.0014 104.432C21.4156 103.586 20.8697 102.698 20.2706 101.811C19.1322 100.017 17.9273 98.1606 16.9088 96.218L16.5093 95.494L16.1499 94.7598C15.9102 94.2653 15.6572 93.7809 15.4375 93.2812C15.0182 92.2819 14.5721 91.2927 14.2459 90.2832C13.527 88.2794 13.0876 86.2604 12.9145 84.3229L12.2288 84.2413C11.7562 82.0693 12.2422 82.1713 12.2688 81.6257C11.4833 76.578 11.5898 71.4131 12.6616 66.4011C13.8332 61.3789 15.7837 56.4129 18.5397 51.7782C21.2425 47.118 24.8373 42.8198 28.8449 38.9398C29.3441 38.4554 29.8434 37.9659 30.336 37.4815C30.8619 37.0176 31.4078 36.5638 31.9404 36.11C32.4796 35.6562 33.0122 35.2024 33.5447 34.7538L34.3436 34.0807L35.1957 33.4485C36.334 32.6123 37.4591 31.7812 38.5775 30.9553C39.7691 30.1905 40.9474 29.4308 42.119 28.6813C43.1043 28.1765 45.0415 27.116 46.8655 26.0351C47.7642 25.4844 48.7228 25.0102 49.5416 24.6125C50.3605 24.2199 51.0461 23.914 51.4855 23.7866C57.5301 19.8402 65.0992 16.7912 72.5418 14.7008L72.2888 14.8384C73.4205 14.4305 74.5922 14.1042 75.7571 13.7677C75.9236 13.7677 75.9702 13.8187 75.8703 13.885C76.8156 13.5128 77.934 13.1508 79.1789 12.8754C80.4237 12.595 81.7418 12.2636 83.1398 12.0698C85.9091 11.6008 88.8383 11.3152 91.3813 11.0756L91.095 11.1623C98.471 10.2802 105.807 9.9743 112.957 10.4383C120.086 10.9481 127.036 12.1718 133.454 14.298C136.616 15.4197 139.725 16.6586 142.587 18.1882C145.457 19.7076 148.133 21.4514 150.576 23.3889C155.475 27.2638 159.43 31.9342 162.292 37.0839C164.635 41.9735 166.899 47.3474 168.257 53.1446C169.622 58.9265 170.054 65.1213 168.896 71.1225C168.776 71.3927 168.636 72.0096 168.477 72.8866C168.27 73.7585 168.091 74.8955 167.771 76.1854C167.631 76.833 167.478 77.5264 167.278 78.2402C167.092 78.9591 166.906 79.7086 166.666 80.4734C166.553 80.8558 166.44 81.2433 166.326 81.6359C166.207 82.0285 166.053 82.4262 165.92 82.829C165.641 83.6346 165.361 84.4453 165.082 85.261C164.829 86.0819 164.482 86.8824 164.163 87.6778C163.843 88.4732 163.524 89.2584 163.218 90.0232C162.578 91.5477 161.866 92.9651 161.307 94.2347C161.034 94.872 160.715 95.4482 160.448 95.9835C160.175 96.5189 159.936 96.9981 159.723 97.4162C159.29 98.2575 159.004 98.8541 158.904 99.1192Z" stroke="#CC0000" stroke-width="2" mask="url(#path-1-outside-1_4635_436426)"/>
</svg>
