<svg width="41" height="40" viewBox="0 0 41 40" fill="none" xmlns="http://www.w3.org/2000/svg">
<path fill-rule="evenodd" clip-rule="evenodd" d="M20.6667 26.6668C16.985 26.6668 14 23.6818 14 20.0002V10.0002C14 6.3185 16.985 3.3335 20.6667 3.3335C24.3483 3.3335 27.3333 6.3185 27.3333 10.0002V20.0002C27.3333 23.6818 24.3483 26.6668 20.6667 26.6668Z" stroke="#CCCCCC" stroke-width="1.5" stroke-linecap="round" stroke-linejoin="round"/>
<path d="M32.3333 18.3335V19.8335C32.3333 26.3685 27.11 31.6668 20.6667 31.6668C14.2233 31.6668 9 26.3685 9 19.8335V18.3335" stroke="#CCCCCC" stroke-width="1.5" stroke-linecap="round" stroke-linejoin="round"/>
<path d="M19.8281 10H21.4948" stroke="#CCCCCC" stroke-width="1.5" stroke-linecap="round" stroke-linejoin="round"/>
<path d="M19 15H22.3333" stroke="#CCCCCC" stroke-width="1.5" stroke-linecap="round" stroke-linejoin="round"/>
<path d="M19.8281 20.0498H21.4948" stroke="#CCCCCC" stroke-width="1.5" stroke-linecap="round" stroke-linejoin="round"/>
<path d="M20.6641 31.6665V36.6665" stroke="#CCCCCC" stroke-width="1.5" stroke-linecap="round" stroke-linejoin="round"/>
<path d="M15.6641 36.6665H25.6641" stroke="#CCCCCC" stroke-width="1.5" stroke-linecap="round" stroke-linejoin="round"/>
</svg>
