<svg xmlns="http://www.w3.org/2000/svg" width="100" height="101" viewBox="0 0 100 101" fill="none">
    <path d="M46.5417 17.1641H16.6615C12.0591 17.1641 8.32812 20.895 8.32812 25.4974V79.6666C8.32812 84.2689 12.0591 87.9999 16.6615 87.9999H83.3281C87.9305 87.9999 91.6615 84.2689 91.6615 79.6666V25.4974C91.6615 20.895 87.9305 17.1641 83.3281 17.1641H79.1615" stroke="black" stroke-width="2" stroke-linecap="round" stroke-linejoin="round"/>
    <path fill-rule="evenodd" clip-rule="evenodd" d="M45.8281 21.332C45.8281 14.4285 51.4246 8.83203 58.3281 8.83203H72.914C74.5709 8.83203 76.16 9.49023 77.3316 10.6619C78.5033 11.8335 79.1615 13.4226 79.1615 15.0795V69.2495C79.1615 72.7013 76.3632 75.4995 72.9115 75.4995H58.3273C51.4242 75.4995 45.8281 81.0956 45.8281 87.9987V21.332Z" stroke="black" stroke-width="2" stroke-linecap="round" stroke-linejoin="round"/>
</svg>