<svg width="49" height="48" viewBox="0 0 49 48" fill="none" xmlns="http://www.w3.org/2000/svg">
<path d="M24.5 41C33.8888 41 41.5 33.3888 41.5 24C41.5 14.6112 33.8888 7 24.5 7C15.1112 7 7.5 14.6112 7.5 24C7.5 33.3888 15.1112 41 24.5 41Z" stroke="white" stroke-width="2" stroke-linecap="round" stroke-linejoin="round"/>
<path d="M24.4959 26.8339C26.0607 26.8339 27.3293 25.5654 27.3293 24.0006C27.3293 22.4358 26.0607 21.1672 24.4959 21.1672C22.9311 21.1672 21.6626 22.4358 21.6626 24.0006C21.6626 25.5654 22.9311 26.8339 24.4959 26.8339Z" stroke="white" stroke-width="2" stroke-linecap="round" stroke-linejoin="round"/>
<path d="M35.6924 20.3657C36.0645 21.5104 36.2704 22.7306 36.2704 23.9999" stroke="white" stroke-width="2" stroke-linecap="round" stroke-linejoin="round"/>
<path d="M28.14 12.8104C26.9953 12.4382 25.7751 12.2305 24.5058 12.2305C18.0061 12.2305 12.7361 17.5005 12.7361 24.0001" stroke="white" stroke-width="2" stroke-linecap="round" stroke-linejoin="round"/>
<path d="M26.5042 21.9984L32.8319 15.6707" stroke="white" stroke-width="2" stroke-linecap="round" stroke-linejoin="round"/>
</svg>
