<svg width="38" height="38" viewBox="0 0 38 38" fill="none" xmlns="http://www.w3.org/2000/svg">
<path fill-rule="evenodd" clip-rule="evenodd" d="M6.17607 24.7777L8.38957 25.1166C10.0236 25.3667 11.1905 26.8297 11.0702 28.478L10.9071 30.7121C10.8596 31.3628 11.2142 31.9756 11.8017 32.259L13.4388 33.0475C14.0262 33.3309 14.7277 33.2248 15.2074 32.7831L16.8525 31.2631C18.0653 30.1421 19.9368 30.1421 21.1512 31.2631L22.7963 32.7831C23.2761 33.2264 23.9759 33.3309 24.5649 33.0475L26.2052 32.2574C26.7911 31.9756 27.1442 31.3644 27.0967 30.7152L26.9336 28.478C26.8132 26.8297 27.9802 25.3667 29.6142 25.1166L31.8277 24.7777C32.4721 24.6796 32.9914 24.1966 33.1371 23.5601L33.5408 21.79C33.6865 21.1535 33.4284 20.4932 32.8901 20.1259L31.0423 18.8608C29.6791 17.9266 29.2627 16.1026 30.086 14.6697L31.2022 12.7286C31.5268 12.1633 31.473 11.4556 31.0661 10.9457L29.934 9.52548C29.5271 9.01565 28.8494 8.80506 28.2256 8.99665L26.0849 9.65215C24.5032 10.1366 22.8169 9.3244 22.2089 7.78698L21.3887 5.70806C21.1481 5.10006 20.5607 4.70106 19.9067 4.70264L18.0922 4.7074C17.4383 4.70898 16.8525 5.11115 16.615 5.72073L15.8154 7.7759C15.2137 9.32281 13.5196 10.1414 11.9331 9.65373L9.70374 8.96973C9.07832 8.77656 8.39749 8.98873 7.99057 9.50173L6.86641 10.9236C6.45949 11.4381 6.41041 12.1475 6.74132 12.7127L7.8829 14.6586C8.72365 16.0931 8.31199 17.9346 6.94082 18.8735L5.11524 20.1243C4.57691 20.4932 4.31882 21.1535 4.46449 21.7884L4.86824 23.5586C5.01232 24.1966 5.53166 24.6796 6.17607 24.7777Z" stroke="white" stroke-width="2" stroke-linecap="round" stroke-linejoin="round"/>
<path fill-rule="evenodd" clip-rule="evenodd" d="M22.0263 15.9715C23.7015 17.6466 23.7015 20.3636 22.0263 22.0388C20.3512 23.714 17.6342 23.714 15.959 22.0388C14.2838 20.3636 14.2838 17.6466 15.959 15.9715C17.6342 14.2963 20.3512 14.2963 22.0263 15.9715Z" stroke="white" stroke-width="2" stroke-linecap="round" stroke-linejoin="round"/>
</svg>
