<svg width="28" height="28" viewBox="0 0 28 28" fill="none" xmlns="http://www.w3.org/2000/svg">
<path d="M14.9231 8.92308C14.9231 8.4125 14.5106 8 14 8C13.4894 8 13.0769 8.4125 13.0769 8.92308V13.0769H8.92308C8.4125 13.0769 8 13.4894 8 14C8 14.5106 8.4125 14.9231 8.92308 14.9231H13.0769V19.0769C13.0769 19.5875 13.4894 20 14 20C14.5106 20 14.9231 19.5875 14.9231 19.0769V14.9231H19.0769C19.5875 14.9231 20 14.5106 20 14C20 13.4894 19.5875 13.0769 19.0769 13.0769H14.9231V8.92308Z" fill="white"/>
<rect x="0.75" y="0.75" width="26.5" height="26.5" rx="5.25" stroke="white" stroke-width="1.5"/>
</svg>
