<svg width="40" height="40" viewBox="0 0 40 40" fill="none" xmlns="http://www.w3.org/2000/svg">
<path d="M28.8893 17.5754C28.0004 18.4643 26.8691 18.8683 25.657 18.8683C24.4449 18.8683 23.3136 18.3835 22.4247 17.5754C21.5358 16.6865 21.1317 15.5552 21.1317 14.3431C21.1317 13.1309 21.6166 11.9996 22.4247 11.1107C23.3136 10.2219 24.4449 9.81781 25.657 9.81781C26.8691 9.81781 28.0004 10.3027 28.8893 11.1107C30.6671 12.8885 30.6671 15.7976 28.8893 17.5754ZM27.1115 12.8885C26.7075 12.4845 26.1418 12.2421 25.657 12.2421C25.0913 12.2421 24.6065 12.4845 24.2025 12.8885C23.3944 13.6966 23.3944 15.0703 24.2025 15.8784C25.0105 16.6865 26.3843 16.6865 27.1924 15.8784C28.0004 14.9895 28.0004 13.6966 27.1115 12.8885Z" fill="#555555"/>
<path d="M38.9902 2.22183C38.9902 11.4339 34.9498 19.2723 28.2428 24.1208L28.162 30.8279C28.162 31.1511 28.0003 31.4744 27.8387 31.636L20.8084 38.6663C20.566 38.9087 20.2428 38.9895 19.9195 38.9895C19.7579 38.9895 19.6771 38.9895 19.5155 38.9087C19.1114 38.7471 18.7882 38.4238 18.7074 37.939L17.4145 28.8077C17.1721 28.8885 16.8488 28.8885 16.6064 28.9693C16.5256 28.9693 16.4448 28.9693 16.364 28.9693C16.0407 28.9693 15.7175 28.8077 15.4751 28.6461L11.2731 24.444C11.0306 24.2016 10.869 23.7976 10.9498 23.3935C11.0306 23.1511 11.0306 22.8279 11.1114 22.5855L1.98013 21.2925C1.49529 21.2117 1.17205 20.8885 1.01043 20.4845C0.84882 20.0804 1.01044 19.5956 1.33367 19.2723L8.36397 12.242C8.60639 11.9996 8.84882 11.9188 9.17205 11.9188L15.8791 11.838C20.7276 5.05011 28.566 1.0097 37.7781 1.0097C38.4246 1.0097 38.9902 1.57536 38.9902 2.22183ZM20.8084 35.1915L25.7377 30.2622L25.8185 25.737C23.9599 26.7875 21.9397 27.5956 19.8387 28.242L20.8084 35.1915ZM9.73771 14.2622L4.80841 19.1915L11.7579 20.1612C12.4044 17.9794 13.2125 16.04 14.263 14.1814L9.73771 14.2622ZM13.5357 23.1511L16.8488 26.4643C25.3337 24.7673 31.7175 19.3531 34.7074 11.9188L28.0811 5.29253C20.6468 8.28243 15.2327 14.6663 13.5357 23.1511ZM30.667 4.40364L35.5963 9.33294C36.0811 7.47435 36.4852 5.53496 36.566 3.43395C34.465 3.51476 32.5256 3.9188 30.667 4.40364Z" fill="#555555"/>
<path d="M14.0278 29.3836L15.7422 31.0975L13.3427 33.4977L11.6282 31.7838L14.0278 29.3836Z" fill="#555555"/>
<path d="M11.5046 26.7736L13.2188 28.4877L9.9618 31.7447L8.24762 30.0305L11.5046 26.7736Z" fill="#555555"/>
<path d="M8.85418 24.2147L10.5684 25.9289L8.1685 28.3287L6.45432 26.6146L8.85418 24.2147Z" fill="#555555"/>
</svg>
