<svg width="49" height="48" viewBox="0 0 49 48" fill="none" xmlns="http://www.w3.org/2000/svg">
<path d="M24.422 26.5169H25.4058C27.0358 26.5169 28.3572 25.1955 28.3572 23.5654V19.6301C28.3572 18.0001 27.0358 16.6787 25.4058 16.6787H17.5352C15.9052 16.6787 14.5837 18.0001 14.5837 19.6301V23.5654C14.5837 24.3482 14.8947 25.0989 15.4482 25.6524C16.0017 26.206 16.7524 26.5169 17.5352 26.5169" stroke="white" stroke-width="2" stroke-linecap="round" stroke-linejoin="round"/>
<path d="M24.914 21.5979H23.9302C22.3002 21.5979 20.9788 22.9193 20.9788 24.5494V28.4847C20.9788 30.1147 22.3002 31.4361 23.9302 31.4361H31.8008C33.4308 31.4361 34.7523 30.1147 34.7523 28.4847V24.5494C34.7523 22.9193 33.4308 21.5979 31.8008 21.5979" stroke="white" stroke-width="2" stroke-linecap="round" stroke-linejoin="round"/>
<path fill-rule="evenodd" clip-rule="evenodd" d="M17.9452 9.04175H31.3908C36.032 9.04175 39.7944 12.8041 39.7944 17.4452V30.8908C39.7944 35.532 36.032 39.2944 31.3908 39.2944H17.9452C13.3041 39.2944 9.54175 35.532 9.54175 30.8908V17.4452C9.54175 12.8041 13.3041 9.04175 17.9452 9.04175Z" stroke="white" stroke-width="2" stroke-linecap="round" stroke-linejoin="round"/>
</svg>
