<svg width="38" height="38" viewBox="0 0 38 38" fill="none" xmlns="http://www.w3.org/2000/svg">
<path d="M5.75 19.0001L8.91667 17.4167" stroke="#FFD748" stroke-width="2" stroke-linecap="round" stroke-linejoin="round"/>
<path d="M7.33325 20.5833V18.2083" stroke="#FFD748" stroke-width="2" stroke-linecap="round" stroke-linejoin="round"/>
<path d="M5.75 25.3333L8.91667 23.75" stroke="#FFD748" stroke-width="2" stroke-linecap="round" stroke-linejoin="round"/>
<path d="M7.33325 26.9167V24.5417" stroke="#FFD748" stroke-width="2" stroke-linecap="round" stroke-linejoin="round"/>
<path d="M5.75 12.6666L8.91667 11.0833" stroke="#FFD748" stroke-width="2" stroke-linecap="round" stroke-linejoin="round"/>
<path d="M7.33325 14.25V11.875" stroke="#FFD748" stroke-width="2" stroke-linecap="round" stroke-linejoin="round"/>
<path d="M13.6667 4.75V33.25" stroke="#FFD748" stroke-width="2" stroke-linecap="round" stroke-linejoin="round"/>
<path d="M20 12.6667H26.3333" stroke="#FFD748" stroke-width="2" stroke-linecap="round" stroke-linejoin="round"/>
<path d="M20 19H26.3333" stroke="#FFD748" stroke-width="2" stroke-linecap="round" stroke-linejoin="round"/>
<path d="M7.33325 30.875V31.6667C7.33325 32.5407 8.04259 33.25 8.91659 33.25H29.4999C31.2495 33.25 32.6666 31.8329 32.6666 30.0833V7.91667C32.6666 6.16708 31.2495 4.75 29.4999 4.75H8.91659C8.04259 4.75 7.33325 5.45933 7.33325 6.33333V7.125" stroke="#FFD748" stroke-width="2" stroke-linecap="round" stroke-linejoin="round"/>
</svg>