<svg width="31" height="31" viewBox="0 0 31 31" fill="none" xmlns="http://www.w3.org/2000/svg">
<path d="M16.5 27.0097L16.5 27.0019L16.5 27.0097ZM16.4994 26.9807C16.4996 26.9855 16.4998 26.9904 16.4999 26.9953C16.4999 26.9969 16.4999 26.9984 16.4998 27C16.4997 27.0032 16.4996 27.0065 16.4995 27.0097C16.4872 27.2913 16.2568 27.4979 15.998 27.5C15.9967 27.5 15.9954 27.5 15.994 27.5C15.73 27.5 15.5026 27.285 15.5 27.0048C15.5 27.0032 15.5 27.0016 15.5 27C15.5 26.9968 15.5 26.9935 15.5001 26.9903C15.5052 26.7172 15.726 26.5021 15.994 26.5C15.9954 26.5 15.9967 26.5 15.998 26.5C16.26 26.5 16.4857 26.7065 16.4994 26.9807Z" fill="#555555" stroke="#555555" stroke-width="4" stroke-linecap="round" stroke-linejoin="round"/>
<path d="M6.23926 15.4999C11.3543 10.8086 19.6455 10.8086 24.7605 15.4999" stroke="#555555" stroke-width="2" stroke-linecap="round" stroke-linejoin="round"/>
<path d="M2.49219 10.2548C9.67594 3.91476 21.3234 3.91476 28.5072 10.2548" stroke="#555555" stroke-width="2" stroke-linecap="round" stroke-linejoin="round"/>
<path d="M9.97412 20.2765C13.0254 17.2415 17.9741 17.2415 21.0254 20.2765" stroke="#555555" stroke-width="2" stroke-linecap="round" stroke-linejoin="round"/>
</svg>
