<svg width="30" height="30" viewBox="0 0 30 30" fill="none" xmlns="http://www.w3.org/2000/svg">
<path d="M15 4.5C20.8123 4.5 25.5 9.18767 25.5 15C25.5 20.8123 20.8123 25.5 15 25.5" stroke="black" stroke-width="1.5" stroke-linecap="round" stroke-linejoin="round"/>
<path d="M15 25.5C9.18767 25.5 4.5 20.8123 4.5 15C4.5 9.18767 9.18767 4.5 15 4.5" stroke="black" stroke-width="1.5" stroke-linecap="round" stroke-linejoin="round"/>
<path fill-rule="evenodd" clip-rule="evenodd" d="M12.8647 5.73638C9.49302 11.3655 9.49302 18.635 12.8647 24.2642C13.8517 25.9127 16.1535 25.9127 17.1405 24.2642C20.5122 18.635 20.5122 11.3655 17.1405 5.73638C16.1524 4.08787 13.8517 4.08787 12.8647 5.73638Z" stroke="black" stroke-width="1.5" stroke-linecap="round" stroke-linejoin="round"/>
<path d="M5.67578 10.1675C11.3831 11.9303 18.6118 11.9303 24.3179 10.1675" stroke="black" stroke-width="1.5" stroke-linecap="round" stroke-linejoin="round"/>
<path d="M24.3219 19.8324C18.6145 18.0695 11.3859 18.0695 5.67969 19.8324" stroke="black" stroke-width="1.5" stroke-linecap="round" stroke-linejoin="round"/>
</svg>
