<svg xmlns="http://www.w3.org/2000/svg" width="50" height="44" viewBox="0 0 50 44" fill="none">
    <g style="mix-blend-mode:multiply">
        <mask id="path-1-outside-1_4693_411266" maskUnits="userSpaceOnUse" x="-1" y="0" width="51" height="44" fill="black">
            <rect fill="white" x="-1" width="51" height="44"/>
            <path d="M43.3429 28.8881L43.9391 28.2148C43.7892 28.5168 43.6517 28.7992 43.5054 29.0603C43.3518 29.32 43.2072 29.5628 43.068 29.7957C42.9966 29.9115 42.9288 30.0244 42.8609 30.1359C42.7877 30.2446 42.7163 30.3519 42.6449 30.4564C42.5021 30.6653 42.3647 30.8686 42.2272 31.0676C42.0951 31.2694 41.9505 31.4628 41.8077 31.659C41.6649 31.8553 41.5239 32.0543 41.3811 32.2604C41.0936 32.6712 40.7777 33.1017 40.4528 33.6028L40.4938 33.4772C40.3671 33.607 40.3689 33.7595 40.0386 34.2338C39.8744 34.4709 39.6263 34.7886 39.2139 35.2134C39.0086 35.4266 38.7748 35.6708 38.482 35.9418C38.1892 36.2129 37.8554 36.5163 37.4645 36.8537L37.4466 36.8438C37.3556 36.9483 37.3913 36.9666 37.1592 37.1459C37.3484 36.9963 37.543 36.8467 37.7287 36.6942C37.5002 37.0273 37.3359 37.3407 36.9753 37.7571C36.8772 37.8334 36.8147 37.8418 36.779 37.8348L35.8775 38.8469L35.4794 39.0855C35.2509 39.4228 35.6169 39.4271 34.71 40.1569C35.167 39.9508 34.419 40.6156 34.5975 40.5662C34.5386 40.5945 34.4172 40.6693 34.3173 40.7271C33.871 41.2184 33.0266 42.1472 32.891 42.4211C32.891 42.4211 33.4408 42.0089 34.0656 41.5388C34.6904 41.0716 35.4044 40.5535 35.7329 40.3502C35.0349 41.0038 35.5812 40.5422 35.7632 40.4406L35.7668 40.3714C36.197 39.9875 36.3006 40.0482 36.5255 39.8618C36.5166 39.8576 36.5005 39.8576 36.4862 39.8562L36.4755 39.8901C36.438 39.8985 36.438 39.8802 36.4487 39.852C36.422 39.8435 36.422 39.8152 36.5362 39.7066L36.5273 39.7348C36.6772 39.5555 36.9682 39.2675 37.0985 39.1433L37.1878 39.1913C37.3181 38.7975 39.3442 37.273 39.712 36.8467C39.9547 36.6674 40.1529 36.4246 40.351 36.1634C40.551 35.9023 40.7545 35.6256 41.0062 35.373C41.7292 34.5218 41.4864 35.0074 41.9148 34.6107C42.4093 34.094 41.7202 34.6686 41.888 34.4469C42.1058 34.2507 42.3093 34.0475 42.5218 33.847C42.2415 34.238 42.4539 34.0559 42.5432 34.0023C42.7645 33.7172 43.1037 33.3741 43.3518 33.0537C43.6053 32.7361 43.7963 32.458 43.766 32.3267C43.9284 32.139 44.0516 31.9978 44.148 31.8863C44.2462 31.7762 44.3212 31.6972 44.3836 31.6308C44.5104 31.4995 44.5889 31.4205 44.7068 31.2497C44.5961 31.3513 44.414 31.5687 44.3729 31.556C44.6693 31.2666 44.4533 31.3937 44.3479 31.5179C44.4069 31.3866 44.5639 31.1692 44.7621 30.9151C44.9495 30.6554 45.1762 30.3576 45.394 30.0682C45.6172 29.7816 45.8046 29.4965 45.9349 29.2749C46.0652 29.0532 46.1366 28.8937 46.0974 28.8486L46.1366 28.8613C46.0385 28.689 45.7778 28.8274 45.8796 28.4434C45.9474 28.3729 46.0081 28.2994 46.0724 28.226L46.1759 27.8407C46.3455 27.6134 46.333 27.7461 46.3526 27.7517C46.4562 27.444 46.6347 27.0911 46.7971 26.7156C46.8846 26.5293 46.9739 26.3387 47.0631 26.1496C47.1078 26.055 47.1524 25.9604 47.1952 25.8673C47.2345 25.7727 47.2702 25.6781 47.3059 25.5864C47.0685 25.8164 46.8025 26.0338 46.5472 26.2512C46.6365 26.1044 46.7436 25.9294 46.8543 25.7459C46.9542 25.5595 47.056 25.3647 47.1452 25.1826C47.322 24.8184 47.4505 24.5093 47.3916 24.4317L47.6576 24.0802C47.8289 23.7753 47.9004 23.5607 47.945 23.4097C47.986 23.2572 47.9843 23.1669 47.9664 23.0977C47.9325 22.9608 47.8539 22.9184 47.9521 22.6686C48.0574 22.4611 48.1431 22.2493 48.2395 22.0376C48.202 22.2536 48.1717 22.471 48.1235 22.6855C48.3324 22.0475 48.4252 21.7906 48.6001 21.2739C48.5983 21.2739 48.5983 21.2683 48.5966 21.2683C48.5841 21.3036 48.5733 21.3262 48.5626 21.3304L48.5698 21.2386C48.4966 21.1525 48.4627 20.8081 48.5019 20.3465C48.5269 20.019 48.5198 19.7254 48.5091 19.3838C48.5073 19.0422 48.5109 18.6526 48.5698 18.1233L48.3698 17.8706C48.3895 17.6066 48.3859 17.344 48.3931 17.0787L48.5359 17.0674C48.5805 17.4542 48.6537 18.0117 48.6876 18.599C48.6965 18.7458 48.7055 18.894 48.7144 19.0422C48.7179 19.1904 48.7197 19.3386 48.7233 19.4826C48.734 19.772 48.7179 20.0515 48.7108 20.3013L48.7751 20.3211C48.7876 20.0247 48.7893 19.7071 48.7715 19.4149C48.7661 19.2695 48.759 19.1297 48.7537 19.0013C48.7447 18.8742 48.7394 18.7585 48.7394 18.6597C48.7501 18.5637 48.7894 18.3929 48.8358 18.2884C48.8804 18.1839 48.9393 18.1472 49 18.3251L48.8322 17.9623C48.7412 16.97 48.6448 16.4731 48.5626 15.9649C48.5198 15.7108 48.4841 15.4525 48.4216 15.1307C48.3663 14.8074 48.2877 14.4192 48.161 13.9026L48.1521 14.0917C47.9771 13.6979 47.7986 13.3111 47.8611 13.1742C47.6504 12.5658 47.3845 11.9574 47.1524 11.3956C46.9025 10.8366 46.6722 10.3284 46.5044 9.9247L46.2455 9.8273C46.167 9.70731 46.1277 9.53228 46.0599 9.38688C45.9921 9.24149 45.9081 9.12291 45.7635 9.11444L45.544 8.88153L45.3119 8.65568C45.0691 8.33807 44.821 8.20114 44.5854 7.81436C44.5854 7.81295 44.5836 7.81295 44.5836 7.81295C44.5693 7.78896 44.555 7.76355 44.5389 7.73955C44.5354 7.74237 44.5336 7.74661 44.5318 7.74943C44.2301 7.40218 44.2016 7.42194 44.1641 7.429C44.1444 7.43323 44.1248 7.43323 44.0641 7.38242C44.0052 7.3316 43.9106 7.22996 43.7249 7.03799C43.5536 6.74437 43.2876 6.88977 42.9056 6.53828C42.8252 6.38301 42.7485 6.22208 42.6556 6.07104C42.4825 5.90589 42.3325 5.78308 42.1879 5.68003C42.0398 5.58122 41.8934 5.50358 41.7363 5.4203C41.5774 5.33701 41.4078 5.24667 41.1918 5.1408C40.974 5.03493 40.7331 4.88954 40.4064 4.72015C39.8441 4.3249 39.6156 4.05387 40.1529 4.13151C39.4353 3.99882 39.803 4.09904 38.9586 3.80402C38.8801 3.68403 38.9729 3.70944 39.1889 3.73485C39.1068 3.68403 39.0372 3.64451 38.9783 3.61204C38.9176 3.5824 38.8658 3.56264 38.823 3.5457C38.7355 3.51323 38.6784 3.50335 38.6266 3.4977C38.5213 3.485 38.432 3.49065 38.1571 3.38195C37.9197 3.44265 37.6287 3.56264 37.4448 3.51182C37.5109 3.5457 37.5716 3.58805 37.6341 3.62757C37.3306 3.55134 37.0057 3.48782 36.6879 3.39183C36.5273 3.34666 36.3666 3.29161 36.2024 3.23938C36.0364 3.19139 35.8703 3.13633 35.7025 3.07564L35.7561 3.01776C35.5026 2.96553 35.2527 2.91048 34.9992 2.86107L34.9813 2.76791L33.8906 2.57734L34.0317 2.62957C33.9674 2.61969 33.8674 2.60416 33.7443 2.5844C33.6211 2.56887 33.4765 2.55052 33.3247 2.53076C33.0213 2.48982 32.6928 2.43477 32.4554 2.38113L32.4822 2.33455C31.811 2.19339 31.1772 2.13128 30.5167 2.14116C30.1865 2.13975 29.8491 2.14116 29.4939 2.16233C29.1404 2.1821 28.7673 2.1821 28.3674 2.20045L28.5763 2.09458C28.0247 2.01412 28.4317 2.25126 27.7783 2.22444L27.7391 2.10446C27.175 2.27808 26.9965 2.10869 26.5912 2.07623L26.7947 2.22021L26.0485 2.24279C25.2274 2.27526 25.5148 2.09881 25.6219 2L25.0864 2.18774L24.9507 2.06211C24.5758 2.2682 24.5365 2.08328 23.8475 2.2795C23.7761 2.23574 23.9474 2.17927 23.7011 2.19339C23.3244 2.31337 22.9585 2.45312 22.5961 2.59146L23.2655 2.37266L23.237 2.58864C22.8996 2.73403 22.6568 2.77497 22.4337 2.79896C22.2105 2.82296 22.0088 2.83002 21.766 2.91895C21.8749 2.87378 21.9838 2.82437 22.0963 2.78202C21.284 3.01776 21.2108 2.94577 20.7253 3.0107C20.8859 3.01211 21.1269 3.01635 20.802 3.1194C20.5646 3.19421 20.6432 3.08552 20.404 3.12645C20.404 3.19845 20.2647 3.29161 20.0576 3.37631C19.8506 3.46241 19.5721 3.5344 19.3007 3.59087C19.299 3.57111 19.3007 3.54993 19.3293 3.52735C19.2061 3.58946 19.1544 3.64451 18.9098 3.68686L18.9759 3.50194L18.5992 3.7772C18.2832 3.83366 17.9066 4.0694 17.8958 3.96635C17.9458 3.93671 17.9976 3.9113 18.0476 3.88307C17.6727 4.00164 17.3103 4.13998 16.9408 4.26702L16.3892 4.46324C16.2071 4.53099 16.0304 4.60863 15.8501 4.68062L15.7483 4.58604C15.6394 4.8246 14.5434 5.02929 14.7487 5.18456C14.2845 5.27631 13.2759 6.00046 13.3438 5.69132C13.0028 5.85648 12.7279 6.03575 12.4637 6.1995C12.2031 6.36889 11.9531 6.52417 11.7104 6.70061C11.4676 6.87706 11.2159 7.05775 10.9231 7.2469C10.7785 7.34289 10.6196 7.43606 10.4536 7.54051C10.2912 7.6478 10.1162 7.75931 9.92345 7.87647C9.58427 7.98517 9.05587 8.29007 8.54889 8.6952C8.29005 8.89282 8.02049 9.10315 7.76701 9.31066C7.52423 9.52804 7.29038 9.73837 7.07616 9.92047C6.97976 10.015 6.88515 10.1068 6.79411 10.1986C6.74769 10.2437 6.70307 10.2889 6.65665 10.3327C6.6156 10.3792 6.57275 10.4258 6.53169 10.471C6.36746 10.6545 6.21037 10.8309 6.05685 11.0032C5.90511 11.1768 5.75159 11.3419 5.61057 11.5113C5.47668 11.685 5.3428 11.8558 5.2107 12.028C5.0786 12.1988 4.94471 12.371 4.81083 12.5446C4.67337 12.7168 4.56269 12.906 4.43238 13.0923C4.18246 13.4692 3.89684 13.8574 3.65049 14.3148C3.40771 14.5505 3.17386 14.8356 2.98464 15.1575C2.80434 15.485 2.64189 15.8393 2.48301 16.1964C2.39733 16.3729 2.34734 16.562 2.28129 16.7427C2.21881 16.9248 2.15455 17.1055 2.08671 17.2805C2.0528 17.368 2.01709 17.4542 1.98318 17.5403C1.94569 17.625 1.91356 17.7097 1.88499 17.7943C1.82608 17.9623 1.76003 18.1233 1.68684 18.2757L1.71719 18.6441C1.65828 18.7429 1.60473 18.8502 1.55474 18.9646C1.50476 19.0789 1.47263 19.2031 1.43693 19.3316C1.40301 19.46 1.36909 19.5955 1.34053 19.7339C1.31911 19.8736 1.2959 20.0162 1.27269 20.1616C1.22092 20.4524 1.20486 20.7573 1.15666 21.0608C1.12631 21.3657 1.07276 21.672 1.01385 21.9727C1.07097 22.2705 1.08704 22.4244 1.0924 22.4921C1.09954 22.4371 1.1281 22.3538 1.21735 22.3284C1.14952 22.6714 1.26198 23.3603 1.08704 23.3179L1.05312 23.2318C0.96208 23.2092 1.00492 23.4704 1.05669 23.7852C1.11203 24.0985 1.19415 24.4627 1.14595 24.6618C1.19415 24.5855 1.25127 24.5093 1.30304 24.4345C1.31732 24.6505 1.35659 24.865 1.38337 25.0796L1.31554 24.9116C1.78503 26.2795 2.09742 27.2563 2.45802 28.2148C2.55085 28.4533 2.64368 28.6905 2.75792 28.9276C2.81326 29.0462 2.87039 29.1662 2.9293 29.2862C2.99535 29.4047 3.0614 29.5247 3.12923 29.6475C3.40414 30.1359 3.77009 30.6385 4.26458 31.1735C3.85757 30.9561 4.69479 31.5758 4.52342 31.6972C4.73942 32.3846 5.44098 32.7093 5.92832 33.0932C5.93724 33.0876 5.95331 33.0862 5.9908 33.1031C6.22465 33.3614 6.48885 33.6014 6.74055 33.8498C6.39781 33.7073 6.58346 33.8089 6.77983 33.9077C6.98155 34.0037 7.19041 34.0997 6.87622 33.9741C7.36357 34.4653 7.96337 34.9481 8.63458 35.4139C9.30936 35.8769 10.0734 36.3046 10.8892 36.6928C11.7014 37.0796 12.5797 37.4169 13.4705 37.6851C13.9168 37.8178 14.3559 37.9646 14.8076 38.0649C15.2556 38.1764 15.6966 38.2964 16.1428 38.3768L16.0036 38.2921C16.4535 38.3754 16.9587 38.47 17.4442 38.5166C17.928 38.573 18.3796 38.645 18.7206 38.71C19.0615 38.782 19.4471 38.7805 19.7774 38.7495C20.1076 38.7114 20.3825 38.6577 20.5164 38.6577C20.7056 38.6394 20.8913 38.638 21.0555 38.6479C21.2198 38.6507 21.3661 38.6648 21.4786 38.6817C21.7035 38.7156 21.7964 38.7622 21.6339 38.7594C22.0391 38.741 22.4301 38.686 22.8532 38.6154C23.278 38.549 23.7404 38.5081 24.2955 38.4996C24.3955 38.5392 24.6329 38.5321 24.9328 38.5025C25.2327 38.4742 25.5916 38.4022 25.9397 38.3415C26.1128 38.3105 26.2842 38.2808 26.4431 38.2526C26.6019 38.2216 26.7483 38.1933 26.8733 38.175C27.125 38.1355 27.2964 38.1284 27.3178 38.1806L27.3249 38.1609C28.7548 38.0973 29.9758 37.6061 31.47 37.4028C31.47 37.4028 31.4486 37.424 31.4039 37.4494C31.8627 37.2391 32.3054 37.0048 32.7517 36.7845C33.1962 36.5587 33.63 36.3244 34.0656 36.0957L32.9606 35.6242C32.5125 35.6426 32.0644 35.6454 31.6182 35.6525C31.1737 35.6623 30.7292 35.6567 30.2865 35.6525C28.089 36.1874 25.8522 36.5728 23.6047 36.7775C21.7999 36.8198 20.013 36.7168 18.3082 36.4345L17.5245 36.3399L16.7551 36.2044L16.3696 36.1366L15.9929 36.0477L15.2396 35.8712L14.5077 35.6525L14.1399 35.5438L13.7865 35.4181L13.433 35.2911L13.0885 35.1499C12.9742 35.1019 12.8564 35.0582 12.744 35.0074L12.4083 34.8521C10.6179 34.0221 9.03981 32.8829 7.76165 31.5504C7.53315 31.3866 7.29038 31.2285 7.06723 31.0549C6.93156 30.8262 6.77804 30.5975 6.63166 30.359C6.47457 30.1246 6.32819 29.879 6.16753 29.6334C5.86227 29.1365 5.53916 28.6227 5.26603 28.0849L5.15893 27.8844L5.06253 27.6812C4.99827 27.5442 4.93043 27.4101 4.87152 27.2718C4.75906 26.9951 4.63945 26.7213 4.55198 26.4418C4.35919 25.887 4.24137 25.328 4.19496 24.7916L4.01109 24.769C3.88434 24.1677 4.01466 24.1959 4.0218 24.0449C3.81115 22.6474 3.83971 21.2175 4.12712 19.8299C4.4413 18.4394 4.96435 17.0646 5.70339 15.7814C6.42816 14.4912 7.39213 13.3012 8.46678 12.227C8.60066 12.0929 8.73455 11.9574 8.86665 11.8233C9.00767 11.6948 9.15405 11.5692 9.29686 11.4436C9.44146 11.3179 9.58427 11.1923 9.72708 11.0681L9.9413 10.8818L10.1698 10.7067C10.4751 10.4752 10.7767 10.2451 11.0766 10.0165C11.3962 9.80471 11.7121 9.59439 12.0263 9.38688C12.2905 9.24713 12.81 8.95352 13.2991 8.65426C13.5401 8.50181 13.7972 8.37053 14.0168 8.26043C14.2363 8.15174 14.4202 8.06704 14.538 8.03175C16.1589 6.93917 18.1886 6.09504 20.1844 5.51629L20.1166 5.5544C20.42 5.44147 20.7342 5.35113 21.0466 5.25796C21.0912 5.25796 21.1037 5.27208 21.077 5.29043C21.3304 5.18738 21.6303 5.08716 21.9642 5.01093C22.298 4.9333 22.6514 4.84154 23.0263 4.7879C23.7689 4.65804 24.5544 4.57899 25.2363 4.51264L25.1596 4.53664C27.1375 4.29243 29.1047 4.20774 31.0219 4.33619C32.9338 4.47735 34.7975 4.81613 36.5183 5.40477C37.3663 5.71532 38.1999 6.05834 38.9676 6.48182C39.7369 6.90247 40.4546 7.38524 41.1097 7.92165C42.4236 8.99446 43.4839 10.2875 44.2515 11.7132C44.8799 13.0669 45.4869 14.5547 45.851 16.1597C46.217 17.7605 46.333 19.4756 46.0224 21.137C45.9903 21.2118 45.9528 21.3826 45.9099 21.6254C45.8546 21.8668 45.8064 22.1816 45.7207 22.5387C45.6832 22.718 45.6422 22.91 45.5886 23.1076C45.5386 23.3066 45.4886 23.5141 45.4244 23.7259C45.394 23.8317 45.3637 23.939 45.3333 24.0477C45.3012 24.1564 45.2601 24.2665 45.2244 24.378C45.1495 24.6011 45.0745 24.8255 44.9995 25.0514C44.9317 25.2786 44.8389 25.5002 44.7532 25.7205C44.6675 25.9407 44.5818 26.1581 44.4997 26.3698C44.3283 26.7919 44.1373 27.1843 43.9873 27.5358C43.9142 27.7122 43.8285 27.8717 43.7571 28.02C43.6839 28.1682 43.6196 28.3009 43.5625 28.4166C43.4464 28.6495 43.3697 28.8147 43.3429 28.8881Z"/>
        </mask>
        <path d="M43.3429 28.8881L43.9391 28.2148C43.7892 28.5168 43.6517 28.7992 43.5054 29.0603C43.3518 29.32 43.2072 29.5628 43.068 29.7957C42.9966 29.9115 42.9288 30.0244 42.8609 30.1359C42.7877 30.2446 42.7163 30.3519 42.6449 30.4564C42.5021 30.6653 42.3647 30.8686 42.2272 31.0676C42.0951 31.2694 41.9505 31.4628 41.8077 31.659C41.6649 31.8553 41.5239 32.0543 41.3811 32.2604C41.0936 32.6712 40.7777 33.1017 40.4528 33.6028L40.4938 33.4772C40.3671 33.607 40.3689 33.7595 40.0386 34.2338C39.8744 34.4709 39.6263 34.7886 39.2139 35.2134C39.0086 35.4266 38.7748 35.6708 38.482 35.9418C38.1892 36.2129 37.8554 36.5163 37.4645 36.8537L37.4466 36.8438C37.3556 36.9483 37.3913 36.9666 37.1592 37.1459C37.3484 36.9963 37.543 36.8467 37.7287 36.6942C37.5002 37.0273 37.3359 37.3407 36.9753 37.7571C36.8772 37.8334 36.8147 37.8418 36.779 37.8348L35.8775 38.8469L35.4794 39.0855C35.2509 39.4228 35.6169 39.4271 34.71 40.1569C35.167 39.9508 34.419 40.6156 34.5975 40.5662C34.5386 40.5945 34.4172 40.6693 34.3173 40.7271C33.871 41.2184 33.0266 42.1472 32.891 42.4211C32.891 42.4211 33.4408 42.0089 34.0656 41.5388C34.6904 41.0716 35.4044 40.5535 35.7329 40.3502C35.0349 41.0038 35.5812 40.5422 35.7632 40.4406L35.7668 40.3714C36.197 39.9875 36.3006 40.0482 36.5255 39.8618C36.5166 39.8576 36.5005 39.8576 36.4862 39.8562L36.4755 39.8901C36.438 39.8985 36.438 39.8802 36.4487 39.852C36.422 39.8435 36.422 39.8152 36.5362 39.7066L36.5273 39.7348C36.6772 39.5555 36.9682 39.2675 37.0985 39.1433L37.1878 39.1913C37.3181 38.7975 39.3442 37.273 39.712 36.8467C39.9547 36.6674 40.1529 36.4246 40.351 36.1634C40.551 35.9023 40.7545 35.6256 41.0062 35.373C41.7292 34.5218 41.4864 35.0074 41.9148 34.6107C42.4093 34.094 41.7202 34.6686 41.888 34.4469C42.1058 34.2507 42.3093 34.0475 42.5218 33.847C42.2415 34.238 42.4539 34.0559 42.5432 34.0023C42.7645 33.7172 43.1037 33.3741 43.3518 33.0537C43.6053 32.7361 43.7963 32.458 43.766 32.3267C43.9284 32.139 44.0516 31.9978 44.148 31.8863C44.2462 31.7762 44.3212 31.6972 44.3836 31.6308C44.5104 31.4995 44.5889 31.4205 44.7068 31.2497C44.5961 31.3513 44.414 31.5687 44.3729 31.556C44.6693 31.2666 44.4533 31.3937 44.3479 31.5179C44.4069 31.3866 44.5639 31.1692 44.7621 30.9151C44.9495 30.6554 45.1762 30.3576 45.394 30.0682C45.6172 29.7816 45.8046 29.4965 45.9349 29.2749C46.0652 29.0532 46.1366 28.8937 46.0974 28.8486L46.1366 28.8613C46.0385 28.689 45.7778 28.8274 45.8796 28.4434C45.9474 28.3729 46.0081 28.2994 46.0724 28.226L46.1759 27.8407C46.3455 27.6134 46.333 27.7461 46.3526 27.7517C46.4562 27.444 46.6347 27.0911 46.7971 26.7156C46.8846 26.5293 46.9739 26.3387 47.0631 26.1496C47.1078 26.055 47.1524 25.9604 47.1952 25.8673C47.2345 25.7727 47.2702 25.6781 47.3059 25.5864C47.0685 25.8164 46.8025 26.0338 46.5472 26.2512C46.6365 26.1044 46.7436 25.9294 46.8543 25.7459C46.9542 25.5595 47.056 25.3647 47.1452 25.1826C47.322 24.8184 47.4505 24.5093 47.3916 24.4317L47.6576 24.0802C47.8289 23.7753 47.9004 23.5607 47.945 23.4097C47.986 23.2572 47.9843 23.1669 47.9664 23.0977C47.9325 22.9608 47.8539 22.9184 47.9521 22.6686C48.0574 22.4611 48.1431 22.2493 48.2395 22.0376C48.202 22.2536 48.1717 22.471 48.1235 22.6855C48.3324 22.0475 48.4252 21.7906 48.6001 21.2739C48.5983 21.2739 48.5983 21.2683 48.5966 21.2683C48.5841 21.3036 48.5733 21.3262 48.5626 21.3304L48.5698 21.2386C48.4966 21.1525 48.4627 20.8081 48.5019 20.3465C48.5269 20.019 48.5198 19.7254 48.5091 19.3838C48.5073 19.0422 48.5109 18.6526 48.5698 18.1233L48.3698 17.8706C48.3895 17.6066 48.3859 17.344 48.3931 17.0787L48.5359 17.0674C48.5805 17.4542 48.6537 18.0117 48.6876 18.599C48.6965 18.7458 48.7055 18.894 48.7144 19.0422C48.7179 19.1904 48.7197 19.3386 48.7233 19.4826C48.734 19.772 48.7179 20.0515 48.7108 20.3013L48.7751 20.3211C48.7876 20.0247 48.7893 19.7071 48.7715 19.4149C48.7661 19.2695 48.759 19.1297 48.7537 19.0013C48.7447 18.8742 48.7394 18.7585 48.7394 18.6597C48.7501 18.5637 48.7894 18.3929 48.8358 18.2884C48.8804 18.1839 48.9393 18.1472 49 18.3251L48.8322 17.9623C48.7412 16.97 48.6448 16.4731 48.5626 15.9649C48.5198 15.7108 48.4841 15.4525 48.4216 15.1307C48.3663 14.8074 48.2877 14.4192 48.161 13.9026L48.1521 14.0917C47.9771 13.6979 47.7986 13.3111 47.8611 13.1742C47.6504 12.5658 47.3845 11.9574 47.1524 11.3956C46.9025 10.8366 46.6722 10.3284 46.5044 9.9247L46.2455 9.8273C46.167 9.70731 46.1277 9.53228 46.0599 9.38688C45.9921 9.24149 45.9081 9.12291 45.7635 9.11444L45.544 8.88153L45.3119 8.65568C45.0691 8.33807 44.821 8.20114 44.5854 7.81436C44.5854 7.81295 44.5836 7.81295 44.5836 7.81295C44.5693 7.78896 44.555 7.76355 44.5389 7.73955C44.5354 7.74237 44.5336 7.74661 44.5318 7.74943C44.2301 7.40218 44.2016 7.42194 44.1641 7.429C44.1444 7.43323 44.1248 7.43323 44.0641 7.38242C44.0052 7.3316 43.9106 7.22996 43.7249 7.03799C43.5536 6.74437 43.2876 6.88977 42.9056 6.53828C42.8252 6.38301 42.7485 6.22208 42.6556 6.07104C42.4825 5.90589 42.3325 5.78308 42.1879 5.68003C42.0398 5.58122 41.8934 5.50358 41.7363 5.4203C41.5774 5.33701 41.4078 5.24667 41.1918 5.1408C40.974 5.03493 40.7331 4.88954 40.4064 4.72015C39.8441 4.3249 39.6156 4.05387 40.1529 4.13151C39.4353 3.99882 39.803 4.09904 38.9586 3.80402C38.8801 3.68403 38.9729 3.70944 39.1889 3.73485C39.1068 3.68403 39.0372 3.64451 38.9783 3.61204C38.9176 3.5824 38.8658 3.56264 38.823 3.5457C38.7355 3.51323 38.6784 3.50335 38.6266 3.4977C38.5213 3.485 38.432 3.49065 38.1571 3.38195C37.9197 3.44265 37.6287 3.56264 37.4448 3.51182C37.5109 3.5457 37.5716 3.58805 37.6341 3.62757C37.3306 3.55134 37.0057 3.48782 36.6879 3.39183C36.5273 3.34666 36.3666 3.29161 36.2024 3.23938C36.0364 3.19139 35.8703 3.13633 35.7025 3.07564L35.7561 3.01776C35.5026 2.96553 35.2527 2.91048 34.9992 2.86107L34.9813 2.76791L33.8906 2.57734L34.0317 2.62957C33.9674 2.61969 33.8674 2.60416 33.7443 2.5844C33.6211 2.56887 33.4765 2.55052 33.3247 2.53076C33.0213 2.48982 32.6928 2.43477 32.4554 2.38113L32.4822 2.33455C31.811 2.19339 31.1772 2.13128 30.5167 2.14116C30.1865 2.13975 29.8491 2.14116 29.4939 2.16233C29.1404 2.1821 28.7673 2.1821 28.3674 2.20045L28.5763 2.09458C28.0247 2.01412 28.4317 2.25126 27.7783 2.22444L27.7391 2.10446C27.175 2.27808 26.9965 2.10869 26.5912 2.07623L26.7947 2.22021L26.0485 2.24279C25.2274 2.27526 25.5148 2.09881 25.6219 2L25.0864 2.18774L24.9507 2.06211C24.5758 2.2682 24.5365 2.08328 23.8475 2.2795C23.7761 2.23574 23.9474 2.17927 23.7011 2.19339C23.3244 2.31337 22.9585 2.45312 22.5961 2.59146L23.2655 2.37266L23.237 2.58864C22.8996 2.73403 22.6568 2.77497 22.4337 2.79896C22.2105 2.82296 22.0088 2.83002 21.766 2.91895C21.8749 2.87378 21.9838 2.82437 22.0963 2.78202C21.284 3.01776 21.2108 2.94577 20.7253 3.0107C20.8859 3.01211 21.1269 3.01635 20.802 3.1194C20.5646 3.19421 20.6432 3.08552 20.404 3.12645C20.404 3.19845 20.2647 3.29161 20.0576 3.37631C19.8506 3.46241 19.5721 3.5344 19.3007 3.59087C19.299 3.57111 19.3007 3.54993 19.3293 3.52735C19.2061 3.58946 19.1544 3.64451 18.9098 3.68686L18.9759 3.50194L18.5992 3.7772C18.2832 3.83366 17.9066 4.0694 17.8958 3.96635C17.9458 3.93671 17.9976 3.9113 18.0476 3.88307C17.6727 4.00164 17.3103 4.13998 16.9408 4.26702L16.3892 4.46324C16.2071 4.53099 16.0304 4.60863 15.8501 4.68062L15.7483 4.58604C15.6394 4.8246 14.5434 5.02929 14.7487 5.18456C14.2845 5.27631 13.2759 6.00046 13.3438 5.69132C13.0028 5.85648 12.7279 6.03575 12.4637 6.1995C12.2031 6.36889 11.9531 6.52417 11.7104 6.70061C11.4676 6.87706 11.2159 7.05775 10.9231 7.2469C10.7785 7.34289 10.6196 7.43606 10.4536 7.54051C10.2912 7.6478 10.1162 7.75931 9.92345 7.87647C9.58427 7.98517 9.05587 8.29007 8.54889 8.6952C8.29005 8.89282 8.02049 9.10315 7.76701 9.31066C7.52423 9.52804 7.29038 9.73837 7.07616 9.92047C6.97976 10.015 6.88515 10.1068 6.79411 10.1986C6.74769 10.2437 6.70307 10.2889 6.65665 10.3327C6.6156 10.3792 6.57275 10.4258 6.53169 10.471C6.36746 10.6545 6.21037 10.8309 6.05685 11.0032C5.90511 11.1768 5.75159 11.3419 5.61057 11.5113C5.47668 11.685 5.3428 11.8558 5.2107 12.028C5.0786 12.1988 4.94471 12.371 4.81083 12.5446C4.67337 12.7168 4.56269 12.906 4.43238 13.0923C4.18246 13.4692 3.89684 13.8574 3.65049 14.3148C3.40771 14.5505 3.17386 14.8356 2.98464 15.1575C2.80434 15.485 2.64189 15.8393 2.48301 16.1964C2.39733 16.3729 2.34734 16.562 2.28129 16.7427C2.21881 16.9248 2.15455 17.1055 2.08671 17.2805C2.0528 17.368 2.01709 17.4542 1.98318 17.5403C1.94569 17.625 1.91356 17.7097 1.88499 17.7943C1.82608 17.9623 1.76003 18.1233 1.68684 18.2757L1.71719 18.6441C1.65828 18.7429 1.60473 18.8502 1.55474 18.9646C1.50476 19.0789 1.47263 19.2031 1.43693 19.3316C1.40301 19.46 1.36909 19.5955 1.34053 19.7339C1.31911 19.8736 1.2959 20.0162 1.27269 20.1616C1.22092 20.4524 1.20486 20.7573 1.15666 21.0608C1.12631 21.3657 1.07276 21.672 1.01385 21.9727C1.07097 22.2705 1.08704 22.4244 1.0924 22.4921C1.09954 22.4371 1.1281 22.3538 1.21735 22.3284C1.14952 22.6714 1.26198 23.3603 1.08704 23.3179L1.05312 23.2318C0.96208 23.2092 1.00492 23.4704 1.05669 23.7852C1.11203 24.0985 1.19415 24.4627 1.14595 24.6618C1.19415 24.5855 1.25127 24.5093 1.30304 24.4345C1.31732 24.6505 1.35659 24.865 1.38337 25.0796L1.31554 24.9116C1.78503 26.2795 2.09742 27.2563 2.45802 28.2148C2.55085 28.4533 2.64368 28.6905 2.75792 28.9276C2.81326 29.0462 2.87039 29.1662 2.9293 29.2862C2.99535 29.4047 3.0614 29.5247 3.12923 29.6475C3.40414 30.1359 3.77009 30.6385 4.26458 31.1735C3.85757 30.9561 4.69479 31.5758 4.52342 31.6972C4.73942 32.3846 5.44098 32.7093 5.92832 33.0932C5.93724 33.0876 5.95331 33.0862 5.9908 33.1031C6.22465 33.3614 6.48885 33.6014 6.74055 33.8498C6.39781 33.7073 6.58346 33.8089 6.77983 33.9077C6.98155 34.0037 7.19041 34.0997 6.87622 33.9741C7.36357 34.4653 7.96337 34.9481 8.63458 35.4139C9.30936 35.8769 10.0734 36.3046 10.8892 36.6928C11.7014 37.0796 12.5797 37.4169 13.4705 37.6851C13.9168 37.8178 14.3559 37.9646 14.8076 38.0649C15.2556 38.1764 15.6966 38.2964 16.1428 38.3768L16.0036 38.2921C16.4535 38.3754 16.9587 38.47 17.4442 38.5166C17.928 38.573 18.3796 38.645 18.7206 38.71C19.0615 38.782 19.4471 38.7805 19.7774 38.7495C20.1076 38.7114 20.3825 38.6577 20.5164 38.6577C20.7056 38.6394 20.8913 38.638 21.0555 38.6479C21.2198 38.6507 21.3661 38.6648 21.4786 38.6817C21.7035 38.7156 21.7964 38.7622 21.6339 38.7594C22.0391 38.741 22.4301 38.686 22.8532 38.6154C23.278 38.549 23.7404 38.5081 24.2955 38.4996C24.3955 38.5392 24.6329 38.5321 24.9328 38.5025C25.2327 38.4742 25.5916 38.4022 25.9397 38.3415C26.1128 38.3105 26.2842 38.2808 26.4431 38.2526C26.6019 38.2216 26.7483 38.1933 26.8733 38.175C27.125 38.1355 27.2964 38.1284 27.3178 38.1806L27.3249 38.1609C28.7548 38.0973 29.9758 37.6061 31.47 37.4028C31.47 37.4028 31.4486 37.424 31.4039 37.4494C31.8627 37.2391 32.3054 37.0048 32.7517 36.7845C33.1962 36.5587 33.63 36.3244 34.0656 36.0957L32.9606 35.6242C32.5125 35.6426 32.0644 35.6454 31.6182 35.6525C31.1737 35.6623 30.7292 35.6567 30.2865 35.6525C28.089 36.1874 25.8522 36.5728 23.6047 36.7775C21.7999 36.8198 20.013 36.7168 18.3082 36.4345L17.5245 36.3399L16.7551 36.2044L16.3696 36.1366L15.9929 36.0477L15.2396 35.8712L14.5077 35.6525L14.1399 35.5438L13.7865 35.4181L13.433 35.2911L13.0885 35.1499C12.9742 35.1019 12.8564 35.0582 12.744 35.0074L12.4083 34.8521C10.6179 34.0221 9.03981 32.8829 7.76165 31.5504C7.53315 31.3866 7.29038 31.2285 7.06723 31.0549C6.93156 30.8262 6.77804 30.5975 6.63166 30.359C6.47457 30.1246 6.32819 29.879 6.16753 29.6334C5.86227 29.1365 5.53916 28.6227 5.26603 28.0849L5.15893 27.8844L5.06253 27.6812C4.99827 27.5442 4.93043 27.4101 4.87152 27.2718C4.75906 26.9951 4.63945 26.7213 4.55198 26.4418C4.35919 25.887 4.24137 25.328 4.19496 24.7916L4.01109 24.769C3.88434 24.1677 4.01466 24.1959 4.0218 24.0449C3.81115 22.6474 3.83971 21.2175 4.12712 19.8299C4.4413 18.4394 4.96435 17.0646 5.70339 15.7814C6.42816 14.4912 7.39213 13.3012 8.46678 12.227C8.60066 12.0929 8.73455 11.9574 8.86665 11.8233C9.00767 11.6948 9.15405 11.5692 9.29686 11.4436C9.44146 11.3179 9.58427 11.1923 9.72708 11.0681L9.9413 10.8818L10.1698 10.7067C10.4751 10.4752 10.7767 10.2451 11.0766 10.0165C11.3962 9.80471 11.7121 9.59439 12.0263 9.38688C12.2905 9.24713 12.81 8.95352 13.2991 8.65426C13.5401 8.50181 13.7972 8.37053 14.0168 8.26043C14.2363 8.15174 14.4202 8.06704 14.538 8.03175C16.1589 6.93917 18.1886 6.09504 20.1844 5.51629L20.1166 5.5544C20.42 5.44147 20.7342 5.35113 21.0466 5.25796C21.0912 5.25796 21.1037 5.27208 21.077 5.29043C21.3304 5.18738 21.6303 5.08716 21.9642 5.01093C22.298 4.9333 22.6514 4.84154 23.0263 4.7879C23.7689 4.65804 24.5544 4.57899 25.2363 4.51264L25.1596 4.53664C27.1375 4.29243 29.1047 4.20774 31.0219 4.33619C32.9338 4.47735 34.7975 4.81613 36.5183 5.40477C37.3663 5.71532 38.1999 6.05834 38.9676 6.48182C39.7369 6.90247 40.4546 7.38524 41.1097 7.92165C42.4236 8.99446 43.4839 10.2875 44.2515 11.7132C44.8799 13.0669 45.4869 14.5547 45.851 16.1597C46.217 17.7605 46.333 19.4756 46.0224 21.137C45.9903 21.2118 45.9528 21.3826 45.9099 21.6254C45.8546 21.8668 45.8064 22.1816 45.7207 22.5387C45.6832 22.718 45.6422 22.91 45.5886 23.1076C45.5386 23.3066 45.4886 23.5141 45.4244 23.7259C45.394 23.8317 45.3637 23.939 45.3333 24.0477C45.3012 24.1564 45.2601 24.2665 45.2244 24.378C45.1495 24.6011 45.0745 24.8255 44.9995 25.0514C44.9317 25.2786 44.8389 25.5002 44.7532 25.7205C44.6675 25.9407 44.5818 26.1581 44.4997 26.3698C44.3283 26.7919 44.1373 27.1843 43.9873 27.5358C43.9142 27.7122 43.8285 27.8717 43.7571 28.02C43.6839 28.1682 43.6196 28.3009 43.5625 28.4166C43.4464 28.6495 43.3697 28.8147 43.3429 28.8881Z" fill="#CC0000" fill-opacity="0.6"/>
        <path d="M43.3429 28.8881L43.9391 28.2148C43.7892 28.5168 43.6517 28.7992 43.5054 29.0603C43.3518 29.32 43.2072 29.5628 43.068 29.7957C42.9966 29.9115 42.9288 30.0244 42.8609 30.1359C42.7877 30.2446 42.7163 30.3519 42.6449 30.4564C42.5021 30.6653 42.3647 30.8686 42.2272 31.0676C42.0951 31.2694 41.9505 31.4628 41.8077 31.659C41.6649 31.8553 41.5239 32.0543 41.3811 32.2604C41.0936 32.6712 40.7777 33.1017 40.4528 33.6028L40.4938 33.4772C40.3671 33.607 40.3689 33.7595 40.0386 34.2338C39.8744 34.4709 39.6263 34.7886 39.2139 35.2134C39.0086 35.4266 38.7748 35.6708 38.482 35.9418C38.1892 36.2129 37.8554 36.5163 37.4645 36.8537L37.4466 36.8438C37.3556 36.9483 37.3913 36.9666 37.1592 37.1459C37.3484 36.9963 37.543 36.8467 37.7287 36.6942C37.5002 37.0273 37.3359 37.3407 36.9753 37.7571C36.8772 37.8334 36.8147 37.8418 36.779 37.8348L35.8775 38.8469L35.4794 39.0855C35.2509 39.4228 35.6169 39.4271 34.71 40.1569C35.167 39.9508 34.419 40.6156 34.5975 40.5662C34.5386 40.5945 34.4172 40.6693 34.3173 40.7271C33.871 41.2184 33.0266 42.1472 32.891 42.4211C32.891 42.4211 33.4408 42.0089 34.0656 41.5388C34.6904 41.0716 35.4044 40.5535 35.7329 40.3502C35.0349 41.0038 35.5812 40.5422 35.7632 40.4406L35.7668 40.3714C36.197 39.9875 36.3006 40.0482 36.5255 39.8618C36.5166 39.8576 36.5005 39.8576 36.4862 39.8562L36.4755 39.8901C36.438 39.8985 36.438 39.8802 36.4487 39.852C36.422 39.8435 36.422 39.8152 36.5362 39.7066L36.5273 39.7348C36.6772 39.5555 36.9682 39.2675 37.0985 39.1433L37.1878 39.1913C37.3181 38.7975 39.3442 37.273 39.712 36.8467C39.9547 36.6674 40.1529 36.4246 40.351 36.1634C40.551 35.9023 40.7545 35.6256 41.0062 35.373C41.7292 34.5218 41.4864 35.0074 41.9148 34.6107C42.4093 34.094 41.7202 34.6686 41.888 34.4469C42.1058 34.2507 42.3093 34.0475 42.5218 33.847C42.2415 34.238 42.4539 34.0559 42.5432 34.0023C42.7645 33.7172 43.1037 33.3741 43.3518 33.0537C43.6053 32.7361 43.7963 32.458 43.766 32.3267C43.9284 32.139 44.0516 31.9978 44.148 31.8863C44.2462 31.7762 44.3212 31.6972 44.3836 31.6308C44.5104 31.4995 44.5889 31.4205 44.7068 31.2497C44.5961 31.3513 44.414 31.5687 44.3729 31.556C44.6693 31.2666 44.4533 31.3937 44.3479 31.5179C44.4069 31.3866 44.5639 31.1692 44.7621 30.9151C44.9495 30.6554 45.1762 30.3576 45.394 30.0682C45.6172 29.7816 45.8046 29.4965 45.9349 29.2749C46.0652 29.0532 46.1366 28.8937 46.0974 28.8486L46.1366 28.8613C46.0385 28.689 45.7778 28.8274 45.8796 28.4434C45.9474 28.3729 46.0081 28.2994 46.0724 28.226L46.1759 27.8407C46.3455 27.6134 46.333 27.7461 46.3526 27.7517C46.4562 27.444 46.6347 27.0911 46.7971 26.7156C46.8846 26.5293 46.9739 26.3387 47.0631 26.1496C47.1078 26.055 47.1524 25.9604 47.1952 25.8673C47.2345 25.7727 47.2702 25.6781 47.3059 25.5864C47.0685 25.8164 46.8025 26.0338 46.5472 26.2512C46.6365 26.1044 46.7436 25.9294 46.8543 25.7459C46.9542 25.5595 47.056 25.3647 47.1452 25.1826C47.322 24.8184 47.4505 24.5093 47.3916 24.4317L47.6576 24.0802C47.8289 23.7753 47.9004 23.5607 47.945 23.4097C47.986 23.2572 47.9843 23.1669 47.9664 23.0977C47.9325 22.9608 47.8539 22.9184 47.9521 22.6686C48.0574 22.4611 48.1431 22.2493 48.2395 22.0376C48.202 22.2536 48.1717 22.471 48.1235 22.6855C48.3324 22.0475 48.4252 21.7906 48.6001 21.2739C48.5983 21.2739 48.5983 21.2683 48.5966 21.2683C48.5841 21.3036 48.5733 21.3262 48.5626 21.3304L48.5698 21.2386C48.4966 21.1525 48.4627 20.8081 48.5019 20.3465C48.5269 20.019 48.5198 19.7254 48.5091 19.3838C48.5073 19.0422 48.5109 18.6526 48.5698 18.1233L48.3698 17.8706C48.3895 17.6066 48.3859 17.344 48.3931 17.0787L48.5359 17.0674C48.5805 17.4542 48.6537 18.0117 48.6876 18.599C48.6965 18.7458 48.7055 18.894 48.7144 19.0422C48.7179 19.1904 48.7197 19.3386 48.7233 19.4826C48.734 19.772 48.7179 20.0515 48.7108 20.3013L48.7751 20.3211C48.7876 20.0247 48.7893 19.7071 48.7715 19.4149C48.7661 19.2695 48.759 19.1297 48.7537 19.0013C48.7447 18.8742 48.7394 18.7585 48.7394 18.6597C48.7501 18.5637 48.7894 18.3929 48.8358 18.2884C48.8804 18.1839 48.9393 18.1472 49 18.3251L48.8322 17.9623C48.7412 16.97 48.6448 16.4731 48.5626 15.9649C48.5198 15.7108 48.4841 15.4525 48.4216 15.1307C48.3663 14.8074 48.2877 14.4192 48.161 13.9026L48.1521 14.0917C47.9771 13.6979 47.7986 13.3111 47.8611 13.1742C47.6504 12.5658 47.3845 11.9574 47.1524 11.3956C46.9025 10.8366 46.6722 10.3284 46.5044 9.9247L46.2455 9.8273C46.167 9.70731 46.1277 9.53228 46.0599 9.38688C45.9921 9.24149 45.9081 9.12291 45.7635 9.11444L45.544 8.88153L45.3119 8.65568C45.0691 8.33807 44.821 8.20114 44.5854 7.81436C44.5854 7.81295 44.5836 7.81295 44.5836 7.81295C44.5693 7.78896 44.555 7.76355 44.5389 7.73955C44.5354 7.74237 44.5336 7.74661 44.5318 7.74943C44.2301 7.40218 44.2016 7.42194 44.1641 7.429C44.1444 7.43323 44.1248 7.43323 44.0641 7.38242C44.0052 7.3316 43.9106 7.22996 43.7249 7.03799C43.5536 6.74437 43.2876 6.88977 42.9056 6.53828C42.8252 6.38301 42.7485 6.22208 42.6556 6.07104C42.4825 5.90589 42.3325 5.78308 42.1879 5.68003C42.0398 5.58122 41.8934 5.50358 41.7363 5.4203C41.5774 5.33701 41.4078 5.24667 41.1918 5.1408C40.974 5.03493 40.7331 4.88954 40.4064 4.72015C39.8441 4.3249 39.6156 4.05387 40.1529 4.13151C39.4353 3.99882 39.803 4.09904 38.9586 3.80402C38.8801 3.68403 38.9729 3.70944 39.1889 3.73485C39.1068 3.68403 39.0372 3.64451 38.9783 3.61204C38.9176 3.5824 38.8658 3.56264 38.823 3.5457C38.7355 3.51323 38.6784 3.50335 38.6266 3.4977C38.5213 3.485 38.432 3.49065 38.1571 3.38195C37.9197 3.44265 37.6287 3.56264 37.4448 3.51182C37.5109 3.5457 37.5716 3.58805 37.6341 3.62757C37.3306 3.55134 37.0057 3.48782 36.6879 3.39183C36.5273 3.34666 36.3666 3.29161 36.2024 3.23938C36.0364 3.19139 35.8703 3.13633 35.7025 3.07564L35.7561 3.01776C35.5026 2.96553 35.2527 2.91048 34.9992 2.86107L34.9813 2.76791L33.8906 2.57734L34.0317 2.62957C33.9674 2.61969 33.8674 2.60416 33.7443 2.5844C33.6211 2.56887 33.4765 2.55052 33.3247 2.53076C33.0213 2.48982 32.6928 2.43477 32.4554 2.38113L32.4822 2.33455C31.811 2.19339 31.1772 2.13128 30.5167 2.14116C30.1865 2.13975 29.8491 2.14116 29.4939 2.16233C29.1404 2.1821 28.7673 2.1821 28.3674 2.20045L28.5763 2.09458C28.0247 2.01412 28.4317 2.25126 27.7783 2.22444L27.7391 2.10446C27.175 2.27808 26.9965 2.10869 26.5912 2.07623L26.7947 2.22021L26.0485 2.24279C25.2274 2.27526 25.5148 2.09881 25.6219 2L25.0864 2.18774L24.9507 2.06211C24.5758 2.2682 24.5365 2.08328 23.8475 2.2795C23.7761 2.23574 23.9474 2.17927 23.7011 2.19339C23.3244 2.31337 22.9585 2.45312 22.5961 2.59146L23.2655 2.37266L23.237 2.58864C22.8996 2.73403 22.6568 2.77497 22.4337 2.79896C22.2105 2.82296 22.0088 2.83002 21.766 2.91895C21.8749 2.87378 21.9838 2.82437 22.0963 2.78202C21.284 3.01776 21.2108 2.94577 20.7253 3.0107C20.8859 3.01211 21.1269 3.01635 20.802 3.1194C20.5646 3.19421 20.6432 3.08552 20.404 3.12645C20.404 3.19845 20.2647 3.29161 20.0576 3.37631C19.8506 3.46241 19.5721 3.5344 19.3007 3.59087C19.299 3.57111 19.3007 3.54993 19.3293 3.52735C19.2061 3.58946 19.1544 3.64451 18.9098 3.68686L18.9759 3.50194L18.5992 3.7772C18.2832 3.83366 17.9066 4.0694 17.8958 3.96635C17.9458 3.93671 17.9976 3.9113 18.0476 3.88307C17.6727 4.00164 17.3103 4.13998 16.9408 4.26702L16.3892 4.46324C16.2071 4.53099 16.0304 4.60863 15.8501 4.68062L15.7483 4.58604C15.6394 4.8246 14.5434 5.02929 14.7487 5.18456C14.2845 5.27631 13.2759 6.00046 13.3438 5.69132C13.0028 5.85648 12.7279 6.03575 12.4637 6.1995C12.2031 6.36889 11.9531 6.52417 11.7104 6.70061C11.4676 6.87706 11.2159 7.05775 10.9231 7.2469C10.7785 7.34289 10.6196 7.43606 10.4536 7.54051C10.2912 7.6478 10.1162 7.75931 9.92345 7.87647C9.58427 7.98517 9.05587 8.29007 8.54889 8.6952C8.29005 8.89282 8.02049 9.10315 7.76701 9.31066C7.52423 9.52804 7.29038 9.73837 7.07616 9.92047C6.97976 10.015 6.88515 10.1068 6.79411 10.1986C6.74769 10.2437 6.70307 10.2889 6.65665 10.3327C6.6156 10.3792 6.57275 10.4258 6.53169 10.471C6.36746 10.6545 6.21037 10.8309 6.05685 11.0032C5.90511 11.1768 5.75159 11.3419 5.61057 11.5113C5.47668 11.685 5.3428 11.8558 5.2107 12.028C5.0786 12.1988 4.94471 12.371 4.81083 12.5446C4.67337 12.7168 4.56269 12.906 4.43238 13.0923C4.18246 13.4692 3.89684 13.8574 3.65049 14.3148C3.40771 14.5505 3.17386 14.8356 2.98464 15.1575C2.80434 15.485 2.64189 15.8393 2.48301 16.1964C2.39733 16.3729 2.34734 16.562 2.28129 16.7427C2.21881 16.9248 2.15455 17.1055 2.08671 17.2805C2.0528 17.368 2.01709 17.4542 1.98318 17.5403C1.94569 17.625 1.91356 17.7097 1.88499 17.7943C1.82608 17.9623 1.76003 18.1233 1.68684 18.2757L1.71719 18.6441C1.65828 18.7429 1.60473 18.8502 1.55474 18.9646C1.50476 19.0789 1.47263 19.2031 1.43693 19.3316C1.40301 19.46 1.36909 19.5955 1.34053 19.7339C1.31911 19.8736 1.2959 20.0162 1.27269 20.1616C1.22092 20.4524 1.20486 20.7573 1.15666 21.0608C1.12631 21.3657 1.07276 21.672 1.01385 21.9727C1.07097 22.2705 1.08704 22.4244 1.0924 22.4921C1.09954 22.4371 1.1281 22.3538 1.21735 22.3284C1.14952 22.6714 1.26198 23.3603 1.08704 23.3179L1.05312 23.2318C0.96208 23.2092 1.00492 23.4704 1.05669 23.7852C1.11203 24.0985 1.19415 24.4627 1.14595 24.6618C1.19415 24.5855 1.25127 24.5093 1.30304 24.4345C1.31732 24.6505 1.35659 24.865 1.38337 25.0796L1.31554 24.9116C1.78503 26.2795 2.09742 27.2563 2.45802 28.2148C2.55085 28.4533 2.64368 28.6905 2.75792 28.9276C2.81326 29.0462 2.87039 29.1662 2.9293 29.2862C2.99535 29.4047 3.0614 29.5247 3.12923 29.6475C3.40414 30.1359 3.77009 30.6385 4.26458 31.1735C3.85757 30.9561 4.69479 31.5758 4.52342 31.6972C4.73942 32.3846 5.44098 32.7093 5.92832 33.0932C5.93724 33.0876 5.95331 33.0862 5.9908 33.1031C6.22465 33.3614 6.48885 33.6014 6.74055 33.8498C6.39781 33.7073 6.58346 33.8089 6.77983 33.9077C6.98155 34.0037 7.19041 34.0997 6.87622 33.9741C7.36357 34.4653 7.96337 34.9481 8.63458 35.4139C9.30936 35.8769 10.0734 36.3046 10.8892 36.6928C11.7014 37.0796 12.5797 37.4169 13.4705 37.6851C13.9168 37.8178 14.3559 37.9646 14.8076 38.0649C15.2556 38.1764 15.6966 38.2964 16.1428 38.3768L16.0036 38.2921C16.4535 38.3754 16.9587 38.47 17.4442 38.5166C17.928 38.573 18.3796 38.645 18.7206 38.71C19.0615 38.782 19.4471 38.7805 19.7774 38.7495C20.1076 38.7114 20.3825 38.6577 20.5164 38.6577C20.7056 38.6394 20.8913 38.638 21.0555 38.6479C21.2198 38.6507 21.3661 38.6648 21.4786 38.6817C21.7035 38.7156 21.7964 38.7622 21.6339 38.7594C22.0391 38.741 22.4301 38.686 22.8532 38.6154C23.278 38.549 23.7404 38.5081 24.2955 38.4996C24.3955 38.5392 24.6329 38.5321 24.9328 38.5025C25.2327 38.4742 25.5916 38.4022 25.9397 38.3415C26.1128 38.3105 26.2842 38.2808 26.4431 38.2526C26.6019 38.2216 26.7483 38.1933 26.8733 38.175C27.125 38.1355 27.2964 38.1284 27.3178 38.1806L27.3249 38.1609C28.7548 38.0973 29.9758 37.6061 31.47 37.4028C31.47 37.4028 31.4486 37.424 31.4039 37.4494C31.8627 37.2391 32.3054 37.0048 32.7517 36.7845C33.1962 36.5587 33.63 36.3244 34.0656 36.0957L32.9606 35.6242C32.5125 35.6426 32.0644 35.6454 31.6182 35.6525C31.1737 35.6623 30.7292 35.6567 30.2865 35.6525C28.089 36.1874 25.8522 36.5728 23.6047 36.7775C21.7999 36.8198 20.013 36.7168 18.3082 36.4345L17.5245 36.3399L16.7551 36.2044L16.3696 36.1366L15.9929 36.0477L15.2396 35.8712L14.5077 35.6525L14.1399 35.5438L13.7865 35.4181L13.433 35.2911L13.0885 35.1499C12.9742 35.1019 12.8564 35.0582 12.744 35.0074L12.4083 34.8521C10.6179 34.0221 9.03981 32.8829 7.76165 31.5504C7.53315 31.3866 7.29038 31.2285 7.06723 31.0549C6.93156 30.8262 6.77804 30.5975 6.63166 30.359C6.47457 30.1246 6.32819 29.879 6.16753 29.6334C5.86227 29.1365 5.53916 28.6227 5.26603 28.0849L5.15893 27.8844L5.06253 27.6812C4.99827 27.5442 4.93043 27.4101 4.87152 27.2718C4.75906 26.9951 4.63945 26.7213 4.55198 26.4418C4.35919 25.887 4.24137 25.328 4.19496 24.7916L4.01109 24.769C3.88434 24.1677 4.01466 24.1959 4.0218 24.0449C3.81115 22.6474 3.83971 21.2175 4.12712 19.8299C4.4413 18.4394 4.96435 17.0646 5.70339 15.7814C6.42816 14.4912 7.39213 13.3012 8.46678 12.227C8.60066 12.0929 8.73455 11.9574 8.86665 11.8233C9.00767 11.6948 9.15405 11.5692 9.29686 11.4436C9.44146 11.3179 9.58427 11.1923 9.72708 11.0681L9.9413 10.8818L10.1698 10.7067C10.4751 10.4752 10.7767 10.2451 11.0766 10.0165C11.3962 9.80471 11.7121 9.59439 12.0263 9.38688C12.2905 9.24713 12.81 8.95352 13.2991 8.65426C13.5401 8.50181 13.7972 8.37053 14.0168 8.26043C14.2363 8.15174 14.4202 8.06704 14.538 8.03175C16.1589 6.93917 18.1886 6.09504 20.1844 5.51629L20.1166 5.5544C20.42 5.44147 20.7342 5.35113 21.0466 5.25796C21.0912 5.25796 21.1037 5.27208 21.077 5.29043C21.3304 5.18738 21.6303 5.08716 21.9642 5.01093C22.298 4.9333 22.6514 4.84154 23.0263 4.7879C23.7689 4.65804 24.5544 4.57899 25.2363 4.51264L25.1596 4.53664C27.1375 4.29243 29.1047 4.20774 31.0219 4.33619C32.9338 4.47735 34.7975 4.81613 36.5183 5.40477C37.3663 5.71532 38.1999 6.05834 38.9676 6.48182C39.7369 6.90247 40.4546 7.38524 41.1097 7.92165C42.4236 8.99446 43.4839 10.2875 44.2515 11.7132C44.8799 13.0669 45.4869 14.5547 45.851 16.1597C46.217 17.7605 46.333 19.4756 46.0224 21.137C45.9903 21.2118 45.9528 21.3826 45.9099 21.6254C45.8546 21.8668 45.8064 22.1816 45.7207 22.5387C45.6832 22.718 45.6422 22.91 45.5886 23.1076C45.5386 23.3066 45.4886 23.5141 45.4244 23.7259C45.394 23.8317 45.3637 23.939 45.3333 24.0477C45.3012 24.1564 45.2601 24.2665 45.2244 24.378C45.1495 24.6011 45.0745 24.8255 44.9995 25.0514C44.9317 25.2786 44.8389 25.5002 44.7532 25.7205C44.6675 25.9407 44.5818 26.1581 44.4997 26.3698C44.3283 26.7919 44.1373 27.1843 43.9873 27.5358C43.9142 27.7122 43.8285 27.8717 43.7571 28.02C43.6839 28.1682 43.6196 28.3009 43.5625 28.4166C43.4464 28.6495 43.3697 28.8147 43.3429 28.8881Z" stroke="#CC0000" stroke-opacity="0.6" stroke-width="2" mask="url(#path-1-outside-1_4693_411266)"/>
    </g>
</svg>