<svg width="66" height="66" viewBox="0 0 66 66" fill="none" xmlns="http://www.w3.org/2000/svg">
<circle cx="33" cy="33" r="32.5" fill="#AAAAAA" stroke="#F7F7F7"/>
<mask id="mask0_83_62423" style="mask-type:alpha" maskUnits="userSpaceOnUse" x="0" y="0" width="66" height="66">
<circle cx="33" cy="33" r="32.5" fill="#AAAAAA" stroke="#F7F7F7"/>
</mask>
<g mask="url(#mask0_83_62423)">
<path d="M33 13.2C26.9326 13.2 22 18.1326 22 24.2C22 30.1515 26.6547 34.9684 32.7221 35.1768C32.9074 35.1536 33.0926 35.1536 33.2316 35.1768C33.2779 35.1768 33.3011 35.1768 33.3474 35.1768C33.3705 35.1768 33.3705 35.1768 33.3937 35.1768C39.3221 34.9684 43.9768 30.1515 44 24.2C44 18.1326 39.0674 13.2 33 13.2Z" fill="white"/>
<path d="M50.4633 43.5835C40.8727 38.2721 25.232 38.2721 15.5727 43.5835C11.207 46.0108 8.80078 49.2947 8.80078 52.8071C8.80078 56.3195 11.207 59.5749 15.5383 61.9736C20.3508 64.6578 26.6758 66 33.0008 66C39.3258 66 45.6508 64.6578 50.4633 61.9736C54.7945 59.5463 57.2008 56.2909 57.2008 52.75C57.1664 49.2376 54.7945 45.9822 50.4633 43.5835Z" fill="white"/>
</g>
</svg>
