<svg width="30" height="30" viewBox="0 0 30 30" fill="none" xmlns="http://www.w3.org/2000/svg">
<path d="M3.95312 9.50928H26.0513" stroke="black" stroke-width="1.5" stroke-linecap="round" stroke-linejoin="round"/>
<path d="M22.3672 2.14307L22.3672 5.8261" stroke="black" stroke-width="1.5" stroke-linecap="round" stroke-linejoin="round"/>
<path d="M7.63281 2.14307L7.63281 5.8261" stroke="black" stroke-width="1.5" stroke-linecap="round" stroke-linejoin="round"/>
<path d="M6.67773 19.4463L9.25586 17.1807C9.48372 16.9723 9.66113 16.7965 9.78809 16.6533C9.91829 16.5101 10.0192 16.3652 10.0908 16.2188C10.1624 16.069 10.1999 15.9079 10.2031 15.7354C10.1999 15.5433 10.1527 15.3757 10.0615 15.2324C9.97363 15.0859 9.85156 14.9736 9.69531 14.8955C9.54232 14.8174 9.36654 14.7783 9.16797 14.7783C8.86198 14.7783 8.61784 14.8695 8.43555 15.0518C8.25326 15.234 8.16211 15.4847 8.16211 15.8037H6.58008C6.58008 15.335 6.6875 14.9248 6.90234 14.5732C7.12044 14.2217 7.4248 13.9515 7.81543 13.7627C8.20931 13.5739 8.66341 13.4795 9.17773 13.4795C9.70182 13.4795 10.1624 13.569 10.5596 13.748C10.96 13.9238 11.2692 14.1729 11.4873 14.4951C11.7054 14.8174 11.8145 15.1885 11.8145 15.6084C11.8145 15.8883 11.7575 16.1585 11.6436 16.4189C11.5329 16.6794 11.3376 16.9691 11.0576 17.2881C10.7809 17.6038 10.3887 17.9847 9.88086 18.4307L8.99219 19.251V19.2998H11.9023V20.6475H6.67773V19.4463Z" fill="black"/>
<path d="M15 10.2456L15 25.7144" stroke="black" stroke-width="1.5" stroke-linecap="round" stroke-linejoin="round"/>
<path d="M15 19.8218L15 20.5584" stroke="black" stroke-width="1.5" stroke-linecap="round" stroke-linejoin="round"/>
<path d="M20.2832 20.7451C19.6712 20.7451 19.1439 20.6035 18.7012 20.3203C18.2585 20.0339 17.9183 19.6188 17.6807 19.0752C17.443 18.5316 17.3242 17.8773 17.3242 17.1123C17.3242 16.3473 17.443 15.693 17.6807 15.1494C17.9183 14.6058 18.2585 14.1924 18.7012 13.9092C19.1439 13.6227 19.6712 13.4795 20.2832 13.4795C20.8952 13.4795 21.4225 13.6227 21.8652 13.9092C22.3079 14.1924 22.6481 14.6058 22.8857 15.1494C23.1234 15.693 23.2422 16.3473 23.2422 17.1123C23.2422 17.8805 23.1234 18.5365 22.8857 19.0801C22.6481 19.6237 22.3079 20.0371 21.8652 20.3203C21.4225 20.6035 20.8952 20.7451 20.2832 20.7451ZM20.2832 19.3877C20.6738 19.3877 20.9798 19.1989 21.2012 18.8213C21.4225 18.4404 21.5332 17.8708 21.5332 17.1123C21.5332 16.3604 21.4209 15.7923 21.1963 15.4082C20.9749 15.0208 20.6706 14.8271 20.2832 14.8271C19.8926 14.8271 19.5866 15.0241 19.3652 15.418C19.1439 15.8086 19.0332 16.3896 19.0332 17.1611C19.0332 17.9001 19.1455 18.4567 19.3701 18.8311C19.5947 19.2021 19.8991 19.3877 20.2832 19.3877Z" fill="black"/>
<path d="M3.21484 6.61621C3.21484 4.95936 4.55799 3.61621 6.21484 3.61621H23.7863C25.4431 3.61621 26.7863 4.95936 26.7863 6.61621V22.7144C26.7863 24.3713 25.4431 25.7144 23.7863 25.7144H6.21485C4.55799 25.7144 3.21484 24.3713 3.21484 22.7144V6.61621Z" stroke="black" stroke-width="1.5"/>
</svg>
