<svg width="41" height="40" viewBox="0 0 41 40" fill="none" xmlns="http://www.w3.org/2000/svg">
<g clip-path="url(#clip0_1691_22127)">
<path d="M18.369 28.6549C24.4149 28.6549 29.3161 23.7538 29.3161 17.7078C29.3161 11.6619 24.4149 6.76074 18.369 6.76074C12.3231 6.76074 7.42188 11.6619 7.42188 17.7078C7.42188 23.7538 12.3231 28.6549 18.369 28.6549Z" stroke="black" stroke-width="2" stroke-linecap="round" stroke-linejoin="round"/>
<path d="M18.369 28.6549C24.4149 28.6549 29.3161 23.7538 29.3161 17.7078C29.3161 11.6619 24.4149 6.76074 18.369 6.76074C12.3231 6.76074 7.42188 11.6619 7.42188 17.7078C7.42188 23.7538 12.3231 28.6549 18.369 28.6549Z" stroke="black" stroke-width="3" stroke-linecap="round" stroke-linejoin="round"/>
<path d="M33.4219 34.2603L25.4219 26.0684" stroke="black" stroke-width="3" stroke-linecap="round" stroke-linejoin="round"/>
</g>
<defs>
<clipPath id="clip0_1691_22127">
<rect width="40" height="40" fill="white" transform="translate(0.5)"/>
</clipPath>
</defs>
</svg>
