<svg width="50" height="51" viewBox="0 0 50 51" fill="none" xmlns="http://www.w3.org/2000/svg">
<g clip-path="url(#clip0_2623_292743)">
<path d="M9.58628 11.7507C3.13791 20.0124 3.13791 31.8223 9.58628 40.084" stroke="black" stroke-width="4" stroke-linecap="round" stroke-linejoin="round"/>
<path d="M17.404 34.1805C13.6466 29.3624 13.6466 22.4752 17.404 17.6542" stroke="black" stroke-width="4" stroke-linecap="round" stroke-linejoin="round"/>
<path fill-rule="evenodd" clip-rule="evenodd" d="M22.4043 25.9173C22.4043 24.2648 23.7512 22.9173 25.4043 22.9173C27.0574 22.9173 28.4043 24.2648 28.4043 25.9173C28.4043 27.5698 27.0574 28.9173 25.4043 28.9173C23.7512 28.9173 22.4043 27.5698 22.4043 25.9173Z" fill="black"/>
<path d="M33.4046 34.1805C37.162 29.3624 37.162 22.4752 33.4046 17.6542" stroke="black" stroke-width="4" stroke-linecap="round" stroke-linejoin="round"/>
<path d="M41.2223 11.7507C47.6707 20.0124 47.6707 31.8223 41.2223 40.084" stroke="black" stroke-width="4" stroke-linecap="round" stroke-linejoin="round"/>
</g>
<defs>
<clipPath id="clip0_2623_292743">
<rect y="0.5" width="50" height="50" rx="25" fill="white"/>
</clipPath>
</defs>
</svg>
