<svg width="24" height="25" viewBox="0 0 24 25" fill="none" xmlns="http://www.w3.org/2000/svg">
<path d="M13.8462 2.34615C13.8462 1.325 13.0212 0.5 12 0.5C10.9788 0.5 10.1538 1.325 10.1538 2.34615V10.6538H1.84615C0.825 10.6538 0 11.4788 0 12.5C0 13.5212 0.825 14.3462 1.84615 14.3462H10.1538V22.6538C10.1538 23.675 10.9788 24.5 12 24.5C13.0212 24.5 13.8462 23.675 13.8462 22.6538V14.3462H22.1538C23.175 14.3462 24 13.5212 24 12.5C24 11.4788 23.175 10.6538 22.1538 10.6538H13.8462V2.34615Z" fill="black"/>
</svg>
