<svg width="30" height="30" viewBox="0 0 30 30" fill="none" xmlns="http://www.w3.org/2000/svg">
<path fill-rule="evenodd" clip-rule="evenodd" d="M21.016 4.67469C19.1538 4.18578 17.1728 4.73715 15.831 6.11745L11.798 10.1505C10.7963 11.1516 10.2334 12.5097 10.2334 13.926C10.2334 15.2884 10.7543 16.597 11.6856 17.5858C11.7148 17.6337 11.75 17.6782 11.7907 17.7181C12.2224 18.1416 12.7236 18.4878 13.2725 18.7415C13.6142 18.8995 14.0192 18.7506 14.1772 18.4089C14.3351 18.0672 14.1862 17.6622 13.8445 17.5042C13.4797 17.3356 13.1432 17.1119 12.8468 16.8412C12.8221 16.8042 12.7937 16.7694 12.7617 16.7375C12.0157 15.992 11.5966 14.9806 11.5966 13.926C11.5966 12.8714 12.0159 11.8598 12.7619 11.1143L16.7985 7.07785L16.8057 7.07044C17.805 6.04041 19.2817 5.62869 20.6698 5.99313C22.0579 6.35757 23.1419 7.44162 23.5064 8.82971C23.8708 10.2178 23.4591 11.6945 22.429 12.6938L20.5344 14.5885C20.2682 14.8546 20.2682 15.2862 20.5344 15.5523C20.8005 15.8185 21.2321 15.8185 21.4982 15.5523L23.3821 13.6685C24.7624 12.3267 25.3137 10.3457 24.8248 8.48355C24.3355 6.61968 22.8798 5.16405 21.016 4.67469ZM15.616 11.369C15.2744 11.2108 14.8693 11.3595 14.7111 11.7011C14.553 12.0426 14.7017 12.4478 15.0432 12.6059C15.4496 12.7941 15.8208 13.0505 16.1406 13.3641C16.8852 14.1093 17.3036 15.1198 17.3036 16.1734C17.3036 17.2281 16.8843 18.2396 16.1383 18.9851L12.1055 23.0179C10.5458 24.5274 8.06318 24.5074 6.52791 22.9721C4.99263 21.4369 4.97268 18.9543 6.48222 17.3945L8.36578 15.511C8.63194 15.2448 8.63194 14.8133 8.36578 14.5471C8.09961 14.2809 7.66807 14.2809 7.4019 14.5471L5.51449 16.4344L5.50731 16.4418C3.47569 18.5359 3.50094 21.8729 5.56403 23.936C7.62712 25.9991 10.9642 26.0244 13.0583 23.9928L17.1021 19.949C18.1039 18.9479 18.6667 17.5897 18.6667 16.1734C18.6667 14.7571 18.1038 13.3989 17.102 12.3977L17.0977 12.3935C16.6661 11.9697 16.1649 11.6231 15.616 11.369Z" fill="black"/>
</svg>
