<svg width="94" height="90" viewBox="0 0 94 90" fill="none" xmlns="http://www.w3.org/2000/svg">
<g clip-path="url(#clip0_2855_599518)">
<path opacity="0.76" d="M36.8968 26.5299C32.4717 21.5329 26.5145 17.922 20.0553 16.3034C16.8335 15.4985 13.4066 15.1822 10.2147 16.0955C7.02284 17.0089 4.10729 19.3063 3.05898 22.4624C1.58837 26.8761 4.05857 31.7487 7.48398 34.8813C11.6714 38.7126 17.3893 40.8208 23.055 40.6159C26.637 40.4896 29.8595 39.4251 32.8831 37.7743C33.8532 34.021 35.5827 30.6535 37.871 27.6872C37.5376 27.2556 37.2024 26.8641 36.9051 26.5223L36.8968 26.5299Z" fill="#ADDEE5"/>
<path opacity="0.76" d="M40.4136 33.7342C43.7435 28.8792 45.7757 23.1337 46.2133 17.2553C46.4605 13.9362 46.1928 10.4986 44.7542 7.49185C43.3154 4.49315 40.5665 1.99958 37.2837 1.4969C32.6973 0.793544 28.3239 4.055 25.8184 7.97474C22.7555 12.761 21.6561 18.7714 22.8083 24.3333C23.6759 28.5189 25.7594 31.9707 28.5222 35.0666C32.3273 33.8507 36.353 33.4547 40.3979 33.7255L40.4136 33.7342Z" fill="#ADDEE5"/>
<path d="M10.558 26.4685C15.7039 25.8881 21.0405 27.5626 24.9496 30.9808C25.7206 31.6559 26.9034 30.5756 26.1244 29.9001C21.745 26.0685 15.974 24.263 10.2011 24.9125C9.1799 25.029 9.54448 26.5932 10.5577 26.4765L10.558 26.4685Z" fill="white"/>
<path d="M35.6115 11.775C32.7317 17.1389 31.2013 23.1227 31.2026 29.2126C31.2063 30.2398 32.8033 30.3167 32.7999 29.2815C32.7941 23.4802 34.2093 17.7563 36.9503 12.6432C37.4372 11.7415 36.0908 10.865 35.6035 11.7747L35.6115 11.775Z" fill="white"/>
<path d="M13.676 63.5916L1.69092 71.1784C0.942389 71.6515 1.32459 72.8074 2.20758 72.7412L16.1997 71.6759L13.684 63.592L13.676 63.5916Z" fill="#200B06"/>
<path d="M69.4644 80.4652L42.8967 86.6686C27.588 90.2446 12.1533 80.6084 8.59087 65.258C5.02845 49.9077 14.6417 34.4278 29.9503 30.8518L56.518 24.6484C74.6363 20.1184 87.2614 30.7086 90.8238 46.0589C94.3863 61.4093 84.773 76.8892 69.4644 80.4652Z" fill="#79471D"/>
<path d="M28.5008 60.9097C25.775 49.1659 29.3809 37.3584 37.0498 29.112L30.2198 30.7109C29.1285 30.9687 28.0747 31.2843 27.0504 31.6574C19.6065 39.8813 16.136 51.5182 18.8209 63.0997C21.4046 74.2436 29.1275 82.9213 38.8887 87.1937C40.3095 87.0865 41.7352 86.8672 43.1657 86.5358L48.9691 85.1814C39.0131 80.9728 31.1176 72.2154 28.5005 60.9177L28.5008 60.9097Z" fill="#FFD800"/>
<path d="M52.2386 14.9154C52.7655 14.0155 51.342 13.256 50.8155 14.148C49.4503 16.4881 48.9113 19.3373 48.9633 22.0274C49.0205 24.782 49.7544 27.6139 51.6167 29.7001C51.9068 30.0255 52.4779 29.9539 52.7546 29.6609C53.0736 29.3136 53.0058 28.8453 52.7158 28.5199C51.1206 26.7341 50.5989 24.1761 50.5713 21.8481C50.5461 19.464 51.0293 16.9815 52.2306 14.9151L52.2386 14.9154Z" fill="#FFCD00"/>
<path d="M71.4229 14.9489C69.3825 16.0644 67.4588 17.4417 66.073 19.3316C64.6699 21.2529 64.1124 23.6038 64.2591 25.953C64.326 26.999 65.9577 27.0132 65.8911 25.9593C65.7573 23.8674 66.2208 21.8413 67.4864 20.1388C68.7177 18.4909 70.4724 17.323 72.2507 16.3486C73.1766 15.8429 72.3412 14.4349 71.4153 14.9405L71.4229 14.9489Z" fill="#FFCD00"/>
<path d="M50.8564 11.6706C48.1245 12.4915 49.397 16.7507 52.1288 15.9298C54.8607 15.1089 53.5882 10.8497 50.8564 11.6706Z" fill="#2A97CA"/>
<path d="M72.0206 12.8887C69.2353 13.6511 70.4081 17.9943 73.2014 17.2322C75.9868 16.4698 74.8139 12.1266 72.0206 12.8887Z" fill="#2A97CA"/>
<path d="M88.1885 47.0205C85.0147 33.7891 73.3759 19.0692 58.789 33.5483C39.8091 28.9343 32.8672 46.4792 39.5539 63.0395C44.6505 75.6558 56.1 80.1134 69.5621 76.8669C83.0243 73.6205 91.3619 60.2599 88.1885 47.0205Z" fill="#FFD800"/>
<path d="M60.5543 32.2602C61.3316 31.4914 62.0971 30.8103 62.8515 30.201C62.003 30.7661 61.1343 31.4267 60.2532 32.191C60.3564 32.2115 60.4515 32.2317 60.5543 32.2602Z" fill="#FF9F00"/>
<path d="M58.6055 57.8597C62.1033 58.0106 65.0614 55.2896 65.2127 51.7821C65.364 48.2746 62.6512 45.3089 59.1535 45.158C55.6558 45.0071 52.6976 47.7281 52.5463 51.2356C52.395 54.7431 55.1078 57.7088 58.6055 57.8597Z" fill="white"/>
<path d="M72.9649 53.9697C76.4626 54.1206 79.4208 51.3996 79.5721 47.8921C79.7234 44.3846 77.0106 41.4189 73.5129 41.268C70.0152 41.1171 67.057 43.8381 66.9057 47.3456C66.7544 50.8531 69.4672 53.8188 72.9649 53.9697Z" fill="white"/>
<path d="M76.553 51.0036C77.6998 51.0531 78.6697 50.1609 78.7193 49.0109C78.769 47.8609 77.8795 46.8886 76.7327 46.8391C75.5859 46.7896 74.616 47.6818 74.5664 48.8318C74.5168 49.9818 75.4063 50.9541 76.553 51.0036Z" fill="black"/>
<path d="M62.2171 54.5091C63.3639 54.5586 64.3338 53.6664 64.3834 52.5164C64.433 51.3664 63.5436 50.3941 62.3968 50.3446C61.25 50.2951 60.2801 51.1873 60.2305 52.3373C60.1809 53.4873 61.0703 54.4596 62.2171 54.5091Z" fill="black"/>
<path d="M71.3151 75.5785C57.853 78.8249 46.4035 74.3674 41.3069 61.7511C37.0778 51.2824 38.2988 40.415 44.5731 35.005C36.7972 39.7966 34.9494 51.6559 39.5471 63.0391C44.6437 75.6554 56.0932 80.113 69.5553 76.8666C73.3392 75.9547 76.7258 74.2393 79.5608 71.9545C77.1215 73.5984 74.347 74.8508 71.3151 75.5785Z" fill="#FF9F00"/>
<path d="M67.4254 64.0974C66.1556 64.0427 65.3107 63.7816 65.2871 63.7725C64.869 63.6341 64.6405 63.183 64.7706 62.7633C64.9087 62.344 65.3586 62.1147 65.7771 62.2451C65.9903 62.3105 70.7841 63.769 74.3506 59.3654C74.6294 59.0244 75.136 58.9661 75.476 59.2455C75.816 59.5249 75.8741 60.0329 75.5953 60.3739C72.9158 63.6924 69.5658 64.1898 67.4254 64.0974Z" fill="#E94245"/>
<path opacity="0.2" d="M60.4064 62.1657C60.3941 63.3767 58.4249 64.3268 56.0178 64.2952C53.6108 64.2635 51.6699 63.2571 51.6818 62.0541C51.6937 60.8511 53.6634 59.893 56.0704 59.9246C58.4774 59.9562 60.4183 60.9627 60.4064 62.1657Z" fill="#FF5A93"/>
<path opacity="0.2" d="M78.0494 56.5963C78.6771 57.6263 80.8535 57.4394 82.9085 56.1721C84.9635 54.9048 86.1155 53.0529 85.4879 52.0228C84.8602 50.9928 82.6838 51.1798 80.6288 52.4471C78.5738 53.7144 77.4218 55.5663 78.0494 56.5963Z" fill="#FF5A93"/>
</g>
<defs>
<clipPath id="clip0_2855_599518">
<rect width="90.0743" height="85.9487" fill="white" transform="translate(3.70312) rotate(2.47033)"/>
</clipPath>
</defs>
</svg>
