<svg width="30" height="30" viewBox="0 0 30 30" fill="none" xmlns="http://www.w3.org/2000/svg">
<g clip-path="url(#clip0_2759_36758)">
<path fill-rule="evenodd" clip-rule="evenodd" d="M8.09375 10.7813H5.125C4.435 10.7813 3.875 11.3413 3.875 12.0313V17.9688C3.875 18.6588 4.435 19.2188 5.125 19.2188H8.09375L13.0675 23.4326C13.88 24.1213 15.125 23.5438 15.125 22.4788V7.52132C15.125 6.45632 13.8788 5.87882 13.0675 6.56757L8.09375 10.7813Z" stroke="black" stroke-width="1.5" stroke-linecap="round" stroke-linejoin="round"/>
<path d="M18.6719 19.9723C20.1244 19.0698 21.1256 17.1923 21.1256 15.0061C21.1256 12.8198 20.1244 10.9411 18.6719 10.0273" stroke="black" stroke-width="1.5" stroke-linecap="round" stroke-linejoin="round"/>
<path d="M22.3812 23.8312C24.6412 21.8874 26.125 18.6624 26.125 15.0037C26.125 11.3399 24.6387 8.11242 22.375 6.16992" stroke="black" stroke-width="1.5" stroke-linecap="round" stroke-linejoin="round"/>
</g>
<defs>
<clipPath id="clip0_2759_36758">
<rect width="30" height="30" fill="white"/>
</clipPath>
</defs>
</svg>
