<svg width="134" height="158" viewBox="0 0 134 158" fill="none" xmlns="http://www.w3.org/2000/svg">
<path d="M12 156H122C127.523 156 132 151.523 132 146V36.1421C132 33.49 130.946 30.9464 129.071 29.0711L104.929 4.92893C103.054 3.05357 100.51 2 97.8579 2H12C6.47715 2 2 6.47716 2 12V146C2 151.523 6.47715 156 12 156Z" fill="#F54335" stroke="#CC1C0E" stroke-width="4"/>
<path d="M111 31.0323H128.529C129.428 31.0323 129.87 29.9387 129.224 29.3137L102.695 3.64073C102.061 3.02666 101 3.47631 101 4.35933V21.0323C101 26.5551 105.477 31.0323 111 31.0323Z" fill="#CC1C0E" stroke="#CC1C0E" stroke-width="4"/>
<path d="M2 114H132V146C132 151.523 127.523 156 122 156H12C6.47715 156 2 151.523 2 146V114Z" fill="#CC1C0E"/>
<path d="M2 114H132H2ZM134 146C134 152.627 128.627 158 122 158H12C5.37258 158 0 152.627 0 146H4C4 150.418 7.58172 154 12 154H122C126.418 154 130 150.418 130 146H134ZM12 158C5.37258 158 0 152.627 0 146V114H4V146C4 150.418 7.58172 154 12 154V158ZM134 114V146C134 152.627 128.627 158 122 158V154C126.418 154 130 150.418 130 146V114H134Z" fill="#CC1C0E"/>
<path d="M45.9809 145V127.216H51.8129C53.1249 127.216 54.3009 127.392 55.3409 127.744C56.3969 128.096 57.2289 128.68 57.8369 129.496C58.4609 130.296 58.7729 131.4 58.7729 132.808C58.7729 134.152 58.4609 135.264 57.8369 136.144C57.2289 137.008 56.4049 137.648 55.3649 138.064C54.3409 138.48 53.1889 138.688 51.9089 138.688H49.5329V145H45.9809ZM49.5329 135.88H51.6689C52.8849 135.88 53.7889 135.624 54.3809 135.112C54.9889 134.6 55.2929 133.832 55.2929 132.808C55.2929 131.784 54.9729 131.072 54.3329 130.672C53.7089 130.256 52.7809 130.048 51.5489 130.048H49.5329V135.88ZM61.9887 145V127.216H67.8207C69.1327 127.216 70.3087 127.392 71.3487 127.744C72.4047 128.096 73.2367 128.68 73.8447 129.496C74.4687 130.296 74.7807 131.4 74.7807 132.808C74.7807 134.152 74.4687 135.264 73.8447 136.144C73.2367 137.008 72.4127 137.648 71.3727 138.064C70.3487 138.48 69.1967 138.688 67.9167 138.688H65.5407V145H61.9887ZM65.5407 135.88H67.6767C68.8927 135.88 69.7967 135.624 70.3887 135.112C70.9967 134.6 71.3007 133.832 71.3007 132.808C71.3007 131.784 70.9807 131.072 70.3407 130.672C69.7167 130.256 68.7887 130.048 67.5567 130.048H65.5407V135.88ZM80.9151 145V130.192H75.9231V127.216H89.4831V130.192H84.4671V145H80.9151Z" fill="white"/>
<path d="M49 90V40H65.4128C69.1051 40 72.4146 40.4948 75.3415 41.4845C78.3133 42.4741 80.6548 44.1161 82.3659 46.4103C84.122 48.6595 85 51.7634 85 55.722C85 59.5007 84.122 62.6271 82.3659 65.1012C80.6548 67.5304 78.3358 69.3297 75.409 70.4993C72.5272 71.6689 69.2852 72.2537 65.6829 72.2537H58.9962V90H49ZM58.9962 64.359H65.0075C68.4296 64.359 70.9737 63.6392 72.6398 62.1997C74.3508 60.7602 75.2064 58.601 75.2064 55.722C75.2064 52.843 74.3058 50.8412 72.5047 49.7166C70.7486 48.547 68.137 47.9622 64.6698 47.9622H58.9962V64.359Z" fill="white"/>
</svg>
