<svg width="31" height="30" viewBox="0 0 31 30" fill="none" xmlns="http://www.w3.org/2000/svg">
<path fill-rule="evenodd" clip-rule="evenodd" d="M25.3096 5.1901C25.439 5.31945 25.5023 5.48981 25.4997 5.65933V9.80469C25.4997 10.1632 25.2091 10.4537 24.8506 10.4537C24.4921 10.4537 24.2016 10.1632 24.2016 9.80469V7.21607L22.1929 9.22473C21.9394 9.4782 21.5285 9.4782 21.275 9.22473C21.0215 8.97126 21.0215 8.5603 21.275 8.30683L23.2837 6.2981H20.695C20.3365 6.2981 20.0459 6.00751 20.0459 5.64905C20.0459 5.29059 20.3365 5 20.695 5H24.8506H24.8506L24.8624 5.00011C24.9309 5.00133 24.9993 5.01335 25.0647 5.03614C25.1542 5.0673 25.2382 5.11862 25.3096 5.1901ZM5.9006 5.04925C5.82405 5.08092 5.75233 5.12787 5.6901 5.1901C5.62787 5.25233 5.58092 5.32405 5.54925 5.4006C5.51751 5.47713 5.5 5.56104 5.5 5.64905V9.80469C5.5 10.1632 5.79059 10.4537 6.14905 10.4537C6.50751 10.4537 6.7981 10.1632 6.7981 9.80469V7.21599L8.80683 9.22473C9.0603 9.4782 9.47126 9.4782 9.72473 9.22473C9.9782 8.97126 9.9782 8.5603 9.72473 8.30683L7.71599 6.2981H10.3047C10.6632 6.2981 10.9537 6.00751 10.9537 5.64905C10.9537 5.29059 10.6632 5 10.3047 5H6.1491H6.14905C6.06104 5 5.97713 5.01751 5.9006 5.04925ZM15.5113 10.9721C17.6575 10.9336 19.6407 12.112 20.6331 14.0149C20.9373 14.6351 20.9373 15.3613 20.6332 15.9816C19.6399 17.8838 17.6571 19.062 15.511 19.0244C15.5034 19.0243 15.4957 19.0243 15.488 19.0245C13.3419 19.063 11.3587 17.8847 10.3663 15.9819C10.2165 15.6757 10.1384 15.3393 10.1381 14.9983C10.1384 14.6573 10.2165 14.3209 10.3663 14.0147C11.3588 12.1119 13.3419 10.9336 15.488 10.9721C15.4958 10.9723 15.5036 10.9723 15.5113 10.9721ZM21.7881 13.4222C20.5713 11.082 18.1363 9.63105 15.4997 9.67406C12.8631 9.63107 10.4281 11.082 9.21131 13.4222L9.20504 13.4346C8.96528 13.9208 8.84037 14.4557 8.83995 14.9978V14.9988C8.84035 15.5409 8.96525 16.0757 9.20501 16.562L9.21128 16.5744C10.4281 18.9146 12.8631 20.3656 15.4998 20.3225C18.136 20.3643 20.5702 18.9138 21.7879 16.5747L21.7941 16.5624C22.2811 15.5765 22.2811 14.4201 21.7941 13.4342L21.7881 13.4222ZM22.1929 20.7736C21.9394 20.5202 21.5285 20.5202 21.275 20.7736C21.0215 21.0271 21.0215 21.4381 21.275 21.6915L23.2848 23.7013H20.695C20.3365 23.7013 20.0459 23.9919 20.0459 24.3504C20.0459 24.7088 20.3365 24.9994 20.695 24.9994H24.8506C25.1952 24.9994 25.4772 24.7308 25.4984 24.3915C25.4995 24.374 25.4999 24.3565 25.4997 24.339V20.1947C25.4997 19.8363 25.2091 19.5457 24.8506 19.5457C24.4921 19.5457 24.2016 19.8363 24.2016 20.1947V22.7823L22.1929 20.7736ZM9.72473 20.7736C9.9782 21.0271 9.9782 21.4381 9.72473 21.6915L7.71495 23.7013H10.3047C10.6632 23.7013 10.9537 23.9919 10.9537 24.3504C10.9537 24.7088 10.6632 24.9994 10.3047 24.9994H6.14905C5.79059 24.9994 5.5 24.7088 5.5 24.3504V24.3494V24.3493V20.1947C5.5 19.8363 5.79059 19.5457 6.14905 19.5457C6.50751 19.5457 6.7981 19.8363 6.7981 20.1947V22.7824L8.80683 20.7736C9.0603 20.5202 9.47126 20.5202 9.72473 20.7736ZM14.5901 14.9997C14.5901 14.4975 14.9972 14.0904 15.4994 14.0904C16.0016 14.0904 16.4087 14.4975 16.4087 14.9997C16.4087 15.5019 16.0016 15.909 15.4994 15.909C14.9972 15.909 14.5901 15.5019 14.5901 14.9997ZM15.4994 12.7923C14.2803 12.7923 13.292 13.7806 13.292 14.9997C13.292 16.2188 14.2803 17.2071 15.4994 17.2071C16.7185 17.2071 17.7068 16.2188 17.7068 14.9997C17.7068 13.7806 16.7185 12.7923 15.4994 12.7923Z" fill="black"/>
</svg>
