<svg width="80" height="80" viewBox="0 0 80 80" fill="none" xmlns="http://www.w3.org/2000/svg">
<rect x="0.5" y="0.5" width="79" height="79" rx="39.5" fill="white"/>
<path d="M37.5 35.75H48.75C50.1307 35.75 51.25 34.6307 51.25 33.25V20.75C51.25 19.3693 50.1307 18.25 48.75 18.25H37.5C36.1193 18.25 35 19.3693 35 20.75V33.25C35 34.6307 36.1193 35.75 37.5 35.75Z" stroke="black" stroke-width="1.5" stroke-linecap="round" stroke-linejoin="round"/>
<path d="M35 23.25V20.75C35 19.3693 36.1193 18.25 37.5 18.25H48.75C50.1307 18.25 51.25 19.3693 51.25 20.75V33.25C51.25 34.6307 50.1307 35.75 48.75 35.75H45" stroke="black" stroke-width="1.5" stroke-linecap="round" stroke-linejoin="round"/>
<path d="M32.5 40.25H43.75C45.5449 40.25 47 38.7949 47 37V24.5C47 22.7051 45.5449 21.25 43.75 21.25H32.5C30.7051 21.25 29.25 22.7051 29.25 24.5L29.25 37C29.25 38.7949 30.7051 40.25 32.5 40.25Z" fill="black" stroke="white" stroke-width="1.5" stroke-linecap="round" stroke-linejoin="round"/>
<path d="M31.25 41.5H42.5C44.2949 41.5 45.75 40.0449 45.75 38.25V25.75C45.75 23.9551 44.2949 22.5 42.5 22.5H31.25C29.4551 22.5 28 23.9551 28 25.75L28 38.25C28 40.0449 29.4551 41.5 31.25 41.5Z" fill="white" stroke="black" stroke-width="1.5" stroke-linecap="round" stroke-linejoin="round"/>
<path d="M37.5 32H33.75" stroke="black" stroke-width="1.5" stroke-linecap="round" stroke-linejoin="round"/>
<path d="M40 35.75L33.75 35.7501" stroke="black" stroke-width="1.5" stroke-linecap="round" stroke-linejoin="round"/>
<path d="M40 28.25L33.75 28.2501" stroke="black" stroke-width="1.5" stroke-linecap="round" stroke-linejoin="round"/>
<path d="M25.9688 55.1719H13.2031V53.9688H18.8438V52.4531H14.875V47.1562H16.3438V48.6719H22.8281V47.1562H24.3125V52.4531H20.3125V53.9688H25.9688V55.1719ZM24.4062 60.8281H22.9062V57.6094H14.625V56.4219H24.4062V60.8281ZM22.8281 51.2656V49.7812H16.3438V51.2656H22.8281ZM31.8906 50.3906C31.8854 51.2135 32.0312 52.026 32.3281 52.8281C32.625 53.625 33.0391 54.3411 33.5703 54.9766C34.1068 55.6068 34.7188 56.0885 35.4062 56.4219L34.4844 57.6094C33.7344 57.2188 33.0703 56.6536 32.4922 55.9141C31.9193 55.1745 31.4766 54.3307 31.1641 53.3828C30.8464 54.3932 30.388 55.2943 29.7891 56.0859C29.1953 56.8724 28.5052 57.4688 27.7188 57.875L26.7969 56.6719C27.5 56.3333 28.125 55.8333 28.6719 55.1719C29.224 54.5104 29.651 53.7604 29.9531 52.9219C30.2552 52.0833 30.4062 51.2396 30.4062 50.3906V48H31.8906V50.3906ZM37.9375 52.4062H40.1875V53.6719H37.9375V60.8281H36.4531V46.8281H37.9375V52.4062ZM51.7656 52.5H54.0156V53.7344H51.7656V60.8281H50.2969V46.8281H51.7656V52.5ZM49.0781 50.2344H40.7812V49.0156H44.2344V47.0156H45.7188V49.0156H49.0781V50.2344ZM44.9844 51.2656C45.6458 51.2656 46.2396 51.4036 46.7656 51.6797C47.2917 51.9557 47.7057 52.3411 48.0078 52.8359C48.3099 53.3307 48.4635 53.8906 48.4688 54.5156C48.4635 55.1458 48.3099 55.7083 48.0078 56.2031C47.7057 56.6979 47.2917 57.0833 46.7656 57.3594C46.2396 57.6354 45.6458 57.776 44.9844 57.7812C44.3177 57.776 43.7188 57.6354 43.1875 57.3594C42.6615 57.0833 42.2474 56.6979 41.9453 56.2031C41.6484 55.7083 41.5 55.1458 41.5 54.5156C41.5 53.8906 41.6484 53.3307 41.9453 52.8359C42.2474 52.3411 42.6615 51.9557 43.1875 51.6797C43.7188 51.4036 44.3177 51.2656 44.9844 51.2656ZM44.9844 52.4844C44.5938 52.4844 44.2396 52.5703 43.9219 52.7422C43.6042 52.9141 43.3568 53.1536 43.1797 53.4609C43.0026 53.7682 42.9167 54.1198 42.9219 54.5156C42.9167 54.9167 43.0026 55.2708 43.1797 55.5781C43.3568 55.8854 43.6016 56.1224 43.9141 56.2891C44.2318 56.4557 44.5885 56.5365 44.9844 56.5312C45.375 56.5365 45.7266 56.4557 46.0391 56.2891C46.3568 56.1224 46.6042 55.8854 46.7812 55.5781C46.9583 55.2708 47.0469 54.9167 47.0469 54.5156C47.0469 54.1198 46.9583 53.7682 46.7812 53.4609C46.6042 53.1536 46.3568 52.9141 46.0391 52.7422C45.7266 52.5703 45.375 52.4844 44.9844 52.4844ZM66.3281 60.8281H64.8281V46.8281H66.3281V60.8281ZM62.1562 48.3281C62.1562 50.4948 61.638 52.4219 60.6016 54.1094C59.5703 55.7917 57.9062 57.1823 55.6094 58.2812L54.8281 57.0781C56.6667 56.2031 58.0599 55.138 59.0078 53.8828C59.9609 52.6276 60.5104 51.1719 60.6562 49.5156H55.5V48.3281H62.1562Z" fill="black"/>
<rect x="0.5" y="0.5" width="79" height="79" rx="39.5" stroke="#AAAAAA"/>
</svg>
