<svg width="181" height="143" viewBox="0 0 181 143" fill="none" xmlns="http://www.w3.org/2000/svg">
<path d="M122.214 34.458C121.773 32.9067 121.325 31.2449 120.824 29.6019C119.089 23.8987 117.641 18.1334 117.029 12.1874C116.627 8.29169 116.671 4.47425 119.043 1.08577C119.327 0.678398 119.764 0.365449 120.162 0.049802C120.273 -0.0392265 120.504 0.0228237 120.967 0.00124102C119.699 5.08396 121.474 9.63521 123.602 14.0192C126.43 19.8492 129.249 25.7089 132.546 31.2799C146.848 55.4498 158.974 80.7312 171.273 105.924C173.962 111.435 176.464 117.041 179.235 122.51C182.268 128.496 181.135 133.973 177.792 139.393C176.372 141.7 174.466 142.997 171.791 143C168.632 143.003 165.472 142.862 162.313 142.752C141.757 142.037 121.206 141.233 100.647 140.618C83.4303 140.105 66.2055 139.649 48.9835 139.477C37.7389 139.366 26.4888 139.814 15.2415 139.997C13.8373 140.022 12.4249 139.881 11.0261 139.97C6.92461 140.232 4.51195 137.863 2.63604 134.699C1.9258 133.498 1.427 132.174 0.84146 130.897C-0.627822 127.692 -0.161555 124.757 2.1508 122.119C3.76918 120.273 5.38485 118.423 7.08455 116.653C18.1692 105.095 30.3816 94.8112 43.2229 85.2555C65.2242 68.885 88.2393 54.02 111.742 39.8968C115.025 37.9247 118.549 36.3438 122.214 34.4526V34.458ZM19.6683 124.857C21.1213 125.092 21.9319 125.332 22.7424 125.335C25.906 125.34 29.0696 125.275 32.2331 125.221C49.8211 124.924 67.3929 125.499 84.9511 126.344C101.108 127.123 117.251 128.159 133.399 129.095C144.281 129.727 155.162 130.388 166.044 131.016C166.873 131.065 167.819 131.321 168.527 130.067C168.283 129.457 168.036 128.642 167.651 127.903C159.537 112.366 151.462 96.8076 143.262 81.3167C137.189 69.8428 131.507 58.1962 126.712 46.1288C126.332 45.1738 125.809 44.2781 125.432 43.5146C124.638 43.3393 124.112 43.0884 123.63 43.1504C122.963 43.234 122.239 43.4256 121.686 43.7898C119.485 45.2331 117.338 46.7601 115.172 48.2601C96.83 60.9588 78.6212 73.8437 61.0115 87.5433C47.9723 97.6871 35.4075 108.381 23.8729 120.225C22.5581 121.574 21.3382 123.014 19.671 124.857H19.6683Z" fill="#CC0000"/>
</svg>
