<svg width="51" height="50" viewBox="0 0 51 50" fill="none" xmlns="http://www.w3.org/2000/svg">
<path d="M23.7728 8.33203H8.83268C6.5315 8.33203 4.66602 10.1975 4.66602 12.4987V39.5833C4.66602 41.8845 6.5315 43.7499 8.83268 43.7499H42.166C44.4672 43.7499 46.3327 41.8845 46.3327 39.5833V12.4987C46.3327 10.1975 44.4672 8.33203 42.166 8.33203H40.0827" stroke="black" stroke-width="2" stroke-linecap="round" stroke-linejoin="round"/>
<path fill-rule="evenodd" clip-rule="evenodd" d="M23.416 10.416C23.416 6.96424 26.2142 4.16602 29.666 4.16602H36.9589C37.7874 4.16602 38.5819 4.49512 39.1678 5.08093C39.7536 5.66675 40.0827 6.46129 40.0827 7.28977V34.3748C40.0827 36.1007 38.6836 37.4998 36.9577 37.4998H29.6656C26.214 37.4998 23.416 40.2978 23.416 43.7494V10.416Z" stroke="black" stroke-width="2" stroke-linecap="round" stroke-linejoin="round"/>
</svg>
