<svg width="134" height="158" viewBox="0 0 134 158" fill="none" xmlns="http://www.w3.org/2000/svg">
<path d="M12 156H122C127.523 156 132 151.523 132 146V36.1421C132 33.49 130.946 30.9464 129.071 29.0711L104.929 4.92893C103.054 3.05357 100.51 2 97.8579 2H12C6.47715 2 2 6.47716 2 12V146C2 151.523 6.47715 156 12 156Z" fill="#179F5A" stroke="#0A8443" stroke-width="4"/>
<path d="M111 31.0323H128.529C129.428 31.0323 129.87 29.9387 129.224 29.3137L102.695 3.64073C102.061 3.02666 101 3.47631 101 4.35933V21.0323C101 26.5551 105.477 31.0323 111 31.0323Z" fill="#0A8443" stroke="#0A8443" stroke-width="4"/>
<path d="M2 114H132V146C132 151.523 127.523 156 122 156H12C6.47715 156 2 151.523 2 146V114Z" fill="#0A8443"/>
<path d="M2 114H132H2ZM134 146C134 152.627 128.627 158 122 158H12C5.37258 158 0 152.627 0 146H4C4 150.418 7.58172 154 12 154H122C126.418 154 130 150.418 130 146H134ZM12 158C5.37258 158 0 152.627 0 146V114H4V146C4 150.418 7.58172 154 12 154V158ZM134 114V146C134 152.627 128.627 158 122 158V154C126.418 154 130 150.418 130 146V114H134Z" fill="#0A8443"/>
<path d="M45.8327 145L50.8007 135.856L46.0967 127.216H50.0567L51.8327 130.912C52.0407 131.312 52.2487 131.744 52.4567 132.208C52.6647 132.656 52.8967 133.152 53.1527 133.696H53.2487C53.4727 133.152 53.6807 132.656 53.8727 132.208C54.0647 131.744 54.2567 131.312 54.4487 130.912L56.1287 127.216H59.8727L55.1927 136L60.1847 145H56.2487L54.2567 141.064C54.0487 140.616 53.8247 140.152 53.5847 139.672C53.3607 139.192 53.1207 138.68 52.8647 138.136H52.7687C52.5447 138.68 52.3287 139.192 52.1207 139.672C51.9127 140.152 51.6967 140.616 51.4727 141.064L49.5767 145H45.8327ZM62.7035 145V127.216H66.2555V142.024H73.4795V145H62.7035ZM81.0388 145.336C79.8548 145.336 78.6948 145.112 77.5588 144.664C76.4228 144.216 75.4228 143.576 74.5588 142.744L76.5988 140.296C77.2228 140.888 77.9348 141.368 78.7348 141.736C79.5508 142.088 80.3428 142.264 81.1108 142.264C82.0388 142.264 82.7428 142.08 83.2228 141.712C83.7028 141.344 83.9428 140.848 83.9428 140.224C83.9428 139.776 83.8228 139.424 83.5828 139.168C83.3588 138.896 83.0468 138.656 82.6468 138.448C82.2468 138.24 81.7828 138.032 81.2548 137.824L78.9028 136.792C78.3108 136.552 77.7348 136.232 77.1748 135.832C76.6308 135.416 76.1748 134.896 75.8068 134.272C75.4548 133.648 75.2788 132.904 75.2788 132.04C75.2788 131.064 75.5428 130.192 76.0708 129.424C76.5988 128.656 77.3268 128.048 78.2548 127.6C79.1828 127.136 80.2388 126.904 81.4228 126.904C82.4788 126.904 83.4948 127.104 84.4708 127.504C85.4468 127.904 86.2948 128.472 87.0148 129.208L85.2148 131.416C84.6548 130.952 84.0708 130.592 83.4628 130.336C82.8548 130.08 82.1748 129.952 81.4228 129.952C80.6548 129.952 80.0388 130.12 79.5748 130.456C79.1268 130.776 78.9028 131.232 78.9028 131.824C78.9028 132.24 79.0308 132.584 79.2868 132.856C79.5428 133.128 79.8788 133.368 80.2948 133.576C80.7108 133.768 81.1668 133.968 81.6628 134.176L83.9908 135.112C84.7108 135.4 85.3348 135.76 85.8628 136.192C86.4068 136.624 86.8228 137.144 87.1108 137.752C87.4148 138.36 87.5668 139.096 87.5668 139.96C87.5668 140.92 87.3028 141.808 86.7748 142.624C86.2628 143.44 85.5188 144.096 84.5428 144.592C83.5828 145.088 82.4148 145.336 81.0388 145.336Z" fill="white"/>
<path d="M42 90L59.3077 64.2915L42.9197 40H56.7157L62.903 50.3914C63.6276 51.516 64.3523 52.7305 65.0769 54.0351C65.8016 55.2946 66.6098 56.6892 67.5017 58.2186H67.8361C68.6165 56.6892 69.3411 55.2946 70.01 54.0351C70.6789 52.7305 71.3478 51.516 72.0167 50.3914L77.8696 40H90.913L74.6087 64.6964L92 90H78.2876L71.3478 78.9339C70.6232 77.6743 69.8428 76.3698 69.0067 75.0202C68.2263 73.6707 67.3902 72.2312 66.4983 70.7018H66.1639C65.3835 72.2312 64.631 73.6707 63.9064 75.0202C63.1817 76.3698 62.4292 77.6743 61.6488 78.9339L55.0435 90H42Z" fill="white"/>
</svg>
