<svg width="34" height="35" viewBox="0 0 34 35" fill="none" xmlns="http://www.w3.org/2000/svg">
<path d="M15.059 22.8034L26.7748 29.5481C26.8775 29.6072 26.9933 29.6396 27.1117 29.6423C27.2301 29.645 27.3473 29.6181 27.4526 29.5638C27.5579 29.5095 27.6478 29.4298 27.7143 29.3317C27.7808 29.2337 27.8216 29.1206 27.8331 29.0027L30.1182 5.52713C30.1307 5.39889 30.108 5.26966 30.0525 5.15336C29.997 5.03706 29.9109 4.93809 29.8033 4.86712C29.6958 4.79615 29.5709 4.75586 29.4421 4.75059C29.3134 4.74532 29.1857 4.77527 29.0727 4.83722L2.83316 19.2306C2.70445 19.301 2.60078 19.4096 2.53648 19.5415C2.47218 19.6734 2.45043 19.822 2.47422 19.9668C2.49801 20.1116 2.56618 20.2454 2.66931 20.3498C2.77243 20.4542 2.90543 20.5239 3.04991 20.5495L12.577 22.2495" stroke="#1E3257" stroke-width="2" stroke-linecap="round" stroke-linejoin="round"/>
<path d="M25.6855 10.2922L15.0605 22.8042L15.2661 29.8875C15.2788 29.9774 15.32 30.0609 15.3836 30.1257C15.4472 30.1906 15.5298 30.2333 15.6195 30.2477C15.7092 30.2621 15.8011 30.2475 15.8818 30.2058C15.9625 30.1642 16.0277 30.0978 16.068 30.0164L18.36 27.5826" stroke="#1E3257" stroke-width="2" stroke-linecap="round" stroke-linejoin="round"/>
</svg>
