<svg width="90" height="79" viewBox="0 0 90 79" fill="none" xmlns="http://www.w3.org/2000/svg">
<path d="M0 5C0 2.23858 2.23858 0 5 0H85C87.7614 0 90 2.23858 90 5V69C90 71.7614 87.7614 74 85 74H5C2.23858 74 0 71.7614 0 69V5Z" fill="#81B01B"/>
<g clip-path="url(#clip0_6530_80548)">
<path d="M60 26.7796V36.6213C60 38.488 58.4983 40.0013 56.645 40.0013H33.355C31.5017 40.0013 30 38.488 30 36.6213V15.048C30 13.1813 31.5017 11.668 33.355 11.668H45" stroke="#81B01B" stroke-width="1.5" stroke-linecap="round" stroke-linejoin="round"/>
<path fill-rule="evenodd" clip-rule="evenodd" d="M38.0469 33.6209L44.2652 32.0659C44.5585 31.9926 44.8252 31.8409 45.0402 31.6276L59.0235 17.6442C60.3252 16.3426 60.3252 14.2326 59.0235 12.9309L58.7369 12.6442C57.4352 11.3426 55.3252 11.3426 54.0235 12.6442L40.0402 26.6276C39.8269 26.8409 39.6752 27.1092 39.6019 27.4026L38.0469 33.6209Z" stroke="#81B01B" stroke-width="1.5" stroke-linecap="round" stroke-linejoin="round"/>
<path d="M51.3838 15.2852L56.3838 20.2852" stroke="#81B01B" stroke-width="1.5" stroke-linecap="round" stroke-linejoin="round"/>
</g>
<path d="M43.536 54.872L42.736 56.568C40.16 56.184 38.32 54.984 37.376 53.4C36.432 54.984 34.576 56.184 32 56.568L31.2 54.872C34.56 54.408 36.24 52.504 36.24 50.776V50.072H38.496V50.776C38.496 52.488 40.192 54.408 43.536 54.872ZM44.016 57.656V59.368H38.368V64.392H36.256V59.368H30.704V57.656H44.016ZM53.4068 53.192H55.6148V49.64H57.7268V58.408H55.6148V54.904H53.4068V53.192ZM54.2868 56.36L53.2628 58.008C51.6628 57.48 50.5588 56.44 49.9188 55.144C49.2788 56.632 48.1108 57.832 46.3988 58.408L45.3268 56.744C47.6628 55.928 48.7348 54.056 48.7988 52.216H45.9028V50.52H53.8228V52.216H50.9588C51.0228 53.896 52.0468 55.624 54.2868 56.36ZM52.7508 62.792C54.6708 62.792 55.6788 62.392 55.6788 61.56C55.6788 60.728 54.6708 60.328 52.7508 60.328C50.8148 60.328 49.8068 60.728 49.8068 61.56C49.8068 62.392 50.8148 62.792 52.7508 62.792ZM52.7508 58.728C55.8708 58.728 57.7908 59.768 57.7908 61.56C57.7908 63.352 55.8708 64.392 52.7508 64.392C49.6148 64.392 47.6948 63.352 47.6948 61.56C47.6948 59.768 49.6148 58.728 52.7508 58.728Z" fill="#81B01B"/>
<path d="M44.1962 79L39 73H49.3923L44.1962 79Z" fill="#81B01B"/>
<defs>
<clipPath id="clip0_6530_80548">
<rect width="40" height="40" fill="#81B01B" transform="translate(25 5)"/>
</clipPath>
</defs>
</svg>
