<svg width="30" height="30" viewBox="0 0 30 30" fill="none" xmlns="http://www.w3.org/2000/svg">
<circle cx="15" cy="15" r="14.5" fill="#F7F7F7" stroke="#F7F7F7"/>
<mask id="mask0_1068_3534" style="mask-type:alpha" maskUnits="userSpaceOnUse" x="0" y="0" width="30" height="30">
<circle cx="15" cy="15" r="14.5" fill="#F7F7F7" stroke="#F7F7F7"/>
</mask>
<g mask="url(#mask0_1068_3534)">
<path d="M15 6C12.2421 6 10 8.24211 10 11C10 13.7053 12.1158 15.8947 14.8737 15.9895C14.9579 15.9789 15.0421 15.9789 15.1053 15.9895C15.1263 15.9895 15.1368 15.9895 15.1579 15.9895C15.1684 15.9895 15.1684 15.9895 15.1789 15.9895C17.8737 15.8947 19.9895 13.7053 20 11C20 8.24211 17.7579 6 15 6Z" fill="#AAAAAA"/>
<path d="M22.9385 19.8107C18.5791 17.3964 11.4697 17.3964 7.0791 19.8107C5.09473 20.914 4.00098 22.4067 4.00098 24.0032C4.00098 25.5998 5.09473 27.0795 7.06348 28.1698C9.25098 29.3899 12.126 30 15.001 30C17.876 30 20.751 29.3899 22.9385 28.1698C24.9072 27.0665 26.001 25.5868 26.001 23.9773C25.9854 22.3807 24.9072 20.901 22.9385 19.8107Z" fill="#AAAAAA"/>
</g>
</svg>
