<svg width="40" height="40" viewBox="0 0 40 40" fill="none" xmlns="http://www.w3.org/2000/svg">
<path d="M17.717 26.2393L31.5004 34.1743C31.6211 34.2438 31.7574 34.2819 31.8967 34.2851C32.036 34.2883 32.1739 34.2565 32.2977 34.1927C32.4216 34.1289 32.5274 34.035 32.6056 33.9197C32.6839 33.8044 32.7319 33.6713 32.7454 33.5326L35.4337 5.91428C35.4484 5.7634 35.4217 5.61136 35.3565 5.47454C35.2912 5.33771 35.1898 5.22129 35.0633 5.13779C34.9368 5.0543 34.7899 5.0069 34.6384 5.0007C34.4869 4.9945 34.3366 5.02973 34.2037 5.10261L3.33371 22.0359C3.18228 22.1188 3.06031 22.2466 2.98467 22.4018C2.90902 22.557 2.88343 22.7318 2.91142 22.9021C2.93941 23.0725 3.01961 23.2299 3.14094 23.3527C3.26226 23.4755 3.41872 23.5576 3.58871 23.5876L14.797 25.5876" stroke="#555555" stroke-width="2.5" stroke-linecap="round" stroke-linejoin="round"/>
<path d="M30.2188 11.5202L17.7188 26.2402L17.9606 34.5735C17.9755 34.6793 18.024 34.7775 18.0988 34.8538C18.1736 34.9301 18.2709 34.9804 18.3763 34.9973C18.4818 35.0143 18.59 34.997 18.6849 34.948C18.7798 34.8991 18.8566 34.821 18.9039 34.7252L21.6004 31.8619" stroke="#555555" stroke-width="2.5" stroke-linecap="round" stroke-linejoin="round"/>
</svg>
