<svg width="38" height="38" viewBox="0 0 38 38" fill="none" xmlns="http://www.w3.org/2000/svg">
<path d="M31.6667 15.8333V7.91667C31.6667 6.16777 30.2489 4.75 28.5 4.75H7.91667C6.16777 4.75 4.75 6.16777 4.75 7.91667V30.0833C4.75 31.8322 6.16777 33.25 7.91667 33.25H15.8333" stroke="black" stroke-width="1.5" stroke-linecap="round" stroke-linejoin="round"/>
<path d="M11.084 12.6665H25.334" stroke="black" stroke-width="1.5" stroke-linecap="round" stroke-linejoin="round"/>
<path d="M11.084 19H19.0007" stroke="black" stroke-width="1.5" stroke-linecap="round" stroke-linejoin="round"/>
<path d="M11.084 25.3335H15.834" stroke="black" stroke-width="1.5" stroke-linecap="round" stroke-linejoin="round"/>
<path fill-rule="evenodd" clip-rule="evenodd" d="M26.8369 21.4662C27.1036 20.9257 27.654 20.5835 28.2568 20.5835C28.8595 20.5835 29.41 20.9257 29.6767 21.4662L30.4822 23.0993C30.7128 23.5668 31.1587 23.8907 31.6745 23.9657L33.4765 24.2276C34.0728 24.3143 34.5681 24.7319 34.7544 25.305C34.9407 25.878 34.7856 26.507 34.3543 26.9278L33.0498 28.2002C32.6769 28.5639 32.5067 29.0878 32.5948 29.6013L32.9026 31.3956C33.0045 31.9896 32.7603 32.5899 32.2728 32.9441C31.7853 33.2984 31.1389 33.3452 30.6055 33.0648L28.9933 32.2175C28.5322 31.9751 27.9813 31.9751 27.5202 32.2175L25.908 33.0648C25.3746 33.3451 24.7283 33.2983 24.2408 32.944C23.7534 32.5898 23.5092 31.9895 23.611 31.3956L23.9189 29.6013C24.0069 29.0878 23.8368 28.5639 23.4639 28.2002L22.1594 26.9278C21.7281 26.507 21.573 25.878 21.7592 25.305C21.9455 24.7319 22.4409 24.3143 23.0371 24.2276L24.8392 23.9657C25.355 23.8907 25.8008 23.5668 26.0314 23.0993L26.8369 21.4662Z" stroke="black" stroke-width="1.5" stroke-linecap="round" stroke-linejoin="round"/>
</svg>
