<svg width="40" height="40" viewBox="0 0 40 40" fill="none" xmlns="http://www.w3.org/2000/svg">
<path fill-rule="evenodd" clip-rule="evenodd" d="M20.0002 26.6666C16.3185 26.6666 13.3335 23.6816 13.3335 20V9.99998C13.3335 6.31831 16.3185 3.33331 20.0002 3.33331C23.6818 3.33331 26.6668 6.31831 26.6668 9.99998V20C26.6668 23.6816 23.6818 26.6666 20.0002 26.6666Z" stroke="black" stroke-width="1.5" stroke-linecap="round" stroke-linejoin="round"/>
<path d="M31.6668 18.3333V19.8333C31.6668 26.3683 26.4435 31.6666 20.0002 31.6666C13.5568 31.6666 8.3335 26.3683 8.3335 19.8333V18.3333" stroke="black" stroke-width="1.5" stroke-linecap="round" stroke-linejoin="round"/>
<path d="M19.1665 10H20.8332" stroke="black" stroke-width="1.5" stroke-linecap="round" stroke-linejoin="round"/>
<path d="M18.3335 15H21.6668" stroke="black" stroke-width="1.5" stroke-linecap="round" stroke-linejoin="round"/>
<path d="M19.1665 20.05H20.8332" stroke="black" stroke-width="1.5" stroke-linecap="round" stroke-linejoin="round"/>
<path d="M20 31.6667V36.6667" stroke="black" stroke-width="1.5" stroke-linecap="round" stroke-linejoin="round"/>
<path d="M15 36.6667H25" stroke="black" stroke-width="1.5" stroke-linecap="round" stroke-linejoin="round"/>
</svg>
