<svg width="134" height="158" viewBox="0 0 134 158" fill="none" xmlns="http://www.w3.org/2000/svg">
<path d="M12 156H122C127.523 156 132 151.523 132 146V36.1421C132 33.49 130.946 30.9464 129.071 29.0711L104.929 4.92893C103.054 3.05357 100.51 2 97.8579 2H12C6.47715 2 2 6.47716 2 12V146C2 151.523 6.47715 156 12 156Z" fill="#1F91E4" stroke="#115F9A" stroke-width="4"/>
<path d="M111 31.0323H128.529C129.428 31.0323 129.87 29.9387 129.224 29.3137L102.695 3.64073C102.061 3.02666 101 3.47631 101 4.35933V21.0323C101 26.5551 105.477 31.0323 111 31.0323Z" fill="#115F9A" stroke="#115F9A" stroke-width="4"/>
<path d="M2 114H132V146C132 151.523 127.523 156 122 156H12C6.47715 156 2 151.523 2 146V114Z" fill="#115F9A"/>
<path d="M2 114H132H2ZM134 146C134 152.627 128.627 158 122 158H12C5.37258 158 0 152.627 0 146H4C4 150.418 7.58172 154 12 154H122C126.418 154 130 150.418 130 146H134ZM12 158C5.37258 158 0 152.627 0 146V114H4V146C4 150.418 7.58172 154 12 154V158ZM134 114V146C134 152.627 128.627 158 122 158V154C126.418 154 130 150.418 130 146V114H134Z" fill="#115F9A"/>
<path d="M43.5082 145V127.216H48.3802C50.2042 127.216 51.7642 127.536 53.0602 128.176C54.3722 128.816 55.3802 129.784 56.0842 131.08C56.8042 132.376 57.1642 134.024 57.1642 136.024C57.1642 138.024 56.8122 139.688 56.1082 141.016C55.4042 142.344 54.4122 143.344 53.1322 144.016C51.8522 144.672 50.3322 145 48.5722 145H43.5082ZM47.0602 142.12H48.1402C49.2602 142.12 50.2202 141.92 51.0202 141.52C51.8362 141.104 52.4602 140.448 52.8922 139.552C53.3242 138.64 53.5402 137.464 53.5402 136.024C53.5402 134.584 53.3242 133.432 52.8922 132.568C52.4602 131.688 51.8362 131.056 51.0202 130.672C50.2202 130.272 49.2602 130.072 48.1402 130.072H47.0602V142.12ZM67.697 145.336C66.129 145.336 64.745 144.968 63.545 144.232C62.361 143.48 61.433 142.408 60.761 141.016C60.089 139.624 59.753 137.96 59.753 136.024C59.753 134.104 60.089 132.464 60.761 131.104C61.433 129.744 62.361 128.704 63.545 127.984C64.745 127.264 66.129 126.904 67.697 126.904C69.281 126.904 70.665 127.272 71.849 128.008C73.033 128.728 73.961 129.768 74.633 131.128C75.305 132.472 75.641 134.104 75.641 136.024C75.641 137.96 75.305 139.624 74.633 141.016C73.961 142.408 73.033 143.48 71.849 144.232C70.665 144.968 69.281 145.336 67.697 145.336ZM67.697 142.264C68.577 142.264 69.337 142.008 69.977 141.496C70.633 140.984 71.137 140.264 71.489 139.336C71.841 138.392 72.017 137.288 72.017 136.024C72.017 134.76 71.841 133.68 71.489 132.784C71.137 131.872 70.633 131.176 69.977 130.696C69.337 130.2 68.577 129.952 67.697 129.952C66.817 129.952 66.049 130.2 65.393 130.696C64.753 131.176 64.257 131.872 63.905 132.784C63.569 133.68 63.401 134.76 63.401 136.024C63.401 137.288 63.569 138.392 63.905 139.336C64.257 140.264 64.753 140.984 65.393 141.496C66.049 142.008 66.817 142.264 67.697 142.264ZM86.3338 145.336C85.2138 145.336 84.1658 145.144 83.1898 144.76C82.2138 144.36 81.3498 143.768 80.5978 142.984C79.8618 142.2 79.2778 141.24 78.8458 140.104C78.4298 138.968 78.2218 137.664 78.2218 136.192C78.2218 134.72 78.4378 133.416 78.8698 132.28C79.3018 131.128 79.8938 130.152 80.6458 129.352C81.4138 128.552 82.2938 127.944 83.2858 127.528C84.2938 127.112 85.3578 126.904 86.4778 126.904C87.6138 126.904 88.6218 127.136 89.5018 127.6C90.3978 128.048 91.1258 128.576 91.6858 129.184L89.8378 131.44C89.3898 130.992 88.8938 130.632 88.3498 130.36C87.8218 130.088 87.2218 129.952 86.5498 129.952C85.6538 129.952 84.8458 130.2 84.1258 130.696C83.4218 131.176 82.8698 131.872 82.4698 132.784C82.0698 133.696 81.8698 134.792 81.8698 136.072C81.8698 137.368 82.0538 138.48 82.4218 139.408C82.8058 140.32 83.3418 141.024 84.0298 141.52C84.7338 142.016 85.5498 142.264 86.4778 142.264C87.2458 142.264 87.9258 142.104 88.5178 141.784C89.1258 141.448 89.6618 141.024 90.1258 140.512L92.0218 142.72C91.2858 143.584 90.4458 144.24 89.5018 144.688C88.5578 145.12 87.5018 145.336 86.3338 145.336Z" fill="white"/>
<path d="M46.4201 90L35 40H46.5787L51.4957 64.6429C51.8658 67.1429 52.2094 69.5833 52.5266 71.9643C52.8439 74.3452 53.1875 76.7857 53.5576 79.2857H53.9542C54.43 76.7857 54.8794 74.3452 55.3024 71.9643C55.7253 69.5238 56.2012 67.0833 56.7299 64.6429L62.1227 40H72.4325L77.9839 64.6429C78.5126 67.1429 78.9884 69.5833 79.4114 71.9643C79.8344 74.3452 80.3102 76.7857 80.8389 79.2857H81.1561C81.5791 76.7857 81.9492 74.3452 82.2664 71.9643C82.6365 69.5833 83.0331 67.1429 83.456 64.6429L88.1351 40H99L88.0558 90H74.3358L69.6568 68.2143C69.1809 65.8333 68.7315 63.4821 68.3086 61.1607C67.9385 58.7798 67.5155 56.25 67.0397 53.5714H66.6431C66.273 56.25 65.9029 58.7798 65.5328 61.1607C65.1627 63.5417 64.7398 65.8929 64.2639 68.2143L59.7435 90H46.4201Z" fill="white"/>
</svg>
