<svg width="41" height="41" viewBox="0 0 41 41" fill="none" xmlns="http://www.w3.org/2000/svg">
<g clip-path="url(#clip0_1152_153444)">
<path fill-rule="evenodd" clip-rule="evenodd" d="M11.5096 14.5574H7.55131C6.63131 14.5574 5.88464 15.3041 5.88464 16.2241V24.1408C5.88464 25.0608 6.63131 25.8074 7.55131 25.8074H11.5096L18.1413 31.4258C19.2246 32.3441 20.8846 31.5741 20.8846 30.1541V10.2108C20.8846 8.79076 19.223 8.02076 18.1413 8.93909L11.5096 14.5574Z" stroke="white" stroke-width="1.5" stroke-linecap="round" stroke-linejoin="round"/>
<path d="M25.6122 26.8126C27.5488 25.6093 28.8838 23.1059 28.8838 20.1909C28.8838 17.2759 27.5488 14.7709 25.6122 13.5526" stroke="white" stroke-width="1.5" stroke-linecap="round" stroke-linejoin="round"/>
<path d="M30.559 31.9574C33.5723 29.3657 35.5507 25.0657 35.5507 20.1874C35.5507 15.3024 33.569 10.9991 30.5507 8.40906" stroke="white" stroke-width="1.5" stroke-linecap="round" stroke-linejoin="round"/>
</g>
<defs>
<clipPath id="clip0_1152_153444">
<rect width="40" height="40" fill="white" transform="translate(0.717651 0.182495)"/>
</clipPath>
</defs>
</svg>
