<svg width="36" height="66" viewBox="0 0 36 66" fill="none" xmlns="http://www.w3.org/2000/svg">
<path d="M30.9691 0.2276C30.9691 0.2276 23.6447 0 20.2593 0C19.1384 0 18.4403 0.300432 18.0054 0.699491L18.0024 0.691905L0.904061 16.9577C0.904061 16.9577 -0.728439 18.7072 0.393999 20.355C1.51644 22.0014 4.77692 25.7841 6.57042 27.4577C7.35281 28.1875 8.30523 28.796 10.7562 26.6338C11.6756 25.822 14.608 23.4064 16.8815 21.4217L17.1012 35.6817C17.1012 35.6817 16.8755 53.8912 16.8755 58.8999C16.8755 62.9208 20.5557 62.9208 20.5557 62.9208C20.5557 62.9208 22.4004 62.8192 28.959 62.9967C34.526 63.1484 33.7421 57.9895 33.7421 57.9895C33.7421 57.9895 33.7632 9.10553 33.9889 4.55352C34.2131 0 30.9691 0.2276 30.9691 0.2276Z" fill="#009967"/>
</svg>
