<svg width="36" height="66" viewBox="0 0 36 66" fill="none" xmlns="http://www.w3.org/2000/svg">
<path d="M0.476799 12.0507C0.476799 12.0507 3.04372 0 18.3093 0C29.0087 0.287592 35.002 4.16021 35.1436 16.6423C35.2866 29.1243 21.1622 45.9089 21.1622 45.9089C21.1622 45.9089 28.3751 45.9935 31.2911 45.7651C32.6145 45.6622 35.9987 45.6213 35.9987 50.4991C35.9987 55.3769 35.9987 58.2458 33.5734 58.6772C31.1481 59.1071 13.7432 59.1071 4.75407 58.6772C3.33532 58.6095 2.75633 56.5259 2.89932 53.5118C3.04232 50.4991 2.04275 46.6251 4.89706 43.3263C7.21444 40.6463 18.3317 25.2573 19.449 20.6587C21.0178 14.2034 18.8574 13.1573 16.7377 13.4858C13.0282 14.0596 9.60472 21.2324 9.60472 21.2324C9.60472 21.2324 9.17714 23.6713 5.03866 21.95C0.904386 20.2287 -0.950359 18.9373 0.476799 12.0507Z" fill="#4765B0"/>
</svg>
