<svg width="36" height="66" viewBox="0 0 36 66" fill="none" xmlns="http://www.w3.org/2000/svg">
<path d="M31.505 9.1175C31.505 9.1175 25.7714 8.9335 22.9827 8.9335C20.194 8.9335 20.5658 11.1416 20.5658 11.1416L20.3799 31.8384H13.925L16.2588 7.37068C16.2588 7.37068 17.0781 3.93715 12.7277 3.50045C8.4591 3.07233 4.80031 1.75363 3.97981 6.43471C3.16055 11.1158 1.14276 28.2184 0.0706514 37.4567C-0.102869 38.9471 -0.118981 40.9516 2.02523 43.1363C4.20167 45.353 5.49439 45.1334 9.27836 45.0708C11.4771 45.034 15.7792 45.0193 20.2337 45.0132C20.2114 47.393 20.1952 49.4967 20.1952 50.6842C20.1952 53.9349 23.2269 53.9349 23.2269 53.9349C23.2269 53.9349 24.2965 53.8528 29.6992 53.9963C34.2851 54.1189 33.7893 49.9482 33.7893 49.9482C33.7893 49.9482 33.8067 16.2949 33.9926 12.6148C34.1785 8.93472 31.5075 9.11873 31.5075 9.11873L31.505 9.1175Z" fill="#F89F45"/>
</svg>
