<svg width="36" height="66" viewBox="0 0 36 66" fill="none" xmlns="http://www.w3.org/2000/svg">
<path d="M19.0144 48.3108C15.7102 48.3108 14.9452 44.1942 15.0491 41.2191C15.1271 38.9587 16.0154 35.0297 19.8079 35.0297C22.8926 35.0297 23.377 38.4253 23.5082 41.133C23.6407 43.8407 22.3185 48.3108 19.0144 48.3108ZM36 39.0702C36 25.4888 20.8651 21.4913 14.7855 26.391C14.7855 23.1676 19.8079 16.4624 22.3198 14.3997C25.8889 12.0785 23.9446 9.11233 23.2445 7.69452C21.5262 4.21269 17.0324 1.50502 10.1592 7.69452C7.94474 9.68884 2.36122 17.8815 0.510435 29.6143C-1.88844 44.8264 4.26655 57.7287 16.8999 58.8842C29.5879 60.0448 36 52.3514 36 39.0702Z" fill="#866AC2"/>
</svg>
