<svg width="36" height="66" viewBox="0 0 36 66" fill="none" xmlns="http://www.w3.org/2000/svg">
<path d="M0.822087 16.3342C0.822087 16.3342 3.06443 3 17.5019 3C25.7715 3 32.3595 9.94416 33.0605 14.5286C33.796 19.3368 32.3595 26.4734 27.5938 29.6671C33.6211 32.0282 36.705 37.1667 35.8634 44.6677C35.0384 52.0309 28.1833 60 18.7925 60C9.40165 60 4.25309 56.0448 0.401993 50.2225C-0.474007 48.8986 0.121012 47.5829 1.80414 46.3341C3.4859 45.084 5.15663 43.8543 6.2902 43.0013C7.30393 42.237 8.90856 41.1042 11.3368 43.696C13.1591 45.6408 17.6438 46.4734 19.3269 43.696C21.6078 39.9304 19.3269 36.0571 13.4401 35.9179C11.8988 36.0571 11.6178 34.3907 11.6178 32.8621C11.6178 31.3335 11.7583 28.9737 11.7583 28.9737C11.7583 28.9737 11.1123 27.3196 14.2816 26.4734C17.9261 25.5017 20.4494 23.1405 19.0473 19.39C17.6727 15.7132 13.0833 16.341 11.0572 21.6119C10.4966 23.0709 9.27493 22.8826 7.71714 22.7925C6.42242 22.7174 4.81505 22.3926 3.20767 21.4741C0.542483 19.8063 0.261502 18.4169 0.822087 16.3328V16.3342Z" fill="#BB458F"/>
</svg>
