<svg width="36" height="66" viewBox="0 0 36 66" fill="none" xmlns="http://www.w3.org/2000/svg">
<path d="M1.71997 7.60749C1.71997 7.60749 1.35581 27.9669 1.61352 33.7215C1.69196 35.463 1.95667 38.4662 6.89804 38.276C11.8394 38.0858 20.9854 35.8505 20.9854 42.008C20.9854 48.1655 12.9557 49.5531 9.29729 46.5163C6.25656 43.9915 4.35593 44.2391 2.64577 46.5163C0.935625 48.7935 -0.965008 51.0722 0.556059 53.7285C2.07573 56.3862 7.0255 61.398 16.7654 61.9673C29.1538 62.6919 36 51.226 36 40.7854C36 30.3449 27.0683 23.8936 14.9446 25.4113C14.7863 24.2727 14.9992 19.528 14.9992 19.528C14.9992 19.528 25.7391 19.6707 29.158 19.528C33.7198 19.3378 33.9089 15.7317 33.9089 10.2638C33.9089 7.98656 34.6694 4 28.207 4C20.414 4 10.8646 4 5.23411 4C3.97496 4.0014 1.90905 4.76094 1.71997 7.60749Z" fill="#87BD4E"/>
</svg>
