<svg width="191" height="190" viewBox="0 0 191 190" fill="none" xmlns="http://www.w3.org/2000/svg">
<mask id="mask0_2654_323015" style="mask-type:alpha" maskUnits="userSpaceOnUse" x="0" y="0" width="191" height="190">
<circle cx="95.2969" cy="95" r="94.5" fill="#F7F7F7" stroke="#F7F7F7"/>
</mask>
<g mask="url(#mask0_2654_323015)">
<path d="M95.2975 38C77.8309 38 63.6309 52.2 63.6309 69.6667C63.6309 86.8 77.0309 100.667 94.4975 101.267C95.0309 101.2 95.5642 101.2 95.9642 101.267C96.0975 101.267 96.1642 101.267 96.2975 101.267C96.3642 101.267 96.3642 101.267 96.4309 101.267C113.498 100.667 126.898 86.8 126.964 69.6667C126.964 52.2 112.764 38 95.2975 38Z" fill="#AAAAAA"/>
<path d="M145.574 125.468C117.965 110.177 72.9388 110.177 45.1315 125.468C32.5638 132.455 25.6367 141.909 25.6367 152.021C25.6367 162.132 32.5638 171.504 45.0326 178.409C58.8867 186.136 77.0951 190 95.3034 190C113.512 190 131.72 186.136 145.574 178.409C158.043 171.421 164.97 162.05 164.97 151.856C164.871 141.745 158.043 132.373 145.574 125.468Z" fill="#AAAAAA"/>
</g>
</svg>
