<svg width="23" height="27" viewBox="0 0 23 27" fill="none" xmlns="http://www.w3.org/2000/svg">
<path d="M3.69141 26.4831C3.02344 27.0386 2.08828 27.1651 1.29375 26.7925C0.499219 26.4198 0 25.6253 0 24.7534V2.25343C0 1.38155 0.50625 0.587021 1.29375 0.214365C2.08125 -0.158292 3.01641 -0.0387602 3.69141 0.52374L17.1914 11.7737L18 12.4487V2.25343C18 1.0089 19.0055 0.00342719 20.25 0.00342719C21.4945 0.00342719 22.5 1.0089 22.5 2.25343V24.7534C22.5 25.998 21.4945 27.0034 20.25 27.0034C19.0055 27.0034 18 25.998 18 24.7534V14.5581L17.1914 15.2331L3.69141 26.4831Z" fill="black"/>
</svg>
