<?xml version="1.0" encoding="utf-8"?>
<!-- Generator: Adobe Illustrator 23.1.0, SVG Export Plug-In . SVG Version: 6.00 Build 0)  -->
<svg version="1.1" id="레이어_1" xmlns="http://www.w3.org/2000/svg" xmlns:xlink="http://www.w3.org/1999/xlink" x="0px"
	 y="0px" viewBox="0 0 33 26" style="enable-background:new 0 0 33 26;" xml:space="preserve">
<path d="M18.1,0.2c0.7,0.3,1.1,1,1.1,1.7v22.3c0,0.7-0.4,1.4-1.1,1.7c-0.7,0.3-1.5,0.2-2.1-0.3l-8.1-7H3.9c-2.1,0-3.9-1.7-3.9-3.7
	v-3.7c0-2,1.7-3.7,3.9-3.7h4.1l8.1-7C16.6,0,17.4-0.1,18.1,0.2z M32.5,10.8c0.6-0.6,0.6-1.7,0-2.3c-0.6-0.6-1.7-0.6-2.3,0l-2.3,2.3
	l-2.3-2.3c-0.6-0.6-1.7-0.6-2.3,0s-0.6,1.7,0,2.3l2.3,2.3l-2.3,2.3c-0.6,0.6-0.6,1.7,0,2.3s1.7,0.6,2.3,0l2.3-2.3l2.3,2.3
	c0.6,0.6,1.7,0.6,2.3,0c0.6-0.6,0.6-1.7,0-2.3l-2.3-2.3L32.5,10.8z"/>
</svg>
