<?xml version="1.0" encoding="utf-8"?>
<!-- Generator: Adobe Illustrator 23.1.0, SVG Export Plug-In . SVG Version: 6.00 Build 0)  -->
<svg version="1.1" id="레이어_1" xmlns="http://www.w3.org/2000/svg" xmlns:xlink="http://www.w3.org/1999/xlink" x="0px"
	 y="0px" viewBox="0 0 33 26" style="enable-background:new 0 0 33 26;" xml:space="preserve">
<path d="M18.2,0.2c0.7,0.3,1.1,1,1.1,1.7v22.3c0,0.7-0.4,1.4-1.1,1.7c-0.7,0.3-1.5,0.2-2.1-0.3l-8.1-7H3.9c-2.1,0-3.9-1.7-3.9-3.7
	v-3.7c0-2,1.7-3.7,3.9-3.7H8l8.1-7C16.7,0,17.5-0.1,18.2,0.2z"/>
<path d="M35.3,10.6c0.8-0.8,0.8-2.1,0-2.9s-2.1-0.8-2.9,0l-2.9,2.9l-2.9-2.9c-0.8-0.8-2.1-0.8-2.9,0s-0.8,2.1,0,2.9l2.9,2.9
	l-2.9,2.9c-0.8,0.8-0.8,2.1,0,2.9c0.8,0.8,2.1,0.8,2.9,0l2.9-2.9l2.9,2.9c0.8,0.8,2.1,0.8,2.9,0c0.8-0.8,0.8-2.1,0-2.9l-2.9-2.9
	L35.3,10.6z"/>
</svg>
