<svg width="27" height="30" viewBox="0 0 27 30" fill="none" xmlns="http://www.w3.org/2000/svg">
<g clip-path="url(#clip0_2427_181203)">
<path d="M1.875 1.875C0.837891 1.875 0 2.71289 0 3.75V9.375C0 10.4121 0.837891 11.25 1.875 11.25C2.91211 11.25 3.75 10.4121 3.75 9.375V5.625H7.5C8.53711 5.625 9.375 4.78711 9.375 3.75C9.375 2.71289 8.53711 1.875 7.5 1.875H1.875ZM3.75 20.625C3.75 19.5879 2.91211 18.75 1.875 18.75C0.837891 18.75 0 19.5879 0 20.625V26.25C0 27.2871 0.837891 28.125 1.875 28.125H7.5C8.53711 28.125 9.375 27.2871 9.375 26.25C9.375 25.2129 8.53711 24.375 7.5 24.375H3.75V20.625ZM18.75 1.875C17.7129 1.875 16.875 2.71289 16.875 3.75C16.875 4.78711 17.7129 5.625 18.75 5.625H22.5V9.375C22.5 10.4121 23.3379 11.25 24.375 11.25C25.4121 11.25 26.25 10.4121 26.25 9.375V3.75C26.25 2.71289 25.4121 1.875 24.375 1.875H18.75ZM26.25 20.625C26.25 19.5879 25.4121 18.75 24.375 18.75C23.3379 18.75 22.5 19.5879 22.5 20.625V24.375H18.75C17.7129 24.375 16.875 25.2129 16.875 26.25C16.875 27.2871 17.7129 28.125 18.75 28.125H24.375C25.4121 28.125 26.25 27.2871 26.25 26.25V20.625Z" fill="black"/>
</g>
<defs>
<clipPath id="clip0_2427_181203">
<rect width="26.25" height="30" fill="white"/>
</clipPath>
</defs>
</svg>
