<svg width="36" height="32" viewBox="0 0 36 32" fill="none" xmlns="http://www.w3.org/2000/svg">
<path fill-rule="evenodd" clip-rule="evenodd" d="M28.0479 8.13489C22.4984 2.46009 13.5016 2.46009 7.95213 8.13488C2.40192 13.8105 2.40192 23.013 7.95214 28.6886C8.69243 29.4456 8.693 30.6736 7.95342 31.4313C7.21383 32.189 6.01415 32.1896 5.27386 31.4326C-1.75795 24.242 -1.75795 12.5815 5.27385 5.39085C12.3029 -1.79695 23.6971 -1.79695 30.7261 5.39086C37.758 12.5815 37.758 24.242 30.7262 31.4326C29.9859 32.1896 28.7862 32.1891 28.0466 31.4313C27.307 30.6736 27.3076 29.4456 28.0479 28.6886C33.5981 23.013 33.5981 13.8105 28.0479 8.13489ZM25.5832 10.992C26.3642 11.7731 26.3642 13.0394 25.5832 13.8204L21.5335 17.8701C21.6218 18.2006 21.669 18.5479 21.669 18.9062C21.669 21.1154 19.8781 22.9062 17.669 22.9062C15.4598 22.9062 13.669 21.1154 13.669 18.9062C13.669 16.6971 15.4598 14.9062 17.669 14.9062C18.0273 14.9062 18.3746 14.9534 18.7051 15.0417L22.7548 10.992C23.5358 10.211 24.8021 10.211 25.5832 10.992Z" fill="black"/>
</svg>
