<svg width="33" height="26" viewBox="0 0 33 26" fill="none" xmlns="http://www.w3.org/2000/svg">
<path d="M18.1218 0.161387C18.8139 0.463169 19.2593 1.12477 19.2593 1.85601V24.1414C19.2593 24.8727 18.8139 25.5343 18.1218 25.8361C17.4296 26.1378 16.6171 26.016 16.0514 25.5285L7.93241 18.5701H3.85185C1.72731 18.5701 0 16.9045 0 14.8558V11.1416C0 9.09297 1.72731 7.42736 3.85185 7.42736H7.93241L16.0514 0.468972C16.6171 -0.0185214 17.4296 -0.134591 18.1218 0.161387ZM28.4736 4.35151C31.0736 6.39434 32.7407 9.51082 32.7407 12.9987C32.7407 16.4866 31.0736 19.6031 28.4736 21.6459C27.8537 22.1334 26.9449 22.0406 26.4394 21.4428C25.9338 20.845 26.0301 19.9687 26.65 19.4812C28.606 17.9491 29.8519 15.6161 29.8519 12.9987C29.8519 10.3813 28.606 8.04834 26.65 6.51041C26.0301 6.02292 25.9398 5.14659 26.4394 4.54883C26.9389 3.95107 27.8537 3.86402 28.4736 4.34571V4.35151ZM24.8324 8.67512C26.1264 9.69653 26.963 11.2519 26.963 12.9987C26.963 14.7456 26.1264 16.3009 24.8324 17.3223C24.2125 17.8098 23.3037 17.717 22.7981 17.1192C22.2926 16.5214 22.3889 15.6451 23.0088 15.1576C23.6588 14.6469 24.0741 13.8692 24.0741 12.9987C24.0741 12.1282 23.6588 11.3505 23.0088 10.834C22.3889 10.3465 22.2986 9.47019 22.7981 8.87243C23.2977 8.27467 24.2125 8.18762 24.8324 8.66931V8.67512Z" fill="black"/>
</svg>
