<svg width="28" height="28" viewBox="0 0 28 28" fill="none" xmlns="http://www.w3.org/2000/svg">
<path d="M0 3.5C0 1.56953 1.56953 0 3.5 0H24.5C26.4305 0 28 1.56953 28 3.5V19.25C28 21.1805 26.4305 22.75 24.5 22.75H16.9148L10.15 27.825C9.8875 28.0219 9.53203 28.0547 9.23125 27.907C8.93047 27.7594 8.75 27.4586 8.75 27.125V22.75H3.5C1.56953 22.75 0 21.1805 0 19.25V3.5ZM6.5625 10.5C5.83516 10.5 5.25 11.0852 5.25 11.8125C5.25 12.5398 5.83516 13.125 6.5625 13.125H14.4375C15.1648 13.125 15.75 12.5398 15.75 11.8125C15.75 11.0852 15.1648 10.5 14.4375 10.5H6.5625ZM18.8125 10.5C18.0852 10.5 17.5 11.0852 17.5 11.8125C17.5 12.5398 18.0852 13.125 18.8125 13.125H21.4375C22.1648 13.125 22.75 12.5398 22.75 11.8125C22.75 11.0852 22.1648 10.5 21.4375 10.5H18.8125ZM6.5625 14.875C5.83516 14.875 5.25 15.4602 5.25 16.1875C5.25 16.9148 5.83516 17.5 6.5625 17.5H9.1875C9.91484 17.5 10.5 16.9148 10.5 16.1875C10.5 15.4602 9.91484 14.875 9.1875 14.875H6.5625ZM13.5625 14.875C12.8352 14.875 12.25 15.4602 12.25 16.1875C12.25 16.9148 12.8352 17.5 13.5625 17.5H21.4375C22.1648 17.5 22.75 16.9148 22.75 16.1875C22.75 15.4602 22.1648 14.875 21.4375 14.875H13.5625Z" fill="black"/>
</svg>
