<svg width="99" height="245" viewBox="0 0 99 245" fill="none" xmlns="http://www.w3.org/2000/svg">
<rect width="99" height="245" rx="8" fill="#FBE6B0"/>
<path d="M23.6309 45.4824C24.3945 45.4824 25.078 45.7038 25.6812 46.1465C26.2843 46.5837 26.7547 47.209 27.0923 48.0225C27.4354 48.8359 27.6097 49.7822 27.6152 50.8613C27.6097 51.946 27.4354 52.8978 27.0923 53.7168C26.7547 54.5303 26.2843 55.1584 25.6812 55.6011C25.0835 56.0382 24.4001 56.2568 23.6309 56.2568C22.8617 56.2568 22.1727 56.0382 21.564 55.6011C20.9608 55.1584 20.4876 54.5303 20.1445 53.7168C19.807 52.8978 19.641 51.946 19.6465 50.8613C19.641 49.7878 19.807 48.8442 20.1445 48.0308C20.4876 47.2173 20.9608 46.5892 21.564 46.1465C22.1727 45.7038 22.8617 45.4824 23.6309 45.4824ZM23.6309 47.3916C23.2435 47.3916 22.9032 47.5272 22.6099 47.7983C22.3166 48.064 22.0897 48.4569 21.9292 48.9771C21.7687 49.4972 21.6885 50.1253 21.6885 50.8613C21.6885 51.5973 21.7687 52.2282 21.9292 52.7539C22.0897 53.2741 22.3166 53.667 22.6099 53.9326C22.9032 54.1982 23.2435 54.3311 23.6309 54.3311C24.0238 54.3311 24.3669 54.1982 24.6602 53.9326C24.9535 53.667 25.1803 53.2741 25.3408 52.7539C25.5013 52.2337 25.5843 51.6029 25.5898 50.8613C25.5843 50.1253 25.5013 49.4972 25.3408 48.9771C25.1803 48.4569 24.9535 48.064 24.6602 47.7983C24.3669 47.5272 24.0238 47.3916 23.6309 47.3916ZM31.4834 50.1143H33.708V51.874H31.4834V59.5273H29.3584V44.4199H31.4834V50.1143ZM46.9062 59.5605H44.7646V44.4199H46.9062V59.5605ZM38.7051 45.4824C39.4632 45.4824 40.1411 45.7038 40.7388 46.1465C41.342 46.5892 41.8151 47.2173 42.1582 48.0308C42.5013 48.8442 42.6729 49.7878 42.6729 50.8613C42.6729 51.946 42.5013 52.8978 42.1582 53.7168C41.8151 54.5303 41.342 55.1584 40.7388 55.6011C40.1411 56.0382 39.4632 56.2568 38.7051 56.2568C37.9303 56.2568 37.2386 56.0382 36.6299 55.6011C36.0212 55.1584 35.5452 54.5303 35.2021 53.7168C34.8646 52.8978 34.6986 51.946 34.7041 50.8613C34.6986 49.7878 34.8646 48.8442 35.2021 48.0308C35.5452 47.2173 36.0212 46.5892 36.6299 46.1465C37.2386 45.7038 37.9303 45.4824 38.7051 45.4824ZM38.7051 47.3916C38.3122 47.3916 37.9663 47.5272 37.6675 47.7983C37.3742 48.064 37.1473 48.4569 36.9868 48.9771C36.8263 49.4972 36.7461 50.1253 36.7461 50.8613C36.7461 51.6029 36.8263 52.2337 36.9868 52.7539C37.1473 53.2741 37.3742 53.667 37.6675 53.9326C37.9663 54.1982 38.3122 54.3311 38.7051 54.3311C39.0924 54.3311 39.43 54.1982 39.7178 53.9326C40.0055 53.6615 40.2297 53.2658 40.3901 52.7456C40.5506 52.2254 40.6309 51.5973 40.6309 50.8613C40.6309 50.1309 40.5506 49.5055 40.3901 48.9854C40.2297 48.4596 40.0028 48.064 39.7095 47.7983C39.4217 47.5272 39.0869 47.3916 38.7051 47.3916ZM61.5986 59.5605H59.457V44.4199H61.5986V59.5605ZM51.8203 49.3008H55.0742V45.6152H57.166V56.0244H49.6953V45.6152H51.8203V49.3008ZM55.0742 54.3145V50.9443H51.8203V54.3145H55.0742ZM68.1396 45.3164C68.9089 45.3164 69.6089 45.4741 70.2397 45.7896C70.8706 46.105 71.3687 46.5449 71.7339 47.1094C72.0991 47.6683 72.2845 48.3047 72.29 49.0186C72.2845 49.6162 72.1517 50.1641 71.8916 50.6621C71.6315 51.1546 71.269 51.5697 70.8042 51.9072C70.3449 52.2393 69.8164 52.4717 69.2188 52.6045V54.6714C70.4749 54.6105 71.6426 54.5081 72.7217 54.3643L72.8711 55.9248C71.7035 56.1462 70.4888 56.2983 69.2271 56.3813C67.9653 56.4644 66.6566 56.5059 65.3008 56.5059C64.9355 56.5059 64.6644 56.5003 64.4873 56.4893H63.7402L63.458 54.7793H64.3877C64.8304 54.7738 65.2786 54.7682 65.7324 54.7627C66.1917 54.7572 66.651 54.7516 67.1104 54.7461V52.6211C66.4961 52.4993 65.951 52.2725 65.4751 51.9404C65.0047 51.6029 64.6395 51.1851 64.3794 50.687C64.1193 50.1834 63.9893 49.6273 63.9893 49.0186C63.9893 48.3047 64.1663 47.6683 64.5205 47.1094C64.8802 46.5449 65.3755 46.105 66.0063 45.7896C66.6372 45.4741 67.3483 45.3164 68.1396 45.3164ZM68.1396 47.1094C67.7357 47.1094 67.376 47.1868 67.0605 47.3418C66.7451 47.4912 66.4989 47.7098 66.3218 47.9976C66.1447 48.2853 66.0589 48.6257 66.0645 49.0186C66.0589 49.4059 66.1447 49.7463 66.3218 50.0396C66.4989 50.3273 66.7451 50.5487 67.0605 50.7036C67.3815 50.853 67.7412 50.9277 68.1396 50.9277C68.527 50.9277 68.8757 50.8503 69.1855 50.6953C69.501 50.5404 69.7472 50.319 69.9243 50.0312C70.1069 49.7435 70.1982 49.4059 70.1982 49.0186C70.1982 48.6257 70.1069 48.2853 69.9243 47.9976C69.7472 47.7098 69.5037 47.4912 69.1938 47.3418C68.884 47.1868 68.5326 47.1094 68.1396 47.1094ZM75.6436 50.3467H77.7021V52.123H75.6436V59.5273H73.5186V44.4199H75.6436V50.3467ZM31.5498 70.1387H33.5918V71.915H31.5498V75.5342H29.4248V66.4199H31.5498V70.1387ZM31.5498 81.3613H21.6719V76.1982H31.5498V81.3613ZM23.7637 79.668H29.458V77.8584H23.7637V79.668ZM28.5283 69.458H19.5635V67.7812H23V66.3369H25.1084V67.7812H28.5283V69.458ZM24.0459 69.9229C24.7653 69.9229 25.4072 70.0391 25.9717 70.2715C26.5361 70.4984 26.9761 70.8166 27.2915 71.2261C27.6069 71.6356 27.7646 72.1032 27.7646 72.6289C27.7646 73.1712 27.6069 73.6499 27.2915 74.0649C26.9761 74.48 26.5361 74.8009 25.9717 75.0278C25.4128 75.2547 24.7708 75.3682 24.0459 75.3682C23.3099 75.3682 22.6569 75.2547 22.0869 75.0278C21.5225 74.8009 21.0825 74.48 20.7671 74.0649C20.4517 73.6499 20.2939 73.1712 20.2939 72.6289C20.2939 72.1032 20.4517 71.6356 20.7671 71.2261C21.0825 70.8166 21.5252 70.4984 22.0952 70.2715C22.6652 70.0391 23.3154 69.9229 24.0459 69.9229ZM24.0459 71.5166C23.5312 71.5166 23.1217 71.6162 22.8174 71.8154C22.513 72.0091 22.3636 72.2803 22.3691 72.6289C22.3636 73.0052 22.5103 73.2957 22.8091 73.5005C23.1134 73.7052 23.5257 73.8076 24.0459 73.8076C24.5661 73.8076 24.9811 73.7052 25.291 73.5005C25.6009 73.2957 25.7559 73.0052 25.7559 72.6289C25.7559 72.2803 25.5981 72.0091 25.2827 71.8154C24.9728 71.6162 24.5605 71.5166 24.0459 71.5166ZM37.9746 68.1465C37.9691 69.5465 37.9027 70.8138 37.7754 71.9482C37.6536 73.0827 37.424 74.1867 37.0864 75.2603C36.7544 76.3283 36.2812 77.3382 35.667 78.29L34.0234 77.4268C34.527 76.6631 34.9282 75.8911 35.2271 75.1108C35.5259 74.325 35.7445 73.5116 35.8828 72.6704C36.0212 71.8293 36.1069 70.8913 36.1401 69.8564H34.5215V68.1465H37.9746ZM41.3613 68.1465C41.3558 68.9323 41.342 69.6379 41.3198 70.2632C41.2977 70.8885 41.259 71.4945 41.2036 72.0811H42.5068V66.752H44.499V80.8633H42.5068V73.791H40.9878C40.8218 74.7705 40.5811 75.6974 40.2656 76.5718C39.9557 77.4461 39.5518 78.2734 39.0537 79.0537L37.4434 78.1572C37.9801 77.3382 38.3979 76.4915 38.6968 75.6172C38.9956 74.7373 39.2059 73.8436 39.3276 72.936C39.4494 72.0229 39.5241 70.9964 39.5518 69.8564H38.4062V68.1465H41.3613ZM47.4707 81.5273H45.4453V66.4199H47.4707V81.5273ZM60.8682 72.3301H63.0928V74.0732H60.8682V81.5273H58.7764V66.4199H60.8682V72.3301ZM57.7471 70.3711H48.8652V68.6777H52.2852V66.6523H54.4102V68.6777H57.7471V70.3711ZM53.3477 71.2178C54.0781 71.2178 54.7339 71.3727 55.3149 71.6826C55.9015 71.987 56.3608 72.4131 56.6929 72.9609C57.0304 73.5088 57.1992 74.1286 57.1992 74.8203C57.1992 75.512 57.0304 76.1318 56.6929 76.6797C56.3608 77.2275 55.9015 77.6564 55.3149 77.9663C54.7339 78.2707 54.0781 78.4229 53.3477 78.4229C52.6117 78.4229 51.9504 78.2707 51.3638 77.9663C50.7772 77.6564 50.3151 77.2275 49.9775 76.6797C49.6455 76.1318 49.4795 75.512 49.4795 74.8203C49.4795 74.1286 49.6455 73.5088 49.9775 72.9609C50.3151 72.4131 50.7772 71.987 51.3638 71.6826C51.9504 71.3727 52.6117 71.2178 53.3477 71.2178ZM53.3477 72.9277C52.9935 72.9333 52.6753 73.0135 52.3931 73.1685C52.1164 73.3234 51.8978 73.542 51.7373 73.8242C51.5824 74.1064 51.5049 74.4385 51.5049 74.8203C51.5049 75.2077 51.5824 75.5425 51.7373 75.8247C51.8978 76.1069 52.1164 76.3228 52.3931 76.4722C52.6753 76.616 52.9935 76.6852 53.3477 76.6797C53.7018 76.6852 54.0173 76.616 54.2939 76.4722C54.5706 76.3228 54.7865 76.1069 54.9414 75.8247C55.0964 75.5425 55.1738 75.2077 55.1738 74.8203C55.1738 74.4385 55.0964 74.1064 54.9414 73.8242C54.7865 73.542 54.5706 73.3234 54.2939 73.1685C54.0173 73.0135 53.7018 72.9333 53.3477 72.9277ZM75.9092 72.1973H65.3506V66.9512H67.459V70.5371H75.9092V72.1973ZM77.4531 75.4844H63.624V73.8242H77.4531V75.4844ZM76.0088 81.1953H65.2178V76.7129H67.3428V79.502H76.0088V81.1953ZM29.3701 95.5781H22.8574V96.9697H27.459V101.627H18.126V102.722H27.9414V104.596H15.751V99.8828H25.1025V98.8252H15.7139V96.9697H20.4824V95.5781H13.9697V93.6855H18.0425C18.259 93.0299 18.4074 92.4269 18.4878 91.8765C18.5744 91.326 18.6239 90.7848 18.6362 90.2529H15.3428V88.3604H20.9463V89.4551C20.9463 90.222 20.9185 90.9271 20.8628 91.5703C20.8071 92.2074 20.6711 92.9124 20.4546 93.6855H24.7314C24.9232 93.0361 25.0592 92.4362 25.1396 91.8857C25.2201 91.3291 25.2726 90.7848 25.2974 90.2529H21.9854V88.3604H27.5889V89.2695C27.5889 90.0426 27.561 90.7663 27.5054 91.4404C27.4497 92.1084 27.3167 92.8568 27.1064 93.6855H29.3701V95.5781ZM39.501 90.5498H33.6934V91.8486H39V93.7041H33.6934V95.0029C35.2643 94.9967 36.5662 94.9627 37.5991 94.9009C38.632 94.839 39.6618 94.7246 40.6885 94.5576L40.9297 96.4131C39.8721 96.5863 38.8021 96.7038 37.7197 96.7656C36.6436 96.8275 35.3076 96.8584 33.7119 96.8584H32.7656H31.3184V88.6943H39.501V90.5498ZM44.5293 97.248H42.1543V87.8223H44.5293V97.248ZM35.5674 99.3633H42.1729V97.9346H44.5293V104.521H33.2295V97.9346H35.5674V99.3633ZM42.1729 102.629V101.2H35.5674V102.629H42.1729ZM60.1523 89.1396C60.1523 89.82 60.3812 90.491 60.8389 91.1528C61.2965 91.8084 61.9707 92.3774 62.8613 92.8599C63.752 93.3423 64.8158 93.6608 66.0527 93.8154L65.125 95.7266C63.6777 95.5163 62.4191 95.0957 61.3491 94.4648C60.2853 93.8278 59.4689 93.0423 58.8999 92.1084C58.3371 93.0423 57.5269 93.8278 56.4692 94.4648C55.4116 95.0957 54.1654 95.5163 52.7305 95.7266L51.7842 93.8154C53.0088 93.6608 54.0664 93.3423 54.957 92.8599C55.8477 92.3774 56.5218 91.8084 56.9795 91.1528C57.4372 90.491 57.666 89.82 57.666 89.1396V88.3232H60.1523V89.1396ZM66.5908 98.9365H60.0225V104.707H57.6846V98.9365H51.1904V97.0068H66.5908V98.9365ZM77.6309 91.1992H67.6113V89.3252H71.4521V87.7295H73.8086V89.3252H77.6309V91.1992ZM72.6211 91.7373C73.4313 91.7373 74.1488 91.8703 74.7734 92.1362C75.4043 92.396 75.896 92.7609 76.2485 93.231C76.6011 93.701 76.7773 94.2422 76.7773 94.8545C76.7773 95.4668 76.6011 96.008 76.2485 96.478C75.896 96.9481 75.4043 97.3161 74.7734 97.582C74.1488 97.8418 73.4313 97.9717 72.6211 97.9717C71.8109 97.9717 71.0872 97.8418 70.4502 97.582C69.8132 97.3161 69.3153 96.9481 68.9565 96.478C68.604 96.008 68.4277 95.4668 68.4277 94.8545C68.4277 94.2422 68.604 93.701 68.9565 93.231C69.3153 92.7609 69.8132 92.396 70.4502 92.1362C71.0872 91.8703 71.8109 91.7373 72.6211 91.7373ZM72.6211 93.5186C72.0397 93.5186 71.5789 93.6361 71.2388 93.8711C70.9048 94.0999 70.7409 94.4277 70.7471 94.8545C70.7409 95.2689 70.9048 95.5905 71.2388 95.8193C71.5789 96.042 72.0397 96.1533 72.6211 96.1533C73.2025 96.1533 73.6663 96.042 74.0127 95.8193C74.359 95.5905 74.5322 95.2689 74.5322 94.8545C74.5322 94.4277 74.359 94.0999 74.0127 93.8711C73.6663 93.6361 73.2025 93.5186 72.6211 93.5186ZM81.0078 92.2012H83.29V94.1309H81.0078V98.417H78.6328V87.8223H81.0078V92.2012ZM81.0078 104.707H78.6328V101.015H69.6338V99.1221H81.0078V104.707Z" fill="black"/>
<g clip-path="url(#clip0_1952_156720)">
<path opacity="0.76" d="M56.3695 162.836C58.2449 156.921 61.9449 151.596 66.8392 147.77C69.2757 145.865 72.0794 144.298 75.1459 143.861C78.2125 143.424 81.5694 144.266 83.6637 146.544C86.5913 149.73 86.3398 154.796 84.6098 158.755C82.495 163.594 78.4257 167.548 73.5205 169.526C70.4198 170.778 67.2687 171.096 64.0648 170.845C61.8137 168.027 59.0582 165.831 55.9847 164.188C56.1045 163.7 56.2404 163.239 56.3698 162.834L56.3695 162.836Z" fill="#ADDEE5"/>
<path opacity="0.76" d="M50.6195 164.442C47.7438 159.783 46.1175 154.361 45.9817 148.892C45.9053 145.803 46.3195 142.625 47.7994 139.912C49.2792 137.2 51.9587 135.016 55.0407 134.703C59.3499 134.267 63.271 137.496 65.4226 141.247C68.05 145.832 68.7979 151.452 67.4616 156.558C66.4573 160.396 64.3505 163.5 61.6308 166.242C58.1384 164.933 54.4047 164.379 50.6197 164.44L50.6195 164.442Z" fill="#ADDEE5"/>
<path d="M78.7339 152.249C74.9781 153.423 71.6655 155.851 69.3867 159.05C68.7467 159.951 68.1922 160.908 67.7329 161.911C67.6201 162.159 67.2252 162.001 67.3383 161.751C69.0072 158.11 71.8939 155.078 75.4224 153.181C76.4245 152.643 77.4753 152.201 78.5612 151.861C78.8193 151.781 78.992 152.169 78.7315 152.251L78.7339 152.249Z" fill="white"/>
<path d="M55.6755 144.597C57.5465 148.492 58.6457 152.753 58.8838 157.066C58.9504 158.28 58.9505 159.494 58.8843 160.706C58.8691 160.98 58.4467 160.928 58.4616 160.656C58.6927 156.398 58.0779 152.1 56.6591 148.077C56.2611 146.948 55.8025 145.843 55.2826 144.766C55.164 144.519 55.5547 144.349 55.6734 144.596L55.6755 144.597Z" fill="white"/>
<path d="M77.888 185.824L88.5074 190.85C89.169 191.163 88.9687 192.15 88.2386 192.182L76.6195 192.696L77.8901 185.825L77.888 185.824Z" fill="#4B241A"/>
<path d="M33.6481 205.166L56.1286 207.611C69.0803 209.02 80.8281 199.602 82.2328 186.684C83.6374 173.765 74.189 162.041 61.2373 160.632L38.7568 158.187C23.4002 156.276 14.0572 166.196 12.6526 179.114C11.2479 192.033 20.6963 203.757 33.6481 205.166Z" fill="#682F00"/>
<path d="M65.4147 185.102C66.491 175.216 62.3521 165.906 55.2194 159.916L61.0013 160.546C61.9216 160.646 62.8243 160.804 63.707 161.005C70.6523 167.002 74.6583 176.185 73.5988 185.93C72.5781 195.31 67.0864 203.176 59.4785 207.643C58.2983 207.694 57.1005 207.657 55.8926 207.525L50.9801 206.991C58.751 202.558 64.3809 194.61 65.4145 185.104L65.4147 185.102Z" fill="#FFCD00"/>
<path d="M40.8943 147.265C40.1206 146.54 41.2897 145.388 42.0615 146.109C44.0757 147.995 45.427 150.613 46.1505 153.248C46.8922 155.948 46.9898 158.911 45.7727 161.486C45.5839 161.887 45.0044 161.985 44.6458 161.774C44.2353 161.531 44.1654 161.052 44.3566 160.649C45.3966 158.449 45.1727 155.811 44.5248 153.533C43.8634 151.206 42.6755 148.928 40.8948 147.26L40.8943 147.265Z" fill="#FFCD00"/>
<path d="M25.6391 150.55C27.9123 151.097 30.1493 151.932 31.987 153.408C33.8503 154.902 35.0085 157.033 35.4735 159.354C35.6795 160.385 34.0939 160.819 33.8865 159.782C33.4724 157.719 32.4968 155.875 30.8198 154.563C29.1939 153.289 27.1808 152.609 25.1952 152.131C24.1659 151.883 24.6099 150.303 25.6391 150.55Z" fill="#FFCD00"/>
<path d="M41.3086 143.703C44.2191 143.716 44.2044 148.228 41.2896 148.215C38.379 148.202 38.3938 143.69 41.3086 143.703Z" fill="#FF672F"/>
<path d="M24.5166 148.715C27.4271 148.727 27.4124 153.24 24.4976 153.227C21.587 153.214 21.6018 148.702 24.5166 148.715Z" fill="#FF672F"/>
<path d="M14.9176 179.639C16.2156 168.493 24.3351 155.291 37.7724 165.699C52.9349 160.043 60.3911 173.72 56.5298 187.934C53.5891 198.765 44.6107 203.551 33.2113 202.225C21.8097 200.899 13.6195 190.786 14.9176 179.639Z" fill="#FFCD00"/>
<path d="M36.199 164.819C35.4864 164.267 34.7891 163.785 34.1041 163.362C34.8611 163.737 35.6384 164.195 36.4362 164.734C36.3556 164.763 36.2774 164.79 36.1968 164.819L36.199 164.819Z" fill="#FF9F00"/>
<path d="M31.6377 201.343C43.0393 202.669 52.0155 197.883 54.9562 187.052C57.3988 178.061 55.3114 169.288 49.6112 165.483C56.4877 168.636 59.1851 178.159 56.5297 187.935C53.589 198.765 44.6106 203.552 33.2112 202.226C30.0046 201.854 27.0496 200.784 24.4906 199.193C26.6616 200.296 29.0674 201.044 31.6377 201.343Z" fill="#FF9F00"/>
<path opacity="0.4" d="M39.8197 187.905C40.0774 188.824 41.7811 189.15 43.6224 188.636C45.464 188.121 46.7478 186.958 46.4877 186.04C46.23 185.121 44.5263 184.796 42.685 185.309C40.8434 185.824 39.5596 186.987 39.8197 187.905Z" fill="#FF5A93"/>
<path opacity="0.4" d="M27.4385 186.326C26.9017 187.115 25.1826 186.884 23.5996 185.81C22.0166 184.736 21.1706 183.228 21.7095 182.438C22.2485 181.649 23.9655 181.88 25.5485 182.954C27.1315 184.028 27.9775 185.537 27.4385 186.326Z" fill="#FF5A93"/>
<path d="M20.5898 177.382C20.5977 177.39 20.6098 177.398 20.6237 177.41C20.6136 177.403 20.6036 177.395 20.5939 177.385L20.5898 177.382Z" fill="#200B06"/>
<path d="M41.9635 184.234C39.9163 183.992 38.527 181.509 38.8604 178.688C39.1938 175.868 41.1236 173.777 43.1707 174.019C45.2179 174.261 46.6072 176.744 46.2738 179.564C45.9405 182.385 44.0107 184.476 41.9635 184.234Z" fill="#682F00"/>
<path d="M27.2128 182.488C25.1656 182.246 23.7763 179.763 24.1097 176.942C24.443 174.121 26.3728 172.031 28.42 172.273C30.4672 172.515 31.8565 174.998 31.5231 177.818C31.1897 180.639 29.2599 182.729 27.2128 182.488Z" fill="#682F00"/>
<path d="M41.6919 183.612C39.8292 183.392 38.565 181.132 38.8684 178.565C39.1718 175.999 40.9278 174.096 42.7905 174.316C44.6533 174.536 45.9174 176.796 45.614 179.363C45.3106 181.93 43.5547 183.832 41.6919 183.612Z" fill="white"/>
<path d="M40.3191 181.559C39.4472 181.456 38.8555 180.398 38.9975 179.197C39.1395 177.995 39.9614 177.105 40.8332 177.208C41.7051 177.311 42.2968 178.368 42.1548 179.57C42.0128 180.771 41.1909 181.662 40.3191 181.559Z" fill="black"/>
<path d="M27.8775 181.979C26.0147 181.759 24.7506 179.5 25.054 176.933C25.3573 174.366 27.1133 172.463 28.9761 172.683C30.8388 172.904 32.1029 175.163 31.7996 177.73C31.4962 180.297 29.7402 182.199 27.8775 181.979Z" fill="white"/>
<path d="M29.3174 180.256C28.4047 180.148 27.7852 179.042 27.9338 177.784C28.0824 176.527 28.9428 175.595 29.8555 175.703C30.7682 175.811 31.3876 176.918 31.239 178.175C31.0904 179.432 30.2301 180.364 29.3174 180.256Z" fill="black"/>
<path d="M32.2566 184.432C31.705 184.367 31.2168 184.709 31.2245 185.169C31.264 187.138 32.2581 188.734 33.6571 188.9C35.0561 189.065 36.395 187.744 36.8923 185.839C37.0093 185.393 36.6121 184.947 36.0605 184.881L32.2566 184.432Z" fill="#E94245"/>
</g>
<defs>
<clipPath id="clip0_1952_156720">
<rect width="77.1867" height="72.6775" fill="white" transform="matrix(-0.993088 -0.117369 -0.117369 0.993088 95.0884 139.246)"/>
</clipPath>
</defs>
</svg>
