<svg width="195" height="260" viewBox="0 0 195 260" fill="none" xmlns="http://www.w3.org/2000/svg">
<path d="M21.8438 24.8008C24.8301 24.8008 26.9785 27.5078 27 31.7617C26.9785 36.0586 24.8301 38.7441 21.8438 38.7441C18.8574 38.7441 16.666 36.0586 16.6875 31.7617C16.666 27.5078 18.8574 24.8008 21.8438 24.8008ZM21.8438 27.2715C20.3398 27.2715 19.3301 28.8613 19.3301 31.7617C19.3301 34.6836 20.3398 36.252 21.8438 36.252C23.3691 36.252 24.3574 34.6836 24.3789 31.7617C24.3574 28.8613 23.3691 27.2715 21.8438 27.2715ZM32.0059 23.4258V30.7949H34.8848V33.0723H32.0059V42.9766H29.2559V23.4258H32.0059ZM51.9648 23.4258V43.0195H49.1934V23.4258H51.9648ZM41.3516 24.8008C44.2949 24.8008 46.4863 27.5078 46.4863 31.7617C46.4863 36.0586 44.2949 38.7441 41.3516 38.7441C38.3438 38.7441 36.1523 36.0586 36.1738 31.7617C36.1523 27.5078 38.3438 24.8008 41.3516 24.8008ZM41.3516 27.2715C39.8262 27.2715 38.8164 28.8613 38.8164 31.7617C38.8164 34.6836 39.8262 36.252 41.3516 36.252C42.834 36.252 43.8438 34.6836 43.8438 31.7617C43.8438 28.8613 42.834 27.2715 41.3516 27.2715ZM70.9785 23.4258V43.0195H68.207V23.4258H70.9785ZM58.3242 24.9727V29.7422H62.5352V24.9727H65.2422V38.4434H55.5742V24.9727H58.3242ZM58.3242 36.2305H62.5352V31.8691H58.3242V36.2305ZM79.4434 24.5859C82.4512 24.5859 84.793 26.5625 84.8145 29.377C84.793 31.7402 83.1494 33.5127 80.8398 34.0176V36.6816C82.3867 36.6172 83.9229 36.4883 85.373 36.2949L85.5664 38.3145C81.4844 39.0879 77.0801 39.0879 73.75 39.0449L73.3848 36.832C74.792 36.8213 76.4141 36.8213 78.1113 36.7891V34.0391C75.7158 33.5557 74.0723 31.7725 74.0723 29.377C74.0723 26.5625 76.3496 24.5859 79.4434 24.5859ZM79.4434 26.9062C77.8965 26.9062 76.7363 27.8086 76.7578 29.377C76.7363 30.9238 77.8965 31.8477 79.4434 31.8477C80.9473 31.8477 82.1074 30.9238 82.1074 29.377C82.1074 27.8086 80.9473 26.9062 79.4434 26.9062ZM89.1543 23.4258V31.0957H91.8184V33.3945H89.1543V42.9766H86.4043V23.4258H89.1543ZM113.217 23.4258V28.2383H115.859V30.5371H113.217V35.2207H110.467V23.4258H113.217ZM113.217 36.0801V42.7617H100.434V36.0801H113.217ZM103.141 38.2285V40.5703H110.51V38.2285H103.141ZM109.307 25.1875V27.3574H97.7051V25.1875H102.152V23.3184H104.881V25.1875H109.307ZM103.506 27.959C106.342 27.959 108.318 29.3984 108.318 31.4609C108.318 33.5879 106.342 35.0059 103.506 35.0059C100.627 35.0059 98.6504 33.5879 98.6504 31.4609C98.6504 29.3984 100.627 27.959 103.506 27.959ZM103.506 30.0215C102.195 30.0215 101.314 30.5371 101.336 31.4609C101.314 32.4492 102.195 32.9863 103.506 32.9863C104.816 32.9863 105.719 32.4492 105.719 31.4609C105.719 30.5371 104.816 30.0215 103.506 30.0215ZM121.531 25.6602C121.51 30.5371 121.037 34.9199 118.545 38.7871L116.418 37.6699C118.427 34.6299 119.028 31.665 119.168 27.873H117.062V25.6602H121.531ZM125.914 25.6602C125.903 27.3789 125.871 29.0869 125.721 30.752H127.396V23.8555H129.975V42.1172H127.396V32.9648H125.441C125.022 35.3604 124.281 37.6592 122.928 39.7754L120.844 38.6152C123.024 35.2852 123.476 31.8369 123.572 27.873H122.09V25.6602H125.914ZM133.82 23.4258V42.9766H131.199V23.4258H133.82ZM151.158 23.4258V31.0742H154.037V33.3301H151.158V42.9766H148.451V23.4258H151.158ZM147.119 26.3477V28.5391H135.625V26.3477H140.051V23.7266H142.801V26.3477H147.119ZM141.426 29.6348C144.283 29.6348 146.41 31.5684 146.41 34.2969C146.41 37.0254 144.283 38.959 141.426 38.959C138.547 38.959 136.42 37.0254 136.42 34.2969C136.42 31.5684 138.547 29.6348 141.426 29.6348ZM141.426 31.8477C140.051 31.8691 139.041 32.793 139.041 34.2969C139.041 35.8223 140.051 36.7246 141.426 36.7031C142.801 36.7246 143.789 35.8223 143.789 34.2969C143.789 32.793 142.801 31.8691 141.426 31.8477ZM170.623 28.7539V30.9023H156.959V24.1133H159.688V28.7539H170.623ZM172.621 33.0078V35.1562H154.725V33.0078H172.621ZM170.752 40.3555V42.5469H156.787V36.7461H159.537V40.3555H170.752ZM34.4121 56.2148V58.4062H26.8711V60.0176H32.1992V65.4102H21.3926V66.6777H32.7578V68.8477H18.6426V63.3906H29.4707V62.166H18.5996V60.0176H24.1211V58.4062H16.5801V56.2148H21.3066C21.833 54.5605 21.9619 53.3145 21.9941 52.2402H18.1699V50.0488H24.6582V51.3164C24.6582 52.5518 24.6582 54.1846 24.0996 56.2148H29.041C29.5244 54.5605 29.6533 53.2822 29.707 52.2402H25.8613V50.0488H32.3496V51.1016C32.3496 52.3262 32.3496 54.0342 31.791 56.2148H34.4121ZM46.1426 50.4355V52.584H39.418V54.0879H45.5625V56.2363H39.418V57.7402C42.8555 57.7295 45.0361 57.6328 47.5176 57.2246L47.7969 59.373C45.0039 59.8242 42.5332 59.9102 38.3438 59.8887H36.668V50.4355H46.1426ZM51.9648 49.4258V60.3398H49.2148V49.4258H51.9648ZM41.5879 61.1348V62.7891H49.2363V61.1348H51.9648V68.7617H38.8809V61.1348H41.5879ZM41.5879 66.5703H49.2363V64.916H41.5879V66.5703ZM70.0547 50.9512C70.0547 53.25 72.3965 55.8066 76.8867 56.3652L75.8125 58.5781C72.3965 58.084 69.8936 56.5049 68.6152 54.3887C67.3262 56.5049 64.8447 58.084 61.4609 58.5781L60.3652 56.3652C64.8125 55.8066 67.1758 53.25 67.1758 50.9512V50.0059H70.0547V50.9512ZM77.5098 60.0605V62.2949H69.9043V68.9766H67.1973V62.2949H59.6777V60.0605H77.5098ZM90.293 51.166V53.3359H78.6914V51.166H83.1387V49.3184H85.8672V51.166H90.293ZM84.4922 53.959C87.3281 53.959 89.3047 55.4199 89.3047 57.5684C89.3047 59.7168 87.3281 61.1777 84.4922 61.1777C81.6562 61.1777 79.6367 59.7168 79.6367 57.5684C79.6367 55.4199 81.6562 53.959 84.4922 53.959ZM84.4922 56.0215C83.1816 56.0215 82.3008 56.5586 82.3223 57.5684C82.3008 58.5566 83.1816 59.0723 84.4922 59.0723C85.8027 59.0723 86.7051 58.5566 86.7051 57.5684C86.7051 56.5586 85.8027 56.0215 84.4922 56.0215ZM94.2031 49.4258V54.4961H96.8457V56.7305H94.2031V61.6934H91.4531V49.4258H94.2031ZM94.2031 62.5098V68.9766H91.4531V64.7012H81.0332V62.5098H94.2031Z" fill="black"/>
<g clip-path="url(#clip0_1952_156588)">
<path opacity="0.76" d="M104.063 149.286C107.698 137.822 114.87 127.501 124.357 120.084C129.079 116.391 134.514 113.355 140.458 112.508C146.401 111.661 152.908 113.292 156.968 117.707C162.642 123.884 162.155 133.702 158.801 141.376C154.702 150.755 146.815 158.419 137.307 162.255C131.297 164.68 125.189 165.297 118.979 164.811C114.615 159.349 109.275 155.093 103.317 151.907C103.549 150.961 103.813 150.069 104.064 149.282L104.063 149.286Z" fill="#ADDEE5"/>
<path opacity="0.76" d="M92.9174 152.394C87.3434 143.362 84.1912 132.852 83.9279 122.253C83.7799 116.266 84.5828 110.105 87.4512 104.847C90.3196 99.5896 95.5133 95.3564 101.487 94.7492C109.84 93.9052 117.44 100.164 121.611 107.435C126.703 116.322 128.153 127.215 125.563 137.112C123.616 144.55 119.532 150.568 114.261 155.881C107.491 153.345 100.254 152.271 92.9179 152.39L92.9174 152.394Z" fill="#ADDEE5"/>
<path d="M147.412 128.765C140.132 131.04 133.711 135.746 129.294 141.947C128.053 143.694 126.979 145.547 126.088 147.493C125.87 147.972 125.104 147.666 125.324 147.183C128.558 140.125 134.154 134.249 140.993 130.57C142.936 129.528 144.972 128.671 147.077 128.012C147.577 127.856 147.912 128.608 147.407 128.768L147.412 128.765Z" fill="white"/>
<path d="M102.718 113.931C106.344 121.481 108.475 129.741 108.936 138.101C109.065 140.453 109.065 142.806 108.937 145.157C108.908 145.687 108.089 145.587 108.118 145.06C108.566 136.806 107.374 128.475 104.624 120.677C103.853 118.489 102.964 116.346 101.956 114.259C101.726 113.78 102.483 113.452 102.713 113.93L102.718 113.931Z" fill="white"/>
<path d="M145.772 193.842L166.356 203.583C167.638 204.19 167.25 206.104 165.835 206.164L143.313 207.161L145.776 193.843L145.772 193.842Z" fill="#4B241A"/>
<path d="M60.0215 231.332L103.596 236.072C128.7 238.803 151.471 220.548 154.194 195.508C156.916 170.468 138.602 147.743 113.498 145.012L69.9237 140.272C40.1578 136.568 22.0484 155.796 19.3257 180.836C16.6031 205.876 34.917 228.601 60.0215 231.332Z" fill="#682F00"/>
<path d="M121.595 192.437C123.681 173.275 115.659 155.23 101.833 143.62L113.04 144.841C114.824 145.035 116.574 145.341 118.285 145.73C131.747 157.355 139.512 175.154 137.458 194.043C135.48 212.223 124.835 227.47 110.089 236.13C107.801 236.228 105.48 236.157 103.138 235.901L93.6162 234.866C108.679 226.273 119.591 210.868 121.595 192.441L121.595 192.437Z" fill="#FFCD00"/>
<path d="M74.0665 119.1C72.5668 117.697 74.8329 115.462 76.3289 116.861C80.233 120.517 82.8523 125.59 84.2547 130.699C85.6923 135.931 85.8815 141.674 83.5223 146.665C83.1564 147.442 82.0332 147.633 81.3381 147.223C80.5424 146.752 80.4069 145.825 80.7775 145.044C82.7934 140.779 82.3594 135.665 81.1035 131.25C79.8215 126.74 77.5189 122.325 74.0674 119.092L74.0665 119.1Z" fill="#FFCD00"/>
<path d="M44.4974 125.468C48.9036 126.527 53.2395 128.146 56.8015 131.007C60.4133 133.903 62.6581 138.033 63.5594 142.531C63.9587 144.53 60.8853 145.372 60.4834 143.361C59.6807 139.363 57.7897 135.788 54.5391 133.246C51.3876 130.777 47.4856 129.458 43.637 128.531C41.6419 128.051 42.5024 124.988 44.4974 125.468Z" fill="#FFCD00"/>
<path d="M74.8699 112.196C80.5115 112.221 80.483 120.967 74.8332 120.941C69.1916 120.917 69.2202 112.171 74.8699 112.196Z" fill="#FF672F"/>
<path d="M42.3216 121.915C47.9632 121.94 47.9347 130.686 42.2849 130.66C36.6433 130.635 36.6718 121.889 42.3216 121.915Z" fill="#FF672F"/>
<path d="M23.716 181.856C26.2321 160.251 41.9701 134.661 68.0158 154.836C97.4054 143.872 111.858 170.383 104.373 197.934C98.6734 218.927 81.2706 228.205 59.1749 225.635C37.0751 223.065 21.1999 203.461 23.716 181.856Z" fill="#FFCD00"/>
<path d="M64.9658 153.124C63.5847 152.054 62.2331 151.12 60.9054 150.3C62.3726 151.028 63.8794 151.915 65.4256 152.959C65.2695 153.015 65.1179 153.068 64.9617 153.124L64.9658 153.124Z" fill="#FF9F00"/>
<path d="M56.1248 223.925C78.2246 226.495 95.6234 217.217 101.323 196.224C106.058 178.795 102.012 161.792 90.9631 154.417C104.292 160.529 109.52 178.985 104.373 197.935C98.6733 218.928 81.2704 228.206 59.1747 225.636C52.9594 224.913 47.2317 222.84 42.2716 219.756C46.4797 221.894 51.1429 223.344 56.1248 223.925Z" fill="#FF9F00"/>
<path opacity="0.4" d="M71.9837 197.871C72.4832 199.654 75.7854 200.284 79.3545 199.289C82.9241 198.29 85.4126 196.037 84.9084 194.258C84.4088 192.475 81.1066 191.845 77.5375 192.84C73.9679 193.839 71.4795 196.093 71.9837 197.871Z" fill="#FF5A93"/>
<path opacity="0.4" d="M47.9857 194.814C46.9451 196.344 43.613 195.896 40.5446 193.814C37.4762 191.732 35.8364 188.808 36.8811 187.279C37.9258 185.749 41.2538 186.196 44.3222 188.278C47.3906 190.36 49.0304 193.284 47.9857 194.814Z" fill="#FF5A93"/>
<path d="M34.7123 177.48C34.7272 177.494 34.7502 177.509 34.7764 177.533C34.7575 177.518 34.7385 177.504 34.72 177.485L34.7123 177.48Z" fill="#200B06"/>
<path d="M76.1393 190.755C72.1713 190.286 69.4784 185.473 70.1246 180.006C70.7707 174.539 74.5113 170.487 78.4793 170.956C82.4473 171.425 85.1402 176.237 84.4941 181.704C83.8479 187.172 80.1074 191.224 76.1393 190.755Z" fill="#682F00"/>
<path d="M47.5475 187.376C43.5795 186.907 40.8866 182.095 41.5328 176.627C42.1789 171.16 45.9195 167.108 49.8875 167.577C53.8555 168.046 56.5484 172.858 55.9023 178.325C55.2561 183.793 51.5155 187.845 47.5475 187.376Z" fill="#682F00"/>
<path d="M75.6128 189.55C72.0022 189.123 69.5519 184.744 70.14 179.768C70.728 174.793 74.1316 171.105 77.7422 171.532C81.3528 171.959 83.8031 176.338 83.2151 181.314C82.627 186.289 79.2234 189.977 75.6128 189.55Z" fill="white"/>
<path d="M72.9518 185.571C71.2619 185.371 70.115 183.322 70.3902 180.993C70.6655 178.664 72.2585 176.939 73.9484 177.138C75.6384 177.338 76.7852 179.388 76.51 181.716C76.2348 184.045 74.6417 185.771 72.9518 185.571Z" fill="black"/>
<path d="M48.8359 186.386C45.2253 185.959 42.7751 181.58 43.3631 176.604C43.9511 171.629 47.3548 167.941 50.9654 168.368C54.576 168.795 57.0262 173.174 56.4382 178.15C55.8502 183.125 52.4465 186.813 48.8359 186.386Z" fill="white"/>
<path d="M51.6273 183.044C49.8582 182.835 48.6575 180.69 48.9456 178.253C49.2336 175.816 50.9012 174.01 52.6703 174.219C54.4394 174.428 55.6401 176.573 55.352 179.01C55.064 181.447 53.3964 183.253 51.6273 183.044Z" fill="black"/>
<path d="M57.3243 191.144C56.2552 191.018 55.3088 191.681 55.3238 192.573C55.4002 196.389 57.3272 199.484 60.0389 199.804C62.7506 200.125 65.3458 197.565 66.3098 193.872C66.5365 193.008 65.7666 192.142 64.6975 192.016L57.3243 191.144Z" fill="#E94245"/>
</g>
<defs>
<clipPath id="clip0_1952_156588">
<rect width="149.612" height="140.872" fill="white" transform="matrix(-0.993088 -0.117369 -0.117369 0.993088 179.112 103.559)"/>
</clipPath>
</defs>
</svg>
