<svg width="50" height="44" viewBox="0 0 50 44" fill="none" xmlns="http://www.w3.org/2000/svg">
<path d="M48.5957 20.0902C49.3634 20.8844 49.3634 22.1536 48.5957 22.9478C38.1585 33.7446 32.9042 43.038 21.519 43.038C9.63438 43.038 0 33.4036 0 21.519C0 9.63438 9.63438 0 21.519 0C32.9042 0 38.1585 9.29342 48.5957 20.0902Z" fill="#FF6600"/>
<path d="M14.707 35.0731V31.0098H27.9982V35.0731C27.9982 35.6253 27.5505 36.0731 26.9982 36.0731H15.707C15.1547 36.0731 14.707 35.6253 14.707 35.0731Z" fill="#B39DDB" stroke="black" stroke-width="0.5" stroke-linecap="round"/>
<rect x="13.0781" y="7.83984" width="4.56329" height="9.62659" rx="2.28165" fill="#FFE0B2" stroke="black" stroke-width="0.5"/>
<rect x="17.4922" y="6.57227" width="4.56329" height="9.62659" rx="2.28165" fill="#FFE0B2" stroke="black" stroke-width="0.5"/>
<path d="M12.1823 13.2871H17.8785L29.9027 16.4517L28.004 24.6795V31.0086H14.7128V26.5783L12.1823 21.515C11.7603 20.4601 10.7899 18.0972 10.2835 17.0846C9.77719 16.0719 10.4945 14.9749 10.9164 14.5529L12.1823 13.2871Z" fill="#FFE0B2"/>
<path d="M29.9064 17.0846L28.315 23.9808C28.1108 24.8657 28.0077 25.7709 28.0077 26.6791V31.0086H14.7166V26.5783C13.6617 24.8905 11.4254 21.1352 10.9191 19.6162C10.2862 17.7175 9.65329 13.2871 12.8178 13.2871C13.4507 13.2871 15.7292 13.92 17.2482 13.92C19.1469 13.92 22.3115 12.6542 20.4127 16.4517C19.5781 17.7036 17.2531 17.895 15.6346 17.8056M14.7165 17.7175C14.9762 17.7546 15.2893 17.7865 15.6346 17.8056M15.6346 17.8056C17.2273 19.042 20.033 22.1479 18.514 24.6795" stroke="black" stroke-width="0.5" stroke-linecap="round"/>
<rect x="25.7109" y="9.10547" width="4.56329" height="9.62659" rx="2.28165" fill="#FFE0B2" stroke="black" stroke-width="0.5"/>
<rect x="21.9062" y="7.83984" width="4.56329" height="9.62659" rx="2.28165" fill="#FFE0B2" stroke="black" stroke-width="0.5"/>
</svg>
