<svg width="50" height="44" viewBox="0 0 50 44" fill="none" xmlns="http://www.w3.org/2000/svg">
<path d="M48.5957 20.0902C49.3634 20.8844 49.3634 22.1536 48.5957 22.9478C38.1585 33.7446 32.9042 43.038 21.519 43.038C9.63438 43.038 0 33.4036 0 21.519C0 9.63438 9.63438 0 21.519 0C32.9042 0 38.1585 9.29342 48.5957 20.0902Z" fill="#81B01B"/>
<mask id="mask0_2623_295700" style="mask-type:alpha" maskUnits="userSpaceOnUse" x="0" y="0" width="50" height="44">
<path d="M48.5957 20.0902C49.3634 20.8844 49.3634 22.1536 48.5957 22.9478C38.1585 33.7446 32.9042 43.038 21.519 43.038C9.63438 43.038 0 33.4036 0 21.519C0 9.63438 9.63438 0 21.519 0C32.9042 0 38.1585 9.29342 48.5957 20.0902Z" fill="#81B01B"/>
</mask>
<g mask="url(#mask0_2623_295700)">
<path d="M11.25 11.1328H14.2237V41.896H11.25V11.1328Z" fill="#EBF0F3" stroke="black" stroke-width="0.5"/>
<path d="M35.9616 17.155L36.2814 16.75H35.7654H22H21.75V17V28.7192V28.9692H22H35.7654H36.2791L35.9621 28.565L31.472 22.839L35.9616 17.155Z" fill="#F7BE56" stroke="black" stroke-width="0.5"/>
<path d="M12.3166 13.1977C13.9153 13.1977 15.2113 11.9017 15.2113 10.3029C15.2113 8.70422 13.9153 7.4082 12.3166 7.4082C10.7179 7.4082 9.42188 8.70422 9.42188 10.3029C9.42188 11.9017 10.7179 13.1977 12.3166 13.1977Z" fill="#3C4F12"/>
<path d="M22.25 25.6769V25.4269H22H11.25V14.25H25.5154V25.5533L22.25 28.0482V25.6769Z" fill="#FCD462" stroke="black" stroke-width="0.5"/>
</g>
</svg>
