<svg width="34" height="34" viewBox="0 0 34 34" fill="none" xmlns="http://www.w3.org/2000/svg">
<g clip-path="url(#clip0_2773_12144)">
<path d="M0 17C0 7.61116 7.61116 0 17 0C26.3888 0 34 7.61116 34 17V31.2644C34 32.7752 32.7752 34 31.2644 34H17C7.61116 34 0 26.3888 0 17Z" fill="#81B01B"/>
<path d="M8.25 7.25H10.75V33.75H8.25V7.25Z" fill="#EBF0F3" stroke="black" stroke-width="0.5"/>
<path d="M26.0477 19.6666L25.9257 19.821L26.0471 19.9759L29.7128 24.6505H17.7246V15.0293H29.7105L26.0477 19.6666Z" fill="#F7BE56" stroke="black" stroke-width="0.5"/>
<path d="M9.5 9C10.8807 9 12 7.88071 12 6.5C12 5.11929 10.8807 4 9.5 4C8.11929 4 7 5.11929 7 6.5C7 7.88071 8.11929 9 9.5 9Z" fill="#3C4F12"/>
<path d="M17.7246 20.2233V19.9733H17.4746H8.22461V10.3887H20.4765V20.1449L17.7246 24.1027V20.2233Z" fill="#FCD462" stroke="black" stroke-width="0.5"/>
</g>
<defs>
<clipPath id="clip0_2773_12144">
<path d="M0 17C0 7.61116 7.61116 0 17 0C26.3888 0 34 7.61116 34 17V31.2644C34 32.7752 32.7752 34 31.2644 34H17C7.61116 34 0 26.3888 0 17Z" fill="white"/>
</clipPath>
</defs>
</svg>
