<svg width="38" height="34" viewBox="0 0 38 34" fill="none" xmlns="http://www.w3.org/2000/svg">
<path d="M1.39962 15.5686C0.635799 16.3665 0.635799 17.6334 1.39962 18.4313C9.11281 26.4886 13.1145 33.3544 21.6456 33.3544C30.6779 33.3544 38 26.0322 38 16.9999C38 7.96764 30.6779 0.645508 21.6456 0.645508C13.1145 0.645508 9.11281 7.51125 1.39962 15.5686Z" fill="#FF6600"/>
<path d="M17.2578 27.062V24.2139H27.3591V27.062C27.3591 27.6143 26.9114 28.062 26.3591 28.062H18.2578C17.7055 28.062 17.2578 27.6143 17.2578 27.062Z" fill="#B39DDB" stroke="black" stroke-width="0.5" stroke-linecap="round"/>
<rect x="16.0781" y="6.66309" width="3.3481" height="7.19621" rx="1.67405" fill="#FFE0B2" stroke="black" stroke-width="0.5"/>
<rect x="19.4375" y="5.7002" width="3.3481" height="7.19621" rx="1.67405" fill="#FFE0B2" stroke="black" stroke-width="0.5"/>
<path d="M15.341 10.7432H19.6701L28.8085 13.1482L27.3655 19.4014V24.2115H17.2642V20.8444L15.341 16.9963C15.0203 16.1946 14.2828 14.3989 13.898 13.6292C13.5132 12.8596 14.0583 12.0259 14.379 11.7052L15.341 10.7432Z" fill="#FFE0B2"/>
<path d="M28.8075 13.6292L27.6718 18.5508C27.4676 19.4357 27.3645 20.3409 27.3645 21.249V24.2115H17.2632V20.8444C16.4615 19.5617 14.7619 16.7077 14.3771 15.5533C13.8961 14.1103 13.4151 10.7432 15.8202 10.7432C16.3012 10.7432 18.0328 11.2242 19.1872 11.2242C20.6302 11.2242 23.0353 10.2622 21.5923 13.1482C20.958 14.0997 19.191 14.2452 17.9609 14.1772M17.2632 14.1103C17.4605 14.1384 17.6985 14.1627 17.9609 14.1772M17.9609 14.1772C19.1713 15.1169 21.3037 17.4773 20.1492 19.4014" stroke="black" stroke-width="0.5" stroke-linecap="round"/>
<rect x="25.6797" y="7.62598" width="3.3481" height="7.19621" rx="1.67405" fill="#FFE0B2" stroke="black" stroke-width="0.5"/>
<rect x="22.7969" y="6.66309" width="3.3481" height="7.19621" rx="1.67405" fill="#FFE0B2" stroke="black" stroke-width="0.5"/>
</svg>
