<svg width="38" height="34" viewBox="0 0 38 34" fill="none" xmlns="http://www.w3.org/2000/svg">
<path d="M1.39962 15.5686C0.635799 16.3665 0.635799 17.6334 1.39962 18.4313C9.11281 26.4886 13.1145 33.3544 21.6456 33.3544C30.6779 33.3544 38 26.0322 38 16.9999C38 7.96764 30.6779 0.645508 21.6456 0.645508C13.1145 0.645508 9.11281 7.51125 1.39962 15.5686Z" fill="#81B01B"/>
<mask id="mask0_2931_122007" style="mask-type:alpha" maskUnits="userSpaceOnUse" x="0" y="0" width="38" height="34">
<path d="M1.39962 15.5686C0.635799 16.3665 0.635799 17.6334 1.39962 18.4313C9.11281 26.4886 13.1145 33.3544 21.6456 33.3544C30.6779 33.3544 38 26.0322 38 16.9999C38 7.96764 30.6779 0.645508 21.6456 0.645508C13.1145 0.645508 9.11281 7.51125 1.39962 15.5686Z" fill="#81B01B"/>
</mask>
<g mask="url(#mask0_2931_122007)">
<path d="M13.6172 9.1665H15.7572V32.4265H13.6172V9.1665Z" fill="#EBF0F3" stroke="black" stroke-width="0.5"/>
<path d="M32.3844 13.7209L32.7043 13.3159H32.1883H21.7266H21.4766V13.5659V22.4725V22.7225H21.7266H32.1883H32.702L32.385 22.3183L29.0016 18.0037L32.3844 13.7209Z" fill="#F7BE56" stroke="black" stroke-width="0.5"/>
<path d="M14.3641 10.6764C15.5791 10.6764 16.5641 9.69139 16.5641 8.47637C16.5641 7.26134 15.5791 6.27637 14.3641 6.27637C13.149 6.27637 12.1641 7.26134 12.1641 8.47637C12.1641 9.69139 13.149 10.6764 14.3641 10.6764Z" fill="#3C4F12"/>
<path d="M21.9772 20.1601V19.9101H21.7272H13.6172V11.5356H24.3389V20.0365L21.9772 21.8409V20.1601Z" fill="#FCD462" stroke="black" stroke-width="0.5"/>
</g>
</svg>
