<svg width="20" height="20" viewBox="0 0 20 20" fill="none" xmlns="http://www.w3.org/2000/svg">
<g id="Icon/20/Calendar">
<path id="Vector" d="M17 2.80859H3C2.44772 2.80859 2 3.25631 2 3.80859V6.80859H18V3.80859C18 3.25631 17.5523 2.80859 17 2.80859Z" stroke="#171717" stroke-width="1.25" stroke-miterlimit="10"/>
<path id="Vector_2" d="M18 6.79297H2V17.793C2 18.3453 2.44772 18.793 3 18.793H17C17.5523 18.793 18 18.3453 18 17.793V6.79297Z" stroke="#171717" stroke-width="1.25" stroke-miterlimit="10"/>
<path id="Vector_3" d="M5 10.7734H7" stroke="#171717" stroke-width="1.25" stroke-miterlimit="10"/>
<path id="Vector_4" d="M9 10.7734H11" stroke="#171717" stroke-width="1.25" stroke-miterlimit="10"/>
<path id="Vector_5" d="M13 10.7734H15" stroke="#171717" stroke-width="1.25" stroke-miterlimit="10"/>
<path id="Vector_6" d="M13 14.7656H15" stroke="#171717" stroke-width="1.25" stroke-miterlimit="10"/>
<path id="Vector_7" d="M5 14.7656H7" stroke="#171717" stroke-width="1.25" stroke-miterlimit="10"/>
<path id="Vector_8" d="M9 14.7656H11" stroke="#171717" stroke-width="1.25" stroke-miterlimit="10"/>
<path id="Vector_9" d="M6 0.5V4.5" stroke="#171717" stroke-width="1.25" stroke-miterlimit="10"/>
<path id="Vector_10" d="M10 0.5V4.5" stroke="#171717" stroke-width="1.25" stroke-miterlimit="10"/>
<path id="Vector_11" d="M14 0.5V4.5" stroke="#171717" stroke-width="1.25" stroke-miterlimit="10"/>
</g>
</svg>
