<svg width="24" height="24" viewBox="0 0 24 24" fill="none" xmlns="http://www.w3.org/2000/svg">
<path d="M11.9988 15.2632C13.9173 15.2632 15.466 13.7821 15.466 11.9474V5.31579C15.466 3.48105 13.9173 2 11.9988 2C10.0802 2 8.53154 3.48105 8.53154 5.31579V11.9474C8.53154 13.7821 10.0802 15.2632 11.9988 15.2632ZM18.8292 11.9474C18.2629 11.9474 17.789 12.3453 17.6966 12.8868C17.2227 15.4842 14.8535 17.4737 11.9988 17.4737C9.14408 17.4737 6.77481 15.4842 6.30095 12.8868C6.26019 12.6269 6.12369 12.3894 5.91603 12.2171C5.70837 12.0449 5.44321 11.9492 5.16832 11.9474C4.46332 11.9474 3.90856 12.5442 4.01258 13.2074C4.57889 16.5232 7.35268 19.1205 10.843 19.5958V21.8947C10.843 22.5026 11.3631 23 11.9988 23C12.6344 23 13.1545 22.5026 13.1545 21.8947V19.5958C14.8552 19.3634 16.4343 18.6189 17.6625 17.4701C18.8907 16.3214 19.7042 14.8282 19.985 13.2074C20.1005 12.5442 19.5342 11.9474 18.8292 11.9474Z" fill="#171717"/>
</svg>
