<svg width="100" height="100" viewBox="0 0 100 100" fill="none" xmlns="http://www.w3.org/2000/svg">
<g clip-path="url(#clip0_8977_927094)">
<path d="M79.1667 45.8333V20.8333C79.1667 16.2292 75.4375 12.5 70.8333 12.5H20.8333C16.2292 12.5 12.5 16.2292 12.5 20.8333V75" stroke="#171717" stroke-width="3" stroke-linecap="round" stroke-linejoin="round"/>
<path d="M29.167 12.5V66.6667" stroke="#171717" stroke-width="3" stroke-linecap="round" stroke-linejoin="round"/>
<path d="M45.8333 66.668H20.8333C16.2292 66.668 12.5 70.3971 12.5 75.0013C12.5 79.6055 16.2292 83.3346 20.8333 83.3346H45.8333" stroke="#171717" stroke-width="3" stroke-linecap="round" stroke-linejoin="round"/>
<path d="M69.8125 92.0391C80.8582 92.0391 89.8125 83.0848 89.8125 72.0391C89.8125 60.9934 80.8582 52.0391 69.8125 52.0391C58.7668 52.0391 49.8125 60.9934 49.8125 72.0391C49.8125 83.0848 58.7668 92.0391 69.8125 92.0391Z" stroke="#FF6D00" stroke-width="3" stroke-linecap="round" stroke-linejoin="round"/>
<path d="M62 64L78 80" stroke="#FF6D00" stroke-width="3" stroke-linecap="round"/>
<path d="M78 64L62 80" stroke="#FF6D00" stroke-width="3" stroke-linecap="round"/>
</g>
<defs>
<clipPath id="clip0_8977_927094">
<rect width="100" height="100" fill="white"/>
</clipPath>
</defs>
</svg>
