<svg width="40" height="40" viewBox="0 0 40 40" fill="none" xmlns="http://www.w3.org/2000/svg">
<g clip-path="url(#clip0_9805_284251)">
<path d="M33.3333 16.6667V8.33333C33.3333 6.49238 31.841 5 30 5H8.33333C6.49238 5 5 6.49238 5 8.33333V31.6667C5 33.5076 6.49238 35 8.33333 35H16.6667" stroke="#171717" stroke-width="1.5" stroke-linecap="round" stroke-linejoin="round"/>
<path d="M11.6663 13.335H26.6663" stroke="#171717" stroke-width="1.5" stroke-linecap="round" stroke-linejoin="round"/>
<path d="M11.6664 20H19.9997" stroke="#171717" stroke-width="1.5" stroke-linecap="round" stroke-linejoin="round"/>
<path d="M11.6663 26.665H16.6663" stroke="#171717" stroke-width="1.5" stroke-linecap="round" stroke-linejoin="round"/>
<path d="M34 27.2269L27.6407 33.8193C26.1222 35.3936 23.6574 35.3936 22.1389 33.8193C20.6204 32.2451 20.6204 29.69 22.1389 28.1158L29.2099 20.7833C30.2174 19.7389 31.8542 19.7389 32.8616 20.7833C33.8691 21.8277 33.8691 23.5223 32.8616 24.5689L25.9131 31.7722C25.4168 32.2867 24.61 32.2867 24.1136 31.7722C23.6173 31.2577 23.6173 30.4213 24.1136 29.9068L30.3927 23.3975" stroke="#171717" stroke-width="1.5" stroke-linecap="square" stroke-linejoin="round"/>
</g>
<defs>
<clipPath id="clip0_9805_284251">
<rect width="40" height="40" fill="white"/>
</clipPath>
</defs>
</svg>
