<svg width="24" height="24" viewBox="0 0 24 24" fill="none" xmlns="http://www.w3.org/2000/svg">
<path d="M22.125 13.4191V4.48529C22.125 3.38885 21.2184 2.5 20.1 2.5H3.9C2.78162 2.5 1.875 3.38885 1.875 4.48529V17.3897C1.875 18.4862 2.78162 19.375 3.9 19.375H12" stroke="#171717" stroke-width="1.5" stroke-linecap="round" stroke-linejoin="round"/>
<path fill-rule="evenodd" clip-rule="evenodd" d="M14.4288 11.3166L20.459 17.3469C21.1803 18.0682 21.1803 19.2377 20.459 19.959C19.7377 20.6803 18.5682 20.6803 17.8469 19.959L11.8166 13.9288C11.4293 13.5415 11.1781 13.039 11.1007 12.4968L10.8801 10.9529C10.8576 10.7951 10.9106 10.636 11.0233 10.5233C11.136 10.4106 11.2951 10.3576 11.4528 10.3801L12.9968 10.6007C13.539 10.6781 14.0415 10.9293 14.4288 11.3166Z" stroke="#171717" stroke-width="1.5" stroke-linecap="round" stroke-linejoin="round"/>
<path d="M5.25 13.75V8.125" stroke="#171717" stroke-width="1.5" stroke-linecap="round" stroke-linejoin="round"/>
</svg>
