<svg width="50" height="50" viewBox="0 0 50 50" fill="none" xmlns="http://www.w3.org/2000/svg">
<path d="M17.7163 31.5399C10.7063 31.5399 5 25.8106 5 18.7676C5 11.7247 10.7063 6 17.7163 6C24.7263 6 30.4326 11.7294 30.4326 18.7676C30.4326 25.8059 24.7263 31.5353 17.7163 31.5353V31.5399ZM17.7163 10.658C13.2626 10.658 9.6393 14.2959 9.6393 18.7676C9.6393 23.2393 13.2626 26.8773 17.7163 26.8773C22.17 26.8773 25.7933 23.2393 25.7933 18.7676C25.7933 14.2959 22.17 10.658 17.7163 10.658Z" fill="#282828"/>
<path d="M32.411 23.7158C31.2234 27.6146 28.4259 30.8053 24.7933 32.5148V43H44V23.7158H32.4064H32.411Z" fill="#282828"/>
</svg>
