<svg width="30" height="30" viewBox="0 0 30 30" fill="none" xmlns="http://www.w3.org/2000/svg">
<path d="M16 26.5097L16 26.5019L16 26.5097ZM15.9994 26.4807C15.9996 26.4855 15.9998 26.4904 15.9999 26.4953C15.9999 26.4969 15.9999 26.4984 15.9998 26.5C15.9997 26.5032 15.9996 26.5065 15.9995 26.5097C15.9872 26.7913 15.7568 26.9979 15.498 27C15.4967 27 15.4954 27 15.494 27C15.23 27 15.0026 26.785 15 26.5048C15 26.5032 15 26.5016 15 26.5C15 26.4968 15 26.4935 15.0001 26.4903C15.0052 26.2172 15.226 26.0021 15.494 26C15.4954 26 15.4967 26 15.498 26C15.76 26 15.9857 26.2065 15.9994 26.4807Z" fill="#171717" stroke="#171717" stroke-width="4" stroke-linecap="round" stroke-linejoin="round"/>
<path d="M5.73914 14.9999C10.8541 10.3086 19.1454 10.3086 24.2604 14.9999" stroke="#171717" stroke-width="2" stroke-linecap="round" stroke-linejoin="round"/>
<path d="M1.99219 9.755C9.17594 3.415 20.8234 3.415 28.0072 9.755" stroke="#171717" stroke-width="2" stroke-linecap="round" stroke-linejoin="round"/>
<path d="M9.474 19.7763C12.5252 16.7412 17.474 16.7412 20.5252 19.7763" stroke="#171717" stroke-width="2" stroke-linecap="round" stroke-linejoin="round"/>
</svg>
