<svg width="50" height="50" viewBox="0 0 50 50" fill="none" xmlns="http://www.w3.org/2000/svg">
<g clip-path="url(#clip0_9364_833939)">
<rect width="50" height="50" rx="4" fill="#D9D9D9"/>
<path d="M11.9852 37.8409C11.8122 38.4936 11.618 39.1658 11.3943 39.8615L10.4066 43H8.79845L6 36H7.7179L8.77735 38.7867C9.09814 39.6622 9.35561 40.4556 9.55399 41.163H9.59198C9.78614 40.4048 10.0098 39.6231 10.2631 38.8258L11.1706 36H12.8294L13.7369 38.8258C13.9902 39.6192 14.2139 40.397 14.408 41.163H14.446C14.6866 40.3266 14.9483 39.5332 15.2227 38.7867L16.2821 36H18L15.2015 43H13.5934L12.6057 39.8615C12.382 39.1541 12.1836 38.4819 12.0148 37.8409H11.9768H11.9852Z" fill="white"/>
<path d="M24.9852 37.8409C24.8122 38.4936 24.618 39.1658 24.3943 39.8615L23.4066 43H21.7985L19 36H20.7179L21.7773 38.7867C22.0981 39.6622 22.3556 40.4556 22.554 41.163H22.592C22.7861 40.4048 23.0098 39.6231 23.2631 38.8258L24.1706 36H25.8294L26.7369 38.8258C26.9902 39.6192 27.2139 40.397 27.408 41.163H27.446C27.6866 40.3266 27.9483 39.5332 28.2227 38.7867L29.2821 36H31L28.2015 43H26.5934L25.6057 39.8615C25.382 39.1541 25.1836 38.4819 25.0148 37.8409H24.9768H24.9852Z" fill="white"/>
<path d="M37.9852 37.8409C37.8122 38.4936 37.618 39.1658 37.3943 39.8615L36.4066 43H34.7985L32 36H33.7179L34.7773 38.7867C35.0981 39.6622 35.3556 40.4556 35.554 41.163H35.592C35.7861 40.4048 36.0098 39.6231 36.2631 38.8258L37.1706 36H38.8294L39.7369 38.8258C39.9902 39.6192 40.2139 40.397 40.408 41.163H40.446C40.6866 40.3266 40.9483 39.5332 41.2227 38.7867L42.2821 36H44L41.2015 43H39.5934L38.6057 39.8615C38.382 39.1541 38.1836 38.4819 38.0148 37.8409H37.9768H37.9852Z" fill="white"/>
<path d="M25 9.5C30.5356 9.5 35 13.9644 35 19.5C35 25.0356 30.5356 29.5 25 29.5" stroke="white" stroke-width="1.5" stroke-linecap="round" stroke-linejoin="round"/>
<path d="M25 29.5C19.4644 29.5 15 25.0356 15 19.5C15 13.9644 19.4644 9.5 25 9.5" stroke="white" stroke-width="1.5" stroke-linecap="round" stroke-linejoin="round"/>
<path fill-rule="evenodd" clip-rule="evenodd" d="M22.9669 10.6775C19.7558 16.0386 19.7558 22.9619 22.9669 28.3231C23.9069 29.8931 26.0991 29.8931 27.0391 28.3231C30.2503 22.9619 30.2503 16.0386 27.0391 10.6775C26.098 9.1075 23.9069 9.1075 22.9669 10.6775Z" stroke="white" stroke-width="1.5" stroke-linecap="round" stroke-linejoin="round"/>
<path d="M16.1191 14.8984C21.5547 16.5773 28.4391 16.5773 33.8736 14.8984" stroke="white" stroke-width="1.5" stroke-linecap="round" stroke-linejoin="round"/>
<path d="M33.8775 24.1039C28.4419 22.425 21.5575 22.425 16.123 24.1039" stroke="white" stroke-width="1.5" stroke-linecap="round" stroke-linejoin="round"/>
</g>
<defs>
<clipPath id="clip0_9364_833939">
<rect width="50" height="50" fill="white"/>
</clipPath>
</defs>
</svg>
