<svg width="40" height="40" viewBox="0 0 40 40" fill="none" xmlns="http://www.w3.org/2000/svg">
<path d="M36.6667 20.3327C36.6667 29.5374 29.2048 36.9993 20 36.9993C10.7953 36.9993 3.33337 29.5374 3.33337 20.3327C3.33337 11.1279 10.7953 3.66602 20 3.66602C29.2048 3.66602 36.6667 11.1279 36.6667 20.3327Z" fill="#FFC81C"/>
<path fill-rule="evenodd" clip-rule="evenodd" d="M25.9421 17.6038C25.8036 17.4114 25.7501 17.1581 25.7501 17.0003C25.7501 16.5861 25.4143 16.2503 25.0001 16.2503C24.5859 16.2503 24.2501 16.5861 24.2501 17.0003C24.2501 17.3981 24.3633 17.9781 24.7248 18.4802C25.1139 19.0206 25.7557 19.417 26.6668 19.417C27.5779 19.417 28.2197 19.0206 28.6088 18.4802C28.9703 17.9781 29.0835 17.3981 29.0835 17.0003C29.0835 16.5861 28.7477 16.2503 28.3335 16.2503C27.9192 16.2503 27.5835 16.5861 27.5835 17.0003C27.5835 17.1581 27.53 17.4114 27.3915 17.6038C27.2805 17.7579 27.089 17.917 26.6668 17.917C26.2446 17.917 26.0531 17.7579 25.9421 17.6038Z" fill="#422B0D"/>
<path fill-rule="evenodd" clip-rule="evenodd" d="M12.6087 17.6038C12.4702 17.4114 12.4167 17.1581 12.4167 17.0003C12.4167 16.5861 12.081 16.2503 11.6667 16.2503C11.2525 16.2503 10.9167 16.5861 10.9167 17.0003C10.9167 17.3981 11.0299 17.9781 11.3914 18.4802C11.7805 19.0206 12.4223 19.417 13.3334 19.417C14.2445 19.417 14.8864 19.0206 15.2754 18.4802C15.6369 17.9781 15.7501 17.3981 15.7501 17.0003C15.7501 16.5861 15.4143 16.2503 15.0001 16.2503C14.5859 16.2503 14.2501 16.5861 14.2501 17.0003C14.2501 17.1581 14.1966 17.4114 14.0581 17.6038C13.9471 17.7579 13.7556 17.917 13.3334 17.917C12.9112 17.917 12.7197 17.7579 12.6087 17.6038Z" fill="#422B0D"/>
<path fill-rule="evenodd" clip-rule="evenodd" d="M19.28 25.6651C17.95 25.9156 16.8399 26.782 16.2712 27.49C16.0242 27.7976 15.5746 27.8467 15.267 27.5997C14.9595 27.3526 14.9104 26.9031 15.1574 26.5955C15.8874 25.6865 17.2773 24.5886 19.0155 24.2612C20.814 23.9224 22.8763 24.4305 24.8142 26.5623C25.0796 26.8542 25.0581 27.3059 24.7662 27.5713C24.4743 27.8366 24.0225 27.8151 23.7572 27.5232C22.1237 25.7264 20.5497 25.4259 19.28 25.6651Z" fill="#422B0D"/>
</svg>
