<svg width="50" height="50" viewBox="0 0 50 50" fill="none" xmlns="http://www.w3.org/2000/svg">
<path d="M49.5677 39.0854L33.7986 20.807C33.5104 20.4723 33.1105 20.2807 32.6937 20.279C32.2583 20.2393 31.8739 20.4619 31.5826 20.7932L21.5425 32.1723L16.125 26.003C15.5423 25.3404 14.4948 25.3404 13.9152 26.003L2.44169 39.075C2.00779 39.5703 1.88072 40.3072 2.12246 40.9457C2.3642 41.5842 2.92517 42 3.54658 42H48.4551C49.0734 42 49.6343 41.5876 49.8761 40.9543C50.1194 40.3192 49.9985 39.5841 49.5677 39.0871V39.0854ZM15.0216 29.6684L21.6417 37.2078L22.8272 38.5573H7.21767L15.0216 29.6684ZM27.1491 38.5573L23.7058 34.6349L32.6736 24.4706L44.8274 38.5573H27.1506H27.1491Z" fill="#171717"/>
<path d="M16.032 22.3687C13.2179 22.3687 10.9275 19.8199 10.9275 16.6844C10.9275 13.5488 13.2179 11 16.032 11C18.8461 11 21.1365 13.5505 21.1365 16.6844C21.1365 19.8182 18.8477 22.3687 16.032 22.3687ZM16.032 14.4427C14.9209 14.4427 14.019 15.4488 14.019 16.6861C14.019 17.9234 14.9209 18.9277 16.032 18.9277C17.1431 18.9277 18.045 17.9217 18.045 16.6861C18.045 15.4505 17.1431 14.4427 16.032 14.4427Z" fill="#171717"/>
</svg>
