<svg width="50" height="50" viewBox="0 0 50 50" fill="none" xmlns="http://www.w3.org/2000/svg">
<path d="M47.8964 32.9806C47.8964 32.9806 50.0969 27.9787 34.2155 30.2616C34.2155 30.2616 27.997 28.2706 23.882 17.5879C23.882 17.5879 24.8384 11.5677 24.7916 8.79938C24.7916 8.79938 23.4523 13.9473 23.1179 14.8689C23.1179 14.8689 20.4392 4.86502 22.735 2.6314C22.735 2.6314 24.2978 2.97084 24.9995 7.92351C24.9995 7.92351 26.0357 2.20929 22.5912 2C22.5912 2 19.9593 2.14598 19.7687 4.67156C19.7687 4.67156 19.3858 12.0531 21.73 18.608C21.73 18.608 10.201 46.1397 3.6482 47.063C3.6482 47.063 3.02618 44.4407 11.3983 37.2544C11.3983 37.2544 -1.42151 44.5374 2.8841 47.3057C2.8841 47.3057 4.98926 49.3459 8.28995 46.4316C8.28995 46.4316 11.4 44.052 15.3695 36.2343C15.3695 36.2343 23.6931 33.3693 33.0217 31.9605C33.0217 31.9605 45.89 39.342 47.8981 34.1941V33.612C47.8981 33.612 46.8464 36.9132 36.5615 31.5243C36.5615 31.5243 46.3197 30.3583 47.8981 32.9806H47.8964ZM15.9413 34.9715C19.5764 29.4842 22.7818 21.0843 22.7818 21.0843C25.748 27.2998 31.0101 30.747 31.0101 30.747C23.9305 32.0573 15.9413 34.9715 15.9413 34.9715Z" fill="#171717"/>
</svg>
