<svg width="40" height="40" viewBox="0 0 40 40" fill="none" xmlns="http://www.w3.org/2000/svg">
<g clip-path="url(#clip0_6293_247100)">
<path d="M33.3333 16.6667V8.33333C33.3333 6.49238 31.841 5 30 5H8.33333C6.49238 5 5 6.49238 5 8.33333V31.6667C5 33.5076 6.49238 35 8.33333 35H16.6667" stroke="#171717" stroke-width="1.5" stroke-linecap="round" stroke-linejoin="round"/>
<path d="M11.6663 13.335H26.6663" stroke="#171717" stroke-width="1.5" stroke-linecap="round" stroke-linejoin="round"/>
<path d="M11.6663 20H19.9997" stroke="#171717" stroke-width="1.5" stroke-linecap="round" stroke-linejoin="round"/>
<path d="M11.6663 26.665H16.6663" stroke="#171717" stroke-width="1.5" stroke-linecap="round" stroke-linejoin="round"/>
<path fill-rule="evenodd" clip-rule="evenodd" d="M28.2493 22.5942C28.53 22.0253 29.1095 21.665 29.7439 21.665C30.3784 21.665 30.9578 22.0253 31.2386 22.5942L32.0865 24.3133C32.3293 24.8053 32.7986 25.1464 33.3415 25.2252L35.2384 25.5009C35.8661 25.5922 36.3875 26.0318 36.5836 26.635C36.7796 27.2382 36.6164 27.9004 36.1624 28.3432L34.7892 29.6826C34.3967 30.0655 34.2176 30.617 34.3103 31.1574L34.6343 33.0462C34.7415 33.6715 34.4845 34.3033 33.9714 34.6762C33.4582 35.0491 32.7778 35.0984 32.2163 34.8033L30.5193 33.9114C30.0339 33.6562 29.454 33.6562 28.9686 33.9114L27.2716 34.8033C26.7101 35.0983 26.0298 35.049 25.5166 34.6761C25.0035 34.3032 24.7465 33.6714 24.8537 33.0462L25.1777 31.1574C25.2704 30.617 25.0913 30.0655 24.6988 29.6826L23.3256 28.3432C22.8716 27.9004 22.7084 27.2382 22.9044 26.635C23.1005 26.0318 23.622 25.5922 24.2496 25.5009L26.1465 25.2252C26.6894 25.1464 27.1588 24.8053 27.4015 24.3133L28.2493 22.5942Z" stroke="#171717" stroke-width="1.5" stroke-linecap="round" stroke-linejoin="round"/>
</g>
<defs>
<clipPath id="clip0_6293_247100">
<rect width="40" height="40" fill="white"/>
</clipPath>
</defs>
</svg>
