<svg width="30" height="30" viewBox="0 0 30 30" fill="none" xmlns="http://www.w3.org/2000/svg">
<g clip-path="url(#clip0_6352_163827)">
<path fill-rule="evenodd" clip-rule="evenodd" d="M15 20C12.2388 20 10 17.9531 10 15.4286V8.57143C10 6.04686 12.2388 4 15 4C17.7613 4 20 6.04686 20 8.57143V15.4286C20 17.9531 17.7613 20 15 20Z" stroke="#D5D5D5" stroke-width="1.5" stroke-linecap="round" stroke-linejoin="round"/>
<path d="M23 14V15.0125C23 19.4236 19.4183 23 15 23C10.5817 23 7 19.4236 7 15.0125V14" stroke="#D5D5D5" stroke-width="1.5" stroke-linecap="round" stroke-linejoin="round"/>
<path d="M14 9H16" stroke="#D5D5D5" stroke-width="1.5" stroke-linecap="round" stroke-linejoin="round"/>
<path d="M14 12H16" stroke="#D5D5D5" stroke-width="1.5" stroke-linecap="round" stroke-linejoin="round"/>
<path d="M14 15H16" stroke="#D5D5D5" stroke-width="1.5" stroke-linecap="round" stroke-linejoin="round"/>
<path d="M15 23V26" stroke="#D5D5D5" stroke-width="1.5" stroke-linecap="round" stroke-linejoin="round"/>
<path d="M12 26H18" stroke="#D5D5D5" stroke-width="1.5" stroke-linecap="round" stroke-linejoin="round"/>
</g>
<defs>
<clipPath id="clip0_6352_163827">
<rect width="30" height="30" fill="white"/>
</clipPath>
</defs>
</svg>
