<svg width="40" height="40" viewBox="0 0 40 40" fill="none" xmlns="http://www.w3.org/2000/svg">
<path d="M32.4717 5.2627H7.85633C7.00666 5.2627 6.31787 5.95149 6.31787 6.80116V8.33962C6.31787 9.18929 7.00666 9.87808 7.85633 9.87808H32.4717C33.3214 9.87808 34.0102 9.18929 34.0102 8.33962V6.80116C34.0102 5.95149 33.3214 5.2627 32.4717 5.2627Z" stroke="#171717" stroke-width="1.5" stroke-linecap="round" stroke-linejoin="round"/>
<path d="M32.4717 9.87793H7.85632V26.801H32.4717V9.87793Z" stroke="#171717" stroke-width="1.5" stroke-linecap="round" stroke-linejoin="round"/>
<path d="M34.0102 26.8018H6.31787" stroke="#171717" stroke-width="1.5" stroke-linecap="round" stroke-linejoin="round"/>
<path d="M20.1641 26.8018V29.8787" stroke="#171717" stroke-width="1.5" stroke-linecap="round" stroke-linejoin="round"/>
<path d="M20.164 34.4933C21.4385 34.4933 22.4717 33.4601 22.4717 32.1856C22.4717 30.9111 21.4385 29.8779 20.164 29.8779C18.8895 29.8779 17.8563 30.9111 17.8563 32.1856C17.8563 33.4601 18.8895 34.4933 20.164 34.4933Z" stroke="#171717" stroke-width="1.5" stroke-linecap="round" stroke-linejoin="round"/>
</svg>
