<svg width="50" height="50" viewBox="0 0 50 50" fill="none" xmlns="http://www.w3.org/2000/svg">
<path d="M7.15381 32.9619C13.6976 31.1769 21.3531 30.5284 28.7051 31.0166" stroke="#171717" stroke-width="2" stroke-linecap="round" stroke-linejoin="round"/>
<path d="M23.9745 3C35.0314 3 43.9488 12.1521 43.9488 23.5C43.9488 26.069 43.4918 28.5256 42.6563 30.7889M23.9745 43.9999C25.7817 43.9999 27.5317 43.7554 29.1951 43.2968" stroke="#171717" stroke-width="2" stroke-linecap="round" stroke-linejoin="round"/>
<path d="M23.9743 43.9999C12.9174 43.9999 4 34.8478 4 23.5C4 12.1521 12.9174 3 23.9743 3" stroke="#171717" stroke-width="2" stroke-linecap="round" stroke-linejoin="round"/>
<path d="M32.7911 26.4611C33.3772 19.2002 31.8029 11.7712 28.0682 5.4138C26.176 2.1954 21.7706 2.1954 19.8807 5.4138C13.4245 16.4038 13.4245 30.5962 19.8807 41.5861C20.9152 43.3478 22.7039 44.1451 24.4213 43.9783" stroke="#171717" stroke-width="2" stroke-linecap="round" stroke-linejoin="round"/>
<path d="M6.6283 14.0381C17.2494 17.5424 30.7016 17.5424 41.3206 14.0381" stroke="#171717" stroke-width="2" stroke-linecap="round" stroke-linejoin="round"/>
<path fill-rule="evenodd" clip-rule="evenodd" d="M43.7117 40.0022L41.0756 41.11C40.5969 41.3111 40.2161 41.6918 40.0147 42.1704L38.9023 44.8141C38.5575 45.6339 37.7342 46.1481 36.8463 46.0984C35.9583 46.0486 35.1976 45.4457 34.9464 44.5925L32.4703 36.1834C32.2529 35.445 32.4563 34.6468 33.0005 34.1025C33.5448 33.5581 34.3429 33.3546 35.0814 33.5719L43.4905 36.0459C44.3439 36.2969 44.947 37.0578 44.9967 37.946C45.0464 38.8342 44.5318 39.6575 43.7117 40.0022Z" stroke="#171717" stroke-width="2" stroke-linecap="round" stroke-linejoin="round"/>
</svg>
