<svg width="100" height="100" viewBox="0 0 100 100" fill="none" xmlns="http://www.w3.org/2000/svg">
<path d="M22.0493 82.3366C19.0987 85.2665 14.3136 85.2665 11.363 82.3366C8.41238 79.4067 8.41238 74.6552 11.363 71.7253L28.8497 54.3615C31.8002 51.4316 36.5854 51.4316 39.536 54.3615C42.4866 57.2913 42.4866 62.0428 39.536 64.9727L22.0493 82.3366Z" fill="white" stroke="#3E3A39" stroke-width="2" stroke-linecap="round" stroke-linejoin="round"/>
<path d="M84.1908 43.0579C84.5181 24.9815 70.0259 10.0641 51.8216 9.73915C33.6173 9.41416 18.5945 23.8046 18.2672 41.881C17.9399 59.9575 32.4321 74.8748 50.6364 75.1998C68.8407 75.5248 83.8635 61.1344 84.1908 43.0579Z" fill="#FFCE6C" stroke="#3E3A39" stroke-width="2" stroke-linecap="round" stroke-linejoin="round"/>
<path d="M56.8939 66.8864C70.4782 63.7797 78.9541 50.3263 75.8254 36.8374C72.6968 23.3486 59.1482 14.9321 45.5639 18.0389C31.9796 21.1456 23.5037 34.599 26.6324 48.0878C29.7611 61.5767 43.3096 69.9931 56.8939 66.8864Z" fill="white" stroke="#3E3A39" stroke-width="2" stroke-linecap="round" stroke-linejoin="round"/>
<path d="M44.4692 41.4121L36.9489 51.8051H51.9825L44.4692 41.4121Z" fill="#9FDE93" stroke="#3E3A39" stroke-width="2" stroke-linecap="round" stroke-linejoin="round"/>
<path d="M56.1208 36.7012L45.1974 51.8051H67.0512L56.1208 36.7012Z" fill="#9FDE93" stroke="#3E3A39" stroke-width="2" stroke-linecap="round" stroke-linejoin="round"/>
<path d="M42.8376 32.4001C42.8376 30.6864 41.4372 29.2988 39.7076 29.2988C37.9781 29.2988 36.5776 30.6864 36.5776 32.4001C36.5776 34.1138 37.9781 35.5013 39.7076 35.5013C41.4372 35.5013 42.8376 34.1138 42.8376 32.4001Z" fill="#FF7D73" stroke="#3E3A39" stroke-width="2" stroke-linecap="round" stroke-linejoin="round"/>
<path d="M91.6383 53.9219H58.9648V88.9368H91.6383V53.9219Z" fill="#6EA1FF" stroke="#3E3A39" stroke-width="2" stroke-linecap="round" stroke-linejoin="round"/>
<path d="M74.2642 48H53V83.0149H85.6734V59.3291L74.2642 48Z" fill="white" stroke="#3E3A39" stroke-width="2" stroke-linecap="round" stroke-linejoin="round"/>
<path d="M74.2642 59.3291H85.6734L74.2642 48V59.3291Z" fill="#9FDE93" stroke="#3E3A39" stroke-width="2" stroke-linecap="round" stroke-linejoin="round"/>
<path d="M64.4092 68.3418H75.8184" stroke="#3E3A39" stroke-width="2" stroke-linecap="round" stroke-linejoin="round"/>
<path d="M60.5232 74.0059H78.1545" stroke="#3E3A39" stroke-width="2" stroke-linecap="round" stroke-linejoin="round"/>
</svg>
