<svg width="40" height="40" viewBox="0 0 40 40" fill="none" xmlns="http://www.w3.org/2000/svg">
<g clip-path="url(#clip0_9311_24510)">
<path d="M36 10.7186V25C36 26.5167 35.4264 27.9712 34.4054 29.0436C33.3845 30.1161 31.9997 30.7186 30.5558 30.7186H26.8337V35L18.6105 30.7186H9.44418C8.0003 30.7186 6.61555 30.1161 5.59456 29.0436C4.57358 27.9712 4 26.5167 4 25V10.7186C4 9.20191 4.57358 7.74737 5.59456 6.67493C6.61555 5.60249 8.0003 5 9.44418 5H30.5558C31.9997 5 33.3845 5.60249 34.4054 6.67493C35.4264 7.74737 36 9.20191 36 10.7186Z" fill="white" stroke="#171717" stroke-width="1.5" stroke-miterlimit="10"/>
<path d="M13 17.1256C12.9998 16.2417 13.2645 15.3812 13.7547 14.6719C14.2449 13.9627 14.9345 13.4423 15.7213 13.1882C16.508 12.934 17.35 12.9595 18.1222 13.2609C18.8944 13.5624 19.5557 14.1237 20.008 14.8615C20.4565 14.1194 21.1165 13.5538 21.889 13.2495C22.6615 12.9451 23.5048 12.9185 24.2926 13.1736C25.0803 13.4287 25.77 13.9517 26.2581 14.6643C26.7462 15.3768 27.0065 16.2404 26.9999 17.1256C26.9999 21.915 20.008 24.6667 20.008 24.6667C20.008 24.6667 13 21.915 13 17.1256Z" fill="#F04C42"/>
</g>
<defs>
<clipPath id="clip0_9311_24510">
<rect width="40" height="40" fill="white" transform="matrix(-1 0 0 1 40 0)"/>
</clipPath>
</defs>
</svg>
