<svg width="24" height="24" viewBox="0 0 24 24" fill="none" xmlns="http://www.w3.org/2000/svg">
<path d="M4.35714 2.375C3.60647 2.375 3 2.98945 3 3.75V7.875C3 8.63555 3.60647 9.25 4.35714 9.25C5.10781 9.25 5.71429 8.63555 5.71429 7.875V5.125H8.42857C9.17924 5.125 9.78571 4.51055 9.78571 3.75C9.78571 2.98945 9.17924 2.375 8.42857 2.375H4.35714ZM5.71429 16.125C5.71429 15.3645 5.10781 14.75 4.35714 14.75C3.60647 14.75 3 15.3645 3 16.125V20.25C3 21.0105 3.60647 21.625 4.35714 21.625H8.42857C9.17924 21.625 9.78571 21.0105 9.78571 20.25C9.78571 19.4895 9.17924 18.875 8.42857 18.875H5.71429V16.125ZM16.5714 2.375C15.8208 2.375 15.2143 2.98945 15.2143 3.75C15.2143 4.51055 15.8208 5.125 16.5714 5.125H19.2857V7.875C19.2857 8.63555 19.8922 9.25 20.6429 9.25C21.3935 9.25 22 8.63555 22 7.875V3.75C22 2.98945 21.3935 2.375 20.6429 2.375H16.5714ZM22 16.125C22 15.3645 21.3935 14.75 20.6429 14.75C19.8922 14.75 19.2857 15.3645 19.2857 16.125V18.875H16.5714C15.8208 18.875 15.2143 19.4895 15.2143 20.25C15.2143 21.0105 15.8208 21.625 16.5714 21.625H20.6429C21.3935 21.625 22 21.0105 22 20.25V16.125Z" fill="#171717"/>
</svg>
