<svg width="40" height="40" viewBox="0 0 40 40" fill="none" xmlns="http://www.w3.org/2000/svg">
<g clip-path="url(#clip0_6299_161741)">
<path d="M17.869 28.6559C23.9149 28.6559 28.8161 23.7547 28.8161 17.7088C28.8161 11.6629 23.9149 6.76172 17.869 6.76172C11.8231 6.76172 6.92188 11.6629 6.92188 17.7088C6.92188 23.7547 11.8231 28.6559 17.869 28.6559Z" stroke="#171717" stroke-width="1.5" stroke-linecap="round" stroke-linejoin="round"/>
<path d="M17.869 28.6559C23.9149 28.6559 28.8161 23.7547 28.8161 17.7088C28.8161 11.6629 23.9149 6.76172 17.869 6.76172C11.8231 6.76172 6.92188 11.6629 6.92188 17.7088C6.92188 23.7547 11.8231 28.6559 17.869 28.6559Z" stroke="#171717" stroke-width="1.5" stroke-linecap="round" stroke-linejoin="round"/>
<path d="M32.9219 34.2622L24.9219 26.0703" stroke="#171717" stroke-width="1.5" stroke-linecap="round" stroke-linejoin="round"/>
</g>
<defs>
<clipPath id="clip0_6299_161741">
<rect width="40" height="40" fill="white"/>
</clipPath>
</defs>
</svg>
