<svg width="24" height="24" viewBox="0 0 24 24" fill="none" xmlns="http://www.w3.org/2000/svg">
<path d="M12 5C10.4183 4.99994 8.8721 5.46874 7.55676 6.34717C6.24142 7.22559 5.21599 8.47421 4.61005 9.93523C4.00411 11.3962 3.84485 13.0041 4.15241 14.5556C4.45997 16.1071 5.22054 17.5326 6.33801 18.652C6.52538 18.8398 6.63049 19.0943 6.63021 19.3596C6.62993 19.6248 6.52428 19.8791 6.33651 20.0665C6.14873 20.2539 5.89422 20.359 5.62895 20.3587C5.36368 20.3584 5.10938 20.2528 4.92201 20.065C3.99416 19.1375 3.25845 18.036 2.75704 16.8237C2.25563 15.6113 1.99837 14.3119 2.00001 13C2.00001 7.477 6.47701 3 12 3C17.523 3 22 7.477 22 13C22.0016 14.3119 21.7444 15.6113 21.243 16.8237C20.7416 18.036 20.0059 19.1375 19.078 20.065C18.8906 20.2528 18.6363 20.3584 18.3711 20.3587C18.1058 20.359 17.8513 20.2539 17.6635 20.0665C17.4757 19.8791 17.3701 19.6248 17.3698 19.3596C17.3695 19.0943 17.4746 18.8398 17.662 18.652C18.7795 17.5326 19.54 16.1071 19.8476 14.5556C20.1552 13.0041 19.9959 11.3962 19.39 9.93523C18.784 8.47421 17.7586 7.22559 16.4433 6.34717C15.1279 5.46874 13.5817 4.99994 12 5ZM12 11C11.4696 11 10.9609 11.2107 10.5858 11.5858C10.2107 11.9609 10 12.4696 10 13C10 13.5304 10.2107 14.0391 10.5858 14.4142C10.9609 14.7893 11.4696 15 12 15C12.5304 15 13.0391 14.7893 13.4142 14.4142C13.7893 14.0391 14 13.5304 14 13C14 12.4696 13.7893 11.9609 13.4142 11.5858C13.0391 11.2107 12.5304 11 12 11ZM8.00001 13C7.99987 12.3421 8.16199 11.6944 8.47201 11.1142C8.78202 10.5339 9.23037 10.0391 9.77732 9.67354C10.3243 9.30798 10.9529 9.08297 11.6076 9.01844C12.2623 8.95391 12.9228 9.05185 13.5306 9.30358C14.1384 9.55532 14.6747 9.95307 15.0921 10.4616C15.5094 10.9702 15.7949 11.5738 15.9232 12.219C16.0515 12.8643 16.0187 13.5312 15.8276 14.1607C15.6366 14.7902 15.2933 15.3629 14.828 15.828C14.7351 15.9209 14.6614 16.0312 14.6111 16.1526C14.5608 16.274 14.535 16.4041 14.535 16.5355C14.535 16.6669 14.5608 16.797 14.6111 16.9184C14.6614 17.0398 14.7351 17.1501 14.828 17.243C15.0156 17.4306 15.2701 17.5361 15.5355 17.5361C15.6669 17.5361 15.797 17.5102 15.9184 17.4599C16.0398 17.4096 16.1501 17.3359 16.243 17.243C17.0822 16.4039 17.6536 15.3348 17.8852 14.1709C18.1167 13.007 17.9979 11.8006 17.5438 10.7042C17.0897 9.60783 16.3207 8.67073 15.334 8.01143C14.3473 7.35212 13.1872 7.00022 12.0005 7.00022C10.8138 7.00022 9.65375 7.35212 8.66704 8.01143C7.68034 8.67073 6.91131 9.60783 6.45719 10.7042C6.00308 11.8006 5.88428 13.007 6.11583 14.1709C6.34737 15.3348 6.91885 16.4039 7.75801 17.243C7.85092 17.3358 7.96121 17.4095 8.08257 17.4597C8.20394 17.5099 8.33401 17.5357 8.46536 17.5357C8.59671 17.5357 8.72676 17.5097 8.84809 17.4594C8.96943 17.4091 9.07966 17.3354 9.17251 17.2425C9.26535 17.1496 9.33899 17.0393 9.38921 16.9179C9.43943 16.7966 9.46526 16.6665 9.46521 16.5351C9.46516 16.4038 9.43925 16.2737 9.38894 16.1524C9.33863 16.0311 9.26492 15.9208 9.17201 15.828C8.79984 15.4572 8.50469 15.0164 8.30354 14.5311C8.1024 14.0457 7.99925 13.5254 8.00001 13Z" fill="#171717"/>
</svg>
