<svg width="50" height="50" viewBox="0 0 50 50" fill="none" xmlns="http://www.w3.org/2000/svg">
<path d="M41.8052 14.8612H27.8635V8.19739C27.8635 8.08882 27.7759 8 27.6687 8H22.3293C22.2222 8 22.1345 8.08882 22.1345 8.19739V14.8612H8.1948C8.08766 14.8612 8 14.95 8 15.0586V20.469C8 20.5775 8.08766 20.6664 8.1948 20.6664H14.7478C12.7141 22.9284 11.4791 25.8794 11.4791 29.1106C11.4791 36.2304 17.4574 42.002 24.8344 42.002C32.2114 42.002 38.1898 36.2304 38.1898 29.1106C38.1898 25.8794 36.9567 22.9304 34.921 20.6664H41.8052C41.9123 20.6664 42 20.5775 42 20.469V15.0586C42 14.95 41.9123 14.8612 41.8052 14.8612ZM24.8344 35.8573C20.582 35.8573 17.1341 32.3635 17.1341 28.0546C17.1341 23.7456 20.582 20.2518 24.8344 20.2518C29.0869 20.2518 32.5348 23.7456 32.5348 28.0546C32.5348 32.3635 29.0869 35.8573 24.8344 35.8573Z" fill="#282828"/>
</svg>
