<svg width="40" height="40" viewBox="0 0 40 40" fill="none" xmlns="http://www.w3.org/2000/svg">
<path d="M36.6667 19.9997C36.6667 29.2044 29.2048 36.6663 20 36.6663C10.7953 36.6663 3.33337 29.2044 3.33337 19.9997C3.33337 10.7949 10.7953 3.33301 20 3.33301C29.2048 3.33301 36.6667 10.7949 36.6667 19.9997Z" fill="#FFC81C"/>
<path d="M27.5001 16.6667C27.5001 17.5871 26.7539 18.3333 25.8334 18.3333C24.9129 18.3333 24.1667 17.5871 24.1667 16.6667C24.1667 15.7462 24.9129 15 25.8334 15C26.7539 15 27.5001 15.7462 27.5001 16.6667Z" fill="#312C26"/>
<circle cx="14.1667" cy="16.6667" r="1.66667" fill="#312C26"/>
<path fill-rule="evenodd" clip-rule="evenodd" d="M14.1667 24.9993C14.1667 24.5391 14.5398 24.166 15.0001 24.166H25.0001C25.4603 24.166 25.8334 24.5391 25.8334 24.9993C25.8334 25.4596 25.4603 25.8327 25.0001 25.8327H15.0001C14.5398 25.8327 14.1667 25.4596 14.1667 24.9993Z" fill="#312C26"/>
</svg>
