<svg width="30" height="30" viewBox="0 0 30 30" fill="none" xmlns="http://www.w3.org/2000/svg">
<g id="Icon/30/Book_open">
<path id="Path" d="M23.2875 7.5H24.525C25.8919 7.5 27 8.61929 27 10V23.75C27 25.1307 25.8919 26.25 24.525 26.25H4.725C3.3581 26.25 2.25 25.1307 2.25 23.75V10C2.25 8.61929 3.3581 7.5 4.725 7.5H5.9625" stroke="#171717" stroke-width="1.5" stroke-linecap="round" stroke-linejoin="round"/>
<path id="Path_2" d="M15 24L15 8" stroke="#171717" stroke-width="1.5" stroke-linecap="round" stroke-linejoin="round"/>
<path id="Path_3" d="M15 7.5C16.523 5.70416 18.5988 4.28214 20.8659 3.92572L21.8966 3.76368C22.2359 3.71033 22.5805 3.81461 22.8405 4.04928C23.1005 4.28396 23.25 4.62573 23.25 4.98534V19.9802C23.25 20.5917 22.8232 21.1112 22.2463 21.2019L20.8659 21.4189C18.5988 21.7753 16.523 22.7042 15 24.5" stroke="#171717" stroke-width="1.5" stroke-linecap="round" stroke-linejoin="round"/>
<path id="Path_4" d="M15 7.5C13.477 5.70417 10.6512 4.28214 8.38414 3.92572L7.3534 3.76368C7.0141 3.71033 6.66946 3.81461 6.40949 4.04928C6.14951 4.28394 6 4.62571 6 4.98532V19.9802C6 20.5917 6.42681 21.1112 7.00374 21.2019L8.38414 21.4189C10.6512 21.7753 13.477 22.7042 15 24.5" stroke="#171717" stroke-width="1.5" stroke-linecap="round" stroke-linejoin="round"/>
</g>
</svg>
