<svg width="100" height="100" viewBox="0 0 100 100" fill="none" xmlns="http://www.w3.org/2000/svg">
<g clip-path="url(#clip0_6293_245144)">
<path fill-rule="evenodd" clip-rule="evenodd" d="M50.0003 68.7513C48.5817 65.914 45.6817 64.1217 42.5095 64.1217H32.6392C30.7216 64.1217 29.167 62.5671 29.167 60.6495V38.8902C29.167 36.9725 30.7216 35.418 32.6392 35.418H40.7411C45.8548 35.418 50.0003 39.5635 50.0003 44.6772V68.7513Z" stroke="#171717" stroke-width="3" stroke-linecap="round" stroke-linejoin="round"/>
<path d="M70.8333 54.168V38.8902C70.8333 36.9725 69.2788 35.418 67.3611 35.418H59.2593C54.1455 35.418 50 39.5635 50 44.6772V68.7513" stroke="#171717" stroke-width="3" stroke-linecap="round" stroke-linejoin="round"/>
<path fill-rule="evenodd" clip-rule="evenodd" d="M84.9469 79.5816L79.724 81.7765C78.7756 82.1751 78.0211 82.9293 77.6221 83.8775L75.4183 89.1155C74.735 90.7397 73.1039 91.7585 71.3446 91.66C69.5852 91.5614 68.0781 90.3668 67.5805 88.6765L62.6747 72.0156C62.2439 70.5526 62.6468 68.9712 63.7251 67.8927C64.8034 66.8141 66.3848 66.4109 67.8478 66.8414L84.5085 71.7431C86.1994 72.2405 87.3944 73.7479 87.4929 75.5077C87.5913 77.2675 86.5718 78.8988 84.9469 79.5816Z" fill="#FFBF00"/>
<path d="M12.5 50C12.5 70.7107 29.2893 87.5 50 87.5" stroke="#171717" stroke-width="3" stroke-linecap="round" stroke-linejoin="round"/>
<path d="M50 12.5C29.2893 12.5 12.5 29.2893 12.5 50" stroke="#171717" stroke-width="3" stroke-linecap="round" stroke-linejoin="round"/>
<path d="M86.9702 55.7202C87.3025 53.8311 87.4797 51.918 87.5 50C87.5 29.2893 70.7107 12.5 50 12.5" stroke="#171717" stroke-width="3" stroke-linecap="round" stroke-linejoin="round"/>
</g>
<defs>
<clipPath id="clip0_6293_245144">
<rect width="100" height="100" fill="white"/>
</clipPath>
</defs>
</svg>
