<svg width="30" height="30" viewBox="0 0 30 30" fill="none" xmlns="http://www.w3.org/2000/svg">
<g clip-path="url(#clip0_6728_150721)">
<path d="M21.25 7.5H23.75C24.4131 7.5 25.0491 7.76315 25.518 8.23203C25.9868 8.70091 26.25 9.3369 26.25 10V23.75C26.25 24.4131 25.9868 25.0491 25.518 25.518C25.0491 25.9868 24.4131 26.25 23.75 26.25H6.25C5.5869 26.25 4.95091 25.9868 4.48203 25.518C4.01315 25.0491 3.75 24.4131 3.75 23.75V10C3.75 9.3369 4.01315 8.70091 4.48203 8.23203C4.95091 7.76315 5.5869 7.5 6.25 7.5H8.75" stroke="#171717" stroke-width="1.5" stroke-linecap="round" stroke-linejoin="round"/>
<path d="M15 7.5V10" stroke="#171717" stroke-width="1.5" stroke-linecap="round" stroke-linejoin="round"/>
<path d="M14.9998 7.50097C16.3805 7.50097 17.4998 6.38169 17.4998 5.00098C17.4998 3.62026 16.3805 2.50098 14.9998 2.50098C13.619 2.50098 12.4998 3.62026 12.4998 5.00098C12.4998 6.38169 13.619 7.50097 14.9998 7.50097Z" stroke="#171717" stroke-width="1.5" stroke-linecap="round" stroke-linejoin="round"/>
<path d="M14.9998 19.999L8.74976 19.999" stroke="#171717" stroke-width="1.5" stroke-linecap="round" stroke-linejoin="round"/>
<path d="M21.2498 15H8.74976" stroke="#171717" stroke-width="1.5" stroke-linecap="round" stroke-linejoin="round"/>
</g>
<defs>
<clipPath id="clip0_6728_150721">
<rect width="30" height="30" fill="white"/>
</clipPath>
</defs>
</svg>
