<svg width="41" height="40" viewBox="0 0 41 40" fill="none" xmlns="http://www.w3.org/2000/svg">
<path d="M10.8477 5V9.81768C10.8477 12.6584 12.1715 15.3093 14.4779 17.0866C15.3829 17.7856 15.9 18.7791 15.9 19.8275V20.2718C15.9 21.3152 15.3829 22.3137 14.4779 23.0126C12.1715 24.7899 10.8477 27.4409 10.8477 30.2816V34.6H30.152V30.2816C30.152 27.4409 28.8282 24.7899 26.5218 23.0126C25.6168 22.3137 25.0997 21.3152 25.0997 20.2718V19.8275C25.0997 18.784 25.6168 17.7856 26.5218 17.0866C28.8282 15.3093 30.152 12.6584 30.152 9.81768V5H10.8477Z" stroke="#171717" stroke-width="1.5" stroke-linejoin="round"/>
<path opacity="0.5" d="M16.5206 14.6753C18.1185 15.9533 19.1269 17.7955 19.1269 19.8025V20.6112C19.1269 22.6182 18.1185 24.4604 16.5206 25.7384C15.145 26.8418 14.2607 28.5092 14.2607 30.3714V31.5296H26.7338V30.3714C26.7338 28.5092 25.8547 26.8468 24.474 25.7384C22.8761 24.4604 21.8728 22.6182 21.8728 20.6112V19.8025C21.8728 17.7955 22.8761 15.9533 24.474 14.6753C25.1721 14.1161 25.7461 13.4122 26.1391 12.6084H14.8606C15.2536 13.4122 15.8225 14.1161 16.5206 14.6753Z" fill="#171717"/>
</svg>
