<svg width="30" height="30" viewBox="0 0 30 30" fill="none" xmlns="http://www.w3.org/2000/svg">
<g clip-path="url(#clip0_7568_276501)">
<path d="M5 23.75V6.25C5 4.86929 6.11929 3.75 7.5 3.75H23.75C24.4404 3.75 25 4.30964 25 5V20C25 20.6904 24.4404 21.25 23.75 21.25H7.5C6.11929 21.25 5 22.3693 5 23.75ZM5 23.75C5 25.1307 6.11929 26.25 7.5 26.25H25" stroke="#171717" stroke-width="1.5" stroke-linecap="round" stroke-linejoin="round"/>
<path d="M22.5 26.25V21.25" stroke="#171717" stroke-width="1.5" stroke-linecap="round" stroke-linejoin="round"/>
<path d="M19.2383 16H17.7734V8.92969H19.2383V16Z" fill="#171717"/>
<path d="M10.1953 16L12.6465 8.92969H14.5312L16.9727 16H15.4004L14.8682 14.3691H12.3096L11.7773 16H10.1953ZM14.4971 13.2266L13.6133 10.5215H13.5645L12.6807 13.2266H14.4971Z" fill="#171717"/>
</g>
<defs>
<clipPath id="clip0_7568_276501">
<rect width="30" height="30" fill="white"/>
</clipPath>
</defs>
</svg>
