<svg width="40" height="40" viewBox="0 0 40 40" fill="none" xmlns="http://www.w3.org/2000/svg">
<path d="M28.7762 4H11.1105C9.18536 4 7.59998 5.59848 7.59998 7.53949V35.6271C7.59998 35.8555 7.82646 35.9696 8.05294 35.9696L19.8301 30.8317C19.9434 30.8317 20.0566 30.8317 20.0566 30.8317L31.947 35.9696C32.1735 36.0838 32.4 35.8555 32.4 35.6271V7.53949C32.2867 5.59848 30.7013 4 28.7762 4Z" fill="#FFB100"/>
<path opacity="0.8" d="M19.8493 28.9777H19.7463L19.6517 29.0184L9.5 33.3869V9.09706C9.5 7.67741 10.6799 6.5 12.1142 6.5H27.7854C29.2095 6.5 30.4074 7.67019 30.5 9.11245V33.3881L20.2463 29.0177L20.1523 28.9777H20.0502H20.0502H20.0502H20.0502H20.0502H20.0501H20.0501H20.0501H20.0501H20.05H20.05H20.05H20.0499H20.0499H20.0499H20.0498H20.0498H20.0497H20.0497H20.0496H20.0496H20.0495H20.0495H20.0494H20.0493H20.0493H20.0492H20.0491H20.0491H20.049H20.0489H20.0489H20.0488H20.0487H20.0486H20.0485H20.0484H20.0483H20.0483H20.0482H20.0481H20.048H20.0479H20.0478H20.0477H20.0476H20.0474H20.0473H20.0472H20.0471H20.047H20.0469H20.0468H20.0466H20.0465H20.0464H20.0463H20.0461H20.046H20.0459H20.0457H20.0456H20.0454H20.0453H20.0451H20.045H20.0449H20.0447H20.0445H20.0444H20.0442H20.0441H20.0439H20.0438H20.0436H20.0434H20.0433H20.0431H20.0429H20.0427H20.0426H20.0424H20.0422H20.042H20.0418H20.0416H20.0415H20.0413H20.0411H20.0409H20.0407H20.0405H20.0403H20.0401H20.0399H20.0397H20.0395H20.0393H20.0391H20.0388H20.0386H20.0384H20.0382H20.038H20.0378H20.0375H20.0373H20.0371H20.0369H20.0366H20.0364H20.0362H20.0359H20.0357H20.0354H20.0352H20.035H20.0347H20.0345H20.0342H20.034H20.0337H20.0335H20.0332H20.033H20.0327H20.0324H20.0322H20.0319H20.0317H20.0314H20.0311H20.0308H20.0306H20.0303H20.03H20.0297H20.0295H20.0292H20.0289H20.0286H20.0283H20.0281H20.0278H20.0275H20.0272H20.0269H20.0266H20.0263H20.026H20.0257H20.0254H20.0251H20.0248H20.0245H20.0242H20.0239H20.0236H20.0232H20.0229H20.0226H20.0223H20.022H20.0217H20.0213H20.021H20.0207H20.0204H20.02H20.0197H20.0194H20.019H20.0187H20.0184H20.018H20.0177H20.0173H20.017H20.0167H20.0163H20.016H20.0156H20.0153H20.0149H20.0146H20.0142H20.0139H20.0135H20.0131H20.0128H20.0124H20.0121H20.0117H20.0113H20.011H20.0106H20.0102H20.0099H20.0095H20.0091H20.0087H20.0084H20.008H20.0076H20.0072H20.0068H20.0065H20.0061H20.0057H20.0053H20.0049H20.0045H20.0041H20.0037H20.0033H20.003H20.0026H20.0022H20.0018H20.0014H20.001H20.0006H20.0001H19.9997H19.9993H19.9989H19.9985H19.9981H19.9977H19.9973H19.9969H19.9965H19.996H19.9956H19.9952H19.9948H19.9944H19.9939H19.9935H19.9931H19.9927H19.9922H19.9918H19.9914H19.9909H19.9905H19.9901H19.9896H19.9892H19.9888H19.9883H19.9879H19.9874H19.987H19.9866H19.9861H19.9857H19.9852H19.9848H19.9843H19.9839H19.9834H19.983H19.9825H19.9821H19.9816H19.9812H19.9807H19.9802H19.9798H19.9793H19.9789H19.9784H19.9779H19.9775H19.977H19.9765H19.9761H19.9756H19.9751H19.9746H19.9742H19.9737H19.9732H19.9728H19.9723H19.9718H19.9713H19.9708H19.9704H19.9699H19.9694H19.9689H19.9684H19.9679H19.9675H19.967H19.9665H19.966H19.9655H19.965H19.9645H19.964H19.9635H19.963H19.9625H19.962H19.9615H19.961H19.9606H19.96H19.9595H19.959H19.9585H19.958H19.9575H19.957H19.9565H19.956H19.9555H19.955H19.9545H19.954H19.9535H19.953H19.9524H19.9519H19.9514H19.9509H19.9504H19.9499H19.9493H19.9488H19.9483H19.9478H19.9473H19.9467H19.9462H19.9457H19.9452H19.9447H19.9441H19.9436H19.9431H19.9425H19.942H19.9415H19.941H19.9404H19.9399H19.9394H19.9388H19.9383H19.9378H19.9372H19.9367H19.9362H19.9356H19.9351H19.9345H19.934H19.9335H19.9329H19.9324H19.9318H19.9313H19.9308H19.9302H19.9297H19.9291H19.9286H19.928H19.9275H19.9269H19.9264H19.9258H19.9253H19.9247H19.9242H19.9236H19.9231H19.9225H19.922H19.9214H19.9209H19.9203H19.9198H19.9192H19.9187H19.9181H19.9175H19.917H19.9164H19.9159H19.9153H19.9147H19.9142H19.9136H19.9131H19.9125H19.9119H19.9114H19.9108H19.9103H19.9097H19.9091H19.9086H19.908H19.9074H19.9069H19.9063H19.9057H19.9052H19.9046H19.904H19.9035H19.9029H19.9023H19.9017H19.9012H19.9006H19.9H19.8995H19.8989H19.8983H19.8977H19.8972H19.8966H19.896H19.8954H19.8949H19.8943H19.8937H19.8931H19.8926H19.892H19.8914H19.8908H19.8903H19.8897H19.8891H19.8885H19.8879H19.8874H19.8868H19.8862H19.8856H19.885H19.8845H19.8839H19.8833H19.8827H19.8821H19.8816H19.881H19.8804H19.8798H19.8792H19.8787H19.8781H19.8775H19.8769H19.8763H19.8757H19.8751H19.8746H19.874H19.8734H19.8728H19.8722H19.8716H19.8711H19.8705H19.8699H19.8693H19.8687H19.8681H19.8675H19.867H19.8664H19.8658H19.8652H19.8646H19.864H19.8634H19.8628H19.8623H19.8617H19.8611H19.8605H19.8599H19.8593H19.8587H19.8581H19.8576H19.857H19.8564H19.8558H19.8552H19.8546H19.854H19.8534H19.8528H19.8523H19.8517H19.8511H19.8505H19.8499H19.8493Z" fill="#FFB100" stroke="white"/>
</svg>
