<svg width="24" height="24" viewBox="0 0 24 24" fill="none" xmlns="http://www.w3.org/2000/svg">
<path d="M18.63 6H19.62C20.7136 6 21.6 6.89543 21.6 8V19C21.6 20.1046 20.7136 21 19.62 21H3.78005C2.68652 21 1.80005 20.1046 1.80005 19V8C1.80005 6.89543 2.68652 6 3.78005 6H4.77005" stroke="#171717" stroke-width="1.5" stroke-linecap="round" stroke-linejoin="round"/>
<path d="M12 19.2004L12 6.40039" stroke="#171717" stroke-width="1.5" stroke-linecap="round" stroke-linejoin="round"/>
<path d="M12 6C13.2184 4.56333 14.8791 3.42572 16.6927 3.14058L17.5173 3.01094C17.7887 2.96826 18.0644 3.05169 18.2724 3.23943C18.4804 3.42717 18.6 3.70058 18.6 3.98828V15.9842C18.6 16.4734 18.2586 16.8889 17.797 16.9615L16.6927 17.1351C14.8791 17.4203 13.2184 18.1633 12 19.6" stroke="#171717" stroke-width="1.5" stroke-linecap="round" stroke-linejoin="round"/>
<path d="M12 6C10.7817 4.56334 8.52098 3.42572 6.70736 3.14058L5.88277 3.01094C5.61133 2.96826 5.33562 3.05169 5.12764 3.23942C4.91965 3.42716 4.80005 3.70057 4.80005 3.98826V15.9842C4.80005 16.4734 5.14149 16.8889 5.60304 16.9615L6.70736 17.1351C8.52098 17.4203 10.7817 18.1633 12 19.6" stroke="#171717" stroke-width="1.5" stroke-linecap="round" stroke-linejoin="round"/>
</svg>
