<svg width="120" height="120" viewBox="0 0 120 120" fill="none" xmlns="http://www.w3.org/2000/svg">
<path d="M72.5 95H11C7.68629 95 5 92.3137 5 89V20C5 16.6863 7.68629 14 11 14H55H99C102.314 14 105 16.6863 105 20V67.684" stroke="white" stroke-width="4" stroke-linecap="round"/>
<path d="M73 95H40C37.2386 95 35 97.2386 35 100V100C35 102.761 37.2386 105 40 105H73" stroke="white" stroke-width="4" stroke-linecap="round"/>
<path d="M73 85H17C15.8954 85 15 84.1046 15 83V26C15 24.8954 15.8954 24 17 24H55H93C94.1046 24 95 24.8954 95 26V67.8431" stroke="#A3C8FF" stroke-width="4" stroke-linecap="round"/>
<rect x="28" y="40" width="8" height="8" rx="1" stroke="white" stroke-width="4"/>
<path d="M44.3297 40.2285H62.3297" stroke="white" stroke-width="4" stroke-linecap="round"/>
<path d="M44.3297 48.1582H80.3297" stroke="white" stroke-width="4" stroke-linecap="round"/>
<rect x="28" y="61.8418" width="8" height="8" rx="1" stroke="white" stroke-width="4"/>
<path d="M44.3297 62.0703H62.3297" stroke="white" stroke-width="4" stroke-linecap="round"/>
<path d="M44.3297 70H80.3297" stroke="white" stroke-width="4" stroke-linecap="round"/>
<path fill-rule="evenodd" clip-rule="evenodd" d="M88.4194 87.1881C92.9778 82.6297 100.367 82.6306 104.92 87.1875L104.861 87.8235L90.3336 105.252C90.2411 105.191 90.1493 105.129 90.0584 105.065L90.0578 105.065C83.9081 100.752 83.3705 92.2369 88.4194 87.1881ZM90.3342 105.252C90.334 105.252 90.3338 105.252 90.3336 105.252L87.7604 108.339C79.5425 102.575 78.8138 91.1368 85.591 84.3596C91.7106 78.24 101.632 78.239 107.749 84.3596L105.173 87.4491C105.091 87.3611 105.006 87.2741 104.92 87.1881L104.92 87.1875L104.861 87.8235L104.861 87.8235L104.861 87.8237L90.3342 105.252ZM106.25 107.843C106.032 108.012 105.809 108.178 105.58 108.339L105.579 108.339C100.321 112.03 93.0197 112.03 87.761 108.339L90.3342 105.252C94.1935 107.787 99.492 107.724 103.281 105.065L104.861 87.8237L104.861 87.8237L103.281 105.065C103.839 104.673 104.351 104.246 104.817 103.791C104.849 103.754 104.882 103.718 104.918 103.682C104.952 103.648 104.987 103.616 105.023 103.584C109.395 99.0946 109.441 91.9856 105.173 87.4492L107.749 84.3596C113.392 90.0029 113.827 98.872 109.076 105.013L116.31 112.247C117.091 113.028 117.091 114.294 116.31 115.075C115.529 115.856 114.263 115.856 113.482 115.075L106.25 107.843ZM104.861 87.8237L104.861 87.8235L105.173 87.4491C105.173 87.4491 105.173 87.4492 105.173 87.4492L104.861 87.8237Z" fill="#FFD600"/>
</svg>
