<svg width="24" height="24" viewBox="0 0 24 24" fill="none" xmlns="http://www.w3.org/2000/svg">
<path d="M17.375 20.8324C17.85 21.2274 18.515 21.3174 19.08 21.0524C19.645 20.7874 20 20.2224 20 19.6024V3.60244C20 2.98244 19.64 2.41744 19.08 2.15244C18.52 1.88744 17.855 1.97244 17.375 2.37244L7.775 10.3724L7.2 10.8524V3.60244C7.2 2.71744 6.485 2.00244 5.6 2.00244C4.715 2.00244 4 2.71744 4 3.60244V19.6024C4 20.4874 4.715 21.2024 5.6 21.2024C6.485 21.2024 7.2 20.4874 7.2 19.6024V12.3524L7.775 12.8324L17.375 20.8324Z" fill="#171717"/>
</svg>
