<svg width="100" height="100" viewBox="0 0 100 100" fill="none" xmlns="http://www.w3.org/2000/svg">
<g clip-path="url(#clip0_6805_67639)">
<path fill-rule="evenodd" clip-rule="evenodd" d="M70.037 18H78.1852C80.3464 18 82.4193 18.7485 83.9475 20.0822C85.4757 21.4159 86.3333 23.225 86.3333 25.1111V64.2222C86.3333 66.1084 85.4757 67.9174 83.9475 69.2511C82.4193 70.5848 80.3464 71.3333 78.1852 71.3333H21.1481C18.9869 71.3333 16.9141 70.5848 15.3859 69.2511C13.8577 67.9174 13 66.1084 13 64.2222V25.1111C13 23.225 13.8577 21.4159 15.3859 20.0822C16.9141 18.7485 18.9869 18 21.1481 18H70.037Z" stroke="#171717" stroke-width="3" stroke-linecap="round" stroke-linejoin="round"/>
<path fill-rule="evenodd" clip-rule="evenodd" d="M41.2818 50.8691L42.9951 46.672C43.3062 45.9099 43.3064 45.0563 42.9957 44.294L41.2789 40.0834C40.7465 38.7778 41.093 37.2784 42.1442 36.3387C43.1954 35.399 44.724 35.2222 45.962 35.8971L58.1646 42.5481C59.2361 43.1322 59.9029 44.2549 59.9031 45.4753C59.9032 46.6956 59.2366 47.8185 58.1652 48.4027L45.965 55.0562C44.7268 55.7314 43.1977 55.5547 42.1464 54.6146C41.095 53.6746 40.7488 52.1748 41.2818 50.8691Z" fill="#FFBF00"/>
<path d="M33 83H66.3333" stroke="#171717" stroke-width="3" stroke-linecap="round"/>
</g>
<defs>
<clipPath id="clip0_6805_67639">
<rect width="100" height="100" fill="white"/>
</clipPath>
</defs>
</svg>
