<svg width="24" height="24" viewBox="0 0 24 24" fill="none" xmlns="http://www.w3.org/2000/svg">
<path fill-rule="evenodd" clip-rule="evenodd" d="M18.6986 6.42326C14.9989 2.64006 9.00105 2.64006 5.30142 6.42326C1.60128 10.207 1.60128 16.342 5.30142 20.1257C5.79495 20.6304 5.79534 21.449 5.30228 21.9542C4.80922 22.4594 4.00943 22.4598 3.5159 21.9551C-1.17197 17.1613 -1.17197 9.38766 3.5159 4.5939C8.20192 -0.19797 15.7981 -0.197966 20.4841 4.59391C25.172 9.38767 25.172 17.1613 20.4841 21.9551C19.9906 22.4598 19.1908 22.4594 18.6977 21.9542C18.2047 21.449 18.2051 20.6304 18.6986 20.1257C22.3987 16.342 22.3987 10.207 18.6986 6.42326ZM16.8197 8.56372C17.2103 8.95424 17.2103 9.58741 16.8197 9.97793L14.235 12.5627C14.3708 12.8827 14.446 13.2346 14.446 13.6042C14.446 15.0769 13.2521 16.2708 11.7793 16.2708C10.3066 16.2708 9.11264 15.0769 9.11264 13.6042C9.11264 12.1314 10.3066 10.9375 11.7793 10.9375C12.1488 10.9375 12.5008 11.0126 12.8207 11.1485L15.4055 8.56372C15.7961 8.17319 16.4292 8.17319 16.8197 8.56372Z" fill="#171717"/>
</svg>
