<svg width="30" height="30" viewBox="0 0 30 30" fill="none" xmlns="http://www.w3.org/2000/svg">
<path fill-rule="evenodd" clip-rule="evenodd" d="M23.1561 5C23.9104 4.99979 24.6339 5.29935 25.1673 5.83274C25.7006 6.36612 26.0002 7.08961 26 7.84393C25.9999 8.20637 25.706 8.5001 25.3436 8.5C24.9811 8.4999 24.6874 8.20601 24.6875 7.84357C24.6876 7.43747 24.5263 7.04797 24.2392 6.76082C23.952 6.47366 23.5625 6.31239 23.1564 6.3125C22.794 6.3126 22.5001 6.01887 22.5 5.65643C22.4999 5.29399 22.7936 5.0001 23.1561 5ZM5.83274 5.83274C6.36612 5.29935 7.08961 4.99979 7.84393 5C8.20637 5.0001 8.5001 5.29399 8.5 5.65643C8.4999 6.01887 8.20601 6.3126 7.84357 6.3125C7.43747 6.31239 7.04797 6.47366 6.76082 6.76082C6.47366 7.04797 6.31239 7.43747 6.3125 7.84357C6.3126 8.20601 6.01887 8.4999 5.65643 8.5C5.29399 8.5001 5.0001 8.20637 5 7.84393C4.99979 7.08961 5.29935 6.36612 5.83274 5.83274ZM5.65643 22.5C6.01887 22.5001 6.3126 22.794 6.3125 23.1564C6.31239 23.5625 6.47366 23.952 6.76082 24.2392C7.04797 24.5263 7.43747 24.6876 7.84357 24.6875C8.20601 24.6874 8.4999 24.9811 8.5 25.3436C8.5001 25.706 8.20637 25.9999 7.84393 26C7.08961 26.0002 6.36612 25.7006 5.83274 25.1673C5.29935 24.6339 4.99979 23.9104 5 23.1561C5.0001 22.7936 5.29399 22.4999 5.65643 22.5ZM6.3125 17.3281C6.3125 16.9657 6.01869 16.6719 5.65625 16.6719C5.29381 16.6719 5 16.9657 5 17.3281V19.5156C5 19.8781 5.29381 20.1719 5.65625 20.1719C6.01869 20.1719 6.3125 19.8781 6.3125 19.5156V17.3281ZM5.65625 10.8281C6.01869 10.8281 6.3125 11.1219 6.3125 11.4844V13.6719C6.3125 14.0343 6.01869 14.3281 5.65625 14.3281C5.29381 14.3281 5 14.0343 5 13.6719V11.4844C5 11.1219 5.29381 10.8281 5.65625 10.8281ZM11.4854 24.6875C11.1229 24.6875 10.8291 24.9813 10.8291 25.3438C10.8291 25.7062 11.1229 26 11.4854 26H13.6729C14.0353 26 14.3291 25.7062 14.3291 25.3438C14.3291 24.9813 14.0353 24.6875 13.6729 24.6875H11.4854ZM10.8291 5.65625C10.8291 5.29381 11.1229 5 11.4854 5H13.6729C14.0353 5 14.3291 5.29381 14.3291 5.65625C14.3291 6.01869 14.0353 6.3125 13.6729 6.3125H11.4854C11.1229 6.3125 10.8291 6.01869 10.8291 5.65625ZM26 23.1561C25.9999 22.7936 25.706 22.4999 25.3436 22.5C24.9811 22.5001 24.6874 22.794 24.6875 23.1564C24.6876 23.5625 24.5263 23.952 24.2392 24.2392C23.952 24.5263 23.5625 24.6876 23.1564 24.6875C22.794 24.6874 22.5001 24.9811 22.5 25.3436C22.4999 25.706 22.7936 25.9999 23.1561 26C23.9104 26.0002 24.6339 25.7006 25.1673 25.1673C25.7006 24.6339 26.0002 23.9104 26 23.1561ZM26 11.4844C26 11.1219 25.7062 10.8281 25.3438 10.8281C24.9813 10.8281 24.6875 11.1219 24.6875 11.4844V13.6719C24.6875 14.0343 24.9813 14.3281 25.3438 14.3281C25.7062 14.3281 26 14.0343 26 13.6719V11.4844ZM25.3438 16.6719C25.7062 16.6719 26 16.9657 26 17.3281V19.5156C26 19.8781 25.7062 20.1719 25.3438 20.1719C24.9813 20.1719 24.6875 19.8781 24.6875 19.5156V17.3281C24.6875 16.9657 24.9813 16.6719 25.3438 16.6719ZM17.3262 5C16.9638 5 16.67 5.29381 16.67 5.65625C16.67 6.01869 16.9638 6.3125 17.3262 6.3125H19.5137C19.8762 6.3125 20.17 6.01869 20.17 5.65625C20.17 5.29381 19.8762 5 19.5137 5H17.3262ZM16.67 25.3438C16.67 24.9813 16.9638 24.6875 17.3262 24.6875H19.5137C19.8762 24.6875 20.17 24.9813 20.17 25.3438C20.17 25.7062 19.8762 26 19.5137 26H17.3262C16.9638 26 16.67 25.7062 16.67 25.3438ZM18.1515 14.5969C18.4078 14.3406 18.4078 13.9251 18.1515 13.6688C17.8953 13.4125 17.4797 13.4125 17.2235 13.6688L14.9531 15.9391L13.7765 14.7625C13.5203 14.5062 13.1047 14.5062 12.8485 14.7625C12.5922 15.0188 12.5922 15.4343 12.8485 15.6906L14.4891 17.3312C14.7454 17.5875 15.1609 17.5875 15.4172 17.3312L18.1515 14.5969Z" fill="#171717"/>
</svg>
