<svg width="40" height="40" viewBox="0 0 40 40" fill="none" xmlns="http://www.w3.org/2000/svg">
<path d="M9 37H31C32.6569 37 34 35.6569 34 34V13.1037C34 12.3196 33.693 11.5667 33.1448 11.0061L26.1974 3.90241C25.633 3.3253 24.8598 3 24.0526 3H9C7.34315 3 6 4.34315 6 6V34C6 35.6569 7.34315 37 9 37Z" stroke="#171717" stroke-width="2" stroke-linejoin="round"/>
<path d="M24.0002 3.00391L24.0001 9.7504C24 10.855 24.8955 11.7505 26.0001 11.7505H32.8908" stroke="#171717" stroke-width="2" stroke-linejoin="round"/>
<path d="M13.211 29.0039C12.6896 29.0039 12.2747 28.7377 12.0938 28.2939C11.7924 27.5556 12.225 26.5404 13.2819 25.5109C14.1083 24.7016 15.2609 24.0378 16.7151 23.5337C17.4882 22.0996 18.1975 20.5625 18.6941 19.2527C17.5911 17.5346 17.3854 15.4153 17.7719 14.2297C18.0202 13.463 18.4529 13.1754 18.7721 13.0689C19.2154 12.9198 19.6694 13.0299 19.985 13.3707C20.4603 13.8818 20.6341 14.9148 20.5206 16.5264C20.4745 17.1689 20.2617 18.0315 19.8857 19.0929C19.9035 19.1142 19.9176 19.1355 19.9354 19.1533C20.1872 19.4585 20.4532 19.7958 20.7334 20.1507C21.3292 20.9033 22.0031 21.7517 22.684 22.5114C22.8862 22.5043 23.0812 22.5007 23.2692 22.5007C25.6809 22.5007 27.2981 23.0048 27.8266 23.9206C28.0536 24.3111 28.0571 24.7513 27.8408 25.1275C27.5464 25.6352 26.9151 25.9404 26.1455 25.9404C25.9575 25.9404 25.766 25.9227 25.5745 25.8872C24.6063 25.7097 23.5423 24.9785 22.2407 23.594C21.9073 23.6118 21.5597 23.6366 21.2015 23.6721C20.4319 23.7467 18.953 23.9384 17.4527 24.414C16.8073 25.5819 15.417 27.939 14.3814 28.6134C13.9913 28.869 13.5869 29.0039 13.2181 29.0039H13.211ZM15.8568 25.0352C15.112 25.3938 14.502 25.8091 14.0232 26.2741C13.0869 27.19 13.0266 27.765 13.0762 27.8928C13.0904 27.9319 13.1578 27.939 13.2075 27.939C13.3671 27.939 13.5798 27.8609 13.7891 27.7224C14.2537 27.4207 15.0162 26.4161 15.8532 25.0352H15.8568ZM23.7196 23.5727C24.5211 24.3182 25.195 24.7335 25.766 24.84C25.8972 24.8649 26.0249 24.8755 26.1455 24.8755C26.5675 24.8755 26.8406 24.73 26.9187 24.5951C26.9328 24.5702 26.9541 24.5347 26.9045 24.4531C26.7271 24.1443 25.8547 23.6331 23.7196 23.5727ZM19.4495 20.243C19.0771 21.1553 18.6267 22.1457 18.1337 23.1148C19.3537 22.8131 20.4567 22.6746 21.0951 22.6107C21.1767 22.6036 21.2618 22.5965 21.3434 22.5894C20.8362 21.9895 20.3468 21.3754 19.8999 20.811C19.7439 20.6158 19.5949 20.4241 19.4495 20.243ZM19.1658 14.0664C19.1658 14.0664 19.1409 14.0664 19.1126 14.0771C18.992 14.1161 18.8714 14.2972 18.7863 14.5598C18.5309 15.3443 18.6338 16.6613 19.1622 17.8789C19.3325 17.3038 19.4318 16.8175 19.4601 16.4519C19.5914 14.6592 19.3005 14.1978 19.2083 14.0984C19.1835 14.07 19.1729 14.07 19.1658 14.07V14.0664Z" fill="#171717" stroke="#171717" stroke-width="0.3"/>
</svg>
