<svg width="30" height="30" viewBox="0 0 30 30" fill="none" xmlns="http://www.w3.org/2000/svg">
<g clip-path="url(#clip0_6805_59068)">
<path fill-rule="evenodd" clip-rule="evenodd" d="M21.1111 7H23.5556C24.2039 7 24.8258 7.22456 25.2842 7.62467C25.7427 8.02478 26 8.56749 26 9.13333V20.8667C26 21.4325 25.7427 21.9752 25.2842 22.3753C24.8258 22.7754 24.2039 23 23.5556 23H6.44444C5.79608 23 5.17423 22.7754 4.71576 22.3753C4.2573 21.9752 4 21.4325 4 20.8667V9.13333C4 8.56749 4.2573 8.02478 4.71576 7.62467C5.17423 7.22456 5.79608 7 6.44444 7H21.1111Z" stroke="#171717" stroke-width="1.5" stroke-linecap="round" stroke-linejoin="round"/>
<path fill-rule="evenodd" clip-rule="evenodd" d="M12.4845 16.8602L12.9985 15.6011C13.0918 15.3725 13.0919 15.1164 12.9987 14.8877L12.4837 13.6245C12.3239 13.2328 12.4279 12.783 12.7432 12.5011C13.0586 12.2192 13.5172 12.1662 13.8886 12.3686L17.5494 14.364C17.8708 14.5392 18.0709 14.876 18.0709 15.2421C18.0709 15.6082 17.8709 15.9451 17.5495 16.1203L13.8895 18.1164C13.518 18.3189 13.0593 18.2659 12.7439 17.9839C12.4285 17.7019 12.3246 17.2519 12.4845 16.8602Z" fill="#FFBF00"/>
<path d="M10 26.5H20" stroke="#171717" stroke-width="1.5" stroke-linecap="round"/>
</g>
<defs>
<clipPath id="clip0_6805_59068">
<rect width="30" height="30" fill="white"/>
</clipPath>
</defs>
</svg>
