<svg width="24" height="24" viewBox="0 0 24 24" fill="none" xmlns="http://www.w3.org/2000/svg">
<path d="M13.2838 2.1183C13.7912 2.33952 14.1176 2.82449 14.1176 3.36051V19.6964C14.1176 20.2325 13.7912 20.7174 13.2838 20.9386C12.7765 21.1599 12.1809 21.0705 11.7662 20.7132L5.81471 15.6125H2.82353C1.26618 15.6125 0 14.3915 0 12.8898V10.1671C0 8.66543 1.26618 7.44449 2.82353 7.44449H5.81471L11.7662 2.34377C12.1809 1.98642 12.7765 1.90134 13.2838 2.1183Z" fill="#171717"/>
<path d="M23.6251 10.1851C24.125 9.68522 24.125 8.87477 23.6251 8.3749C23.1252 7.87503 22.3148 7.87503 21.8149 8.3749L20 10.1898L18.1851 8.3749C17.6852 7.87503 16.8748 7.87503 16.3749 8.3749C15.875 8.87477 15.875 9.68522 16.3749 10.1851L18.1898 12L16.3749 13.8149C15.875 14.3148 15.875 15.1252 16.3749 15.6251C16.8748 16.125 17.6852 16.125 18.1851 15.6251L20 13.8102L21.8149 15.6251C22.3148 16.125 23.1252 16.125 23.6251 15.6251C24.125 15.1252 24.125 14.3148 23.6251 13.8149L21.8102 12L23.6251 10.1851Z" fill="#171717"/>
</svg>
