<svg width="28" height="17" viewBox="0 0 28 17" fill="none" xmlns="http://www.w3.org/2000/svg">
<g id="icon">
<path id="Vector" d="M0.469255 7.99174C0.531282 7.91035 2.01515 5.97465 4.41988 4.01821C5.84173 2.86126 7.29379 1.93889 8.73472 1.27344C10.5669 0.429269 12.3879 0 14.1501 0C15.9123 0 17.7334 0.429269 19.5656 1.27344C21.0065 1.93889 22.4585 2.86126 23.8804 4.01821C26.2851 5.97465 27.7674 7.91035 27.8294 7.99174C28.0569 8.29175 28.0569 8.70825 27.8294 9.00826C27.7674 9.08965 26.2835 11.0253 23.8788 12.9818C22.457 14.1387 21.0049 15.0611 19.564 15.7266C17.7318 16.5723 15.9092 17 14.1485 17C12.3879 17 10.5653 16.5707 8.73313 15.7266C7.2922 15.0611 5.84014 14.1387 4.41829 12.9818C2.01356 11.0253 0.529692 9.08965 0.467665 9.00826C0.240234 8.70825 0.240234 8.29175 0.467665 7.99174H0.469255ZM5.47116 11.6812C7.51486 13.344 10.6814 15.326 14.1501 15.326C17.6189 15.326 20.7616 13.3568 22.7989 11.7052C24.3464 10.4509 25.5058 9.1822 26.0863 8.5008C25.5058 7.81939 24.3464 6.55074 22.7989 5.29644C20.7616 3.64479 17.6061 1.67558 14.1501 1.67558C10.6941 1.67558 7.53872 3.64479 5.50138 5.29644C3.95389 6.55074 2.79446 7.82099 2.21396 8.50239C2.78969 9.17741 3.9348 10.4317 5.47275 11.6828L5.47116 11.6812Z" fill="#171717"/>
<g id="Vector_2">
<path d="M10.8928 6.21064C11.3174 6.39097 11.5162 6.88247 11.3365 7.30855C11.1774 7.68516 11.0963 8.0873 11.0963 8.50061C11.0963 8.91392 11.1774 9.31606 11.3365 9.69267C11.4908 10.0581 11.7102 10.3852 11.9917 10.6661C12.2717 10.947 12.5993 11.1688 12.9619 11.3236C13.3372 11.4831 13.738 11.5645 14.15 11.5645C14.5619 11.5645 14.9627 11.4831 15.338 11.3236C15.7022 11.1688 16.0283 10.9486 16.3082 10.6661C16.5881 10.3852 16.8092 10.0565 16.9634 9.69267C17.1225 9.31606 17.2036 8.91392 17.2036 8.50061C17.2036 8.0873 17.1225 7.68516 16.9634 7.30855C16.8092 6.94311 16.5897 6.61598 16.3082 6.33512C16.0267 6.05426 15.7006 5.83244 15.338 5.67765C14.9627 5.51807 14.5619 5.43668 14.15 5.43668C13.738 5.43668 13.3372 5.51807 12.9619 5.67765C12.8553 5.72233 12.6375 5.74467 12.6375 5.74467C12.313 5.74467 12.0029 5.55318 11.8693 5.23402C11.6896 4.80794 11.8884 4.31644 12.313 4.13611C12.8951 3.88876 13.5138 3.7627 14.1515 3.7627C14.7893 3.7627 15.408 3.88876 15.9901 4.13611C16.5531 4.37548 17.0573 4.71698 17.4915 5.15104C17.9256 5.58509 18.266 6.09256 18.503 6.65747C18.7495 7.24153 18.8751 7.86229 18.8751 8.50221C18.8751 9.14212 18.7495 9.76288 18.503 10.3469C18.2644 10.9119 17.9241 11.4177 17.4915 11.8534C17.0589 12.289 16.5531 12.6305 15.9901 12.8683C15.408 13.1156 14.7893 13.2417 14.1515 13.2417C13.5138 13.2417 12.8967 13.1156 12.313 12.8683C11.75 12.6289 11.2458 12.2874 10.8116 11.8534C10.3775 11.4193 10.0387 10.9119 9.80013 10.3469C9.55362 9.76288 9.42797 9.14212 9.42797 8.50221C9.42797 7.86229 9.55362 7.24312 9.80013 6.65747C9.97985 6.23139 10.4697 6.03192 10.8943 6.21224L10.8928 6.21064Z" fill="#171717"/>
<path d="M10.2303 9.19438C10.658 9.02162 11.1462 9.22859 11.3204 9.65695C11.4742 10.0357 11.7012 10.3774 11.9935 10.6697C12.2857 10.9619 12.6274 11.1889 13.0062 11.3428C13.3737 11.4921 13.7602 11.5682 14.1579 11.5678C14.5544 11.5684 14.9429 11.4936 15.3088 11.3467C15.687 11.1941 16.028 10.9682 16.3192 10.677C16.6105 10.3857 16.8364 10.0447 16.9889 9.6665C17.137 9.29951 17.2118 8.91324 17.21 8.51559C17.2094 8.11906 17.1332 7.73029 16.985 7.36393C16.8312 6.98517 16.6042 6.64346 16.3119 6.3512C16.0197 6.05895 15.678 5.83195 15.2992 5.6781C14.9317 5.52879 14.5452 5.45266 14.1476 5.45312C13.7499 5.45358 13.3625 5.52727 12.9967 5.67423C12.6184 5.8268 12.2775 6.05265 11.9862 6.34392C11.6949 6.63519 11.4691 6.97614 11.3165 7.35439C11.2727 7.46133 11.1345 7.6312 11.1345 7.6312C10.9051 7.86062 10.5503 7.94451 10.2302 7.81329C9.80184 7.63909 9.59487 7.15097 9.76763 6.72319C10.0043 6.13669 10.3527 5.61007 10.8036 5.15911C11.2546 4.70814 11.7812 4.35981 12.3677 4.12311C12.9351 3.89426 13.5331 3.77924 14.147 3.77914C14.7609 3.77905 15.3604 3.89722 15.9275 4.1291C16.5148 4.36778 17.0425 4.71788 17.495 5.17037C17.9475 5.62286 18.2976 6.15065 18.5363 6.73796C18.7671 7.3061 18.8841 7.90447 18.8863 8.51841C18.8884 9.13236 18.7723 9.73146 18.5423 10.2977C18.3056 10.8842 17.9573 11.4108 17.5063 11.8618C17.0553 12.3128 16.5298 12.66 15.9422 12.8978C15.3748 13.1266 14.7769 13.2417 14.1629 13.2417C13.549 13.2418 12.9506 13.1226 12.3825 12.8918C11.7952 12.6531 11.2674 12.303 10.8149 11.8505C10.3624 11.398 10.0134 10.8714 9.77362 10.2829C9.59942 9.85457 9.80475 9.36714 10.2325 9.19438L10.2303 9.19438Z" fill="#171717"/>
</g>
</g>
</svg>
