<svg width="80" height="80" viewBox="0 0 80 80" fill="none" xmlns="http://www.w3.org/2000/svg">
<rect width="80" height="80" rx="40" fill="#169BD5"/>
<path d="M29.7399 31.2942C33.4454 27.6032 39.5331 27.6032 43.2386 31.2942C46.5471 34.5897 47.0103 39.7966 44.2974 43.6194L44.2312 43.6853C43.5695 44.6739 42.2461 44.8717 41.2535 44.2126C40.3271 43.4876 40.0624 42.1694 40.7903 41.2466L40.8565 41.1807C42.3784 39.0057 42.1137 36.1715 40.261 34.3261C38.2097 32.2169 34.835 32.2169 32.7175 34.3261L25.3065 41.708C23.189 43.7512 23.189 47.1126 25.3065 49.2217C27.1592 51.0672 30.0707 51.265 32.1882 49.8149L32.2543 49.6831C33.2469 49.024 34.5703 49.2217 35.232 50.2104C35.8937 51.1331 35.6952 52.4513 34.7688 53.1764L34.6365 53.2423C30.7986 55.9446 25.6373 55.4832 22.3288 52.1877C18.5571 48.4967 18.5571 42.433 22.3288 38.742L29.7399 31.2942ZM49.2601 47.6399C45.5546 51.3968 39.4669 51.3968 35.7614 47.6399C32.4529 44.3444 31.9897 39.2034 34.7026 35.3806L34.7688 35.3147C35.4305 34.3261 36.7539 34.1283 37.7465 34.7874C38.6729 35.4465 38.9376 36.7647 38.2097 37.7534L38.1435 37.8193C36.6216 39.9284 36.8863 42.8285 38.739 44.6739C40.7903 46.7831 44.165 46.7831 46.2825 44.6739L53.6936 37.292C55.811 35.1829 55.811 31.8215 53.6936 29.7783C51.8408 27.9328 48.9293 27.6691 46.8118 29.1851L46.7457 29.251C45.7531 29.976 44.4297 29.7123 43.768 28.7896C43.1063 27.8669 43.3048 26.5487 44.2312 25.8236L44.3635 25.7577C48.2014 23.0554 53.3627 23.5168 56.6712 26.8123C60.4429 30.5033 60.4429 36.567 56.6712 40.258L49.2601 47.6399Z" fill="white"/>
</svg>
