<svg width="30" height="30" viewBox="0 0 30 30" fill="none" xmlns="http://www.w3.org/2000/svg">
<rect width="30" height="30" rx="15" fill="#D5D5D5"/>
<path d="M13.8947 19.1459C17.1503 19.1459 19.7895 16.6508 19.7895 13.5729C19.7895 10.4951 17.1503 8 13.8947 8C10.6392 8 8 10.4951 8 13.5729C8 16.6508 10.6392 19.1459 13.8947 19.1459Z" stroke="white" stroke-width="1.5" stroke-linecap="round" stroke-linejoin="round"/>
<path d="M13.8947 19.1459C17.1503 19.1459 19.7895 16.6508 19.7895 13.5729C19.7895 10.4951 17.1503 8 13.8947 8C10.6392 8 8 10.4951 8 13.5729C8 16.6508 10.6392 19.1459 13.8947 19.1459Z" stroke="white" stroke-width="1.5" stroke-linecap="round" stroke-linejoin="round"/>
<path d="M22.0012 21.9984L17.6934 17.8281" stroke="white" stroke-width="1.5" stroke-linecap="round" stroke-linejoin="round"/>
</svg>
