<svg width="100" height="100" viewBox="0 0 100 100" fill="none" xmlns="http://www.w3.org/2000/svg">
<path d="M13.5854 67.5622C27.2493 63.8348 43.2346 62.4808 58.5862 63.5003" stroke="#46A7E5" stroke-width="4" stroke-linecap="round" stroke-linejoin="round"/>
<path d="M48.7081 5C71.7958 5 90.4161 24.1103 90.4161 47.8056C90.4161 53.17 89.4617 58.2995 87.7172 63.0254M48.7081 90.6112C52.4817 90.6112 56.1359 90.1007 59.609 89.143" stroke="#46A7E5" stroke-width="4" stroke-linecap="round" stroke-linejoin="round"/>
<path d="M48.708 90.6112C25.6203 90.6112 7 71.5009 7 47.8056C7 24.1103 25.6203 5 48.708 5" stroke="#46A7E5" stroke-width="4" stroke-linecap="round" stroke-linejoin="round"/>
<path d="M67.1178 53.9886C68.3417 38.8274 65.0545 23.315 57.2561 10.0402C53.3051 3.31993 44.1062 3.31993 40.1599 10.0402C26.6789 32.9881 26.6789 62.6231 40.1599 85.571C42.32 89.2494 46.055 90.9144 49.6409 90.566" stroke="#46A7E5" stroke-width="4" stroke-linecap="round" stroke-linejoin="round"/>
<path d="M12.4879 28.0469C34.6656 35.3641 62.755 35.3641 84.9282 28.0469" stroke="#46A7E5" stroke-width="4" stroke-linecap="round" stroke-linejoin="round"/>
<path fill-rule="evenodd" clip-rule="evenodd" d="M89.9212 82.2638L84.4168 84.577C83.4172 84.997 82.622 85.7919 82.2015 86.7912L79.8788 92.3115C79.1588 94.0233 77.4397 95.097 75.5856 94.9932C73.7314 94.8893 72.143 93.6304 71.6186 91.8489L66.4483 74.29C65.9943 72.7481 66.4189 71.0814 67.5553 69.9448C68.6918 68.8081 70.3584 68.3832 71.9003 68.8369L89.4592 74.0027C91.2412 74.5269 92.5006 76.1157 92.6044 77.9703C92.7081 79.8249 91.6337 81.5442 89.9212 82.2638Z" stroke="#FFB100" stroke-width="4" stroke-linecap="round" stroke-linejoin="round"/>
</svg>
