<svg width="41" height="40" viewBox="0 0 41 40" fill="none" xmlns="http://www.w3.org/2000/svg">
<path d="M20.5884 31.6666V36.6666" stroke="#FF6600" stroke-width="1.5" stroke-linecap="round" stroke-linejoin="round"/>
<path d="M15.5884 36.6666H25.5884" stroke="#FF6600" stroke-width="1.5" stroke-linecap="round" stroke-linejoin="round"/>
<path d="M14.522 7.26665C15.567 4.95165 17.8836 3.33331 20.5886 3.33331C24.2703 3.33331 27.2553 6.31831 27.2553 9.99998V20" stroke="#FF6600" stroke-width="1.5" stroke-linecap="round" stroke-linejoin="round"/>
<path d="M7.67188 7.08331L33.5052 32.9166" stroke="#FF6600" stroke-width="1.5" stroke-linecap="round" stroke-linejoin="round"/>
<path d="M13.9219 13.3333V20C13.9219 23.6816 16.9069 26.6666 20.5885 26.6666C22.4302 26.6666 24.0969 25.92 25.3019 24.7133" stroke="#FF6600" stroke-width="1.5" stroke-linecap="round" stroke-linejoin="round"/>
<path d="M32.4219 18.3333V19.8333C32.4219 21.4116 32.1069 22.9133 31.5469 24.29" stroke="#FF6600" stroke-width="1.5" stroke-linecap="round" stroke-linejoin="round"/>
<path d="M8.75537 18.3333V19.8333C8.75537 26.3683 14.0537 31.6666 20.5887 31.6666C23.8137 31.6666 26.7337 30.3733 28.8687 28.28" stroke="#FF6600" stroke-width="1.5" stroke-linecap="round" stroke-linejoin="round"/>
</svg>
