<svg width="40" height="40" viewBox="0 0 40 40" fill="none" xmlns="http://www.w3.org/2000/svg">
<g clip-path="url(#clip0_6293_247101)">
<path d="M28.3333 10H31.6667C32.5508 10 33.3988 10.3509 34.024 10.976C34.6491 11.6012 35 12.4492 35 13.3333V31.6667C35 32.5508 34.6491 33.3988 34.024 34.024C33.3988 34.6491 32.5508 35 31.6667 35H8.33333C7.4492 35 6.60122 34.6491 5.97604 34.024C5.35087 33.3988 5 32.5508 5 31.6667V13.3333C5 12.4492 5.35087 11.6012 5.97604 10.976C6.60122 10.3509 7.4492 10 8.33333 10H11.6667" stroke="#171717" stroke-width="1.5" stroke-linecap="round" stroke-linejoin="round"/>
<path d="M20 10V13.3333" stroke="#171717" stroke-width="1.5" stroke-linecap="round" stroke-linejoin="round"/>
<path d="M19.9997 10.0016C21.8406 10.0016 23.333 8.50924 23.333 6.66829C23.333 4.82734 21.8406 3.33496 19.9997 3.33496C18.1587 3.33496 16.6663 4.82734 16.6663 6.66829C16.6663 8.50924 18.1587 10.0016 19.9997 10.0016Z" stroke="#171717" stroke-width="1.5" stroke-linecap="round" stroke-linejoin="round"/>
<path d="M19.9997 26.665L11.6663 26.665" stroke="#171717" stroke-width="1.5" stroke-linecap="round" stroke-linejoin="round"/>
<path d="M28.333 20H11.6663" stroke="#171717" stroke-width="1.5" stroke-linecap="round" stroke-linejoin="round"/>
</g>
<defs>
<clipPath id="clip0_6293_247101">
<rect width="40" height="40" fill="white"/>
</clipPath>
</defs>
</svg>
