<svg width="40" height="40" viewBox="0 0 40 40" fill="none" xmlns="http://www.w3.org/2000/svg">
<path fill-rule="evenodd" clip-rule="evenodd" d="M6.50112 26.0819L8.83112 26.4385C10.5511 26.7019 11.7795 28.2419 11.6528 29.9769L11.4811 32.3285C11.4311 33.0135 11.8045 33.6585 12.4228 33.9569L14.1461 34.7869C14.7645 35.0852 15.5028 34.9735 16.0078 34.5085L17.7395 32.9085C19.0161 31.7285 20.9861 31.7285 22.2645 32.9085L23.9961 34.5085C24.5011 34.9752 25.2378 35.0852 25.8578 34.7869L27.5845 33.9552C28.2011 33.6585 28.5728 33.0152 28.5228 32.3319L28.3511 29.9769C28.2245 28.2419 29.4528 26.7019 31.1728 26.4385L33.5028 26.0819C34.1811 25.9785 34.7278 25.4702 34.8811 24.8002L35.3061 22.9369C35.4594 22.2669 35.1878 21.5719 34.6211 21.1852L32.6761 19.8535C31.2411 18.8702 30.8028 16.9502 31.6694 15.4419L32.8444 13.3985C33.1861 12.8035 33.1294 12.0585 32.7011 11.5219L31.5094 10.0269C31.0811 9.4902 30.3678 9.26854 29.7111 9.47021L27.4578 10.1602C25.7928 10.6702 24.0178 9.8152 23.3778 8.19687L22.5145 6.00854C22.2611 5.36854 21.6428 4.94854 20.9545 4.9502L19.0445 4.95521C18.3561 4.95687 17.7395 5.38021 17.4895 6.02187L16.6478 8.1852C16.0145 9.81354 14.2311 10.6752 12.5611 10.1619L10.2145 9.44187C9.55612 9.23854 8.83945 9.46187 8.41112 10.0019L7.22779 11.4985C6.79945 12.0402 6.74779 12.7869 7.09612 13.3819L8.29779 15.4302C9.18279 16.9402 8.74945 18.8785 7.30612 19.8669L5.38445 21.1835C4.81779 21.5719 4.54612 22.2669 4.69945 22.9352L5.12445 24.7985C5.27612 25.4702 5.82279 25.9785 6.50112 26.0819Z" stroke="#171717" stroke-width="1.5" stroke-linecap="round" stroke-linejoin="round"/>
<path fill-rule="evenodd" clip-rule="evenodd" d="M23.1856 16.8118C24.9489 18.5751 24.9489 21.4351 23.1856 23.1984C21.4223 24.9618 18.5623 24.9618 16.7989 23.1984C15.0356 21.4351 15.0356 18.5751 16.7989 16.8118C18.5623 15.0484 21.4223 15.0484 23.1856 16.8118Z" stroke="#171717" stroke-width="1.5" stroke-linecap="round" stroke-linejoin="round"/>
</svg>
