<svg width="30" height="30" viewBox="0 0 30 30" fill="none" xmlns="http://www.w3.org/2000/svg">
<rect width="30" height="30" rx="15" fill="#373737"/>
<path fill-rule="evenodd" clip-rule="evenodd" d="M15 7.97656C15.526 7.97656 15.9524 8.40296 15.9524 8.92894V16.0741L17.6996 14.3269C18.0715 13.955 18.6745 13.955 19.0465 14.3269C19.4184 14.6989 19.4184 15.3019 19.0465 15.6738L15.6734 19.0468C15.3015 19.4188 14.6985 19.4188 14.3266 19.0468L10.9535 15.6738C10.5816 15.3019 10.5816 14.6989 10.9535 14.3269C11.3255 13.955 11.9285 13.955 12.3004 14.3269L14.0476 16.0741V8.92894C14.0476 8.40296 14.474 7.97656 15 7.97656ZM10 21.0718C10 20.5458 10.4264 20.1194 10.9524 20.1194H19.0476C19.5736 20.1194 20 20.5458 20 21.0718C20 21.5978 19.5736 22.0242 19.0476 22.0242H10.9524C10.4264 22.0242 10 21.5978 10 21.0718Z" fill="white"/>
</svg>
