<svg width="40" height="40" viewBox="0 0 40 40" fill="none" xmlns="http://www.w3.org/2000/svg">
<path d="M31.579 34.7364H8.42108C7.58355 34.7364 6.78033 34.4037 6.18811 33.8115C5.59589 33.2192 5.26318 32.416 5.26318 31.5785L5.26318 8.42059C5.26318 7.58306 5.59589 6.77984 6.18811 6.18762C6.78033 5.5954 7.58355 5.2627 8.42108 5.2627L31.579 5.2627C32.4165 5.2627 33.2197 5.5954 33.8119 6.18762C34.4042 6.77984 34.7369 7.58306 34.7369 8.42059V31.5785C34.7369 32.416 34.4042 33.2192 33.8119 33.8115C33.2197 34.4037 32.4165 34.7364 31.579 34.7364ZM8.42108 7.36796C8.1419 7.36796 7.87416 7.47886 7.67676 7.67627C7.47935 7.87367 7.36845 8.14141 7.36845 8.42059L7.36845 31.5785C7.36845 31.8577 7.47935 32.1254 7.67676 32.3228C7.87416 32.5202 8.1419 32.6311 8.42108 32.6311H31.579C31.8581 32.6311 32.1259 32.5202 32.3233 32.3228C32.5207 32.1254 32.6316 31.8577 32.6316 31.5785V8.42059C32.6316 8.14141 32.5207 7.87367 32.3233 7.67627C32.1259 7.47886 31.8581 7.36796 31.579 7.36796L8.42108 7.36796Z" fill="#171717"/>
<path d="M26.3158 18.9464H13.6843C12.8467 18.9464 12.0435 18.6137 11.4513 18.0215C10.8591 17.4293 10.5264 16.6261 10.5264 15.7885V13.6833C10.5264 12.8458 10.8591 12.0425 11.4513 11.4503C12.0435 10.8581 12.8467 10.5254 13.6843 10.5254H26.3158C27.1534 10.5254 27.9566 10.8581 28.5488 11.4503C29.141 12.0425 29.4737 12.8458 29.4737 13.6833V15.7885C29.4737 16.6261 29.141 17.4293 28.5488 18.0215C27.9566 18.6137 27.1534 18.9464 26.3158 18.9464ZM13.6843 12.6307C13.4051 12.6307 13.1373 12.7416 12.9399 12.939C12.7425 13.1364 12.6316 13.4041 12.6316 13.6833V15.7885C12.6316 16.0677 12.7425 16.3355 12.9399 16.5329C13.1373 16.7303 13.4051 16.8412 13.6843 16.8412H26.3158C26.595 16.8412 26.8628 16.7303 27.0602 16.5329C27.2576 16.3355 27.3685 16.0677 27.3685 15.7885V13.6833C27.3685 13.4041 27.2576 13.1364 27.0602 12.939C26.8628 12.7416 26.595 12.6307 26.3158 12.6307H13.6843Z" fill="#171717"/>
<path d="M17.8949 29.4732C17.7564 29.474 17.6191 29.4475 17.4908 29.3951C17.3626 29.3427 17.2459 29.2655 17.1476 29.1679L10.8318 22.8522C10.6336 22.6539 10.5222 22.3851 10.5222 22.1048C10.5222 21.8245 10.6336 21.5556 10.8318 21.3574C11.03 21.1592 11.2988 21.0479 11.5792 21.0479C11.8595 21.0479 12.1283 21.1592 12.3265 21.3574L18.6423 27.6732C18.741 27.7711 18.8193 27.8875 18.8727 28.0158C18.9262 28.144 18.9537 28.2816 18.9537 28.4206C18.9537 28.5595 18.9262 28.6971 18.8727 28.8254C18.8193 28.9537 18.741 29.0701 18.6423 29.1679C18.544 29.2655 18.4273 29.3427 18.2991 29.3951C18.1708 29.4475 18.0335 29.474 17.8949 29.4732Z" fill="#171717"/>
<path d="M11.581 29.4732C11.4424 29.474 11.3051 29.4475 11.1768 29.3951C11.0486 29.3427 10.9319 29.2655 10.8336 29.1679C10.7349 29.0701 10.6566 28.9537 10.6032 28.8254C10.5497 28.6971 10.5222 28.5595 10.5222 28.4206C10.5222 28.2816 10.5497 28.144 10.6032 28.0158C10.6566 27.8875 10.7349 27.7711 10.8336 27.6732L17.1494 21.3574C17.2475 21.2593 17.364 21.1814 17.4923 21.1283C17.6205 21.0752 17.7579 21.0479 17.8967 21.0479C18.0355 21.0479 18.173 21.0752 18.3012 21.1283C18.4294 21.1814 18.546 21.2593 18.6441 21.3574C18.7423 21.4556 18.8201 21.5721 18.8732 21.7003C18.9263 21.8286 18.9537 21.966 18.9537 22.1048C18.9537 22.2436 18.9263 22.381 18.8732 22.5093C18.8201 22.6375 18.7423 22.754 18.6441 22.8522L12.3283 29.1679C12.23 29.2655 12.1133 29.3427 11.9851 29.3951C11.8568 29.4475 11.7195 29.474 11.581 29.4732Z" fill="#171717"/>
<path d="M28.421 26.3152H22.1052C21.8261 26.3152 21.5583 26.2043 21.3609 26.0069C21.1635 25.8095 21.0526 25.5418 21.0526 25.2626C21.0526 24.9834 21.1635 24.7157 21.3609 24.5183C21.5583 24.3209 21.8261 24.21 22.1052 24.21H28.421C28.7002 24.21 28.9679 24.3209 29.1654 24.5183C29.3628 24.7157 29.4737 24.9834 29.4737 25.2626C29.4737 25.5418 29.3628 25.8095 29.1654 26.0069C28.9679 26.2043 28.7002 26.3152 28.421 26.3152Z" fill="#171717"/>
<path d="M25.2626 29.4735C24.9839 29.4696 24.7169 29.3606 24.5152 29.1682L24.3889 29.0103C24.349 28.9516 24.3172 28.8879 24.2941 28.8208C24.2565 28.7624 24.2281 28.6985 24.2099 28.6314C24.2053 28.5613 24.2053 28.4909 24.2099 28.4208C24.2138 28.1421 24.3228 27.8752 24.5152 27.6735C24.6632 27.5274 24.8512 27.4285 25.0554 27.3891C25.2596 27.3498 25.4709 27.3718 25.6626 27.4524C25.7918 27.5025 25.9098 27.5776 26.0099 27.6735C26.2023 27.8752 26.3113 28.1421 26.3152 28.4208C26.3199 28.4909 26.3199 28.5613 26.3152 28.6314C26.3037 28.6973 26.2824 28.7612 26.252 28.8208C26.229 28.8879 26.1971 28.9516 26.1573 29.0103C26.1184 29.0655 26.0763 29.1182 26.031 29.1682C25.9309 29.264 25.8128 29.3392 25.6836 29.3893C25.5523 29.4515 25.4077 29.4804 25.2626 29.4735Z" fill="#171717"/>
<path d="M25.2629 23.158C24.9837 23.158 24.716 23.0471 24.5186 22.8497C24.3212 22.6523 24.2103 22.3846 24.2103 22.1054C24.2051 22.0388 24.2051 21.972 24.2103 21.9054C24.22 21.8357 24.2414 21.7681 24.2734 21.7054C24.2965 21.6383 24.3283 21.5746 24.3682 21.5159L24.4945 21.358C24.6425 21.212 24.8305 21.113 25.0347 21.0737C25.2389 21.0344 25.4502 21.0564 25.6419 21.137C25.7711 21.1871 25.8891 21.2622 25.9892 21.358C26.0345 21.4081 26.0767 21.4608 26.1156 21.5159C26.1554 21.5746 26.1872 21.6383 26.2103 21.7054C26.2423 21.7681 26.2637 21.8357 26.2734 21.9054C26.2927 21.9709 26.3068 22.0377 26.3156 22.1054C26.3117 22.3841 26.2026 22.6511 26.0103 22.8528C25.9102 22.9486 25.7921 23.0237 25.6629 23.0738C25.5364 23.1278 25.4005 23.1564 25.2629 23.158Z" fill="#171717"/>
</svg>
