<svg width="60" height="60" viewBox="0 0 60 60" fill="none" xmlns="http://www.w3.org/2000/svg">
<path d="M11.2501 31.2476V26.8828C11.245 26.0207 11.5971 25.1951 12.2227 24.6021C12.8483 24.009 13.6916 23.7015 14.5521 23.7526C19.9832 23.9254 25.2884 25.4319 29.9998 28.1391C34.7112 25.4319 40.0164 23.9254 45.4475 23.7526C46.3081 23.7014 47.1513 24.009 47.777 24.602C48.4026 25.1951 48.7547 26.0208 48.7498 26.8828V31.2476" stroke="#171717" stroke-width="2" stroke-linecap="round" stroke-linejoin="round"/>
<path d="M11.25 41.25V45.5378C11.2589 46.8792 12.3198 47.9772 13.6601 48.0321C19.415 47.9824 25.0709 49.529 29.9998 52.5C34.9287 49.529 40.5847 47.9824 46.3396 48.0321C47.6799 47.9772 48.7408 46.8792 48.7497 45.5378V41.25" stroke="#171717" stroke-width="2" stroke-linecap="round" stroke-linejoin="round"/>
<path d="M30 28.1416V52.5001" stroke="#171717" stroke-width="2" stroke-linecap="round" stroke-linejoin="round"/>
<path d="M30.0028 18.7471C33.7998 18.7471 36.8778 15.669 36.8778 11.8721C36.8778 8.07511 33.7998 4.99707 30.0028 4.99707C26.2058 4.99707 23.1278 8.07511 23.1278 11.8721C23.1278 15.669 26.2058 18.7471 30.0028 18.7471Z" stroke="#171717" stroke-width="2" stroke-linecap="round" stroke-linejoin="round"/>
<path fill-rule="evenodd" clip-rule="evenodd" d="M10 31.2471H12.5C15.2614 31.2471 17.5 33.4856 17.5 36.2471C17.5 39.0085 15.2614 41.2471 12.5 41.2471H10C8.61929 41.2471 7.5 40.1278 7.5 38.7471V33.7471C7.5 32.3664 8.61929 31.2471 10 31.2471Z" stroke="#171717" stroke-width="2" stroke-linecap="round" stroke-linejoin="round"/>
<path fill-rule="evenodd" clip-rule="evenodd" d="M50 41.25H47.5C44.7386 41.25 42.5 39.0114 42.5 36.25C42.5 33.4886 44.7386 31.25 47.5 31.25H50C51.3807 31.25 52.5 32.3693 52.5 33.75V38.75C52.5 40.1307 51.3807 41.25 50 41.25Z" stroke="#171717" stroke-width="2" stroke-linecap="round" stroke-linejoin="round"/>
</svg>
