<svg width="30" height="30" viewBox="0 0 30 30" fill="none" xmlns="http://www.w3.org/2000/svg">
<path d="M26.6683 17.3333V6.83333C26.6683 5.54467 25.6236 4.5 24.335 4.5H5.66829C4.37963 4.5 3.33496 5.54467 3.33496 6.83333V22C3.33496 23.2887 4.37963 24.3333 5.66829 24.3333H15.0016" stroke="#171717" stroke-width="1.5" stroke-linecap="round" stroke-linejoin="round"/>
<path fill-rule="evenodd" clip-rule="evenodd" d="M17.9298 14.9169L24.8782 21.8653C25.7093 22.6965 25.7093 24.044 24.8782 24.8751C24.047 25.7063 22.6995 25.7063 21.8684 24.8751L14.9199 17.9268C14.4737 17.4806 14.1842 16.9016 14.095 16.2769L13.8408 14.4979C13.8149 14.3161 13.876 14.1327 14.0058 14.0029C14.1357 13.8731 14.319 13.8119 14.5008 13.8379L16.2798 14.092C16.9046 14.1813 17.4835 14.4707 17.9298 14.9169Z" stroke="#171717" stroke-width="1.5" stroke-linecap="round" stroke-linejoin="round"/>
<path d="M6.83496 17.918V10.918" stroke="#171717" stroke-width="1.5" stroke-linecap="round" stroke-linejoin="round"/>
</svg>
