<svg width="40" height="40" viewBox="0 0 40 40" fill="none" xmlns="http://www.w3.org/2000/svg">
<path d="M36.6667 19.9997C36.6667 29.2044 29.2048 36.6663 20 36.6663C10.7953 36.6663 3.33337 29.2044 3.33337 19.9997C3.33337 10.7949 10.7953 3.33301 20 3.33301C29.2048 3.33301 36.6667 10.7949 36.6667 19.9997Z" fill="#FFC81C"/>
<g filter="url(#filter0_b_7474_464916)">
<path d="M32.5001 21.25C32.5001 21.9404 31.1942 22.5 29.5834 22.5C27.9726 22.5 26.6667 21.9404 26.6667 21.25C26.6667 20.5596 27.9726 20 29.5834 20C31.1942 20 32.5001 20.5596 32.5001 21.25Z" fill="#FF8A93" fill-opacity="0.5"/>
</g>
<g filter="url(#filter1_b_7474_464916)">
<path d="M13.3333 21.25C13.3333 21.9404 12.0275 22.5 10.4167 22.5C8.80584 22.5 7.5 21.9404 7.5 21.25C7.5 20.5596 8.80584 20 10.4167 20C12.0275 20 13.3333 20.5596 13.3333 21.25Z" fill="#FF8A93" fill-opacity="0.5"/>
</g>
<path d="M24.9998 20.833C25.8103 20.833 26.2155 20.833 26.4657 21.1552C26.7159 21.4773 26.6304 21.8123 26.4592 22.4824C26.1656 23.6324 25.5674 24.6935 24.7139 25.5471C23.4636 26.7973 21.7679 27.4997 19.9998 27.4997C18.2317 27.4997 16.536 26.7973 15.2858 25.5471C14.4323 24.6935 13.8341 23.6324 13.5404 22.4824C13.3693 21.8123 13.2837 21.4773 13.5339 21.1552C13.7842 20.833 14.1894 20.833 14.9998 20.833L19.9998 20.833H24.9998Z" fill="#EE3538"/>
<mask id="mask0_7474_464916" style="mask-type:alpha" maskUnits="userSpaceOnUse" x="16" y="25" width="8" height="4">
<path d="M21.6662 28.333C22.4671 28.333 22.8676 28.333 23.1097 27.9248C23.3519 27.5167 23.2095 27.2561 22.9248 26.7349C22.7738 26.4586 22.5832 26.2026 22.3565 25.976C21.7314 25.3509 20.8836 24.9997 19.9995 24.9997C19.1155 24.9997 18.2676 25.3509 17.6425 25.976C17.4159 26.2026 17.2252 26.4586 17.0743 26.7349C16.7896 27.2561 16.6472 27.5167 16.8893 27.9248C17.1315 28.333 17.5319 28.333 18.3329 28.333L19.9995 28.333H21.6662Z" fill="#FC5255"/>
</mask>
<g mask="url(#mask0_7474_464916)">
<path d="M24.9559 20.833C25.7663 20.833 26.1715 20.833 26.4218 21.1552C26.672 21.4773 26.5864 21.8123 26.4153 22.4824C26.1216 23.6324 25.5234 24.6935 24.6699 25.5471C23.4197 26.7973 21.724 27.4997 19.9559 27.4997C18.1878 27.4997 16.4921 26.7973 15.2418 25.5471C14.3883 24.6935 13.7901 23.6324 13.4965 22.4824C13.3253 21.8123 13.2398 21.4773 13.49 21.1552C13.7402 20.833 14.1454 20.833 14.9559 20.833L19.9559 20.833H24.9559Z" fill="#FC5255"/>
</g>
<path fill-rule="evenodd" clip-rule="evenodd" d="M25.9417 16.0623C25.8033 16.2546 25.7498 16.5079 25.7498 16.6657C25.7498 17.0799 25.414 17.4157 24.9998 17.4157C24.5855 17.4157 24.2498 17.0799 24.2498 16.6657C24.2498 16.2679 24.3629 15.6879 24.7244 15.1858C25.1135 14.6455 25.7553 14.249 26.6664 14.249C27.5775 14.249 28.2194 14.6455 28.6084 15.1858C28.9699 15.6879 29.0831 16.2679 29.0831 16.6657C29.0831 17.0799 28.7473 17.4157 28.3331 17.4157C27.9189 17.4157 27.5831 17.0799 27.5831 16.6657C27.5831 16.5079 27.5296 16.2546 27.3911 16.0623C27.2802 15.9082 27.0886 15.749 26.6664 15.749C26.2442 15.749 26.0527 15.9082 25.9417 16.0623Z" fill="#312C26"/>
<path fill-rule="evenodd" clip-rule="evenodd" d="M12.6084 16.0623C12.4699 16.2546 12.4164 16.5079 12.4164 16.6657C12.4164 17.0799 12.0806 17.4157 11.6664 17.4157C11.2522 17.4157 10.9164 17.0799 10.9164 16.6657C10.9164 16.2679 11.0296 15.6879 11.3911 15.1858C11.7801 14.6455 12.4219 14.249 13.333 14.249C14.2442 14.249 14.886 14.6455 15.275 15.1858C15.6365 15.6879 15.7497 16.2679 15.7497 16.6657C15.7497 17.0799 15.4139 17.4157 14.9997 17.4157C14.5855 17.4157 14.2497 17.0799 14.2497 16.6657C14.2497 16.5079 14.1962 16.2546 14.0577 16.0623C13.9468 15.9082 13.7553 15.749 13.333 15.749C12.9108 15.749 12.7193 15.9082 12.6084 16.0623Z" fill="#312C26"/>
<defs>
<filter id="filter0_b_7474_464916" x="22.6667" y="16" width="13.8334" height="10.5" filterUnits="userSpaceOnUse" color-interpolation-filters="sRGB">
<feFlood flood-opacity="0" result="BackgroundImageFix"/>
<feGaussianBlur in="BackgroundImageFix" stdDeviation="2"/>
<feComposite in2="SourceAlpha" operator="in" result="effect1_backgroundBlur_7474_464916"/>
<feBlend mode="normal" in="SourceGraphic" in2="effect1_backgroundBlur_7474_464916" result="shape"/>
</filter>
<filter id="filter1_b_7474_464916" x="3.5" y="16" width="13.8334" height="10.5" filterUnits="userSpaceOnUse" color-interpolation-filters="sRGB">
<feFlood flood-opacity="0" result="BackgroundImageFix"/>
<feGaussianBlur in="BackgroundImageFix" stdDeviation="2"/>
<feComposite in2="SourceAlpha" operator="in" result="effect1_backgroundBlur_7474_464916"/>
<feBlend mode="normal" in="SourceGraphic" in2="effect1_backgroundBlur_7474_464916" result="shape"/>
</filter>
</defs>
</svg>
