<svg width="40" height="40" viewBox="0 0 40 40" fill="none" xmlns="http://www.w3.org/2000/svg">
<path d="M31.05 10H32.7C34.5225 10 36 11.4924 36 13.3333V31.6667C36 33.5076 34.5225 35 32.7 35H6.3C4.47746 35 3 33.5076 3 31.6667V13.3333C3 11.4924 4.47746 10 6.3 10H7.95" stroke="#171717" stroke-width="1.5" stroke-linecap="round" stroke-linejoin="round"/>
<path d="M19.9219 32V9" stroke="#171717" stroke-width="1.5" stroke-linecap="round" stroke-linejoin="round"/>
<path d="M20 9.67575C22.0306 7.2813 24.7984 5.70953 27.8211 5.2343L29.1955 5.01823C29.6479 4.94711 30.1074 5.08615 30.454 5.39904C30.8007 5.71194 31 6.16764 31 6.64713V26.6403C31 27.4556 30.4309 28.1482 29.6617 28.2692L27.8211 28.5586C24.7984 29.0338 22.0306 30.6056 20 33" stroke="#171717" stroke-width="1.5" stroke-linecap="round" stroke-linejoin="round"/>
<path d="M19 9.67573C16.9694 7.28129 14.2016 5.70953 11.1789 5.2343L9.80453 5.01823C9.35213 4.94711 8.89262 5.08614 8.54598 5.39903C8.19934 5.71193 8 6.16761 8 6.6471V26.6403C8 27.4556 8.56908 28.1482 9.33832 28.2692L11.1789 28.5586C14.2016 29.0338 16.9694 30.6056 19 33" stroke="#171717" stroke-width="1.5" stroke-linecap="round" stroke-linejoin="round"/>
</svg>
