<svg width="40" height="40" viewBox="0 0 40 40" fill="none" xmlns="http://www.w3.org/2000/svg">
<path fill-rule="evenodd" clip-rule="evenodd" d="M19.9997 26.6654C16.318 26.6654 13.333 23.6804 13.333 19.9987V9.9987C13.333 6.31703 16.318 3.33203 19.9997 3.33203C23.6813 3.33203 26.6663 6.31703 26.6663 9.9987V19.9987C26.6663 23.6804 23.6813 26.6654 19.9997 26.6654Z" stroke="#171717" stroke-width="1.5" stroke-linecap="round" stroke-linejoin="round"/>
<path d="M31.6663 18.332V19.832C31.6663 26.367 26.443 31.6654 19.9997 31.6654C13.5563 31.6654 8.33301 26.367 8.33301 19.832V18.332" stroke="#171717" stroke-width="1.5" stroke-linecap="round" stroke-linejoin="round"/>
<path d="M19.167 10H20.8337" stroke="#171717" stroke-width="1.5" stroke-linecap="round" stroke-linejoin="round"/>
<path d="M18.333 15H21.6663" stroke="#171717" stroke-width="1.5" stroke-linecap="round" stroke-linejoin="round"/>
<path d="M19.167 20.0508H20.8337" stroke="#171717" stroke-width="1.5" stroke-linecap="round" stroke-linejoin="round"/>
<path d="M20 31.668V36.668" stroke="#171717" stroke-width="1.5" stroke-linecap="round" stroke-linejoin="round"/>
<path d="M15 36.668H25" stroke="#171717" stroke-width="1.5" stroke-linecap="round" stroke-linejoin="round"/>
</svg>
