<svg width="24" height="24" viewBox="0 0 24 24" fill="none" xmlns="http://www.w3.org/2000/svg">
<path d="M13.2838 2.1183C13.7912 2.33952 14.1176 2.82449 14.1176 3.36051V19.6964C14.1176 20.2325 13.7912 20.7174 13.2838 20.9386C12.7765 21.1599 12.1809 21.0705 11.7662 20.7132L5.81471 15.6125H2.82353C1.26618 15.6125 0 14.3915 0 12.8898V10.1671C0 8.66543 1.26618 7.44449 2.82353 7.44449H5.81471L11.7662 2.34377C12.1809 1.98642 12.7765 1.90134 13.2838 2.1183ZM20.8721 5.18979C22.7779 6.68725 24 8.97173 24 11.5285C24 14.0852 22.7779 16.3697 20.8721 17.8671C20.4176 18.2245 19.7515 18.1564 19.3809 17.7183C19.0103 17.2801 19.0809 16.6377 19.5353 16.2804C20.9691 15.1573 21.8824 13.4471 21.8824 11.5285C21.8824 9.60985 20.9691 7.89969 19.5353 6.77234C19.0809 6.41499 19.0147 5.77261 19.3809 5.33444C19.7471 4.89626 20.4176 4.83245 20.8721 5.18554V5.18979ZM18.2029 8.35913C19.1515 9.10786 19.7647 10.248 19.7647 11.5285C19.7647 12.809 19.1515 13.9491 18.2029 14.6978C17.7485 15.0552 17.0824 14.9871 16.7118 14.5489C16.3412 14.1107 16.4118 13.4684 16.8662 13.111C17.3426 12.7366 17.6471 12.1666 17.6471 11.5285C17.6471 10.8904 17.3426 10.3203 16.8662 9.94168C16.4118 9.58433 16.3456 8.94195 16.7118 8.50377C17.0779 8.0656 17.7485 8.00178 18.2029 8.35488V8.35913Z" fill="#171717"/>
</svg>
