<svg width="40" height="40" viewBox="0 0 40 40" fill="none" xmlns="http://www.w3.org/2000/svg">
<path d="M15 35.001H10C7.23858 35.001 5 32.7624 5 30.001V10.001C5 7.23955 7.23858 5.00098 10 5.00098H30C32.7614 5.00098 35 7.23955 35 10.001V15.001" stroke="#171717" stroke-width="1.5" stroke-linecap="round" stroke-linejoin="round"/>
<path fill-rule="evenodd" clip-rule="evenodd" d="M24.5367 34.5114C24.2242 34.824 23.8003 34.9998 23.3583 34.9998H20V31.6414C20 31.1995 20.1758 30.7756 20.4883 30.4631L30.3617 20.5814C30.8996 20.0435 31.6292 19.7412 32.39 19.7412C33.1508 19.7412 33.8804 20.0435 34.4183 20.5814C34.9567 21.1191 35.2593 21.8489 35.2593 22.6098C35.2593 23.3707 34.9567 24.1004 34.4183 24.6381L24.5367 34.5114Z" stroke="#171717" stroke-width="1.5" stroke-linecap="round" stroke-linejoin="round"/>
<path d="M26.6848 24.2686L30.7348 28.3186" stroke="#171717" stroke-width="1.5" stroke-linecap="round" stroke-linejoin="round"/>
<path d="M33.6086 25.4463L35.1086 26.9463C35.8982 27.7374 35.8982 29.0185 35.1086 29.8096L33.2936 31.6263" stroke="#171717" stroke-width="1.5" stroke-linecap="round" stroke-linejoin="round"/>
<path d="M11.2058 18.333H23.333" stroke="#171717" stroke-width="1.5" stroke-linecap="round" stroke-linejoin="round"/>
<path d="M11.2058 11.874H26.6663" stroke="#171717" stroke-width="1.5" stroke-linecap="round" stroke-linejoin="round"/>
<path d="M11.2058 24.791H18.333" stroke="#171717" stroke-width="1.5" stroke-linecap="round" stroke-linejoin="round"/>
</svg>
