<svg width="100" height="100" viewBox="0 0 100 100" fill="none" xmlns="http://www.w3.org/2000/svg">
<path d="M21.4062 44.8359H26.2083" stroke="#171717" stroke-width="3" stroke-linecap="round" stroke-linejoin="round"/>
<path d="M40.6094 44.8359H45.4114" stroke="#171717" stroke-width="3" stroke-linecap="round" stroke-linejoin="round"/>
<path d="M21.4062 59.2422H26.2083" stroke="#171717" stroke-width="3" stroke-linecap="round" stroke-linejoin="round"/>
<path d="M40.6094 59.2422H45.4114" stroke="#171717" stroke-width="3" stroke-linecap="round" stroke-linejoin="round"/>
<path d="M21.4062 44.8359H26.2083" stroke="#171717" stroke-width="3" stroke-linecap="round" stroke-linejoin="round"/>
<path d="M40.6094 44.8359H45.4114" stroke="#171717" stroke-width="3" stroke-linecap="round" stroke-linejoin="round"/>
<path d="M21.4062 73.6484H26.2083" stroke="#171717" stroke-width="3" stroke-linecap="round" stroke-linejoin="round"/>
<path d="M40.6094 73.6484H45.4114" stroke="#171717" stroke-width="3" stroke-linecap="round" stroke-linejoin="round"/>
<path d="M21.4062 73.6484H26.2083" stroke="#171717" stroke-width="3" stroke-linecap="round" stroke-linejoin="round"/>
<path d="M40.6094 73.6484H45.4114" stroke="#171717" stroke-width="3" stroke-linecap="round" stroke-linejoin="round"/>
<path d="M79.03 30.4297H7" stroke="#171717" stroke-width="3" stroke-linecap="round" stroke-linejoin="round"/>
<path d="M45.416 88.0559H16.604C11.2999 88.0559 7 83.756 7 78.4519V20.0259C7 14.7217 11.2999 10.4219 16.604 10.4219H69.426C74.7301 10.4219 79.03 14.7217 79.03 20.0259V44.8379" stroke="#171717" stroke-width="3" stroke-linecap="round" stroke-linejoin="round"/>
<path d="M21.4062 44.8359H26.2083" stroke="#171717" stroke-width="3" stroke-linecap="round" stroke-linejoin="round"/>
<path d="M40.6094 44.8359H45.4114" stroke="#171717" stroke-width="3" stroke-linecap="round" stroke-linejoin="round"/>
<path d="M59.8125 44.8359H64.6145" stroke="#171717" stroke-width="3" stroke-linecap="round" stroke-linejoin="round"/>
<path d="M73.8125 94.0391C84.8582 94.0391 93.8125 85.0848 93.8125 74.0391C93.8125 62.9934 84.8582 54.0391 73.8125 54.0391C62.7668 54.0391 53.8125 62.9934 53.8125 74.0391C53.8125 85.0848 62.7668 94.0391 73.8125 94.0391Z" stroke="#FF6D00" stroke-width="3" stroke-linecap="round" stroke-linejoin="round"/>
<path d="M66 66L82 82" stroke="#FF6D00" stroke-width="3" stroke-linecap="round"/>
<path d="M82 66L66 82" stroke="#FF6D00" stroke-width="3" stroke-linecap="round"/>
</svg>
