<svg width="80" height="80" viewBox="0 0 80 80" fill="none" xmlns="http://www.w3.org/2000/svg">
<path fill-rule="evenodd" clip-rule="evenodd" d="M39.9857 64C37.9959 64 36.381 65.6128 36.4002 67.6C36.3906 69.5872 38.0055 71.2 39.9953 71.2C41.9851 71.2 43.6 69.5872 43.6 67.6C43.6 65.6128 41.9851 64 39.9857 64Z" fill="#171717"/>
<path d="M22 64L61 13" stroke="#171717" stroke-width="3" stroke-linecap="round" stroke-linejoin="round"/>
<path d="M46.3481 32.1603C36.3431 30.2763 25.5371 32.8803 17.7731 39.9993" stroke="#171717" stroke-width="3" stroke-linecap="round" stroke-linejoin="round"/>
<path d="M56.5419 18.8309C40.6119 13.1579 21.6939 16.0169 8.78186 27.4109" stroke="#171717" stroke-width="3" stroke-linecap="round" stroke-linejoin="round"/>
<path d="M55.801 35.4902C58.096 36.7052 60.262 38.1962 62.224 39.9992" stroke="#171717" stroke-width="3" stroke-linecap="round" stroke-linejoin="round"/>
<path d="M65.2629 23.1152C67.3419 24.3902 69.3609 25.7762 71.2179 27.4112" stroke="#171717" stroke-width="3" stroke-linecap="round" stroke-linejoin="round"/>
<path d="M46.786 47.2822C49.144 48.1852 51.358 49.5742 53.26 51.4642" stroke="#171717" stroke-width="3" stroke-linecap="round" stroke-linejoin="round"/>
</svg>
