<svg width="24" height="24" viewBox="0 0 24 24" fill="none" xmlns="http://www.w3.org/2000/svg">
<path fill-rule="evenodd" clip-rule="evenodd" d="M18.2023 3.12587C18.5751 2.99012 18.9789 2.96353 19.3663 3.04923C19.7537 3.13494 20.1086 3.32937 20.3892 3.60969C20.6698 3.89 20.8646 4.24454 20.9505 4.63165C21.0365 5.01876 21.0101 5.42233 20.8744 5.79496L16.2763 19.5672C16.1645 19.9057 15.9676 20.2097 15.7045 20.4504C15.4414 20.691 15.1209 20.8602 14.7737 20.9416C14.4273 21.0259 14.0649 21.0188 13.7221 20.921C13.3793 20.8232 13.0678 20.638 12.8181 20.3836L10.3506 17.9293L7.75949 19.2689C7.66016 19.3204 7.54912 19.3451 7.43733 19.3406C7.32554 19.3361 7.21686 19.3025 7.12203 19.2431C7.0272 19.1838 6.94949 19.1008 6.89658 19.0023C6.84367 18.9038 6.81738 18.7932 6.82032 18.6814L6.9271 14.5878L15.9907 8.00891C16.0762 7.94686 16.1486 7.86859 16.2038 7.77857C16.2591 7.68855 16.296 7.58855 16.3125 7.48426C16.3291 7.37998 16.3249 7.27346 16.3003 7.17078C16.2756 7.06811 16.231 6.97129 16.1689 6.88586C16.1068 6.80043 16.0285 6.72805 15.9384 6.67287C15.8483 6.61768 15.7483 6.58077 15.6439 6.56424C15.5396 6.5477 15.433 6.55187 15.3302 6.5765C15.2275 6.60113 15.1306 6.64574 15.0451 6.70779L5.8284 13.3985L3.6027 11.1743C3.36283 10.9345 3.18599 10.6392 3.0879 10.3146C2.98982 9.99003 2.97353 9.64626 3.04049 9.31388C3.10782 8.95049 3.27068 8.61155 3.51237 8.33184C3.75406 8.05213 4.06586 7.84172 4.41579 7.7222H4.41965L18.201 3.12459L18.2023 3.12587Z" fill="#171717"/>
</svg>
