<svg width="40" height="40" viewBox="0 0 40 40" fill="none" xmlns="http://www.w3.org/2000/svg">
<g clip-path="url(#clip0_6293_245275)">
<path fill-rule="evenodd" clip-rule="evenodd" d="M10.792 14.3764H6.83366C5.91366 14.3764 5.16699 15.1231 5.16699 16.0431V23.9597C5.16699 24.8797 5.91366 25.6264 6.83366 25.6264H10.792L17.4237 31.2447C18.507 32.1631 20.167 31.3931 20.167 29.9731V10.0297C20.167 8.60973 18.5053 7.83973 17.4237 8.75806L10.792 14.3764Z" stroke="#171717" stroke-width="1.5" stroke-linecap="round" stroke-linejoin="round"/>
<path d="M24.8945 26.6311C26.8312 25.4278 28.1662 22.9244 28.1662 20.0094C28.1662 17.0944 26.8312 14.5894 24.8945 13.3711" stroke="#171717" stroke-width="1.5" stroke-linecap="round" stroke-linejoin="round"/>
<path d="M29.8413 31.7749C32.8547 29.1832 34.833 24.8832 34.833 20.0049C34.833 15.1199 32.8513 10.8166 29.833 8.22656" stroke="#171717" stroke-width="1.5" stroke-linecap="round" stroke-linejoin="round"/>
</g>
<defs>
<clipPath id="clip0_6293_245275">
<rect width="40" height="40" fill="white"/>
</clipPath>
</defs>
</svg>
