<svg width="30" height="30" viewBox="0 0 30 30" fill="none" xmlns="http://www.w3.org/2000/svg">
<rect width="30" height="30" rx="15" fill="#171717"/>
<path d="M20.6569 11.0839C21.1382 10.6026 21.1382 9.82475 20.6569 9.34338C20.1755 8.862 19.3977 8.862 18.9163 9.34338L15 13.2597L11.0837 9.34338C10.6023 8.862 9.82452 8.862 9.34315 9.34338C8.86177 9.82475 8.86177 10.6026 9.34315 11.0839L13.2594 15.0002L9.34315 18.9165C8.86177 19.3979 8.86177 20.1757 9.34315 20.6571C9.82452 21.1385 10.6023 21.1385 11.0837 20.6571L15 16.7408L18.9163 20.6571C19.3977 21.1385 20.1755 21.1385 20.6569 20.6571C21.1382 20.1757 21.1382 19.3979 20.6569 18.9165L16.7406 15.0002L20.6569 11.0839Z" fill="white"/>
</svg>
