<svg width="30" height="30" viewBox="0 0 30 30" fill="none" xmlns="http://www.w3.org/2000/svg">
<path d="M14.9578 22.0422C18.975 22.0422 22.2317 18.805 22.2317 14.8117C22.2317 10.8183 18.975 7.58105 14.9578 7.58105C10.9406 7.58105 7.68396 10.8183 7.68396 14.8117C7.68396 18.805 10.9406 22.0422 14.9578 22.0422Z" fill="#171717"/>
<path d="M14.9186 20.0889H9.96448C9.96448 20.0889 10.8979 20.8025 10.8979 22.0009V23.318C10.8979 23.6627 11.1794 23.9426 11.5262 23.9426H18.3101C18.6569 23.9426 18.9384 23.6627 18.9384 23.318V22.0009C18.9384 20.8025 19.8719 20.0889 19.8719 20.0889H14.9178H14.9186Z" fill="#171717"/>
<path d="M5.22198 14.0664H1.81074C1.36298 14.0664 1 14.4272 1 14.8723V14.8731C1 15.3182 1.36298 15.679 1.81074 15.679H5.22198C5.66974 15.679 6.03272 15.3182 6.03272 14.8731V14.8723C6.03272 14.4272 5.66974 14.0664 5.22198 14.0664Z" fill="#171717"/>
<path d="M8.71049 7.41295L6.29838 5.01518C5.98176 4.70045 5.46843 4.70045 5.15182 5.01518L5.15126 5.01574C4.83465 5.33047 4.83465 5.84075 5.15126 6.15548L7.56337 8.55324C7.87999 8.86797 8.39332 8.86797 8.70993 8.55324L8.71049 8.55269C9.0271 8.23796 9.0271 7.72768 8.71049 7.41295Z" fill="#171717"/>
<path d="M24.778 15.5557H28.1893C28.637 15.5557 29 15.1948 29 14.7497V14.749C29 14.3039 28.637 13.943 28.1893 13.943H24.778C24.3303 13.943 23.9673 14.3039 23.9673 14.749V14.7497C23.9673 15.1948 24.3303 15.5557 24.778 15.5557Z" fill="#171717"/>
<path d="M22.4361 8.5526L24.8482 6.15483C25.1648 5.8401 25.1648 5.32982 24.8482 5.01509L24.8477 5.01454C24.5311 4.69981 24.0177 4.69981 23.7011 5.01454L21.289 7.4123C20.9724 7.72704 20.9724 8.23731 21.289 8.55205L21.2896 8.5526C21.6062 8.86733 22.1195 8.86733 22.4361 8.5526Z" fill="#171717"/>
<path d="M15.7625 5.19687V1.80592C15.7625 1.36082 15.3995 1 14.9517 1C14.504 1 14.141 1.36082 14.141 1.80592V5.19687C14.141 5.64197 14.504 6.00279 14.9517 6.00279C15.3995 6.00279 15.7625 5.64197 15.7625 5.19687Z" fill="#171717"/>
<path d="M12.0405 25.0918H17.7958C18.1175 25.0918 18.3778 25.3513 18.3778 25.6702V26.6552C18.3778 27.9496 17.3209 29.0002 16.0187 29.0002H13.8169C12.5146 29.0002 11.4578 27.9496 11.4578 26.6552V25.6702C11.4578 25.3505 11.7188 25.0918 12.0397 25.0918H12.0405Z" fill="#171717"/>
<path d="M11.0222 13.4476C11.0222 13.4476 11.5373 10.7578 14.3682 10.7578L11.0222 13.4476Z" fill="#171717"/>
<path d="M11.0222 13.4476C11.0222 13.4476 11.5373 10.7578 14.3682 10.7578" stroke="white" stroke-width="1.5" stroke-miterlimit="10" stroke-linecap="round"/>
</svg>
