<svg width="35" height="30" viewBox="0 0 35 30" fill="none" xmlns="http://www.w3.org/2000/svg">
<g id="Page-1">
<path id="Vector" d="M23.3072 0.771484H5.96913C3.37766 0.771484 1.26953 2.87962 1.26953 5.47108V15.6004C1.26953 18.2021 3.37766 20.3 5.96913 20.3H7.85102L8.46804 21.3695L9.70206 23.5085C10.2162 24.4031 11.512 24.4031 12.0262 23.5085L13.2602 21.3695L13.8772 20.3H23.297C25.8987 20.3 27.9965 18.1919 27.9965 15.6004V5.47108C27.9965 2.86933 25.8884 0.771484 23.297 0.771484H23.3072Z" stroke="#171717" stroke-width="1.5" stroke-linecap="round" stroke-linejoin="round"/>
<path id="Vector_2" d="M31.1655 14.2246C32.8315 14.2246 34.1786 15.5718 34.1786 17.2377V23.7266C34.1786 25.3926 32.8315 26.7397 31.1655 26.7397H29.9623L29.5716 27.4287L28.7797 28.7964C28.4507 29.3723 27.6177 29.3723 27.2886 28.7964L26.4968 27.4287L26.106 26.7397H20.81C19.144 26.7397 17.7969 25.3926 17.7969 23.7266" stroke="#171717" stroke-width="1.5" stroke-linecap="round" stroke-linejoin="round"/>
<path id="Vector_3" d="M10.0372 10.962C10.0372 11.2538 9.80063 11.4903 9.50883 11.4903C9.21702 11.4903 8.98047 11.2538 8.98047 10.962C8.98047 10.6701 9.21702 10.4336 9.50883 10.4336C9.80063 10.4336 10.0372 10.6701 10.0372 10.962Z" fill="#171717" stroke="#171717"/>
<path id="Vector_4" d="M15.1798 10.962C15.1798 11.2538 14.9432 11.4903 14.6514 11.4903C14.3596 11.4903 14.123 11.2538 14.123 10.962C14.123 10.6701 14.3596 10.4336 14.6514 10.4336C14.9432 10.4336 15.1798 10.6701 15.1798 10.962Z" fill="#171717" stroke="#171717"/>
<path id="Vector_5" d="M20.3106 10.962C20.3106 11.2538 20.0741 11.4903 19.7823 11.4903C19.4905 11.4903 19.2539 11.2538 19.2539 10.962C19.2539 10.6701 19.4905 10.4336 19.7823 10.4336C20.0741 10.4336 20.3106 10.6701 20.3106 10.962Z" fill="#171717" stroke="#171717"/>
</g>
</svg>
