<svg width="42" height="43" viewBox="0 0 42 43" fill="none" xmlns="http://www.w3.org/2000/svg">
<path d="M12.5457 30.78C12.5458 30.2309 12.9886 29.7845 13.5377 29.7801L23.2653 29.7024C23.3442 29.7018 23.4197 29.6703 23.4758 29.6147L14.2496 38.7681C13.6185 39.3942 12.5453 38.9471 12.5453 38.0581L12.5455 35.1235L12.5457 30.78Z" fill="#171717"/>
<rect width="42" height="34" rx="17" fill="#171717"/>
<path d="M20.6054 25.252C19.9094 25.252 19.2854 25.168 18.7334 25C18.1814 24.844 17.6894 24.628 17.2574 24.352C16.8374 24.064 16.4714 23.746 16.1594 23.398L17.4014 21.724C17.8094 22.096 18.2534 22.42 18.7334 22.696C19.2254 22.96 19.7714 23.092 20.3714 23.092C20.8274 23.092 21.2234 23.02 21.5594 22.876C21.9074 22.732 22.1714 22.522 22.3514 22.246C22.5434 21.97 22.6394 21.634 22.6394 21.238C22.6394 20.794 22.5314 20.416 22.3154 20.104C22.1114 19.78 21.7454 19.534 21.2174 19.366C20.6894 19.198 19.9454 19.114 18.9854 19.114V17.206C19.8014 17.206 20.4434 17.122 20.9114 16.954C21.3794 16.774 21.7094 16.534 21.9014 16.234C22.1054 15.922 22.2074 15.568 22.2074 15.172C22.2074 14.656 22.0514 14.254 21.7394 13.966C21.4274 13.666 20.9894 13.516 20.4254 13.516C19.9574 13.516 19.5194 13.624 19.1114 13.84C18.7154 14.044 18.3194 14.326 17.9234 14.686L16.5554 13.048C17.1434 12.556 17.7614 12.166 18.4094 11.878C19.0574 11.578 19.7714 11.428 20.5514 11.428C21.4034 11.428 22.1534 11.566 22.8014 11.842C23.4614 12.118 23.9714 12.52 24.3314 13.048C24.6914 13.576 24.8714 14.218 24.8714 14.974C24.8714 15.694 24.6794 16.312 24.2954 16.828C23.9114 17.344 23.3654 17.74 22.6574 18.016V18.106C23.1494 18.238 23.5934 18.454 23.9894 18.754C24.3974 19.042 24.7154 19.408 24.9434 19.852C25.1834 20.296 25.3034 20.812 25.3034 21.4C25.3034 22.204 25.0874 22.894 24.6554 23.47C24.2354 24.046 23.6654 24.49 22.9454 24.802C22.2374 25.102 21.4574 25.252 20.6054 25.252Z" fill="#171717"/>
</svg>
