<svg width="30" height="30" viewBox="0 0 30 30" fill="none" xmlns="http://www.w3.org/2000/svg">
<circle cx="15" cy="15" r="14.5" fill="#F0F0F0" stroke="#F0F0F0"/>
<mask id="mask0_6293_247055" style="mask-type:alpha" maskUnits="userSpaceOnUse" x="0" y="0" width="30" height="30">
<circle cx="15" cy="15" r="14.5" fill="#F7F7F7" stroke="#F7F7F7"/>
</mask>
<g mask="url(#mask0_6293_247055)">
<path d="M15.0001 6C12.2422 6 10.0001 8.24211 10.0001 11C10.0001 13.7053 12.1159 15.8947 14.8738 15.9895C14.958 15.9789 15.0422 15.9789 15.1054 15.9895C15.1264 15.9895 15.137 15.9895 15.158 15.9895C15.1685 15.9895 15.1685 15.9895 15.1791 15.9895C17.8738 15.8947 19.9896 13.7053 20.0001 11C20.0001 8.24211 17.758 6 15.0001 6Z" fill="#D5D5D5"/>
<path d="M22.9384 19.8107C18.579 17.3964 11.4696 17.3964 7.07898 19.8107C5.0946 20.914 4.00085 22.4067 4.00085 24.0032C4.00085 25.5998 5.0946 27.0795 7.06335 28.1698C9.25085 29.3899 12.1259 30 15.0009 30C17.8759 30 20.7509 29.3899 22.9384 28.1698C24.9071 27.0665 26.0009 25.5868 26.0009 23.9773C25.9852 22.3807 24.9071 20.901 22.9384 19.8107Z" fill="#D5D5D5"/>
</g>
</svg>
