<svg width="100" height="100" viewBox="0 0 100 100" fill="none" xmlns="http://www.w3.org/2000/svg">
<path d="M81.8887 45.4444V18.1111C81.8887 13.0772 77.8115 9 72.7776 9H18.1111C13.0772 9 9 13.0772 9 18.1111V77.3332" stroke="#81B01B" stroke-width="4" stroke-linecap="round" stroke-linejoin="round"/>
<path d="M27.2236 9V68.2221" stroke="#81B01B" stroke-width="4" stroke-linecap="round" stroke-linejoin="round"/>
<path d="M45.4444 68.2217H18.1111C13.0772 68.2217 9 72.2989 9 77.3328C9 82.3666 13.0772 86.4439 18.1111 86.4439H45.4444" stroke="#81B01B" stroke-width="4" stroke-linecap="round" stroke-linejoin="round"/>
<path fill-rule="evenodd" clip-rule="evenodd" d="M64.5251 64.5269C69.0835 59.9686 76.4722 59.9694 81.0252 64.5263L80.9669 65.1624L66.4394 82.5908C66.3468 82.53 66.255 82.4677 66.1641 82.4039L66.1635 82.4035C60.0138 78.0905 59.4762 69.5758 64.5251 64.5269ZM66.4399 82.5912C66.4397 82.591 66.4395 82.5909 66.4394 82.5908L63.8661 85.6779C55.6482 79.9139 54.9195 68.4757 61.6967 61.6985C67.8163 55.5789 77.7382 55.5778 83.8543 61.6985L81.279 64.788C81.1963 64.7 81.1119 64.613 81.0258 64.5269L81.0252 64.5263L80.9669 65.1624L80.9669 65.1624L80.9669 65.1626L66.4399 82.5912ZM82.3554 85.1816C82.1379 85.3512 81.9146 85.5165 81.6854 85.6775L81.6848 85.6779C76.4263 89.3689 69.1254 89.369 63.8667 85.6783L66.4399 82.5912C70.2992 85.1254 75.5977 85.0631 79.3863 82.4043L80.9669 65.1626L80.9669 65.1626L79.3868 82.4039C79.9442 82.0123 80.4555 81.5863 80.9207 81.1315C80.9533 81.0937 80.9874 81.0569 81.0233 81.021C81.0581 80.9862 81.0938 80.953 81.1305 80.9213C85.5011 76.4314 85.5458 69.3238 81.2791 64.788L83.8543 61.6985C89.4974 67.3417 89.9324 76.2108 85.1819 82.3513L92.4161 89.5855C93.1972 90.3665 93.1972 91.6328 92.4161 92.4139C91.6351 93.1949 90.3687 93.1949 89.5877 92.4139L82.3554 85.1816ZM80.9669 65.1626L80.9669 65.1624L81.279 64.788C81.2791 64.788 81.2791 64.788 81.2791 64.788L80.9669 65.1626Z" fill="#FFBF00"/>
</svg>
