<svg width="50" height="50" viewBox="0 0 50 50" fill="none" xmlns="http://www.w3.org/2000/svg">
<g clip-path="url(#clip0_9364_833935)">
<path d="M4 50H46C48.2091 50 50 48.2091 50 46V17L33 0H4C1.79086 0 0 1.79086 0 4V46C0 48.2091 1.79086 50 4 50Z" fill="#1F91E4"/>
<path d="M49.808 16.9973H34.4105C33.5306 16.9973 32.8107 16.2774 32.8107 15.3975V0" fill="#115F9A"/>
<path d="M25.3422 28.7674C25.0142 30.1032 24.6463 31.479 24.2224 32.9027L22.3507 39.3257H19.3032L14 25H17.2555L19.2632 30.7031C19.8711 32.4948 20.359 34.1185 20.7349 35.5663H20.8069C21.1749 34.0146 21.5988 32.4148 22.0787 30.7831L23.7984 25H26.9419L28.6617 30.7831C29.1416 32.4068 29.5655 33.9986 29.9335 35.5663H30.0054C30.4614 33.8546 30.9573 32.2308 31.4772 30.7031L33.4849 25H36.7404L31.4372 39.3257H28.3897L26.518 32.9027C26.0941 31.455 25.7181 30.0792 25.3982 28.7674H25.3262H25.3422Z" fill="white"/>
</g>
<defs>
<clipPath id="clip0_9364_833935">
<rect width="50" height="50" fill="white"/>
</clipPath>
</defs>
</svg>
