<svg width="80" height="80" viewBox="0 0 80 80" fill="none" xmlns="http://www.w3.org/2000/svg">
<path d="M15.0003 41.6667V35.8469C14.9936 34.6976 15.4631 33.5967 16.2972 32.806C17.1314 32.0153 18.2557 31.6052 19.4031 31.6733C26.6445 31.9038 33.7181 33.9124 40 37.5221C46.2819 33.9124 53.3554 31.9038 60.5969 31.6733C61.7443 31.6052 62.8687 32.0152 63.7029 32.806C64.5371 33.5967 65.0065 34.6976 65 35.847V41.6667" stroke="#171717" stroke-width="3" stroke-linecap="round" stroke-linejoin="round"/>
<path d="M15.0002 55V60.7171C15.0121 62.5056 16.4267 63.9695 18.2137 64.0428C25.8869 63.9765 33.4282 66.0386 40 70C46.5719 66.0386 54.1132 63.9765 61.7864 64.0428C63.5735 63.9695 64.988 62.5056 64.9999 60.7171V55" stroke="#171717" stroke-width="3" stroke-linecap="round" stroke-linejoin="round"/>
<path d="M40 37.5225V70.0004" stroke="#171717" stroke-width="3" stroke-linecap="round" stroke-linejoin="round"/>
<path d="M40 25.0003C45.0626 25.0003 49.1667 20.8963 49.1667 15.8337C49.1667 10.771 45.0626 6.66699 40 6.66699C34.9374 6.66699 30.8334 10.771 30.8334 15.8337C30.8334 20.8963 34.9374 25.0003 40 25.0003Z" stroke="#171717" stroke-width="3" stroke-linecap="round" stroke-linejoin="round"/>
<path fill-rule="evenodd" clip-rule="evenodd" d="M13.3333 41.667H16.6667C20.3486 41.667 23.3333 44.6518 23.3333 48.3337C23.3333 52.0156 20.3486 55.0003 16.6667 55.0003H13.3333C11.4924 55.0003 10 53.5079 10 51.667V45.0003C10 43.1594 11.4924 41.667 13.3333 41.667Z" stroke="#171717" stroke-width="3" stroke-linecap="round" stroke-linejoin="round"/>
<path fill-rule="evenodd" clip-rule="evenodd" d="M66.6667 55H63.3333C59.6514 55 56.6667 52.0152 56.6667 48.3333C56.6667 44.6514 59.6514 41.6667 63.3333 41.6667H66.6667C68.5076 41.6667 70 43.1591 70 45V51.6667C70 53.5076 68.5076 55 66.6667 55Z" stroke="#171717" stroke-width="3" stroke-linecap="round" stroke-linejoin="round"/>
</svg>
