<svg width="40" height="40" viewBox="0 0 40 40" fill="none" xmlns="http://www.w3.org/2000/svg">
<path d="M36.6667 19.9997C36.6667 29.2044 29.2048 36.6663 20 36.6663C10.7953 36.6663 3.33337 29.2044 3.33337 19.9997C3.33337 10.7949 10.7953 3.33301 20 3.33301C29.2048 3.33301 36.6667 10.7949 36.6667 19.9997Z" fill="#FFC81C"/>
<path fill-rule="evenodd" clip-rule="evenodd" d="M16.3334 27.4993C16.3334 27.0391 16.7065 26.666 17.1667 26.666H23.8334C24.2936 26.666 24.6667 27.0391 24.6667 27.4993C24.6667 27.9596 24.2936 28.3327 23.8334 28.3327H17.1667C16.7065 28.3327 16.3334 27.9596 16.3334 27.4993Z" fill="#312C26"/>
<circle cx="14.5834" cy="19.5827" r="2.91667" fill="#312C26"/>
<circle cx="15.343" cy="18.9514" r="1.20821" fill="white"/>
<circle cx="13.4398" cy="21.2483" r="0.693577" fill="white"/>
<circle cx="26.25" cy="19.5827" r="2.91667" fill="#312C26"/>
<circle cx="27.0096" cy="18.9514" r="1.20821" fill="white"/>
<circle cx="25.1064" cy="21.2483" r="0.693577" fill="white"/>
<path fill-rule="evenodd" clip-rule="evenodd" d="M15.1922 12.7832C15.4957 12.9917 15.5727 13.4067 15.3643 13.7102C14.6394 14.7655 13.5716 15.2168 12.5805 15.4128C11.7764 15.5718 10.953 15.5732 10.3525 15.5742C10.2281 15.5744 10.1133 15.5746 10.0102 15.5762C9.64209 15.5818 9.33908 15.288 9.33345 14.9198C9.32782 14.5517 9.6217 14.2487 9.98985 14.243C10.1203 14.241 10.255 14.2406 10.3931 14.2402C10.9932 14.2382 11.6579 14.2361 12.3219 14.1048C13.1182 13.9473 13.8086 13.6201 14.2652 12.9553C14.4737 12.6518 14.8887 12.5748 15.1922 12.7832Z" fill="#312C26"/>
<path fill-rule="evenodd" clip-rule="evenodd" d="M25.5143 12.7832C25.2108 12.9917 25.1338 13.4067 25.3423 13.7102C26.0671 14.7655 27.1349 15.2168 28.126 15.4128C28.9301 15.5718 29.7535 15.5732 30.354 15.5742C30.4784 15.5744 30.5932 15.5746 30.6963 15.5762C31.0645 15.5818 31.3675 15.288 31.3731 14.9198C31.3787 14.5517 31.0848 14.2487 30.7167 14.243C30.5862 14.241 30.4515 14.2406 30.3134 14.2402C29.7133 14.2382 29.0486 14.2361 28.3847 14.1048C27.5883 13.9473 26.898 13.6201 26.4413 12.9553C26.2328 12.6518 25.8178 12.5748 25.5143 12.7832Z" fill="#312C26"/>
</svg>
