<svg width="22" height="24" viewBox="0 0 22 24" fill="none" xmlns="http://www.w3.org/2000/svg">
<g id="Group 20252">
<g id="Group">
<path id="Vector" d="M18.3676 6.15224C19.8214 6.15224 20.9999 4.97395 20.9999 3.52046C20.9999 2.06696 19.8214 0.888672 18.3676 0.888672C16.9137 0.888672 15.7352 2.06696 15.7352 3.52046C15.7352 4.97395 16.9137 6.15224 18.3676 6.15224Z" stroke="#171717" stroke-width="1.5" stroke-miterlimit="10"/>
<path id="Vector_2" d="M18.3676 23.1112C19.8214 23.1112 20.9999 21.9329 20.9999 20.4794C20.9999 19.0259 19.8214 17.8477 18.3676 17.8477C16.9137 17.8477 15.7352 19.0259 15.7352 20.4794C15.7352 21.9329 16.9137 23.1112 18.3676 23.1112Z" stroke="#171717" stroke-width="1.5" stroke-miterlimit="10"/>
</g>
<path id="Vector_3" d="M4.65263 15.6522C6.66992 15.6522 8.30525 14.0173 8.30525 12.0004C8.30525 9.9836 6.66992 8.34863 4.65263 8.34863C2.63534 8.34863 1 9.9836 1 12.0004C1 14.0173 2.63534 15.6522 4.65263 15.6522Z" stroke="#171717" stroke-width="1.5" stroke-miterlimit="10"/>
<path id="Vector_4" d="M16.109 4.86035L8.31311 10.5054" stroke="#171717" stroke-width="1.5" stroke-miterlimit="10"/>
<path id="Vector_5" d="M16.109 19.1637L8.31311 13.5264" stroke="#171717" stroke-width="1.5" stroke-miterlimit="10"/>
</g>
</svg>
