<svg width="16" height="14" viewBox="0 0 16 14" fill="none" xmlns="http://www.w3.org/2000/svg">
<path d="M4.33333 0.777832C2.79444 0.777832 1.35556 1.18339 0.752778 1.37783C0.286111 1.52783 0 1.95839 0 2.4195V11.0973C0 11.8223 0.666667 12.3251 1.33333 12.2139C1.88333 12.1223 2.85556 12.0001 4.11111 12.0001C5.61111 12.0001 6.81944 12.7084 7.23611 12.9889C7.44444 13.1278 7.70278 13.2223 7.98611 13.2223C8.30556 13.2223 8.58611 13.1056 8.8 12.9473C9.17222 12.6751 10.2528 12.0001 11.8889 12.0001C13.2139 12.0001 14.125 12.1112 14.6389 12.2001C15.3028 12.3139 16 11.8167 16 11.0723V2.4195C16 1.96117 15.7139 1.52783 15.2472 1.37783C14.6444 1.18339 13.2056 0.777832 11.6667 0.777832C10.6444 0.777832 9.67222 0.95561 8.96111 1.13061C8.60556 1.2195 8.30833 1.30561 8.10278 1.37228C8.06667 1.38339 8.03056 1.3945 8 1.40561C7.96944 1.3945 7.93333 1.38339 7.89722 1.37228C7.68889 1.30561 7.39444 1.2195 7.03889 1.13061C6.32778 0.95561 5.35556 0.777832 4.33333 0.777832ZM7.33333 2.59172V11.4973C6.61111 11.1167 5.46667 10.6667 4.11111 10.6667C2.91944 10.6667 1.96111 10.7695 1.33333 10.8639V2.59172C1.95278 2.40561 3.12222 2.11117 4.33333 2.11117C5.21111 2.11117 6.07222 2.26672 6.71944 2.42505C6.95833 2.48339 7.16667 2.54172 7.33333 2.59172ZM8.66667 11.4584V2.59172C8.83333 2.54172 9.04167 2.48339 9.28056 2.42505C9.92778 2.26672 10.7889 2.11117 11.6667 2.11117C12.8778 2.11117 14.0472 2.40561 14.6667 2.59172V10.8528C14.0639 10.7612 13.1417 10.6667 11.8889 10.6667C10.4611 10.6667 9.36667 11.0834 8.66667 11.4612V11.4584Z" fill="#555555"/>
</svg>
