<svg width="24" height="24" viewBox="0 0 24 24" fill="none" xmlns="http://www.w3.org/2000/svg">
<path d="M2 4.5C2 3.12109 3.12109 2 4.5 2H19.5C20.8789 2 22 3.12109 22 4.5V15.75C22 17.1289 20.8789 18.25 19.5 18.25H14.082L9.25 21.875C9.0625 22.0156 8.80859 22.0391 8.59375 21.9336C8.37891 21.8281 8.25 21.6133 8.25 21.375V18.25H4.5C3.12109 18.25 2 17.1289 2 15.75V4.5ZM6.6875 9.5C6.16797 9.5 5.75 9.91797 5.75 10.4375C5.75 10.957 6.16797 11.375 6.6875 11.375H12.3125C12.832 11.375 13.25 10.957 13.25 10.4375C13.25 9.91797 12.832 9.5 12.3125 9.5H6.6875ZM15.4375 9.5C14.918 9.5 14.5 9.91797 14.5 10.4375C14.5 10.957 14.918 11.375 15.4375 11.375H17.3125C17.832 11.375 18.25 10.957 18.25 10.4375C18.25 9.91797 17.832 9.5 17.3125 9.5H15.4375ZM6.6875 12.625C6.16797 12.625 5.75 13.043 5.75 13.5625C5.75 14.082 6.16797 14.5 6.6875 14.5H8.5625C9.08203 14.5 9.5 14.082 9.5 13.5625C9.5 13.043 9.08203 12.625 8.5625 12.625H6.6875ZM11.6875 12.625C11.168 12.625 10.75 13.043 10.75 13.5625C10.75 14.082 11.168 14.5 11.6875 14.5H17.3125C17.832 14.5 18.25 14.082 18.25 13.5625C18.25 13.043 17.832 12.625 17.3125 12.625H11.6875Z" fill="#171717"/>
</svg>
