<svg width="80" height="80" viewBox="0 0 80 80" fill="none" xmlns="http://www.w3.org/2000/svg">
<g clip-path="url(#clip0_6573_40352)">
<path d="M73.5986 56.1122C74.4964 54.2653 75 52.1914 75 50C75 42.2685 68.7315 36 61 36C61 24.401 51.599 15 40 15C30.7705 15 22.9515 20.9605 20.134 29.238C11.5975 30.4035 5 37.645 5 46.5C5 56.1635 12.8365 64 22.5 64H52.9634" stroke="#171717" stroke-width="5" stroke-linecap="round" stroke-linejoin="round"/>
<path d="M71.0646 57.0252L71.0645 57.0251L56.6502 52.2203L56.6502 52.2203C55.1076 51.7062 53.407 52.1076 52.2572 53.2574L54.025 55.0252L52.2572 53.2574C51.1075 54.4071 50.706 56.1078 51.2201 57.6504L51.2202 57.6504L56.025 72.0647L56.0251 72.0647C56.5552 73.6551 57.9627 74.7914 59.6291 74.9743C61.2956 75.1573 62.9161 74.3534 63.7786 72.9158L63.7786 72.9158L66.6904 68.0628L66.6904 68.0628C66.7821 67.91 66.91 67.7821 67.0627 67.6905L67.0628 67.6904L71.9158 64.7787L71.916 64.7785C73.3534 63.9159 74.1571 62.2954 73.9741 60.6291C73.7912 58.9627 72.6549 57.5554 71.0646 57.0252Z" stroke="#FF6600" stroke-width="5" stroke-linecap="round" stroke-linejoin="round"/>
<path d="M32 42L40 34L48 42" stroke="#171717" stroke-width="5" stroke-linecap="round" stroke-linejoin="round"/>
<path d="M40 52V34" stroke="#171717" stroke-width="5" stroke-linecap="round" stroke-linejoin="round"/>
</g>
<defs>
<clipPath id="clip0_6573_40352">
<rect width="80" height="80" fill="white"/>
</clipPath>
</defs>
</svg>
