<svg width="100" height="100" viewBox="0 0 100 100" fill="none" xmlns="http://www.w3.org/2000/svg">
<path d="M23.5625 64.3164L16.7802 57.5342H6.50684V89.9999H43.9042V64.3164H23.5625Z" fill="#73CFDF" stroke="#373737" stroke-width="2" stroke-linecap="round" stroke-linejoin="round"/>
<path d="M26.6426 79.3164H12.0527V84.4531H26.6426V79.3164Z" fill="white" stroke="#373737" stroke-width="2" stroke-linecap="round" stroke-linejoin="round"/>
<path d="M82.7994 83.8595C85.5913 86.6772 90.119 86.6772 92.9109 83.8595C95.7029 81.0417 95.7029 76.4721 92.9109 73.6544L76.3647 56.9551C73.5728 54.1374 69.045 54.1374 66.2531 56.9551C63.4612 59.7728 63.4612 64.3425 66.2531 67.1602L82.7994 83.8595Z" fill="white" stroke="#3E3A39" stroke-width="2" stroke-linecap="round" stroke-linejoin="round"/>
<path d="M24.0005 46.084C23.6908 28.6994 37.4036 14.353 54.6289 14.0405C71.8541 13.7279 86.069 27.5675 86.3787 44.9521C86.6884 62.3367 72.9756 76.6831 55.7503 76.9956C38.5251 77.3082 24.3102 63.4686 24.0005 46.084Z" fill="#FFCE6C" stroke="#3E3A39" stroke-width="2" stroke-linecap="round" stroke-linejoin="round"/>
<path d="M49.8298 69.0006C36.9761 66.0128 28.956 53.0744 31.9165 40.1018C34.8769 27.1292 47.6968 19.0349 60.5505 22.0227C73.4042 25.0105 81.4243 37.949 78.4639 50.9216C75.5035 63.8942 62.6836 71.9885 49.8298 69.0006Z" fill="white" stroke="#3E3A39" stroke-width="2" stroke-linecap="round" stroke-linejoin="round"/>
<path d="M46.5816 49.7244L50.7545 45.5129L46.5816 41.3014C45.3545 40.063 45.3545 38.0608 46.5816 36.8224C47.8086 35.5839 49.7925 35.5839 51.0195 36.8224L55.1924 41.0339L59.3653 36.8224C60.5924 35.5839 62.5763 35.5839 63.8033 36.8224C65.0304 38.0608 65.0304 40.063 63.8033 41.3014L59.6304 45.5129L63.8033 49.7244C65.0304 50.9628 65.0304 52.965 63.8033 54.2034C62.5763 55.4418 60.5924 55.4418 59.3653 54.2034L55.1924 49.9919L51.0195 54.2034C49.7925 55.4418 47.8086 55.4418 46.5816 54.2034C45.3545 52.965 45.3545 50.9628 46.5816 49.7244Z" fill="#FF886C" stroke="#3E3A39" stroke-width="2" stroke-linecap="round" stroke-linejoin="round"/>
</svg>
