<svg width="30" height="30" viewBox="0 0 30 30" fill="none" xmlns="http://www.w3.org/2000/svg">
<rect x="0.75" y="0.75" width="28.5" height="28.5" rx="14.25" stroke="#171717" stroke-width="1.5"/>
<path d="M20.9009 16.5441C20.9009 13.5184 18.7286 11.6851 15.803 11.6851H12.0487L10.5675 11.7355L11.5591 10.9571L12.8523 9.70139C13.028 9.53853 13.1416 9.31246 13.1416 9.04889C13.1416 8.53407 12.7521 8.13228 12.2373 8.13228C12.1168 8.12831 11.9969 8.15097 11.8861 8.19866C11.7754 8.24635 11.6765 8.31789 11.5966 8.40817L8.25695 11.7982C8.15018 11.8952 8.06487 12.0135 8.00647 12.1454C7.94807 12.2773 7.91789 12.42 7.91785 12.5642C7.91785 12.8535 8.0432 13.1166 8.25695 13.3175L11.6095 16.7455C11.6918 16.8318 11.7913 16.8999 11.9016 16.9453C12.0118 16.9907 12.1304 17.0124 12.2496 17.0091C12.7521 17.0091 13.1411 16.6073 13.1411 16.0925C13.1411 15.8541 13.0532 15.6157 12.8652 15.4394L11.2955 13.933L10.5675 13.393L12.0493 13.4434H15.8036C17.6491 13.4434 19.0553 14.5105 19.0553 16.4439C19.0553 18.4153 17.6871 19.6459 15.7912 19.6459H14.0459C13.5059 19.6459 13.0912 19.9598 13.0912 20.5373C13.0912 21.1148 13.5059 21.441 14.0705 21.441H15.7912C18.7162 21.441 20.9009 19.5575 20.9009 16.5441Z" fill="#171717"/>
</svg>
