<svg width="30" height="30" viewBox="0 0 30 30" fill="none" xmlns="http://www.w3.org/2000/svg">
<path d="M14.6384 18.6842C17.19 18.6842 19.2498 16.7095 19.2498 14.2632V5.42105C19.2498 2.97474 17.19 1 14.6384 1C12.0867 1 10.0269 2.97474 10.0269 5.42105V14.2632C10.0269 16.7095 12.0867 18.6842 14.6384 18.6842ZM23.7229 14.2632C22.9697 14.2632 22.3394 14.7937 22.2165 15.5158C21.5862 18.9789 18.4351 21.6316 14.6384 21.6316C10.8416 21.6316 7.69049 18.9789 7.06027 15.5158C7.00606 15.1692 6.8245 14.8525 6.54831 14.6228C6.27213 14.3932 5.91946 14.2656 5.55387 14.2632C4.61622 14.2632 3.87839 15.0589 4.01673 15.9432C4.76993 20.3642 8.45906 23.8274 13.1012 24.4611V27.5263C13.1012 28.3368 13.7929 29 14.6384 29C15.4838 29 16.1755 28.3368 16.1755 27.5263V24.4611C18.4374 24.1512 20.5376 23.1585 22.1711 21.6268C23.8047 20.0952 24.8866 18.1043 25.26 15.9432C25.4137 15.0589 24.6605 14.2632 23.7229 14.2632Z" fill="#171717"/>
</svg>
