<svg width="50" height="50" viewBox="0 0 50 50" fill="none" xmlns="http://www.w3.org/2000/svg">
<g clip-path="url(#clip0_9364_833940)">
<path d="M4 50H46C48.2091 50 50 48.2091 50 46V17L33 0H4C1.79086 0 0 1.79086 0 4V46C0 48.2091 1.79086 50 4 50Z" fill="#5CB9FF"/>
<path d="M49.8081 16.9973H34.4105C33.5307 16.9973 32.8108 16.2774 32.8108 15.3975V0" fill="#1085DE"/>
<path d="M35.874 24.4393H26.8529V20.1277C26.8529 20.0575 26.7962 20 26.7268 20H23.2719C23.2026 20 23.1459 20.0575 23.1459 20.1277V24.4393H14.126C14.0567 24.4393 14 24.4968 14 24.567V28.0677C14 28.1379 14.0567 28.1954 14.126 28.1954H18.3662C17.0503 29.659 16.2512 31.5683 16.2512 33.659C16.2512 38.2656 20.1195 42 24.8929 42C29.6662 42 33.5345 38.2656 33.5345 33.659C33.5345 31.5683 32.7367 29.6603 31.4195 28.1954H35.874C35.9433 28.1954 36 28.1379 36 28.0677V24.567C36 24.4968 35.9433 24.4393 35.874 24.4393ZM24.8929 38.0243C22.1413 38.0243 19.9103 35.7637 19.9103 32.9757C19.9103 30.1877 22.1413 27.9272 24.8929 27.9272C27.6444 27.9272 29.8754 30.1877 29.8754 32.9757C29.8754 35.7637 27.6444 38.0243 24.8929 38.0243Z" fill="white"/>
</g>
<defs>
<clipPath id="clip0_9364_833940">
<rect width="50" height="50" fill="white"/>
</clipPath>
</defs>
</svg>
