<svg width="100" height="100" viewBox="0 0 100 100" fill="none" xmlns="http://www.w3.org/2000/svg">
<path d="M28.5 41.5C29.163 41.5 29.7989 41.7634 30.2678 42.2322C30.7366 42.7011 31 43.337 31 44V49C31 54.3043 33.1071 59.3914 36.8579 63.1421C40.6086 66.8929 45.6957 69 51 69C56.3043 69 61.3914 66.8929 65.1421 63.1421C68.8929 59.3914 71 54.3043 71 49V44C71 43.337 71.2634 42.7011 71.7322 42.2322C72.2011 41.7634 72.837 41.5 73.5 41.5C74.163 41.5 74.7989 41.7634 75.2678 42.2322C75.7366 42.7011 76 43.337 76 44V49C76.0001 55.1976 73.6981 61.1744 69.5406 65.7707C65.3831 70.367 59.6666 73.2552 53.5 73.875V84H68.5C69.163 84 69.7989 84.2634 70.2678 84.7322C70.7366 85.2011 71 85.837 71 86.5C71 87.163 70.7366 87.7989 70.2678 88.2678C69.7989 88.7366 69.163 89 68.5 89H33.5C32.837 89 32.2011 88.7366 31.7322 88.2678C31.2634 87.7989 31 87.163 31 86.5C31 85.837 31.2634 85.2011 31.7322 84.7322C32.2011 84.2634 32.837 84 33.5 84H48.5V73.875C42.3334 73.2552 36.6169 70.367 32.4594 65.7707C28.3019 61.1744 25.9999 55.1976 26 49V44C26 43.337 26.2634 42.7011 26.7322 42.2322C27.2011 41.7634 27.837 41.5 28.5 41.5Z" fill="#171717"/>
<path d="M61 49C61 51.6522 59.9464 54.1957 58.0711 56.0711C56.1957 57.9464 53.6522 59 51 59C48.3478 59 45.8043 57.9464 43.9289 56.0711C42.0536 54.1957 41 51.6522 41 49V24C41 21.3478 42.0536 18.8043 43.9289 16.9289C45.8043 15.0536 48.3478 14 51 14C53.6522 14 56.1957 15.0536 58.0711 16.9289C59.9464 18.8043 61 21.3478 61 24V49ZM51 9C47.0218 9 43.2064 10.5804 40.3934 13.3934C37.5804 16.2064 36 20.0218 36 24V49C36 52.9782 37.5804 56.7936 40.3934 59.6066C43.2064 62.4197 47.0218 64 51 64C54.9782 64 58.7936 62.4197 61.6066 59.6066C64.4196 56.7936 66 52.9782 66 49V24C66 20.0218 64.4196 16.2064 61.6066 13.3934C58.7936 10.5804 54.9782 9 51 9Z" fill="#171717"/>
</svg>
