<svg width="30" height="30" viewBox="0 0 30 30" fill="none" xmlns="http://www.w3.org/2000/svg">
<g clip-path="url(#clip0_6868_174157)">
<path d="M4.78497 27C4.35236 27 4 26.6522 4 26.2253V3.77475C4 3.34778 4.35236 3 4.78497 3H25.215C25.5116 3 25.7802 3.16528 25.9163 3.42353C26.0488 3.68178 26.0244 3.99512 25.85 4.22927L21.1332 10.627L25.85 17.0247C26.0244 17.2588 26.0488 17.5722 25.9163 17.8304C25.7837 18.0887 25.5116 18.2539 25.215 18.2539H7.52363C7.09102 18.2539 6.73866 17.9062 6.73866 17.4792C6.73866 17.0522 7.09102 16.7044 7.52363 16.7044H23.673L19.5249 11.0815C19.326 10.8095 19.326 10.441 19.5249 10.169L23.673 4.54605H5.56993V26.2218C5.56993 26.6488 5.21757 26.9966 4.78497 26.9966V27Z" fill="#171717"/>
<path d="M10.0774 14.8763C9.64484 14.8763 9.29248 14.5285 9.29248 14.1016V6.92221C9.29248 6.49524 9.64484 6.14746 10.0774 6.14746C10.5101 6.14746 10.8624 6.49524 10.8624 6.92221V14.1016C10.8624 14.5285 10.5101 14.8763 10.0774 14.8763Z" fill="#171717"/>
</g>
<path d="M1.5 26.5H10.5" stroke="#171717" stroke-width="1.5" stroke-linecap="round"/>
<defs>
<clipPath id="clip0_6868_174157">
<rect width="22" height="24" fill="white" transform="translate(4 3)"/>
</clipPath>
</defs>
</svg>
