<svg width="40" height="40" viewBox="0 0 40 40" fill="none" xmlns="http://www.w3.org/2000/svg">
<path fill-rule="evenodd" clip-rule="evenodd" d="M24.7981 16.9463C27.3932 19.5413 27.3932 23.7487 24.7981 26.3437C22.2031 28.9388 17.9957 28.9388 15.4007 26.3437C12.8056 23.7487 12.8056 19.5413 15.4007 16.9463C17.9957 14.3512 22.2031 14.3512 24.7981 16.9463Z" stroke="#171717" stroke-width="1.5" stroke-linecap="round" stroke-linejoin="round"/>
<path fill-rule="evenodd" clip-rule="evenodd" d="M35 15.0003V30.0003C35 31.842 33.5083 33.3337 31.6667 33.3337H8.33333C6.49167 33.3337 5 31.842 5 30.0003V15.0003C5 13.1587 6.49167 11.667 8.33333 11.667H11.6667L14.1033 7.49366C14.4017 6.98199 14.95 6.66699 15.5433 6.66699H24.3833C24.9683 6.66699 25.51 6.97366 25.8117 7.47366L28.3333 11.667H31.6667C33.5083 11.667 35 13.1587 35 15.0003Z" stroke="#171717" stroke-width="1.5" stroke-linecap="round" stroke-linejoin="round"/>
</svg>
