<svg width="30" height="30" viewBox="0 0 30 30" fill="none" xmlns="http://www.w3.org/2000/svg">
<path fill-rule="evenodd" clip-rule="evenodd" d="M24.648 1.1958C25.2279 0.984627 25.8561 0.943268 26.4587 1.07659C27.0613 1.2099 27.6133 1.51236 28.0499 1.9484C28.4864 2.38445 28.7893 2.93596 28.923 3.53812C29.0567 4.14029 29.0156 4.76808 28.8046 5.34771L21.6521 26.7712C21.478 27.2977 21.1718 27.7707 20.7625 28.145C20.3532 28.5194 19.8547 28.7825 19.3146 28.9092C18.7757 29.0403 18.212 29.0293 17.6788 28.8771C17.1455 28.7249 16.661 28.4369 16.2726 28.0412L12.4342 24.2233L8.40365 26.3072C8.24914 26.3873 8.07642 26.4257 7.90252 26.4187C7.72862 26.4116 7.55957 26.3594 7.41205 26.2671C7.26453 26.1748 7.14365 26.0457 7.06134 25.8924C6.97904 25.7392 6.93815 25.5671 6.94272 25.3933L7.10882 19.0254L21.2078 8.79163C21.3408 8.69511 21.4534 8.57336 21.5393 8.43333C21.6252 8.2933 21.6827 8.13774 21.7084 7.97552C21.7341 7.8133 21.7277 7.6476 21.6893 7.48788C21.651 7.32817 21.5815 7.17757 21.485 7.04467C21.3884 6.91178 21.2665 6.79919 21.1264 6.71335C20.9863 6.62751 20.8306 6.57009 20.6683 6.54437C20.506 6.51865 20.3402 6.52513 20.1804 6.56344C20.0205 6.60176 19.8698 6.67116 19.7368 6.76768L5.39974 17.1754L1.93754 13.7155C1.56441 13.3425 1.28932 12.8832 1.13674 12.3783C0.984158 11.8734 0.958823 11.3386 1.06298 10.8216C1.16772 10.2563 1.42106 9.72908 1.79702 9.29398C2.17297 8.85887 2.65801 8.53156 3.20234 8.34564H3.20835L24.646 1.1938L24.648 1.1958Z" fill="#1E3257"/>
</svg>
