<svg width="16" height="20" viewBox="0 0 16 20" fill="none" xmlns="http://www.w3.org/2000/svg">
<g id="Group 427320510">
<path id="Subtract" fill-rule="evenodd" clip-rule="evenodd" d="M2 0C0.895431 0 0 0.895431 0 2V18C0 19.1046 0.895431 20 2 20H10C13.3137 20 16 17.3137 16 14V2C16 0.895431 15.1046 0 14 0H2ZM4 4.25C3.58579 4.25 3.25 4.58579 3.25 5C3.25 5.41421 3.58579 5.75 4 5.75H12C12.4142 5.75 12.75 5.41421 12.75 5C12.75 4.58579 12.4142 4.25 12 4.25H4ZM3.25 9C3.25 8.58579 3.58579 8.25 4 8.25H12C12.4142 8.25 12.75 8.58579 12.75 9C12.75 9.41421 12.4142 9.75 12 9.75H4C3.58579 9.75 3.25 9.41421 3.25 9ZM13.7716 16.1481C13.9224 15.7841 14 15.394 14 15H11V18C11.394 18 11.7841 17.9224 12.1481 17.7716C12.512 17.6209 12.8427 17.3999 13.1213 17.1213C13.3999 16.8427 13.6209 16.512 13.7716 16.1481Z" fill="white"/>
</g>
</svg>
