<svg width="120" height="120" viewBox="0 0 120 120" fill="none" xmlns="http://www.w3.org/2000/svg">
<mask id="mask0_9423_130835" style="mask-type:alpha" maskUnits="userSpaceOnUse" x="38" y="14" width="61" height="45">
<rect x="38" y="14" width="60.9375" height="44.0625" fill="#D9D9D9"/>
</mask>
<g mask="url(#mask0_9423_130835)">
<path d="M62.2357 19.7425C53.1451 35.217 53.1451 55.2007 62.2357 70.6752M62.2357 19.7425C64.8969 15.2108 71.0999 15.2108 73.7642 19.7425M62.2357 19.7425C64.9 15.2108 71.1031 15.2108 73.7642 19.7425M62.2357 19.7425C56.977 28.6941 54.7603 39.1546 55.5856 49.3783M73.7642 19.7425C79.0229 28.6941 81.2396 39.1546 80.4143 49.3783M73.7642 19.7425C82.8549 35.217 82.8548 55.2007 73.7641 70.6752M43.5757 31.8849C58.5308 36.8191 77.4723 36.8191 92.4243 31.8849M39.875 45.2089C39.875 29.2304 52.4312 16.3438 68 16.3438C83.5687 16.3438 96.125 29.2304 96.125 45.2089C96.125 55.1184 90.5 74.9375 68 74.9375C45.5 74.9375 39.875 55.1184 39.875 45.2089Z" stroke="white" stroke-width="4" stroke-linecap="round" stroke-linejoin="round"/>
</g>
<path d="M29.5625 45.0625C30.6671 45.0625 31.5625 44.1671 31.5625 43.0625C31.5625 41.9579 30.6671 41.0625 29.5625 41.0625V45.0625ZM23 45.0625H29.5625V41.0625H23V45.0625ZM23 54.1875C20.4802 54.1875 18.4375 52.1448 18.4375 49.625H14.4375C14.4375 54.3539 18.2711 58.1875 23 58.1875V54.1875ZM23 41.0625C18.2711 41.0625 14.4375 44.8961 14.4375 49.625H18.4375C18.4375 47.1052 20.4802 45.0625 23 45.0625V41.0625ZM98 58.1875H101.281V54.1875H98V58.1875ZM101.281 77.625H95.1875V81.625H101.281V77.625ZM111 67.9062C111 73.2738 106.649 77.625 101.281 77.625V81.625C108.858 81.625 115 75.4829 115 67.9062H111ZM101.281 58.1875C106.649 58.1875 111 62.5387 111 67.9062H115C115 60.3296 108.858 54.1875 101.281 54.1875V58.1875ZM95.6562 54.1875H23V58.1875H95.6562V54.1875ZM95.6562 58.1875H98V54.1875H95.6562V58.1875Z" fill="#FFD600"/>
<rect x="7" y="68.375" width="87.1875" height="37.5" rx="6" stroke="white" stroke-width="4"/>
<path d="M17.3125 76.875C17.3125 76.3227 17.7602 75.875 18.3125 75.875H21.9375C22.4898 75.875 22.9375 76.3227 22.9375 76.875V78.625C22.9375 79.1773 22.4898 79.625 21.9375 79.625H18.3125C17.7602 79.625 17.3125 79.1773 17.3125 78.625V76.875Z" fill="#FFB799"/>
<path d="M27.625 76.875C27.625 76.3227 28.0727 75.875 28.625 75.875H32.25C32.8023 75.875 33.25 76.3227 33.25 76.875V78.625C33.25 79.1773 32.8023 79.625 32.25 79.625H28.625C28.0727 79.625 27.625 79.1773 27.625 78.625V76.875Z" fill="#FFB799"/>
<path d="M37.9375 76.875C37.9375 76.3227 38.3852 75.875 38.9375 75.875H42.5625C43.1148 75.875 43.5625 76.3227 43.5625 76.875V78.625C43.5625 79.1773 43.1148 79.625 42.5625 79.625H38.9375C38.3852 79.625 37.9375 79.1773 37.9375 78.625V76.875Z" fill="#FFB799"/>
<path d="M48.25 76.875C48.25 76.3227 48.6977 75.875 49.25 75.875H52.875C53.4273 75.875 53.875 76.3227 53.875 76.875V78.625C53.875 79.1773 53.4273 79.625 52.875 79.625H49.25C48.6977 79.625 48.25 79.1773 48.25 78.625V76.875Z" fill="#FFB799"/>
<path d="M58.5625 76.875C58.5625 76.3227 59.0102 75.875 59.5625 75.875H63.1875C63.7398 75.875 64.1875 76.3227 64.1875 76.875V78.625C64.1875 79.1773 63.7398 79.625 63.1875 79.625H59.5625C59.0102 79.625 58.5625 79.1773 58.5625 78.625V76.875Z" fill="#FFB799"/>
<path d="M68.875 76.875C68.875 76.3227 69.3227 75.875 69.875 75.875H73.5C74.0523 75.875 74.5 76.3227 74.5 76.875V78.625C74.5 79.1773 74.0523 79.625 73.5 79.625H69.875C69.3227 79.625 68.875 79.1773 68.875 78.625V76.875Z" fill="#FFB799"/>
<path d="M79.1875 76.875C79.1875 76.3227 79.6352 75.875 80.1875 75.875H83.8125C84.3648 75.875 84.8125 76.3227 84.8125 76.875V78.625C84.8125 79.1773 84.3648 79.625 83.8125 79.625H80.1875C79.6352 79.625 79.1875 79.1773 79.1875 78.625V76.875Z" fill="#FFB799"/>
<path d="M17.3125 86.25C17.3125 85.6977 17.7602 85.25 18.3125 85.25H21.9375C22.4898 85.25 22.9375 85.6977 22.9375 86.25V88C22.9375 88.5523 22.4898 89 21.9375 89H18.3125C17.7602 89 17.3125 88.5523 17.3125 88V86.25Z" fill="#FFB799"/>
<path d="M27.625 86.25C27.625 85.6977 28.0727 85.25 28.625 85.25H32.25C32.8023 85.25 33.25 85.6977 33.25 86.25V88C33.25 88.5523 32.8023 89 32.25 89H28.625C28.0727 89 27.625 88.5523 27.625 88V86.25Z" fill="#FFB799"/>
<path d="M37.9375 86.25C37.9375 85.6977 38.3852 85.25 38.9375 85.25H42.5625C43.1148 85.25 43.5625 85.6977 43.5625 86.25V88C43.5625 88.5523 43.1148 89 42.5625 89H38.9375C38.3852 89 37.9375 88.5523 37.9375 88V86.25Z" fill="#FFB799"/>
<path d="M48.25 86.25C48.25 85.6977 48.6977 85.25 49.25 85.25H52.875C53.4273 85.25 53.875 85.6977 53.875 86.25V88C53.875 88.5523 53.4273 89 52.875 89H49.25C48.6977 89 48.25 88.5523 48.25 88V86.25Z" fill="#FFB799"/>
<path d="M58.5625 86.25C58.5625 85.6977 59.0102 85.25 59.5625 85.25H63.1875C63.7398 85.25 64.1875 85.6977 64.1875 86.25V88C64.1875 88.5523 63.7398 89 63.1875 89H59.5625C59.0102 89 58.5625 88.5523 58.5625 88V86.25Z" fill="#FFB799"/>
<path d="M68.875 86.25C68.875 85.6977 69.3227 85.25 69.875 85.25H73.5C74.0523 85.25 74.5 85.6977 74.5 86.25V88C74.5 88.5523 74.0523 89 73.5 89H69.875C69.3227 89 68.875 88.5523 68.875 88V86.25Z" fill="#FFB799"/>
<path d="M79.1875 86.25C79.1875 85.6977 79.6352 85.25 80.1875 85.25H83.8125C84.3648 85.25 84.8125 85.6977 84.8125 86.25V88C84.8125 88.5523 84.3648 89 83.8125 89H80.1875C79.6352 89 79.1875 88.5523 79.1875 88V86.25Z" fill="#FFB799"/>
<path d="M17.3125 95.625C17.3125 95.0727 17.7602 94.625 18.3125 94.625H21.9375C22.4898 94.625 22.9375 95.0727 22.9375 95.625V97.375C22.9375 97.9273 22.4898 98.375 21.9375 98.375H18.3125C17.7602 98.375 17.3125 97.9273 17.3125 97.375V95.625Z" fill="#FFB799"/>
<path d="M27.625 95.625C27.625 95.0727 28.0727 94.625 28.625 94.625H32.25C32.8023 94.625 33.25 95.0727 33.25 95.625V97.375C33.25 97.9273 32.8023 98.375 32.25 98.375H28.625C28.0727 98.375 27.625 97.9273 27.625 97.375V95.625Z" fill="#FFB799"/>
<path d="M37.9375 95.625C37.9375 95.0727 38.3852 94.625 38.9375 94.625H73.5C74.0523 94.625 74.5 95.0727 74.5 95.625V97.375C74.5 97.9273 74.0523 98.375 73.5 98.375H38.9375C38.3852 98.375 37.9375 97.9273 37.9375 97.375V95.625Z" fill="#FFB799"/>
<path d="M79.1875 95.625C79.1875 95.0727 79.6352 94.625 80.1875 94.625H83.8125C84.3648 94.625 84.8125 95.0727 84.8125 95.625V97.375C84.8125 97.9273 84.3648 98.375 83.8125 98.375H80.1875C79.6352 98.375 79.1875 97.9273 79.1875 97.375V95.625Z" fill="#FFB799"/>
</svg>
