<svg width="30" height="30" viewBox="0 0 30 30" fill="none" xmlns="http://www.w3.org/2000/svg">
<path d="M14.8293 16.63H15.5122C16.6437 16.63 17.561 15.7127 17.561 14.5812V11.8495C17.561 10.718 16.6437 9.80078 15.5122 9.80078H10.0488C8.91729 9.80078 8 10.718 8 11.8495V14.5812C8 15.1246 8.21585 15.6457 8.60008 16.0299C8.9843 16.4142 9.50541 16.63 10.0488 16.63" stroke="#171717" stroke-width="1.5" stroke-linecap="round" stroke-linejoin="round"/>
<path d="M15.1711 13.2148H14.4882C13.3567 13.2148 12.4395 14.1321 12.4395 15.2636V17.9953C12.4395 19.1268 13.3567 20.0441 14.4882 20.0441H19.9516C21.0831 20.0441 22.0004 19.1268 22.0004 17.9953V15.2636C22.0004 14.1321 21.0831 13.2148 19.9516 13.2148" stroke="#171717" stroke-width="1.5" stroke-linecap="round" stroke-linejoin="round"/>
<path fill-rule="evenodd" clip-rule="evenodd" d="M10.3333 4.5H19.6667C22.8883 4.5 25.5 7.11167 25.5 10.3333V19.6667C25.5 22.8883 22.8883 25.5 19.6667 25.5H10.3333C7.11167 25.5 4.5 22.8883 4.5 19.6667V10.3333C4.5 7.11167 7.11167 4.5 10.3333 4.5Z" stroke="#171717" stroke-width="1.5" stroke-linecap="round" stroke-linejoin="round"/>
</svg>
