<svg width="24" height="24" viewBox="0 0 24 24" fill="none" xmlns="http://www.w3.org/2000/svg">
<path d="M12 16C14.2091 16 16 14.2091 16 12C16 9.79086 14.2091 8 12 8C9.79086 8 8 9.79086 8 12C8 14.2091 9.79086 16 12 16Z" stroke="#171717" stroke-width="1.5" stroke-linecap="round"/>
<path d="M20.3863 12C20.3863 11.6109 20.3554 11.2335 20.3052 10.8599C20.2704 10.6031 20.3245 10.3385 20.479 10.1284L21.8117 8.29183C22.0396 7.97665 22.0628 7.55642 21.8696 7.22179L21.043 5.7821C20.8498 5.44358 20.479 5.25681 20.0927 5.29572L17.8406 5.54086C17.5857 5.56809 17.3346 5.48638 17.1337 5.33074C16.5389 4.86381 15.8783 4.48249 15.1714 4.19066C14.9358 4.09339 14.7388 3.9144 14.6345 3.67704L13.719 1.58755C13.5645 1.23346 13.2129 1 12.8267 1H11.1733C10.7871 1 10.4355 1.22957 10.281 1.58755L9.36553 3.67704C9.26123 3.9144 9.06809 4.09339 8.82859 4.19066C8.12169 4.48249 7.46114 4.8677 6.86626 5.33074C6.66539 5.49027 6.4143 5.56809 6.15935 5.54086L3.9073 5.29572C3.52488 5.25292 3.15018 5.44358 2.95704 5.7821L2.13039 7.22179C1.93724 7.56031 1.96042 7.98055 2.18833 8.29183L3.52102 10.1284C3.67553 10.3385 3.72961 10.6031 3.69485 10.8599C3.64463 11.2335 3.61373 11.6109 3.61373 12C3.61373 12.3891 3.64463 12.7665 3.69485 13.1401C3.72961 13.3969 3.67553 13.6615 3.52102 13.8716L2.18833 15.7082C1.96042 16.0233 1.93724 16.4436 2.13039 16.7782L2.95704 18.2179C3.15018 18.5564 3.52102 18.7432 3.9073 18.7043L6.15935 18.4591C6.4143 18.4319 6.66539 18.5136 6.86626 18.6693C7.46114 19.1362 8.12169 19.5175 8.82859 19.8093C9.06422 19.9066 9.26123 20.0856 9.36553 20.323L10.281 22.4125C10.4355 22.7665 10.7871 23 11.1733 23H12.8267C13.2129 23 13.5645 22.7704 13.719 22.4125L14.6345 20.323C14.7388 20.0856 14.9319 19.9066 15.1714 19.8093C15.8783 19.5175 16.5389 19.1323 17.1337 18.6693C17.3346 18.5097 17.5857 18.4319 17.8406 18.4591L20.0927 18.7043C20.4751 18.7471 20.8498 18.5564 21.043 18.2179L21.8696 16.7782C22.0628 16.4397 22.0396 16.0195 21.8117 15.7082L20.479 13.8716C20.3245 13.6615 20.2704 13.3969 20.3052 13.1401C20.3554 12.7665 20.3863 12.3891 20.3863 12Z" stroke="#171717" stroke-width="1.5" stroke-linecap="round"/>
</svg>
