<svg width="40" height="40" viewBox="0 0 40 40" fill="none" xmlns="http://www.w3.org/2000/svg">
<path fill-rule="evenodd" clip-rule="evenodd" d="M19.9924 32.667C18.9422 32.667 18.0899 33.5182 18.1001 34.567C18.095 35.6158 18.9473 36.467 19.9975 36.467C21.0477 36.467 21.9 35.6158 21.9 34.567C21.9 33.5182 21.0477 32.667 19.9924 32.667Z" fill="#171717"/>
<path d="M10.5 32.6667L31.0833 5.75" stroke="#171717" stroke-width="2" stroke-linecap="round" stroke-linejoin="round"/>
<path d="M23.3504 15.8627C18.0699 14.8684 12.3668 16.2427 8.2691 20" stroke="#171717" stroke-width="2" stroke-linecap="round" stroke-linejoin="round"/>
<path d="M28.7304 8.828C20.3229 5.83391 10.3384 7.34283 3.52374 13.3563" stroke="#171717" stroke-width="2" stroke-linecap="round" stroke-linejoin="round"/>
<path d="M28.3394 17.6201C29.5507 18.2614 30.6938 19.0483 31.7293 19.9999" stroke="#171717" stroke-width="2" stroke-linecap="round" stroke-linejoin="round"/>
<path d="M33.3333 11.0889C34.4305 11.7618 35.4961 12.4933 36.4762 13.3562" stroke="#171717" stroke-width="2" stroke-linecap="round" stroke-linejoin="round"/>
<path d="M23.5815 23.8438C24.826 24.3203 25.9945 25.0534 26.9984 26.0509" stroke="#171717" stroke-width="2" stroke-linecap="round" stroke-linejoin="round"/>
</svg>
