<svg width="40" height="40" viewBox="0 0 40 40" fill="none" xmlns="http://www.w3.org/2000/svg">
<path d="M22.1218 7.16139C22.8139 7.46317 23.2593 8.12477 23.2593 8.85601V31.1414C23.2593 31.8727 22.8139 32.5343 22.1218 32.8361C21.4296 33.1378 20.6171 33.016 20.0514 32.5285L11.9324 25.5701H7.85185C5.72732 25.5701 4 23.9045 4 21.8558V18.1416C4 16.093 5.72732 14.4274 7.85185 14.4274H11.9324L20.0514 7.46897C20.6171 6.98148 21.4296 6.86541 22.1218 7.16139ZM32.4736 11.3515C35.0736 13.3943 36.7407 16.5108 36.7407 19.9987C36.7407 23.4866 35.0736 26.6031 32.4736 28.6459C31.8537 29.1334 30.9449 29.0406 30.4394 28.4428C29.9338 27.845 30.0301 26.9687 30.65 26.4812C32.606 24.9491 33.8519 22.6161 33.8519 19.9987C33.8519 17.3813 32.606 15.0483 30.65 13.5104C30.0301 13.0229 29.9398 12.1466 30.4394 11.5488C30.9389 10.9511 31.8537 10.864 32.4736 11.3457V11.3515ZM28.8324 15.6751C30.1264 16.6965 30.963 18.2519 30.963 19.9987C30.963 21.7456 30.1264 23.3009 28.8324 24.3223C28.2125 24.8098 27.3037 24.717 26.7982 24.1192C26.2926 23.5214 26.3889 22.6451 27.0088 22.1576C27.6588 21.6469 28.0741 20.8692 28.0741 19.9987C28.0741 19.1282 27.6588 18.3505 27.0088 17.834C26.3889 17.3465 26.2986 16.4702 26.7982 15.8724C27.2977 15.2747 28.2125 15.1876 28.8324 15.6693V15.6751Z" fill="#171717"/>
</svg>
