<svg width="100" height="100" viewBox="0 0 100 100" fill="none" xmlns="http://www.w3.org/2000/svg">
<g clip-path="url(#clip0_8977_926528)">
<path d="M79.1667 45.8333V20.8333C79.1667 16.2292 75.4375 12.5 70.8333 12.5H20.8333C16.2292 12.5 12.5 16.2292 12.5 20.8333V75" stroke="#171717" stroke-width="3" stroke-linecap="round" stroke-linejoin="round"/>
<path d="M29.167 12.5V66.6667" stroke="#171717" stroke-width="3" stroke-linecap="round" stroke-linejoin="round"/>
<path d="M45.8333 66.668H20.8333C16.2292 66.668 12.5 70.3971 12.5 75.0013C12.5 79.6055 16.2292 83.3346 20.8333 83.3346H45.8333" stroke="#171717" stroke-width="3" stroke-linecap="round" stroke-linejoin="round"/>
<g clip-path="url(#clip1_8977_926528)">
<path d="M79.5815 64.4394C80.1395 65.0252 80.1395 65.9766 79.5815 66.5625L68.1542 78.5606C67.5963 79.1465 66.6901 79.1465 66.1321 78.5606L60.4185 72.5616C59.8605 71.9757 59.8605 71.0243 60.4185 70.4384C60.9765 69.8526 61.8826 69.8526 62.4406 70.4384L67.1454 75.3736L77.5639 64.4394C78.1219 63.8535 79.028 63.8535 79.586 64.4394H79.5815Z" fill="#46A7E5"/>
</g>
<path d="M70 92C81.0457 92 90 83.0457 90 72C90 60.9543 81.0457 52 70 52C58.9543 52 50 60.9543 50 72C50 83.0457 58.9543 92 70 92Z" stroke="#46A7E5" stroke-width="3" stroke-linecap="round" stroke-linejoin="round"/>
</g>
<defs>
<clipPath id="clip0_8977_926528">
<rect width="100" height="100" fill="white"/>
</clipPath>
<clipPath id="clip1_8977_926528">
<rect width="30" height="30" fill="white" transform="translate(55 57)"/>
</clipPath>
</defs>
</svg>
