<svg width="40" height="40" viewBox="0 0 40 40" fill="none" xmlns="http://www.w3.org/2000/svg">
<path d="M9 9C9 7.89543 9.89543 7 11 7H28.8077C29.9123 7 30.8077 7.89543 30.8077 9V28C30.8077 31.3137 28.1214 34 24.8077 34H11C9.89543 34 9 33.1046 9 32V9Z" fill="#171717"/>
<path d="M29.05 28C29.05 28.5319 28.9452 29.0585 28.7417 29.5499C28.5382 30.0412 28.2399 30.4877 27.8638 30.8638C27.4877 31.2399 27.0412 31.5382 26.5499 31.7417C26.0585 31.9452 25.5319 32.05 25 32.05L25 28H29.05Z" fill="white"/>
<path d="M14.1923 13.75H24.9923" stroke="white" stroke-width="1.5" stroke-linecap="round"/>
<path d="M14.1923 19.1504H24.9923" stroke="white" stroke-width="1.5" stroke-linecap="round"/>
</svg>
