<svg width="30" height="30" viewBox="0 0 30 30" fill="none" xmlns="http://www.w3.org/2000/svg">
<path fill-rule="evenodd" clip-rule="evenodd" d="M24.8096 5.1901C24.939 5.31948 25.0024 5.4899 24.9996 5.65946V9.80469C24.9996 10.1632 24.7091 10.4537 24.3506 10.4537C23.9921 10.4537 23.7016 10.1632 23.7016 9.80469V7.21607L21.6929 9.22473C21.4394 9.4782 21.0285 9.4782 20.775 9.22473C20.5215 8.97126 20.5215 8.5603 20.775 8.30683L22.7837 6.2981H20.195C19.8365 6.2981 19.5459 6.00751 19.5459 5.64905C19.5459 5.29059 19.8365 5 20.195 5H24.3506L24.3624 5.00011C24.4332 5.00137 24.5012 5.01396 24.5647 5.03614C24.6542 5.0673 24.7382 5.11862 24.8096 5.1901ZM5.4006 5.04925C5.32405 5.08092 5.25233 5.12787 5.1901 5.1901C5.12787 5.25233 5.08092 5.32405 5.04925 5.4006C5.01751 5.47713 5 5.56104 5 5.64905V9.80469C5 10.1632 5.29059 10.4537 5.64905 10.4537C6.00751 10.4537 6.2981 10.1632 6.2981 9.80469V7.21599L8.30683 9.22473C8.5603 9.4782 8.97126 9.4782 9.22473 9.22473C9.4782 8.97126 9.4782 8.5603 9.22473 8.30683L7.21599 6.2981H9.80469C10.1632 6.2981 10.4537 6.00751 10.4537 5.64905C10.4537 5.29059 10.1632 5 9.80469 5H5.6491H5.64905C5.56104 5 5.47713 5.01751 5.4006 5.04925ZM15.0114 10.9719C17.1575 10.9333 19.1408 12.1117 20.1331 14.0146C20.4373 14.6349 20.4373 15.361 20.1332 15.9813C19.1399 17.8836 17.1571 19.0617 15.011 19.0242C15.0034 19.024 14.9957 19.024 14.988 19.0242C12.8419 19.0628 10.8588 17.8844 9.86633 15.9817C9.71647 15.6754 9.63839 15.339 9.63806 14.998C9.6384 14.657 9.71649 14.3206 9.86636 14.0144C10.8588 12.1116 12.8419 10.9333 14.988 10.9719C14.9958 10.972 15.0036 10.972 15.0114 10.9719ZM21.2881 13.4219C20.0713 11.0817 17.6363 9.63077 14.9997 9.67378C12.3631 9.63079 9.92813 11.0817 8.71132 13.4219L8.70505 13.4343C8.46529 13.9206 8.34038 14.4554 8.33997 14.9975V14.9985C8.34037 15.5407 8.46526 16.0755 8.70502 16.5617L8.71129 16.5741C9.92812 18.9144 12.3631 20.3653 14.9998 20.3223C17.636 20.3641 20.0702 18.9136 21.2879 16.5744L21.2941 16.5621C21.7811 15.5763 21.7811 14.4198 21.2941 13.4339L21.2881 13.4219ZM21.6929 20.7741C21.4394 20.5206 21.0285 20.5206 20.775 20.7741C20.5215 21.0276 20.5215 21.4385 20.775 21.692L22.7843 23.7013H20.195C19.8365 23.7013 19.5459 23.9919 19.5459 24.3504C19.5459 24.7088 19.8365 24.9994 20.195 24.9994H24.3506C24.6889 24.9994 24.9667 24.7406 24.9969 24.4103C24.9991 24.3868 25 24.3632 24.9996 24.3396V20.1947C24.9996 19.8363 24.7091 19.5457 24.3506 19.5457C23.9921 19.5457 23.7016 19.8363 23.7016 20.1947V22.7827L21.6929 20.7741ZM9.22473 20.7741C9.4782 21.0276 9.4782 21.4385 9.22473 21.692L7.21539 23.7013H9.80469C10.1632 23.7013 10.4537 23.9919 10.4537 24.3504C10.4537 24.7088 10.1632 24.9994 9.80469 24.9994H5.64905C5.29059 24.9994 5 24.7088 5 24.3504V24.3498V24.3497V20.1947C5 19.8363 5.29059 19.5457 5.64905 19.5457C6.00751 19.5457 6.2981 19.8363 6.2981 20.1947V22.7828L8.30683 20.7741C8.5603 20.5206 8.97126 20.5206 9.22473 20.7741ZM14.0901 14.9994C14.0901 14.4972 14.4972 14.0901 14.9994 14.0901C15.5016 14.0901 15.9087 14.4972 15.9087 14.9994C15.9087 15.5016 15.5016 15.9087 14.9994 15.9087C14.4972 15.9087 14.0901 15.5016 14.0901 14.9994ZM14.9994 12.792C13.7803 12.792 12.792 13.7803 12.792 14.9994C12.792 16.2185 13.7803 17.2068 14.9994 17.2068C16.2185 17.2068 17.2068 16.2185 17.2068 14.9994C17.2068 13.7803 16.2185 12.792 14.9994 12.792Z" fill="#171717"/>
</svg>
