<svg width="30" height="30" viewBox="0 0 30 30" fill="none" xmlns="http://www.w3.org/2000/svg">
<path fill-rule="evenodd" clip-rule="evenodd" d="M21.016 4.67518C19.1538 4.18627 17.1728 4.73764 15.831 6.11794L11.798 10.1509C10.7963 11.1521 10.2334 12.5102 10.2334 13.9265C10.2334 15.2889 10.7543 16.5975 11.6856 17.5863C11.7148 17.6342 11.75 17.6787 11.7907 17.7186C12.2224 18.1421 12.7236 18.4883 13.2725 18.742C13.6142 18.9 14.0192 18.751 14.1772 18.4094C14.3351 18.0677 14.1862 17.6627 13.8445 17.5047C13.4797 17.3361 13.1432 17.1124 12.8468 16.8417C12.8221 16.8047 12.7937 16.7699 12.7617 16.738C12.0157 15.9925 11.5966 14.9811 11.5966 13.9265C11.5966 12.8718 12.0159 11.8603 12.7619 11.1148L16.7985 7.07834L16.8057 7.07093C17.805 6.0409 19.2817 5.62918 20.6698 5.99362C22.0579 6.35806 23.1419 7.44211 23.5064 8.83019C23.8708 10.2183 23.4591 11.695 22.429 12.6943L20.5344 14.5889C20.2682 14.8551 20.2682 15.2867 20.5344 15.5528C20.8005 15.819 21.2321 15.819 21.4982 15.5528L23.3821 13.669C24.7624 12.3272 25.3137 10.3462 24.8248 8.48404C24.3355 6.62016 22.8798 5.16453 21.016 4.67518ZM15.616 11.3699C15.2744 11.2117 14.8693 11.3604 14.7111 11.702C14.553 12.0436 14.7017 12.4487 15.0432 12.6068C15.4496 12.795 15.8208 13.0515 16.1406 13.365C16.8852 14.1103 17.3036 15.1207 17.3036 16.1744C17.3036 17.229 16.8843 18.2405 16.1383 18.986L12.1055 23.0188C10.5458 24.5283 8.06318 24.5083 6.52791 22.9731C4.99263 21.4378 4.97268 18.9552 6.48222 17.3954L8.36578 15.5119C8.63194 15.2457 8.63194 14.8142 8.36578 14.548C8.09961 14.2818 7.66807 14.2818 7.4019 14.548L5.51449 16.4353L5.50731 16.4427C3.47569 18.5368 3.50094 21.8739 5.56403 23.9369C7.62712 26 10.9642 26.0253 13.0583 23.9937L17.1021 19.9499C18.1039 18.9488 18.6667 17.5906 18.6667 16.1744C18.6667 14.758 18.1038 13.3998 17.102 12.3986L17.0977 12.3945C16.6661 11.9706 16.1649 11.6241 15.616 11.3699Z" fill="#171717"/>
</svg>
