<svg width="100" height="100" viewBox="0 0 100 100" fill="none" xmlns="http://www.w3.org/2000/svg">
<path d="M8.03711 60.5547L25.2091 43.7692C26.7731 42.1499 29.3051 42.1499 30.8651 43.7692L48.0371 60.5547" stroke="#171717" stroke-width="3" stroke-linecap="round" stroke-linejoin="round"/>
<path d="M82.5 47V20C82.5 13.0958 76.9042 7.5 70 7.5H20C13.0958 7.5 7.5 13.0958 7.5 20V70C7.5 76.9042 13.0958 82.5 20 82.5H47.5" stroke="#171717" stroke-width="3" stroke-linecap="round" stroke-linejoin="round"/>
<path d="M26.1971 82.4982L52.418 56.2773" stroke="#171717" stroke-width="3" stroke-linecap="round" stroke-linejoin="round"/>
<path fill-rule="evenodd" clip-rule="evenodd" d="M65.2426 26.7574C67.5858 29.1005 67.5858 32.8995 65.2426 35.2426C62.8995 37.5858 59.1005 37.5858 56.7574 35.2426C54.4142 32.8995 54.4142 29.1005 56.7574 26.7574C59.1005 24.4142 62.8995 24.4142 65.2426 26.7574Z" stroke="#171717" stroke-width="3" stroke-linecap="round" stroke-linejoin="round"/>
<path d="M82.5815 65.4394C83.1395 66.0252 83.1395 66.9766 82.5815 67.5625L71.1542 79.5606C70.5963 80.1465 69.6901 80.1465 69.1321 79.5606L63.4185 73.5616C62.8605 72.9757 62.8605 72.0243 63.4185 71.4384C63.9765 70.8526 64.8826 70.8526 65.4406 71.4384L70.1454 76.3736L80.5639 65.4394C81.1219 64.8535 82.028 64.8535 82.586 65.4394H82.5815Z" fill="#46A7E5"/>
<path d="M73 93C84.0457 93 93 84.0457 93 73C93 61.9543 84.0457 53 73 53C61.9543 53 53 61.9543 53 73C53 84.0457 61.9543 93 73 93Z" stroke="#46A7E5" stroke-width="3" stroke-linecap="round" stroke-linejoin="round"/>
</svg>
