<svg width="101" height="101" viewBox="0 0 101 101" fill="none" xmlns="http://www.w3.org/2000/svg">
<g clip-path="url(#clip0_10680_76783)">
<path d="M84.2942 21.1963H16.6462V77.0112H84.2942V21.1963Z" fill="#73CFDF" stroke="#373737" stroke-width="2" stroke-linecap="round" stroke-linejoin="round"/>
<path d="M84.2942 65.9365H16.6462V77.0056H84.2942V65.9365Z" fill="white" stroke="#373737" stroke-width="2" stroke-linecap="round" stroke-linejoin="round"/>
<path d="M62.9027 77.0107H38.0312V87.644H62.9027V77.0107Z" fill="#DCDDDD" stroke="#373737" stroke-width="2" stroke-linecap="round" stroke-linejoin="round"/>
<path d="M29.9509 87.6445H70.9845" stroke="#373737" stroke-width="2" stroke-linecap="round" stroke-linejoin="round"/>
<path d="M19.8713 62.3464L14.8159 57.291H7.1582V81.4907H35.0339V62.3464H19.8713Z" fill="#FFB650" stroke="#373737" stroke-width="2" stroke-linecap="round" stroke-linejoin="round"/>
<path d="M22.1674 73.5273H11.2922V77.3562H22.1674V73.5273Z" fill="white" stroke="#373737" stroke-width="2" stroke-linecap="round" stroke-linejoin="round"/>
<path d="M72.0962 13.9941C69.6515 13.9941 67.4898 15.2335 66.2108 17.1123C64.9319 15.2278 62.7758 13.9941 60.3255 13.9941H37.9214V52.7132H94.5003V13.9941H72.0962Z" fill="white" stroke="#373737" stroke-width="2" stroke-linecap="round" stroke-linejoin="round"/>
<path d="M72.096 50.4326C69.6513 50.4326 67.4895 51.6719 66.2106 53.5507C64.9317 51.6663 62.7756 50.4326 60.3252 50.4326H37.9211V56.7877H94.5001V50.4326H72.096Z" fill="#DCDDDD" stroke="#373737" stroke-width="2" stroke-linecap="round" stroke-linejoin="round"/>
<path d="M66.2159 17.5098V23.2593" stroke="#373737" stroke-width="2" stroke-linecap="round" stroke-linejoin="round"/>
<path d="M45.3562 22.252H55.8197" stroke="#DCDDDD" stroke-width="2" stroke-linecap="round" stroke-linejoin="round"/>
<path d="M45.3562 28.8389H55.8197" stroke="#DCDDDD" stroke-width="2" stroke-linecap="round" stroke-linejoin="round"/>
<path d="M45.3562 35.4258H51.4057" stroke="#DCDDDD" stroke-width="2" stroke-linecap="round" stroke-linejoin="round"/>
<path d="M45.3562 42.0127H55.8197" stroke="#DCDDDD" stroke-width="2" stroke-linecap="round" stroke-linejoin="round"/>
<path d="M75.6324 22.252H86.096" stroke="#DCDDDD" stroke-width="2" stroke-linecap="round" stroke-linejoin="round"/>
<path d="M75.6324 28.8389H86.096" stroke="#DCDDDD" stroke-width="2" stroke-linecap="round" stroke-linejoin="round"/>
</g>
<defs>
<clipPath id="clip0_10680_76783">
<rect width="100" height="100" fill="white" transform="translate(0.5 0.5)"/>
</clipPath>
</defs>
</svg>
