<svg width="30" height="30" viewBox="0 0 30 30" fill="none" xmlns="http://www.w3.org/2000/svg">
<path d="M15 0C18.9782 4.74401e-08 22.7936 1.58035 25.6066 4.3934L15 15V0Z" fill="#F9CC2E"/>
<path d="M25.6066 4.3934C28.4196 7.20645 30 11.0218 30 15L15 15L25.6066 4.3934Z" fill="#EF8524"/>
<path d="M30 15C30 18.9782 28.4196 22.7936 25.6066 25.6066L15 15H30Z" fill="#C71269"/>
<path d="M25.6066 25.6066C22.7936 28.4196 18.9782 30 15 30L15 15L25.6066 25.6066Z" fill="#EE4040"/>
<path d="M15 30C11.0218 30 7.20644 28.4196 4.3934 25.6066L15 15L15 30Z" fill="#474BB0"/>
<path d="M4.3934 25.6066C1.58035 22.7936 6.00699e-07 18.9782 0 15L15 15L4.3934 25.6066Z" fill="#4D79EC"/>
<path d="M0 15C3.47789e-07 11.0218 1.58035 7.20644 4.3934 4.3934L15 15L0 15Z" fill="#7ED1E3"/>
<path d="M4.3934 4.3934C5.78628 3.00052 7.43986 1.89563 9.25975 1.14181C11.0796 0.387986 13.0302 -2.349e-08 15 0V15L4.3934 4.3934Z" fill="#39CCB2"/>
<circle cx="15" cy="14.9997" r="5.35714" fill="white"/>
</svg>
