<svg width="40" height="40" viewBox="0 0 40 40" fill="none" xmlns="http://www.w3.org/2000/svg">
<g clip-path="url(#clip0_6299_161738)">
<path d="M35 21.7796V31.6213C35 33.488 33.4983 35.0013 31.645 35.0013H8.355C6.50167 35.0013 5 33.488 5 31.6213V10.048C5 8.1813 6.50167 6.66797 8.355 6.66797H20" stroke="#171717" stroke-width="1.5" stroke-linecap="round" stroke-linejoin="round"/>
<path fill-rule="evenodd" clip-rule="evenodd" d="M13.0469 28.6209L19.2652 27.0659C19.5585 26.9926 19.8252 26.8409 20.0402 26.6276L34.0235 12.6442C35.3252 11.3426 35.3252 9.23255 34.0235 7.93089L33.7369 7.64422C32.4352 6.34255 30.3252 6.34255 29.0235 7.64422L15.0402 21.6276C14.8269 21.8409 14.6752 22.1092 14.6019 22.4026L13.0469 28.6209Z" stroke="#171717" stroke-width="1.5" stroke-linecap="round" stroke-linejoin="round"/>
<path d="M26.3838 10.2852L31.3838 15.2852" stroke="#171717" stroke-width="1.5" stroke-linecap="round" stroke-linejoin="round"/>
</g>
<defs>
<clipPath id="clip0_6299_161738">
<rect width="40" height="40" fill="white"/>
</clipPath>
</defs>
</svg>
