<svg width="34" height="34" viewBox="0 0 34 34" fill="none" xmlns="http://www.w3.org/2000/svg">
<path d="M0 17C0 7.61116 7.61116 0 17 0C26.3888 0 34 7.61116 34 17V31.2644C34 32.7752 32.7752 34 31.2644 34H17C7.61116 34 0 26.3888 0 17Z" fill="#FF6600"/>
<path d="M12.6367 27.5V24.5H23.1367V27.5C23.1367 28.0523 22.689 28.5 22.1367 28.5H13.6367C13.0844 28.5 12.6367 28.0523 12.6367 27.5Z" fill="#B39DDB" stroke="black" stroke-width="0.5" stroke-linecap="round"/>
<rect x="11.3867" y="6.25" width="3.5" height="7.5" rx="1.75" fill="#FFE0B2" stroke="black" stroke-width="0.5"/>
<rect x="14.8867" y="5.25" width="3.5" height="7.5" rx="1.75" fill="#FFE0B2" stroke="black" stroke-width="0.5"/>
<path d="M10.6376 10.5H15.1376L24.6367 13L23.1367 19.5V24.5H12.6367V21L10.6376 17C10.3042 16.1667 9.53758 14.3 9.13758 13.5C8.73758 12.7 9.30424 11.8333 9.63758 11.5L10.6376 10.5Z" fill="#FFE0B2"/>
<path d="M24.6367 13.5L23.4441 18.6684C23.2399 19.5533 23.1368 20.4585 23.1368 21.3666V24.5H12.6368V21C11.8034 19.6667 10.0368 16.7 9.63676 15.5C9.13676 14 8.63676 10.5 11.1368 10.5C11.6367 10.5 13.4367 11 14.6367 11C16.1367 11 18.6367 10 17.1367 13C16.4774 13.989 14.6406 14.1403 13.362 14.0696M12.6367 14C12.8418 14.0293 13.0892 14.0545 13.362 14.0696M13.362 14.0696C14.6202 15.0464 16.8367 17.5 15.6367 19.5" stroke="black" stroke-width="0.5" stroke-linecap="round"/>
<rect x="21.3867" y="7.25" width="3.5" height="7.5" rx="1.75" fill="#FFE0B2" stroke="black" stroke-width="0.5"/>
<rect x="18.3867" y="6.25" width="3.5" height="7.5" rx="1.75" fill="#FFE0B2" stroke="black" stroke-width="0.5"/>
</svg>
