<svg width="50" height="50" viewBox="0 0 50 50" fill="none" xmlns="http://www.w3.org/2000/svg">
<g clip-path="url(#clip0_9364_833692)">
<path d="M4 50H46C48.2091 50 50 48.2091 50 46V17L33 0H4C1.79086 0 0 1.79086 0 4V46C0 48.2091 1.79086 50 4 50Z" fill="#D1292B"/>
<path d="M50 16.9973H34.6025C33.7226 16.9973 33.0027 16.2774 33.0027 15.3975V0" fill="#980E19"/>
<path d="M37.9779 33.2102C37.9779 33.2102 39.2257 30.4187 30.2272 31.6905C30.2272 31.6905 26.6997 30.5786 24.3721 24.6116C24.3721 24.6116 24.916 21.2521 24.884 19.7084C24.884 19.7084 24.1241 22.5799 23.9322 23.0998C23.9322 23.0998 22.4124 17.5167 23.7162 16.2689C23.7162 16.2689 24.6041 16.4609 24.996 19.2205C24.996 19.2205 25.5799 16.029 23.6282 15.917C23.6282 15.917 22.1405 15.997 22.0285 17.4048C22.0285 17.4048 21.8125 21.5241 23.1403 25.1875C23.1403 25.1875 16.6053 40.5611 12.8939 41.073C12.8939 41.073 12.542 39.6092 17.2852 35.5938C17.2852 35.5938 10.0224 39.6572 12.462 41.2089C12.462 41.2089 13.6538 42.3448 15.5255 40.721C15.5255 40.721 17.2852 39.3932 19.5409 35.0259C19.5409 35.0259 24.2601 33.4262 29.5473 32.6423C29.5473 32.6423 36.8421 36.7617 37.9779 33.8901V33.5622C37.9779 33.5622 37.378 35.4019 31.5549 32.3944C31.5549 32.3944 37.0821 31.7465 37.9779 33.2102ZM19.8688 34.3221C21.9325 31.2585 23.7482 26.5713 23.7482 26.5713C25.4279 30.0427 28.4114 31.9624 28.4114 31.9624C24.3961 32.6983 19.8688 34.3221 19.8688 34.3221Z" fill="white"/>
</g>
<defs>
<clipPath id="clip0_9364_833692">
<rect width="50" height="50" fill="white"/>
</clipPath>
</defs>
</svg>
