<svg width="30" height="30" viewBox="0 0 30 30" fill="none" xmlns="http://www.w3.org/2000/svg">
<g id="Icon/30/message">
<path id="Vector" d="M24.75 5H5.25C4.38833 5.0009 3.56221 5.33642 2.95292 5.93293C2.34363 6.52944 2.00092 7.33822 2 8.18182V21.8182C2.00092 22.6618 2.34363 23.4706 2.95292 24.0671C3.56221 24.6636 4.38833 24.9991 5.25 25H24.75C25.6117 24.9991 26.4378 24.6636 27.0471 24.0671C27.6564 23.4706 27.9991 22.6618 28 21.8182V8.18182C27.9991 7.33822 27.6564 6.52944 27.0471 5.93293C26.4378 5.33642 25.6117 5.0009 24.75 5ZM23.9271 10.2631L15.5699 16.6267C15.4069 16.7507 15.2064 16.8181 15 16.8181C14.7936 16.8181 14.5931 16.7507 14.4301 16.6267L6.07295 10.2631C5.97476 10.1905 5.89228 10.0995 5.83032 9.99543C5.76835 9.89136 5.72813 9.77627 5.71199 9.65685C5.69585 9.53743 5.70412 9.41607 5.7363 9.2998C5.76849 9.18353 5.82395 9.07469 5.89948 8.97959C5.975 8.88449 6.06908 8.80504 6.17624 8.74585C6.2834 8.68665 6.40151 8.6489 6.5237 8.63478C6.64589 8.62066 6.76973 8.63045 6.88803 8.6636C7.00632 8.69674 7.1167 8.75257 7.21277 8.82784L15 14.7574L22.7872 8.82784C22.982 8.68388 23.2267 8.62073 23.4686 8.65207C23.7105 8.68341 23.9301 8.8067 24.0799 8.9953C24.2297 9.18389 24.2976 9.42262 24.269 9.65986C24.2404 9.89711 24.1176 10.1138 23.9271 10.2631Z" fill="#171717"/>
</g>
</svg>
