<svg width="40" height="40" viewBox="0 0 40 40" fill="none" xmlns="http://www.w3.org/2000/svg">
<path d="M3.6842 33.6846L6.8421 33.6846" stroke="#171717" stroke-width="1.5" stroke-linecap="round" stroke-linejoin="round"/>
<path d="M11.0526 33.6846H36.3158" stroke="#171717" stroke-width="1.5" stroke-linecap="round" stroke-linejoin="round"/>
<path d="M8.94743 35.7896C10.1101 35.7896 11.0527 34.8471 11.0527 33.6844C11.0527 32.5217 10.1101 31.5791 8.94743 31.5791C7.78472 31.5791 6.84216 32.5217 6.84216 33.6844C6.84216 34.8471 7.78472 35.7896 8.94743 35.7896Z" stroke="#171717" stroke-width="1.5" stroke-miterlimit="10"/>
<path d="M30.7381 5.2627H9.26085C6.76203 5.2627 4.73633 7.2429 4.73633 9.6856V22.9451C4.73633 25.3878 6.76203 27.368 9.26085 27.368H30.7381C33.2369 27.368 35.2626 25.3878 35.2626 22.9451V9.6856C35.2626 7.2429 33.2369 5.2627 30.7381 5.2627Z" stroke="#171717" stroke-width="1.5" stroke-miterlimit="10"/>
<path d="M23.5 15.134C24.1667 15.5189 24.1667 16.4811 23.5 16.866L19 19.4641C18.3333 19.849 17.5 19.3679 17.5 18.5981L17.5 13.4019C17.5 12.6321 18.3333 12.151 19 12.5359L23.5 15.134Z" stroke="#171717" stroke-width="1.5"/>
</svg>
