<svg width="100" height="100" viewBox="0 0 100 100" fill="none" xmlns="http://www.w3.org/2000/svg">
<path d="M23.5625 64.3164L16.7802 57.5342H6.50684V89.9999H43.9042V64.3164H23.5625Z" fill="#73CFDF" stroke="#373737" stroke-width="2" stroke-linecap="round" stroke-linejoin="round"/>
<path d="M26.6428 79.3164H12.053V84.4531H26.6428V79.3164Z" fill="white" stroke="#373737" stroke-width="2" stroke-linecap="round" stroke-linejoin="round"/>
<path d="M82.7995 83.8595C85.5914 86.6772 90.1192 86.6772 92.9111 83.8595C95.703 81.0417 95.703 76.4721 92.9111 73.6544L76.3648 56.9551C73.5729 54.1374 69.0452 54.1374 66.2532 56.9551C63.4613 59.7728 63.4613 64.3425 66.2532 67.1602L82.7995 83.8595Z" fill="white" stroke="#3E3A39" stroke-width="2" stroke-linecap="round" stroke-linejoin="round"/>
<path d="M24 46.084C23.6903 28.6994 37.4031 14.353 54.6284 14.0405C71.8536 13.7279 86.0685 27.5675 86.3782 44.9521C86.6879 62.3367 72.9751 76.6831 55.7499 76.9956C38.5246 77.3082 24.3097 63.4686 24 46.084Z" fill="#FFCE6C" stroke="#3E3A39" stroke-width="2" stroke-linecap="round" stroke-linejoin="round"/>
<path d="M49.829 69.0006C36.9753 66.0128 28.9552 53.0744 31.9156 40.1018C34.876 27.1292 47.6959 19.0349 60.5496 22.0227C73.4034 25.0105 81.4235 37.949 78.463 50.9216C75.5026 63.8942 62.6827 71.9885 49.829 69.0006Z" fill="white" stroke="#3E3A39" stroke-width="2" stroke-linecap="round" stroke-linejoin="round"/>
<path d="M46.5816 49.7244L50.7545 45.5129L46.5816 41.3014C45.3545 40.063 45.3545 38.0608 46.5816 36.8224C47.8086 35.5839 49.7925 35.5839 51.0195 36.8224L55.1924 41.0339L59.3653 36.8224C60.5924 35.5839 62.5763 35.5839 63.8033 36.8224C65.0304 38.0608 65.0304 40.063 63.8033 41.3014L59.6304 45.5129L63.8033 49.7244C65.0304 50.9628 65.0304 52.965 63.8033 54.2034C62.5763 55.4418 60.5924 55.4418 59.3653 54.2034L55.1924 49.9919L51.0195 54.2034C49.7925 55.4418 47.8086 55.4418 46.5816 54.2034C45.3545 52.965 45.3545 50.9628 46.5816 49.7244Z" fill="#FF886C" stroke="#3E3A39" stroke-width="2" stroke-linecap="round" stroke-linejoin="round"/>
</svg>
