<svg width="30" height="30" viewBox="0 0 30 30" fill="none" xmlns="http://www.w3.org/2000/svg">
<path d="M17.0554 12.943L13.2217 16.7767M25.0908 4.0374C25.212 3.99555 25.3426 3.98867 25.4676 4.01753C25.5926 4.04639 25.7069 4.10983 25.7976 4.2006C25.8882 4.29137 25.9515 4.40581 25.9801 4.53084C26.0088 4.65587 26.0017 4.78645 25.9597 4.90764L18.3895 26.5423C18.3442 26.6717 18.2611 26.7844 18.1509 26.8659C18.0408 26.9474 17.9087 26.9939 17.7718 26.9994C17.6348 27.005 17.4994 26.9692 17.3831 26.8968C17.2667 26.8244 17.1748 26.7187 17.1193 26.5935L13.0057 17.339C12.937 17.1847 12.8137 17.0614 12.6594 16.9927L3.40495 12.8778C3.28009 12.8221 3.17482 12.7302 3.10273 12.614C3.03064 12.4978 2.99505 12.3627 3.00055 12.2261C3.00606 12.0894 3.0524 11.9576 3.1336 11.8476C3.2148 11.7376 3.32713 11.6544 3.45606 11.6089L25.0908 4.0374Z" stroke="black" stroke-width="1.5" stroke-linecap="round" stroke-linejoin="round"/>
</svg>
