<svg width="30" height="30" viewBox="0 0 30 30" fill="none" xmlns="http://www.w3.org/2000/svg">
<path d="M15.9318 11.9479C16.8808 12.3602 17.7427 12.9758 18.5088 13.7383" stroke="#171717" stroke-width="1.5" stroke-linecap="round" stroke-linejoin="round"/>
<path d="M26.156 14.3828C23.7965 10.4271 19.4378 6.9982 15.0791 6.9982" stroke="#171717" stroke-width="1.5" stroke-linecap="round" stroke-linejoin="round"/>
<path d="M23.6914 19C24.7245 18.0175 25.6426 16.9463 26.3871 15.8278C26.6219 15.4744 26.6219 15.0457 26.3871 14.6923" stroke="#171717" stroke-width="1.5" stroke-linecap="round" stroke-linejoin="round"/>
<path d="M6.46289 7L23.6937 23" stroke="#171717" stroke-width="1.5" stroke-linecap="round" stroke-linejoin="round"/>
<path d="M12.4395 12.5376C11.0319 13.9451 11.0319 16.2282 12.4395 17.6357C13.847 19.0433 16.1301 19.0433 17.5376 17.6357" stroke="#171717" stroke-width="1.5" stroke-linecap="round" stroke-linejoin="round"/>
<path d="M21.2308 20.8015C19.3327 22.1469 17.1868 23 15.0421 23C10.754 23 6.46583 19.5909 4.14447 15.657C3.95184 15.3299 3.95184 14.9331 4.14447 14.606C5.30515 12.6402 6.95661 10.8058 8.85345 9.46154" stroke="#171717" stroke-width="1.5" stroke-linecap="round" stroke-linejoin="round"/>
</svg>
