<svg width="60" height="60" viewBox="0 0 60 60" fill="none" xmlns="http://www.w3.org/2000/svg">
<g clip-path="url(#clip0_7208_26348)">
<rect width="60" height="60" rx="30" fill="white"/>
<path d="M15.2512 49.9713C15.4364 49.7492 15.593 49.5704 15.7044 49.4461C15.7646 49.4578 15.8342 49.4716 15.9124 49.4875C16.2165 49.5494 16.6493 49.6425 17.1612 49.7669C18.1874 50.0164 19.5206 50.3894 20.7703 50.8855C22.0348 51.3875 23.1505 51.9916 23.7972 52.6757C24.1148 53.0118 24.2941 53.3408 24.3474 53.6622C24.3991 53.9742 24.3417 54.3355 24.0807 54.7646C21.893 58.3307 19.1047 59.2625 16.8265 59.0305C15.6708 58.9128 14.6311 58.4946 13.8464 57.9449C13.0509 57.3877 12.5674 56.7326 12.4331 56.1712C12.2929 55.5857 12.3964 54.872 12.6836 54.0873C12.9682 53.3096 13.4145 52.5128 13.8931 51.788C14.3702 51.0654 14.8698 50.4284 15.2512 49.9713Z" fill="#B0F7FF" stroke="#303051"/>
<path d="M43.0162 58.3146C40.3384 58.3293 37.633 57.3259 36.598 54.8336C36.4045 54.3666 36.3855 53.9626 36.4762 53.6036C36.5686 53.2376 36.7847 52.8808 37.1198 52.5336C37.7997 51.8289 38.8994 51.235 40.1177 50.7565C41.3244 50.2827 42.5944 49.9422 43.5679 49.7199C44.0534 49.609 44.4625 49.5281 44.7494 49.475C44.8186 49.4622 44.8807 49.4511 44.935 49.4415C45.0467 49.566 45.2048 49.7464 45.3924 49.9713C45.7737 50.4284 46.2734 51.0654 46.7504 51.788C47.229 52.5128 47.6753 53.3096 47.9599 54.0873C48.2471 54.872 48.3506 55.5857 48.2105 56.1712C48.0942 56.6571 47.5557 57.197 46.5659 57.6286C45.6062 58.0471 44.3417 58.3074 43.0162 58.3146Z" fill="#B0F7FF" stroke="#303051"/>
<path d="M38.4864 52.229C38.5626 52.2609 38.6281 52.2891 38.6823 52.3128C38.6923 52.3438 38.7032 52.3782 38.7149 52.416C38.777 52.6159 38.863 52.9093 38.9564 53.2777C39.1435 54.0154 39.3595 55.0497 39.4753 56.2349C39.7082 58.6199 39.5282 61.5397 37.9784 63.8992L37.9783 63.8994C37.5661 64.5276 36.9142 65.0144 36.1263 65.387C35.34 65.7588 34.4473 66.003 33.5947 66.1615C32.7443 66.3196 31.9492 66.3896 31.3658 66.4199C31.0746 66.4351 30.8375 66.4402 30.6742 66.4416C30.5926 66.4423 30.5296 66.4421 30.4875 66.4417L30.4406 66.441L30.4295 66.4408L30.4272 66.4408L30.427 66.4408L30.4269 66.4408H30.4268L30.4142 66.4404L30.4016 66.4408H30.4015L30.4014 66.4408L30.4012 66.4408L30.3989 66.4408L30.3878 66.441L30.3409 66.4417C30.2988 66.4421 30.2358 66.4423 30.1542 66.4416C29.9909 66.4402 29.7538 66.4351 29.4626 66.4199C28.8792 66.3896 28.0841 66.3196 27.2337 66.1615C26.3811 66.003 25.4884 65.7588 24.7021 65.387C23.9142 65.0144 23.2623 64.5276 22.8501 63.8994L22.85 63.8992C21.3002 61.5397 21.1202 58.6199 21.3531 56.2349C21.4689 55.0497 21.6849 54.0154 21.872 53.2777C21.9654 52.9093 22.0514 52.6159 22.1135 52.416C22.1273 52.3715 22.1399 52.3317 22.1512 52.2968C26.0799 50.2708 30.2179 50.2711 33.4167 50.7998C35.0371 51.0677 36.4064 51.4697 37.3694 51.8043C37.8506 51.9715 38.2294 52.1215 38.4864 52.229Z" fill="white" stroke="#303051"/>
<path d="M30.7788 54.4906C24.0925 54.4906 22.0883 55.0094 20.8789 55.8395C21.1381 53.5914 21.7255 51.9658 21.7255 51.9658C29.9495 47.5906 39.0892 51.9658 39.0892 51.9658C39.0892 51.9658 40.3677 55.5455 39.9876 59.4019C39.0719 56.9636 36.7222 54.4906 30.7788 54.4906Z" fill="#CDFBFF"/>
<path d="M11.3944 35.8474C11.3944 37.1432 11.0637 38.2926 10.5535 39.1023C10.0397 39.9178 9.39062 40.3279 8.74994 40.3279C8.11874 40.3279 7.46926 39.9187 6.95237 39.1015C6.43994 38.2914 6.10547 37.1419 6.10547 35.8474C6.10547 34.5517 6.4362 33.4023 6.94635 32.5926C7.46021 31.7771 8.10926 31.3669 8.74994 31.3669C9.38114 31.3669 10.0306 31.7761 10.5475 32.5933C11.0599 33.4035 11.3944 34.5529 11.3944 35.8474Z" fill="#4C4CE8" stroke="#303051"/>
<path d="M52.2011 40.3282C51.5604 40.3282 50.9114 39.918 50.3975 39.1025C49.8874 38.2929 49.5566 37.1434 49.5566 35.8477C49.5566 34.552 49.8874 33.4025 50.3975 32.5929C50.9114 31.7774 51.5604 31.3672 52.2011 31.3672C52.8418 31.3672 53.4908 31.7774 54.0047 32.5929C54.5149 33.4025 54.8456 34.552 54.8456 35.8477C54.8456 37.1434 54.5149 38.2929 54.0047 39.1025C53.4908 39.918 52.8418 40.3282 52.2011 40.3282Z" fill="#4C4CE8" stroke="#303051"/>
<path d="M50.46 45.1197L50.4592 45.1211C48.2312 48.8432 41.1431 53.1787 30.4664 53.1787C19.7924 53.1787 12.7189 48.8276 10.4726 45.1195C9.35146 43.2599 8.35151 39.4654 8.43231 35.3618C8.51296 31.2659 9.6678 26.9783 12.7228 24.0531C18.6156 18.4255 27.2193 18.5074 30.0162 18.534C30.1813 18.5356 30.3262 18.537 30.4491 18.537C30.5731 18.537 30.7191 18.5356 30.8854 18.534C33.6977 18.5074 42.2995 18.426 48.1754 24.053C51.2396 26.9875 52.4026 31.2758 52.4897 35.3691C52.5768 39.4704 51.581 43.2605 50.46 45.1197Z" fill="white" stroke="#303051"/>
<path d="M43.0658 41.3504H43.0485V41.8504C43.0485 44.118 41.2147 45.9677 38.9355 45.9677H21.7791C19.5147 45.9677 17.666 44.1329 17.666 41.8504V29.8488C17.666 27.5811 19.4998 25.7314 21.7791 25.7314H38.9527C41.2171 25.7314 43.0658 27.5663 43.0658 29.8488V41.3504Z" fill="#222299" stroke="#303051"/>
<path d="M21.7755 45.7723C19.6158 45.7723 17.8535 44.0083 17.8535 41.8467V29.845C17.8535 27.6834 19.6158 25.9194 21.7755 25.9194H38.9491C41.1088 25.9194 42.8711 27.6834 42.8711 29.845V41.8467C42.8711 44.0083 41.1088 45.7723 38.9491 45.7723H21.7755Z" fill="#4C4CE8"/>
<path d="M30.399 40.5554L30.399 40.5554L30.3939 40.5558C29.9922 40.5856 29.7615 40.5209 29.6327 40.4524C29.5105 40.3875 29.4445 40.3008 29.4035 40.2065C29.3908 40.1772 29.3804 40.1469 29.372 40.116C29.5007 40.1083 29.6518 40.1008 29.8197 40.095C30.2396 40.0805 30.7585 40.0773 31.2925 40.1095C31.2923 40.1099 31.2922 40.1102 31.292 40.1106C31.2512 40.2017 31.1842 40.2948 31.0644 40.3729C30.942 40.4526 30.7381 40.5338 30.399 40.5554Z" fill="url(#paint0_linear_7208_26348)" stroke="#303051"/>
<path d="M21.3631 26.9584C19.9118 27.1832 18.8233 28.4975 18.6678 29.5005C18.4951 30.59 18.8233 32.1291 20.05 31.2645C20.8102 30.7284 21.2076 29.0855 23.5919 28.1862C25.4233 27.4945 23.7646 26.5779 21.3631 26.9584Z" fill="white"/>
<path d="M28.8938 39.2899C28.8938 39.2899 30.4142 39.1342 31.8828 39.2899C31.8828 39.2899 32.0901 40.5869 30.466 40.6906C28.6001 40.829 28.8938 39.2899 28.8938 39.2899Z" fill="url(#paint1_linear_7208_26348)"/>
<path d="M27.184 38.322L22.7956 38.2009C22.5018 38.2009 22.2772 37.9588 22.2945 37.6648C22.2945 37.3708 22.5364 37.1633 22.8301 37.1633L25.6463 37.2498L22.3636 34.6385C22.139 34.4655 22.1045 34.137 22.2772 33.9121C22.45 33.6873 22.7783 33.6527 23.0029 33.8257L27.495 37.4054C27.6678 37.5438 27.7369 37.7859 27.6678 37.9934C27.5987 38.2009 27.4086 38.322 27.184 38.322Z" fill="url(#paint2_linear_7208_26348)"/>
<path d="M33.6302 38.3207C33.4056 38.3207 33.2155 38.1824 33.1464 37.9748C33.0773 37.7673 33.1291 37.5252 33.3192 37.3869L37.8113 33.8071C38.0359 33.6342 38.3642 33.6688 38.5369 33.8936C38.7097 34.1184 38.6752 34.447 38.4506 34.6199L35.1679 37.2312L38.0013 37.162C38.2778 37.162 38.5197 37.3869 38.5369 37.6635C38.5369 37.9575 38.3123 38.1824 38.0359 38.1996L33.6302 38.3207C33.6475 38.3207 33.6475 38.3207 33.6302 38.3207Z" fill="url(#paint3_linear_7208_26348)"/>
<path d="M22.6277 20.4828C22.4835 20.4151 22.3588 20.3544 22.2557 20.3031L23.3468 16.2549H37.5269L38.6328 20.3038C38.5299 20.3549 38.4057 20.4153 38.2621 20.4828C37.7971 20.7014 37.1303 20.9936 36.3274 21.2858C34.7153 21.8726 32.5831 22.4489 30.4449 22.4489C28.3066 22.4489 26.1744 21.8726 24.5623 21.2858C23.7594 20.9936 23.0926 20.7014 22.6277 20.4828Z" fill="#303051" stroke="#303051"/>
<path d="M21.166 15.1814V15.0645L30.3413 13.4573L39.5166 15.0645V15.1814L30.3413 16.9198L21.166 15.1814Z" fill="#303051" stroke="#303051"/>
<path d="M37.7976 14.5574L30.3413 15.9701L22.885 14.5574L30.3413 12.5184L37.7976 14.5574Z" fill="#3C3C68" stroke="#303051"/>
<path d="M20.8396 15.5977C20.8396 15.5977 18.559 19.8864 16.4512 21.7541" stroke="#303051" stroke-miterlimit="10"/>
<path d="M16.0564 23.4257C16.0224 23.4621 15.9897 23.4967 15.9587 23.5293L14.8432 22.5693C14.8529 22.5587 14.8627 22.5479 14.8727 22.537C15.0927 22.2982 15.3949 21.9921 15.7307 21.7126C16.0717 21.4289 16.4212 21.1948 16.7357 21.0742C17.0479 20.9544 17.2441 20.974 17.3764 21.0546C17.4306 21.0903 17.4442 21.1198 17.4517 21.148C17.4631 21.1909 17.468 21.2731 17.4328 21.4096C17.3603 21.6905 17.1587 22.051 16.8822 22.4343C16.6129 22.8076 16.3027 23.1619 16.0564 23.4257Z" fill="#3C3C68" stroke="#303051"/>
<path d="M43.861 46.3685C43.8809 46.2631 43.9042 46.1457 43.931 46.0186C44.0476 45.4667 44.23 44.742 44.4937 44.0351C44.7602 43.3206 45.0957 42.6632 45.5009 42.2155C45.896 41.7789 46.3136 41.5829 46.7927 41.6508C47.0498 41.6897 47.2075 41.7786 47.3111 41.8798C47.4177 41.9838 47.5002 42.1335 47.5504 42.3441C47.6551 42.7838 47.5965 43.3938 47.4333 44.0641C47.2735 44.7202 47.0295 45.372 46.8222 45.8649C46.7328 46.0774 46.6512 46.2582 46.5876 46.3945L43.861 46.3685Z" fill="#4C4CE8" stroke="#303051"/>
<path d="M48.876 48.0758C48.8647 48.0637 48.8499 48.0485 48.8319 48.0304C48.7772 47.9755 48.6924 47.895 48.5785 47.7999C48.3502 47.6094 48.0082 47.363 47.5607 47.1475C46.6735 46.7201 45.3589 46.4059 43.6543 46.9106L43.6506 46.9117L43.6506 46.9116C43.2359 47.031 43.0576 47.3622 43.0446 47.7825C43.0381 47.994 43.0784 48.1978 43.1398 48.3488C43.1904 48.4734 43.2334 48.5129 43.2367 48.5181L44.1836 48.9031L43.2726 49.4097L43.2725 49.4097L43.2725 49.4098L43.2702 49.4111L43.2557 49.4195C43.2421 49.4276 43.2206 49.4406 43.1929 49.4581C43.1374 49.4934 43.058 49.5464 42.9668 49.6151C42.781 49.755 42.5629 49.9474 42.3956 50.1728C42.2276 50.3989 42.135 50.625 42.1364 50.8449C42.1378 51.0518 42.2228 51.333 42.5703 51.6808L42.9919 52.1028L42.5053 52.4425L42.5051 52.4425L48.876 48.0758ZM48.876 48.0758C49.269 48.783 49.241 49.5338 48.9587 50.4468C48.8135 50.9161 48.6063 51.4112 48.3669 51.9494C48.2986 52.103 48.2274 52.2609 48.1546 52.4221C47.9764 52.8169 47.7888 53.2324 47.6119 53.6581L47.6113 53.6594C47.1937 54.6723 46.4949 55.5232 45.6293 55.9069C44.7979 56.2754 43.7176 56.255 42.4019 55.3442L48.876 48.0758Z" fill="#4C4CE8" stroke="#303051"/>
<path d="M48.2105 51.1321C48.1414 50.8727 47.4503 49.8697 46.1718 49.3336C44.876 48.7975 43.0273 48.9704 43.0273 48.9704" stroke="#303051" stroke-miterlimit="10" stroke-linecap="round" stroke-linejoin="round"/>
<path d="M47.3827 53.5548C47.3136 53.2954 45.8796 52.1713 44.9121 51.9465C43.2707 51.5487 42.2168 51.9984 42.2168 51.9984" stroke="#303051" stroke-miterlimit="10" stroke-linecap="round" stroke-linejoin="round"/>
<path d="M46.5369 55.4736C46.5369 55.4736 43.3578 53.1736 41.9238 54.2285" stroke="#303051" stroke-miterlimit="10" stroke-linecap="round" stroke-linejoin="round"/>
<path d="M47.0552 46.6362C46.9516 46.567 44.3772 45.9098 43.4961 46.4286" stroke="#303051" stroke-miterlimit="10" stroke-linecap="round" stroke-linejoin="round"/>
<path d="M16.5894 46.3683L13.8629 46.3942C13.7993 46.258 13.7177 46.0772 13.6283 45.8647C13.421 45.3717 13.1769 44.7199 13.0172 44.0639C12.8539 43.3935 12.7954 42.7836 12.9001 42.3439C12.9502 42.1332 13.0327 41.9836 13.1394 41.8795C13.243 41.7784 13.4007 41.6895 13.6578 41.6506C14.1368 41.5827 14.5545 41.7786 14.9496 42.2152C15.3548 42.663 15.6903 43.3204 15.9568 44.0348C16.2205 44.7418 16.4028 45.4664 16.5194 46.0184C16.5463 46.1455 16.5695 46.2629 16.5894 46.3683Z" fill="#4C4CE8" stroke="#303051"/>
<path d="M16.7959 46.9103L16.7996 46.9114C17.2144 47.0308 17.3926 47.3619 17.4056 47.7823C17.4122 47.9938 17.3719 48.1976 17.3105 48.3486C17.2598 48.4732 17.2168 48.5127 17.2135 48.5179L16.2667 48.9029L17.1776 49.4095L17.1777 49.4095L17.1778 49.4095L17.1781 49.4097L17.1783 49.4098L17.1801 49.4108L17.1945 49.4193C17.2082 49.4274 17.2296 49.4403 17.2573 49.4579C17.3128 49.4931 17.3922 49.5462 17.4834 49.6148C17.6693 49.7548 17.8874 49.9472 18.0547 50.1725C18.2226 50.3987 18.3153 50.6247 18.3138 50.8447C18.3124 51.0515 18.2274 51.3328 17.8799 51.6806L17.4584 52.1025L17.945 52.4422L17.9481 52.4445C17.9526 52.4479 17.961 52.4543 17.9725 52.4637C17.9957 52.4826 18.0306 52.5126 18.071 52.5526C18.1536 52.6345 18.2487 52.7478 18.318 52.8827C18.3858 53.0148 18.4248 53.1592 18.4129 53.3168C18.4012 53.4721 18.3372 53.6803 18.1343 53.9385L17.8948 54.2432L18.1278 54.5482C18.1279 54.5482 18.1279 54.5482 18.1279 54.5483C18.1293 54.5503 18.1327 54.555 18.1375 54.5623C18.1471 54.5769 18.1621 54.6008 18.1787 54.6318C18.2133 54.6961 18.2487 54.7788 18.2663 54.8656C18.2835 54.9507 18.2812 55.0259 18.2584 55.0923C18.2375 55.1534 18.1874 55.2429 18.0484 55.3439C16.7327 56.2548 15.6523 56.2751 14.821 55.9067C13.9553 55.523 13.2565 54.6721 12.8389 53.6592L12.8383 53.6578C12.6614 53.2322 12.4738 52.8167 12.2957 52.4219C12.2229 52.2606 12.1516 52.1028 12.0833 51.9492C11.844 51.4109 11.6367 50.9159 11.4916 50.4466C11.2092 49.5336 11.1813 48.7828 11.5742 48.0755C11.5856 48.0635 11.6003 48.0482 11.6183 48.0301C11.673 47.9753 11.7578 47.8947 11.8718 47.7997C12.1001 47.6091 12.4421 47.3628 12.8895 47.1472C13.7767 46.7198 15.0914 46.4057 16.7959 46.9103ZM11.5455 48.1067L11.5465 48.1056L11.5462 48.1059L11.5458 48.1064C11.5456 48.1066 11.5455 48.1068 11.5455 48.1067Z" fill="#4C4CE8" stroke="#303051"/>
<path d="M12.2383 51.1324C12.3074 50.873 12.9985 49.8699 14.277 49.3338C15.5728 48.7978 17.4215 48.9707 17.4215 48.9707" stroke="#303051" stroke-miterlimit="10" stroke-linecap="round" stroke-linejoin="round"/>
<path d="M13.0684 53.5545C13.1375 53.2951 14.5715 52.1711 15.539 51.9462C17.1804 51.5485 18.2343 51.9981 18.2343 51.9981" stroke="#303051" stroke-miterlimit="10" stroke-linecap="round" stroke-linejoin="round"/>
<path d="M13.9141 55.4734C13.9141 55.4734 17.0931 53.1733 18.5271 54.2282" stroke="#303051" stroke-miterlimit="10" stroke-linecap="round" stroke-linejoin="round"/>
<path d="M13.3926 46.6359C13.4962 46.5667 16.0706 45.9096 16.9517 46.4284" stroke="#303051" stroke-miterlimit="10" stroke-linecap="round" stroke-linejoin="round"/>
<path d="M31.6941 66.8531C31.6941 66.5937 29.6208 62.3049 32.4197 60.126" stroke="#303051" stroke-miterlimit="10" stroke-linecap="round" stroke-linejoin="round"/>
</g>
<rect x="0.5" y="0.5" width="59" height="59" rx="29.5" stroke="#171717"/>
<defs>
<linearGradient id="paint0_linear_7208_26348" x1="30.3482" y1="39.2681" x2="30.3482" y2="42.3858" gradientUnits="userSpaceOnUse">
<stop stop-color="#66FFFF"/>
<stop offset="1" stop-color="white"/>
</linearGradient>
<linearGradient id="paint1_linear_7208_26348" x1="30.3888" y1="38.9071" x2="30.3888" y2="42.0248" gradientUnits="userSpaceOnUse">
<stop stop-color="#66FFFF"/>
<stop offset="1" stop-color="white"/>
</linearGradient>
<linearGradient id="paint2_linear_7208_26348" x1="24.937" y1="43.8066" x2="24.937" y2="32.503" gradientUnits="userSpaceOnUse">
<stop stop-color="white"/>
<stop offset="1" stop-color="#66FFFF"/>
</linearGradient>
<linearGradient id="paint3_linear_7208_26348" x1="35.8812" y1="43.8054" x2="35.8812" y2="32.5017" gradientUnits="userSpaceOnUse">
<stop stop-color="white"/>
<stop offset="1" stop-color="#66FFFF"/>
</linearGradient>
<clipPath id="clip0_7208_26348">
<rect width="60" height="60" rx="30" fill="white"/>
</clipPath>
</defs>
</svg>
