<svg width="30" height="30" viewBox="0 0 30 30" fill="none" xmlns="http://www.w3.org/2000/svg">
<path d="M4.89941 25.125V21.9424H8.08475" stroke="#171717" stroke-width="2" stroke-linecap="round" stroke-linejoin="round"/>
<path fill-rule="evenodd" clip-rule="evenodd" d="M15.1273 18.4814C16.0087 18.4814 16.7273 19.1998 16.7273 20.0814C16.7273 20.9631 16.0087 21.6814 15.1273 21.6814C14.246 21.6814 13.5273 20.9631 13.5273 20.0814C13.5273 19.1998 14.246 18.4814 15.1273 18.4814Z" fill="#171717"/>
<path d="M21.5 12.4407C17.7093 9.48201 12.2907 9.48201 8.5 12.4407" stroke="#171717" stroke-width="2" stroke-linecap="round" stroke-linejoin="round"/>
<path d="M11.21 16.2266C13.4206 14.5026 16.5806 14.5026 18.7926 16.2266" stroke="#171717" stroke-width="2" stroke-linecap="round" stroke-linejoin="round"/>
<path d="M5.224 21.9427C7.39867 25 10.9627 27 15 27C21.628 27 27 21.628 27 15C27 8.372 21.628 3 15 3C8.372 3 3 8.372 3 15C3 15.7187 3.07467 16.4187 3.196 17.1013" stroke="#171717" stroke-width="2" stroke-linecap="round" stroke-linejoin="round"/>
</svg>
