<svg width="24" height="24" viewBox="0 0 24 24" fill="none" xmlns="http://www.w3.org/2000/svg">
<path d="M12 2.5C17.5356 2.5 22 6.96444 22 12.5C22 18.0356 17.5356 22.5 12 22.5" stroke="#171717" stroke-width="1.5" stroke-linecap="round" stroke-linejoin="round"/>
<path d="M12 22.5C6.46444 22.5 2 18.0356 2 12.5C2 6.96444 6.46444 2.5 12 2.5" stroke="#171717" stroke-width="1.5" stroke-linecap="round" stroke-linejoin="round"/>
<path fill-rule="evenodd" clip-rule="evenodd" d="M9.96693 3.6775C6.75582 9.03861 6.75582 15.9619 9.96693 21.3231C10.9069 22.8931 13.0991 22.8931 14.0391 21.3231C17.2503 15.9619 17.2503 9.03861 14.0391 3.6775C13.098 2.1075 10.9069 2.1075 9.96693 3.6775Z" stroke="#171717" stroke-width="1.5" stroke-linecap="round" stroke-linejoin="round"/>
<path d="M3.11914 7.89844C8.5547 9.57733 15.4391 9.57733 20.8736 7.89844" stroke="#171717" stroke-width="1.5" stroke-linecap="round" stroke-linejoin="round"/>
<path d="M20.8775 17.1039C15.4419 15.425 8.55749 15.425 3.12305 17.1039" stroke="#171717" stroke-width="1.5" stroke-linecap="round" stroke-linejoin="round"/>
</svg>
