<svg width="100" height="100" viewBox="0 0 100 100" fill="none" xmlns="http://www.w3.org/2000/svg">
<g clip-path="url(#clip0_6805_68310)">
<path fill-rule="evenodd" clip-rule="evenodd" d="M70.037 18H78.1852C80.3464 18 82.4193 18.7485 83.9475 20.0822C85.4757 21.4159 86.3333 23.225 86.3333 25.1111V64.2222C86.3333 66.1084 85.4757 67.9174 83.9475 69.2511C82.4193 70.5848 80.3464 71.3333 78.1852 71.3333H21.1481C18.9869 71.3333 16.9141 70.5848 15.3859 69.2511C13.8577 67.9174 13 66.1084 13 64.2222V25.1111C13 23.225 13.8577 21.4159 15.3859 20.0822C16.9141 18.7485 18.9869 18 21.1481 18H70.037Z" stroke="#171717" stroke-width="3" stroke-linecap="round" stroke-linejoin="round"/>
<path d="M33 83H66.3333" stroke="#171717" stroke-width="3" stroke-linecap="round"/>
<g clip-path="url(#clip1_6805_68310)">
<path d="M28.273 43.6928C28.3715 43.5635 30.7282 40.4892 34.5475 37.3819C36.8057 35.5444 39.112 34.0794 41.4005 33.0225C44.3104 31.6818 47.2027 31 50.0014 31C52.8002 31 55.6925 31.6818 58.6024 33.0225C60.8909 34.0794 63.1972 35.5444 65.4554 37.3819C69.2747 40.4892 71.6289 43.5635 71.7274 43.6928C72.0886 44.1692 72.0886 44.8308 71.7274 45.3072C71.6289 45.4365 69.2721 48.5108 65.4529 51.6181C63.1946 53.4556 60.8884 54.9206 58.5999 55.9775C55.6899 57.3208 52.7952 58 49.9989 58C47.2027 58 44.3079 57.3182 41.398 55.9775C39.1094 54.9206 36.8032 53.4556 34.545 51.6181C30.7257 48.5108 28.369 45.4365 28.2705 45.3072C27.9093 44.8308 27.9093 44.1692 28.2705 43.6928H28.273ZM36.2172 49.5525C39.4631 52.1935 44.4923 55.3413 50.0014 55.3413C55.5106 55.3413 60.5019 52.2137 63.7377 49.5905C66.1955 47.5984 68.0369 45.5835 68.9589 44.5013C68.0369 43.419 66.1955 41.4041 63.7377 39.412C60.5019 36.7888 55.4904 33.6612 50.0014 33.6612C44.5125 33.6612 39.501 36.7888 36.2652 39.412C33.8074 41.4041 31.966 43.4216 31.044 44.5038C31.9584 45.5759 33.7771 47.568 36.2197 49.5551L36.2172 49.5525Z" fill="#FFBF00"/>
<path d="M44.828 40.8645C45.5024 41.1509 45.8182 41.9315 45.5328 42.6082C45.2802 43.2064 45.1513 43.8451 45.1513 44.5015C45.1513 45.1579 45.2802 45.7966 45.5328 46.3948C45.7778 46.9752 46.1264 47.4947 46.5735 47.9408C47.018 48.3869 47.5384 48.7392 48.1143 48.985C48.7104 49.2385 49.347 49.3677 50.0012 49.3677C50.6554 49.3677 51.292 49.2385 51.8881 48.985C52.4666 48.7392 52.9844 48.3894 53.429 47.9408C53.8735 47.4947 54.2246 46.9726 54.4697 46.3948C54.7223 45.7966 54.8511 45.1579 54.8511 44.5015C54.8511 43.8451 54.7223 43.2064 54.4697 42.6082C54.2246 42.0278 53.8761 41.5082 53.429 41.0622C52.9819 40.6161 52.464 40.2638 51.8881 40.018C51.292 39.7645 50.6554 39.6353 50.0012 39.6353C49.347 39.6353 48.7104 39.7645 48.1143 40.018C47.9451 40.0889 47.7708 40.1244 47.599 40.1244C47.0837 40.1244 46.5911 39.8203 46.379 39.3134C46.0935 38.6367 46.4093 37.856 47.0837 37.5696C48.0082 37.1768 48.9908 36.9766 50.0037 36.9766C51.0167 36.9766 51.9993 37.1768 52.9238 37.5696C53.818 37.9498 54.6187 38.4922 55.3083 39.1816C55.9979 39.871 56.5384 40.6769 56.9148 41.5741C57.3063 42.5018 57.5059 43.4877 57.5059 44.504C57.5059 45.5204 57.3063 46.5063 56.9148 47.4339C56.5359 48.3311 55.9954 49.1345 55.3083 49.8265C54.6212 50.5184 53.818 51.0608 52.9238 51.4384C51.9993 51.8313 51.0167 52.0315 50.0037 52.0315C48.9908 52.0315 48.0107 51.8313 47.0837 51.4384C46.1895 51.0582 45.3888 50.5158 44.6992 49.8265C44.0096 49.1371 43.4716 48.3311 43.0927 47.4339C42.7011 46.5063 42.5016 45.5204 42.5016 44.504C42.5016 43.4877 42.7011 42.5043 43.0927 41.5741C43.3781 40.8974 44.1561 40.5806 44.8305 40.867L44.828 40.8645Z" fill="#FFBF00"/>
<path d="M43.7536 45.5667C44.4343 45.2954 45.2132 45.6256 45.493 46.3046C45.7401 46.905 46.1035 47.4472 46.5707 47.9113C47.0379 48.3755 47.5836 48.7366 48.1879 48.9821C48.7743 49.2204 49.3906 49.3429 50.0242 49.3442C50.656 49.3473 51.2747 49.2309 51.8569 49.0001C52.4588 48.7606 53.001 48.4048 53.4636 47.9452C53.9262 47.4856 54.2843 46.947 54.5254 46.349C54.7595 45.7688 54.8767 45.1577 54.8718 44.5281C54.8686 43.9004 54.7453 43.2846 54.5073 42.7038C54.2602 42.1034 53.8967 41.5613 53.4295 41.0971C52.9623 40.6329 52.4166 40.2718 51.8123 40.0263C51.226 39.788 50.6097 39.6655 49.9761 39.6642C49.3424 39.6629 48.7255 39.7776 48.1433 40.0083C47.5414 40.2479 46.9993 40.6037 46.5367 41.0633C46.0741 41.5229 45.716 42.0615 45.4748 42.6595C45.4057 42.8285 45.3077 42.9761 45.1862 43.0967C44.8218 43.4587 44.2571 43.5897 43.7463 43.3804C43.0628 43.1024 42.7305 42.3286 43.0035 41.6523C43.3777 40.725 43.93 39.8931 44.6462 39.1815C45.3624 38.4699 46.1998 37.9212 47.1331 37.5495C48.036 37.1902 48.9882 37.0112 49.9665 37.0142C50.9447 37.0172 51.9006 37.2073 52.8053 37.5774C53.7424 37.9582 54.5852 38.5152 55.3085 39.2339C56.0319 39.9525 56.5925 40.7899 56.9759 41.7208C57.3465 42.6214 57.5361 43.5693 57.5427 44.5412C57.5494 45.5132 57.3674 46.461 57.0039 47.3562C56.6298 48.2835 56.0775 49.1154 55.3612 49.827C54.645 50.5385 53.8095 51.0855 52.8743 51.459C51.9715 51.8183 51.0192 51.9973 50.041 51.9943C49.0627 51.9913 48.1086 51.7994 47.2021 51.4311C46.2651 51.0502 45.4222 50.4933 44.6989 49.7746C43.9755 49.056 43.4167 48.2204 43.0316 47.2876C42.7518 46.6086 43.0764 45.838 43.7571 45.5667L43.7536 45.5667Z" fill="#FFBF00"/>
</g>
</g>
<defs>
<clipPath id="clip0_6805_68310">
<rect width="100" height="100" fill="white"/>
</clipPath>
<clipPath id="clip1_6805_68310">
<rect width="44" height="27" fill="white" transform="matrix(-1 0 0 1 72 31)"/>
</clipPath>
</defs>
</svg>
