<svg width="30" height="30" viewBox="0 0 30 30" fill="none" xmlns="http://www.w3.org/2000/svg">
<rect width="30" height="30" rx="15" fill="#FF6D00"/>
<path fill-rule="evenodd" clip-rule="evenodd" d="M14.9121 19.5C12.8412 19.5 11.1621 17.677 11.1621 15.4286V9.32143C11.1621 7.07298 12.8412 5.25 14.9121 5.25C16.983 5.25 18.6621 7.07298 18.6621 9.32143V15.4286C18.6621 17.677 16.983 19.5 14.9121 19.5Z" stroke="white" stroke-width="1.5" stroke-linecap="round" stroke-linejoin="round"/>
<path d="M21.6602 14.25V15.0937C21.6602 18.7697 18.6381 21.75 14.9102 21.75C11.1822 21.75 8.16016 18.7697 8.16016 15.0937V14.25" stroke="white" stroke-width="1.5" stroke-linecap="round" stroke-linejoin="round"/>
<path d="M14.1504 9.75H15.6504" stroke="white" stroke-width="1.5" stroke-linecap="round" stroke-linejoin="round"/>
<path d="M14.1504 12H15.6504" stroke="white" stroke-width="1.5" stroke-linecap="round" stroke-linejoin="round"/>
<path d="M14.1504 15H15.6504" stroke="white" stroke-width="1.5" stroke-linecap="round" stroke-linejoin="round"/>
<path d="M14.9121 21.75V24.75" stroke="white" stroke-width="1.5" stroke-linecap="round" stroke-linejoin="round"/>
<path d="M11.9102 24.75H17.9102" stroke="white" stroke-width="1.5" stroke-linecap="round" stroke-linejoin="round"/>
</svg>
