<svg width="40" height="40" viewBox="0 0 40 40" fill="none" xmlns="http://www.w3.org/2000/svg">
<path d="M37.0216 17.7582C36.9859 17.4844 36.735 17.2913 36.4612 17.3271C36.4587 17.3274 36.4562 17.3277 36.4537 17.3281C36.2729 16.2054 35.9798 15.1203 35.5866 14.0846C35.5889 14.0837 35.5912 14.0827 35.5936 14.0817C35.8486 13.976 35.9697 13.6834 35.8639 13.4283C35.285 12.0325 34.5275 10.7297 33.6198 9.54861C33.4516 9.32965 33.1377 9.28855 32.9187 9.45681C32.9167 9.45833 32.9148 9.45986 32.9128 9.46141C32.2029 8.59261 31.4071 7.79679 30.5383 7.0869C30.5399 7.08495 30.5414 7.08299 30.5429 7.08101C30.7112 6.86206 30.6701 6.54815 30.4511 6.37989C29.27 5.47225 27.9672 4.71467 26.5714 4.13582C26.3163 4.03004 26.0238 4.15108 25.918 4.40616C25.917 4.40849 25.9161 4.41082 25.9151 4.41315C24.8794 4.01987 23.7943 3.72687 22.6716 3.54599C22.672 3.54352 22.6723 3.54104 22.6727 3.53855C22.7084 3.26473 22.5154 3.0138 22.2415 2.97808C21.5077 2.88236 20.7595 2.83301 20 2.83301C19.2406 2.83301 18.4924 2.88236 17.7585 2.97808C17.4847 3.0138 17.2917 3.26473 17.3274 3.53855C17.3277 3.54104 17.3281 3.54352 17.3284 3.54599C16.2058 3.72687 15.1207 4.01987 14.0849 4.41315C14.084 4.41082 14.0831 4.40849 14.0821 4.40616C13.9763 4.15108 13.6838 4.03004 13.4287 4.13582C12.0328 4.71467 10.7301 5.47225 9.54898 6.37989C9.33002 6.54815 9.28892 6.86205 9.45718 7.08101C9.4587 7.08299 9.46023 7.08495 9.46177 7.0869C8.59298 7.79678 7.79715 8.59261 7.08727 9.4614C7.08532 9.45986 7.08336 9.45833 7.08138 9.45681C6.86242 9.28855 6.54852 9.32965 6.38026 9.54861C5.47262 10.7297 4.71503 12.0325 4.13619 13.4283C4.03041 13.6834 4.15144 13.976 4.40652 14.0817C4.40885 14.0827 4.41118 14.0837 4.41352 14.0846C4.02024 15.1203 3.72723 16.2054 3.54635 17.3281C3.54388 17.3277 3.5414 17.3274 3.53892 17.3271C3.2651 17.2913 3.01416 17.4844 2.97845 17.7582C2.88272 18.492 2.83337 19.2402 2.83337 19.9997C2.83337 20.7591 2.88272 21.5073 2.97845 22.2412C3.01416 22.515 3.2651 22.708 3.53892 22.6723C3.5414 22.672 3.54388 22.6716 3.54635 22.6713C3.72723 23.7939 4.02024 24.879 4.41352 25.9148C4.41118 25.9157 4.40885 25.9166 4.40652 25.9176C4.15144 26.0234 4.03041 26.3159 4.13619 26.571C4.71503 27.9669 5.47262 29.2696 6.38026 30.4507C6.54852 30.6697 6.86242 30.7108 7.08138 30.5425C7.08336 30.541 7.08532 30.5395 7.08727 30.5379C7.79715 31.4067 8.59297 32.2026 9.46177 32.9124C9.46023 32.9144 9.4587 32.9164 9.45718 32.9183C9.28892 33.1373 9.33002 33.4512 9.54897 33.6195C10.7301 34.5271 12.0328 35.2847 13.4287 35.8635C13.6838 35.9693 13.9763 35.8483 14.0821 35.5932C14.0831 35.5909 14.084 35.5885 14.0849 35.5862C15.1207 35.9795 16.2058 36.2725 17.3284 36.4534C17.3281 36.4558 17.3277 36.4583 17.3274 36.4608C17.2917 36.7346 17.4847 36.9855 17.7585 37.0213C18.4924 37.117 19.2406 37.1663 20 37.1663C20.7595 37.1663 21.5077 37.117 22.2415 37.0213C22.5154 36.9855 22.7084 36.7346 22.6727 36.4608C22.6723 36.4583 22.672 36.4558 22.6716 36.4534C23.7943 36.2725 24.8794 35.9795 25.9151 35.5862C25.9161 35.5885 25.917 35.5909 25.918 35.5932C26.0238 35.8483 26.3163 35.9693 26.5714 35.8635C27.9672 35.2847 29.27 34.5271 30.4511 33.6195C30.6701 33.4512 30.7112 33.1373 30.5429 32.9183C30.5414 32.9164 30.5399 32.9144 30.5383 32.9124C31.4071 32.2026 32.2029 31.4067 32.9128 30.5379C32.9148 30.5395 32.9167 30.541 32.9187 30.5425C33.1377 30.7108 33.4516 30.6697 33.6198 30.4507C34.5275 29.2696 35.285 27.9669 35.8639 26.571C35.9697 26.3159 35.8486 26.0234 35.5936 25.9176C35.5912 25.9166 35.5889 25.9157 35.5866 25.9148C35.9798 24.879 36.2729 23.7939 36.4537 22.6713C36.4562 22.6716 36.4587 22.672 36.4612 22.6723C36.735 22.708 36.9859 22.515 37.0216 22.2412C37.1174 21.5073 37.1667 20.7591 37.1667 19.9997C37.1667 19.2402 37.1174 18.492 37.0216 17.7582Z" fill="white" stroke="#171717" stroke-linecap="round" stroke-linejoin="round" stroke-dasharray="4 4"/>
<path d="M21.2308 13.2308C21.2308 12.55 20.6808 12 20 12C19.3192 12 18.7692 12.55 18.7692 13.2308V18.7692H13.2308C12.55 18.7692 12 19.3192 12 20C12 20.6808 12.55 21.2308 13.2308 21.2308H18.7692V26.7692C18.7692 27.45 19.3192 28 20 28C20.6808 28 21.2308 27.45 21.2308 26.7692V21.2308H26.7692C27.45 21.2308 28 20.6808 28 20C28 19.3192 27.45 18.7692 26.7692 18.7692H21.2308V13.2308Z" fill="#171717"/>
</svg>
