<svg width="30" height="30" viewBox="0 0 30 30" fill="none" xmlns="http://www.w3.org/2000/svg">
<g clip-path="url(#clip0_7601_431155)">
<path d="M5 23.75V6.25C5 4.86929 6.11929 3.75 7.5 3.75H23.75C24.4404 3.75 25 4.30964 25 5V20C25 20.6904 24.4404 21.25 23.75 21.25H7.5C6.11929 21.25 5 22.3693 5 23.75ZM5 23.75C5 25.1307 6.11929 26.25 7.5 26.25H25" stroke="#171717" stroke-width="1.5" stroke-linecap="round" stroke-linejoin="round"/>
<path d="M22.5 26.25V21.25" stroke="#171717" stroke-width="1.5" stroke-linecap="round" stroke-linejoin="round"/>
<path fill-rule="evenodd" clip-rule="evenodd" d="M13.743 8.33631C13.9458 7.92527 14.3644 7.66504 14.8227 7.66504C15.281 7.66504 15.6996 7.92527 15.9024 8.33631L16.515 9.57816C16.6904 9.93361 17.0294 10.18 17.4217 10.237L18.792 10.4361C19.2454 10.5021 19.6221 10.8197 19.7637 11.2554C19.9054 11.6911 19.7874 12.1695 19.4595 12.4895L18.4675 13.457C18.1839 13.7336 18.0545 14.132 18.1215 14.5225L18.3556 15.8869C18.433 16.3386 18.2474 16.7951 17.8766 17.0645C17.5059 17.3339 17.0144 17.3695 16.6087 17.1563L15.3828 16.5119C15.0321 16.3276 14.6132 16.3276 14.2626 16.5119L13.0366 17.1563C12.631 17.3694 12.1395 17.3338 11.7688 17.0644C11.3982 16.795 11.2125 16.3386 11.2899 15.8869L11.524 14.5225C11.591 14.132 11.4616 13.7336 11.178 13.457L10.186 12.4895C9.85807 12.1695 9.74012 11.6911 9.88177 11.2554C10.0234 10.8197 10.4001 10.5021 10.8535 10.4361L12.2239 10.237C12.6161 10.18 12.9551 9.93361 13.1305 9.57816L13.743 8.33631Z" stroke="#171717" stroke-width="1.5" stroke-linecap="round" stroke-linejoin="round"/>
</g>
<defs>
<clipPath id="clip0_7601_431155">
<rect width="30" height="30" fill="white"/>
</clipPath>
</defs>
</svg>
