<svg width="100" height="100" viewBox="0 0 100 100" fill="none" xmlns="http://www.w3.org/2000/svg">
<path d="M46.685 18H18C13.5817 18 10 21.5816 10 25.9997V78.0003C10 82.4184 13.5817 86 18 86H82C86.4183 86 90 82.4184 90 78.0003V25.9997C90 21.5816 86.4183 18 82 18H78" stroke="#171717" stroke-width="3" stroke-linecap="round" stroke-linejoin="round"/>
<path fill-rule="evenodd" clip-rule="evenodd" d="M46 22C46 15.3726 51.3726 10 58 10H72.0024C73.5931 10 75.1186 10.6319 76.2434 11.7566C77.3681 12.8814 78 14.4069 78 15.9976V68.0008C78 71.3145 75.3137 74.0008 72 74.0008H57.9992C51.3722 74.0008 46 79.373 46 86V22Z" stroke="#171717" stroke-width="3" stroke-linecap="round" stroke-linejoin="round"/>
</svg>
