<svg width="24" height="24" viewBox="0 0 24 24" fill="none" xmlns="http://www.w3.org/2000/svg">
<path d="M18.4273 3C18.6444 3.0041 18.8602 3.03431 19.0701 3.08997C18.0416 3.35988 17.2701 4.23388 17.1673 5.31353L17.1454 5.4999L17.1429 5.51918V19.0662C17.1246 19.5653 16.9135 20.038 16.5538 20.3846C16.1941 20.7313 15.7139 20.925 15.2143 20.925C14.7147 20.925 14.2345 20.7313 13.8748 20.3846C13.5151 20.038 13.304 19.5653 13.2857 19.0662V17.1383C13.2857 16.7974 13.1503 16.4705 12.9091 16.2294C12.668 15.9884 12.341 15.853 12 15.853H5.57143V6.21324C5.57143 5.36104 5.91008 4.54374 6.51287 3.94114C7.11567 3.33854 7.93324 3 8.78572 3H18.4273ZM11.6383 17.5V19.4279C11.6383 20.1541 11.8903 20.8174 12.2979 21.3559H11.9957L8.00231 21.3585L8.48831 21.3597C6.78345 21.3623 5.82688 21.3636 5.27402 21.3559H5.20973C4.52775 21.3559 3.8737 21.0851 3.39146 20.603C2.90922 20.1209 2.63831 19.4671 2.63831 18.7853V18.1426C2.63831 17.9722 2.70604 17.8087 2.82659 17.6882C2.94715 17.5677 3.11067 17.5 3.28116 17.5H11.6383ZM20 4.5C19.7686 4.5 19.55 4.56426 19.3571 4.67994C18.9714 4.89844 18.7143 5.30974 18.7143 5.7853V8.35589H20C20.7071 8.35589 21.2857 7.77751 21.2857 7.07059V5.7853C21.2857 5.07838 20.7071 4.5 20 4.5Z" fill="#171717"/>
</svg>
