<svg width="40" height="40" viewBox="0 0 40 40" fill="none" xmlns="http://www.w3.org/2000/svg">
<path d="M36.6667 19.9997C36.6667 29.2044 29.2048 36.6663 20 36.6663C10.7953 36.6663 3.33337 29.2044 3.33337 19.9997C3.33337 10.7949 10.7953 3.33301 20 3.33301C29.2048 3.33301 36.6667 10.7949 36.6667 19.9997Z" fill="#FFC81C"/>
<path d="M27.5001 16.6667C27.5001 17.5871 26.7539 18.3333 25.8334 18.3333C24.9129 18.3333 24.1667 17.5871 24.1667 16.6667C24.1667 15.7462 24.9129 15 25.8334 15C26.7539 15 27.5001 15.7462 27.5001 16.6667Z" fill="#171717"/>
<circle cx="14.1667" cy="16.6667" r="1.66667" fill="#171717"/>
<path fill-rule="evenodd" clip-rule="evenodd" d="M19.28 26.2597C17.95 26.0092 16.8399 25.1428 16.2712 24.4348C16.0242 24.1272 15.5746 24.0781 15.267 24.3251C14.9595 24.5722 14.9104 25.0218 15.1574 25.3293C15.8874 26.2383 17.2773 27.3362 19.0155 27.6636C20.814 28.0024 22.8763 27.4943 24.8142 25.3625C25.0796 25.0706 25.0581 24.6189 24.7662 24.3535C24.4743 24.0882 24.0225 24.1097 23.7572 24.4016C22.1237 26.1984 20.5497 26.4989 19.28 26.2597Z" fill="#171717"/>
</svg>
