<svg width="30" height="30" viewBox="0 0 30 30" fill="none" xmlns="http://www.w3.org/2000/svg">
<path fill-rule="evenodd" clip-rule="evenodd" d="M14.994 25C14.1649 25 13.4921 25.672 13.5001 26.5C13.4961 27.328 14.1689 28 14.998 28C15.8271 28 16.5 27.328 16.5 26.5C16.5 25.672 15.8271 25 14.994 25Z" fill="#171717"/>
<path d="M7.5 25L23.75 3.75" stroke="#171717" stroke-width="2" stroke-linecap="round" stroke-linejoin="round"/>
<path d="M17.645 11.7334C13.4763 10.9484 8.97377 12.0334 5.73877 14.9996" stroke="#171717" stroke-width="2" stroke-linecap="round" stroke-linejoin="round"/>
<path d="M21.8924 6.17969C15.2549 3.81594 7.37243 5.00719 1.99243 9.75469" stroke="#171717" stroke-width="2" stroke-linecap="round" stroke-linejoin="round"/>
<path d="M21.5837 13.1211C22.54 13.6273 23.4425 14.2486 24.26 14.9998" stroke="#171717" stroke-width="2" stroke-linecap="round" stroke-linejoin="round"/>
<path d="M25.5262 7.96484C26.3925 8.49609 27.2337 9.07359 28.0075 9.75484" stroke="#171717" stroke-width="2" stroke-linecap="round" stroke-linejoin="round"/>
<path d="M17.8275 18.0342C18.81 18.4104 19.7325 18.9892 20.525 19.7767" stroke="#171717" stroke-width="2" stroke-linecap="round" stroke-linejoin="round"/>
</svg>
