<svg width="50" height="50" viewBox="0 0 50 50" fill="none" xmlns="http://www.w3.org/2000/svg">
<g clip-path="url(#clip0_9364_833936)">
<path d="M4 50H46C48.2091 50 50 48.2091 50 46V17L33 0H4C1.79086 0 0 1.79086 0 4V46C0 48.2091 1.79086 50 4 50Z" fill="#F45549"/>
<path d="M49.3681 16.9973H33.9706C33.0907 16.9973 32.3708 16.2774 32.3708 15.3975V0" fill="#D12128"/>
<path d="M20.7887 40.9852H16.9253V22.6201H25.6919C28.1875 22.6201 30.0432 23.164 31.251 24.2439C32.4588 25.3237 33.0667 26.6035 33.0667 28.0752C33.0667 29.755 32.4108 31.1148 31.107 32.1546C29.8032 33.1944 28.1395 33.7143 26.1318 33.7143H20.7807V40.9932L20.7887 40.9852ZM20.7887 30.8668H25.3559C26.5478 30.8668 27.4596 30.6188 28.0835 30.1149C28.7074 29.611 29.0274 28.9471 29.0274 28.1072C29.0274 27.3554 28.7394 26.7075 28.1555 26.1715C27.5716 25.6356 26.5238 25.3637 25.012 25.3637H20.7887V30.8668Z" fill="white"/>
</g>
<defs>
<clipPath id="clip0_9364_833936">
<rect width="50" height="50" fill="white"/>
</clipPath>
</defs>
</svg>
