<svg width="40" height="40" viewBox="0 0 40 40" fill="none" xmlns="http://www.w3.org/2000/svg">
<rect width="40" height="40" rx="20" fill="#171717"/>
<path d="M28.0001 14.4617C28.6809 13.7809 28.6809 12.6809 28.0001 12.0001C27.3193 11.3193 26.2193 11.3193 25.5385 12.0001L20 17.5387L14.4615 12.0001C13.7807 11.3193 12.6807 11.3193 11.9999 12.0001C11.3191 12.6809 11.3191 13.7809 11.9999 14.4617L17.5384 20.0002L11.9999 25.5388C11.3191 26.2196 11.3191 27.3196 11.9999 28.0003C12.6807 28.6811 13.7807 28.6811 14.4615 28.0003L20 22.4618L25.5385 28.0003C26.2193 28.6811 27.3193 28.6811 28.0001 28.0003C28.6809 27.3196 28.6809 26.2196 28.0001 25.5388L22.4616 20.0002L28.0001 14.4617Z" fill="white"/>
</svg>
