<svg width="42" height="43" viewBox="0 0 42 43" fill="none" xmlns="http://www.w3.org/2000/svg">
<path d="M12.5457 30.78C12.5458 30.2309 12.9886 29.7845 13.5377 29.7801L23.2653 29.7024C23.3442 29.7018 23.4197 29.6703 23.4758 29.6147L14.2496 38.7681C13.6185 39.3942 12.5453 38.9471 12.5453 38.0581L12.5455 35.1235L12.5457 30.78Z" fill="#46A7E5"/>
<rect width="42" height="34" rx="17" fill="#46A7E5"/>
<path d="M20.6774 25.252C19.9694 25.252 19.3394 25.168 18.7874 25C18.2354 24.832 17.7434 24.61 17.3114 24.334C16.8794 24.058 16.4954 23.758 16.1594 23.434L17.3834 21.742C17.6354 21.994 17.9054 22.222 18.1934 22.426C18.4934 22.63 18.8174 22.792 19.1654 22.912C19.5254 23.032 19.9094 23.092 20.3174 23.092C20.7734 23.092 21.1754 22.996 21.5234 22.804C21.8834 22.612 22.1654 22.336 22.3694 21.976C22.5734 21.604 22.6754 21.16 22.6754 20.644C22.6754 19.876 22.4654 19.282 22.0454 18.862C21.6374 18.442 21.0974 18.232 20.4254 18.232C20.0414 18.232 19.7114 18.286 19.4354 18.394C19.1594 18.49 18.8234 18.664 18.4274 18.916L17.2214 18.142L17.5814 11.662H24.7094V13.894H19.8674L19.6154 16.72C19.8794 16.6 20.1374 16.51 20.3894 16.45C20.6414 16.39 20.9174 16.36 21.2174 16.36C21.9614 16.36 22.6454 16.51 23.2694 16.81C23.8934 17.098 24.3914 17.554 24.7634 18.178C25.1354 18.802 25.3214 19.6 25.3214 20.572C25.3214 21.556 25.0994 22.402 24.6554 23.11C24.2234 23.806 23.6534 24.34 22.9454 24.712C22.2494 25.072 21.4934 25.252 20.6774 25.252Z" fill="#46A7E5"/>
</svg>
