<svg width="30" height="30" viewBox="0 0 30 30" fill="none" xmlns="http://www.w3.org/2000/svg">
<path d="M15 4.5C20.8123 4.5 25.5 9.18767 25.5 15C25.5 20.8123 20.8123 25.5 15 25.5" stroke="#171717" stroke-width="1.5" stroke-linecap="round" stroke-linejoin="round"/>
<path d="M15 25.5C9.18767 25.5 4.5 20.8123 4.5 15C4.5 9.18767 9.18767 4.5 15 4.5" stroke="#171717" stroke-width="1.5" stroke-linecap="round" stroke-linejoin="round"/>
<path fill-rule="evenodd" clip-rule="evenodd" d="M12.8637 5.73638C9.49204 11.3655 9.49204 18.635 12.8637 24.2642C13.8507 25.9127 16.1525 25.9127 17.1395 24.2642C20.5112 18.635 20.5112 11.3655 17.1395 5.73638C16.1514 4.08787 13.8507 4.08787 12.8637 5.73638Z" stroke="#171717" stroke-width="1.5" stroke-linecap="round" stroke-linejoin="round"/>
<path d="M5.67676 10.168C11.3841 11.9308 18.6128 11.9308 24.3189 10.168" stroke="#171717" stroke-width="1.5" stroke-linecap="round" stroke-linejoin="round"/>
<path d="M24.3228 19.8338C18.6155 18.071 11.3868 18.071 5.68066 19.8338" stroke="#171717" stroke-width="1.5" stroke-linecap="round" stroke-linejoin="round"/>
</svg>
