<svg width="40" height="40" viewBox="0 0 40 40" fill="none" xmlns="http://www.w3.org/2000/svg">
<path d="M10.6665 14.6667V6.13333C10.6665 4.95573 11.5625 4 12.6665 4H28.6665C29.7705 4 30.6665 4.95573 30.6665 6.13333V14.6667" stroke="#171717" stroke-width="2" stroke-linecap="round" stroke-linejoin="round"/>
<path d="M10.6665 28.1038H8.74054C6.85794 28.1038 5.33313 26.7779 5.33313 25.1409V17.7335C5.33313 16.0964 6.85794 14.7705 8.74054 14.7705H32.5924C34.475 14.7705 35.9998 16.0964 35.9998 17.7335V25.1409C35.9998 26.7779 34.475 28.1038 32.5924 28.1038H30.6665" stroke="#171717" stroke-width="2" stroke-linecap="round" stroke-linejoin="round"/>
<path fill-rule="evenodd" clip-rule="evenodd" d="M10.6665 24H30.6665V34.3333C30.6665 35.2533 29.7705 36 28.6665 36H12.6665C11.5625 36 10.6665 35.2533 10.6665 34.3333V24Z" stroke="#171717" stroke-width="2" stroke-linecap="round" stroke-linejoin="round"/>
<path d="M11.9998 18.667H17.3332" stroke="#171717" stroke-width="2" stroke-linecap="round" stroke-linejoin="round"/>
</svg>
