<svg width="30" height="30" viewBox="0 0 30 30" fill="none" xmlns="http://www.w3.org/2000/svg">
<path d="M3.9502 9.51172H26.0484" stroke="#171717" stroke-width="1.5" stroke-linecap="round" stroke-linejoin="round"/>
<path d="M22.3652 2.14453L22.3652 5.82757" stroke="#171717" stroke-width="1.5" stroke-linecap="round" stroke-linejoin="round"/>
<path d="M7.63379 2.14453L7.63379 5.82757" stroke="#171717" stroke-width="1.5" stroke-linecap="round" stroke-linejoin="round"/>
<path d="M6.67773 20.6484V19.4473L9.25586 17.1816C9.85156 16.6348 10.1934 16.2734 10.2031 15.7363C10.1934 15.1504 9.76367 14.7793 9.16797 14.7793C8.5625 14.7793 8.16211 15.1602 8.16211 15.8047H6.58008C6.58008 14.3789 7.625 13.4805 9.17773 13.4805C10.7695 13.4805 11.8145 14.3398 11.8145 15.6094C11.8145 16.4199 11.4141 17.0938 9.88086 18.4316L8.99219 19.252V19.3008H11.9023V20.6484H6.67773Z" fill="#171717"/>
<path d="M15 10.2461L15 25.7148" stroke="#171717" stroke-width="1.5" stroke-linecap="round" stroke-linejoin="round"/>
<path d="M15 19.8242L15 20.5608" stroke="#171717" stroke-width="1.5" stroke-linecap="round" stroke-linejoin="round"/>
<path d="M20.2832 20.7461C18.4473 20.7461 17.3242 19.4277 17.3242 17.1133C17.3242 14.7988 18.4473 13.4805 20.2832 13.4805C22.1191 13.4805 23.2422 14.7988 23.2422 17.1133C23.2422 19.4375 22.1191 20.7461 20.2832 20.7461ZM20.2832 19.3887C21.0352 19.3887 21.5332 18.6758 21.5332 17.1133C21.5332 15.5703 21.0352 14.8281 20.2832 14.8281C19.5312 14.8281 19.043 15.5703 19.0332 17.1133C19.0234 18.6758 19.5312 19.3887 20.2832 19.3887Z" fill="#171717"/>
<path d="M3.21387 6.61719C3.21387 4.96033 4.55701 3.61719 6.21387 3.61719H23.7853C25.4421 3.61719 26.7853 4.96033 26.7853 6.61719V22.7154C26.7853 24.3723 25.4422 25.7154 23.7853 25.7154H6.21387C4.55702 25.7154 3.21387 24.3723 3.21387 22.7154V6.61719Z" stroke="#171717" stroke-width="1.5"/>
</svg>
