<svg width="187" height="408" viewBox="0 0 187 408" fill="none" xmlns="http://www.w3.org/2000/svg">
<g clip-path="url(#clip0_2855_605775)">
<path d="M137.046 98.947L136.621 97.4795H53.73L53.3047 98.947H137.046Z" fill="#0D2246"/>
<path d="M137.943 18.3787C133.926 18.3787 130.051 19.2308 126.554 20.6982C120.646 9.71598 109.163 2.18935 95.8358 2C95.7413 2 95.6468 2 95.5522 2C95.505 2 95.4105 2 95.3632 2C82.0837 2.18935 70.5528 9.71598 64.6455 20.6982C61.1484 19.1834 57.3205 18.3787 53.3036 18.3787C37.4249 18.3787 24.5234 31.3018 24.5234 47.2071C24.5234 63.1124 37.4249 76.0355 53.3036 76.0355C54.5795 76.0355 55.8082 75.9408 57.0842 75.7988C59.6834 85.2663 59.9197 95.3491 59.9197 95.3491H95.505H95.7413H131.374C131.374 95.3491 131.563 85.2663 134.209 75.7988C135.438 75.9408 136.714 76.0355 137.99 76.0355C153.869 76.0355 166.77 63.1124 166.77 47.2071C166.77 31.3018 153.821 18.3787 137.943 18.3787Z" fill="url(#paint0_linear_2855_605775)"/>
<path d="M159.116 27.7041C159.494 29.3609 159.778 31.065 159.919 32.7692C160.959 44.8402 152.736 57.1006 141.111 60.6509C134.825 62.5443 125.846 62.6864 120.553 58.4733C120.412 58.6153 120.317 58.7574 120.175 58.852C111.858 67.5148 99.7599 70.8757 88.0399 69.3136C80.5731 68.3195 72.681 65.2426 68.3806 59.4201C67.908 59.7041 67.4827 59.9881 67.0101 60.2248C57.9365 65.1479 46.7836 66.6627 37.0958 62.8284C32.5117 61.0295 28.3058 57.8106 25.2812 53.7396C28.2112 66.5207 39.6477 76.0828 53.3053 76.0828C54.5812 76.0828 55.8099 75.9881 57.0859 75.8461C59.6851 85.3136 59.9214 95.3964 59.9214 95.3964H131.376C131.376 95.3964 131.565 85.3136 134.211 75.8461C135.44 75.9881 136.716 76.0828 137.992 76.0828C153.87 76.0828 166.772 63.1597 166.772 47.2544C166.725 39.6804 163.842 32.8165 159.116 27.7041Z" fill="url(#paint1_linear_2855_605775)"/>
<path d="M71.9688 21.8816C71.9688 22.497 71.9687 23.1597 72.2996 23.7277C73.0557 25.0532 74.946 25.0532 76.4583 24.7692C84.1141 23.4437 91.3445 19.7514 96.8737 14.3076C97.5826 13.6449 98.2442 12.8875 98.6223 11.9881C99.0003 11.0887 99.0003 9.95259 98.386 9.1952C98.0079 8.72182 97.4881 8.4378 96.9682 8.20111C86.7605 3.46739 72.205 9.62123 71.9688 21.8816Z" fill="white"/>
<path d="M144.514 24.2481C143.522 19.751 134.496 23.2066 132.794 25.0528C132.464 25.4315 132.133 25.9049 132.133 26.3782C132.18 27.3723 133.409 27.7984 134.354 27.893C136.386 28.0824 138.465 28.035 140.497 27.7037C142.057 27.467 143.853 26.8516 144.42 25.3842C144.562 25.0528 144.609 24.6268 144.514 24.2481Z" fill="white"/>
<path d="M28.543 45.4085C28.4013 46.3552 28.354 47.444 28.9684 48.2487C29.5355 49.0061 30.5751 49.2428 31.473 49.1008C32.4182 48.9588 33.2216 48.5328 34.0722 48.0594C40.074 44.6984 46.0285 40.3434 48.7222 34.0002C51.8412 26.6156 43.4293 22.4026 37.9474 26.8996C32.7963 31.1126 29.3464 38.9706 28.543 45.4085Z" fill="white"/>
<path d="M165.069 37.5977C164.785 45.0769 162.233 52.5562 157.744 58.284C149.474 68.8403 131.894 72.3906 119.701 66.6627C118.473 68.1775 117.102 69.5503 115.59 70.8284C110.439 75.0888 104.295 78.071 97.679 79.1598C92.9532 79.9172 88.7 79.5858 83.9742 78.7811C79.3429 77.9764 72.207 76.1775 67.9065 72.4852C65.4018 73.9527 62.6136 75.1361 59.5891 75.9882C58.833 76.1775 58.0768 76.3669 57.2734 76.5562C59.6836 85.787 59.8726 95.3491 59.8726 95.3491H131.374C131.374 95.3491 131.563 85.2663 134.21 75.7988C135.438 75.9408 136.714 76.0355 137.99 76.0355C153.869 76.0355 166.77 63.1124 166.77 47.2071C166.723 43.8462 166.109 40.5799 165.069 37.5977Z" fill="url(#paint2_linear_2855_605775)"/>
<path d="M66.8658 78.3073C63.2742 80.5795 58.3594 81.6683 58.3594 81.6683C59.7299 89.0056 59.8244 95.3488 59.8244 95.3488H131.373C131.373 95.3488 131.468 89.905 132.554 83.2778C122.819 81.6683 118.802 76.9346 118.802 76.9346C118.802 76.9346 108.406 84.1772 91.9126 84.1772C75.3723 84.1772 66.8658 78.3073 66.8658 78.3073Z" fill="#263959"/>
<path d="M119.134 77.3135C114.881 92.8401 100.656 95.349 100.656 95.349H131.374C131.374 95.349 131.468 89.9052 132.555 83.278C124.474 81.9525 120.316 78.4496 119.134 77.3135Z" fill="#0D2246"/>
<path d="M62.9453 95.3487C62.9453 95.3487 67.3403 92.9819 68.0019 88.4375C68.0019 88.4375 71.0264 93.976 86.4798 95.3487H62.9453Z" fill="#0D2246"/>
<path d="M169.137 401.94C169.137 405.301 135.773 407.999 94.6583 407.999C53.4966 407.999 20.1797 405.301 20.1797 401.94C20.1797 398.579 53.5439 395.881 94.6583 395.881C135.773 395.881 169.137 398.579 169.137 401.94Z" fill="#2BA5C4"/>
<path d="M179.582 133.112H162.664V167.1H179.582C183.694 167.1 187.002 159.479 187.002 150.106C187.002 140.686 183.694 133.112 179.582 133.112Z" fill="#263959"/>
<path d="M185.301 156.734C179.347 153.325 177.929 147.645 177.645 143.006C177.456 140.071 177.74 136.994 178.874 134.059C178.968 133.728 179.016 133.444 179.11 133.112H162.617V167.1H179.583C182.56 167.1 185.159 163.077 186.341 157.254C186.01 157.112 185.632 156.923 185.301 156.734Z" fill="#061232"/>
<path d="M7.41951 133.112H24.3379V167.1H7.41951C3.30806 167.1 0 159.479 0 150.106C0 140.686 3.30806 133.112 7.41951 133.112Z" fill="#263959"/>
<path d="M1.70374 156.734C7.65825 153.325 9.07599 147.645 9.35954 143.006C9.54857 140.071 9.26502 136.994 8.08357 134.059C7.98906 133.728 7.9418 133.444 7.84728 133.112H24.3403V167.1H7.42196C4.4447 167.1 1.84551 163.077 0.664062 157.254C1.04213 157.112 1.37293 156.923 1.70374 156.734Z" fill="#061232"/>
<path d="M108.172 294.058L110.677 336.946L122.113 336.283L114.977 289.277L108.172 294.058Z" fill="#263959"/>
<path d="M111.007 299.266C110.157 299.502 109.306 299.881 108.55 300.354L108.172 294.058L114.977 289.277L116.489 299.313C114.693 298.839 112.661 298.839 111.007 299.266Z" fill="#0E2347"/>
<path d="M114.554 321.372C116.255 320.425 117.909 319.337 119.327 318.059L122.115 336.283L110.726 336.899L109.875 322.698C111.482 322.65 113.136 322.177 114.554 321.372Z" fill="#0E2347"/>
<path d="M143.806 236.923L157.086 256.378L150.942 257.515L141.68 238.059L143.806 236.923Z" fill="#263959"/>
<path d="M138.275 289.278C138.275 289.278 131.375 290.13 129.154 289.278C126.98 288.426 126.508 287.432 126.508 287.432C126.508 287.432 123.483 287.384 122.065 284.734C122.065 284.734 120.742 284.639 121.451 280.331C122.16 276.023 123.956 269.633 128.871 270.58C133.833 271.432 138.275 289.278 138.275 289.278Z" fill="#263959"/>
<path d="M120.273 231.431C120.273 231.431 130.009 223.005 133.458 223.147C136.908 223.289 146.596 229.49 147.069 235.029C147.541 240.567 130.576 244.496 130.576 244.496C130.576 244.496 124.338 237.727 120.273 231.431Z" fill="url(#paint3_linear_2855_605775)"/>
<path opacity="0.92" d="M130.198 236.639C135.207 239.432 141.067 239.527 146.218 237.349C142.91 241.657 130.529 244.497 130.529 244.497C130.529 244.497 124.338 237.728 120.227 231.432C120.227 231.432 121.266 230.533 122.778 229.302C124.622 232.331 127.126 234.888 130.198 236.639Z" fill="url(#paint4_linear_2855_605775)"/>
<path opacity="0.92" d="M125.803 227.029C127.221 229.633 129.3 231.905 132.136 233.562C136.153 235.881 141.162 236.213 145.557 234.982C146.03 234.84 146.502 234.698 146.928 234.509C146.975 234.698 146.975 234.84 146.975 234.982C147.448 240.52 130.482 244.449 130.482 244.449C130.482 244.449 124.291 237.68 120.18 231.384C120.274 231.432 122.826 229.159 125.803 227.029Z" fill="url(#paint5_linear_2855_605775)"/>
<path d="M123.293 316.496C123.293 316.496 108.879 329.325 107.131 333.111C105.382 336.898 103.586 395.123 104.154 400.283H149.994C149.994 400.283 147.584 393.987 143.756 392.993L123.293 316.496Z" fill="url(#paint6_linear_2855_605775)"/>
<path d="M158.549 256.709C158.549 256.709 158.266 255.194 156.281 255.194C156.281 255.194 149.57 255.336 148.294 256.709C147.018 258.082 145.506 265.135 130.903 267.691C130.903 267.691 126.178 270.342 129.958 280.141C133.739 289.94 140.922 290.887 143.521 289.94C146.12 289.041 163.842 270.579 158.549 256.709Z" fill="url(#paint7_linear_2855_605775)"/>
<path opacity="0.92" d="M138.182 277.254C147.492 280.047 155.857 273.325 159.354 264.805C157.747 276.828 145.602 289.183 143.522 289.941C140.923 290.888 133.787 289.941 129.959 280.142C128.4 276.071 128.258 273.231 128.683 271.29C131.283 274.083 134.638 276.166 138.182 277.254Z" fill="url(#paint8_linear_2855_605775)"/>
<path opacity="0.92" d="M139.692 285.68C144.087 285.965 148.151 284.402 151.459 281.799C148.009 286.391 144.559 289.562 143.52 289.941C141.251 290.746 135.438 290.13 131.469 283.314C133.926 284.639 136.667 285.491 139.692 285.68Z" fill="url(#paint9_linear_2855_605775)"/>
<path opacity="0.92" d="M116.918 378.508C119.611 383.052 122.73 387.834 126.795 391.289C132.277 395.928 140.074 398.626 146.596 394.792C148.77 397.017 149.998 400.283 149.998 400.283H104.158C103.78 396.78 104.489 369.325 105.481 350.579C107.75 360.425 111.672 369.751 116.918 378.508Z" fill="url(#paint10_linear_2855_605775)"/>
<path opacity="0.92" d="M104.486 381.491C107.652 388.686 113.418 396.071 120.412 400.284H104.155C103.966 398.532 104.061 390.722 104.297 381.018C104.392 381.207 104.439 381.349 104.486 381.491Z" fill="url(#paint11_linear_2855_605775)"/>
<path d="M122.115 321.467C122.115 321.467 129.676 345.467 133.646 363.928C133.646 363.928 112.758 334.863 122.115 321.467Z" fill="url(#paint12_linear_2855_605775)"/>
<path d="M148.576 270.485C147.206 271.857 145.41 272.804 143.472 273.183C142.811 273.278 142.102 273.325 141.535 273.041C140.92 272.757 140.495 272.094 140.637 271.431C140.731 271.005 141.109 270.674 141.44 270.39C142.905 269.112 150.561 258.65 152.357 261.538C152.546 261.822 152.593 262.201 152.593 262.532C152.924 266.082 150.844 268.165 148.576 270.485Z" fill="url(#paint13_linear_2855_605775)"/>
<path d="M112.235 360.946C110.156 356.686 107.604 354.177 105.383 352.71C105.43 351.857 105.477 351.053 105.525 350.248C107.935 351.81 110.77 354.319 113.417 358.437C119.891 368.378 123.483 400.331 123.483 400.331H121.025C119.844 385.278 116.158 368.946 112.235 360.946Z" fill="#263959"/>
<path d="M143.757 289.845C140.165 285.632 140.874 277.632 145.789 270.863C149.617 265.561 154.957 262.437 159.588 262.39C159.588 262.721 159.588 263.052 159.541 263.431C155.193 263.384 150.042 266.319 146.403 271.336C141.772 277.727 141.157 285.348 144.702 289.23C144.276 289.514 143.993 289.703 143.757 289.845Z" fill="#263959"/>
<path d="M129.295 224.71C130.287 227.077 132.225 230.58 134.871 231.432C137.659 232.284 141.724 230.722 144.181 229.633C144.512 230.012 144.843 230.39 145.173 230.769C142.621 231.953 138.037 233.657 134.54 232.71C131.185 231.811 128.822 228.166 127.641 225.799C128.208 225.373 128.775 225.041 129.295 224.71Z" fill="#263959"/>
<path d="M78.636 294.058L76.1314 336.946L64.7422 336.283L71.8782 289.277L78.636 294.058Z" fill="#263959"/>
<path d="M75.8022 299.266C76.6529 299.502 77.5035 299.881 78.2597 300.354L78.6377 294.058L71.8326 289.277L70.3203 299.313C72.1634 298.839 74.1482 298.839 75.8022 299.266Z" fill="#0E2347"/>
<path d="M72.3035 321.372C70.6022 320.425 68.9481 319.337 67.5304 318.059L64.7422 336.283L76.1314 336.899L76.982 322.698C75.328 322.65 73.7212 322.177 72.3035 321.372Z" fill="#0E2347"/>
<path d="M43.0061 236.923L29.7266 256.378L35.8701 257.515L45.1327 238.059L43.0061 236.923Z" fill="#263959"/>
<path d="M48.5312 289.278C48.5312 289.278 55.4309 290.13 57.6521 289.278C59.8259 288.426 60.2985 287.432 60.2985 287.432C60.2985 287.432 63.323 287.384 64.7408 284.734C64.7408 284.734 66.064 284.639 65.3551 280.331C64.6462 276.023 62.8504 269.633 57.9356 270.58C52.9735 271.432 48.5312 289.278 48.5312 289.278Z" fill="#263959"/>
<path d="M66.5862 231.431C66.5862 231.431 56.8511 223.005 53.4013 223.147C49.9514 223.289 40.2635 229.49 39.7909 235.029C39.3184 240.567 56.284 244.496 56.284 244.496C56.284 244.496 62.4748 237.727 66.5862 231.431Z" fill="url(#paint14_linear_2855_605775)"/>
<path opacity="0.92" d="M56.6142 236.639C51.6049 239.432 45.7449 239.527 40.5938 237.349C43.9018 241.657 56.2834 244.497 56.2834 244.497C56.2834 244.497 62.4742 237.728 66.5857 231.432C66.5857 231.432 65.546 230.533 64.0337 229.302C62.1907 232.331 59.686 234.888 56.6142 236.639Z" fill="url(#paint15_linear_2855_605775)"/>
<path opacity="0.92" d="M61.0094 227.029C59.5917 229.633 57.5123 231.905 54.6768 233.562C50.6599 235.881 45.6506 236.213 41.2556 234.982C40.783 234.84 40.3104 234.698 39.8851 234.509C39.8378 234.698 39.8378 234.84 39.8378 234.982C39.3652 240.52 56.3309 244.449 56.3309 244.449C56.3309 244.449 62.5217 237.68 66.6331 231.384C66.5859 231.432 63.9867 229.159 61.0094 227.029Z" fill="url(#paint16_linear_2855_605775)"/>
<path d="M127.123 232.047C119.373 225.846 96.0273 225.515 93.5699 225.515C93.5699 225.515 93.5226 225.515 93.4753 225.515C93.4281 225.515 93.3808 225.515 93.3808 225.515C90.8761 225.515 67.5779 225.846 59.8276 232.047C49.9507 239.953 53.117 264.805 67.6725 286.296C81.3773 306.556 92.3411 305.136 93.5226 304.899C94.704 305.136 105.668 306.556 119.373 286.296C133.834 264.852 137 239.953 127.123 232.047Z" fill="url(#paint17_linear_2855_605775)"/>
<path opacity="0.92" d="M120.083 233.799C120.083 237.538 107.844 240.568 92.7683 240.568C77.693 240.568 65.4531 237.538 65.4531 233.799C65.4531 230.059 77.693 227.029 92.7683 227.029C107.844 227.029 120.083 230.059 120.083 233.799Z" fill="url(#paint18_linear_2855_605775)"/>
<path opacity="0.92" d="M92.7672 237.349C103.52 237.349 112.237 235.441 112.237 233.088C112.237 230.736 103.52 228.828 92.7672 228.828C82.014 228.828 73.2969 230.736 73.2969 233.088C73.2969 235.441 82.014 237.349 92.7672 237.349Z" fill="url(#paint19_linear_2855_605775)"/>
<path d="M63.5133 316.496C63.5133 316.496 77.927 329.325 79.6755 333.111C81.4241 336.898 83.2199 395.123 82.6528 400.283H36.8125C36.8125 400.283 39.2227 393.987 43.0506 392.993L63.5133 316.496Z" fill="url(#paint20_linear_2855_605775)"/>
<path d="M28.2605 256.709C28.2605 256.709 28.544 255.194 30.5289 255.194C30.5289 255.194 37.2395 255.336 38.5155 256.709C39.7914 258.082 41.3037 265.135 55.9064 267.691C55.9064 267.691 60.6322 270.342 56.8516 280.141C53.0709 289.94 45.8877 290.887 43.2885 289.94C40.7366 289.041 22.9676 270.579 28.2605 256.709Z" fill="url(#paint21_linear_2855_605775)"/>
<path opacity="0.92" d="M48.6247 277.254C39.3149 280.047 30.9502 273.325 27.4531 264.805C29.0599 276.828 41.2052 289.183 43.2846 289.941C45.8838 290.888 53.0197 289.941 56.8476 280.142C58.4071 276.071 58.5489 273.231 58.1236 271.29C55.5244 274.083 52.2163 276.166 48.6247 277.254Z" fill="url(#paint22_linear_2855_605775)"/>
<path d="M100.332 233.041C100.332 233.041 98.867 234.461 92.8652 234.461C86.8634 234.461 85.3984 233.041 85.3984 233.041V209.23H100.285V233.041H100.332Z" fill="#263959"/>
<path d="M100.332 220.97V209.23H85.4453V219.834C90.3129 221.633 95.4168 221.917 100.332 220.97Z" fill="#0E2347"/>
<path d="M109.447 214.059C99.05 214.911 88.795 214.911 78.3982 214.059C70.7424 213.302 61.8107 206.911 60.6765 200.71C59.9203 195.976 59.9203 191.242 60.6765 186.509C61.8107 180.307 70.7424 173.917 78.3982 173.16C88.795 172.307 99.05 172.307 109.447 173.16C117.103 173.917 126.034 180.307 127.169 186.509C127.925 191.242 127.925 195.976 127.169 200.71C126.034 206.911 117.103 213.302 109.447 214.059Z" fill="url(#paint23_linear_2855_605775)"/>
<path opacity="0.92" d="M127.169 186.556C126.034 180.354 117.103 173.964 109.447 173.206C99.05 172.354 88.795 172.354 78.3982 173.206C70.7424 173.964 61.8107 180.354 60.6765 186.556C59.9203 191.289 59.9203 196.023 60.6765 200.757C61.1963 203.55 63.2757 206.343 66.0639 208.662C74.7121 206.343 84.0219 207.005 92.8592 207.763C100.326 208.425 107.651 209.988 114.503 212.828C120.6 210.508 126.223 205.585 127.121 200.757C127.925 195.976 127.925 191.289 127.169 186.556Z" fill="url(#paint24_linear_2855_605775)"/>
<path d="M169.324 125.159H154.438V175.053H169.324C172.963 175.053 175.893 163.881 175.893 150.106C175.893 136.331 172.915 125.159 169.324 125.159Z" fill="#263959"/>
<path d="M174.381 159.857C169.135 154.887 167.859 146.556 167.623 139.692C167.481 135.384 167.67 130.84 168.71 126.579C168.757 126.106 168.852 125.633 168.899 125.159H154.391V175.053H169.277C171.923 175.053 174.192 169.136 175.231 160.615C174.948 160.378 174.664 160.094 174.381 159.857Z" fill="#0E2347"/>
<path d="M17.6782 125.159H32.6118V175.053H17.6782C14.0866 175.053 11.1094 163.881 11.1094 150.106C11.1094 136.331 14.0866 125.159 17.6782 125.159Z" fill="#263959"/>
<path d="M12.6639 159.857C17.9096 154.887 19.1855 146.556 19.4218 139.692C19.5636 135.384 19.3745 130.84 18.3349 126.579C18.2876 126.106 18.1931 125.633 18.1458 125.159H32.6068V175.053H17.6733C15.0268 175.053 12.7584 169.136 11.7188 160.615C12.0496 160.378 12.3331 160.094 12.6639 159.857Z" fill="#0E2347"/>
<path d="M127.361 204.355C104.961 206.674 82.8914 206.674 60.4911 204.355C43.9981 202.319 24.7641 185.136 22.3066 168.52C20.6999 155.739 20.6999 143.1 22.3066 130.319C24.7641 113.704 43.9508 96.5203 60.4911 94.4848C82.8914 92.1652 104.961 92.1652 127.361 94.4848C143.854 96.5203 163.088 113.704 165.546 130.319C167.152 143.1 167.152 155.739 165.546 168.52C163.088 185.183 143.902 202.319 127.361 204.355Z" fill="url(#paint25_linear_2855_605775)"/>
<path opacity="0.92" d="M165.545 130.319C165.309 128.851 164.978 127.337 164.506 125.869C163.277 134.011 160.111 141.774 156.047 148.922C148.06 162.887 137.285 174.769 123.297 182.911C110.821 190.153 96.7378 194.224 82.3713 195.171C68.9973 196.07 55.387 193.798 43.2889 187.976C35.4441 184.189 28.5444 178.65 23.0625 171.928C27.4102 187.455 45.132 202.461 60.4908 204.354C82.8912 206.674 104.961 206.674 127.361 204.354C143.854 202.319 163.088 185.135 165.545 168.52C167.152 155.786 167.152 143.1 165.545 130.319Z" fill="url(#paint26_linear_2855_605775)"/>
<path d="M93.9972 114.887C93.6191 114.887 93.2411 114.887 92.863 114.887C78.024 114.887 63.2322 115.265 48.3932 116.07C40.0285 116.544 31.8529 124.733 32.6563 132.922C33.9323 145.609 37.004 158.532 41.21 171.597C43.3366 177.987 49.6692 182.91 56.049 183.194C68.3361 183.715 80.5759 183.999 92.863 183.999C93.2411 183.999 93.6191 183.999 93.9972 183.999C106.284 183.999 118.524 183.715 130.811 183.194C137.144 182.91 143.524 177.987 145.65 171.597C149.856 158.532 152.928 145.609 154.204 132.922C155.007 124.733 146.832 116.591 138.467 116.07C123.675 115.265 108.836 114.887 93.9972 114.887Z" fill="url(#paint27_linear_2855_605775)"/>
<path d="M93.9507 116.828C93.5727 116.828 93.2419 116.828 92.8638 116.828C78.8754 116.828 64.887 117.207 50.8514 117.917C42.9593 118.39 35.2563 126.106 36.0124 133.822C37.1938 145.799 40.1238 158.012 44.0935 170.367C46.0784 176.426 52.0801 181.065 58.0819 181.349C69.6601 181.822 81.2856 182.106 92.8638 182.106C93.2419 182.106 93.5727 182.106 93.9507 182.106C105.529 182.106 117.154 181.87 128.733 181.349C134.734 181.065 140.736 176.426 142.721 170.367C146.691 158.012 149.621 145.846 150.802 133.822C151.558 126.106 143.808 118.39 135.963 117.917C121.975 117.207 107.986 116.828 93.9507 116.828Z" fill="#1E1338"/>
<path d="M83.6941 149.444C83.6941 160.805 80.9531 169.988 77.5033 169.988C74.1007 169.988 71.3125 160.805 71.3125 149.444C71.3125 138.083 74.0535 128.899 77.5033 128.899C80.9531 128.899 83.6941 138.083 83.6941 149.444Z" fill="#69CDFF"/>
<path d="M115.264 149.444C115.264 160.805 112.523 169.988 109.074 169.988C105.671 169.988 102.883 160.805 102.883 149.444C102.883 138.083 105.624 128.899 109.074 128.899C112.476 128.899 115.264 138.083 115.264 149.444Z" fill="#69CDFF"/>
<g opacity="0.47">
<path d="M38.4698 149.349C40.6909 146.651 43.2901 144.189 45.9838 142.059C62.8077 128.852 84.4991 123.929 105.482 123.171C120.699 122.603 136.483 124.591 150.613 130.461C149.29 123.976 142.674 118.296 135.963 117.917C121.975 117.207 107.939 116.828 93.9507 116.828C93.5727 116.828 93.2419 116.828 92.8638 116.828C78.8754 116.828 64.887 117.207 50.8514 117.917C42.9593 118.39 35.2563 126.106 36.0124 133.822C36.5322 138.982 37.3829 144.142 38.4698 149.349Z" fill="#2A5D94"/>
</g>
<path opacity="0.92" d="M127.265 232.188C127.691 236.638 127.124 241.135 126.178 245.443C124.052 255.384 118.664 264.993 112.521 272.993C105.905 281.561 96.1696 287.952 84.875 286.863C73.5803 285.774 64.1759 278.863 58.7413 269.017C58.4577 268.496 58.1742 267.928 57.8906 267.407C60.159 273.656 63.3726 280.141 67.5785 286.342C81.2833 306.603 92.2472 305.183 93.4287 304.946C94.6101 305.183 105.574 306.603 119.279 286.342C133.74 264.946 136.953 240.236 127.265 232.188Z" fill="url(#paint28_linear_2855_605775)"/>
<g opacity="0.26">
<path d="M140.117 148.496C125.94 167.573 101.933 175.952 78.8709 176.615C67.8125 176.946 56.4233 175.431 46.4046 170.508C45.4595 170.035 44.5616 169.562 43.7109 169.041C43.8527 169.467 43.9945 169.94 44.1363 170.366C46.1211 176.425 52.1229 181.065 58.1246 181.349C69.7029 181.822 81.3283 182.106 92.9065 182.106C93.2846 182.106 93.6154 182.106 93.9935 182.106C105.572 182.106 117.197 181.869 128.775 181.349C134.777 181.065 140.779 176.425 142.764 170.366C146.733 158.011 149.663 145.846 150.845 133.822C151.034 131.786 150.656 129.751 149.852 127.857C147.773 135.242 144.701 142.295 140.117 148.496Z" fill="#251539"/>
</g>
<path opacity="0.92" d="M151.225 180.355C145.128 187.739 137.567 193.041 128.682 196.449C121.027 199.384 112.804 200.71 104.723 201.609C94.704 202.745 84.638 203.597 74.5248 203.408C65.0732 203.266 55.4325 202.319 46.4062 199.432C51.0375 202.035 55.9051 203.787 60.5364 204.402C82.9367 206.722 105.006 206.722 127.407 204.402C143.9 202.367 163.134 185.183 165.591 168.568C166.253 163.408 166.631 158.296 166.772 153.136C163.417 163.077 157.888 172.26 151.225 180.355Z" fill="url(#paint29_linear_2855_605775)"/>
<path opacity="0.92" d="M131.995 240.378C131.806 244.07 131.428 247.81 130.908 251.502C128.451 269.064 118.999 286.958 102.364 294.863C94.4721 298.603 85.0678 300.023 76.7031 297.325C85.9184 305.987 92.5346 305.088 93.4325 304.946C94.6139 305.183 105.578 306.603 119.283 286.342C130.341 269.964 134.83 251.692 131.995 240.378Z" fill="url(#paint30_linear_2855_605775)"/>
<path opacity="0.92" d="M47.1188 285.68C42.7238 285.965 38.6596 284.402 35.3516 281.799C38.8014 286.391 42.2512 289.562 43.2909 289.941C45.5593 290.746 51.372 290.13 55.3417 283.314C52.8843 284.639 50.1433 285.491 47.1188 285.68Z" fill="url(#paint31_linear_2855_605775)"/>
<path opacity="0.92" d="M69.8931 378.508C67.1994 383.052 64.0804 387.834 60.0162 391.289C54.5343 395.928 46.7367 398.626 40.2151 394.792C38.0412 397.017 36.8125 400.283 36.8125 400.283H82.6528C83.0308 396.78 82.322 369.325 81.3296 350.579C79.0612 360.425 75.1388 369.751 69.8931 378.508Z" fill="url(#paint32_linear_2855_605775)"/>
<path opacity="0.92" d="M82.3244 381.491C79.1581 388.686 73.3926 396.071 66.3984 400.284H82.6552C82.8442 398.532 82.7497 390.722 82.5134 381.018C82.4662 381.207 82.3716 381.349 82.3244 381.491Z" fill="url(#paint33_linear_2855_605775)"/>
<path d="M64.742 321.467C64.742 321.467 57.1807 345.467 53.211 363.928C53.1638 363.928 74.0518 334.863 64.742 321.467Z" fill="url(#paint34_linear_2855_605775)"/>
<path d="M59.9698 264.331C61.293 266.366 62.9943 267.171 65.2154 265.514C68.9488 262.721 70.3193 257.751 70.6501 253.112C70.8864 249.751 70.7446 246.248 69.0906 243.313C67.6728 240.709 63.6087 237.538 60.4424 238.91C52.6921 242.366 56.6617 259.218 59.9698 264.331Z" fill="url(#paint35_linear_2855_605775)"/>
<path d="M66.8698 275.645C67.7677 276.45 69.0909 276.923 70.1306 276.355C70.7922 275.976 71.1703 275.266 71.4066 274.556C71.9737 272.663 71.1703 269.16 69.3272 268.166C64.8377 265.657 64.3651 273.373 66.8698 275.645Z" fill="url(#paint36_linear_2855_605775)"/>
<path d="M38.231 270.485C39.6015 271.857 41.3973 272.804 43.3348 273.183C43.9964 273.278 44.7053 273.325 45.2724 273.041C45.8868 272.757 46.3121 272.094 46.1703 271.431C46.0758 271.005 45.6977 270.674 45.3669 270.39C43.9019 269.112 36.2461 258.65 34.4503 261.538C34.2613 261.822 34.214 262.201 34.214 262.532C33.9305 266.082 35.9626 268.165 38.231 270.485Z" fill="url(#paint37_linear_2855_605775)"/>
<path d="M74.5755 360.946C76.6549 356.686 79.2068 354.177 81.4279 352.71C81.3807 351.857 81.3334 351.053 81.2862 350.248C78.876 351.81 76.0405 354.319 73.3941 358.437C66.9197 368.378 63.3281 400.331 63.3281 400.331H65.7855C67.0142 385.278 70.6531 368.946 74.5755 360.946Z" fill="#263959"/>
<path d="M43.0971 289.845C46.6887 285.632 45.9798 277.632 41.065 270.863C37.2371 265.561 31.8969 262.437 27.2656 262.39C27.2656 262.721 27.2656 263.052 27.3129 263.431C31.6606 263.384 36.8117 266.319 40.4506 271.336C45.0819 277.727 45.6963 285.348 42.1519 289.23C42.53 289.514 42.8608 289.703 43.0971 289.845Z" fill="#263959"/>
<path d="M57.5115 224.71C56.5191 227.077 54.5815 230.58 51.9351 231.432C49.1468 232.284 45.0826 230.722 42.6252 229.633C42.2944 230.012 41.9636 230.39 41.6328 230.769C44.1847 231.953 48.7688 233.657 52.2659 232.71C55.6212 231.811 57.9841 228.166 59.1655 225.799C58.6457 225.373 58.0786 225.041 57.5115 224.71Z" fill="#263959"/>
<path d="M82.1329 402.698L82.7473 400.331H36.8125L37.7577 402.698H82.1329Z" fill="#263959"/>
<path d="M149.099 402.698L150.045 400.331H104.062L104.724 402.698H149.099Z" fill="#263959"/>
<path opacity="0.68" d="M93 119.716C122.81 119.716 147 132.781 147 148.923C147 165.065 122.81 178.13 93 178.13C63.1898 178.13 39 165.065 39 148.923C39 132.781 63.1898 119.716 93 119.716Z" fill="url(#paint38_radial_2855_605775)"/>
<path d="M109.352 263.621C109.352 272.663 102.027 280.047 92.9532 280.047C83.8797 280.047 76.5547 272.663 76.5547 263.621C76.5547 254.533 83.8797 247.195 92.9532 247.195C102.027 247.195 109.352 254.58 109.352 263.621Z" fill="#00163C"/>
<path d="M92.9593 278.863C101.363 278.863 108.176 272.039 108.176 263.621C108.176 255.202 101.363 248.378 92.9593 248.378C84.5551 248.378 77.7422 255.202 77.7422 263.621C77.7422 272.039 84.5551 278.863 92.9593 278.863Z" fill="url(#paint39_radial_2855_605775)"/>
<path d="M103.872 263.62C103.872 269.68 99.0047 274.555 92.9557 274.555C86.9066 274.555 82.0391 269.68 82.0391 263.62C82.0391 257.561 86.9066 252.686 92.9557 252.686C99.0047 252.686 103.872 257.561 103.872 263.62Z" fill="url(#paint40_radial_2855_605775)"/>
<path opacity="0.33" d="M97.7277 267.976C93.4745 270.532 87.2837 270.958 83.125 268.402C84.8735 272.047 88.6069 274.556 92.9547 274.556C99.0037 274.556 103.871 269.68 103.871 263.621C103.871 262.816 103.777 262.011 103.588 261.254C102.406 263.952 100.563 266.272 97.7277 267.976Z" fill="url(#paint41_radial_2855_605775)"/>
<path opacity="0.71" d="M84.7831 261.964C84.7831 262.153 84.7831 262.342 84.9249 262.484C85.0194 262.579 85.1612 262.626 85.2557 262.626C86.2009 262.816 87.0988 262.295 87.9494 261.822C89.0364 261.206 90.1233 260.544 91.163 259.834C91.8719 259.313 92.5807 258.792 93.1006 258.035C93.4314 257.514 93.6677 256.757 93.2896 256.236C93.0533 255.905 92.6752 255.715 92.2972 255.621C88.1385 254.484 84.6886 257.94 84.7831 261.964Z" fill="url(#paint42_radial_2855_605775)"/>
<g opacity="0.47">
<path d="M97.3995 249.088C97.4468 249.088 97.494 249.041 97.5413 249.041C96.1236 248.615 94.564 248.331 93.0045 248.331C87.4281 248.331 82.5605 251.313 79.9141 255.81C82.7023 253.822 85.6795 252.118 88.9403 250.935C91.6813 249.988 94.5168 249.372 97.3995 249.088Z" fill="#2A5D94"/>
</g>
<g opacity="0.47">
<path d="M105.908 255.621C105.057 254.248 103.97 252.97 102.694 251.929C102.08 252.118 101.418 252.307 100.804 252.497C98.0159 253.491 95.5585 255.148 93.0538 256.71C88.2807 259.692 83.1769 261.254 77.7894 262.438C77.7422 262.816 77.7422 263.195 77.7422 263.574C77.7422 265.988 78.3093 268.26 79.3017 270.296C85.0672 261.301 95.3694 255.432 105.908 255.621Z" fill="#2A5D94"/>
</g>
<g opacity="0.47">
<path d="M97.5444 268.876C100.947 266.793 104.397 265.988 108.036 265.609C108.13 264.947 108.177 264.284 108.177 263.621C108.177 263.101 108.13 262.627 108.083 262.106C104.491 263.621 101.136 265.751 97.6862 267.692C92.9132 270.39 87.7148 273.183 82.4219 274.651C83.7451 275.882 85.2574 276.923 86.9114 277.633C90.0304 274.225 93.6693 271.243 97.5444 268.876Z" fill="#2A5D94"/>
</g>
<g opacity="0.47">
<path d="M92.3906 278.863C92.5797 278.863 92.7687 278.863 92.9577 278.863C98.1561 278.863 102.74 276.26 105.481 272.283C100.755 273.656 96.313 275.881 92.3906 278.863Z" fill="#2A5D94"/>
</g>
<path d="M96.9697 108.023C96.9697 110.485 94.9848 112.426 92.5747 112.426C90.1173 112.426 88.1797 110.438 88.1797 108.023C88.1797 105.562 90.1645 103.621 92.5747 103.621C94.9848 103.621 96.9697 105.609 96.9697 108.023Z" fill="#1E1338"/>
<g opacity="0.47">
<path d="M96.4077 105.846C96.0769 105.23 95.5571 104.71 94.99 104.331C93.525 106.887 91.2093 109.301 88.5156 109.728C88.9409 110.722 89.7443 111.574 90.6895 112.047C91.5874 109.443 93.8558 107.077 96.4077 105.846Z" fill="#2A5D94"/>
</g>
<g opacity="0.85">
<path d="M94.8973 108.023C94.8973 109.301 93.8576 110.343 92.5817 110.343C91.3057 110.343 90.2188 109.301 90.2188 108.023C90.2188 106.745 91.2584 105.656 92.5817 105.656C93.8576 105.704 94.8973 106.745 94.8973 108.023Z" fill="#2A5D94"/>
</g>
<path d="M108.648 197.443H76.5597C75.142 197.443 74.0078 196.26 74.0078 194.887V189.586C74.0078 188.165 75.142 187.029 76.5597 187.029H108.648C110.066 187.029 111.2 188.213 111.2 189.586V194.887C111.247 196.307 110.066 197.443 108.648 197.443Z" fill="#263959"/>
<path d="M110.723 188.071C110.251 187.455 109.494 187.029 108.691 187.029H76.5555C75.7049 187.029 74.996 187.455 74.5234 188.071H110.723Z" fill="#061232"/>
<path d="M111.247 193.609H74.0078V194.556H111.247V193.609Z" fill="#061232"/>
<path d="M75 196.923C75.4253 197.254 75.9452 197.444 76.5595 197.444H108.648C109.215 197.444 109.782 197.254 110.207 196.923H75Z" fill="#061232"/>
<path d="M111.247 190.438H74.0078V191.242H111.247V190.438Z" fill="#061232"/>
</g>
<defs>
<linearGradient id="paint0_linear_2855_605775" x1="59.4701" y1="3.06637" x2="116.815" y2="72.8492" gradientUnits="userSpaceOnUse">
<stop stop-color="white"/>
<stop offset="1" stop-color="#C2D9E9"/>
</linearGradient>
<linearGradient id="paint1_linear_2855_605775" x1="94.8529" y1="45.8477" x2="144.759" y2="133.292" gradientUnits="userSpaceOnUse">
<stop stop-color="white"/>
<stop offset="1" stop-color="#8DB8D6"/>
</linearGradient>
<linearGradient id="paint2_linear_2855_605775" x1="99.3041" y1="43.3062" x2="149.211" y2="130.751" gradientUnits="userSpaceOnUse">
<stop stop-color="white"/>
<stop offset="1" stop-color="#8DB8D6"/>
</linearGradient>
<linearGradient id="paint3_linear_2855_605775" x1="136.899" y1="226.621" x2="130.821" y2="239.711" gradientUnits="userSpaceOnUse">
<stop stop-color="white"/>
<stop offset="1" stop-color="#C2D9E9"/>
</linearGradient>
<linearGradient id="paint4_linear_2855_605775" x1="136.842" y1="226.597" x2="130.765" y2="239.685" gradientUnits="userSpaceOnUse">
<stop stop-color="white"/>
<stop offset="1" stop-color="#C2D9E9"/>
</linearGradient>
<linearGradient id="paint5_linear_2855_605775" x1="136.899" y1="226.623" x2="130.822" y2="239.711" gradientUnits="userSpaceOnUse">
<stop stop-color="white"/>
<stop offset="1" stop-color="#C2D9E9"/>
</linearGradient>
<linearGradient id="paint6_linear_2855_605775" x1="143.147" y1="335.26" x2="118.879" y2="387.522" gradientUnits="userSpaceOnUse">
<stop stop-color="white"/>
<stop offset="1" stop-color="#C2D9E9"/>
</linearGradient>
<linearGradient id="paint7_linear_2855_605775" x1="159.538" y1="272.704" x2="128.494" y2="272.704" gradientUnits="userSpaceOnUse">
<stop stop-color="white"/>
<stop offset="1" stop-color="#C2D9E9"/>
</linearGradient>
<linearGradient id="paint8_linear_2855_605775" x1="159.539" y1="277.52" x2="128.496" y2="277.52" gradientUnits="userSpaceOnUse">
<stop stop-color="white"/>
<stop offset="1" stop-color="#C2D9E9"/>
</linearGradient>
<linearGradient id="paint9_linear_2855_605775" x1="159.536" y1="286.017" x2="128.493" y2="286.017" gradientUnits="userSpaceOnUse">
<stop stop-color="white"/>
<stop offset="1" stop-color="#C2D9E9"/>
</linearGradient>
<linearGradient id="paint10_linear_2855_605775" x1="145.803" y1="336.494" x2="121.535" y2="388.755" gradientUnits="userSpaceOnUse">
<stop stop-color="white"/>
<stop offset="1" stop-color="#C2D9E9"/>
</linearGradient>
<linearGradient id="paint11_linear_2855_605775" x1="138.935" y1="333.301" x2="114.666" y2="385.565" gradientUnits="userSpaceOnUse">
<stop stop-color="white"/>
<stop offset="1" stop-color="#C2D9E9"/>
</linearGradient>
<linearGradient id="paint12_linear_2855_605775" x1="181.58" y1="226.432" x2="134.947" y2="326.859" gradientUnits="userSpaceOnUse">
<stop stop-color="white"/>
<stop offset="1" stop-color="#C2D9E9"/>
</linearGradient>
<linearGradient id="paint13_linear_2855_605775" x1="152.673" y1="267.155" x2="140.627" y2="267.155" gradientUnits="userSpaceOnUse">
<stop stop-color="white"/>
<stop offset="1" stop-color="#C2D9E9"/>
</linearGradient>
<linearGradient id="paint14_linear_2855_605775" x1="49.9294" y1="226.621" x2="56.0074" y2="239.711" gradientUnits="userSpaceOnUse">
<stop stop-color="white"/>
<stop offset="1" stop-color="#C2D9E9"/>
</linearGradient>
<linearGradient id="paint15_linear_2855_605775" x1="49.9861" y1="226.597" x2="56.0635" y2="239.685" gradientUnits="userSpaceOnUse">
<stop stop-color="white"/>
<stop offset="1" stop-color="#C2D9E9"/>
</linearGradient>
<linearGradient id="paint16_linear_2855_605775" x1="49.9294" y1="226.623" x2="56.0071" y2="239.711" gradientUnits="userSpaceOnUse">
<stop stop-color="white"/>
<stop offset="1" stop-color="#C2D9E9"/>
</linearGradient>
<linearGradient id="paint17_linear_2855_605775" x1="74.8159" y1="214.3" x2="106.9" y2="277.39" gradientUnits="userSpaceOnUse">
<stop stop-color="white"/>
<stop offset="1" stop-color="#C2D9E9"/>
</linearGradient>
<linearGradient id="paint18_linear_2855_605775" x1="107.972" y1="246.758" x2="78.4277" y2="221.642" gradientUnits="userSpaceOnUse">
<stop stop-color="white"/>
<stop offset="1" stop-color="#C2D9E9"/>
</linearGradient>
<linearGradient id="paint19_linear_2855_605775" x1="100.567" y1="244.506" x2="85.7442" y2="222.877" gradientUnits="userSpaceOnUse">
<stop stop-color="white"/>
<stop offset="1" stop-color="#C2D9E9"/>
</linearGradient>
<linearGradient id="paint20_linear_2855_605775" x1="43.6753" y1="335.26" x2="67.9434" y2="387.522" gradientUnits="userSpaceOnUse">
<stop stop-color="white"/>
<stop offset="1" stop-color="#C2D9E9"/>
</linearGradient>
<linearGradient id="paint21_linear_2855_605775" x1="27.2874" y1="272.704" x2="58.3313" y2="272.704" gradientUnits="userSpaceOnUse">
<stop stop-color="white"/>
<stop offset="1" stop-color="#C2D9E9"/>
</linearGradient>
<linearGradient id="paint22_linear_2855_605775" x1="27.2835" y1="277.52" x2="58.3272" y2="277.52" gradientUnits="userSpaceOnUse">
<stop stop-color="white"/>
<stop offset="1" stop-color="#C2D9E9"/>
</linearGradient>
<linearGradient id="paint23_linear_2855_605775" x1="92.8786" y1="187.391" x2="97.7428" y2="216.042" gradientUnits="userSpaceOnUse">
<stop stop-color="white"/>
<stop offset="1" stop-color="#85B3D3"/>
</linearGradient>
<linearGradient id="paint24_linear_2855_605775" x1="92.8786" y1="187.39" x2="97.7428" y2="216.041" gradientUnits="userSpaceOnUse">
<stop stop-color="white"/>
<stop offset="1" stop-color="#C2D9E9"/>
</linearGradient>
<linearGradient id="paint25_linear_2855_605775" x1="64.6118" y1="98.3787" x2="111.053" y2="178.962" gradientUnits="userSpaceOnUse">
<stop stop-color="white"/>
<stop offset="1" stop-color="#82B1D2"/>
</linearGradient>
<linearGradient id="paint26_linear_2855_605775" x1="93.9246" y1="149.425" x2="111.795" y2="199.306" gradientUnits="userSpaceOnUse">
<stop stop-color="white"/>
<stop offset="1" stop-color="#C2D9E9"/>
</linearGradient>
<linearGradient id="paint27_linear_2855_605775" x1="120.059" y1="170.887" x2="65.7944" y2="120.35" gradientUnits="userSpaceOnUse">
<stop stop-color="white"/>
<stop offset="1" stop-color="#C2D9E9"/>
</linearGradient>
<linearGradient id="paint28_linear_2855_605775" x1="74.8143" y1="214.301" x2="106.898" y2="277.391" gradientUnits="userSpaceOnUse">
<stop stop-color="white"/>
<stop offset="1" stop-color="#C2D9E9"/>
</linearGradient>
<linearGradient id="paint29_linear_2855_605775" x1="104.093" y1="171.571" x2="124.51" y2="210.517" gradientUnits="userSpaceOnUse">
<stop stop-color="white"/>
<stop offset="1" stop-color="#C2D9E9"/>
</linearGradient>
<linearGradient id="paint30_linear_2855_605775" x1="76.3132" y1="213.541" x2="108.397" y2="276.631" gradientUnits="userSpaceOnUse">
<stop stop-color="white"/>
<stop offset="1" stop-color="#C2D9E9"/>
</linearGradient>
<linearGradient id="paint31_linear_2855_605775" x1="27.2897" y1="286.017" x2="58.3335" y2="286.017" gradientUnits="userSpaceOnUse">
<stop stop-color="white"/>
<stop offset="1" stop-color="#C2D9E9"/>
</linearGradient>
<linearGradient id="paint32_linear_2855_605775" x1="41.0237" y1="336.494" x2="65.2912" y2="388.755" gradientUnits="userSpaceOnUse">
<stop stop-color="white"/>
<stop offset="1" stop-color="#C2D9E9"/>
</linearGradient>
<linearGradient id="paint33_linear_2855_605775" x1="47.8915" y1="333.301" x2="72.1606" y2="385.565" gradientUnits="userSpaceOnUse">
<stop stop-color="white"/>
<stop offset="1" stop-color="#C2D9E9"/>
</linearGradient>
<linearGradient id="paint34_linear_2855_605775" x1="5.24526" y1="226.432" x2="51.8786" y2="326.859" gradientUnits="userSpaceOnUse">
<stop stop-color="white"/>
<stop offset="1" stop-color="#C2D9E9"/>
</linearGradient>
<linearGradient id="paint35_linear_2855_605775" x1="55.9544" y1="252.464" x2="70.7149" y2="252.464" gradientUnits="userSpaceOnUse">
<stop stop-color="white"/>
<stop offset="1" stop-color="#C2D9E9"/>
</linearGradient>
<linearGradient id="paint36_linear_2855_605775" x1="65.3642" y1="272.118" x2="71.588" y2="272.118" gradientUnits="userSpaceOnUse">
<stop stop-color="white"/>
<stop offset="1" stop-color="#C2D9E9"/>
</linearGradient>
<linearGradient id="paint37_linear_2855_605775" x1="34.1504" y1="267.155" x2="46.1955" y2="267.155" gradientUnits="userSpaceOnUse">
<stop stop-color="white"/>
<stop offset="1" stop-color="#C2D9E9"/>
</linearGradient>
<radialGradient id="paint38_radial_2855_605775" cx="0" cy="0" r="1" gradientUnits="userSpaceOnUse" gradientTransform="translate(93.006 148.882) rotate(-90) scale(32.2158 49.733)">
<stop stop-color="#2A5D94"/>
<stop offset="0.4152" stop-color="#2A5B92"/>
<stop offset="0.5966" stop-color="#2A568B"/>
<stop offset="0.7324" stop-color="#2A4C7E"/>
<stop offset="0.8456" stop-color="#2B3E6C"/>
<stop offset="0.9436" stop-color="#2B2D55"/>
<stop offset="0.9944" stop-color="#2B2146"/>
</radialGradient>
<radialGradient id="paint39_radial_2855_605775" cx="0" cy="0" r="1" gradientUnits="userSpaceOnUse" gradientTransform="translate(92.9616 263.622) scale(15.2193 15.2448)">
<stop offset="0.00558659" stop-color="#00FFFF"/>
<stop offset="0.0560054" stop-color="#01EDF0"/>
<stop offset="0.2528" stop-color="#05ADBA"/>
<stop offset="0.4406" stop-color="#08778E"/>
<stop offset="0.6143" stop-color="#0B4E6B"/>
<stop offset="0.7708" stop-color="#0D3052"/>
<stop offset="0.9046" stop-color="#0E1D42"/>
<stop offset="1" stop-color="#0E173D"/>
</radialGradient>
<radialGradient id="paint40_radial_2855_605775" cx="0" cy="0" r="1" gradientUnits="userSpaceOnUse" gradientTransform="translate(92.958 263.62) scale(10.9203 10.9386)">
<stop offset="0.00558659" stop-color="#00FFFF"/>
<stop offset="0.1879" stop-color="#01FCFC"/>
<stop offset="0.3321" stop-color="#03F2F4"/>
<stop offset="0.4634" stop-color="#06E1E6"/>
<stop offset="0.5869" stop-color="#0ACAD2"/>
<stop offset="0.705" stop-color="#10ABB9"/>
<stop offset="0.8191" stop-color="#178699"/>
<stop offset="0.9278" stop-color="#205A75"/>
<stop offset="1" stop-color="#263959"/>
</radialGradient>
<radialGradient id="paint41_radial_2855_605775" cx="0" cy="0" r="1" gradientUnits="userSpaceOnUse" gradientTransform="translate(92.957 263.62) scale(10.9204 10.9387)">
<stop offset="0.00558659" stop-color="#00FFFF"/>
<stop offset="1" stop-color="#263959"/>
</radialGradient>
<radialGradient id="paint42_radial_2855_605775" cx="0" cy="0" r="1" gradientUnits="userSpaceOnUse" gradientTransform="translate(89.1258 259.065) scale(4.00153 4.00823)">
<stop offset="0.00558659" stop-color="#00FFFF"/>
<stop offset="1" stop-color="#263959"/>
</radialGradient>
<clipPath id="clip0_2855_605775">
<rect width="187" height="408" fill="white"/>
</clipPath>
</defs>
</svg>
