<svg width="541" height="542" viewBox="0 0 541 542" fill="none" xmlns="http://www.w3.org/2000/svg">
<path d="M270.572 12.0354C273.848 12.0354 276.503 9.37823 276.503 6.10046C276.503 2.82269 273.848 0.165527 270.572 0.165527C267.296 0.165527 264.641 2.82269 264.641 6.10046C264.641 9.37823 267.296 12.0354 270.572 12.0354Z" fill="#4E648F"/>
<path d="M270.572 541.061C273.848 541.061 276.503 538.404 276.503 535.126C276.503 531.849 273.848 529.191 270.572 529.191C267.296 529.191 264.641 531.849 264.641 535.126C264.641 538.404 267.296 541.061 270.572 541.061Z" fill="#4E648F"/>
<path d="M230.513 9.11098C231.072 12.3365 228.923 15.433 225.7 15.9921C222.476 16.5511 219.381 14.4008 218.823 11.1753C218.264 7.94979 220.413 4.85331 223.637 4.29422C226.86 3.73513 229.955 5.88547 230.513 9.11098Z" fill="#4E648F"/>
<path d="M322.365 530.051C322.924 533.277 320.775 536.373 317.551 536.932C314.328 537.492 311.233 535.341 310.674 532.116C310.116 528.89 312.265 525.794 315.488 525.235C318.712 524.676 321.806 526.826 322.365 530.051Z" fill="#4E648F"/>
<path d="M185.727 20.0347C186.845 23.1312 185.255 26.5287 182.16 27.6469C179.065 28.7651 175.67 27.1738 174.553 24.0773C173.435 20.9809 175.025 17.5833 178.12 16.4652C181.215 15.347 184.61 16.9382 185.727 20.0347Z" fill="#4E648F"/>
<path d="M366.634 517.106C367.751 520.203 366.161 523.6 363.066 524.719C359.972 525.837 356.576 524.245 355.459 521.149C354.341 518.052 355.932 514.655 359.026 513.537C362.121 512.419 365.516 514.01 366.634 517.106Z" fill="#4E648F"/>
<path d="M143.48 38.5705C145.113 41.409 144.168 45.0645 141.288 46.6988C138.451 48.3331 134.798 47.3869 133.165 44.5055C131.532 41.624 132.477 38.0114 135.357 36.3772C138.193 34.7429 141.847 35.6891 143.48 38.5705Z" fill="#4E648F"/>
<path d="M407.98 496.678C409.613 499.517 408.668 503.172 405.788 504.806C402.951 506.441 399.298 505.495 397.665 502.613C396.032 499.775 396.977 496.119 399.857 494.485C402.693 492.851 406.347 493.797 407.98 496.678Z" fill="#4E648F"/>
<path d="M105.143 64.1596C107.249 66.697 106.905 70.4386 104.412 72.5459C101.876 74.6533 98.1372 74.3092 96.0312 71.8148C93.9251 69.3204 94.269 65.5358 96.7618 63.4285C99.2977 61.3212 103.037 61.6652 105.143 64.1596Z" fill="#4E648F"/>
<path d="M445.159 469.412C447.265 471.949 446.921 475.691 444.428 477.798C441.892 479.906 438.153 479.562 436.047 477.067C433.941 474.573 434.285 470.788 436.777 468.681C439.313 466.573 443.053 466.918 445.159 469.412Z" fill="#4E648F"/>
<path d="M71.7858 96.0276C74.3216 98.135 74.6225 101.877 72.5164 104.414C70.4104 106.951 66.6711 107.252 64.1353 105.145C61.5995 103.038 61.2986 99.2961 63.4046 96.7587C65.5107 94.2643 69.2499 93.9203 71.7858 96.0276Z" fill="#4E648F"/>
<path d="M477.005 436.082C479.54 438.189 479.841 441.931 477.735 444.468C475.629 447.006 471.89 447.307 469.354 445.199C466.818 443.092 466.517 439.35 468.623 436.813C470.729 434.276 474.469 433.975 477.005 436.082Z" fill="#4E648F"/>
<path d="M44.4974 133.228C47.3341 134.863 48.3227 138.518 46.6894 141.357C45.0562 144.195 41.4028 145.184 38.5662 143.55C35.7295 141.916 34.7409 138.26 36.3742 135.422C38.0074 132.583 41.6607 131.594 44.4974 133.228Z" fill="#4E648F"/>
<path d="M502.622 397.72C505.459 399.354 506.448 403.009 504.814 405.848C503.181 408.686 499.528 409.676 496.691 408.041C493.854 406.407 492.866 402.751 494.499 399.913C496.132 397.075 499.786 396.085 502.622 397.72Z" fill="#4E648F"/>
<path d="M24.0772 174.558C27.1718 175.676 28.7621 179.074 27.6446 182.17C26.5271 185.267 23.0887 186.858 20.0371 185.74C16.9855 184.621 15.3523 181.224 16.4698 178.127C17.5872 175.031 21.0257 173.44 24.0772 174.558Z" fill="#4E648F"/>
<path d="M521.144 355.487C524.239 356.605 525.829 360.003 524.712 363.099C523.594 366.196 520.156 367.787 517.104 366.669C514.01 365.551 512.419 362.153 513.537 359.057C514.654 355.96 518.093 354.369 521.144 355.487Z" fill="#4E648F"/>
<path d="M11.1404 218.812C14.3639 219.371 16.5559 222.467 15.9542 225.693C15.3954 228.918 12.3009 231.069 9.07736 230.51C5.85385 229.951 3.66186 226.854 4.26359 223.629C4.82233 220.403 7.9169 218.253 11.1404 218.812Z" fill="#4E648F"/>
<path d="M532.062 310.674C535.286 311.233 537.478 314.33 536.876 317.555C536.317 320.781 533.223 322.931 529.999 322.372C526.776 321.813 524.584 318.716 525.185 315.491C525.744 312.265 528.839 310.115 532.062 310.674Z" fill="#4E648F"/>
<path d="M6.07189 276.527C9.34763 276.527 12.0031 273.87 12.0031 270.592C12.0031 267.314 9.34763 264.657 6.07189 264.657C2.79614 264.657 0.140625 267.314 0.140625 270.592C0.140625 273.87 2.79614 276.527 6.07189 276.527Z" fill="#4E648F"/>
<path d="M535.072 276.527C538.348 276.527 541.003 273.87 541.003 270.592C541.003 267.314 538.348 264.657 535.072 264.657C531.796 264.657 529.141 267.314 529.141 270.592C529.141 273.87 531.796 276.527 535.072 276.527Z" fill="#4E648F"/>
<path d="M9.08182 310.674C12.3053 310.115 15.3999 312.265 15.9586 315.491C16.5174 318.716 14.3684 321.813 11.1449 322.372C7.92136 322.931 4.82678 320.781 4.26804 317.555C3.7093 314.33 5.85831 311.233 9.08182 310.674Z" fill="#4E648F"/>
<path d="M530.004 218.812C533.227 218.253 536.322 220.403 536.881 223.629C537.439 226.854 535.29 229.951 532.067 230.51C528.843 231.069 525.749 228.918 525.19 225.693C524.631 222.467 526.78 219.371 530.004 218.812Z" fill="#4E648F"/>
<path d="M19.9949 355.487C23.0895 354.369 26.4849 355.96 27.6024 359.057C28.7199 362.153 27.1296 365.551 24.0351 366.669C20.9405 367.787 17.5451 366.196 16.4276 363.099C15.3101 360.003 16.9004 356.605 19.9949 355.487Z" fill="#4E648F"/>
<path d="M517.104 174.558C520.199 173.44 523.594 175.031 524.712 178.127C525.829 181.224 524.239 184.621 521.144 185.74C518.05 186.858 514.654 185.267 513.537 182.17C512.419 179.074 514.01 175.676 517.104 174.558Z" fill="#4E648F"/>
<path d="M38.5677 397.72C41.4044 396.086 45.0577 397.032 46.6909 399.913C48.3242 402.752 47.3786 406.407 44.499 408.041C41.6623 409.676 38.009 408.73 36.3757 405.848C34.7425 403.01 35.688 399.354 38.5677 397.72Z" fill="#4E648F"/>
<path d="M496.646 133.228C499.482 131.594 503.136 132.54 504.769 135.422C506.402 138.26 505.457 141.916 502.577 143.55C499.697 145.184 496.087 144.238 494.454 141.357C492.821 138.518 493.766 134.863 496.646 133.228Z" fill="#4E648F"/>
<path d="M64.1368 436.082C66.6727 433.974 70.4119 434.319 72.518 436.813C74.624 439.35 74.2801 443.092 71.7873 445.199C69.2515 447.307 65.5122 446.963 63.4062 444.468C61.3001 441.931 61.644 438.189 64.1368 436.082Z" fill="#4E648F"/>
<path d="M469.356 96.0276C471.891 93.9203 475.631 94.2643 477.737 96.7587C479.843 99.2961 479.499 103.038 477.006 105.145C474.47 107.252 470.731 106.908 468.625 104.414C466.519 101.92 466.863 98.135 469.356 96.0276Z" fill="#4E648F"/>
<path d="M96.0296 469.412C98.1357 466.875 101.875 466.574 104.411 468.681C106.947 470.788 107.247 474.53 105.141 477.067C103.035 479.605 99.2961 479.906 96.7603 477.798C94.2245 475.691 93.9236 471.949 96.0296 469.412Z" fill="#4E648F"/>
<path d="M436.045 64.1596C438.151 61.6222 441.891 61.3211 444.426 63.4285C446.962 65.5358 447.263 69.2774 445.157 71.8148C443.051 74.3522 439.312 74.6532 436.776 72.5459C434.24 70.4386 433.939 66.697 436.045 64.1596Z" fill="#4E648F"/>
<path d="M133.163 496.678C134.796 493.84 138.45 492.851 141.286 494.485C144.123 496.119 145.112 499.775 143.478 502.613C141.845 505.452 138.192 506.441 135.355 504.807C132.519 503.172 131.53 499.517 133.163 496.678Z" fill="#4E648F"/>
<path d="M397.663 38.5707C399.296 35.7322 402.95 34.7431 405.786 36.3773C408.623 38.0116 409.612 41.6672 407.978 44.5056C406.345 47.3441 402.692 48.3332 399.855 46.699C397.019 45.0647 396.03 41.4091 397.663 38.5707Z" fill="#4E648F"/>
<path d="M174.509 517.106C175.626 514.01 179.065 512.419 182.116 513.537C185.211 514.655 186.801 518.052 185.684 521.149C184.566 524.245 181.128 525.837 178.076 524.719C175.025 523.6 173.391 520.203 174.509 517.106Z" fill="#4E648F"/>
<path d="M355.459 20.0347C356.576 16.9382 360.015 15.347 363.066 16.4652C366.161 17.5833 367.751 20.9809 366.634 24.0773C365.516 27.1738 362.078 28.7651 359.026 27.6469C355.932 26.5287 354.341 23.1312 355.459 20.0347Z" fill="#4E648F"/>
<path d="M218.779 530.051C219.338 526.826 222.433 524.676 225.656 525.235C228.88 525.794 231.072 528.89 230.47 532.116C229.911 535.341 226.816 537.492 223.593 536.932C220.369 536.373 218.177 533.277 218.779 530.051Z" fill="#4E648F"/>
<path d="M310.67 9.11098C311.229 5.88547 314.323 3.73513 317.547 4.29422C320.77 4.85331 322.962 7.94979 322.36 11.1753C321.802 14.4008 318.707 16.5511 315.484 15.9921C312.26 15.433 310.068 12.3365 310.67 9.11098Z" fill="#4E648F"/>
</svg>
