<svg width="144" height="177" viewBox="0 0 144 177" fill="none" xmlns="http://www.w3.org/2000/svg">
<path d="M72.3109 176.028C111.729 176.028 143.684 144.073 143.684 104.654C143.684 65.2349 111.729 33.2795 72.3109 33.2795C32.8925 33.2795 0.9375 65.2349 0.9375 104.654C0.9375 144.073 32.8925 176.028 72.3109 176.028Z" fill="#1C3462"/>
<path d="M70.5392 1.42302L50.5547 54.7481H94.0708L74.0863 1.42302C73.4374 -0.26503 71.1881 -0.26503 70.5825 1.42302H70.5392Z" fill="#1C3462"/>
<g filter="url(#filter0_di_2855_600179)">
<circle cx="72.5" cy="104.5" r="61.5" fill="#F04C42"/>
<circle cx="72.5" cy="104.5" r="62.5" stroke="#C94800" stroke-width="2"/>
</g>
<path d="M20 101C20 73.938 41.938 52 69 52" stroke="#FF6565" stroke-width="8" stroke-linecap="round"/>
<mask id="path-6-outside-1_2855_600179" maskUnits="userSpaceOnUse" x="34.2656" y="92.8334" width="75" height="30" fill="black">
<rect fill="white" x="34.2656" y="92.8334" width="75" height="30"/>
<path d="M57.2428 101.201V103.945H50.2988V105.569H59.9308V108.313H37.1948V105.569H46.7708V103.945H40.0508V96.2734H57.0748V99.0734H43.5228V101.201H57.2428ZM39.8268 120.185V113.577H53.7148V112.233H39.8268V109.657H57.1308V116.041H43.2428V117.497H57.8028V120.185H39.8268ZM82.282 95.4334V120.409H78.81V95.4334H82.282ZM62.738 114.585V104.393H70.97V100.361H62.738V97.5614H74.554V107.137H66.322V111.729C70.13 111.701 73.35 111.505 77.018 110.889L77.298 113.689C73.238 114.417 69.542 114.585 64.978 114.585H62.738ZM106.537 95.4334V120.353H103.009V95.4334H106.537ZM85.7052 113.297C92.1172 110.245 94.9452 106.325 95.5052 100.809H86.9932V98.0654H99.0332C99.0612 105.597 96.4012 111.897 87.4972 116.097L85.7052 113.297Z"/>
</mask>
<path d="M57.2428 101.201V103.945H50.2988V105.569H59.9308V108.313H37.1948V105.569H46.7708V103.945H40.0508V96.2734H57.0748V99.0734H43.5228V101.201H57.2428ZM39.8268 120.185V113.577H53.7148V112.233H39.8268V109.657H57.1308V116.041H43.2428V117.497H57.8028V120.185H39.8268ZM82.282 95.4334V120.409H78.81V95.4334H82.282ZM62.738 114.585V104.393H70.97V100.361H62.738V97.5614H74.554V107.137H66.322V111.729C70.13 111.701 73.35 111.505 77.018 110.889L77.298 113.689C73.238 114.417 69.542 114.585 64.978 114.585H62.738ZM106.537 95.4334V120.353H103.009V95.4334H106.537ZM85.7052 113.297C92.1172 110.245 94.9452 106.325 95.5052 100.809H86.9932V98.0654H99.0332C99.0612 105.597 96.4012 111.897 87.4972 116.097L85.7052 113.297Z" fill="white"/>
<path d="M57.2428 101.201H59.2428C59.2428 100.097 58.3474 99.2014 57.2428 99.2014V101.201ZM57.2428 103.945V105.945C58.3474 105.945 59.2428 105.05 59.2428 103.945H57.2428ZM50.2988 103.945V101.945C49.1942 101.945 48.2988 102.841 48.2988 103.945H50.2988ZM50.2988 105.569H48.2988C48.2988 106.674 49.1942 107.569 50.2988 107.569V105.569ZM59.9308 105.569H61.9308C61.9308 104.465 61.0354 103.569 59.9308 103.569V105.569ZM59.9308 108.313V110.313C61.0354 110.313 61.9308 109.418 61.9308 108.313H59.9308ZM37.1948 108.313H35.1948C35.1948 109.418 36.0902 110.313 37.1948 110.313V108.313ZM37.1948 105.569V103.569C36.0902 103.569 35.1948 104.465 35.1948 105.569H37.1948ZM46.7708 105.569V107.569C47.8754 107.569 48.7708 106.674 48.7708 105.569H46.7708ZM46.7708 103.945H48.7708C48.7708 102.841 47.8754 101.945 46.7708 101.945V103.945ZM40.0508 103.945H38.0508C38.0508 105.05 38.9462 105.945 40.0508 105.945V103.945ZM40.0508 96.2734V94.2734C38.9462 94.2734 38.0508 95.1688 38.0508 96.2734H40.0508ZM57.0748 96.2734H59.0748C59.0748 95.1688 58.1794 94.2734 57.0748 94.2734V96.2734ZM57.0748 99.0734V101.073C58.1794 101.073 59.0748 100.178 59.0748 99.0734H57.0748ZM43.5228 99.0734V97.0734C42.4182 97.0734 41.5228 97.9688 41.5228 99.0734H43.5228ZM43.5228 101.201H41.5228C41.5228 102.306 42.4182 103.201 43.5228 103.201V101.201ZM39.8268 120.185H37.8268C37.8268 121.29 38.7222 122.185 39.8268 122.185V120.185ZM39.8268 113.577V111.577C38.7222 111.577 37.8268 112.473 37.8268 113.577H39.8268ZM53.7148 113.577V115.577C54.8194 115.577 55.7148 114.682 55.7148 113.577H53.7148ZM53.7148 112.233H55.7148C55.7148 111.129 54.8194 110.233 53.7148 110.233V112.233ZM39.8268 112.233H37.8268C37.8268 113.338 38.7222 114.233 39.8268 114.233V112.233ZM39.8268 109.657V107.657C38.7222 107.657 37.8268 108.553 37.8268 109.657H39.8268ZM57.1308 109.657H59.1308C59.1308 108.553 58.2354 107.657 57.1308 107.657V109.657ZM57.1308 116.041V118.041C58.2354 118.041 59.1308 117.146 59.1308 116.041H57.1308ZM43.2428 116.041V114.041C42.1382 114.041 41.2428 114.937 41.2428 116.041H43.2428ZM43.2428 117.497H41.2428C41.2428 118.602 42.1382 119.497 43.2428 119.497V117.497ZM57.8028 117.497H59.8028C59.8028 116.393 58.9074 115.497 57.8028 115.497V117.497ZM57.8028 120.185V122.185C58.9074 122.185 59.8028 121.29 59.8028 120.185H57.8028ZM55.2428 101.201V103.945H59.2428V101.201H55.2428ZM57.2428 101.945H50.2988V105.945H57.2428V101.945ZM48.2988 103.945V105.569H52.2988V103.945H48.2988ZM50.2988 107.569H59.9308V103.569H50.2988V107.569ZM57.9308 105.569V108.313H61.9308V105.569H57.9308ZM59.9308 106.313H37.1948V110.313H59.9308V106.313ZM39.1948 108.313V105.569H35.1948V108.313H39.1948ZM37.1948 107.569H46.7708V103.569H37.1948V107.569ZM48.7708 105.569V103.945H44.7708V105.569H48.7708ZM46.7708 101.945H40.0508V105.945H46.7708V101.945ZM42.0508 103.945V96.2734H38.0508V103.945H42.0508ZM40.0508 98.2734H57.0748V94.2734H40.0508V98.2734ZM55.0748 96.2734V99.0734H59.0748V96.2734H55.0748ZM57.0748 97.0734H43.5228V101.073H57.0748V97.0734ZM41.5228 99.0734V101.201H45.5228V99.0734H41.5228ZM43.5228 103.201H57.2428V99.2014H43.5228V103.201ZM41.8268 120.185V113.577H37.8268V120.185H41.8268ZM39.8268 115.577H53.7148V111.577H39.8268V115.577ZM55.7148 113.577V112.233H51.7148V113.577H55.7148ZM53.7148 110.233H39.8268V114.233H53.7148V110.233ZM41.8268 112.233V109.657H37.8268V112.233H41.8268ZM39.8268 111.657H57.1308V107.657H39.8268V111.657ZM55.1308 109.657V116.041H59.1308V109.657H55.1308ZM57.1308 114.041H43.2428V118.041H57.1308V114.041ZM41.2428 116.041V117.497H45.2428V116.041H41.2428ZM43.2428 119.497H57.8028V115.497H43.2428V119.497ZM55.8028 117.497V120.185H59.8028V117.497H55.8028ZM57.8028 118.185H39.8268V122.185H57.8028V118.185ZM82.282 95.4334H84.282C84.282 94.3288 83.3866 93.4334 82.282 93.4334V95.4334ZM82.282 120.409V122.409C83.3866 122.409 84.282 121.514 84.282 120.409H82.282ZM78.81 120.409H76.81C76.81 121.514 77.7054 122.409 78.81 122.409V120.409ZM78.81 95.4334V93.4334C77.7054 93.4334 76.81 94.3288 76.81 95.4334H78.81ZM62.738 114.585H60.738C60.738 115.69 61.6334 116.585 62.738 116.585V114.585ZM62.738 104.393V102.393C61.6334 102.393 60.738 103.289 60.738 104.393H62.738ZM70.97 104.393V106.393C72.0746 106.393 72.97 105.498 72.97 104.393H70.97ZM70.97 100.361H72.97C72.97 99.2568 72.0746 98.3614 70.97 98.3614V100.361ZM62.738 100.361H60.738C60.738 101.466 61.6334 102.361 62.738 102.361V100.361ZM62.738 97.5614V95.5614C61.6334 95.5614 60.738 96.4568 60.738 97.5614H62.738ZM74.554 97.5614H76.554C76.554 96.4568 75.6586 95.5614 74.554 95.5614V97.5614ZM74.554 107.137V109.137C75.6586 109.137 76.554 108.242 76.554 107.137H74.554ZM66.322 107.137V105.137C65.2174 105.137 64.322 106.033 64.322 107.137H66.322ZM66.322 111.729H64.322C64.322 112.262 64.5348 112.773 64.913 113.149C65.2913 113.524 65.8038 113.733 66.3367 113.729L66.322 111.729ZM77.018 110.889L79.0081 110.69C78.953 110.14 78.6721 109.636 78.2322 109.3C77.7923 108.964 77.2327 108.825 76.6868 108.917L77.018 110.889ZM77.298 113.689L77.651 115.658C78.6789 115.474 79.392 114.529 79.2881 113.49L77.298 113.689ZM80.282 95.4334V120.409H84.282V95.4334H80.282ZM82.282 118.409H78.81V122.409H82.282V118.409ZM80.81 120.409V95.4334H76.81V120.409H80.81ZM78.81 97.4334H82.282V93.4334H78.81V97.4334ZM64.738 114.585V104.393H60.738V114.585H64.738ZM62.738 106.393H70.97V102.393H62.738V106.393ZM72.97 104.393V100.361H68.97V104.393H72.97ZM70.97 98.3614H62.738V102.361H70.97V98.3614ZM64.738 100.361V97.5614H60.738V100.361H64.738ZM62.738 99.5614H74.554V95.5614H62.738V99.5614ZM72.554 97.5614V107.137H76.554V97.5614H72.554ZM74.554 105.137H66.322V109.137H74.554V105.137ZM64.322 107.137V111.729H68.322V107.137H64.322ZM66.3367 113.729C70.2146 113.701 73.5461 113.5 77.3493 112.862L76.6868 108.917C73.1539 109.51 70.0455 109.702 66.3073 109.729L66.3367 113.729ZM75.0279 111.088L75.3079 113.888L79.2881 113.49L79.0081 110.69L75.0279 111.088ZM76.945 111.721C73.0531 112.419 69.4911 112.585 64.978 112.585V116.585C69.5929 116.585 73.423 116.416 77.651 115.658L76.945 111.721ZM64.978 112.585H62.738V116.585H64.978V112.585ZM106.537 95.4334H108.537C108.537 94.3288 107.642 93.4334 106.537 93.4334V95.4334ZM106.537 120.353V122.353C107.642 122.353 108.537 121.458 108.537 120.353H106.537ZM103.009 120.353H101.009C101.009 121.458 101.905 122.353 103.009 122.353V120.353ZM103.009 95.4334V93.4334C101.905 93.4334 101.009 94.3288 101.009 95.4334H103.009ZM85.7052 113.297L84.8457 111.492C84.3275 111.738 83.9402 112.196 83.7824 112.747C83.6245 113.299 83.7113 113.892 84.0207 114.375L85.7052 113.297ZM95.5052 100.809L97.495 101.011C97.5521 100.449 97.3683 99.8881 96.9892 99.4685C96.61 99.0488 96.0708 98.8094 95.5052 98.8094V100.809ZM86.9932 100.809H84.9932C84.9932 101.914 85.8887 102.809 86.9932 102.809V100.809ZM86.9932 98.0654V96.0654C85.8887 96.0654 84.9932 96.9608 84.9932 98.0654H86.9932ZM99.0332 98.0654L101.033 98.0579C101.029 96.9563 100.135 96.0654 99.0332 96.0654V98.0654ZM87.4972 116.097L85.8127 117.175C86.3547 118.022 87.4411 118.335 88.3505 117.906L87.4972 116.097ZM104.537 95.4334V120.353H108.537V95.4334H104.537ZM106.537 118.353H103.009V122.353H106.537V118.353ZM105.009 120.353V95.4334H101.009V120.353H105.009ZM103.009 97.4334H106.537V93.4334H103.009V97.4334ZM86.5648 115.103C89.9613 113.487 92.5591 111.569 94.3847 109.197C96.2254 106.805 97.1837 104.078 97.495 101.011L93.5155 100.607C93.2668 103.057 92.5311 105.047 91.2148 106.758C89.8833 108.488 87.8612 110.056 84.8457 111.492L86.5648 115.103ZM95.5052 98.8094H86.9932V102.809H95.5052V98.8094ZM88.9932 100.809V98.0654H84.9932V100.809H88.9932ZM86.9932 100.065H99.0332V96.0654H86.9932V100.065ZM97.0332 98.0728C97.0464 101.606 96.4284 104.681 94.8872 107.323C93.3546 109.95 90.8052 112.326 86.644 114.289L88.3505 117.906C93.0933 115.669 96.3259 112.795 98.3422 109.339C100.35 105.897 101.048 102.057 101.033 98.0579L97.0332 98.0728ZM89.1818 115.019L87.3898 112.219L84.0207 114.375L85.8127 117.175L89.1818 115.019Z" fill="#B11007" mask="url(#path-6-outside-1_2855_600179)"/>
<defs>
<filter id="filter0_di_2855_600179" x="5" y="37" width="131" height="131" filterUnits="userSpaceOnUse" color-interpolation-filters="sRGB">
<feFlood flood-opacity="0" result="BackgroundImageFix"/>
<feColorMatrix in="SourceAlpha" type="matrix" values="0 0 0 0 0 0 0 0 0 0 0 0 0 0 0 0 0 0 127 0" result="hardAlpha"/>
<feOffset dx="-4" dy="-4"/>
<feComposite in2="hardAlpha" operator="out"/>
<feColorMatrix type="matrix" values="0 0 0 0 0.495833 0 0 0 0 0.0185938 0 0 0 0 0.0185938 0 0 0 0.2 0"/>
<feBlend mode="normal" in2="BackgroundImageFix" result="effect1_dropShadow_2855_600179"/>
<feBlend mode="normal" in="SourceGraphic" in2="effect1_dropShadow_2855_600179" result="shape"/>
<feColorMatrix in="SourceAlpha" type="matrix" values="0 0 0 0 0 0 0 0 0 0 0 0 0 0 0 0 0 0 127 0" result="hardAlpha"/>
<feOffset dx="-5" dy="-5"/>
<feComposite in2="hardAlpha" operator="arithmetic" k2="-1" k3="1"/>
<feColorMatrix type="matrix" values="0 0 0 0 0.908333 0 0 0 0 0.109757 0 0 0 0 0.109757 0 0 0 0.8 0"/>
<feBlend mode="normal" in2="shape" result="effect2_innerShadow_2855_600179"/>
</filter>
</defs>
</svg>
