<svg width="118" height="112" viewBox="0 0 118 112" fill="none" xmlns="http://www.w3.org/2000/svg">
<g clip-path="url(#clip0_1952_141320)">
<path opacity="0.76" d="M63.9322 44.9262C66.5127 36.7881 71.6036 29.4614 78.3379 24.1963C81.6904 21.5752 85.5481 19.4197 89.7675 18.8185C93.9869 18.2174 98.6058 19.3749 101.487 22.5093C105.516 26.8937 105.17 33.8636 102.789 39.311C99.8794 45.9691 94.2802 51.4096 87.531 54.132C83.2646 55.854 78.9289 56.2914 74.5205 55.9469C71.4231 52.0695 67.6318 49.0482 63.4027 46.7869C63.5676 46.1153 63.7546 45.4816 63.9326 44.9233L63.9322 44.9262Z" fill="#ADDEE5"/>
<path opacity="0.76" d="M56.0205 47.1315C52.0637 40.7205 49.8261 33.2599 49.6392 25.7358C49.5341 21.4857 50.104 17.1125 52.1402 13.3801C54.1764 9.64772 57.8632 6.64272 62.1038 6.21166C68.033 5.61258 73.4283 10.0556 76.3888 15.2167C80.0038 21.5255 81.0329 29.2579 79.1942 36.2838C77.8125 41.5639 74.9136 45.8354 71.1715 49.6073C66.3661 47.8072 61.2288 47.0442 56.0208 47.1286L56.0205 47.1315Z" fill="#ADDEE5"/>
<path d="M94.7042 30.3571C89.5365 31.9725 84.9786 35.3128 81.8431 39.7151C80.9624 40.955 80.1996 42.2705 79.5675 43.6515C79.4123 43.992 78.869 43.7748 79.0245 43.4315C81.3208 38.4212 85.2929 34.2501 90.1479 31.639C91.5267 30.8991 92.9726 30.2907 94.4666 29.8232C94.8217 29.7123 95.0594 30.2462 94.701 30.3597L94.7042 30.3571Z" fill="white"/>
<path d="M62.9771 19.8276C65.5515 25.1871 67.0639 31.0504 67.3915 36.9854C67.4831 38.6549 67.4832 40.3253 67.3922 41.9937C67.3712 42.3706 66.79 42.2989 66.8107 41.925C67.1286 36.0662 66.2826 30.1523 64.3305 24.6164C63.7828 23.0636 63.1519 21.5421 62.4365 20.0607C62.2733 19.7209 62.8109 19.4874 62.9742 19.8272L62.9771 19.8276Z" fill="white"/>
<path d="M93.5404 76.5542L108.152 83.4686C109.062 83.8997 108.787 85.2581 107.782 85.3012L91.7951 86.0084L93.5433 76.5545L93.5404 76.5542Z" fill="#4B241A"/>
<path d="M32.6688 103.166L63.6006 106.531C81.4215 108.469 97.5858 95.5108 99.5185 77.7356C101.451 59.9605 88.4507 43.8288 70.6299 41.8903L39.6981 38.5257C18.5683 35.8961 5.71295 49.5454 3.78024 67.3206C1.84752 85.0958 14.848 101.227 32.6688 103.166Z" fill="#682F00"/>
<path d="M76.3777 75.5561C77.8586 61.9535 72.1637 49.1437 62.3496 40.9024L70.3051 41.7691C71.5713 41.907 72.8135 42.1244 74.028 42.4003C83.5843 50.6523 89.0964 63.2875 87.6385 76.6958C86.2341 89.6017 78.6778 100.425 68.2099 106.572C66.5859 106.642 64.9379 106.591 63.2758 106.409L56.5165 105.675C67.2088 99.5752 74.9553 88.6393 76.3774 75.559L76.3777 75.5561Z" fill="#FFCD00"/>
<path d="M42.639 23.4977C41.5745 22.5014 43.183 20.9152 44.245 21.9083C47.0165 24.5032 48.8758 28.1049 49.8713 31.7309C50.8918 35.4452 51.0261 39.5223 49.3514 43.0651C49.0916 43.6166 48.2943 43.7518 47.8009 43.4611C47.236 43.1268 47.1399 42.4684 47.4029 41.9143C48.8339 38.8868 48.5259 35.2567 47.6344 32.1223C46.7243 28.921 45.0898 25.7871 42.6397 23.4919L42.639 23.4977Z" fill="#FFCD00"/>
<path d="M21.6488 28.0158C24.7766 28.7678 27.8545 29.9168 30.383 31.9477C32.9469 34.0035 34.5404 36.9356 35.1803 40.1284C35.4637 41.5471 33.282 42.145 32.9967 40.7173C32.4269 37.8797 31.0846 35.342 28.777 33.5371C26.5399 31.7847 23.77 30.8486 21.038 30.1904C19.6218 29.8495 20.2326 27.675 21.6488 28.0158Z" fill="#FFCD00"/>
<path d="M43.2093 18.5978C47.214 18.6153 47.1938 24.8239 43.1832 24.8057C39.1784 24.7882 39.1987 18.5796 43.2093 18.5978Z" fill="#FF672F"/>
<path d="M20.1043 25.4962C24.1091 25.5137 24.0888 31.7223 20.0782 31.7041C16.0734 31.6867 16.0937 25.4781 20.1043 25.4962Z" fill="#FF672F"/>
<path d="M6.89657 68.0457C8.68265 52.7088 19.8545 34.5434 38.3435 48.8652C59.2062 41.0822 69.4655 59.9013 64.1526 79.459C60.1063 94.3612 47.7526 100.947 32.0677 99.1229C16.3798 97.2982 5.1105 83.3826 6.89657 68.0457Z" fill="#FFCD00"/>
<path d="M36.1786 47.652C35.1981 46.8921 34.2387 46.2288 33.2962 45.6469C34.3377 46.164 35.4073 46.7933 36.5049 47.5347C36.3941 47.5746 36.2865 47.6118 36.1756 47.6517L36.1786 47.652Z" fill="#FF9F00"/>
<path d="M29.9026 97.9066C45.5905 99.7313 57.9413 93.145 61.9875 78.2428C65.3485 65.871 62.4763 53.8007 54.6332 48.5655C64.0948 52.9039 67.8062 66.0056 64.1526 79.4574C60.1064 94.3595 47.7527 100.946 32.0677 99.1212C27.6556 98.6086 23.5897 97.137 20.0687 94.9475C23.0559 96.4651 26.3661 97.4945 29.9026 97.9066Z" fill="#FF9F00"/>
<path opacity="0.4" d="M41.1605 79.4149C41.5151 80.6802 43.8592 81.1278 46.3928 80.4215C48.9267 79.7123 50.6932 78.1125 50.3353 76.8497C49.9807 75.5844 47.6365 75.1368 45.103 75.8431C42.569 76.5524 40.8026 78.1522 41.1605 79.4149Z" fill="#FF5A93"/>
<path opacity="0.4" d="M24.1249 77.242C23.3862 78.328 21.0209 78.0103 18.8427 76.5324C16.6646 75.0545 15.5006 72.979 16.2421 71.8932C16.9837 70.8075 19.3462 71.1249 21.5243 72.6028C23.7025 74.0807 24.8665 76.1562 24.1249 77.242Z" fill="#FF5A93"/>
<path d="M14.7014 64.9393C14.7122 64.9496 14.729 64.9607 14.7481 64.9779C14.7343 64.9673 14.7205 64.9566 14.707 64.943L14.7014 64.9393Z" fill="#200B06"/>
<path d="M44.1102 74.3622C41.2934 74.0293 39.3818 70.6131 39.8405 66.732C40.2992 62.8509 42.9545 59.9745 45.7712 60.3074C48.588 60.6403 50.4996 64.0564 50.0409 67.9376C49.5822 71.8187 46.9269 74.6951 44.1102 74.3622Z" fill="#682F00"/>
<path d="M23.814 71.9638C20.9972 71.6309 19.0856 68.2147 19.5443 64.3336C20.003 60.4524 22.6583 57.576 25.4751 57.9089C28.2919 58.2418 30.2035 61.658 29.7448 65.5391C29.2861 69.4203 26.6308 72.2967 23.814 71.9638Z" fill="#682F00"/>
<path d="M43.7366 73.5074C41.1736 73.2045 39.4342 70.0958 39.8516 66.5638C40.2691 63.0319 42.6852 60.4142 45.2482 60.7171C47.8113 61.0201 49.5506 64.1288 49.1332 67.6608C48.7158 71.1927 46.2997 73.8103 43.7366 73.5074Z" fill="white"/>
<path d="M41.8476 70.6826C40.648 70.5408 39.8339 69.0858 40.0292 67.4328C40.2246 65.7798 41.3555 64.5546 42.5551 64.6964C43.7547 64.8382 44.5688 66.2932 44.3734 67.9462C44.1781 69.5993 43.0472 70.8244 41.8476 70.6826Z" fill="black"/>
<path d="M24.7286 71.2613C22.1655 70.9584 20.4262 67.8497 20.8436 64.3177C21.261 60.7858 23.6772 58.1681 26.2402 58.4711C28.8032 58.774 30.5426 61.8827 30.1252 65.4147C29.7077 68.9466 27.2916 71.5643 24.7286 71.2613Z" fill="white"/>
<path d="M26.7101 68.8904C25.4543 68.742 24.602 67.2193 24.8064 65.4894C25.0109 63.7594 26.1947 62.4774 27.4505 62.6258C28.7063 62.7742 29.5586 64.2969 29.3542 66.0268C29.1497 67.7568 27.9659 69.0388 26.7101 68.8904Z" fill="black"/>
<path d="M30.7541 74.639C29.9952 74.5493 29.3233 75.0199 29.334 75.6534C29.3882 78.3624 30.7561 80.5591 32.6811 80.7866C34.606 81.0141 36.4483 79.1968 37.1326 76.5751C37.2935 75.9618 36.747 75.3473 35.988 75.2576L30.7541 74.639Z" fill="#E94245"/>
</g>
<defs>
<clipPath id="clip0_1952_141320">
<rect width="106.204" height="100" fill="white" transform="matrix(-0.993088 -0.117369 -0.117369 0.993088 117.207 12.4648)"/>
</clipPath>
</defs>
</svg>
