<svg width="108" height="83" viewBox="0 0 108 83" fill="none" xmlns="http://www.w3.org/2000/svg">
<g clip-path="url(#clip0_2661_447138)">
<path d="M85.817 67.5806L84.4448 64.5684L62.1875 73.7725L63.6727 77.0065L85.817 67.5806Z" fill="#FFAEA6"/>
<path d="M88.7784 66.3205L61.6094 77.8867L63.9691 83.4299L91.1382 71.8637L88.7784 66.3205Z" fill="white"/>
<path d="M92.1875 71.209L62.5 83.8479L70.9971 105.001H107.429L92.1875 71.209Z" fill="#FFDC48"/>
<path d="M49.9771 60.1298L54.5457 71.727C54.5457 71.727 56.9388 75.8563 61.4404 74.9527L80.2169 67.422L83.6475 66.2799L78.9743 51.6997L72.4394 36.1949L53.8136 26.8652L50.521 43.2821L49.9688 60.1256L49.9771 60.1298Z" fill="#FFAEA6"/>
<g style="mix-blend-mode:multiply">
<path d="M50.5625 60.5781L51.7925 64.4857H80.8399C82.4925 64.4857 83.8271 63.1469 83.8271 61.4985V60.5781H50.5625Z" fill="#FFE7DC"/>
</g>
<path d="M81.9616 4.79297H48.0234V61.6578H81.9616V4.79297Z" fill="#282828"/>
<path d="M81.5233 7.25H48.4219V61.0273H81.5233V7.25Z" fill="#48D8B2"/>
<path d="M79.6385 6.39844H79.1406V6.68711H79.6385V6.39844Z" fill="#DDDDDD"/>
<path d="M78.5469 6.68594H79.0447V6.23828H78.5469V6.68594Z" fill="#DDDDDD"/>
<path d="M77.9375 6.68501H78.4354V5.98633H77.9375V6.68501Z" fill="#DDDDDD"/>
<path d="M77.3125 6.69023H77.8104V5.79492H77.3125V6.69023Z" fill="#DDDDDD"/>
<path d="M77.2088 5.43945H76.7109V6.69038H77.2088V5.43945Z" fill="#DDDDDD"/>
<path d="M74.4164 6.3734C74.3662 6.46126 74.3913 6.57841 74.475 6.63279C74.5586 6.68718 74.6674 6.6579 74.7218 6.57004C74.7762 6.48218 74.7469 6.36504 74.6632 6.31065C74.5795 6.25626 74.4708 6.28555 74.4164 6.3734Z" fill="#DDDDDD"/>
<path d="M75.0618 6.30746C75.0618 6.30746 74.9321 6.06899 74.5932 6.06062C74.5932 6.06062 74.2753 6.07735 74.1247 6.34511L73.9531 6.20705C73.9531 6.20705 74.1247 5.87235 74.4928 5.82633C74.4928 5.82633 74.9321 5.77613 75.225 6.16521L75.0618 6.31164V6.30746Z" fill="#DDDDDD"/>
<path d="M75.4017 5.96568C75.4017 5.96568 75.1214 5.53476 74.5398 5.55987C74.5398 5.55987 74.0503 5.55987 73.7491 6.04099L73.5859 5.91548C73.5859 5.91548 73.8453 5.3967 74.4436 5.32139C74.4436 5.32139 75.0963 5.22935 75.5565 5.83599L75.4017 5.96568Z" fill="#DDDDDD"/>
<path d="M53.3441 6.57712H51.2188V5.38477H53.3441V6.57712ZM51.3024 6.48926H53.2604V5.46844H51.3024V6.48926Z" fill="#DDDDDD"/>
<path d="M53.0914 5.62145L52.6562 5.62305L52.6588 6.32172L53.0939 6.32013L53.0914 5.62145Z" fill="#DDDDDD"/>
<path d="M52.0156 6.32535H52.4549V5.63086H52.0198L52.0156 6.32535Z" fill="#DDDDDD"/>
<path d="M51.3006 6.26232H50.8906V5.63477H51.3006V6.25814V6.26232ZM50.9743 6.17865H51.217V5.72262H50.9785V6.17865H50.9743Z" fill="#DDDDDD"/>
<path d="M62.5938 3.86398C62.5938 4.0648 62.7234 4.22796 62.8824 4.22796H67.108C67.2669 4.22796 67.3966 4.06898 67.3966 3.86398C67.3966 3.66316 67.2669 3.5 67.108 3.5H62.8824C62.7234 3.5 62.5938 3.66316 62.5938 3.86398Z" fill="#6E7075"/>
<path d="M79.6462 63.8873C78.5937 63.841 77.9568 63.841 73.1152 63.841C68.5367 63.841 64.8529 63.8642 63.6162 63.8642V63.8873H50.2755C47.9336 63.8873 46.0391 62.2183 46.0391 60.1551V6.73224C46.0391 4.66908 47.9336 3 50.2755 3H80.1988C82.5406 3 84.4352 4.66908 84.4352 6.73224V60.1551C84.4352 62.2183 82.5406 63.8873 80.1988 63.8873H79.6462Z" fill="#241352"/>
<path d="M79.3914 4.46875H51.0736C49.1313 4.46875 47.5625 5.87772 47.5625 7.62216V56.1653C47.5625 57.9098 49.1313 59.3188 51.0736 59.3188H63.2254C63.2254 59.2517 79.1175 59.2517 79.1673 59.3188H79.3914C81.3337 59.3188 82.9025 57.9098 82.9025 56.1653V7.62216C82.9025 5.87772 81.3337 4.46875 79.3914 4.46875Z" fill="#37C3D6"/>
<path fill-rule="evenodd" clip-rule="evenodd" d="M62.0758 24.002C61.385 24.002 60.7902 24.4892 60.6543 25.1664L60.4041 26.4121C60.307 26.8958 59.8822 27.2439 59.3888 27.2439H56.3717C55.571 27.2439 54.9219 27.893 54.9219 28.6937V38.7076C54.9219 39.5083 55.571 40.1575 56.3717 40.1575H74.2339C75.0346 40.1575 75.6838 39.5083 75.6838 38.7076V28.6937C75.6838 27.893 75.0346 27.2439 74.2339 27.2439H71.2168C70.7235 27.2439 70.2986 26.8958 70.2014 26.4121L69.9513 25.1664C69.8154 24.4892 69.2206 24.002 68.5299 24.002H62.0758Z" fill="white"/>
<path d="M65.3041 36.9773C67.2151 36.9773 68.7644 35.428 68.7644 33.517C68.7644 31.6059 67.2151 30.0566 65.3041 30.0566C63.393 30.0566 61.8438 31.6059 61.8438 33.517C61.8438 35.428 63.393 36.9773 65.3041 36.9773Z" fill="#37C3D6"/>
<path d="M72.7936 31.8743C73.5943 31.8743 74.2435 31.2252 74.2435 30.4245C74.2435 29.6237 73.5943 28.9746 72.7936 28.9746C71.9929 28.9746 71.3438 29.6237 71.3438 30.4245C71.3438 31.2252 71.9929 31.8743 72.7936 31.8743Z" fill="white"/>
<path d="M76 21.5C73.8468 22.0463 73.4661 22.488 73 25C72.5317 22.488 72.1532 22.0438 70 21.5C72.1532 20.9537 72.5339 20.512 73 18C73.4683 20.512 73.8468 20.9562 76 21.5Z" fill="white"/>
<path d="M80 25.5C78.563 25.8889 78.3111 26.2063 78 28C77.6889 26.2037 77.4349 25.8889 76 25.5C77.437 25.1111 77.6889 24.7937 78 23C78.3111 24.7963 78.5651 25.1111 80 25.5Z" fill="white"/>
<g style="mix-blend-mode:multiply">
<path d="M84.0681 65.3418C84.0681 65.3418 86.3942 65.1661 86.7791 63.2332V35.9513C86.7791 35.9513 86.457 33.5415 83.817 33.5666C83.817 33.5666 80.9889 33.5206 79.9931 35.9388C79.9931 35.9388 79.4535 36.9261 79.4535 39.1016V52.343C79.4535 52.343 74.5836 57.3175 74.3828 64.4841" fill="#D3DEE2"/>
</g>
<path d="M84.806 66.275C84.806 66.275 88.0317 64.4509 88.0317 61.1667V35.9474C88.0317 35.9474 87.7095 33.5376 85.0696 33.5627C85.0696 33.5627 82.2414 33.5167 81.2457 35.9349C81.2457 35.9349 80.706 36.9222 80.706 39.0977V52.3391C80.706 52.3391 75.2086 57.7445 75.0078 64.9111" fill="#FFAEA6"/>
<g style="mix-blend-mode:multiply">
<path d="M43.402 50.3307C42.4021 51.9163 42.7619 53.9412 44.2053 54.8533L46.6694 56.4054C48.117 57.3175 50.1001 56.7694 51.1 55.1838C52.0999 53.5982 51.7401 51.5733 50.2967 50.6612L47.8325 49.1091C46.3891 48.197 44.4019 48.7451 43.402 50.3307Z" fill="#D6E8ED"/>
</g>
<path d="M42.566 49.9128C41.5661 51.4984 41.9259 53.5233 43.3693 54.4353L45.8335 55.9875C47.2769 56.8995 49.2641 56.3515 50.264 54.7658C51.264 53.1802 50.9042 51.1553 49.4608 50.2433L46.9966 48.6911C45.5532 47.7791 43.5659 48.3271 42.566 49.9128Z" fill="#FFAEA6"/>
<g style="mix-blend-mode:multiply">
<path d="M43.402 42.1569C42.4021 43.7425 42.7619 45.7674 44.2053 46.6795L46.6694 48.2316C48.117 49.1437 50.1001 48.5956 51.1 47.01C52.0999 45.4244 51.7401 43.3995 50.2967 42.4874L47.8325 40.9353C46.3891 40.0232 44.4019 40.5713 43.402 42.1569Z" fill="#D6E8ED"/>
</g>
<path d="M42.566 41.735C41.5661 43.3206 41.9259 45.3455 43.3693 46.2576L45.8335 47.8097C47.2769 48.7218 49.2641 48.1737 50.264 46.5881C51.264 45.0025 50.9042 42.9776 49.4608 42.0655L46.9966 40.5134C45.5532 39.6013 43.5659 40.1494 42.566 41.735Z" fill="#FFAEA6"/>
<g style="mix-blend-mode:multiply">
<path d="M43.8551 34.1881C42.8552 35.7738 43.215 37.7987 44.6584 38.7107L47.1226 40.2629C48.5701 41.1749 50.5532 40.6269 51.5531 39.0412C52.553 37.4556 52.1932 35.4307 50.7498 34.5187L48.2856 32.9665C46.8423 32.0545 44.855 32.6025 43.8551 34.1881Z" fill="#D6E8ED"/>
</g>
<path d="M43.0192 33.7721C42.0193 35.3577 42.3791 37.3827 43.8224 38.2947L46.2866 39.8469C47.73 40.7589 49.7131 40.2108 50.7172 38.6252C51.7171 37.0396 51.3573 35.0147 49.9139 34.1026L47.4497 32.5505C46.0021 31.6384 44.0191 32.1865 43.0192 33.7721Z" fill="#FFAEA6"/>
<g style="mix-blend-mode:multiply">
<path d="M43.8551 25.5807C42.8552 27.1663 43.215 29.1913 44.6584 30.1033L47.1226 31.6555C48.5701 32.5675 50.5532 32.0194 51.5531 30.4338C52.553 28.8482 52.1932 26.8233 50.7498 25.9112L48.2856 24.3591C46.8423 23.447 44.855 23.9951 43.8551 25.5807Z" fill="#D6E8ED"/>
</g>
<path d="M43.0192 24.8893C42.0193 26.4749 42.3791 28.4998 43.8224 29.4119L46.2866 30.964C47.73 31.8761 49.7131 31.328 50.7172 29.7424C51.7171 28.1568 51.3573 26.1319 49.9139 25.2198L47.4497 23.6677C46.0021 22.7556 44.0191 23.3037 43.0192 24.8893Z" fill="#FFAEA6"/>
</g>
<defs>
<clipPath id="clip0_2661_447138">
<rect width="108" height="83" fill="white"/>
</clipPath>
</defs>
</svg>
