<svg width="26" height="26" viewBox="0 0 26 26" fill="none" xmlns="http://www.w3.org/2000/svg">
<path d="M20.2911 6.75H21.3328C22.4834 6.75 23.4161 7.68274 23.4161 8.83333V20.2917C23.4161 21.4423 22.4834 22.375 21.3328 22.375H4.6661C3.5155 22.375 2.58276 21.4423 2.58276 20.2917V8.83333C2.58276 7.68274 3.5155 6.75 4.6661 6.75H5.70776" stroke="#F04C42" stroke-width="1.5" stroke-linecap="round" stroke-linejoin="round"/>
<path d="M13 21.3331V6.58203" stroke="#F04C42" stroke-width="1.5" stroke-linecap="round" stroke-linejoin="round"/>
<path d="M13 6.5821C14.3461 5.06777 16.1808 4.07373 18.1845 3.77318L19.0955 3.63653C19.3954 3.59155 19.7 3.67948 19.9298 3.87737C20.1595 4.07526 20.2917 4.36345 20.2917 4.6667V17.3111C20.2917 17.8267 19.9144 18.2647 19.4045 18.3412L18.1845 18.5242C16.1808 18.8248 14.3461 19.8188 13 21.3331" stroke="#F04C42" stroke-width="1.5" stroke-linecap="round" stroke-linejoin="round"/>
<path d="M12.9994 6.58208C11.6534 5.06776 9.81864 4.07373 7.81496 3.77318L6.90395 3.63653C6.60406 3.59155 6.29946 3.67948 6.06968 3.87736C5.8399 4.07525 5.70776 4.36344 5.70776 4.66668V17.3111C5.70776 17.8267 6.08499 18.2647 6.59491 18.3412L7.81496 18.5242C9.81864 18.8248 11.6534 19.8188 12.9994 21.3331" stroke="#F04C42" stroke-width="1.5" stroke-linecap="round" stroke-linejoin="round"/>
</svg>
