<svg width="70" height="61" viewBox="0 0 70 61" fill="none" xmlns="http://www.w3.org/2000/svg">
<path d="M68.594 28.703C69.3654 29.4935 69.3654 30.7596 68.594 31.5502C53.6072 46.91 46.2682 60.2532 30.1266 60.2532C13.4881 60.2532 0 46.765 0 30.1266C0 13.4881 13.4881 0 30.1266 0C46.2682 0 53.6072 13.3432 68.594 28.703Z" fill="#81B01B"/>
<mask id="mask0_2855_600189" style="mask-type:alpha" maskUnits="userSpaceOnUse" x="0" y="0" width="70" height="61">
<path d="M68.594 28.703C69.3654 29.4935 69.3654 30.7596 68.594 31.5502C53.6072 46.91 46.2682 60.2532 30.1266 60.2532C13.4881 60.2532 0 46.765 0 30.1266C0 13.4881 13.4881 0 30.1266 0C46.2682 0 53.6072 13.3432 68.594 28.703Z" fill="#81B01B"/>
</mask>
<g mask="url(#mask0_2855_600189)">
<path d="M15.6484 15.4856H20.0116V58.754H15.6484V15.4856Z" fill="#EBF0F3" stroke="black" stroke-width="0.5"/>
<path d="M50.2724 23.955L50.5923 23.55H50.0762H30.8047H30.5547V23.8V40.207V40.457H30.8047H50.0762H50.59L50.273 40.0527L43.9382 31.9745L50.2724 23.955Z" fill="#F7BE56" stroke="black" stroke-width="0.5"/>
<path d="M17.2479 18.4776C19.4862 18.4776 21.3006 16.6632 21.3006 14.4249C21.3006 12.1867 19.4862 10.3723 17.2479 10.3723C15.0097 10.3723 13.1953 12.1867 13.1953 14.4249C13.1953 16.6632 15.0097 18.4776 17.2479 18.4776Z" fill="#3C4F12"/>
<path d="M31.0484 35.9478V35.6978H30.7984H15.6484V19.8501H35.82V35.8242L31.0484 39.4699V35.9478Z" fill="#FCD462" stroke="black" stroke-width="0.5"/>
</g>
</svg>
