<svg width="39" height="39" viewBox="0 0 39 39" fill="none" xmlns="http://www.w3.org/2000/svg">
<path fill-rule="evenodd" clip-rule="evenodd" d="M19.4602 17.9565C21.6244 20.1207 21.6244 23.6294 19.4602 25.7936C17.2961 27.9578 13.7873 27.9578 11.6231 25.7936C9.45896 23.6294 9.45896 20.1207 11.6231 17.9565C13.7873 15.7923 17.2961 15.7923 19.4602 17.9565Z" stroke="black" stroke-width="1.5" stroke-linecap="round" stroke-linejoin="round"/>
<path d="M11.625 25.7877L15.5374 21.8753V16.6598" stroke="black" stroke-width="1.5" stroke-linecap="round" stroke-linejoin="round"/>
<path fill-rule="evenodd" clip-rule="evenodd" d="M33.75 30.5833V12.8943C33.75 12.0552 33.4159 11.2493 32.8238 10.6571L28.3445 6.17783C27.7508 5.58408 26.9448 5.25 26.1057 5.25H8.41667C6.66708 5.25 5.25 6.66708 5.25 8.41667V30.5833C5.25 32.3329 6.66708 33.75 8.41667 33.75H30.5833C32.3329 33.75 33.75 32.3329 33.75 30.5833Z" stroke="black" stroke-width="1.5" stroke-linecap="round" stroke-linejoin="round"/>
<path d="M33.7526 13.1667H27.4193C26.5453 13.1667 25.8359 12.4573 25.8359 11.5833V5.25" stroke="black" stroke-width="1.5" stroke-linecap="round" stroke-linejoin="round"/>
<path d="M25.8359 19.5H29.0026" stroke="black" stroke-width="1.5" stroke-linecap="round" stroke-linejoin="round"/>
<path d="M25.8359 24.25H29.0026" stroke="black" stroke-width="1.5" stroke-linecap="round" stroke-linejoin="round"/>
</svg>
