<svg width="100" height="100" viewBox="0 0 100 100" fill="none" xmlns="http://www.w3.org/2000/svg">
<g clip-path="url(#clip0_2532_68145)">
<path d="M29.1665 33.3333V16.6667C29.1665 14.3667 31.0332 12.5 33.3332 12.5H66.6665C68.9665 12.5 70.8332 14.3667 70.8332 16.6667V33.3333" stroke="black" stroke-width="3" stroke-linecap="round" stroke-linejoin="round"/>
<path d="M29.1667 70.832H20.8333C16.2292 70.832 12.5 67.1029 12.5 62.4987V41.6654C12.5 37.0612 16.2292 33.332 20.8333 33.332H79.1667C83.7708 33.332 87.5 37.0612 87.5 41.6654V45.832" stroke="black" stroke-width="3" stroke-linecap="round" stroke-linejoin="round"/>
<path d="M29.1665 45.832H33.3332" stroke="black" stroke-width="3" stroke-linecap="round" stroke-linejoin="round"/>
<path d="M45.8332 87.4987H33.3332C31.0332 87.4987 29.1665 85.682 29.1665 83.4487V58.332H45.8332" stroke="black" stroke-width="3" stroke-linecap="round" stroke-linejoin="round"/>
<path fill-rule="evenodd" clip-rule="evenodd" d="M59.6582 86.1768C52.3332 78.8518 52.3374 66.981 59.6582 59.6602C66.979 52.3393 78.8499 52.3352 86.1749 59.6602C93.4957 66.981 93.4957 78.856 86.1749 86.1768C78.854 93.4977 66.979 93.4977 59.6582 86.1768Z" fill="#F04C42"/>
<path d="M77.3333 68.5L68.5 77.3333" stroke="white" stroke-width="3" stroke-linecap="round" stroke-linejoin="round"/>
<path d="M68.5 68.5L77.3333 77.3333" stroke="white" stroke-width="3" stroke-linecap="round" stroke-linejoin="round"/>
</g>
<defs>
<clipPath id="clip0_2532_68145">
<rect width="100" height="100" fill="white"/>
</clipPath>
</defs>
</svg>
