<svg width="107" height="221" viewBox="0 0 107 221" fill="none" xmlns="http://www.w3.org/2000/svg">
<g filter="url(#filter0_d_2855_605943)">
<path d="M76.5523 51.3498L76.3272 50.5801H32.4439L32.2188 51.3498H76.5523Z" fill="#0D2246"/>
<path d="M77.0299 9.09079C74.9032 9.09079 72.8517 9.53771 71.0003 10.3074C67.8729 4.5471 61.7933 0.599315 54.738 0.5C54.6879 0.5 54.6379 0.5 54.5879 0.5C54.5628 0.5 54.5128 0.5 54.4878 0.5C47.4575 0.599315 41.3528 4.5471 38.2255 10.3074C36.3741 9.51288 34.3475 9.09079 32.2209 9.09079C23.8145 9.09079 16.9844 15.8691 16.9844 24.2116C16.9844 32.5541 23.8145 39.3323 32.2209 39.3323C32.8964 39.3323 33.5469 39.2827 34.2224 39.2082C35.5985 44.174 35.7236 49.4625 35.7236 49.4625H54.5628H54.6879H73.5522C73.5522 49.4625 73.6523 44.174 75.0534 39.2082C75.7039 39.2827 76.3794 39.3323 77.0549 39.3323C85.4612 39.3323 92.2914 32.5541 92.2914 24.2116C92.2914 15.8691 85.4362 9.09079 77.0299 9.09079Z" fill="url(#paint0_linear_2855_605943)"/>
<path d="M88.2365 13.9824C88.4366 14.8514 88.5867 15.7453 88.6618 16.6391C89.2122 22.9705 84.8589 29.4011 78.7043 31.2633C75.3767 32.2565 70.6231 32.331 67.821 30.1212C67.746 30.1957 67.6959 30.2702 67.6209 30.3198C63.2175 34.8635 56.8127 36.6263 50.608 35.807C46.655 35.2856 42.4768 33.6717 40.2001 30.6178C39.9499 30.7667 39.7247 30.9157 39.4745 31.0399C34.6709 33.6221 28.7664 34.4166 23.6376 32.4054C21.2107 31.4619 18.984 29.7736 17.3828 27.6383C18.934 34.3421 24.9886 39.3575 32.2191 39.3575C32.8946 39.3575 33.5451 39.3079 34.2206 39.2334C35.5966 44.1992 35.7217 49.4877 35.7217 49.4877H73.5504C73.5504 49.4877 73.6504 44.1992 75.0515 39.2334C75.702 39.3079 76.3775 39.3575 77.053 39.3575C85.4594 39.3575 92.2896 32.5792 92.2896 24.2367C92.2645 20.2641 90.7384 16.6639 88.2365 13.9824Z" fill="url(#paint1_linear_2855_605943)"/>
<path d="M42.1016 10.929C42.1016 11.2518 42.1016 11.5994 42.2767 11.8973C42.677 12.5925 43.6778 12.5925 44.4784 12.4436C48.5314 11.7484 52.3593 9.8117 55.2866 6.95638C55.6618 6.60878 56.0121 6.21152 56.2123 5.73977C56.4124 5.26802 56.4124 4.67213 56.0872 4.27487C55.887 4.02658 55.6118 3.8776 55.3366 3.75346C49.9325 1.27057 42.2267 4.49833 42.1016 10.929Z" fill="white"/>
<path d="M80.5081 12.1694C79.9827 9.81069 75.2041 11.6232 74.3034 12.5915C74.1283 12.7902 73.9531 13.0384 73.9531 13.2867C73.9781 13.8081 74.6286 14.0316 75.129 14.0813C76.2048 14.1806 77.3057 14.1557 78.3815 13.9819C79.2071 13.8578 80.1578 13.535 80.4581 12.7653C80.5331 12.5915 80.5581 12.3681 80.5081 12.1694Z" fill="white"/>
<path d="M19.1101 23.2687C19.035 23.7653 19.01 24.3363 19.3353 24.7584C19.6355 25.1557 20.1859 25.2798 20.6613 25.2053C21.1617 25.1309 21.587 24.9074 22.0373 24.6591C25.2147 22.8963 28.3671 20.612 29.7932 17.2849C31.4444 13.4116 26.9911 11.2019 24.0889 13.5606C21.3618 15.7704 19.5354 19.892 19.1101 23.2687Z" fill="white"/>
<path d="M91.3885 19.1719C91.2384 23.0948 89.8874 27.0178 87.5106 30.0221C83.1323 35.5589 73.8252 37.4211 67.3703 34.4168C66.7199 35.2113 65.9943 35.9314 65.1937 36.6017C62.4666 38.8363 59.2142 40.4006 55.7115 40.9716C53.2096 41.3689 50.9579 41.1951 48.456 40.773C46.0042 40.3509 42.2263 39.4074 39.9496 37.4707C38.6236 38.2404 37.1475 38.8612 35.5462 39.3081C35.1459 39.4074 34.7456 39.5067 34.3203 39.606C35.5963 44.4477 35.6964 49.4631 35.6964 49.4631H73.55C73.55 49.4631 73.6501 44.1745 75.0512 39.2088C75.7017 39.2833 76.3772 39.3329 77.0527 39.3329C85.459 39.3329 92.2892 32.5546 92.2892 24.2121C92.2642 22.4493 91.939 20.7361 91.3885 19.1719Z" fill="url(#paint2_linear_2855_605943)"/>
<path d="M39.4018 40.5247C37.5004 41.7165 34.8984 42.2876 34.8984 42.2876C35.624 46.136 35.674 49.4631 35.674 49.4631H73.5527C73.5527 49.4631 73.6028 46.6078 74.1782 43.1318C69.0243 42.2876 66.8977 39.8047 66.8977 39.8047C66.8977 39.8047 61.3935 43.6035 52.6619 43.6035C43.9053 43.6035 39.4018 40.5247 39.4018 40.5247Z" fill="#263959"/>
<path d="M67.0715 40.002C64.8198 48.1458 57.2891 49.4617 57.2891 49.4617H73.5514C73.5514 49.4617 73.6014 46.6064 74.1769 43.1304C69.8986 42.4352 67.6969 40.5978 67.0715 40.002Z" fill="#0D2246"/>
<path d="M37.3281 49.4629C37.3281 49.4629 39.6549 48.2215 40.0052 45.8379C40.0052 45.8379 41.6064 48.7429 49.7876 49.4629H37.3281Z" fill="#0D2246"/>
<path d="M93.5394 209.321C93.5394 211.084 75.876 212.499 54.1096 212.499C32.3181 212.499 14.6797 211.084 14.6797 209.321C14.6797 207.558 32.3431 206.143 54.1096 206.143C75.876 206.143 93.5394 207.558 93.5394 209.321Z" fill="#2BA5C4"/>
<path d="M99.074 68.3164H90.1172V86.1435H99.074C101.251 86.1435 103.002 82.1461 103.002 77.23C103.002 72.289 101.251 68.3164 99.074 68.3164Z" fill="#263959"/>
<path d="M102.103 80.706C98.9505 78.9183 98.1999 75.9389 98.0498 73.5056C97.9497 71.9662 98.0998 70.3524 98.7003 68.813C98.7503 68.6392 98.7753 68.4902 98.8254 68.3164H90.0938V86.1435H99.0756C100.652 86.1435 102.028 84.0331 102.653 80.9791C102.478 80.9046 102.278 80.8053 102.103 80.706Z" fill="#061232"/>
<path d="M7.92798 68.3164H16.8848V86.1435H7.92798C5.75133 86.1435 4 82.1461 4 77.23C4 72.289 5.75133 68.3164 7.92798 68.3164Z" fill="#263959"/>
<path d="M4.90198 80.706C8.05437 78.9183 8.80494 75.9389 8.95505 73.5056C9.05513 71.9662 8.90501 70.3524 8.27954 68.813C8.2295 68.6392 8.20448 68.4902 8.15444 68.3164H16.8861V86.1435H7.92927C6.35308 86.1435 4.97704 84.0331 4.35156 80.9791C4.55171 80.9046 4.72685 80.8053 4.90198 80.706Z" fill="#061232"/>
<path d="M61.2656 152.736L62.5916 175.231L68.6462 174.884L64.8684 150.229L61.2656 152.736Z" fill="#263959"/>
<path d="M62.7668 155.467C62.3164 155.592 61.8661 155.79 61.4658 156.038L61.2656 152.736L64.8684 150.229L65.669 155.492C64.7182 155.244 63.6424 155.244 62.7668 155.467Z" fill="#0E2347"/>
<path d="M64.6487 167.062C65.5494 166.566 66.4251 165.995 67.1757 165.324L68.6518 174.883L62.6222 175.206L62.1719 167.757C63.0225 167.733 63.8982 167.484 64.6487 167.062Z" fill="#0E2347"/>
<path d="M80.1337 122.766L87.164 132.97L83.9115 133.566L79.0078 123.362L80.1337 122.766Z" fill="#263959"/>
<path d="M77.2048 150.228C77.2048 150.228 73.552 150.675 72.3761 150.228C71.2253 149.781 70.9751 149.26 70.9751 149.26C70.9751 149.26 69.3739 149.235 68.6233 147.844C68.6233 147.844 67.9228 147.795 68.2981 145.535C68.6733 143.276 69.6241 139.924 72.226 140.421C74.853 140.867 77.2048 150.228 77.2048 150.228Z" fill="#263959"/>
<path d="M67.6719 119.887C67.6719 119.887 72.8258 115.467 74.6522 115.542C76.4785 115.616 81.6074 118.869 81.8576 121.774C82.1078 124.679 73.126 126.74 73.126 126.74C73.126 126.74 69.8235 123.189 67.6719 119.887Z" fill="url(#paint3_linear_2855_605943)"/>
<path opacity="0.92" d="M72.9274 122.618C75.5794 124.083 78.6818 124.133 81.4089 122.99C79.6575 125.25 73.1026 126.74 73.1026 126.74C73.1026 126.74 69.8251 123.189 67.6484 119.887C67.6484 119.887 68.1989 119.415 68.9995 118.77C69.9752 120.359 71.3012 121.699 72.9274 122.618Z" fill="url(#paint4_linear_2855_605943)"/>
<path opacity="0.92" d="M70.6023 117.578C71.3528 118.944 72.4537 120.135 73.9548 121.005C76.0814 122.221 78.7334 122.395 81.0602 121.749C81.3104 121.675 81.5606 121.6 81.7857 121.501C81.8107 121.6 81.8107 121.675 81.8107 121.749C82.0609 124.654 73.0791 126.715 73.0791 126.715C73.0791 126.715 69.8016 123.165 67.625 119.862C67.675 119.887 69.0261 118.695 70.6023 117.578Z" fill="url(#paint5_linear_2855_605943)"/>
<path d="M69.2751 164.504C69.2751 164.504 61.6443 171.233 60.7186 173.219C59.7929 175.205 58.8422 205.745 59.1424 208.451H83.4108C83.4108 208.451 82.1348 205.149 80.1083 204.627L69.2751 164.504Z" fill="url(#paint6_linear_2855_605943)"/>
<path d="M87.936 133.146C87.936 133.146 87.7859 132.352 86.7351 132.352C86.7351 132.352 83.1824 132.426 82.5069 133.146C81.8314 133.866 81.0308 137.566 73.2999 138.906C73.2999 138.906 70.798 140.297 72.7995 145.436C74.8011 150.576 78.6039 151.073 79.98 150.576C81.356 150.104 90.7381 140.421 87.936 133.146Z" fill="url(#paint7_linear_2855_605943)"/>
<path opacity="0.92" d="M77.1539 143.921C82.0826 145.386 86.511 141.86 88.3624 137.391C87.5118 143.697 81.0819 150.177 79.981 150.575C78.605 151.071 74.8271 150.575 72.8006 145.435C71.975 143.3 71.8999 141.81 72.1251 140.792C73.5011 142.257 75.2775 143.35 77.1539 143.921Z" fill="url(#paint8_linear_2855_605943)"/>
<path opacity="0.92" d="M77.9549 148.341C80.2816 148.49 82.4332 147.67 84.1846 146.305C82.3582 148.713 80.5318 150.377 79.9814 150.575C78.7805 150.997 75.7032 150.675 73.6016 147.099C74.9025 147.794 76.3536 148.241 77.9549 148.341Z" fill="url(#paint9_linear_2855_605943)"/>
<path opacity="0.92" d="M65.8958 197.03C67.3218 199.413 68.9731 201.921 71.1247 203.734C74.0269 206.167 78.155 207.582 81.6077 205.571C82.7585 206.738 83.409 208.451 83.409 208.451H59.1406C58.9405 206.614 59.3158 192.213 59.8412 182.381C61.0421 187.545 63.1186 192.437 65.8958 197.03Z" fill="url(#paint10_linear_2855_605943)"/>
<path opacity="0.92" d="M59.3143 198.594C60.9906 202.368 64.0429 206.241 67.7457 208.451H59.1392C59.0391 207.532 59.0891 203.436 59.2142 198.346C59.2643 198.445 59.2893 198.52 59.3143 198.594Z" fill="url(#paint11_linear_2855_605943)"/>
<path d="M68.6518 167.111C68.6518 167.111 72.6549 179.7 74.7564 189.383C74.7564 189.383 63.6981 174.138 68.6518 167.111Z" fill="url(#paint12_linear_2855_605943)"/>
<path d="M82.663 140.37C81.9374 141.09 80.9867 141.587 79.9609 141.785C79.6107 141.835 79.2354 141.86 78.9352 141.711C78.6099 141.562 78.3847 141.214 78.4598 140.866C78.5098 140.643 78.71 140.469 78.8851 140.32C79.6607 139.65 83.7138 134.163 84.6645 135.677C84.7646 135.826 84.7896 136.025 84.7896 136.199C84.9647 138.061 83.8639 139.153 82.663 140.37Z" fill="url(#paint13_linear_2855_605943)"/>
<path d="M63.4168 187.818C62.316 185.584 60.965 184.268 59.7891 183.498C59.8141 183.051 59.8391 182.629 59.8641 182.207C61.1401 183.026 62.6412 184.342 64.0423 186.502C67.4699 191.716 69.3713 208.476 69.3713 208.476H68.0703C67.4449 200.58 65.4934 192.014 63.4168 187.818Z" fill="#263959"/>
<path d="M80.1087 150.526C78.2073 148.316 78.5826 144.12 81.1846 140.569C83.2111 137.789 86.0382 136.15 88.4901 136.125C88.4901 136.299 88.4901 136.473 88.4651 136.671C86.1633 136.646 83.4363 138.186 81.5098 140.818C79.0579 144.17 78.7327 148.167 80.6091 150.203C80.384 150.352 80.2338 150.451 80.1087 150.526Z" fill="#263959"/>
<path d="M72.4538 116.361C72.9792 117.603 74.005 119.44 75.406 119.887C76.8821 120.334 79.0338 119.515 80.3348 118.944C80.5099 119.142 80.685 119.341 80.8602 119.539C79.5091 120.16 77.0823 121.054 75.2309 120.557C73.4545 120.086 72.2036 118.174 71.5781 116.932C71.8784 116.709 72.1786 116.535 72.4538 116.361Z" fill="#263959"/>
<path d="M45.629 152.734L44.303 175.229L38.2734 174.882L42.0513 150.227L45.629 152.734Z" fill="#263959"/>
<path d="M44.1288 155.465C44.5791 155.59 45.0294 155.788 45.4297 156.037L45.6299 152.734L42.0272 150.227L41.2266 155.49C42.2023 155.242 43.2531 155.242 44.1288 155.465Z" fill="#0E2347"/>
<path d="M42.2765 167.062C41.3758 166.566 40.5001 165.995 39.7496 165.324L38.2734 174.883L44.303 175.206L44.7533 167.757C43.8777 167.733 43.027 167.484 42.2765 167.062Z" fill="#0E2347"/>
<path d="M26.7647 122.766L19.7344 132.97L22.9868 133.566L27.8906 123.362L26.7647 122.766Z" fill="#263959"/>
<path d="M29.6953 150.228C29.6953 150.228 33.3481 150.675 34.524 150.228C35.6748 149.781 35.925 149.26 35.925 149.26C35.925 149.26 37.5262 149.235 38.2768 147.844C38.2768 147.844 38.9773 147.795 38.6021 145.535C38.2268 143.276 37.2761 139.924 34.6741 140.421C32.0471 140.867 29.6953 150.228 29.6953 150.228Z" fill="#263959"/>
<path d="M39.2534 119.887C39.2534 119.887 34.0995 115.467 32.2731 115.542C30.4467 115.616 25.3178 118.869 25.0676 121.774C24.8174 124.679 33.7992 126.74 33.7992 126.74C33.7992 126.74 37.0767 123.189 39.2534 119.887Z" fill="url(#paint14_linear_2855_605943)"/>
<path opacity="0.92" d="M33.9736 122.618C31.3216 124.083 28.2193 124.133 25.4922 122.99C27.2435 125.25 33.7985 126.74 33.7985 126.74C33.7985 126.74 37.076 123.189 39.2526 119.887C39.2526 119.887 38.7022 119.415 37.9016 118.77C36.9258 120.359 35.5998 121.699 33.9736 122.618Z" fill="url(#paint15_linear_2855_605943)"/>
<path opacity="0.92" d="M36.2996 117.578C35.549 118.944 34.4482 120.135 32.947 121.005C30.8204 122.221 28.1684 122.395 25.8416 121.749C25.5914 121.675 25.3413 121.6 25.1161 121.501C25.0911 121.6 25.0911 121.675 25.0911 121.749C24.8409 124.654 33.8227 126.715 33.8227 126.715C33.8227 126.715 37.1002 123.165 39.2768 119.862C39.2518 119.887 37.8758 118.695 36.2996 117.578Z" fill="url(#paint16_linear_2855_605943)"/>
<path d="M71.3023 120.21C67.1992 116.957 54.8398 116.783 53.5388 116.783C53.5388 116.783 53.5138 116.783 53.4888 116.783C53.4638 116.783 53.4387 116.783 53.4387 116.783C52.1127 116.783 39.7784 116.957 35.6753 120.21C30.4463 124.356 32.1226 137.391 39.8284 148.663C47.0839 159.29 52.8883 158.545 53.5138 158.421C54.1393 158.545 59.9437 159.29 67.1992 148.663C74.855 137.416 76.5312 124.356 71.3023 120.21Z" fill="url(#paint17_linear_2855_605943)"/>
<path opacity="0.92" d="M67.5704 121.129C67.5704 123.09 61.0904 124.679 53.1094 124.679C45.1283 124.679 38.6484 123.09 38.6484 121.129C38.6484 119.167 45.1283 117.578 53.1094 117.578C61.0904 117.578 67.5704 119.167 67.5704 121.129Z" fill="url(#paint18_linear_2855_605943)"/>
<path opacity="0.92" d="M53.1125 122.991C58.8053 122.991 63.4203 121.99 63.4203 120.756C63.4203 119.522 58.8053 118.521 53.1125 118.521C47.4197 118.521 42.8047 119.522 42.8047 120.756C42.8047 121.99 47.4197 122.991 53.1125 122.991Z" fill="url(#paint19_linear_2855_605943)"/>
<path d="M37.6279 164.504C37.6279 164.504 45.2587 171.233 46.1844 173.219C47.1101 175.205 48.0608 205.745 47.7606 208.451H23.4922C23.4922 208.451 24.7682 205.149 26.7947 204.627L37.6279 164.504Z" fill="url(#paint20_linear_2855_605943)"/>
<path d="M18.9637 133.146C18.9637 133.146 19.1138 132.352 20.1646 132.352C20.1646 132.352 23.7173 132.426 24.3928 133.146C25.0683 133.866 25.869 137.566 33.5998 138.906C33.5998 138.906 36.1017 140.297 34.1002 145.436C32.0987 150.576 28.2958 151.073 26.9198 150.576C25.5687 150.104 16.1616 140.421 18.9637 133.146Z" fill="url(#paint21_linear_2855_605943)"/>
<path opacity="0.92" d="M29.7476 143.921C24.8188 145.386 20.3905 141.86 18.5391 137.391C19.3897 143.697 25.8196 150.177 26.9204 150.575C28.2965 151.071 32.0743 150.575 34.1009 145.435C34.9265 143.3 35.0015 141.81 34.7764 140.792C33.4003 142.257 31.649 143.35 29.7476 143.921Z" fill="url(#paint22_linear_2855_605943)"/>
<path d="M57.1169 120.731C57.1169 120.731 56.3413 121.476 53.1639 121.476C49.9865 121.476 49.2109 120.731 49.2109 120.731V108.242H57.0919V120.731H57.1169Z" fill="#263959"/>
<path d="M57.1153 114.4V108.242H49.2344V113.804C51.8113 114.747 54.5134 114.896 57.1153 114.4Z" fill="#0E2347"/>
<path d="M61.9401 110.776C56.4359 111.223 51.0068 111.223 45.5026 110.776C41.4496 110.378 36.721 107.026 36.1205 103.774C35.7202 101.291 35.7202 98.8081 36.1205 96.3252C36.721 93.0726 41.4496 89.7207 45.5026 89.3235C51.0068 88.8766 56.4359 88.8766 61.9401 89.3235C65.9932 89.7207 70.7218 93.0726 71.3222 96.3252C71.7225 98.8081 71.7225 101.291 71.3222 103.774C70.7218 107.026 65.9932 110.378 61.9401 110.776Z" fill="url(#paint23_linear_2855_605943)"/>
<path opacity="0.92" d="M71.33 96.3487C70.7296 93.0961 66.001 89.7442 61.9479 89.3469C56.4437 88.9 51.0146 88.9 45.5105 89.3469C41.4574 89.7442 36.7288 93.0961 36.1284 96.3487C35.728 98.8315 35.728 101.314 36.1284 103.797C36.4036 105.262 37.5044 106.727 38.9805 107.944C43.559 106.727 48.4877 107.075 53.1663 107.472C57.1193 107.82 60.9972 108.639 64.6249 110.129C67.8524 108.912 70.8296 106.33 71.305 103.797C71.7303 101.29 71.7303 98.8315 71.33 96.3487Z" fill="url(#paint24_linear_2855_605943)"/>
<path d="M93.6466 64.1465H85.7656V90.3161H93.6466C95.5731 90.3161 97.1242 84.4565 97.1242 77.2313C97.1242 70.0061 95.548 64.1465 93.6466 64.1465Z" fill="#263959"/>
<path d="M96.3174 82.346C93.5403 79.739 92.8648 75.3691 92.7397 71.7689C92.6646 69.5095 92.7647 67.1259 93.3151 64.8914C93.3401 64.6431 93.3902 64.3948 93.4152 64.1465H85.7344V90.3161H93.6153C95.0164 90.3161 96.2173 87.2125 96.7677 82.7433C96.6176 82.6192 96.4675 82.4702 96.3174 82.346Z" fill="#0E2347"/>
<path d="M13.3604 64.1465H21.2664V90.3161H13.3604C11.459 90.3161 9.88281 84.4565 9.88281 77.2313C9.88281 70.0061 11.459 64.1465 13.3604 64.1465Z" fill="#263959"/>
<path d="M10.7035 82.346C13.4806 79.739 14.1561 75.3691 14.2812 71.7689C14.3563 69.5095 14.2562 67.1259 13.7058 64.8914C13.6808 64.6431 13.6307 64.3948 13.6057 64.1465H21.2615V90.3161H13.3555C11.9545 90.3161 10.7535 87.2125 10.2031 82.7433C10.3783 82.6192 10.5284 82.4702 10.7035 82.346Z" fill="#0E2347"/>
<path d="M71.427 105.685C59.568 106.901 47.8842 106.901 36.0252 105.685C27.2936 104.617 17.1108 95.6043 15.8099 86.8893C14.9592 80.1855 14.9592 73.5562 15.8099 66.8524C17.1108 58.1375 27.2685 49.1246 36.0252 48.057C47.8842 46.8404 59.568 46.8404 71.427 48.057C80.1586 49.1246 90.3413 58.1375 91.6423 66.8524C92.4929 73.5562 92.4929 80.1855 91.6423 86.8893C90.3413 95.6291 80.1836 104.617 71.427 105.685Z" fill="url(#paint25_linear_2855_605943)"/>
<path opacity="0.92" d="M91.6431 66.8534C91.518 66.0837 91.3428 65.2892 91.0927 64.5195C90.4422 68.7901 88.7659 72.862 86.6143 76.6112C82.3861 83.9357 76.6817 90.1678 69.2761 94.4383C62.6711 98.2371 55.2155 100.372 47.6097 100.869C40.5294 101.341 33.3239 100.149 26.919 97.095C22.7659 95.1087 19.1131 92.2037 16.2109 88.678C18.5127 96.8219 27.8948 104.693 36.0259 105.686C47.8849 106.902 59.5688 106.902 71.4278 105.686C80.1594 104.618 90.3421 95.6053 91.6431 86.8903C92.4937 80.2114 92.4937 73.5572 91.6431 66.8534Z" fill="url(#paint26_linear_2855_605943)"/>
<path d="M53.7614 58.7578C53.5612 58.7578 53.3611 58.7578 53.1609 58.7578C45.305 58.7578 37.474 58.9564 29.6181 59.3785C25.1897 59.6268 20.8615 63.9222 21.2868 68.2176C21.9623 74.8717 23.5885 81.65 25.8152 88.5028C26.9411 91.8547 30.2936 94.4369 33.6712 94.5859C40.1761 94.859 46.656 95.008 53.1609 95.008C53.3611 95.008 53.5612 95.008 53.7614 95.008C60.2663 95.008 66.7462 94.859 73.2511 94.5859C76.6037 94.4369 79.9813 91.8547 81.1071 88.5028C83.3338 81.65 84.96 74.8717 85.6355 68.2176C86.0609 63.9222 81.7326 59.6517 77.3042 59.3785C69.4733 58.9564 61.6173 58.7578 53.7614 58.7578Z" fill="url(#paint27_linear_2855_605943)"/>
<path d="M53.7395 59.7754C53.5394 59.7754 53.3643 59.7754 53.1641 59.7754C45.7585 59.7754 38.3529 59.974 30.9223 60.3465C26.7441 60.5947 22.666 64.6419 23.0663 68.689C23.6918 74.9707 25.243 81.3765 27.3445 87.8568C28.3953 91.0349 31.5727 93.4682 34.7502 93.6171C40.8798 93.8654 47.0345 94.0144 53.1641 94.0144C53.3643 94.0144 53.5394 94.0144 53.7395 94.0144C59.8692 94.0144 66.0238 93.8903 72.1535 93.6171C75.3309 93.4682 78.5083 91.0349 79.5591 87.8568C81.6607 81.3765 83.2119 74.9955 83.8373 68.689C84.2376 64.6419 80.1345 60.5947 75.9814 60.3465C68.5758 59.974 61.1702 59.7754 53.7395 59.7754Z" fill="#1E1338"/>
<path d="M48.305 76.8832C48.305 82.8421 46.8539 87.6589 45.0275 87.6589C43.2261 87.6589 41.75 82.8421 41.75 76.8832C41.75 70.9242 43.2011 66.1074 45.0275 66.1074C46.8539 66.1074 48.305 70.9242 48.305 76.8832Z" fill="#69CDFF"/>
<path d="M65.0237 76.8832C65.0237 82.8421 63.5726 87.6589 61.7462 87.6589C59.9449 87.6589 58.4688 82.8421 58.4688 76.8832C58.4688 70.9242 59.9199 66.1074 61.7462 66.1074C63.5476 66.1074 65.0237 70.9242 65.0237 76.8832Z" fill="#69CDFF"/>
<g opacity="0.47">
<path d="M24.3673 76.8328C25.5432 75.4176 26.9192 74.1265 28.3453 73.0092C37.2521 66.0819 48.7357 63.4997 59.8442 63.1025C67.9003 62.8045 76.2566 63.8473 83.7373 66.9261C83.0367 63.5245 79.5341 60.5451 75.9814 60.3465C68.5758 59.974 61.1452 59.7754 53.7395 59.7754C53.5394 59.7754 53.3643 59.7754 53.1641 59.7754C45.7585 59.7754 38.3529 59.974 30.9223 60.3465C26.7441 60.5947 22.666 64.6419 23.0663 68.689C23.3415 71.3953 23.7919 74.1016 24.3673 76.8328Z" fill="#2A5D94"/>
</g>
<path opacity="0.92" d="M84.0623 93.0969C80.8349 96.9702 76.8319 99.751 72.1283 101.539C68.0752 103.078 63.7219 103.773 59.4437 104.245C54.1397 104.841 48.8106 105.288 43.4566 105.189C38.4528 105.114 33.3489 104.618 28.5703 103.103C31.0222 104.469 33.5991 105.387 36.051 105.71C47.91 106.927 59.5938 106.927 71.4528 105.71C80.1844 104.642 90.3671 95.6295 91.6681 86.9145C92.0184 84.2082 92.2185 81.5267 92.2936 78.8203C90.5172 84.0344 87.59 88.8512 84.0623 93.0969Z" fill="url(#paint28_linear_2855_605943)"/>
<path opacity="0.92" d="M73.8815 124.578C73.7815 126.515 73.5813 128.476 73.3061 130.413C72.0051 139.624 67.0013 149.01 58.1947 153.156C54.0165 155.118 49.0377 155.862 44.6094 154.447C49.4881 158.991 52.9907 158.519 53.4661 158.445C54.0916 158.569 59.896 159.314 67.1515 148.687C73.0059 140.096 75.3827 130.512 73.8815 124.578Z" fill="url(#paint29_linear_2855_605943)"/>
<path opacity="0.92" d="M28.9407 148.341C26.6139 148.49 24.4623 147.67 22.7109 146.305C24.5373 148.713 26.3637 150.377 26.9141 150.575C28.115 150.997 31.1924 150.675 33.294 147.099C31.993 147.794 30.5419 148.241 28.9407 148.341Z" fill="url(#paint30_linear_2855_605943)"/>
<path opacity="0.92" d="M41.0055 197.03C39.5794 199.413 37.9281 201.921 35.7765 203.734C32.8743 206.167 28.7462 207.582 25.2936 205.571C24.1427 206.738 23.4922 208.451 23.4922 208.451H47.7606C47.9607 206.614 47.5854 192.213 47.06 182.381C45.8591 187.545 43.7826 192.437 41.0055 197.03Z" fill="url(#paint31_linear_2855_605943)"/>
<path opacity="0.92" d="M47.5798 198.594C45.9036 202.368 42.8512 206.241 39.1484 208.451H47.755C47.855 207.532 47.805 203.436 47.6799 198.346C47.6549 198.445 47.6048 198.52 47.5798 198.594Z" fill="url(#paint32_linear_2855_605943)"/>
<path d="M38.2765 167.111C38.2765 167.111 34.2735 179.7 32.1719 189.383C32.1469 189.383 43.2053 174.138 38.2765 167.111Z" fill="url(#paint33_linear_2855_605943)"/>
<path d="M35.7473 137.144C36.4479 138.211 37.3485 138.633 38.5244 137.764C40.5009 136.299 41.2265 133.692 41.4016 131.259C41.5267 129.496 41.4517 127.659 40.576 126.12C39.8254 124.754 37.6738 123.09 35.9975 123.811C31.8944 125.623 33.996 134.462 35.7473 137.144Z" fill="url(#paint34_linear_2855_605943)"/>
<path d="M39.4012 143.077C39.8765 143.5 40.5771 143.748 41.1275 143.45C41.4778 143.251 41.6779 142.879 41.803 142.506C42.1032 141.513 41.6779 139.676 40.7022 139.155C38.3254 137.839 38.0752 141.886 39.4012 143.077Z" fill="url(#paint35_linear_2855_605943)"/>
<path d="M24.2422 140.37C24.9678 141.09 25.9185 141.587 26.9443 141.785C27.2945 141.835 27.6698 141.86 27.97 141.711C28.2953 141.562 28.5205 141.214 28.4454 140.866C28.3954 140.643 28.1952 140.469 28.0201 140.32C27.2445 139.65 23.1914 134.163 22.2407 135.677C22.1406 135.826 22.1156 136.025 22.1156 136.199C21.9655 138.061 23.0413 139.153 24.2422 140.37Z" fill="url(#paint36_linear_2855_605943)"/>
<path d="M43.4779 187.818C44.5788 185.584 45.9298 184.268 47.1057 183.498C47.0807 183.051 47.0557 182.629 47.0306 182.207C45.7547 183.026 44.2535 184.342 42.8525 186.502C39.4249 191.716 37.5234 208.476 37.5234 208.476H38.8244C39.4749 200.58 41.4014 192.014 43.4779 187.818Z" fill="#263959"/>
<path d="M26.8188 150.526C28.7203 148.316 28.345 144.12 25.743 140.569C23.7165 137.789 20.8894 136.15 18.4375 136.125C18.4375 136.299 18.4375 136.473 18.4625 136.671C20.7643 136.646 23.4913 138.186 25.4178 140.818C27.8696 144.17 28.1949 148.167 26.3185 150.203C26.5186 150.352 26.6938 150.451 26.8188 150.526Z" fill="#263959"/>
<path d="M34.4454 116.361C33.92 117.603 32.8943 119.44 31.4932 119.887C30.0171 120.334 27.8654 119.515 26.5645 118.944C26.3893 119.142 26.2142 119.341 26.0391 119.539C27.3901 120.16 29.8169 121.054 31.6683 120.557C33.4447 120.086 34.6956 118.174 35.3211 116.932C35.0459 116.709 34.7457 116.535 34.4454 116.361Z" fill="#263959"/>
<path d="M47.4854 209.718L47.8106 208.477H23.4922L23.9926 209.718H47.4854Z" fill="#263959"/>
<path d="M82.9368 209.718L83.4372 208.477H59.0938L59.444 209.718H82.9368Z" fill="#263959"/>
<path opacity="0.68" d="M53.5 60.998C69.2331 60.998 82 67.9316 82 76.4981C82 85.0645 69.2331 91.998 53.5 91.998C37.7669 91.998 25 85.0645 25 76.4981C25 67.9316 37.7669 60.998 53.5 60.998Z" fill="url(#paint37_radial_2855_605943)"/>
<path d="M61.8944 136.772C61.8944 141.514 58.0165 145.387 53.2128 145.387C48.4092 145.387 44.5312 141.514 44.5312 136.772C44.5312 132.005 48.4092 128.156 53.2128 128.156C58.0165 128.156 61.8944 132.03 61.8944 136.772Z" fill="#00163C"/>
<path d="M53.2124 144.765C57.6616 144.765 61.2685 141.186 61.2685 136.77C61.2685 132.355 57.6616 128.775 53.2124 128.775C48.7631 128.775 45.1562 132.355 45.1562 136.77C45.1562 141.186 48.7631 144.765 53.2124 144.765Z" fill="url(#paint38_radial_2855_605943)"/>
<path d="M58.9884 136.771C58.9884 139.949 56.4115 142.506 53.2091 142.506C50.0066 142.506 47.4297 139.949 47.4297 136.771C47.4297 133.593 50.0066 131.035 53.2091 131.035C56.4115 131.035 58.9884 133.593 58.9884 136.771Z" fill="url(#paint39_radial_2855_605943)"/>
<path opacity="0.33" d="M55.7387 139.055C53.487 140.396 50.2095 140.619 48.0078 139.278C48.9335 141.19 50.91 142.506 53.2118 142.506C56.4142 142.506 58.9911 139.949 58.9911 136.771C58.9911 136.349 58.9411 135.927 58.841 135.529C58.2155 136.945 57.2398 138.161 55.7387 139.055Z" fill="url(#paint40_radial_2855_605943)"/>
<path opacity="0.71" d="M48.8838 135.903C48.8838 136.002 48.8838 136.102 48.9589 136.176C49.0089 136.226 49.084 136.251 49.134 136.251C49.6344 136.35 50.1097 136.077 50.5601 135.828C51.1355 135.506 51.711 135.158 52.2614 134.786C52.6367 134.513 53.0119 134.239 53.2872 133.842C53.4623 133.569 53.5874 133.172 53.3872 132.899C53.2621 132.725 53.062 132.626 52.8618 132.576C50.6602 131.98 48.8338 133.792 48.8838 135.903Z" fill="url(#paint41_radial_2855_605943)"/>
<g opacity="0.47">
<path d="M55.5617 129.147C55.5867 129.147 55.6117 129.122 55.6368 129.122C54.8862 128.899 54.0606 128.75 53.2349 128.75C50.2827 128.75 47.7057 130.314 46.3047 132.673C47.7808 131.63 49.357 130.736 51.0833 130.116C52.5344 129.619 54.0355 129.296 55.5617 129.147Z" fill="#2A5D94"/>
</g>
<g opacity="0.47">
<path d="M60.0675 132.575C59.6172 131.855 59.0418 131.185 58.3663 130.639C58.041 130.738 57.6907 130.837 57.3655 130.937C55.8894 131.458 54.5884 132.327 53.2624 133.146C50.7355 134.711 48.0334 135.53 45.1813 136.151C45.1563 136.349 45.1562 136.548 45.1562 136.747C45.1562 138.013 45.4565 139.205 45.9819 140.272C49.0342 135.555 54.4883 132.476 60.0675 132.575Z" fill="#2A5D94"/>
</g>
<g opacity="0.47">
<path d="M55.6389 139.527C57.4402 138.435 59.2666 138.013 61.1931 137.814C61.2431 137.466 61.2681 137.119 61.2681 136.771C61.2681 136.498 61.2431 136.25 61.2181 135.977C59.3167 136.771 57.5403 137.888 55.7139 138.906C53.187 140.322 50.4349 141.787 47.6328 142.556C48.3333 143.202 49.1339 143.748 50.0096 144.12C51.6609 142.333 53.5873 140.769 55.6389 139.527Z" fill="#2A5D94"/>
</g>
<g opacity="0.47">
<path d="M52.9141 144.766C53.0141 144.766 53.1142 144.766 53.2143 144.766C55.9664 144.766 58.3932 143.4 59.8443 141.314C57.3424 142.034 54.9906 143.201 52.9141 144.766Z" fill="#2A5D94"/>
</g>
<path d="M55.341 55.1567C55.341 56.4478 54.2902 57.4658 53.0143 57.4658C51.7133 57.4658 50.6875 56.423 50.6875 55.1567C50.6875 53.8656 51.7383 52.8477 53.0143 52.8477C54.2902 52.8477 55.341 53.8905 55.341 55.1567Z" fill="#1E1338"/>
<g opacity="0.47">
<path d="M55.0375 54.0172C54.8624 53.6944 54.5872 53.4213 54.287 53.2227C53.5114 54.5634 52.2855 55.8297 50.8594 56.0531C51.0845 56.5746 51.5099 57.0215 52.0102 57.2698C52.4856 55.9042 53.6865 54.6627 55.0375 54.0172Z" fill="#2A5D94"/>
</g>
<g opacity="0.85">
<path d="M54.2347 55.1594C54.2347 55.8298 53.6843 56.376 53.0088 56.376C52.3332 56.376 51.7578 55.8298 51.7578 55.1594C51.7578 54.489 52.3082 53.918 53.0088 53.918C53.6843 53.9428 54.2347 54.489 54.2347 55.1594Z" fill="#2A5D94"/>
</g>
<path d="M61.5186 102.06H44.5307C43.7801 102.06 43.1797 101.439 43.1797 100.719V97.9384C43.1797 97.1935 43.7801 96.5977 44.5307 96.5977H61.5186C62.2691 96.5977 62.8696 97.2184 62.8696 97.9384V100.719C62.8946 101.464 62.2691 102.06 61.5186 102.06Z" fill="#263959"/>
<path d="M62.6176 97.1439C62.3675 96.8211 61.9672 96.5977 61.5418 96.5977H44.5289C44.0786 96.5977 43.7033 96.8211 43.4531 97.1439H62.6176Z" fill="#061232"/>
<path d="M62.8946 100.049H43.1797V100.545H62.8946V100.049Z" fill="#061232"/>
<path d="M43.7031 101.787C43.9283 101.961 44.2035 102.06 44.5288 102.06H61.5166C61.8168 102.06 62.1171 101.961 62.3422 101.787H43.7031Z" fill="#061232"/>
<path d="M62.8946 98.3848H43.1797V98.8069H62.8946V98.3848Z" fill="#061232"/>
</g>
<defs>
<filter id="filter0_d_2855_605943" x="0" y="0.5" width="107" height="219.999" filterUnits="userSpaceOnUse" color-interpolation-filters="sRGB">
<feFlood flood-opacity="0" result="BackgroundImageFix"/>
<feColorMatrix in="SourceAlpha" type="matrix" values="0 0 0 0 0 0 0 0 0 0 0 0 0 0 0 0 0 0 127 0" result="hardAlpha"/>
<feOffset dy="4"/>
<feGaussianBlur stdDeviation="2"/>
<feComposite in2="hardAlpha" operator="out"/>
<feColorMatrix type="matrix" values="0 0 0 0 0 0 0 0 0 0 0 0 0 0 0 0 0 0 0.21 0"/>
<feBlend mode="normal" in2="BackgroundImageFix" result="effect1_dropShadow_2855_605943"/>
<feBlend mode="normal" in="SourceGraphic" in2="effect1_dropShadow_2855_605943" result="shape"/>
</filter>
<linearGradient id="paint0_linear_2855_605943" x1="35.4855" y1="1.05932" x2="65.5082" y2="37.9351" gradientUnits="userSpaceOnUse">
<stop stop-color="white"/>
<stop offset="1" stop-color="#C2D9E9"/>
</linearGradient>
<linearGradient id="paint1_linear_2855_605943" x1="54.2149" y1="23.4989" x2="80.2668" y2="69.5728" gradientUnits="userSpaceOnUse">
<stop stop-color="white"/>
<stop offset="1" stop-color="#8DB8D6"/>
</linearGradient>
<linearGradient id="paint2_linear_2855_605943" x1="56.5718" y1="22.1661" x2="82.6239" y2="68.2401" gradientUnits="userSpaceOnUse">
<stop stop-color="white"/>
<stop offset="1" stop-color="#8DB8D6"/>
</linearGradient>
<linearGradient id="paint3_linear_2855_605943" x1="76.4736" y1="117.364" x2="73.3048" y2="124.252" gradientUnits="userSpaceOnUse">
<stop stop-color="white"/>
<stop offset="1" stop-color="#C2D9E9"/>
</linearGradient>
<linearGradient id="paint4_linear_2855_605943" x1="76.4448" y1="117.351" x2="73.2763" y2="124.238" gradientUnits="userSpaceOnUse">
<stop stop-color="white"/>
<stop offset="1" stop-color="#C2D9E9"/>
</linearGradient>
<linearGradient id="paint5_linear_2855_605943" x1="76.4765" y1="117.365" x2="73.3079" y2="124.252" gradientUnits="userSpaceOnUse">
<stop stop-color="white"/>
<stop offset="1" stop-color="#C2D9E9"/>
</linearGradient>
<linearGradient id="paint6_linear_2855_605943" x1="79.7859" y1="174.346" x2="67.1335" y2="201.848" gradientUnits="userSpaceOnUse">
<stop stop-color="white"/>
<stop offset="1" stop-color="#C2D9E9"/>
</linearGradient>
<linearGradient id="paint7_linear_2855_605943" x1="88.4595" y1="141.536" x2="72.0245" y2="141.536" gradientUnits="userSpaceOnUse">
<stop stop-color="white"/>
<stop offset="1" stop-color="#C2D9E9"/>
</linearGradient>
<linearGradient id="paint8_linear_2855_605943" x1="88.4605" y1="144.06" x2="72.0257" y2="144.06" gradientUnits="userSpaceOnUse">
<stop stop-color="white"/>
<stop offset="1" stop-color="#C2D9E9"/>
</linearGradient>
<linearGradient id="paint9_linear_2855_605943" x1="88.4609" y1="148.517" x2="72.026" y2="148.517" gradientUnits="userSpaceOnUse">
<stop stop-color="white"/>
<stop offset="1" stop-color="#C2D9E9"/>
</linearGradient>
<linearGradient id="paint10_linear_2855_605943" x1="81.1879" y1="174.993" x2="68.5358" y2="202.494" gradientUnits="userSpaceOnUse">
<stop stop-color="white"/>
<stop offset="1" stop-color="#C2D9E9"/>
</linearGradient>
<linearGradient id="paint11_linear_2855_605943" x1="77.5519" y1="173.318" x2="64.899" y2="200.821" gradientUnits="userSpaceOnUse">
<stop stop-color="white"/>
<stop offset="1" stop-color="#C2D9E9"/>
</linearGradient>
<linearGradient id="paint12_linear_2855_605943" x1="100.133" y1="117.265" x2="75.8208" y2="170.112" gradientUnits="userSpaceOnUse">
<stop stop-color="white"/>
<stop offset="1" stop-color="#C2D9E9"/>
</linearGradient>
<linearGradient id="paint13_linear_2855_605943" x1="84.8321" y1="138.624" x2="78.4548" y2="138.624" gradientUnits="userSpaceOnUse">
<stop stop-color="white"/>
<stop offset="1" stop-color="#C2D9E9"/>
</linearGradient>
<linearGradient id="paint14_linear_2855_605943" x1="30.4351" y1="117.364" x2="33.6039" y2="124.252" gradientUnits="userSpaceOnUse">
<stop stop-color="white"/>
<stop offset="1" stop-color="#C2D9E9"/>
</linearGradient>
<linearGradient id="paint15_linear_2855_605943" x1="30.4646" y1="117.351" x2="33.6331" y2="124.238" gradientUnits="userSpaceOnUse">
<stop stop-color="white"/>
<stop offset="1" stop-color="#C2D9E9"/>
</linearGradient>
<linearGradient id="paint16_linear_2855_605943" x1="30.4337" y1="117.365" x2="33.6023" y2="124.252" gradientUnits="userSpaceOnUse">
<stop stop-color="white"/>
<stop offset="1" stop-color="#C2D9E9"/>
</linearGradient>
<linearGradient id="paint17_linear_2855_605943" x1="43.6102" y1="110.901" x2="60.3462" y2="144.118" gradientUnits="userSpaceOnUse">
<stop stop-color="white"/>
<stop offset="1" stop-color="#C2D9E9"/>
</linearGradient>
<linearGradient id="paint18_linear_2855_605943" x1="61.1582" y1="127.926" x2="45.6396" y2="114.61" gradientUnits="userSpaceOnUse">
<stop stop-color="white"/>
<stop offset="1" stop-color="#C2D9E9"/>
</linearGradient>
<linearGradient id="paint19_linear_2855_605943" x1="57.2421" y1="126.745" x2="49.4934" y2="115.333" gradientUnits="userSpaceOnUse">
<stop stop-color="white"/>
<stop offset="1" stop-color="#C2D9E9"/>
</linearGradient>
<linearGradient id="paint20_linear_2855_605943" x1="27.1254" y1="174.346" x2="39.7778" y2="201.848" gradientUnits="userSpaceOnUse">
<stop stop-color="white"/>
<stop offset="1" stop-color="#C2D9E9"/>
</linearGradient>
<linearGradient id="paint21_linear_2855_605943" x1="18.4486" y1="141.536" x2="34.8836" y2="141.536" gradientUnits="userSpaceOnUse">
<stop stop-color="white"/>
<stop offset="1" stop-color="#C2D9E9"/>
</linearGradient>
<linearGradient id="paint22_linear_2855_605943" x1="18.4493" y1="144.06" x2="34.8841" y2="144.06" gradientUnits="userSpaceOnUse">
<stop stop-color="white"/>
<stop offset="1" stop-color="#C2D9E9"/>
</linearGradient>
<linearGradient id="paint23_linear_2855_605943" x1="53.1687" y1="96.7879" x2="55.6977" y2="111.823" gradientUnits="userSpaceOnUse">
<stop stop-color="white"/>
<stop offset="1" stop-color="#85B3D3"/>
</linearGradient>
<linearGradient id="paint24_linear_2855_605943" x1="53.1765" y1="96.7866" x2="55.7056" y2="111.822" gradientUnits="userSpaceOnUse">
<stop stop-color="white"/>
<stop offset="1" stop-color="#C2D9E9"/>
</linearGradient>
<linearGradient id="paint25_linear_2855_605943" x1="38.2067" y1="50.0994" x2="62.4512" y2="92.5614" gradientUnits="userSpaceOnUse">
<stop stop-color="white"/>
<stop offset="1" stop-color="#82B1D2"/>
</linearGradient>
<linearGradient id="paint26_linear_2855_605943" x1="53.7262" y1="76.8747" x2="63.0323" y2="103.093" gradientUnits="userSpaceOnUse">
<stop stop-color="white"/>
<stop offset="1" stop-color="#C2D9E9"/>
</linearGradient>
<linearGradient id="paint27_linear_2855_605943" x1="67.5586" y1="88.1306" x2="39.0789" y2="61.3589" gradientUnits="userSpaceOnUse">
<stop stop-color="white"/>
<stop offset="1" stop-color="#C2D9E9"/>
</linearGradient>
<linearGradient id="paint28_linear_2855_605943" x1="59.1105" y1="88.4899" x2="69.7625" y2="108.999" gradientUnits="userSpaceOnUse">
<stop stop-color="white"/>
<stop offset="1" stop-color="#C2D9E9"/>
</linearGradient>
<linearGradient id="paint29_linear_2855_605943" x1="44.403" y1="110.502" x2="61.139" y2="143.719" gradientUnits="userSpaceOnUse">
<stop stop-color="white"/>
<stop offset="1" stop-color="#C2D9E9"/>
</linearGradient>
<linearGradient id="paint30_linear_2855_605943" x1="18.4429" y1="148.517" x2="34.8778" y2="148.517" gradientUnits="userSpaceOnUse">
<stop stop-color="white"/>
<stop offset="1" stop-color="#C2D9E9"/>
</linearGradient>
<linearGradient id="paint31_linear_2855_605943" x1="25.7217" y1="174.993" x2="38.3737" y2="202.494" gradientUnits="userSpaceOnUse">
<stop stop-color="white"/>
<stop offset="1" stop-color="#C2D9E9"/>
</linearGradient>
<linearGradient id="paint32_linear_2855_605943" x1="29.3506" y1="173.318" x2="42.0035" y2="200.821" gradientUnits="userSpaceOnUse">
<stop stop-color="white"/>
<stop offset="1" stop-color="#C2D9E9"/>
</linearGradient>
<linearGradient id="paint33_linear_2855_605943" x1="6.77828" y1="117.265" x2="31.0909" y2="170.112" gradientUnits="userSpaceOnUse">
<stop stop-color="white"/>
<stop offset="1" stop-color="#C2D9E9"/>
</linearGradient>
<linearGradient id="paint34_linear_2855_605943" x1="33.6215" y1="130.919" x2="41.4359" y2="130.919" gradientUnits="userSpaceOnUse">
<stop stop-color="white"/>
<stop offset="1" stop-color="#C2D9E9"/>
</linearGradient>
<linearGradient id="paint35_linear_2855_605943" x1="38.6041" y1="141.228" x2="41.8991" y2="141.228" gradientUnits="userSpaceOnUse">
<stop stop-color="white"/>
<stop offset="1" stop-color="#C2D9E9"/>
</linearGradient>
<linearGradient id="paint36_linear_2855_605943" x1="22.0819" y1="138.624" x2="28.4587" y2="138.624" gradientUnits="userSpaceOnUse">
<stop stop-color="white"/>
<stop offset="1" stop-color="#C2D9E9"/>
</linearGradient>
<radialGradient id="paint37_radial_2855_605943" cx="0" cy="0" r="1" gradientUnits="userSpaceOnUse" gradientTransform="translate(53.5032 76.4764) rotate(-90) scale(17.0967 26.2479)">
<stop stop-color="#2A5D94"/>
<stop offset="0.4152" stop-color="#2A5B92"/>
<stop offset="0.5966" stop-color="#2A568B"/>
<stop offset="0.7324" stop-color="#2A4C7E"/>
<stop offset="0.8456" stop-color="#2B3E6C"/>
<stop offset="0.9436" stop-color="#2B2D55"/>
<stop offset="0.9944" stop-color="#2B2146"/>
</radialGradient>
<radialGradient id="paint38_radial_2855_605943" cx="0" cy="0" r="1" gradientUnits="userSpaceOnUse" gradientTransform="translate(53.2136 136.771) scale(8.05728 7.99606)">
<stop offset="0.00558659" stop-color="#00FFFF"/>
<stop offset="0.0560054" stop-color="#01EDF0"/>
<stop offset="0.2528" stop-color="#05ADBA"/>
<stop offset="0.4406" stop-color="#08778E"/>
<stop offset="0.6143" stop-color="#0B4E6B"/>
<stop offset="0.7708" stop-color="#0D3052"/>
<stop offset="0.9046" stop-color="#0E1D42"/>
<stop offset="1" stop-color="#0E173D"/>
</radialGradient>
<radialGradient id="paint39_radial_2855_605943" cx="0" cy="0" r="1" gradientUnits="userSpaceOnUse" gradientTransform="translate(53.2103 136.771) scale(5.78133 5.73741)">
<stop offset="0.00558659" stop-color="#00FFFF"/>
<stop offset="0.1879" stop-color="#01FCFC"/>
<stop offset="0.3321" stop-color="#03F2F4"/>
<stop offset="0.4634" stop-color="#06E1E6"/>
<stop offset="0.5869" stop-color="#0ACAD2"/>
<stop offset="0.705" stop-color="#10ABB9"/>
<stop offset="0.8191" stop-color="#178699"/>
<stop offset="0.9278" stop-color="#205A75"/>
<stop offset="1" stop-color="#263959"/>
</radialGradient>
<radialGradient id="paint40_radial_2855_605943" cx="0" cy="0" r="1" gradientUnits="userSpaceOnUse" gradientTransform="translate(53.213 136.771) scale(5.78141 5.73747)">
<stop offset="0.00558659" stop-color="#00FFFF"/>
<stop offset="1" stop-color="#263959"/>
</radialGradient>
<radialGradient id="paint41_radial_2855_605943" cx="0" cy="0" r="1" gradientUnits="userSpaceOnUse" gradientTransform="translate(51.1829 134.383) scale(2.11845 2.10236)">
<stop offset="0.00558659" stop-color="#00FFFF"/>
<stop offset="1" stop-color="#263959"/>
</radialGradient>
</defs>
</svg>
