<svg width="520" height="520" viewBox="0 0 520 520" fill="none" xmlns="http://www.w3.org/2000/svg">
<g filter="url(#filter0_d_2855_610541)">
<rect width="500" height="500" rx="250" fill="white"/>
<rect x="5" y="5" width="490" height="490" rx="245" stroke="#1C3462" stroke-width="10"/>
<g clip-path="url(#clip0_2855_610541)">
<g clip-path="url(#clip1_2855_610541)">
<path d="M321.49 219.09C327.691 219.09 333.307 223.57 333.833 229.736C334.126 233.343 332.78 236.659 330.499 238.928C328.393 241.022 325.527 242.302 322.309 242.36H319.384C325.819 242.419 330.967 247.596 330.967 253.996C330.967 257.195 329.68 260.104 327.574 262.198C325.468 264.293 322.543 265.572 319.326 265.572H310.493C313.71 265.572 316.635 266.852 318.741 269.005C320.905 271.099 322.192 274.008 322.192 277.208C322.192 280.407 320.905 283.316 318.741 285.41C316.635 287.563 313.71 288.843 310.493 288.843H251.997C238.484 288.843 232.049 287.737 223.918 277.208H187.65C177.94 277.208 170.102 269.412 170.102 259.755V230.667C170.102 221.01 177.94 213.215 187.65 213.215H224.211C227.194 201.812 235.676 185.174 241.175 175.051C244.451 169.059 246.147 162.369 246.147 155.621V137.586H250.125C260.83 137.586 269.545 146.255 269.545 156.901V166.674C269.545 181.218 263.696 195.762 263.696 195.762H318.741C324.942 195.762 330.557 200.358 330.967 206.524C331.201 210.131 329.914 213.389 327.632 215.658C325.527 217.752 322.602 219.032 319.326 219.09H321.549H321.49Z" fill="#FFD869"/>
<path d="M319.381 242.361H322.306C325.523 242.302 328.39 241.022 330.495 238.928C332.835 236.601 334.122 233.285 333.83 229.736C333.303 223.57 327.688 219.09 321.487 219.09H319.264C322.54 219.032 325.465 217.752 327.571 215.658C329.852 213.389 331.197 210.131 330.905 206.524C330.495 200.358 324.938 195.762 318.679 195.762H263.634C263.634 195.762 275.333 202.51 275.333 216.123V219.032C275.333 230.26 263.225 239.394 251.935 239.394H254.86C266.149 239.394 275.333 248.527 275.333 259.755C275.333 270.983 266.149 280.116 254.86 280.116H226.781C234.912 290.646 238.422 288.843 251.935 288.843H310.431C313.648 288.843 316.573 287.563 318.679 285.41C320.844 283.316 322.13 280.407 322.13 277.208C322.13 274.008 320.844 271.099 318.679 269.005C316.573 266.852 313.648 265.573 310.431 265.573H319.264C322.481 265.573 325.406 264.293 327.512 262.198C329.618 260.104 330.905 257.195 330.905 253.996C330.905 247.596 325.757 242.419 319.323 242.361H319.381Z" fill="#F2C34E"/>
<path d="M310.492 288.843H298.793C292.358 288.843 287.094 283.607 287.094 277.208C287.094 270.808 292.358 265.573 298.793 265.573H310.492C316.927 265.573 322.192 270.808 322.192 277.208C322.192 283.607 316.927 288.843 310.492 288.843Z" fill="#FFD869"/>
<path d="M319.267 265.572H298.793C292.358 265.572 287.094 260.337 287.094 253.937C287.094 247.538 292.358 242.302 298.793 242.302H319.267C325.701 242.302 330.966 247.538 330.966 253.937C330.966 260.337 325.701 265.572 319.267 265.572Z" fill="#FFD869"/>
<path d="M322.192 242.302H298.793C292.358 242.302 287.094 237.066 287.094 230.667C287.094 224.268 292.358 219.032 298.793 219.032H322.192C328.626 219.032 333.891 224.268 333.891 230.667C333.891 237.066 328.626 242.302 322.192 242.302Z" fill="#FFD869"/>
<path d="M319.267 219.032H298.793C292.358 219.032 287.094 213.796 287.094 207.397C287.094 200.998 292.358 195.762 298.793 195.762H319.267C325.701 195.762 330.966 200.998 330.966 207.397C330.966 213.796 325.701 219.032 319.267 219.032Z" fill="#FFD869"/>
<path d="M315.816 276.684C313.71 278.836 310.786 280.116 307.568 280.116H249.072C235.559 280.116 229.125 279.011 220.994 268.481H184.726C178.701 268.481 173.378 265.456 170.219 260.802C170.804 269.936 178.35 277.207 187.651 277.207H223.918C232.049 287.737 238.484 288.843 251.997 288.843H310.493C313.71 288.843 316.635 287.563 318.741 285.41C320.906 283.316 322.192 280.407 322.192 277.207C322.192 274.241 321.023 271.564 319.151 269.528C318.917 272.321 317.747 274.822 315.816 276.684Z" fill="#F2C34E"/>
<path d="M327.398 206.873C325.292 209.026 322.367 210.306 319.15 210.306H286.977C286.977 215.134 293.821 219.032 298.676 219.032H319.15C322.367 219.032 325.292 217.752 327.398 215.6C329.562 213.505 330.849 210.597 330.849 207.397C330.849 205.884 330.556 204.372 329.971 203.034C329.386 204.488 328.509 205.768 327.398 206.873Z" fill="#F2C34E"/>
<path d="M330.322 230.144C328.217 232.296 325.292 233.576 322.074 233.576H286.977C286.977 238.404 293.821 242.302 298.676 242.302H322.074C325.292 242.302 328.217 241.022 330.322 238.87C332.487 236.776 333.774 233.867 333.774 230.667C333.774 229.155 333.481 227.642 332.896 226.304C332.311 227.758 331.434 229.038 330.322 230.144Z" fill="#F2C34E"/>
<path d="M327.398 253.414C325.292 255.566 322.367 256.846 319.15 256.846H286.977C286.977 261.675 293.821 265.572 298.676 265.572H319.15C322.367 265.572 325.292 264.293 327.398 262.14C329.562 260.046 330.849 257.137 330.849 253.937C330.849 252.425 330.556 250.912 329.971 249.574C329.386 251.029 328.509 252.308 327.398 253.414Z" fill="#F2C34E"/>
<path d="M223.918 277.208H187.65C177.94 277.208 170.102 269.412 170.102 259.755V230.667C170.102 221.01 177.94 213.215 187.65 213.215H213.74" stroke="black" stroke-width="3" stroke-linecap="round" stroke-linejoin="round"/>
<path d="M310.492 288.842H298.793C292.358 288.842 287.094 283.607 287.094 277.207C287.094 270.808 292.358 265.572 298.793 265.572H310.492C316.927 265.572 322.192 270.808 322.192 277.207C322.192 283.607 316.927 288.842 310.492 288.842Z" stroke="black" stroke-width="3" stroke-linecap="round" stroke-linejoin="round"/>
<path d="M319.267 265.573H298.793C292.358 265.573 287.094 260.337 287.094 253.938C287.094 247.538 292.358 242.302 298.793 242.302H319.267C325.701 242.302 330.966 247.538 330.966 253.938C330.966 260.337 325.701 265.573 319.267 265.573Z" stroke="black" stroke-width="3" stroke-linecap="round" stroke-linejoin="round"/>
<path d="M322.192 242.302H298.793C292.358 242.302 287.094 237.067 287.094 230.667C287.094 224.268 292.358 219.032 298.793 219.032H322.192C328.626 219.032 333.891 224.268 333.891 230.667C333.891 237.067 328.626 242.302 322.192 242.302Z" stroke="black" stroke-width="3" stroke-linecap="round" stroke-linejoin="round"/>
<path d="M319.267 219.032H298.793C292.358 219.032 287.094 213.796 287.094 207.397C287.094 200.998 292.358 195.762 298.793 195.762H319.267C325.701 195.762 330.966 200.998 330.966 207.397C330.966 213.796 325.701 219.032 319.267 219.032Z" stroke="black" stroke-width="3" stroke-linecap="round" stroke-linejoin="round"/>
<path d="M222.745 224.85C222.043 211.004 235.673 185.174 241.171 175.051C244.389 169.059 246.143 162.427 246.143 155.621V137.586H250.121C260.826 137.586 269.542 146.255 269.542 156.901V166.674C269.542 181.218 263.692 195.762 263.692 195.762" stroke="black" stroke-width="3" stroke-linecap="round" stroke-linejoin="round"/>
<path d="M263.695 195.762H298.793" stroke="black" stroke-width="3" stroke-linecap="round" stroke-linejoin="round"/>
<path d="M310.49 288.842H246.144C231.578 288.842 219.82 277.149 219.82 262.663" stroke="black" stroke-width="3" stroke-linecap="round" stroke-linejoin="round"/>
<path d="M263.641 195.936C270.66 199.951 275.399 207.513 275.399 216.123C275.399 228.98 264.928 239.393 252 239.393" stroke="black" stroke-width="3" stroke-linecap="round" stroke-linejoin="round"/>
</g>
</g>
<path d="M115.375 336.641C115.375 341.25 117.836 345.82 123.5 347.695L120.805 351.602C117.035 350.215 114.438 347.598 112.953 344.297C111.41 348.008 108.637 350.938 104.516 352.422L101.82 348.516C107.758 346.562 110.336 341.68 110.336 336.602V332.734H115.375V336.641ZM132.016 330.586V356.836H127.055V342.148H120.375V338.125H127.055V330.586H132.016ZM132.758 361.484V365.469H108.344V354.062H113.383V361.484H132.758ZM147.992 336.875C147.992 340.703 149.984 344.531 154.711 346.328L152.055 350.117C149.027 348.965 146.938 346.855 145.648 344.219C144.359 347.305 142.133 349.883 138.812 351.25L136.117 347.422C141.117 345.234 143.148 340.859 143.148 336.875V332.695H147.992V336.875ZM167.172 330.586V352.305H162.445V343.281H159.477V351.211H154.828V331.211H159.477V339.258H162.445V330.586H167.172ZM155.023 352.812C162.523 352.812 167.328 355.312 167.367 359.453C167.328 363.594 162.523 366.094 155.023 366.094C147.484 366.094 142.719 363.594 142.719 359.453C142.719 355.312 147.484 352.812 155.023 352.812ZM155.023 356.523C150.375 356.523 147.68 357.539 147.719 359.453C147.68 361.367 150.375 362.344 155.023 362.344C159.633 362.344 162.328 361.367 162.328 359.453C162.328 357.539 159.633 356.523 155.023 356.523ZM200.922 330.547V350.508H195.961V330.547H200.922ZM178.227 332.578V344.57C183.617 344.531 188.188 344.141 192.953 343.125L193.539 347.148C187.992 348.32 182.68 348.75 176.312 348.75H173.227V332.578H178.227ZM200.922 351.953V365.664H177.172V351.953H200.922ZM182.055 355.859V361.758H196.039V355.859H182.055ZM235.531 330.547V366.172H230.492V330.547H235.531ZM216.234 333.047C221.586 333.047 225.57 337.969 225.57 345.703C225.57 353.516 221.586 358.398 216.234 358.398C210.766 358.398 206.781 353.516 206.82 345.703C206.781 337.969 210.766 333.047 216.234 333.047ZM216.234 337.539C213.461 337.539 211.625 340.43 211.625 345.703C211.625 351.016 213.461 353.867 216.234 353.867C218.93 353.867 220.766 351.016 220.766 345.703C220.766 340.43 218.93 337.539 216.234 337.539ZM259.477 332.422C264.027 332.422 267.641 335.039 268.617 338.984H274.555V330.547H279.516V350.703H274.555V343.008H268.656C267.758 346.992 264.086 349.727 259.477 349.688C254.086 349.727 249.984 346.094 250.023 341.094C249.984 336.055 254.086 332.422 259.477 332.422ZM259.477 336.602C256.742 336.562 254.711 338.281 254.75 341.094C254.711 343.867 256.742 345.508 259.477 345.508C262.133 345.508 264.125 343.867 264.125 341.094C264.125 338.281 262.133 336.562 259.477 336.602ZM279.516 352.266V365.703H255.609V352.266H279.516ZM260.609 356.211V361.719H274.633V356.211H260.609ZM297.914 340.234C297.914 345.977 300.844 352.109 306.82 354.609L304.125 358.516C299.926 356.738 297.035 353.203 295.453 348.867C293.832 353.574 290.883 357.48 286.703 359.414L283.852 355.469C289.75 352.852 292.797 346.25 292.797 340.234V338.047H285.258V333.984H305.336V338.047H297.914V340.234ZM313.891 330.547V366.094H308.852V330.547H313.891ZM357.875 353.555V366.133H352.914V357.617H333.461V353.555H357.875ZM357.875 330.547V352.109H352.914V344.258H346.859V340.195H352.914V330.547H357.875ZM341 338.359C341 342.188 343.617 346.055 349.359 347.578L347.133 351.523C343.051 350.41 340.199 348.047 338.578 345.039C337.035 348.32 334.203 350.859 330.023 352.07L327.68 348.242C333.422 346.562 336.039 342.5 336.039 338.359V338.203H328.891V334.297H336.039V330.391H341.078V334.297H348.188V338.203H341V338.359ZM370.57 334.219L370.062 354.023H365.062L364.555 334.219H370.57ZM367.602 362.852C365.766 362.852 364.281 361.367 364.32 359.57C364.281 357.773 365.766 356.328 367.602 356.328C369.32 356.328 370.844 357.773 370.844 359.57C370.844 361.367 369.32 362.852 367.602 362.852ZM382.836 334.219L382.328 354.023H377.328L376.82 334.219H382.836ZM379.867 362.852C378.031 362.852 376.547 361.367 376.586 359.57C376.547 357.773 378.031 356.328 379.867 356.328C381.586 356.328 383.109 357.773 383.109 359.57C383.109 361.367 381.586 362.852 379.867 362.852ZM395.102 334.219L394.594 354.023H389.594L389.086 334.219H395.102ZM392.133 362.852C390.297 362.852 388.812 361.367 388.852 359.57C388.812 357.773 390.297 356.328 392.133 356.328C393.852 356.328 395.375 357.773 395.375 359.57C395.375 361.367 393.852 362.852 392.133 362.852Z" fill="black"/>
</g>
<defs>
<filter id="filter0_d_2855_610541" x="0" y="0" width="520" height="520" filterUnits="userSpaceOnUse" color-interpolation-filters="sRGB">
<feFlood flood-opacity="0" result="BackgroundImageFix"/>
<feColorMatrix in="SourceAlpha" type="matrix" values="0 0 0 0 0 0 0 0 0 0 0 0 0 0 0 0 0 0 127 0" result="hardAlpha"/>
<feOffset dx="10" dy="10"/>
<feGaussianBlur stdDeviation="5"/>
<feComposite in2="hardAlpha" operator="out"/>
<feColorMatrix type="matrix" values="0 0 0 0 0 0 0 0 0 0 0 0 0 0 0 0 0 0 0.25 0"/>
<feBlend mode="normal" in2="BackgroundImageFix" result="effect1_dropShadow_2855_610541"/>
<feBlend mode="normal" in="SourceGraphic" in2="effect1_dropShadow_2855_610541" result="shape"/>
</filter>
<clipPath id="clip0_2855_610541">
<rect width="180" height="167" fill="white" transform="translate(160 127.5)"/>
</clipPath>
<clipPath id="clip1_2855_610541">
<rect width="180" height="166.667" fill="white" transform="translate(160 127.5)"/>
</clipPath>
</defs>
</svg>
