<svg width="560" height="560" viewBox="0 0 560 560" fill="none" xmlns="http://www.w3.org/2000/svg">
<g clip-path="url(#clip0_2855_600126)">
<path d="M280 560C434.64 560 560 434.64 560 280C560 125.36 434.64 0 280 0C125.36 0 0 125.36 0 280C0 434.64 125.36 560 280 560Z" fill="#1C3462"/>
<path d="M405.615 64.9251C324.639 18.1791 228.566 21.4254 152.997 64.9251C115.796 86.3504 83.5268 117.514 60.5143 157.378C37.5018 197.242 26.6444 240.742 26.6876 283.679C26.7741 370.895 72.0206 455.73 152.954 502.477C233.93 549.223 330.003 545.976 405.572 502.477C442.773 481.051 475.042 449.887 498.055 410.023C521.067 370.159 531.925 326.66 531.882 283.722C531.795 196.507 486.549 111.671 405.615 64.9251Z" fill="#010B1D"/>
<path d="M279.5 34C332.189 34 383.526 50.6803 426.152 81.6503C468.779 112.62 500.507 156.29 516.789 206.4L279.5 283.5V34Z" fill="#F7EFAD"/>
<path d="M516.789 206.4C533.07 256.511 533.07 310.489 516.789 360.6C500.507 410.71 468.779 454.38 426.152 485.35L279.5 283.5L516.789 206.4Z" fill="#B7DFF5"/>
<path d="M426.152 485.35C383.526 516.32 332.189 533 279.5 533C226.811 533 175.474 516.32 132.848 485.35L279.5 283.5L426.152 485.35Z" fill="#A1DBBB"/>
<path d="M132.848 485.35C90.2211 454.38 58.4932 410.71 42.2114 360.6C25.9295 310.489 25.9295 256.511 42.2114 206.4L279.5 283.5L132.848 485.35Z" fill="#EAB5B5"/>
<path d="M42.2114 206.4C58.4933 156.29 90.2211 112.62 132.848 81.6502C175.474 50.6803 226.811 34 279.5 34L279.5 283.5L42.2114 206.4Z" fill="#E1C9EA"/>
<path d="M409.46 130.68L412.676 127.642L424.366 140.014L424.451 139.934L425.893 134.379L428.569 137.211L427.051 143.24L424.027 146.097L409.46 130.68ZM399.974 139.239C401.089 138.186 402.271 137.432 403.52 136.977C404.769 136.536 405.974 136.418 407.136 136.624C408.297 136.843 409.304 137.383 410.157 138.243L406.921 141.302C406.544 140.945 406.101 140.733 405.592 140.663C405.082 140.593 404.552 140.664 404 140.877C403.455 141.096 402.938 141.437 402.448 141.9C401.944 142.376 401.577 142.891 401.347 143.444C401.117 144.011 401.043 144.558 401.124 145.085C401.199 145.619 401.431 146.085 401.82 146.483C402.209 146.909 402.678 147.171 403.228 147.269C403.771 147.374 404.346 147.308 404.954 147.069C405.568 146.838 406.174 146.441 406.77 145.877L408.197 144.529L410.43 146.893L409.003 148.241C408.507 148.711 408.143 149.215 407.914 149.754C407.684 150.293 407.607 150.823 407.682 151.343C407.757 151.864 407.983 152.322 408.358 152.72C408.727 153.11 409.148 153.364 409.622 153.481C410.088 153.605 410.568 153.587 411.063 153.429C411.565 153.277 412.039 152.99 412.487 152.568C412.941 152.138 413.283 151.661 413.512 151.136C413.74 150.624 413.831 150.109 413.784 149.589C413.736 149.083 413.538 148.632 413.19 148.236L416.256 145.338C417.067 146.225 417.549 147.24 417.704 148.384C417.858 149.528 417.69 150.688 417.201 151.862C416.711 153.05 415.945 154.137 414.901 155.123C413.851 156.116 412.74 156.803 411.568 157.184C410.396 157.579 409.272 157.654 408.194 157.409C407.123 157.172 406.209 156.645 405.452 155.829C404.915 155.275 404.552 154.65 404.365 153.954C404.177 153.271 404.166 152.57 404.331 151.849C404.49 151.135 404.809 150.457 405.291 149.814L405.17 149.687C404.337 150.299 403.508 150.693 402.68 150.87C401.853 151.047 401.063 151.007 400.311 150.751C399.565 150.502 398.894 150.054 398.297 149.409C397.472 148.55 396.986 147.531 396.84 146.352C396.7 145.181 396.901 143.971 397.44 142.722C397.987 141.48 398.831 140.319 399.974 139.239ZM379.199 165.156L381.903 162.601L388.503 169.586L392.08 166.206L388.378 162.287L397.599 153.575L407.015 163.541L404.289 166.117L401.472 163.136L397.661 166.737L400.477 169.718L397.794 172.254L394.132 168.378L390.555 171.758L395.404 176.89L392.699 179.445L379.199 165.156ZM374.327 160.811L387.637 148.236L393.451 154.39L390.704 156.986L386.942 153.004L376.38 162.983L374.327 160.811ZM393.073 161.882L395.709 164.671L399.521 161.07L396.885 158.28L393.073 161.882ZM368.875 115.71L371.622 113.114L389.972 132.535L387.225 135.131L368.875 115.71ZM396.457 123.828C395.485 124.747 394.347 125.285 393.044 125.441C391.733 125.604 390.365 125.372 388.939 124.745C387.513 124.117 386.15 123.115 384.849 121.738C383.534 120.346 382.601 118.917 382.048 117.451C381.502 115.992 381.348 114.613 381.585 113.314C381.822 112.029 382.427 110.927 383.399 110.008C384.393 109.069 385.545 108.511 386.856 108.334C388.173 108.164 389.545 108.393 390.971 109.021C392.396 109.662 393.763 110.682 395.07 112.08C396.379 113.45 397.309 114.862 397.862 116.314C398.408 117.773 398.559 119.156 398.314 120.462C398.07 121.767 397.451 122.889 396.457 123.828ZM394.143 121.379C394.647 120.903 394.927 120.31 394.981 119.6C395.036 118.904 394.85 118.125 394.426 117.263C394.001 116.402 393.343 115.499 392.451 114.555C391.552 113.603 390.685 112.891 389.849 112.419C389.012 111.946 388.245 111.717 387.547 111.732C386.842 111.753 386.237 112.002 385.733 112.478C385.236 112.948 384.964 113.527 384.917 114.217C384.876 114.913 385.068 115.692 385.493 116.554C385.918 117.416 386.576 118.319 387.468 119.263C388.353 120.2 389.214 120.905 390.05 121.377C390.893 121.857 391.664 122.09 392.362 122.075C393.06 122.074 393.654 121.842 394.143 121.379ZM372.099 139.427C371.086 138.355 369.909 137.472 368.568 136.778C367.226 136.097 365.801 135.69 364.292 135.558C362.783 135.425 361.299 135.632 359.839 136.178L359.297 132.66C360.854 132.075 362.459 131.862 364.112 132.019C365.766 132.177 367.393 132.648 368.994 133.432C368.194 131.689 367.726 129.935 367.589 128.17C367.46 126.412 367.707 124.754 368.331 123.196L371.918 123.878C371.318 125.319 371.068 126.825 371.168 128.396C371.262 129.973 371.64 131.483 372.304 132.925C372.967 134.381 373.829 135.669 374.888 136.791L376.015 137.984L380.125 134.1L382.218 136.315L371.272 146.657L369.179 144.442L373.226 140.619L372.099 139.427ZM350.069 133.559L352.817 130.963L371.126 150.342L368.379 152.937L350.069 133.559ZM330.648 151.908L333.246 149.454L351.556 168.832L348.958 171.287L330.648 151.908ZM335.286 149.139L337.82 146.744L343.112 152.345L345.305 150.272C344.949 149.198 344.893 148.143 345.136 147.107C345.386 146.078 345.927 145.171 346.757 144.386C347.545 143.642 348.443 143.17 349.45 142.971C350.458 142.771 351.471 142.855 352.49 143.223C353.515 143.597 354.45 144.239 355.295 145.147C356.154 146.041 356.738 147.008 357.047 148.046C357.363 149.091 357.392 150.111 357.136 151.105C356.88 152.1 356.358 152.969 355.57 153.714C354.768 154.472 353.863 154.95 352.856 155.15C351.855 155.356 350.842 155.272 349.816 154.898C348.784 154.53 347.842 153.895 346.99 152.994L346.849 152.845L345.124 154.474L347.317 156.795L349.447 154.783L351.539 156.998L349.41 159.01L355.023 164.951L352.489 167.346L335.286 149.139ZM351.751 159.014L360.972 150.302L363.004 152.453L359.725 155.552L362.059 158.022L359.354 160.577L357.02 158.107L353.784 161.165L351.751 159.014ZM353.397 151.414C353.936 150.904 354.171 150.292 354.102 149.579C354.032 148.865 353.642 148.132 352.931 147.38C352.234 146.642 351.527 146.214 350.812 146.097C350.097 145.98 349.47 146.177 348.93 146.686C348.384 147.203 348.141 147.828 348.204 148.562C348.266 149.296 348.642 150.035 349.332 150.78C350.05 151.526 350.771 151.947 351.493 152.044C352.209 152.147 352.843 151.937 353.397 151.414Z" fill="black"/>
<path d="M479.351 374.461L483.292 376.472L475.558 391.634L475.662 391.688L481.379 391.183L479.609 394.654L473.42 395.247L469.714 393.356L479.351 374.461ZM468.158 368.423C469.454 369.084 470.502 369.92 471.302 370.931C472.093 371.938 472.574 373.016 472.744 374.166C472.9 375.32 472.719 376.439 472.199 377.522L468.389 375.579C468.611 375.078 468.679 374.57 468.591 374.054C468.503 373.538 468.282 373.058 467.928 372.614C467.573 372.17 467.122 371.808 466.574 371.529C465.93 371.201 465.285 371.047 464.638 371.068C463.979 371.093 463.381 371.287 462.845 371.65C462.296 372.016 461.858 372.522 461.529 373.166C461.192 373.827 461.036 374.487 461.062 375.147C461.087 375.806 461.287 376.413 461.663 376.966C462.025 377.524 462.53 377.973 463.178 378.315C464.596 379.038 465.859 379.013 466.966 378.24L470.515 380.051L463.946 390.415L452.306 384.477L453.944 381.267L462.347 385.554L465.305 381.044L465.149 380.964C464.548 381.261 463.839 381.382 463.023 381.327C462.194 381.277 461.37 381.043 460.552 380.626C459.404 380.04 458.509 379.249 457.866 378.253C457.214 377.252 456.869 376.144 456.831 374.929C456.78 373.719 457.058 372.518 457.666 371.326C458.309 370.065 459.184 369.091 460.29 368.406C461.396 367.72 462.637 367.372 464.013 367.361C465.376 367.355 466.757 367.709 468.158 368.423ZM437.034 357.679L440.349 359.369L435.982 367.929L440.367 370.166L442.816 365.364L454.117 371.128L447.887 383.341L444.546 381.638L446.41 377.984L441.738 375.601L439.875 379.255L436.586 377.577L439.009 372.828L434.625 370.591L431.417 376.881L428.102 375.19L437.034 357.679ZM439.494 351.632L455.805 359.952L451.958 367.494L448.591 365.777L451.08 360.896L438.136 354.294L439.494 351.632ZM444.773 369.651L443.03 373.07L447.701 375.452L449.445 372.033L444.773 369.651ZM478.331 351.058L494.851 359.484L491.204 366.635L487.889 364.944L490.192 360.429L476.987 353.694L478.331 351.058ZM477.982 345.552L499.722 356.641L498.377 359.276L476.638 348.188L477.982 345.552ZM484.546 339.132L497.803 345.894L498.575 344.381L484.587 337.246L485.891 334.688L503.221 343.527L499.919 349.999L486.635 343.224L485.943 344.581L499.279 351.383L497.975 353.941L481.324 345.448L484.546 339.132ZM452.757 342.65L455.889 344.248L458.644 338.846L455.721 337.355L457.053 334.745L474.564 343.677L473.233 346.287L470.284 344.783L467.529 350.185L470.608 351.756L469.25 354.418L451.399 345.312L452.757 342.65ZM457.348 328.943L466.587 333.655L470.274 326.426L473.589 328.117L469.901 335.346L479.088 340.032L477.703 342.746L455.964 331.657L457.348 328.943ZM461.933 340.523L459.177 345.925L464.188 348.481L466.944 343.079L461.933 340.523ZM433.746 318.154L455.485 329.242L454.127 331.904L432.388 320.816L433.746 318.154ZM439.853 311.403L456.738 320.015L453.411 326.54L450.07 324.836L452.04 320.973L438.495 314.065L439.853 311.403ZM432.095 327.902L445.17 334.571L446.035 332.875L432.517 325.979L433.795 323.474L450.628 332.06L447.273 338.636L434.224 331.981L433.399 333.599L446.5 340.281L445.196 342.839L428.754 334.452L432.095 327.902ZM410.456 314.102L406.959 312.318L408.356 309.578L411.854 311.361L417.831 299.643L421.119 301.321L409.005 325.07L405.717 323.393L410.456 314.102ZM413.792 319.684L427.754 326.806L426.396 329.468L421.02 326.725L419.396 329.909L416.055 328.205L417.679 325.021L412.434 322.346L413.792 319.684ZM421.386 321.88C420.238 321.295 419.331 320.525 418.666 319.572C417.988 318.623 417.608 317.585 417.525 316.458C417.434 315.326 417.666 314.216 418.22 313.129C418.775 312.041 419.537 311.202 420.507 310.612C421.468 310.017 422.534 309.711 423.705 309.694C424.862 309.682 426.015 309.968 427.164 310.554C428.321 311.144 429.238 311.914 429.916 312.862C430.59 313.82 430.972 314.865 431.064 315.996C431.146 317.124 430.911 318.231 430.356 319.319C429.801 320.406 429.043 321.247 428.082 321.842C427.112 322.433 426.044 322.732 424.878 322.74C423.707 322.757 422.543 322.471 421.386 321.88ZM422.757 319.192C423.319 319.468 423.883 319.597 424.451 319.579C425.01 319.558 425.529 319.389 426.008 319.074C426.478 318.755 426.866 318.295 427.172 317.695C427.483 317.086 427.629 316.497 427.612 315.929C427.586 315.357 427.415 314.843 427.1 314.386C426.772 313.933 426.327 313.569 425.766 313.294C425.214 313.002 424.662 312.857 424.112 312.862C423.557 312.875 423.045 313.041 422.575 313.36C422.105 313.68 421.715 314.144 421.404 314.753C421.098 315.353 420.954 315.937 420.971 316.505C420.988 317.073 421.152 317.59 421.463 318.055C421.774 318.521 422.205 318.9 422.757 319.192ZM385.944 303.934L402.464 312.36L398.817 319.511L395.502 317.821L397.805 313.306L384.6 306.57L385.944 303.934ZM385.595 298.428L407.335 309.517L405.99 312.153L384.251 301.064L385.595 298.428ZM392.159 292.008L405.417 298.771L406.189 297.257L392.2 290.122L393.505 287.564L410.834 296.403L407.532 302.876L394.249 296.1L393.556 297.457L406.892 304.259L405.588 306.817L388.937 298.324L392.159 292.008Z" fill="black"/>
<path d="M273.828 471.741L266.942 464.019C266.231 463.257 265.639 462.667 265.167 462.249C264.695 461.822 264.226 461.493 263.761 461.261C263.286 461.029 262.78 460.909 262.243 460.901C261.627 460.892 261.088 461.03 260.625 461.316C260.162 461.593 259.804 461.988 259.552 462.502C259.291 463.005 259.155 463.58 259.145 464.224C259.13 465.22 259.416 466.02 260.003 466.625C260.58 467.23 261.371 467.539 262.377 467.555L262.313 471.743C260.946 471.733 259.755 471.407 258.739 470.767C257.723 470.116 256.946 469.216 256.406 468.065C255.867 466.914 255.609 465.597 255.631 464.113C255.653 462.619 255.942 461.304 256.496 460.17C257.041 459.036 257.791 458.163 258.748 457.552C259.705 456.932 260.793 456.631 262.014 456.649C262.844 456.662 263.642 456.835 264.409 457.169C265.165 457.503 266.011 458.077 266.946 458.892C267.872 459.697 268.983 460.837 270.279 462.312L273.365 465.581L273.482 465.583L273.618 456.531L277.251 456.586L277.022 471.76L273.828 471.741ZM277.715 445.225C277.689 446.992 277.241 448.509 276.372 449.775C275.494 451.032 274.234 451.989 272.593 452.648C270.952 453.307 268.984 453.619 266.689 453.585C264.395 453.55 262.437 453.179 260.817 452.471C259.197 451.763 257.971 450.767 257.141 449.485C256.301 448.193 255.894 446.663 255.921 444.896C255.947 443.138 256.4 441.626 257.278 440.36C258.147 439.094 259.407 438.131 261.058 437.473C262.699 436.814 264.662 436.501 266.947 436.536C269.251 436.571 271.213 436.942 272.834 437.65C274.454 438.358 275.679 439.358 276.51 440.65C277.34 441.933 277.742 443.457 277.715 445.225ZM274.083 445.17C274.095 444.35 273.842 443.638 273.324 443.034C272.806 442.421 272.017 441.945 270.958 441.607C269.898 441.259 268.587 441.073 267.025 441.049C264.594 441.013 262.743 441.336 261.473 442.02C260.193 442.704 259.543 443.681 259.524 444.95C259.505 446.22 260.125 447.215 261.383 447.938C262.632 448.66 264.473 449.039 266.904 449.076C268.466 449.099 269.782 448.958 270.851 448.652C271.921 448.336 272.723 447.884 273.26 447.296C273.796 446.699 274.07 445.99 274.083 445.17ZM273.646 411.996L273.59 415.716L263.981 415.571L263.907 420.492L269.297 420.573L269.106 433.258L255.396 433.051L255.453 429.301L259.554 429.363L259.633 424.12L255.532 424.058L255.588 420.367L260.919 420.447L260.993 415.526L253.934 415.419L253.99 411.699L273.646 411.996ZM280.157 411.537L279.881 429.846L271.415 429.718L271.472 425.939L276.95 426.022L277.169 411.492L280.157 411.537ZM266.312 424.22L262.475 424.162L262.395 429.406L266.233 429.464L266.312 424.22ZM316.095 450.902L316.038 454.681L289.322 454.278L289.379 450.499L316.095 450.902ZM291.036 464.998C291.056 463.661 291.464 462.47 292.262 461.427C293.059 460.375 294.18 459.557 295.624 458.973C297.069 458.389 298.738 458.112 300.632 458.14C302.546 458.169 304.221 458.497 305.657 459.124C307.083 459.751 308.179 460.603 308.944 461.679C309.7 462.745 310.067 463.947 310.047 465.285C310.027 466.652 309.622 467.867 308.835 468.929C308.037 469.992 306.917 470.815 305.472 471.398C304.018 471.972 302.334 472.24 300.42 472.201C298.526 472.182 296.865 471.864 295.439 471.247C294.013 470.62 292.917 469.764 292.152 468.678C291.387 467.592 291.015 466.365 291.036 464.998ZM294.404 465.049C294.394 465.742 294.624 466.356 295.094 466.891C295.555 467.415 296.243 467.826 297.156 468.123C298.07 468.42 299.176 468.578 300.475 468.598C301.783 468.618 302.898 468.493 303.82 468.224C304.743 467.954 305.442 467.565 305.918 467.054C306.395 466.534 306.639 465.927 306.649 465.234C306.659 464.55 306.434 463.951 305.973 463.436C305.502 462.921 304.81 462.515 303.896 462.218C302.983 461.921 301.877 461.763 300.578 461.743C299.289 461.724 298.184 461.849 297.261 462.118C296.33 462.387 295.625 462.777 295.149 463.288C294.663 463.788 294.415 464.375 294.404 465.049ZM298.518 425.468L298.293 440.378L300.519 440.412L300.753 424.886L303.741 424.931L303.45 444.236L295.423 444.115L295.648 429.263L293.538 429.231L293.313 444.171L290.296 444.125L290.579 425.348L298.518 425.468ZM308.754 422.81L308.598 433.179L316.36 433.297L316.304 437.046L308.541 436.929L308.386 447.211L305.398 447.166L305.766 422.764L308.754 422.81Z" fill="black"/>
<path d="M91.3491 336.591L94.4334 326.715C94.7221 325.712 94.9241 324.902 95.0393 324.282C95.163 323.657 95.2046 323.086 95.1641 322.568C95.1188 322.041 94.9615 321.545 94.6925 321.081C94.3842 320.548 93.9883 320.157 93.5048 319.906C93.0298 319.651 92.5071 319.547 91.9369 319.595C91.3702 319.63 90.808 319.809 90.2501 320.132C89.3881 320.631 88.8485 321.287 88.6314 322.101C88.4094 322.907 88.5504 323.745 89.0543 324.615L85.4286 326.714C84.7352 325.536 84.4021 324.346 84.4292 323.146C84.4649 321.94 84.8377 320.811 85.5476 319.756C86.2576 318.702 87.2549 317.803 88.5395 317.06C89.8326 316.311 91.1081 315.883 92.3661 315.775C93.6191 315.659 94.7534 315.855 95.7688 316.361C96.7928 316.863 97.6105 317.642 98.2221 318.699C98.638 319.417 98.8997 320.191 99.0074 321.02C99.1101 321.841 99.0522 322.862 98.8338 324.083C98.6189 325.29 98.212 326.829 97.6133 328.699L96.3948 333.027L96.4535 333.128L104.288 328.592L106.108 331.736L92.9744 339.34L91.3491 336.591ZM116.732 325.586L112.903 327.803L104.375 313.072L104.274 313.13L101.592 318.204L99.6394 314.832L102.505 309.314L106.105 307.23L116.732 325.586ZM137.535 308.601L134.315 310.465L129.501 302.149L125.241 304.615L127.942 309.28L116.963 315.636L110.094 303.769L113.339 301.891L115.394 305.44L119.933 302.813L117.878 299.263L121.072 297.414L123.744 302.029L128.003 299.563L124.466 293.452L127.686 291.588L137.535 308.601ZM141.275 313.951L125.428 323.125L121.187 315.797L124.457 313.904L127.202 318.645L139.778 311.365L141.275 313.951ZM123.279 308.594L121.356 305.272L116.818 307.9L118.741 311.221L123.279 308.594ZM111.268 344.45C112.432 346.462 113.05 348.513 113.121 350.605C113.196 352.683 112.745 354.749 111.768 356.804C110.786 358.851 109.313 360.838 107.348 362.765L104.652 360.974C106.828 358.846 108.299 356.747 109.065 354.679C109.839 352.606 109.9 350.703 109.247 348.971L101.945 353.198L100.492 350.688L111.268 344.45ZM125.035 351.917L121.789 353.796L114.333 340.915L117.578 339.036L125.035 351.917ZM130.759 361.805L115.369 370.715L110.188 361.764L125.578 352.855L130.759 361.805ZM117.121 366.315L126.122 361.104L123.876 357.225L114.875 362.436L117.121 366.315ZM139.162 341.234L148.112 336.052L149.624 338.664L128.579 350.847L127.067 348.235L135.967 343.083L134.367 340.319L137.562 338.47L139.162 341.234ZM139.81 346.038C141.483 345.069 143.013 344.398 144.399 344.024C145.78 343.642 146.964 343.572 147.95 343.814C148.945 344.05 149.698 344.601 150.211 345.467C150.706 346.342 150.809 347.27 150.519 348.251C150.237 349.226 149.587 350.218 148.568 351.225C147.553 352.241 146.21 353.233 144.536 354.202C142.846 355.181 141.303 355.859 139.909 356.237C138.519 356.624 137.327 356.7 136.333 356.463C135.338 356.226 134.589 355.673 134.085 354.802C133.581 353.932 133.474 353.006 133.764 352.026C134.054 351.045 134.713 350.049 135.74 349.037C136.763 348.016 138.12 347.016 139.81 346.038ZM141.234 348.497C138.014 350.361 136.729 351.827 137.381 352.894C137.7 353.465 138.334 353.663 139.281 353.487C140.232 353.297 141.519 352.733 143.142 351.793C144.722 350.878 145.836 350.053 146.482 349.318C147.123 348.574 147.284 347.917 146.965 347.346C146.314 346.279 144.403 346.662 141.234 348.497ZM141.866 329.648L135.59 333.281C136.111 333.713 136.813 334 137.697 334.143C138.585 334.273 139.642 334.219 140.871 333.982C142.094 333.736 143.435 333.276 144.895 332.6L145.221 335.796C142.969 336.818 140.901 337.377 139.017 337.475C137.128 337.565 135.54 337.22 134.254 336.441C134.281 337.949 133.794 339.495 132.792 341.079C131.786 342.654 130.283 344.162 128.284 345.601L125.676 343.726C126.98 342.802 128.039 341.873 128.852 340.939C129.674 340.001 130.25 339.114 130.58 338.28C130.905 337.438 131.003 336.681 130.874 336.011L124.65 339.615L123.182 337.079L140.398 327.113L141.866 329.648ZM163.086 329.991L151.803 336.522L145.359 325.392L156.642 318.86L163.086 329.991ZM153.515 332.112L158.383 329.294L154.905 323.285L150.036 326.103L153.515 332.112ZM171.953 329.461L168.708 331.34L159.211 314.935L162.456 313.057L171.953 329.461ZM176.114 335.245L160.039 344.551L155.606 336.893L158.877 335L161.798 340.046L174.602 332.633L176.114 335.245Z" fill="black"/>
<path d="M181.799 108.163L181.911 108.069L175.262 100.072L178.033 97.768L187.604 109.28L184.788 111.621L165.581 115.969L162.659 112.455L181.799 108.163ZM190.259 138.961L187.881 136.1L195.27 129.957L192.123 126.172L187.978 129.619L179.868 119.864L190.411 111.099L192.809 113.982L189.655 116.604L193.007 120.637L196.161 118.015L198.521 120.853L194.421 124.262L197.568 128.047L202.997 123.533L205.376 126.394L190.259 138.961ZM185.614 143.547L173.908 129.467L180.419 124.055L182.835 126.961L178.622 130.463L187.912 141.637L185.614 143.547ZM187.871 124.907L190.822 122.454L187.47 118.421L184.519 120.875L187.871 124.907ZM146.045 153.09L143.629 150.184L164.174 133.102L166.59 136.008L146.045 153.09ZM155.896 126.078C156.752 127.107 157.216 128.277 157.289 129.587C157.369 130.905 157.051 132.256 156.334 133.639C155.617 135.022 154.53 136.32 153.074 137.531C151.602 138.754 150.117 139.595 148.618 140.054C147.127 140.506 145.741 140.573 144.46 140.253C143.192 139.936 142.131 139.262 141.276 138.234C140.401 137.182 139.918 135.997 139.824 134.678C139.738 133.352 140.054 131.998 140.77 130.615C141.501 129.233 142.605 127.933 144.083 126.717C145.534 125.499 147.002 124.659 148.486 124.2C149.977 123.748 151.366 123.685 152.654 124.011C153.941 124.338 155.022 125.027 155.896 126.078ZM153.306 128.232C152.862 127.699 152.288 127.383 151.583 127.283C150.892 127.185 150.103 127.32 149.216 127.689C148.329 128.058 147.386 128.658 146.387 129.488C145.381 130.325 144.615 131.145 144.09 131.95C143.566 132.755 143.288 133.506 143.259 134.203C143.236 134.909 143.446 135.528 143.889 136.061C144.326 136.587 144.887 136.895 145.572 136.986C146.265 137.07 147.054 136.928 147.941 136.559C148.828 136.19 149.771 135.59 150.77 134.76C151.761 133.936 152.519 133.121 153.044 132.317C153.576 131.506 153.857 130.752 153.887 130.054C153.93 129.358 153.736 128.75 153.306 128.232ZM166.556 159.43L158.221 149.405L168.111 141.183L176.446 151.208L166.556 159.43ZM162.857 150.352L166.453 154.677L171.792 150.238L168.196 145.913L162.857 150.352ZM168.568 168.082L166.17 165.199L180.746 153.081L183.143 155.964L168.568 168.082ZM163.565 173.156L151.691 158.873L158.495 153.217L160.911 156.123L156.428 159.85L165.886 171.226L163.565 173.156ZM195.434 180.646L181.255 163.592L183.553 161.682L189.453 168.778L191.841 166.793L194.201 169.631L191.813 171.616L197.731 178.735L195.434 180.646ZM182.666 192.785L167.064 174.019L169.362 172.108L175.936 180.016L178.29 178.058C177.42 176.813 176.808 175.627 176.455 174.498C176.108 173.364 176.033 172.341 176.227 171.43C176.422 170.518 176.895 169.757 177.644 169.147C178.456 168.459 179.397 168.147 180.466 168.211C181.541 168.282 182.674 168.712 183.863 169.501C185.059 170.298 186.249 171.416 187.434 172.857C188.615 174.262 189.485 175.622 190.044 176.935C190.602 178.249 190.819 179.441 190.692 180.511C190.566 181.581 190.094 182.456 189.275 183.137C188.532 183.755 187.691 184.073 186.753 184.09C185.822 184.116 184.837 183.855 183.798 183.309C182.76 182.762 181.711 181.958 180.65 180.897L178.296 182.854L184.964 190.874L182.666 192.785ZM185.204 174.711C184.086 173.367 183.097 172.475 182.236 172.035C181.382 171.589 180.67 171.61 180.098 172.098C179.491 172.59 179.326 173.293 179.602 174.206C179.885 175.126 180.588 176.262 181.712 177.614C183.947 180.302 185.65 181.16 186.822 180.186C187.4 179.705 187.544 179.001 187.255 178.072C186.98 177.146 186.296 176.025 185.204 174.711Z" fill="black"/>
<path d="M279.572 24.0354C282.848 24.0354 285.503 21.3782 285.503 18.1005C285.503 14.8227 282.848 12.1655 279.572 12.1655C276.296 12.1655 273.641 14.8227 273.641 18.1005C273.641 21.3782 276.296 24.0354 279.572 24.0354Z" fill="#4E648F"/>
<path d="M279.572 553.061C282.848 553.061 285.503 550.404 285.503 547.126C285.503 543.849 282.848 541.191 279.572 541.191C276.296 541.191 273.641 543.849 273.641 547.126C273.641 550.404 276.296 553.061 279.572 553.061Z" fill="#4E648F"/>
<path d="M239.513 21.111C240.072 24.3365 237.923 27.433 234.7 27.9921C231.476 28.5511 228.381 26.4008 227.823 23.1753C227.264 19.9498 229.413 16.8533 232.637 16.2942C235.86 15.7351 238.955 17.8855 239.513 21.111Z" fill="#4E648F"/>
<path d="M331.365 542.051C331.924 545.277 329.775 548.373 326.551 548.932C323.328 549.492 320.233 547.341 319.674 544.116C319.116 540.89 321.265 537.794 324.488 537.235C327.712 536.676 330.806 538.826 331.365 542.051Z" fill="#4E648F"/>
<path d="M194.727 32.0347C195.845 35.1312 194.255 38.5287 191.16 39.6469C188.065 40.7651 184.67 39.1738 183.553 36.0773C182.435 32.9809 184.025 29.5833 187.12 28.4652C190.215 27.347 193.61 28.9382 194.727 32.0347Z" fill="#4E648F"/>
<path d="M375.634 529.106C376.751 532.203 375.161 535.6 372.066 536.719C368.972 537.837 365.576 536.245 364.459 533.149C363.341 530.052 364.932 526.655 368.026 525.537C371.121 524.419 374.516 526.01 375.634 529.106Z" fill="#4E648F"/>
<path d="M152.48 50.5705C154.113 53.409 153.168 57.0645 150.288 58.6988C147.451 60.3331 143.798 59.3869 142.165 56.5055C140.532 53.624 141.477 50.0114 144.357 48.3772C147.193 46.7429 150.847 47.6891 152.48 50.5705Z" fill="#4E648F"/>
<path d="M416.98 508.678C418.613 511.517 417.668 515.172 414.788 516.806C411.951 518.441 408.298 517.495 406.665 514.613C405.032 511.775 405.977 508.119 408.857 506.485C411.693 504.851 415.347 505.797 416.98 508.678Z" fill="#4E648F"/>
<path d="M114.143 76.1596C116.249 78.697 115.905 82.4386 113.412 84.5459C110.876 86.6533 107.137 86.3092 105.031 83.8148C102.925 81.3204 103.269 77.5358 105.762 75.4285C108.298 73.3212 112.037 73.6652 114.143 76.1596Z" fill="#4E648F"/>
<path d="M454.159 481.412C456.265 483.949 455.921 487.691 453.428 489.798C450.892 491.906 447.153 491.562 445.047 489.067C442.941 486.573 443.285 482.788 445.777 480.681C448.313 478.573 452.053 478.918 454.159 481.412Z" fill="#4E648F"/>
<path d="M80.7858 108.028C83.3216 110.135 83.6225 113.877 81.5164 116.414C79.4104 118.951 75.6711 119.252 73.1353 117.145C70.5995 115.038 70.2986 111.296 72.4046 108.759C74.5107 106.264 78.2499 105.92 80.7858 108.028Z" fill="#4E648F"/>
<path d="M486.005 448.082C488.54 450.189 488.841 453.931 486.735 456.468C484.629 459.006 480.89 459.307 478.354 457.199C475.818 455.092 475.517 451.35 477.623 448.813C479.729 446.276 483.469 445.975 486.005 448.082Z" fill="#4E648F"/>
<path d="M53.4974 145.228C56.3341 146.863 57.3227 150.518 55.6894 153.357C54.0562 156.195 50.4028 157.184 47.5662 155.55C44.7295 153.916 43.7409 150.26 45.3742 147.422C47.0074 144.583 50.6607 143.594 53.4974 145.228Z" fill="#4E648F"/>
<path d="M511.622 409.72C514.459 411.354 515.448 415.009 513.814 417.848C512.181 420.686 508.528 421.676 505.691 420.041C502.854 418.407 501.866 414.751 503.499 411.913C505.132 409.075 508.786 408.085 511.622 409.72Z" fill="#4E648F"/>
<path d="M33.0772 186.558C36.1718 187.676 37.7621 191.074 36.6446 194.17C35.5271 197.267 32.0887 198.858 29.0371 197.74C25.9855 196.621 24.3523 193.224 25.4698 190.127C26.5872 187.031 30.0257 185.44 33.0772 186.558Z" fill="#4E648F"/>
<path d="M530.144 367.487C533.239 368.605 534.829 372.003 533.712 375.099C532.594 378.196 529.156 379.787 526.104 378.669C523.01 377.551 521.419 374.153 522.537 371.057C523.654 367.96 527.093 366.369 530.144 367.487Z" fill="#4E648F"/>
<path d="M20.1404 230.812C23.3639 231.371 25.5559 234.467 24.9542 237.693C24.3954 240.918 21.3009 243.069 18.0774 242.51C14.8539 241.951 12.6619 238.854 13.2636 235.629C13.8223 232.403 16.9169 230.253 20.1404 230.812Z" fill="#4E648F"/>
<path d="M541.062 322.674C544.286 323.233 546.478 326.33 545.876 329.555C545.317 332.781 542.223 334.931 538.999 334.372C535.776 333.813 533.584 330.716 534.185 327.491C534.744 324.265 537.839 322.115 541.062 322.674Z" fill="#4E648F"/>
<path d="M15.0719 288.527C18.3476 288.527 21.0031 285.87 21.0031 282.592C21.0031 279.314 18.3476 276.657 15.0719 276.657C11.7961 276.657 9.14062 279.314 9.14062 282.592C9.14062 285.87 11.7961 288.527 15.0719 288.527Z" fill="#4E648F"/>
<path d="M544.072 288.527C547.348 288.527 550.003 285.87 550.003 282.592C550.003 279.314 547.348 276.657 544.072 276.657C540.796 276.657 538.141 279.314 538.141 282.592C538.141 285.87 540.796 288.527 544.072 288.527Z" fill="#4E648F"/>
<path d="M18.0818 322.674C21.3053 322.115 24.3999 324.265 24.9586 327.491C25.5174 330.716 23.3684 333.813 20.1449 334.372C16.9214 334.931 13.8268 332.781 13.268 329.555C12.7093 326.33 14.8583 323.233 18.0818 322.674Z" fill="#4E648F"/>
<path d="M539.004 230.812C542.227 230.253 545.322 232.403 545.881 235.629C546.439 238.854 544.29 241.951 541.067 242.51C537.843 243.069 534.749 240.918 534.19 237.693C533.631 234.467 535.78 231.371 539.004 230.812Z" fill="#4E648F"/>
<path d="M28.9949 367.487C32.0895 366.369 35.4849 367.96 36.6024 371.057C37.7199 374.153 36.1296 377.551 33.0351 378.669C29.9405 379.787 26.5451 378.196 25.4276 375.099C24.3101 372.003 25.9004 368.605 28.9949 367.487Z" fill="#4E648F"/>
<path d="M526.104 186.558C529.199 185.44 532.594 187.031 533.712 190.127C534.829 193.224 533.239 196.621 530.144 197.74C527.05 198.858 523.654 197.267 522.537 194.17C521.419 191.074 523.01 187.676 526.104 186.558Z" fill="#4E648F"/>
<path d="M47.5677 409.72C50.4044 408.086 54.0577 409.032 55.6909 411.913C57.3242 414.752 56.3786 418.407 53.499 420.041C50.6623 421.676 47.009 420.73 45.3757 417.848C43.7425 415.01 44.688 411.354 47.5677 409.72Z" fill="#4E648F"/>
<path d="M505.646 145.228C508.482 143.594 512.136 144.54 513.769 147.422C515.402 150.26 514.457 153.916 511.577 155.55C508.697 157.184 505.087 156.238 503.454 153.357C501.821 150.518 502.766 146.863 505.646 145.228Z" fill="#4E648F"/>
<path d="M73.1368 448.082C75.6727 445.974 79.4119 446.319 81.518 448.813C83.624 451.35 83.2801 455.092 80.7873 457.199C78.2515 459.307 74.5122 458.963 72.4062 456.468C70.3001 453.931 70.644 450.189 73.1368 448.082Z" fill="#4E648F"/>
<path d="M478.356 108.028C480.891 105.92 484.631 106.264 486.737 108.759C488.843 111.296 488.499 115.038 486.006 117.145C483.47 119.252 479.731 118.908 477.625 116.414C475.519 113.92 475.863 110.135 478.356 108.028Z" fill="#4E648F"/>
<path d="M105.03 481.412C107.136 478.875 110.875 478.574 113.411 480.681C115.947 482.788 116.247 486.53 114.141 489.067C112.035 491.605 108.296 491.906 105.76 489.798C103.224 487.691 102.924 483.949 105.03 481.412Z" fill="#4E648F"/>
<path d="M445.045 76.1596C447.151 73.6222 450.891 73.3211 453.426 75.4285C455.962 77.5358 456.263 81.2774 454.157 83.8148C452.051 86.3522 448.312 86.6532 445.776 84.5459C443.24 82.4386 442.939 78.697 445.045 76.1596Z" fill="#4E648F"/>
<path d="M142.163 508.678C143.796 505.84 147.45 504.851 150.286 506.485C153.123 508.119 154.112 511.775 152.478 514.613C150.845 517.452 147.192 518.441 144.355 516.807C141.519 515.172 140.53 511.517 142.163 508.678Z" fill="#4E648F"/>
<path d="M406.663 50.5707C408.296 47.7322 411.95 46.7431 414.786 48.3773C417.623 50.0116 418.612 53.6672 416.978 56.5056C415.345 59.3441 411.692 60.3332 408.855 58.699C406.019 57.0647 405.03 53.4091 406.663 50.5707Z" fill="#4E648F"/>
<path d="M183.509 529.106C184.626 526.01 188.065 524.419 191.116 525.537C194.211 526.655 195.801 530.052 194.684 533.149C193.566 536.245 190.128 537.837 187.076 536.719C184.025 535.6 182.391 532.203 183.509 529.106Z" fill="#4E648F"/>
<path d="M364.459 32.0347C365.576 28.9382 369.015 27.347 372.066 28.4652C375.161 29.5833 376.751 32.9809 375.634 36.0773C374.516 39.1738 371.078 40.7651 368.026 39.6469C364.932 38.5287 363.341 35.1312 364.459 32.0347Z" fill="#4E648F"/>
<path d="M227.779 542.051C228.338 538.826 231.433 536.676 234.656 537.235C237.88 537.794 240.072 540.89 239.47 544.116C238.911 547.341 235.816 549.492 232.593 548.932C229.369 548.373 227.177 545.277 227.779 542.051Z" fill="#4E648F"/>
<path d="M319.67 21.111C320.229 17.8855 323.323 15.7351 326.547 16.2942C329.77 16.8533 331.962 19.9498 331.36 23.1753C330.802 26.4008 327.707 28.5511 324.484 27.9921C321.26 27.433 319.068 24.3365 319.67 21.111Z" fill="#4E648F"/>
<path d="M279.311 351.028C318.729 351.028 350.684 319.073 350.684 279.654C350.684 240.235 318.729 208.28 279.311 208.28C239.892 208.28 207.938 240.235 207.938 279.654C207.938 319.073 239.892 351.028 279.311 351.028Z" fill="#1C3462"/>
<path d="M277.539 176.423L257.555 229.748H301.071L281.086 176.423C280.437 174.735 278.188 174.735 277.582 176.423H277.539Z" fill="#1C3462"/>
<g filter="url(#filter0_di_2855_600126)">
<circle cx="279.5" cy="279.5" r="61.5" fill="#F04C42"/>
<circle cx="279.5" cy="279.5" r="62.5" stroke="#C94800" stroke-width="2"/>
</g>
<path d="M227 276C227 248.938 248.938 227 276 227" stroke="#FF6565" stroke-width="8" stroke-linecap="round"/>
<mask id="path-54-outside-1_2855_600126" maskUnits="userSpaceOnUse" x="241.266" y="267.833" width="75" height="30" fill="black">
<rect fill="white" x="241.266" y="267.833" width="75" height="30"/>
<path d="M264.243 276.201V278.945H257.299V280.569H266.931V283.313H244.195V280.569H253.771V278.945H247.051V271.273H264.075V274.073H250.523V276.201H264.243ZM246.827 295.185V288.577H260.715V287.233H246.827V284.657H264.131V291.041H250.243V292.497H264.803V295.185H246.827ZM289.282 270.433V295.409H285.81V270.433H289.282ZM269.738 289.585V279.393H277.97V275.361H269.738V272.561H281.554V282.137H273.322V286.729C277.13 286.701 280.35 286.505 284.018 285.889L284.298 288.689C280.238 289.417 276.542 289.585 271.978 289.585H269.738ZM313.537 270.433V295.353H310.009V270.433H313.537ZM292.705 288.297C299.117 285.245 301.945 281.325 302.505 275.809H293.993V273.065H306.033C306.061 280.597 303.401 286.897 294.497 291.097L292.705 288.297Z"/>
</mask>
<path d="M264.243 276.201V278.945H257.299V280.569H266.931V283.313H244.195V280.569H253.771V278.945H247.051V271.273H264.075V274.073H250.523V276.201H264.243ZM246.827 295.185V288.577H260.715V287.233H246.827V284.657H264.131V291.041H250.243V292.497H264.803V295.185H246.827ZM289.282 270.433V295.409H285.81V270.433H289.282ZM269.738 289.585V279.393H277.97V275.361H269.738V272.561H281.554V282.137H273.322V286.729C277.13 286.701 280.35 286.505 284.018 285.889L284.298 288.689C280.238 289.417 276.542 289.585 271.978 289.585H269.738ZM313.537 270.433V295.353H310.009V270.433H313.537ZM292.705 288.297C299.117 285.245 301.945 281.325 302.505 275.809H293.993V273.065H306.033C306.061 280.597 303.401 286.897 294.497 291.097L292.705 288.297Z" fill="white"/>
<path d="M264.243 276.201H266.243C266.243 275.097 265.347 274.201 264.243 274.201V276.201ZM264.243 278.945V280.945C265.347 280.945 266.243 280.05 266.243 278.945H264.243ZM257.299 278.945V276.945C256.194 276.945 255.299 277.841 255.299 278.945H257.299ZM257.299 280.569H255.299C255.299 281.674 256.194 282.569 257.299 282.569V280.569ZM266.931 280.569H268.931C268.931 279.465 268.035 278.569 266.931 278.569V280.569ZM266.931 283.313V285.313C268.035 285.313 268.931 284.418 268.931 283.313H266.931ZM244.195 283.313H242.195C242.195 284.418 243.09 285.313 244.195 285.313V283.313ZM244.195 280.569V278.569C243.09 278.569 242.195 279.465 242.195 280.569H244.195ZM253.771 280.569V282.569C254.875 282.569 255.771 281.674 255.771 280.569H253.771ZM253.771 278.945H255.771C255.771 277.841 254.875 276.945 253.771 276.945V278.945ZM247.051 278.945H245.051C245.051 280.05 245.946 280.945 247.051 280.945V278.945ZM247.051 271.273V269.273C245.946 269.273 245.051 270.169 245.051 271.273H247.051ZM264.075 271.273H266.075C266.075 270.169 265.179 269.273 264.075 269.273V271.273ZM264.075 274.073V276.073C265.179 276.073 266.075 275.178 266.075 274.073H264.075ZM250.523 274.073V272.073C249.418 272.073 248.523 272.969 248.523 274.073H250.523ZM250.523 276.201H248.523C248.523 277.306 249.418 278.201 250.523 278.201V276.201ZM246.827 295.185H244.827C244.827 296.29 245.722 297.185 246.827 297.185V295.185ZM246.827 288.577V286.577C245.722 286.577 244.827 287.473 244.827 288.577H246.827ZM260.715 288.577V290.577C261.819 290.577 262.715 289.682 262.715 288.577H260.715ZM260.715 287.233H262.715C262.715 286.129 261.819 285.233 260.715 285.233V287.233ZM246.827 287.233H244.827C244.827 288.338 245.722 289.233 246.827 289.233V287.233ZM246.827 284.657V282.657C245.722 282.657 244.827 283.553 244.827 284.657H246.827ZM264.131 284.657H266.131C266.131 283.553 265.235 282.657 264.131 282.657V284.657ZM264.131 291.041V293.041C265.235 293.041 266.131 292.146 266.131 291.041H264.131ZM250.243 291.041V289.041C249.138 289.041 248.243 289.937 248.243 291.041H250.243ZM250.243 292.497H248.243C248.243 293.602 249.138 294.497 250.243 294.497V292.497ZM264.803 292.497H266.803C266.803 291.393 265.907 290.497 264.803 290.497V292.497ZM264.803 295.185V297.185C265.907 297.185 266.803 296.29 266.803 295.185H264.803ZM262.243 276.201V278.945H266.243V276.201H262.243ZM264.243 276.945H257.299V280.945H264.243V276.945ZM255.299 278.945V280.569H259.299V278.945H255.299ZM257.299 282.569H266.931V278.569H257.299V282.569ZM264.931 280.569V283.313H268.931V280.569H264.931ZM266.931 281.313H244.195V285.313H266.931V281.313ZM246.195 283.313V280.569H242.195V283.313H246.195ZM244.195 282.569H253.771V278.569H244.195V282.569ZM255.771 280.569V278.945H251.771V280.569H255.771ZM253.771 276.945H247.051V280.945H253.771V276.945ZM249.051 278.945V271.273H245.051V278.945H249.051ZM247.051 273.273H264.075V269.273H247.051V273.273ZM262.075 271.273V274.073H266.075V271.273H262.075ZM264.075 272.073H250.523V276.073H264.075V272.073ZM248.523 274.073V276.201H252.523V274.073H248.523ZM250.523 278.201H264.243V274.201H250.523V278.201ZM248.827 295.185V288.577H244.827V295.185H248.827ZM246.827 290.577H260.715V286.577H246.827V290.577ZM262.715 288.577V287.233H258.715V288.577H262.715ZM260.715 285.233H246.827V289.233H260.715V285.233ZM248.827 287.233V284.657H244.827V287.233H248.827ZM246.827 286.657H264.131V282.657H246.827V286.657ZM262.131 284.657V291.041H266.131V284.657H262.131ZM264.131 289.041H250.243V293.041H264.131V289.041ZM248.243 291.041V292.497H252.243V291.041H248.243ZM250.243 294.497H264.803V290.497H250.243V294.497ZM262.803 292.497V295.185H266.803V292.497H262.803ZM264.803 293.185H246.827V297.185H264.803V293.185ZM289.282 270.433H291.282C291.282 269.329 290.387 268.433 289.282 268.433V270.433ZM289.282 295.409V297.409C290.387 297.409 291.282 296.514 291.282 295.409H289.282ZM285.81 295.409H283.81C283.81 296.514 284.705 297.409 285.81 297.409V295.409ZM285.81 270.433V268.433C284.705 268.433 283.81 269.329 283.81 270.433H285.81ZM269.738 289.585H267.738C267.738 290.69 268.633 291.585 269.738 291.585V289.585ZM269.738 279.393V277.393C268.633 277.393 267.738 278.289 267.738 279.393H269.738ZM277.97 279.393V281.393C279.075 281.393 279.97 280.498 279.97 279.393H277.97ZM277.97 275.361H279.97C279.97 274.257 279.075 273.361 277.97 273.361V275.361ZM269.738 275.361H267.738C267.738 276.466 268.633 277.361 269.738 277.361V275.361ZM269.738 272.561V270.561C268.633 270.561 267.738 271.457 267.738 272.561H269.738ZM281.554 272.561H283.554C283.554 271.457 282.659 270.561 281.554 270.561V272.561ZM281.554 282.137V284.137C282.659 284.137 283.554 283.242 283.554 282.137H281.554ZM273.322 282.137V280.137C272.217 280.137 271.322 281.033 271.322 282.137H273.322ZM273.322 286.729H271.322C271.322 287.262 271.535 287.773 271.913 288.149C272.291 288.524 272.804 288.733 273.337 288.729L273.322 286.729ZM284.018 285.889L286.008 285.69C285.953 285.14 285.672 284.636 285.232 284.3C284.792 283.964 284.233 283.825 283.687 283.917L284.018 285.889ZM284.298 288.689L284.651 290.658C285.679 290.474 286.392 289.529 286.288 288.49L284.298 288.689ZM287.282 270.433V295.409H291.282V270.433H287.282ZM289.282 293.409H285.81V297.409H289.282V293.409ZM287.81 295.409V270.433H283.81V295.409H287.81ZM285.81 272.433H289.282V268.433H285.81V272.433ZM271.738 289.585V279.393H267.738V289.585H271.738ZM269.738 281.393H277.97V277.393H269.738V281.393ZM279.97 279.393V275.361H275.97V279.393H279.97ZM277.97 273.361H269.738V277.361H277.97V273.361ZM271.738 275.361V272.561H267.738V275.361H271.738ZM269.738 274.561H281.554V270.561H269.738V274.561ZM279.554 272.561V282.137H283.554V272.561H279.554ZM281.554 280.137H273.322V284.137H281.554V280.137ZM271.322 282.137V286.729H275.322V282.137H271.322ZM273.337 288.729C277.215 288.701 280.546 288.5 284.349 287.862L283.687 283.917C280.154 284.51 277.045 284.702 273.307 284.729L273.337 288.729ZM282.028 286.088L282.308 288.888L286.288 288.49L286.008 285.69L282.028 286.088ZM283.945 286.721C280.053 287.419 276.491 287.585 271.978 287.585V291.585C276.593 291.585 280.423 291.416 284.651 290.658L283.945 286.721ZM271.978 287.585H269.738V291.585H271.978V287.585ZM313.537 270.433H315.537C315.537 269.329 314.642 268.433 313.537 268.433V270.433ZM313.537 295.353V297.353C314.642 297.353 315.537 296.458 315.537 295.353H313.537ZM310.009 295.353H308.009C308.009 296.458 308.905 297.353 310.009 297.353V295.353ZM310.009 270.433V268.433C308.905 268.433 308.009 269.329 308.009 270.433H310.009ZM292.705 288.297L291.846 286.492C291.327 286.738 290.94 287.196 290.782 287.747C290.625 288.299 290.711 288.892 291.021 289.375L292.705 288.297ZM302.505 275.809L304.495 276.011C304.552 275.449 304.368 274.888 303.989 274.468C303.61 274.049 303.071 273.809 302.505 273.809V275.809ZM293.993 275.809H291.993C291.993 276.914 292.889 277.809 293.993 277.809V275.809ZM293.993 273.065V271.065C292.889 271.065 291.993 271.961 291.993 273.065H293.993ZM306.033 273.065L308.033 273.058C308.029 271.956 307.135 271.065 306.033 271.065V273.065ZM294.497 291.097L292.813 292.175C293.355 293.022 294.441 293.335 295.35 292.906L294.497 291.097ZM311.537 270.433V295.353H315.537V270.433H311.537ZM313.537 293.353H310.009V297.353H313.537V293.353ZM312.009 295.353V270.433H308.009V295.353H312.009ZM310.009 272.433H313.537V268.433H310.009V272.433ZM293.565 290.103C296.961 288.487 299.559 286.569 301.385 284.197C303.225 281.805 304.184 279.078 304.495 276.011L300.515 275.607C300.267 278.057 299.531 280.047 298.215 281.758C296.883 283.488 294.861 285.056 291.846 286.492L293.565 290.103ZM302.505 273.809H293.993V277.809H302.505V273.809ZM295.993 275.809V273.065H291.993V275.809H295.993ZM293.993 275.065H306.033V271.065H293.993V275.065ZM304.033 273.073C304.046 276.606 303.428 279.681 301.887 282.323C300.355 284.95 297.805 287.326 293.644 289.289L295.35 292.906C300.093 290.669 303.326 287.795 305.342 284.339C307.35 280.897 308.048 277.057 308.033 273.058L304.033 273.073ZM296.182 290.019L294.39 287.219L291.021 289.375L292.813 292.175L296.182 290.019Z" fill="#B11007" mask="url(#path-54-outside-1_2855_600126)"/>
</g>
<defs>
<filter id="filter0_di_2855_600126" x="212" y="212" width="131" height="131" filterUnits="userSpaceOnUse" color-interpolation-filters="sRGB">
<feFlood flood-opacity="0" result="BackgroundImageFix"/>
<feColorMatrix in="SourceAlpha" type="matrix" values="0 0 0 0 0 0 0 0 0 0 0 0 0 0 0 0 0 0 127 0" result="hardAlpha"/>
<feOffset dx="-4" dy="-4"/>
<feComposite in2="hardAlpha" operator="out"/>
<feColorMatrix type="matrix" values="0 0 0 0 0.495833 0 0 0 0 0.0185938 0 0 0 0 0.0185938 0 0 0 0.2 0"/>
<feBlend mode="normal" in2="BackgroundImageFix" result="effect1_dropShadow_2855_600126"/>
<feBlend mode="normal" in="SourceGraphic" in2="effect1_dropShadow_2855_600126" result="shape"/>
<feColorMatrix in="SourceAlpha" type="matrix" values="0 0 0 0 0 0 0 0 0 0 0 0 0 0 0 0 0 0 127 0" result="hardAlpha"/>
<feOffset dx="-5" dy="-5"/>
<feComposite in2="hardAlpha" operator="arithmetic" k2="-1" k3="1"/>
<feColorMatrix type="matrix" values="0 0 0 0 0.908333 0 0 0 0 0.109757 0 0 0 0 0.109757 0 0 0 0.8 0"/>
<feBlend mode="normal" in2="shape" result="effect2_innerShadow_2855_600126"/>
</filter>
<clipPath id="clip0_2855_600126">
<rect width="560" height="560" fill="white"/>
</clipPath>
</defs>
</svg>
