<svg width="501" height="501" viewBox="0 0 501 501" fill="none" xmlns="http://www.w3.org/2000/svg">
<g clip-path="url(#clip0_89_62498)">
<path d="M408.701 239.476C338.333 239.395 345.252 125.683 401.374 139.472Z" fill="#896959"/>
<mask id="path-2-inside-1_89_62498" fill="white">
<path d="M318.814 45.8487C293.862 51.1851 253.75 61.4825 252.983 92.0158C252.346 117.604 271.064 137.595 269.302 165.044C267.523 192.869 257.519 216.27 238.654 237.028C212.283 265.995 244.97 302.991 277.135 303.04C314.359 303.089 357.328 277.418 368.604 240.798"/>
</mask>
<path d="M318.814 45.8487C293.862 51.1851 253.75 61.4825 252.983 92.0158C252.346 117.604 271.064 137.595 269.302 165.044C267.523 192.869 257.519 216.27 238.654 237.028C212.283 265.995 244.97 302.991 277.135 303.04C314.359 303.089 357.328 277.418 368.604 240.798" fill="#896959"/>
<path d="M252.983 92.0158L248.984 91.9153L248.984 91.9163L252.983 92.0158ZM269.302 165.044L265.31 164.788L265.31 164.789L269.302 165.044ZM238.654 237.028L241.612 239.721L241.615 239.719L238.654 237.028ZM277.135 303.04L277.129 307.04L277.13 307.04L277.135 303.04ZM317.978 41.9371C305.503 44.605 288.737 48.6042 274.948 55.9534C261.151 63.3067 249.42 74.5455 248.984 91.9153L256.981 92.1162C257.312 78.9527 266.021 69.7762 278.71 63.0133C291.407 56.2465 307.173 52.4287 319.651 49.7602L317.978 41.9371ZM248.984 91.9163C248.643 105.636 253.509 117.794 257.821 129.242C262.213 140.903 266.13 152.021 265.31 164.788L273.294 165.301C274.236 150.618 269.675 138.017 265.308 126.422C260.861 114.616 256.686 103.984 256.981 92.1152L248.984 91.9163ZM265.31 164.789C263.59 191.696 253.957 214.242 235.694 234.338L241.615 239.719C261.082 218.298 271.456 194.041 273.294 165.299L265.31 164.789ZM235.697 234.335C228.505 242.234 225.18 250.89 225.019 259.481C224.859 268.014 227.823 276.162 232.652 283.152C242.235 297.021 259.634 307.013 277.129 307.04L277.141 299.04C262.471 299.017 247.444 290.486 239.234 278.604C235.168 272.719 232.895 266.183 233.017 259.631C233.139 253.137 235.618 246.306 241.612 239.721L235.697 234.335ZM277.13 307.04C296.609 307.065 317.409 300.383 334.789 289.018C352.166 277.654 366.449 261.39 372.427 241.975L364.781 239.621C359.483 256.827 346.643 271.707 330.411 282.322C314.181 292.935 294.886 299.063 277.14 299.04L277.13 307.04Z" fill="black" mask="url(#path-2-inside-1_89_62498)"/>
<path d="M418.541 225.086C425.688 245.077 434.419 265.574 436.1 287.001C437.504 304.74 431.058 317.746 428.675 335.338C427.484 344.102 428.251 446.717 422.131 446.684C421.935 446.684 243.027 448.055 243.027 448.055C253.929 399.228 219.577 351.788 227.182 305.376C232.975 270.061 280.039 220.696 315.06 216.094" fill="#E86A5D"/>
<path d="M418.541 225.086C425.688 245.077 434.419 265.574 436.1 287.001C437.504 304.74 431.058 317.746 428.675 335.338C427.484 344.102 428.251 446.717 422.131 446.684C421.935 446.684 243.027 448.055 243.027 448.055C253.929 399.228 219.577 351.788 227.182 305.376C232.975 270.061 280.039 220.696 315.06 216.094" stroke="#281000" stroke-width="4" stroke-linecap="round" stroke-linejoin="round"/>
<path d="M310.753 154.538L310.427 219.309C310.345 233.963 322.177 245.893 336.815 245.974C351.47 246.039 363.415 234.224 363.481 219.586L363.807 154.815" fill="#FFD8C7"/>
<path d="M310.753 154.538L310.427 219.309C310.345 233.963 322.177 245.893 336.815 245.974C351.47 246.039 363.415 234.224 363.481 219.586L363.807 154.815" stroke="black" stroke-width="4" stroke-linecap="round" stroke-linejoin="round"/>
<path d="M474.191 580.534L421.496 441.086L246.521 440.564L189.861 580.093" fill="#FFD97B"/>
<path d="M474.191 580.534L421.496 441.086L246.521 440.564L189.861 580.093" stroke="black" stroke-width="4" stroke-miterlimit="10"/>
<path d="M324.64 200.396C317.623 200.086 310.932 198.584 304.747 196.104C281.427 186.753 265.45 163.416 266.658 136.897L268.224 102.382C269.742 68.83 298.187 42.8662 331.739 44.3838C365.291 45.9015 391.255 74.3459 389.737 107.898L388.171 142.413C387.126 165.505 373.32 185.007 353.868 194.423" fill="#FFD8C7"/>
<path d="M324.64 200.396C317.623 200.086 310.932 198.584 304.747 196.104C281.427 186.753 265.45 163.416 266.658 136.897L268.224 102.382C269.742 68.83 298.187 42.8662 331.739 44.3838C365.291 45.9015 391.255 74.3459 389.737 107.898L388.171 142.413C387.126 165.505 373.32 185.007 353.868 194.423" stroke="black" stroke-width="4" stroke-linecap="round" stroke-linejoin="round"/>
<path d="M283.957 113.821C283.81 117.248 282.521 119.973 281.085 119.924C279.649 119.859 278.621 117.019 278.784 113.592C278.931 110.165 280.22 107.424 281.656 107.489C283.092 107.554 284.12 110.378 283.957 113.821Z" fill="black" stroke="black" stroke-width="4" stroke-linecap="round" stroke-linejoin="round"/>
<path d="M334.889 117.169C334.726 120.596 333.257 123.321 331.625 123.256C329.96 123.174 328.753 120.335 328.916 116.908C329.079 113.481 330.532 110.755 332.196 110.837C333.844 110.918 335.052 113.758 334.905 117.185L334.889 117.169Z" fill="black" stroke="black" stroke-width="4" stroke-linecap="round" stroke-linejoin="round"/>
<path d="M276.483 95.8391C279.715 92.2326 284.333 90.568 289.131 91.2208" stroke="black" stroke-width="4" stroke-linecap="round" stroke-linejoin="round"/>
<path d="M304.388 123.402C288.885 119.861 287.53 140.896 305.579 140.015" stroke="black" stroke-width="4" stroke-linecap="round" stroke-linejoin="round"/>
<path d="M425.436 64.0032C424.65 62.5234 423.798 61.0072 422.868 59.4662L422.865 59.4612C411.506 40.5236 395.781 30.0823 374.276 23.7638L425.436 64.0032ZM425.436 64.0032V64.0181L425.666 64.4553C433.264 78.8961 434.45 90.3385 433.319 102.246C432.765 108.082 431.655 114.026 430.434 120.562L430.321 121.165C429.061 127.915 427.709 135.257 426.802 143.565C425.844 152.315 427.243 158.958 430.359 164.226C433.457 169.462 438.126 173.125 443.308 176.149C446.82 178.198 450.717 180.03 454.595 181.854C456.368 182.687 458.137 183.519 459.863 184.369C465.463 187.125 470.807 190.152 475.261 194.287C497.823 215.242 505.528 250.942 488.744 277.272C485.819 281.841 481.291 286.766 476.663 291.776L476.451 292.005C471.973 296.854 467.401 301.803 464.573 306.314C463.133 308.61 462.037 310.955 461.7 313.248C461.35 315.624 461.822 317.939 463.474 319.935C465.06 321.853 467.58 323.286 470.949 324.345C473.37 325.105 476.324 325.702 479.868 326.13C467.281 337.136 453.086 344.197 436.152 341.665C428.586 340.53 423.068 338.158 419 334.956C414.938 331.759 412.201 327.64 410.341 322.817C406.695 313.36 406.495 301.469 406.284 289C406.277 288.573 406.27 288.144 406.262 287.716C406.235 286.136 406.226 284.557 406.217 282.978C406.157 272.389 406.097 261.835 400.61 251.544C398.643 247.853 395.665 244.597 392.385 241.593C389.912 239.329 387.179 237.131 384.5 234.977C383.638 234.283 382.781 233.594 381.941 232.909C374.843 227.123 368.946 221.606 367.528 214.757L367.528 214.756C365.554 205.239 371.091 198.046 378.31 190.13C378.931 189.449 379.564 188.762 380.204 188.069C383.182 184.84 386.284 181.476 388.859 177.901C392.011 173.523 394.501 168.663 395.137 163.018L395.137 163.017C397.159 145.028 386.44 134.275 374.067 125.395C370.967 123.17 367.724 121.035 364.521 118.927L364.494 118.909C361.288 116.799 358.123 114.716 355.108 112.556C349.048 108.212 343.757 103.667 340.199 98.2616C338.033 94.9689 336.411 91.4739 334.913 87.8971C334.461 86.8197 334.017 85.7223 333.569 84.6193C332.557 82.1213 331.532 79.5944 330.394 77.2046C327.042 70.1651 322.455 63.7436 313.069 59.9559L313.067 59.9553C311.946 59.5041 309.273 58.784 306.049 58.096C302.772 57.3964 298.761 56.6952 294.894 56.3136C291.079 55.9372 287.205 55.8497 284.302 56.491C283.644 56.6364 282.984 56.8298 282.361 57.093C281.785 47.5918 284.509 40.4007 289.263 34.9612C294.876 28.5385 303.518 24.3299 313.621 21.8748C333.845 16.9596 359.03 19.2888 374.275 23.7637L425.436 64.0032Z" fill="#896959" stroke="black" stroke-width="4"/>
<path d="M373.224 118.193C377.206 107.488 396.691 110.327 400.363 119.841C404.916 131.673 390.376 147.388 379.703 150.162" fill="#F4D7C4"/>
<path d="M373.224 118.193C377.206 107.488 396.691 110.327 400.363 119.841C404.916 131.673 390.376 147.388 379.703 150.162" stroke="black" stroke-width="4" stroke-linecap="round" stroke-linejoin="round"/>
<path d="M387.094 126.742C383.243 127.885 380.762 132.079 379.555 135.914" stroke="black" stroke-width="4" stroke-linecap="round" stroke-linejoin="round"/>
<path d="M341.841 96.2274C337.418 93.959 332.572 92.8493 327.578 92.9799" stroke="black" stroke-width="4" stroke-linecap="round" stroke-linejoin="round"/>
<path d="M300.343 155.615C309.139 155.663 317.902 156.626 326.698 156.887C324.397 163.105 323.696 172.946 316.94 176.111C306.968 180.795 303.264 169.323 304.227 161.522" stroke="black" stroke-width="4" stroke-linecap="round" stroke-linejoin="round"/>
<path d="M140.641 249.464C136.12 255.829 137.67 264.641 144.133 269.129C150.595 273.633 159.489 272.115 164.026 265.735L209.965 177.937C214.501 171.573 212.935 162.76 206.472 158.273C200.01 153.768 191.116 155.286 186.579 161.651L140.641 249.448V249.464Z" fill="#131313"/>
<path d="M184.424 150.292C180.197 166.595 189.76 183.126 205.769 187.222C221.778 191.318 238.163 181.429 242.39 165.142C246.6 148.839 237.053 132.308 221.044 128.212C205.035 124.116 188.65 134.005 184.44 150.292H184.424Z" fill="#F04C42" stroke="black" stroke-width="4" stroke-miterlimit="10"/>
<path d="M62.4382 81.1814C58.2278 97.468 67.7745 114.016 83.7837 118.112C99.7765 122.208 116.177 112.319 120.404 96.0319C124.614 79.7453 115.068 63.214 99.0585 59.1015C83.0493 55.0054 66.6648 64.8948 62.4382 81.1814Z" fill="#F04C42" stroke="black" stroke-width="4" stroke-miterlimit="10"/>
<path d="M233.775 135.785L210.112 122.436L131.339 22.3988L56.2544 153.181L177.082 171.818L204.286 187.158L233.775 135.785Z" fill="#FFD748" stroke="black" stroke-width="4" stroke-miterlimit="10"/>
<path d="M229.22 250.133C226.038 252.924 204.741 227.874 202.783 225.524C193.057 213.872 176.15 196.296 159.048 195.023C155.278 194.762 151.851 196.965 151.329 200.849C150.66 205.908 155.702 208.487 159.831 209.907C155.359 208.373 146.694 204.603 143.446 210.037C140.068 215.651 148.881 220.481 154.658 223.239C150.317 221.281 144.328 219.078 140.933 220.269C133.557 222.831 139.856 229.359 144.98 233.178C143.773 232.688 142.533 232.346 141.243 232.378C132.757 232.656 132.97 238.122 138.11 242.251C142.924 246.119 149.077 247.294 154.511 249.921C163.062 254.066 174.078 253.006 180.932 256.808C189.059 261.345 198.475 274.792 204.48 282.331C210.143 269.749 219.135 258.995 229.237 250.117L229.22 250.133Z" fill="#F4D7C4" stroke="black" stroke-width="4" stroke-linecap="round" stroke-linejoin="round"/>
<path d="M179.136 255.208C182.22 256.008 185.631 255.845 188.764 254.817Z" fill="white"/>
<path d="M179.136 255.208C182.22 256.008 185.631 255.845 188.764 254.817" stroke="black" stroke-width="4" stroke-linecap="round" stroke-linejoin="round"/>
<path d="M144.622 233.113C147.086 234.304 149.632 235.218 152.194 236.115Z" fill="white"/>
<path d="M144.622 233.113C147.086 234.304 149.632 235.218 152.194 236.115" stroke="black" stroke-width="4" stroke-linecap="round" stroke-linejoin="round"/>
<path d="M155.866 208.144C159.016 209.76 162.54 210.755 165.788 212.207Z" fill="white"/>
<path d="M155.866 208.144C159.016 209.76 162.54 210.755 165.788 212.207" stroke="black" stroke-width="4" stroke-linecap="round" stroke-linejoin="round"/>
<path d="M380.435 273.683L310.458 315.918L212.592 231.417C212.592 231.417 178.795 268.429 178.779 268.445C174.878 272.737 255.25 356.52 261.06 362.052C283.368 383.283 300.634 390.97 331.2 381.504C363.953 371.354 411.066 363.26 434.435 335.647C455.242 311.038 455.879 278.563 438.238 252.093C426.602 234.631 387.991 213.988 366.825 216.909" fill="#E86A5D"/>
<path d="M380.435 273.683L310.458 315.918L212.592 231.417C212.592 231.417 178.795 268.429 178.779 268.445C174.878 272.737 255.25 356.52 261.06 362.052C283.368 383.283 300.634 390.97 331.2 381.504C363.953 371.354 411.066 363.26 434.435 335.647C455.242 311.038 455.879 278.563 438.238 252.093C426.602 234.631 387.991 213.988 366.825 216.909" stroke="#281000" stroke-width="4" stroke-linecap="round" stroke-linejoin="round"/>
<path d="M310.361 315.346C310.231 325.399 311.438 335.386 308.093 344.9" stroke="black" stroke-width="4" stroke-linecap="round" stroke-linejoin="round"/>
<path d="M10.7716 36.1401L44.7156 53.5691" stroke="black" stroke-width="4" stroke-linecap="round" stroke-linejoin="round"/>
<path d="M53.4644 6L64.9205 35.5378" stroke="black" stroke-width="4" stroke-linecap="round" stroke-linejoin="round"/>
<path d="M4 82.9469L34.0763 75.8154" stroke="black" stroke-width="4" stroke-linecap="round" stroke-linejoin="round"/>
</g>
<defs>
<clipPath id="clip0_89_62498">
<rect width="500" height="500" fill="white" transform="translate(0.5 0.5)"/>
</clipPath>
</defs>
</svg>
