<svg width="39" height="38" viewBox="0 0 39 38" fill="none" xmlns="http://www.w3.org/2000/svg">
<path d="M15.0234 33.2505H10.2734C7.65009 33.2505 5.52344 31.1238 5.52344 28.5005V9.50049C5.52344 6.87714 7.65009 4.75049 10.2734 4.75049H29.2734C31.8968 4.75049 34.0234 6.87714 34.0234 9.50049V14.2505" stroke="black" stroke-width="1.5" stroke-linecap="round" stroke-linejoin="round"/>
<path fill-rule="evenodd" clip-rule="evenodd" d="M24.0833 32.7861C23.7864 33.0831 23.3837 33.25 22.9639 33.25H19.7734V30.0596C19.7734 29.6397 19.9404 29.2371 20.2374 28.9402L29.617 19.5526C30.1281 19.0415 30.8212 18.7544 31.5439 18.7544C32.2667 18.7544 32.9598 19.0415 33.4709 19.5526C33.9823 20.0634 34.2697 20.7567 34.2697 21.4795C34.2697 22.2024 33.9823 22.8956 33.4709 23.4064L24.0833 32.7861Z" stroke="black" stroke-width="1.5" stroke-linecap="round" stroke-linejoin="round"/>
<path d="M26.125 23.0557L29.9725 26.9032" stroke="black" stroke-width="1.5" stroke-linecap="round" stroke-linejoin="round"/>
<path d="M32.7016 24.1743L34.1266 25.5993C34.8767 26.3509 34.8767 27.5679 34.1266 28.3195L32.4023 30.0453" stroke="black" stroke-width="1.5" stroke-linecap="round" stroke-linejoin="round"/>
<path d="M11.418 17.416H22.9388" stroke="black" stroke-width="1.5" stroke-linecap="round" stroke-linejoin="round"/>
<path d="M11.418 11.2808H26.1055" stroke="black" stroke-width="1.5" stroke-linecap="round" stroke-linejoin="round"/>
<path d="M11.418 23.5518H18.1888" stroke="black" stroke-width="1.5" stroke-linecap="round" stroke-linejoin="round"/>
</svg>
